M48
; DRILL file {KiCad (5.1.2-1)-1} date Monday, October 28, 2019 at 03:33:03 PM
; FORMAT={-:-/ absolute / metric / decimal}
; #@! TF.CreationDate,2019-10-28T15:33:03-04:00
; #@! TF.GenerationSoftware,Kicad,Pcbnew,(5.1.2-1)-1
; #@! TF.FileFunction,Plated,1,2,PTH
FMAT,2
METRIC
T1C0.400
T2C0.800
T3C1.000
T4C1.100
%
G90
G05
T1
X-26.67Y-5.715
X-26.67Y-8.255
X-22.86Y-5.715
X-22.86Y-8.255
X-10.795Y-5.715
X-10.795Y-8.255
X-6.985Y-5.715
X-6.985Y-8.255
X-5.08Y-5.715
T2
X-12.7Y-10.16
X-38.1Y-4.064
X-33.1Y-4.064
X-8.81Y-10.16
X-3.81Y-10.16
X-24.685Y-10.16
X-19.685Y-10.16
X-38.1Y-6.604
X-33.1Y-6.604
X-28.575Y-10.16
T3
X8.89Y-31.115
X11.43Y-31.115
X13.97Y-31.115
X-30.48Y-2.54
X-27.94Y-2.54
X-25.4Y-2.54
X-22.86Y-2.54
X-20.32Y-2.54
X-17.78Y-2.54
X-15.24Y-2.54
X-12.7Y-2.54
X-10.16Y-2.54
X-7.62Y-2.54
X-5.08Y-2.54
X-2.54Y-2.54
X0.0Y-2.54
X2.54Y-2.54
X5.08Y-2.54
X7.62Y-2.54
X10.16Y-2.54
X12.7Y-2.54
X15.24Y-2.54
X-10.16Y-31.115
X-7.62Y-31.115
X-5.08Y-31.115
X-2.54Y-31.115
X-39.37Y-11.43
X-39.37Y-16.51
X-28.575Y-12.7
X-28.575Y-15.24
X-28.575Y-17.78
X-28.575Y-20.32
X-28.575Y-22.86
X-28.575Y-25.4
X-28.575Y-27.94
X-15.875Y-10.16
X-15.875Y-12.7
X-15.875Y-15.24
X-15.875Y-17.78
X-15.875Y-20.32
X-15.875Y-22.86
X-15.875Y-25.4
X-15.875Y-27.94
X6.35Y-7.62
X6.35Y-10.16
X6.35Y-12.7
X6.35Y-15.24
X6.35Y-17.78
X6.35Y-20.32
X6.35Y-22.86
X6.35Y-25.4
X-26.035Y-31.115
X-23.495Y-31.115
X-20.955Y-31.115
X-18.415Y-31.115
X-12.7Y-12.7
X-12.7Y-15.24
X-12.7Y-17.78
X-12.7Y-20.32
X-12.7Y-22.86
X-12.7Y-25.4
X-12.7Y-27.94
X0.0Y-10.16
X0.0Y-12.7
X0.0Y-15.24
X0.0Y-17.78
X0.0Y-20.32
X0.0Y-22.86
X0.0Y-25.4
X0.0Y-27.94
X-30.48Y22.86
X-30.48Y0.0
X-27.94Y22.86
X-27.94Y0.0
X-25.4Y22.86
X-25.4Y0.0
X-22.86Y22.86
X-22.86Y0.0
X-20.32Y22.86
X-20.32Y0.0
X-17.78Y22.86
X-17.78Y0.0
X-15.24Y22.86
X-15.24Y0.0
X-12.7Y22.86
X-12.7Y0.0
X-10.16Y22.86
X-10.16Y0.0
X-7.62Y22.86
X-7.62Y0.0
X-5.08Y22.86
X-5.08Y0.0
X-2.54Y22.86
X-2.54Y0.0
X0.0Y22.86
X0.0Y0.0
X2.54Y22.86
X2.54Y0.0
X5.08Y22.86
X5.08Y0.0
X7.62Y22.86
X7.62Y0.0
X10.16Y22.86
X10.16Y0.0
X12.7Y22.86
X12.7Y0.0
X15.24Y22.86
X15.24Y0.0
X-39.37Y-21.59
X-39.37Y-26.67
T4
X-40.64Y-1.27
X-38.1Y-1.27
X-35.56Y-1.27
T0
M30
