G04 #@! TF.GenerationSoftware,KiCad,Pcbnew,(5.1.4-0-10_14)*
G04 #@! TF.CreationDate,2020-05-08T13:11:59-04:00*
G04 #@! TF.ProjectId,balancebot,62616c61-6e63-4656-926f-742e6b696361,0.4.5*
G04 #@! TF.SameCoordinates,Original*
G04 #@! TF.FileFunction,Copper,L1,Top*
G04 #@! TF.FilePolarity,Positive*
%FSLAX46Y46*%
G04 Gerber Fmt 4.6, Leading zero omitted, Abs format (unit mm)*
G04 Created by KiCad (PCBNEW (5.1.4-0-10_14)) date 2020-05-08 13:11:59*
%MOMM*%
%LPD*%
G04 APERTURE LIST*
%ADD10O,1.700000X1.700000*%
%ADD11R,1.700000X1.700000*%
%ADD12R,1.800000X1.800000*%
%ADD13C,1.800000*%
%ADD14R,1.600000X1.600000*%
%ADD15C,1.600000*%
%ADD16C,0.800000*%
%ADD17C,1.270000*%
%ADD18C,0.635000*%
%ADD19C,0.250000*%
%ADD20C,0.254000*%
G04 APERTURE END LIST*
D10*
X159766000Y-77343000D03*
X157226000Y-77343000D03*
X154686000Y-77343000D03*
X152146000Y-77343000D03*
X149606000Y-77343000D03*
X147066000Y-77343000D03*
X144526000Y-77343000D03*
X141986000Y-77343000D03*
X139446000Y-77343000D03*
X136906000Y-77343000D03*
X134366000Y-77343000D03*
X131826000Y-77343000D03*
X129286000Y-77343000D03*
X126746000Y-77343000D03*
X124206000Y-77343000D03*
X121666000Y-77343000D03*
X119126000Y-77343000D03*
X116586000Y-77343000D03*
D11*
X114046000Y-77343000D03*
D12*
X159385000Y-91694000D03*
D13*
X161925000Y-91694000D03*
X164465000Y-91694000D03*
D10*
X114427000Y-97409000D03*
D11*
X114427000Y-92329000D03*
D10*
X114427000Y-87249000D03*
D11*
X114427000Y-82169000D03*
D10*
X132461000Y-106045000D03*
X129921000Y-106045000D03*
X127381000Y-106045000D03*
D11*
X124841000Y-106045000D03*
D10*
X162496500Y-106045000D03*
X159956500Y-106045000D03*
D11*
X157416500Y-106045000D03*
D10*
X144526000Y-72136000D03*
X144526000Y-69596000D03*
X144526000Y-67056000D03*
X144526000Y-64516000D03*
X144526000Y-61976000D03*
X144526000Y-59436000D03*
X144526000Y-56896000D03*
D11*
X144526000Y-54356000D03*
D10*
X152400000Y-84074000D03*
X139700000Y-101854000D03*
X152400000Y-86614000D03*
X139700000Y-99314000D03*
X152400000Y-89154000D03*
X139700000Y-96774000D03*
X152400000Y-91694000D03*
X139700000Y-94234000D03*
X152400000Y-94234000D03*
X139700000Y-91694000D03*
X152400000Y-96774000D03*
X139700000Y-89154000D03*
X152400000Y-99314000D03*
X139700000Y-86614000D03*
X152400000Y-101854000D03*
D14*
X139700000Y-84074000D03*
D15*
X143590000Y-84074000D03*
X148590000Y-84074000D03*
X126191000Y-84074000D03*
X131191000Y-84074000D03*
D10*
X135001000Y-84074000D03*
X122301000Y-101854000D03*
X135001000Y-86614000D03*
X122301000Y-99314000D03*
X135001000Y-89154000D03*
X122301000Y-96774000D03*
X135001000Y-91694000D03*
X122301000Y-94234000D03*
X135001000Y-94234000D03*
X122301000Y-91694000D03*
X135001000Y-96774000D03*
X122301000Y-89154000D03*
X135001000Y-99314000D03*
X122301000Y-86614000D03*
X135001000Y-101854000D03*
D14*
X122301000Y-84074000D03*
D10*
X159766000Y-51816000D03*
X157226000Y-51816000D03*
X154686000Y-51816000D03*
X152146000Y-51816000D03*
X149606000Y-51816000D03*
X147066000Y-51816000D03*
X144526000Y-51816000D03*
X141986000Y-51816000D03*
X139446000Y-51816000D03*
X136906000Y-51816000D03*
X134366000Y-51816000D03*
X131826000Y-51816000D03*
X129286000Y-51816000D03*
X126746000Y-51816000D03*
X124206000Y-51816000D03*
X121666000Y-51816000D03*
X119126000Y-51816000D03*
X116586000Y-51816000D03*
X114046000Y-51816000D03*
X159766000Y-74676000D03*
X157226000Y-74676000D03*
X154686000Y-74676000D03*
X152146000Y-74676000D03*
X149606000Y-74676000D03*
X147066000Y-74676000D03*
X144526000Y-74676000D03*
X141986000Y-74676000D03*
X139446000Y-74676000D03*
X136906000Y-74676000D03*
X134366000Y-74676000D03*
X131826000Y-74676000D03*
X129286000Y-74676000D03*
X126746000Y-74676000D03*
X124206000Y-74676000D03*
X121666000Y-74676000D03*
X119126000Y-74676000D03*
X116586000Y-74676000D03*
D11*
X114046000Y-74676000D03*
D10*
X149860000Y-106045000D03*
X147320000Y-106045000D03*
X144780000Y-106045000D03*
D11*
X142240000Y-106045000D03*
D16*
X114173000Y-54356000D03*
X141859000Y-72136000D03*
X126746000Y-61976000D03*
X119126000Y-59436000D03*
D17*
X148590000Y-84074000D02*
X152400000Y-84074000D01*
X131191000Y-84074000D02*
X135001000Y-84074000D01*
X120142000Y-81534000D02*
X114427000Y-87249000D01*
X151062081Y-81534000D02*
X135001000Y-81534000D01*
X152400000Y-81534000D02*
X151062081Y-81534000D01*
X159385000Y-91694000D02*
X159385000Y-84836000D01*
X156083000Y-81534000D02*
X152400000Y-81534000D01*
X159385000Y-84836000D02*
X156083000Y-81534000D01*
X152400000Y-82871919D02*
X151062081Y-81534000D01*
X152400000Y-84074000D02*
X152400000Y-82871919D01*
X135001000Y-84074000D02*
X135001000Y-82677000D01*
X133858000Y-81534000D02*
X120142000Y-81534000D01*
X135001000Y-82677000D02*
X133858000Y-81534000D01*
X135001000Y-81534000D02*
X133858000Y-81534000D01*
D18*
X152400000Y-86614000D02*
X152400000Y-86487000D01*
X124841000Y-99314000D02*
X135001000Y-89154000D01*
X124841000Y-106045000D02*
X124841000Y-99314000D01*
D19*
X114046000Y-74803000D02*
X114046000Y-77343000D01*
X139700000Y-91694000D02*
X139700000Y-91440000D01*
X153035000Y-87884000D02*
X153670000Y-88519000D01*
X153670000Y-98044000D02*
X152400000Y-99314000D01*
X153670000Y-88519000D02*
X153670000Y-98044000D01*
X136271000Y-88392000D02*
X135763000Y-87884000D01*
X136271000Y-98044000D02*
X136271000Y-88392000D01*
X135001000Y-99314000D02*
X136271000Y-98044000D01*
X114173000Y-54356000D02*
X144526000Y-54356000D01*
X122301000Y-86614000D02*
X123571000Y-87884000D01*
X123571000Y-87884000D02*
X134620000Y-87884000D01*
X134620000Y-87884000D02*
X134366000Y-87884000D01*
X139700000Y-86614000D02*
X140970000Y-87884000D01*
X140970000Y-87884000D02*
X151765000Y-87884000D01*
X151765000Y-87884000D02*
X153035000Y-87884000D01*
X151511000Y-87884000D02*
X151765000Y-87884000D01*
X139700000Y-86614000D02*
X138430000Y-87884000D01*
X138430000Y-87884000D02*
X135382000Y-87884000D01*
X135382000Y-87884000D02*
X134620000Y-87884000D01*
X135763000Y-87884000D02*
X135382000Y-87884000D01*
D18*
X127381000Y-99314000D02*
X135001000Y-91694000D01*
X127381000Y-106045000D02*
X127381000Y-99314000D01*
X129921000Y-99314000D02*
X135001000Y-94234000D01*
X129921000Y-106045000D02*
X129921000Y-99314000D01*
X132461000Y-99314000D02*
X135001000Y-96774000D01*
X132461000Y-106045000D02*
X132461000Y-99314000D01*
X142240000Y-99314000D02*
X152400000Y-89154000D01*
X142240000Y-106045000D02*
X142240000Y-99314000D01*
X144780000Y-99314000D02*
X152400000Y-91694000D01*
X144780000Y-106045000D02*
X144780000Y-99314000D01*
X147320000Y-99314000D02*
X152400000Y-94234000D01*
X147320000Y-106045000D02*
X147320000Y-99314000D01*
X149860000Y-99314000D02*
X152400000Y-96774000D01*
X149860000Y-106045000D02*
X149860000Y-99314000D01*
X159766000Y-77343000D02*
X159766000Y-74676000D01*
X164465000Y-82042000D02*
X159766000Y-77343000D01*
X164465000Y-91694000D02*
X164465000Y-82042000D01*
X159956500Y-96202500D02*
X164465000Y-91694000D01*
X159956500Y-106045000D02*
X159956500Y-96202500D01*
D17*
X112741999Y-85974001D02*
X114427000Y-84289000D01*
X112741999Y-88057801D02*
X112741999Y-85974001D01*
X114427000Y-89742802D02*
X112741999Y-88057801D01*
X114427000Y-84289000D02*
X114427000Y-82169000D01*
X114427000Y-92329000D02*
X114427000Y-89742802D01*
D19*
X116586000Y-74803000D02*
X116586000Y-77343000D01*
X119126000Y-74803000D02*
X119126000Y-77343000D01*
X121666000Y-74803000D02*
X121666000Y-77343000D01*
X124206000Y-74803000D02*
X124206000Y-77343000D01*
X126746000Y-74803000D02*
X126746000Y-77343000D01*
X152146000Y-74803000D02*
X152146000Y-77343000D01*
X154686000Y-74803000D02*
X154686000Y-77343000D01*
X157226000Y-74803000D02*
X157226000Y-77343000D01*
X144526000Y-74803000D02*
X144526000Y-77343000D01*
X141986000Y-74803000D02*
X141986000Y-77343000D01*
X144526000Y-72136000D02*
X141859000Y-72136000D01*
X144526000Y-61976000D02*
X126746000Y-61976000D01*
X144526000Y-59436000D02*
X119126000Y-59436000D01*
X131826000Y-74803000D02*
X131826000Y-77343000D01*
X129286000Y-75878081D02*
X129286000Y-77343000D01*
X129286000Y-74676000D02*
X129286000Y-75878081D01*
X139446000Y-74803000D02*
X139446000Y-77343000D01*
X136906000Y-74803000D02*
X136906000Y-77343000D01*
X134366000Y-74803000D02*
X134366000Y-77343000D01*
X138430000Y-85344000D02*
X139700000Y-84074000D01*
X137414000Y-85344000D02*
X138430000Y-85344000D01*
X123571000Y-85344000D02*
X122301000Y-84074000D01*
X137414000Y-85344000D02*
X123571000Y-85344000D01*
X149606000Y-74676000D02*
X149606000Y-77343000D01*
D20*
G36*
X142848486Y-82837329D02*
G01*
X142776903Y-83081298D01*
X143590000Y-83894395D01*
X144403097Y-83081298D01*
X144331514Y-82837329D01*
X144261077Y-82804000D01*
X147907759Y-82804000D01*
X147675241Y-82959363D01*
X147475363Y-83159241D01*
X147318320Y-83394273D01*
X147210147Y-83655426D01*
X147155000Y-83932665D01*
X147155000Y-84215335D01*
X147210147Y-84492574D01*
X147318320Y-84753727D01*
X147475363Y-84988759D01*
X147675241Y-85188637D01*
X147910273Y-85345680D01*
X148171426Y-85453853D01*
X148448665Y-85509000D01*
X148731335Y-85509000D01*
X149008574Y-85453853D01*
X149269727Y-85345680D01*
X149272241Y-85344000D01*
X151625791Y-85344000D01*
X151635523Y-85349201D01*
X151518645Y-85418822D01*
X151302412Y-85613731D01*
X151128359Y-85847080D01*
X151003175Y-86109901D01*
X150958524Y-86257110D01*
X151079845Y-86487000D01*
X152273000Y-86487000D01*
X152273000Y-86467000D01*
X152527000Y-86467000D01*
X152527000Y-86487000D01*
X153720155Y-86487000D01*
X153841476Y-86257110D01*
X153796825Y-86109901D01*
X153671641Y-85847080D01*
X153497588Y-85613731D01*
X153281355Y-85418822D01*
X153164477Y-85349201D01*
X153229014Y-85314706D01*
X153455134Y-85129134D01*
X153640706Y-84903014D01*
X153778599Y-84645034D01*
X153863513Y-84365111D01*
X153892185Y-84074000D01*
X153863513Y-83782889D01*
X153778599Y-83502966D01*
X153670000Y-83299791D01*
X153670000Y-82934291D01*
X153676143Y-82871918D01*
X153670000Y-82809545D01*
X153670000Y-82809539D01*
X153669454Y-82804000D01*
X155556950Y-82804000D01*
X158115001Y-85362052D01*
X158115000Y-90276188D01*
X158033815Y-90342815D01*
X157954463Y-90439506D01*
X157895498Y-90549820D01*
X157859188Y-90669518D01*
X157846928Y-90794000D01*
X157846928Y-92594000D01*
X157859188Y-92718482D01*
X157895498Y-92838180D01*
X157954463Y-92948494D01*
X158033815Y-93045185D01*
X158130506Y-93124537D01*
X158240820Y-93183502D01*
X158360518Y-93219812D01*
X158485000Y-93232072D01*
X160285000Y-93232072D01*
X160409482Y-93219812D01*
X160529180Y-93183502D01*
X160639494Y-93124537D01*
X160736185Y-93045185D01*
X160815537Y-92948494D01*
X160874502Y-92838180D01*
X160877813Y-92827265D01*
X160924578Y-92874030D01*
X161040526Y-92758082D01*
X161124208Y-93012261D01*
X161396775Y-93143158D01*
X161613221Y-93198740D01*
X159316064Y-95495898D01*
X159279723Y-95525722D01*
X159249899Y-95562063D01*
X159160694Y-95670760D01*
X159072249Y-95836231D01*
X159017783Y-96015778D01*
X158999392Y-96202500D01*
X159004001Y-96249295D01*
X159004000Y-104905636D01*
X158901366Y-104989866D01*
X158876893Y-105019687D01*
X158856002Y-104950820D01*
X158797037Y-104840506D01*
X158717685Y-104743815D01*
X158620994Y-104664463D01*
X158510680Y-104605498D01*
X158390982Y-104569188D01*
X158266500Y-104556928D01*
X156566500Y-104556928D01*
X156442018Y-104569188D01*
X156322320Y-104605498D01*
X156212006Y-104664463D01*
X156115315Y-104743815D01*
X156035963Y-104840506D01*
X155976998Y-104950820D01*
X155940688Y-105070518D01*
X155928428Y-105195000D01*
X155928428Y-106895000D01*
X155940688Y-107019482D01*
X155976998Y-107139180D01*
X156035963Y-107249494D01*
X156069205Y-107290000D01*
X150680980Y-107290000D01*
X150689014Y-107285706D01*
X150915134Y-107100134D01*
X151100706Y-106874014D01*
X151238599Y-106616034D01*
X151323513Y-106336111D01*
X151352185Y-106045000D01*
X151323513Y-105753889D01*
X151238599Y-105473966D01*
X151100706Y-105215986D01*
X150915134Y-104989866D01*
X150812500Y-104905636D01*
X150812500Y-102210890D01*
X150958524Y-102210890D01*
X151003175Y-102358099D01*
X151128359Y-102620920D01*
X151302412Y-102854269D01*
X151518645Y-103049178D01*
X151768748Y-103198157D01*
X152043109Y-103295481D01*
X152273000Y-103174814D01*
X152273000Y-101981000D01*
X152527000Y-101981000D01*
X152527000Y-103174814D01*
X152756891Y-103295481D01*
X153031252Y-103198157D01*
X153281355Y-103049178D01*
X153497588Y-102854269D01*
X153671641Y-102620920D01*
X153796825Y-102358099D01*
X153841476Y-102210890D01*
X153720155Y-101981000D01*
X152527000Y-101981000D01*
X152273000Y-101981000D01*
X151079845Y-101981000D01*
X150958524Y-102210890D01*
X150812500Y-102210890D01*
X150812500Y-99708538D01*
X150934644Y-99586394D01*
X150936487Y-99605111D01*
X151021401Y-99885034D01*
X151159294Y-100143014D01*
X151344866Y-100369134D01*
X151570986Y-100554706D01*
X151635523Y-100589201D01*
X151518645Y-100658822D01*
X151302412Y-100853731D01*
X151128359Y-101087080D01*
X151003175Y-101349901D01*
X150958524Y-101497110D01*
X151079845Y-101727000D01*
X152273000Y-101727000D01*
X152273000Y-101707000D01*
X152527000Y-101707000D01*
X152527000Y-101727000D01*
X153720155Y-101727000D01*
X153841476Y-101497110D01*
X153796825Y-101349901D01*
X153671641Y-101087080D01*
X153497588Y-100853731D01*
X153281355Y-100658822D01*
X153164477Y-100589201D01*
X153229014Y-100554706D01*
X153455134Y-100369134D01*
X153640706Y-100143014D01*
X153778599Y-99885034D01*
X153863513Y-99605111D01*
X153892185Y-99314000D01*
X153863513Y-99022889D01*
X153840797Y-98948005D01*
X154181003Y-98607799D01*
X154210001Y-98584001D01*
X154304974Y-98468276D01*
X154375546Y-98336247D01*
X154419003Y-98192986D01*
X154430000Y-98081333D01*
X154430000Y-98081324D01*
X154433676Y-98044001D01*
X154430000Y-98006678D01*
X154430000Y-88556333D01*
X154433677Y-88519000D01*
X154419003Y-88370014D01*
X154375546Y-88226753D01*
X154304974Y-88094724D01*
X154233799Y-88007997D01*
X154210001Y-87978999D01*
X154181004Y-87955202D01*
X153643906Y-87418104D01*
X153671641Y-87380920D01*
X153796825Y-87118099D01*
X153841476Y-86970890D01*
X153720155Y-86741000D01*
X152527000Y-86741000D01*
X152527000Y-86761000D01*
X152273000Y-86761000D01*
X152273000Y-86741000D01*
X151079845Y-86741000D01*
X150958524Y-86970890D01*
X151003175Y-87118099D01*
X151005986Y-87124000D01*
X141284802Y-87124000D01*
X141140797Y-86979995D01*
X141163513Y-86905111D01*
X141192185Y-86614000D01*
X141163513Y-86322889D01*
X141078599Y-86042966D01*
X140940706Y-85784986D01*
X140755134Y-85558866D01*
X140667336Y-85486812D01*
X140744180Y-85463502D01*
X140854494Y-85404537D01*
X140951185Y-85325185D01*
X141030537Y-85228494D01*
X141089502Y-85118180D01*
X141105117Y-85066702D01*
X142776903Y-85066702D01*
X142848486Y-85310671D01*
X143103996Y-85431571D01*
X143378184Y-85500300D01*
X143660512Y-85514217D01*
X143940130Y-85472787D01*
X144206292Y-85377603D01*
X144331514Y-85310671D01*
X144403097Y-85066702D01*
X143590000Y-84253605D01*
X142776903Y-85066702D01*
X141105117Y-85066702D01*
X141125812Y-84998482D01*
X141138072Y-84874000D01*
X141138072Y-84144512D01*
X142149783Y-84144512D01*
X142191213Y-84424130D01*
X142286397Y-84690292D01*
X142353329Y-84815514D01*
X142597298Y-84887097D01*
X143410395Y-84074000D01*
X143769605Y-84074000D01*
X144582702Y-84887097D01*
X144826671Y-84815514D01*
X144947571Y-84560004D01*
X145016300Y-84285816D01*
X145030217Y-84003488D01*
X144988787Y-83723870D01*
X144893603Y-83457708D01*
X144826671Y-83332486D01*
X144582702Y-83260903D01*
X143769605Y-84074000D01*
X143410395Y-84074000D01*
X142597298Y-83260903D01*
X142353329Y-83332486D01*
X142232429Y-83587996D01*
X142163700Y-83862184D01*
X142149783Y-84144512D01*
X141138072Y-84144512D01*
X141138072Y-83274000D01*
X141125812Y-83149518D01*
X141089502Y-83029820D01*
X141030537Y-82919506D01*
X140951185Y-82822815D01*
X140928259Y-82804000D01*
X142910841Y-82804000D01*
X142848486Y-82837329D01*
X142848486Y-82837329D01*
G37*
X142848486Y-82837329D02*
X142776903Y-83081298D01*
X143590000Y-83894395D01*
X144403097Y-83081298D01*
X144331514Y-82837329D01*
X144261077Y-82804000D01*
X147907759Y-82804000D01*
X147675241Y-82959363D01*
X147475363Y-83159241D01*
X147318320Y-83394273D01*
X147210147Y-83655426D01*
X147155000Y-83932665D01*
X147155000Y-84215335D01*
X147210147Y-84492574D01*
X147318320Y-84753727D01*
X147475363Y-84988759D01*
X147675241Y-85188637D01*
X147910273Y-85345680D01*
X148171426Y-85453853D01*
X148448665Y-85509000D01*
X148731335Y-85509000D01*
X149008574Y-85453853D01*
X149269727Y-85345680D01*
X149272241Y-85344000D01*
X151625791Y-85344000D01*
X151635523Y-85349201D01*
X151518645Y-85418822D01*
X151302412Y-85613731D01*
X151128359Y-85847080D01*
X151003175Y-86109901D01*
X150958524Y-86257110D01*
X151079845Y-86487000D01*
X152273000Y-86487000D01*
X152273000Y-86467000D01*
X152527000Y-86467000D01*
X152527000Y-86487000D01*
X153720155Y-86487000D01*
X153841476Y-86257110D01*
X153796825Y-86109901D01*
X153671641Y-85847080D01*
X153497588Y-85613731D01*
X153281355Y-85418822D01*
X153164477Y-85349201D01*
X153229014Y-85314706D01*
X153455134Y-85129134D01*
X153640706Y-84903014D01*
X153778599Y-84645034D01*
X153863513Y-84365111D01*
X153892185Y-84074000D01*
X153863513Y-83782889D01*
X153778599Y-83502966D01*
X153670000Y-83299791D01*
X153670000Y-82934291D01*
X153676143Y-82871918D01*
X153670000Y-82809545D01*
X153670000Y-82809539D01*
X153669454Y-82804000D01*
X155556950Y-82804000D01*
X158115001Y-85362052D01*
X158115000Y-90276188D01*
X158033815Y-90342815D01*
X157954463Y-90439506D01*
X157895498Y-90549820D01*
X157859188Y-90669518D01*
X157846928Y-90794000D01*
X157846928Y-92594000D01*
X157859188Y-92718482D01*
X157895498Y-92838180D01*
X157954463Y-92948494D01*
X158033815Y-93045185D01*
X158130506Y-93124537D01*
X158240820Y-93183502D01*
X158360518Y-93219812D01*
X158485000Y-93232072D01*
X160285000Y-93232072D01*
X160409482Y-93219812D01*
X160529180Y-93183502D01*
X160639494Y-93124537D01*
X160736185Y-93045185D01*
X160815537Y-92948494D01*
X160874502Y-92838180D01*
X160877813Y-92827265D01*
X160924578Y-92874030D01*
X161040526Y-92758082D01*
X161124208Y-93012261D01*
X161396775Y-93143158D01*
X161613221Y-93198740D01*
X159316064Y-95495898D01*
X159279723Y-95525722D01*
X159249899Y-95562063D01*
X159160694Y-95670760D01*
X159072249Y-95836231D01*
X159017783Y-96015778D01*
X158999392Y-96202500D01*
X159004001Y-96249295D01*
X159004000Y-104905636D01*
X158901366Y-104989866D01*
X158876893Y-105019687D01*
X158856002Y-104950820D01*
X158797037Y-104840506D01*
X158717685Y-104743815D01*
X158620994Y-104664463D01*
X158510680Y-104605498D01*
X158390982Y-104569188D01*
X158266500Y-104556928D01*
X156566500Y-104556928D01*
X156442018Y-104569188D01*
X156322320Y-104605498D01*
X156212006Y-104664463D01*
X156115315Y-104743815D01*
X156035963Y-104840506D01*
X155976998Y-104950820D01*
X155940688Y-105070518D01*
X155928428Y-105195000D01*
X155928428Y-106895000D01*
X155940688Y-107019482D01*
X155976998Y-107139180D01*
X156035963Y-107249494D01*
X156069205Y-107290000D01*
X150680980Y-107290000D01*
X150689014Y-107285706D01*
X150915134Y-107100134D01*
X151100706Y-106874014D01*
X151238599Y-106616034D01*
X151323513Y-106336111D01*
X151352185Y-106045000D01*
X151323513Y-105753889D01*
X151238599Y-105473966D01*
X151100706Y-105215986D01*
X150915134Y-104989866D01*
X150812500Y-104905636D01*
X150812500Y-102210890D01*
X150958524Y-102210890D01*
X151003175Y-102358099D01*
X151128359Y-102620920D01*
X151302412Y-102854269D01*
X151518645Y-103049178D01*
X151768748Y-103198157D01*
X152043109Y-103295481D01*
X152273000Y-103174814D01*
X152273000Y-101981000D01*
X152527000Y-101981000D01*
X152527000Y-103174814D01*
X152756891Y-103295481D01*
X153031252Y-103198157D01*
X153281355Y-103049178D01*
X153497588Y-102854269D01*
X153671641Y-102620920D01*
X153796825Y-102358099D01*
X153841476Y-102210890D01*
X153720155Y-101981000D01*
X152527000Y-101981000D01*
X152273000Y-101981000D01*
X151079845Y-101981000D01*
X150958524Y-102210890D01*
X150812500Y-102210890D01*
X150812500Y-99708538D01*
X150934644Y-99586394D01*
X150936487Y-99605111D01*
X151021401Y-99885034D01*
X151159294Y-100143014D01*
X151344866Y-100369134D01*
X151570986Y-100554706D01*
X151635523Y-100589201D01*
X151518645Y-100658822D01*
X151302412Y-100853731D01*
X151128359Y-101087080D01*
X151003175Y-101349901D01*
X150958524Y-101497110D01*
X151079845Y-101727000D01*
X152273000Y-101727000D01*
X152273000Y-101707000D01*
X152527000Y-101707000D01*
X152527000Y-101727000D01*
X153720155Y-101727000D01*
X153841476Y-101497110D01*
X153796825Y-101349901D01*
X153671641Y-101087080D01*
X153497588Y-100853731D01*
X153281355Y-100658822D01*
X153164477Y-100589201D01*
X153229014Y-100554706D01*
X153455134Y-100369134D01*
X153640706Y-100143014D01*
X153778599Y-99885034D01*
X153863513Y-99605111D01*
X153892185Y-99314000D01*
X153863513Y-99022889D01*
X153840797Y-98948005D01*
X154181003Y-98607799D01*
X154210001Y-98584001D01*
X154304974Y-98468276D01*
X154375546Y-98336247D01*
X154419003Y-98192986D01*
X154430000Y-98081333D01*
X154430000Y-98081324D01*
X154433676Y-98044001D01*
X154430000Y-98006678D01*
X154430000Y-88556333D01*
X154433677Y-88519000D01*
X154419003Y-88370014D01*
X154375546Y-88226753D01*
X154304974Y-88094724D01*
X154233799Y-88007997D01*
X154210001Y-87978999D01*
X154181004Y-87955202D01*
X153643906Y-87418104D01*
X153671641Y-87380920D01*
X153796825Y-87118099D01*
X153841476Y-86970890D01*
X153720155Y-86741000D01*
X152527000Y-86741000D01*
X152527000Y-86761000D01*
X152273000Y-86761000D01*
X152273000Y-86741000D01*
X151079845Y-86741000D01*
X150958524Y-86970890D01*
X151003175Y-87118099D01*
X151005986Y-87124000D01*
X141284802Y-87124000D01*
X141140797Y-86979995D01*
X141163513Y-86905111D01*
X141192185Y-86614000D01*
X141163513Y-86322889D01*
X141078599Y-86042966D01*
X140940706Y-85784986D01*
X140755134Y-85558866D01*
X140667336Y-85486812D01*
X140744180Y-85463502D01*
X140854494Y-85404537D01*
X140951185Y-85325185D01*
X141030537Y-85228494D01*
X141089502Y-85118180D01*
X141105117Y-85066702D01*
X142776903Y-85066702D01*
X142848486Y-85310671D01*
X143103996Y-85431571D01*
X143378184Y-85500300D01*
X143660512Y-85514217D01*
X143940130Y-85472787D01*
X144206292Y-85377603D01*
X144331514Y-85310671D01*
X144403097Y-85066702D01*
X143590000Y-84253605D01*
X142776903Y-85066702D01*
X141105117Y-85066702D01*
X141125812Y-84998482D01*
X141138072Y-84874000D01*
X141138072Y-84144512D01*
X142149783Y-84144512D01*
X142191213Y-84424130D01*
X142286397Y-84690292D01*
X142353329Y-84815514D01*
X142597298Y-84887097D01*
X143410395Y-84074000D01*
X143769605Y-84074000D01*
X144582702Y-84887097D01*
X144826671Y-84815514D01*
X144947571Y-84560004D01*
X145016300Y-84285816D01*
X145030217Y-84003488D01*
X144988787Y-83723870D01*
X144893603Y-83457708D01*
X144826671Y-83332486D01*
X144582702Y-83260903D01*
X143769605Y-84074000D01*
X143410395Y-84074000D01*
X142597298Y-83260903D01*
X142353329Y-83332486D01*
X142232429Y-83587996D01*
X142163700Y-83862184D01*
X142149783Y-84144512D01*
X141138072Y-84144512D01*
X141138072Y-83274000D01*
X141125812Y-83149518D01*
X141089502Y-83029820D01*
X141030537Y-82919506D01*
X140951185Y-82822815D01*
X140928259Y-82804000D01*
X142910841Y-82804000D01*
X142848486Y-82837329D01*
G36*
X138236487Y-88862889D02*
G01*
X138207815Y-89154000D01*
X138236487Y-89445111D01*
X138321401Y-89725034D01*
X138459294Y-89983014D01*
X138644866Y-90209134D01*
X138870986Y-90394706D01*
X138925791Y-90424000D01*
X138870986Y-90453294D01*
X138644866Y-90638866D01*
X138459294Y-90864986D01*
X138321401Y-91122966D01*
X138236487Y-91402889D01*
X138207815Y-91694000D01*
X138236487Y-91985111D01*
X138321401Y-92265034D01*
X138459294Y-92523014D01*
X138644866Y-92749134D01*
X138870986Y-92934706D01*
X138925791Y-92964000D01*
X138870986Y-92993294D01*
X138644866Y-93178866D01*
X138459294Y-93404986D01*
X138321401Y-93662966D01*
X138236487Y-93942889D01*
X138207815Y-94234000D01*
X138236487Y-94525111D01*
X138321401Y-94805034D01*
X138459294Y-95063014D01*
X138644866Y-95289134D01*
X138870986Y-95474706D01*
X138925791Y-95504000D01*
X138870986Y-95533294D01*
X138644866Y-95718866D01*
X138459294Y-95944986D01*
X138321401Y-96202966D01*
X138236487Y-96482889D01*
X138207815Y-96774000D01*
X138236487Y-97065111D01*
X138321401Y-97345034D01*
X138459294Y-97603014D01*
X138644866Y-97829134D01*
X138870986Y-98014706D01*
X138925791Y-98044000D01*
X138870986Y-98073294D01*
X138644866Y-98258866D01*
X138459294Y-98484986D01*
X138321401Y-98742966D01*
X138236487Y-99022889D01*
X138207815Y-99314000D01*
X138236487Y-99605111D01*
X138321401Y-99885034D01*
X138459294Y-100143014D01*
X138644866Y-100369134D01*
X138870986Y-100554706D01*
X138925791Y-100584000D01*
X138870986Y-100613294D01*
X138644866Y-100798866D01*
X138459294Y-101024986D01*
X138321401Y-101282966D01*
X138236487Y-101562889D01*
X138207815Y-101854000D01*
X138236487Y-102145111D01*
X138321401Y-102425034D01*
X138459294Y-102683014D01*
X138644866Y-102909134D01*
X138870986Y-103094706D01*
X139128966Y-103232599D01*
X139408889Y-103317513D01*
X139627050Y-103339000D01*
X139772950Y-103339000D01*
X139991111Y-103317513D01*
X140271034Y-103232599D01*
X140529014Y-103094706D01*
X140755134Y-102909134D01*
X140940706Y-102683014D01*
X141078599Y-102425034D01*
X141163513Y-102145111D01*
X141192185Y-101854000D01*
X141163513Y-101562889D01*
X141078599Y-101282966D01*
X140940706Y-101024986D01*
X140755134Y-100798866D01*
X140529014Y-100613294D01*
X140474209Y-100584000D01*
X140529014Y-100554706D01*
X140755134Y-100369134D01*
X140940706Y-100143014D01*
X141078599Y-99885034D01*
X141163513Y-99605111D01*
X141192185Y-99314000D01*
X141163513Y-99022889D01*
X141078599Y-98742966D01*
X140940706Y-98484986D01*
X140755134Y-98258866D01*
X140529014Y-98073294D01*
X140474209Y-98044000D01*
X140529014Y-98014706D01*
X140755134Y-97829134D01*
X140940706Y-97603014D01*
X141078599Y-97345034D01*
X141163513Y-97065111D01*
X141192185Y-96774000D01*
X141163513Y-96482889D01*
X141078599Y-96202966D01*
X140940706Y-95944986D01*
X140755134Y-95718866D01*
X140529014Y-95533294D01*
X140474209Y-95504000D01*
X140529014Y-95474706D01*
X140755134Y-95289134D01*
X140940706Y-95063014D01*
X141078599Y-94805034D01*
X141163513Y-94525111D01*
X141192185Y-94234000D01*
X141163513Y-93942889D01*
X141078599Y-93662966D01*
X140940706Y-93404986D01*
X140755134Y-93178866D01*
X140529014Y-92993294D01*
X140474209Y-92964000D01*
X140529014Y-92934706D01*
X140755134Y-92749134D01*
X140940706Y-92523014D01*
X141078599Y-92265034D01*
X141163513Y-91985111D01*
X141192185Y-91694000D01*
X141163513Y-91402889D01*
X141078599Y-91122966D01*
X140940706Y-90864986D01*
X140755134Y-90638866D01*
X140529014Y-90453294D01*
X140474209Y-90424000D01*
X140529014Y-90394706D01*
X140755134Y-90209134D01*
X140940706Y-89983014D01*
X141078599Y-89725034D01*
X141163513Y-89445111D01*
X141192185Y-89154000D01*
X141163513Y-88862889D01*
X141097114Y-88644000D01*
X151002886Y-88644000D01*
X150936487Y-88862889D01*
X150907815Y-89154000D01*
X150920829Y-89286132D01*
X141599564Y-98607398D01*
X141563223Y-98637222D01*
X141533399Y-98673563D01*
X141444194Y-98782260D01*
X141355749Y-98947731D01*
X141301283Y-99127278D01*
X141282892Y-99314000D01*
X141287501Y-99360795D01*
X141287500Y-104567023D01*
X141265518Y-104569188D01*
X141145820Y-104605498D01*
X141035506Y-104664463D01*
X140938815Y-104743815D01*
X140859463Y-104840506D01*
X140800498Y-104950820D01*
X140764188Y-105070518D01*
X140751928Y-105195000D01*
X140751928Y-106895000D01*
X140764188Y-107019482D01*
X140800498Y-107139180D01*
X140859463Y-107249494D01*
X140892705Y-107290000D01*
X133281980Y-107290000D01*
X133290014Y-107285706D01*
X133516134Y-107100134D01*
X133701706Y-106874014D01*
X133839599Y-106616034D01*
X133924513Y-106336111D01*
X133953185Y-106045000D01*
X133924513Y-105753889D01*
X133839599Y-105473966D01*
X133701706Y-105215986D01*
X133516134Y-104989866D01*
X133413500Y-104905636D01*
X133413500Y-102210890D01*
X133559524Y-102210890D01*
X133604175Y-102358099D01*
X133729359Y-102620920D01*
X133903412Y-102854269D01*
X134119645Y-103049178D01*
X134369748Y-103198157D01*
X134644109Y-103295481D01*
X134874000Y-103174814D01*
X134874000Y-101981000D01*
X135128000Y-101981000D01*
X135128000Y-103174814D01*
X135357891Y-103295481D01*
X135632252Y-103198157D01*
X135882355Y-103049178D01*
X136098588Y-102854269D01*
X136272641Y-102620920D01*
X136397825Y-102358099D01*
X136442476Y-102210890D01*
X136321155Y-101981000D01*
X135128000Y-101981000D01*
X134874000Y-101981000D01*
X133680845Y-101981000D01*
X133559524Y-102210890D01*
X133413500Y-102210890D01*
X133413500Y-99708538D01*
X133535644Y-99586394D01*
X133537487Y-99605111D01*
X133622401Y-99885034D01*
X133760294Y-100143014D01*
X133945866Y-100369134D01*
X134171986Y-100554706D01*
X134236523Y-100589201D01*
X134119645Y-100658822D01*
X133903412Y-100853731D01*
X133729359Y-101087080D01*
X133604175Y-101349901D01*
X133559524Y-101497110D01*
X133680845Y-101727000D01*
X134874000Y-101727000D01*
X134874000Y-101707000D01*
X135128000Y-101707000D01*
X135128000Y-101727000D01*
X136321155Y-101727000D01*
X136442476Y-101497110D01*
X136397825Y-101349901D01*
X136272641Y-101087080D01*
X136098588Y-100853731D01*
X135882355Y-100658822D01*
X135765477Y-100589201D01*
X135830014Y-100554706D01*
X136056134Y-100369134D01*
X136241706Y-100143014D01*
X136379599Y-99885034D01*
X136464513Y-99605111D01*
X136493185Y-99314000D01*
X136464513Y-99022889D01*
X136441797Y-98948005D01*
X136782004Y-98607798D01*
X136811001Y-98584001D01*
X136905974Y-98468276D01*
X136976546Y-98336247D01*
X137020003Y-98192986D01*
X137031000Y-98081333D01*
X137031000Y-98081324D01*
X137034676Y-98044001D01*
X137031000Y-98006678D01*
X137031000Y-88644000D01*
X138302886Y-88644000D01*
X138236487Y-88862889D01*
X138236487Y-88862889D01*
G37*
X138236487Y-88862889D02*
X138207815Y-89154000D01*
X138236487Y-89445111D01*
X138321401Y-89725034D01*
X138459294Y-89983014D01*
X138644866Y-90209134D01*
X138870986Y-90394706D01*
X138925791Y-90424000D01*
X138870986Y-90453294D01*
X138644866Y-90638866D01*
X138459294Y-90864986D01*
X138321401Y-91122966D01*
X138236487Y-91402889D01*
X138207815Y-91694000D01*
X138236487Y-91985111D01*
X138321401Y-92265034D01*
X138459294Y-92523014D01*
X138644866Y-92749134D01*
X138870986Y-92934706D01*
X138925791Y-92964000D01*
X138870986Y-92993294D01*
X138644866Y-93178866D01*
X138459294Y-93404986D01*
X138321401Y-93662966D01*
X138236487Y-93942889D01*
X138207815Y-94234000D01*
X138236487Y-94525111D01*
X138321401Y-94805034D01*
X138459294Y-95063014D01*
X138644866Y-95289134D01*
X138870986Y-95474706D01*
X138925791Y-95504000D01*
X138870986Y-95533294D01*
X138644866Y-95718866D01*
X138459294Y-95944986D01*
X138321401Y-96202966D01*
X138236487Y-96482889D01*
X138207815Y-96774000D01*
X138236487Y-97065111D01*
X138321401Y-97345034D01*
X138459294Y-97603014D01*
X138644866Y-97829134D01*
X138870986Y-98014706D01*
X138925791Y-98044000D01*
X138870986Y-98073294D01*
X138644866Y-98258866D01*
X138459294Y-98484986D01*
X138321401Y-98742966D01*
X138236487Y-99022889D01*
X138207815Y-99314000D01*
X138236487Y-99605111D01*
X138321401Y-99885034D01*
X138459294Y-100143014D01*
X138644866Y-100369134D01*
X138870986Y-100554706D01*
X138925791Y-100584000D01*
X138870986Y-100613294D01*
X138644866Y-100798866D01*
X138459294Y-101024986D01*
X138321401Y-101282966D01*
X138236487Y-101562889D01*
X138207815Y-101854000D01*
X138236487Y-102145111D01*
X138321401Y-102425034D01*
X138459294Y-102683014D01*
X138644866Y-102909134D01*
X138870986Y-103094706D01*
X139128966Y-103232599D01*
X139408889Y-103317513D01*
X139627050Y-103339000D01*
X139772950Y-103339000D01*
X139991111Y-103317513D01*
X140271034Y-103232599D01*
X140529014Y-103094706D01*
X140755134Y-102909134D01*
X140940706Y-102683014D01*
X141078599Y-102425034D01*
X141163513Y-102145111D01*
X141192185Y-101854000D01*
X141163513Y-101562889D01*
X141078599Y-101282966D01*
X140940706Y-101024986D01*
X140755134Y-100798866D01*
X140529014Y-100613294D01*
X140474209Y-100584000D01*
X140529014Y-100554706D01*
X140755134Y-100369134D01*
X140940706Y-100143014D01*
X141078599Y-99885034D01*
X141163513Y-99605111D01*
X141192185Y-99314000D01*
X141163513Y-99022889D01*
X141078599Y-98742966D01*
X140940706Y-98484986D01*
X140755134Y-98258866D01*
X140529014Y-98073294D01*
X140474209Y-98044000D01*
X140529014Y-98014706D01*
X140755134Y-97829134D01*
X140940706Y-97603014D01*
X141078599Y-97345034D01*
X141163513Y-97065111D01*
X141192185Y-96774000D01*
X141163513Y-96482889D01*
X141078599Y-96202966D01*
X140940706Y-95944986D01*
X140755134Y-95718866D01*
X140529014Y-95533294D01*
X140474209Y-95504000D01*
X140529014Y-95474706D01*
X140755134Y-95289134D01*
X140940706Y-95063014D01*
X141078599Y-94805034D01*
X141163513Y-94525111D01*
X141192185Y-94234000D01*
X141163513Y-93942889D01*
X141078599Y-93662966D01*
X140940706Y-93404986D01*
X140755134Y-93178866D01*
X140529014Y-92993294D01*
X140474209Y-92964000D01*
X140529014Y-92934706D01*
X140755134Y-92749134D01*
X140940706Y-92523014D01*
X141078599Y-92265034D01*
X141163513Y-91985111D01*
X141192185Y-91694000D01*
X141163513Y-91402889D01*
X141078599Y-91122966D01*
X140940706Y-90864986D01*
X140755134Y-90638866D01*
X140529014Y-90453294D01*
X140474209Y-90424000D01*
X140529014Y-90394706D01*
X140755134Y-90209134D01*
X140940706Y-89983014D01*
X141078599Y-89725034D01*
X141163513Y-89445111D01*
X141192185Y-89154000D01*
X141163513Y-88862889D01*
X141097114Y-88644000D01*
X151002886Y-88644000D01*
X150936487Y-88862889D01*
X150907815Y-89154000D01*
X150920829Y-89286132D01*
X141599564Y-98607398D01*
X141563223Y-98637222D01*
X141533399Y-98673563D01*
X141444194Y-98782260D01*
X141355749Y-98947731D01*
X141301283Y-99127278D01*
X141282892Y-99314000D01*
X141287501Y-99360795D01*
X141287500Y-104567023D01*
X141265518Y-104569188D01*
X141145820Y-104605498D01*
X141035506Y-104664463D01*
X140938815Y-104743815D01*
X140859463Y-104840506D01*
X140800498Y-104950820D01*
X140764188Y-105070518D01*
X140751928Y-105195000D01*
X140751928Y-106895000D01*
X140764188Y-107019482D01*
X140800498Y-107139180D01*
X140859463Y-107249494D01*
X140892705Y-107290000D01*
X133281980Y-107290000D01*
X133290014Y-107285706D01*
X133516134Y-107100134D01*
X133701706Y-106874014D01*
X133839599Y-106616034D01*
X133924513Y-106336111D01*
X133953185Y-106045000D01*
X133924513Y-105753889D01*
X133839599Y-105473966D01*
X133701706Y-105215986D01*
X133516134Y-104989866D01*
X133413500Y-104905636D01*
X133413500Y-102210890D01*
X133559524Y-102210890D01*
X133604175Y-102358099D01*
X133729359Y-102620920D01*
X133903412Y-102854269D01*
X134119645Y-103049178D01*
X134369748Y-103198157D01*
X134644109Y-103295481D01*
X134874000Y-103174814D01*
X134874000Y-101981000D01*
X135128000Y-101981000D01*
X135128000Y-103174814D01*
X135357891Y-103295481D01*
X135632252Y-103198157D01*
X135882355Y-103049178D01*
X136098588Y-102854269D01*
X136272641Y-102620920D01*
X136397825Y-102358099D01*
X136442476Y-102210890D01*
X136321155Y-101981000D01*
X135128000Y-101981000D01*
X134874000Y-101981000D01*
X133680845Y-101981000D01*
X133559524Y-102210890D01*
X133413500Y-102210890D01*
X133413500Y-99708538D01*
X133535644Y-99586394D01*
X133537487Y-99605111D01*
X133622401Y-99885034D01*
X133760294Y-100143014D01*
X133945866Y-100369134D01*
X134171986Y-100554706D01*
X134236523Y-100589201D01*
X134119645Y-100658822D01*
X133903412Y-100853731D01*
X133729359Y-101087080D01*
X133604175Y-101349901D01*
X133559524Y-101497110D01*
X133680845Y-101727000D01*
X134874000Y-101727000D01*
X134874000Y-101707000D01*
X135128000Y-101707000D01*
X135128000Y-101727000D01*
X136321155Y-101727000D01*
X136442476Y-101497110D01*
X136397825Y-101349901D01*
X136272641Y-101087080D01*
X136098588Y-100853731D01*
X135882355Y-100658822D01*
X135765477Y-100589201D01*
X135830014Y-100554706D01*
X136056134Y-100369134D01*
X136241706Y-100143014D01*
X136379599Y-99885034D01*
X136464513Y-99605111D01*
X136493185Y-99314000D01*
X136464513Y-99022889D01*
X136441797Y-98948005D01*
X136782004Y-98607798D01*
X136811001Y-98584001D01*
X136905974Y-98468276D01*
X136976546Y-98336247D01*
X137020003Y-98192986D01*
X137031000Y-98081333D01*
X137031000Y-98081324D01*
X137034676Y-98044001D01*
X137031000Y-98006678D01*
X137031000Y-88644000D01*
X138302886Y-88644000D01*
X138236487Y-88862889D01*
G36*
X112701843Y-51184748D02*
G01*
X112604519Y-51459109D01*
X112725186Y-51689000D01*
X113919000Y-51689000D01*
X113919000Y-51669000D01*
X114173000Y-51669000D01*
X114173000Y-51689000D01*
X114193000Y-51689000D01*
X114193000Y-51943000D01*
X114173000Y-51943000D01*
X114173000Y-53136155D01*
X114402890Y-53257476D01*
X114550099Y-53212825D01*
X114812920Y-53087641D01*
X115046269Y-52913588D01*
X115241178Y-52697355D01*
X115310799Y-52580477D01*
X115345294Y-52645014D01*
X115530866Y-52871134D01*
X115756986Y-53056706D01*
X116014966Y-53194599D01*
X116294889Y-53279513D01*
X116513050Y-53301000D01*
X116658950Y-53301000D01*
X116877111Y-53279513D01*
X117157034Y-53194599D01*
X117415014Y-53056706D01*
X117641134Y-52871134D01*
X117826706Y-52645014D01*
X117856000Y-52590209D01*
X117885294Y-52645014D01*
X118070866Y-52871134D01*
X118296986Y-53056706D01*
X118554966Y-53194599D01*
X118834889Y-53279513D01*
X119053050Y-53301000D01*
X119198950Y-53301000D01*
X119417111Y-53279513D01*
X119697034Y-53194599D01*
X119955014Y-53056706D01*
X120181134Y-52871134D01*
X120366706Y-52645014D01*
X120396000Y-52590209D01*
X120425294Y-52645014D01*
X120610866Y-52871134D01*
X120836986Y-53056706D01*
X121094966Y-53194599D01*
X121374889Y-53279513D01*
X121593050Y-53301000D01*
X121738950Y-53301000D01*
X121957111Y-53279513D01*
X122237034Y-53194599D01*
X122495014Y-53056706D01*
X122721134Y-52871134D01*
X122906706Y-52645014D01*
X122936000Y-52590209D01*
X122965294Y-52645014D01*
X123150866Y-52871134D01*
X123376986Y-53056706D01*
X123634966Y-53194599D01*
X123914889Y-53279513D01*
X124133050Y-53301000D01*
X124278950Y-53301000D01*
X124497111Y-53279513D01*
X124777034Y-53194599D01*
X125035014Y-53056706D01*
X125261134Y-52871134D01*
X125446706Y-52645014D01*
X125476000Y-52590209D01*
X125505294Y-52645014D01*
X125690866Y-52871134D01*
X125916986Y-53056706D01*
X126174966Y-53194599D01*
X126454889Y-53279513D01*
X126673050Y-53301000D01*
X126818950Y-53301000D01*
X127037111Y-53279513D01*
X127317034Y-53194599D01*
X127575014Y-53056706D01*
X127801134Y-52871134D01*
X127986706Y-52645014D01*
X128021201Y-52580477D01*
X128090822Y-52697355D01*
X128285731Y-52913588D01*
X128519080Y-53087641D01*
X128781901Y-53212825D01*
X128929110Y-53257476D01*
X129159000Y-53136155D01*
X129159000Y-51943000D01*
X129139000Y-51943000D01*
X129139000Y-51689000D01*
X129159000Y-51689000D01*
X129159000Y-51669000D01*
X129413000Y-51669000D01*
X129413000Y-51689000D01*
X129433000Y-51689000D01*
X129433000Y-51943000D01*
X129413000Y-51943000D01*
X129413000Y-53136155D01*
X129642890Y-53257476D01*
X129790099Y-53212825D01*
X130052920Y-53087641D01*
X130286269Y-52913588D01*
X130481178Y-52697355D01*
X130550799Y-52580477D01*
X130585294Y-52645014D01*
X130770866Y-52871134D01*
X130996986Y-53056706D01*
X131254966Y-53194599D01*
X131534889Y-53279513D01*
X131753050Y-53301000D01*
X131898950Y-53301000D01*
X132117111Y-53279513D01*
X132397034Y-53194599D01*
X132655014Y-53056706D01*
X132881134Y-52871134D01*
X133066706Y-52645014D01*
X133096000Y-52590209D01*
X133125294Y-52645014D01*
X133310866Y-52871134D01*
X133536986Y-53056706D01*
X133794966Y-53194599D01*
X134074889Y-53279513D01*
X134293050Y-53301000D01*
X134438950Y-53301000D01*
X134657111Y-53279513D01*
X134937034Y-53194599D01*
X135195014Y-53056706D01*
X135421134Y-52871134D01*
X135606706Y-52645014D01*
X135636000Y-52590209D01*
X135665294Y-52645014D01*
X135850866Y-52871134D01*
X136076986Y-53056706D01*
X136334966Y-53194599D01*
X136614889Y-53279513D01*
X136833050Y-53301000D01*
X136978950Y-53301000D01*
X137197111Y-53279513D01*
X137477034Y-53194599D01*
X137735014Y-53056706D01*
X137961134Y-52871134D01*
X138146706Y-52645014D01*
X138176000Y-52590209D01*
X138205294Y-52645014D01*
X138390866Y-52871134D01*
X138616986Y-53056706D01*
X138874966Y-53194599D01*
X139154889Y-53279513D01*
X139373050Y-53301000D01*
X139518950Y-53301000D01*
X139737111Y-53279513D01*
X140017034Y-53194599D01*
X140275014Y-53056706D01*
X140501134Y-52871134D01*
X140686706Y-52645014D01*
X140716000Y-52590209D01*
X140745294Y-52645014D01*
X140930866Y-52871134D01*
X141156986Y-53056706D01*
X141414966Y-53194599D01*
X141694889Y-53279513D01*
X141913050Y-53301000D01*
X142058950Y-53301000D01*
X142277111Y-53279513D01*
X142557034Y-53194599D01*
X142815014Y-53056706D01*
X143041134Y-52871134D01*
X143226706Y-52645014D01*
X143256000Y-52590209D01*
X143285294Y-52645014D01*
X143470866Y-52871134D01*
X143500687Y-52895607D01*
X143431820Y-52916498D01*
X143321506Y-52975463D01*
X143224815Y-53054815D01*
X143145463Y-53151506D01*
X143086498Y-53261820D01*
X143050188Y-53381518D01*
X143037928Y-53506000D01*
X143037928Y-53596000D01*
X114876711Y-53596000D01*
X114832774Y-53552063D01*
X114663256Y-53438795D01*
X114474898Y-53360774D01*
X114274939Y-53321000D01*
X114071061Y-53321000D01*
X113871102Y-53360774D01*
X113682744Y-53438795D01*
X113513226Y-53552063D01*
X113369063Y-53696226D01*
X113255795Y-53865744D01*
X113177774Y-54054102D01*
X113138000Y-54254061D01*
X113138000Y-54457939D01*
X113177774Y-54657898D01*
X113255795Y-54846256D01*
X113369063Y-55015774D01*
X113513226Y-55159937D01*
X113682744Y-55273205D01*
X113871102Y-55351226D01*
X114071061Y-55391000D01*
X114274939Y-55391000D01*
X114474898Y-55351226D01*
X114663256Y-55273205D01*
X114832774Y-55159937D01*
X114876711Y-55116000D01*
X143037928Y-55116000D01*
X143037928Y-55206000D01*
X143050188Y-55330482D01*
X143086498Y-55450180D01*
X143145463Y-55560494D01*
X143224815Y-55657185D01*
X143321506Y-55736537D01*
X143431820Y-55795502D01*
X143507626Y-55818498D01*
X143330822Y-56014645D01*
X143181843Y-56264748D01*
X143084519Y-56539109D01*
X143205186Y-56769000D01*
X144399000Y-56769000D01*
X144399000Y-56749000D01*
X144653000Y-56749000D01*
X144653000Y-56769000D01*
X145846814Y-56769000D01*
X145967481Y-56539109D01*
X145870157Y-56264748D01*
X145721178Y-56014645D01*
X145544374Y-55818498D01*
X145620180Y-55795502D01*
X145730494Y-55736537D01*
X145827185Y-55657185D01*
X145906537Y-55560494D01*
X145965502Y-55450180D01*
X146001812Y-55330482D01*
X146014072Y-55206000D01*
X146014072Y-54165712D01*
X166231893Y-54165712D01*
X166339726Y-54440338D01*
X166646384Y-54591216D01*
X166976585Y-54679369D01*
X167317639Y-54701409D01*
X167656439Y-54656489D01*
X167979966Y-54546336D01*
X168178274Y-54440338D01*
X168286107Y-54165712D01*
X167259000Y-53138605D01*
X166231893Y-54165712D01*
X146014072Y-54165712D01*
X146014072Y-53506000D01*
X146001812Y-53381518D01*
X145965502Y-53261820D01*
X145906537Y-53151506D01*
X145827185Y-53054815D01*
X145730494Y-52975463D01*
X145620180Y-52916498D01*
X145551313Y-52895607D01*
X145581134Y-52871134D01*
X145766706Y-52645014D01*
X145796000Y-52590209D01*
X145825294Y-52645014D01*
X146010866Y-52871134D01*
X146236986Y-53056706D01*
X146494966Y-53194599D01*
X146774889Y-53279513D01*
X146993050Y-53301000D01*
X147138950Y-53301000D01*
X147357111Y-53279513D01*
X147637034Y-53194599D01*
X147895014Y-53056706D01*
X148121134Y-52871134D01*
X148306706Y-52645014D01*
X148336000Y-52590209D01*
X148365294Y-52645014D01*
X148550866Y-52871134D01*
X148776986Y-53056706D01*
X149034966Y-53194599D01*
X149314889Y-53279513D01*
X149533050Y-53301000D01*
X149678950Y-53301000D01*
X149897111Y-53279513D01*
X150177034Y-53194599D01*
X150435014Y-53056706D01*
X150661134Y-52871134D01*
X150846706Y-52645014D01*
X150876000Y-52590209D01*
X150905294Y-52645014D01*
X151090866Y-52871134D01*
X151316986Y-53056706D01*
X151574966Y-53194599D01*
X151854889Y-53279513D01*
X152073050Y-53301000D01*
X152218950Y-53301000D01*
X152437111Y-53279513D01*
X152717034Y-53194599D01*
X152975014Y-53056706D01*
X153201134Y-52871134D01*
X153386706Y-52645014D01*
X153416000Y-52590209D01*
X153445294Y-52645014D01*
X153630866Y-52871134D01*
X153856986Y-53056706D01*
X154114966Y-53194599D01*
X154394889Y-53279513D01*
X154613050Y-53301000D01*
X154758950Y-53301000D01*
X154977111Y-53279513D01*
X155257034Y-53194599D01*
X155515014Y-53056706D01*
X155741134Y-52871134D01*
X155926706Y-52645014D01*
X155956000Y-52590209D01*
X155985294Y-52645014D01*
X156170866Y-52871134D01*
X156396986Y-53056706D01*
X156654966Y-53194599D01*
X156934889Y-53279513D01*
X157153050Y-53301000D01*
X157298950Y-53301000D01*
X157517111Y-53279513D01*
X157797034Y-53194599D01*
X158055014Y-53056706D01*
X158281134Y-52871134D01*
X158466706Y-52645014D01*
X158496000Y-52590209D01*
X158525294Y-52645014D01*
X158710866Y-52871134D01*
X158936986Y-53056706D01*
X159194966Y-53194599D01*
X159474889Y-53279513D01*
X159693050Y-53301000D01*
X159838950Y-53301000D01*
X160057111Y-53279513D01*
X160337034Y-53194599D01*
X160595014Y-53056706D01*
X160642617Y-53017639D01*
X165516591Y-53017639D01*
X165561511Y-53356439D01*
X165671664Y-53679966D01*
X165777662Y-53878274D01*
X166052288Y-53986107D01*
X167079395Y-52959000D01*
X167438605Y-52959000D01*
X168465712Y-53986107D01*
X168740338Y-53878274D01*
X168891216Y-53571616D01*
X168979369Y-53241415D01*
X169001409Y-52900361D01*
X168956489Y-52561561D01*
X168846336Y-52238034D01*
X168740338Y-52039726D01*
X168465712Y-51931893D01*
X167438605Y-52959000D01*
X167079395Y-52959000D01*
X166052288Y-51931893D01*
X165777662Y-52039726D01*
X165626784Y-52346384D01*
X165538631Y-52676585D01*
X165516591Y-53017639D01*
X160642617Y-53017639D01*
X160821134Y-52871134D01*
X161006706Y-52645014D01*
X161144599Y-52387034D01*
X161229513Y-52107111D01*
X161258185Y-51816000D01*
X161251910Y-51752288D01*
X166231893Y-51752288D01*
X167259000Y-52779395D01*
X168286107Y-51752288D01*
X168178274Y-51477662D01*
X167871616Y-51326784D01*
X167541415Y-51238631D01*
X167200361Y-51216591D01*
X166861561Y-51261511D01*
X166538034Y-51371664D01*
X166339726Y-51477662D01*
X166231893Y-51752288D01*
X161251910Y-51752288D01*
X161229513Y-51524889D01*
X161144599Y-51244966D01*
X161055888Y-51079000D01*
X169139001Y-51079000D01*
X169139000Y-107290000D01*
X163299137Y-107290000D01*
X163496769Y-107142588D01*
X163691678Y-106926355D01*
X163840657Y-106676252D01*
X163861777Y-106616712D01*
X166231893Y-106616712D01*
X166339726Y-106891338D01*
X166646384Y-107042216D01*
X166976585Y-107130369D01*
X167317639Y-107152409D01*
X167656439Y-107107489D01*
X167979966Y-106997336D01*
X168178274Y-106891338D01*
X168286107Y-106616712D01*
X167259000Y-105589605D01*
X166231893Y-106616712D01*
X163861777Y-106616712D01*
X163937981Y-106401891D01*
X163817314Y-106172000D01*
X162623500Y-106172000D01*
X162623500Y-106192000D01*
X162369500Y-106192000D01*
X162369500Y-106172000D01*
X162349500Y-106172000D01*
X162349500Y-105918000D01*
X162369500Y-105918000D01*
X162369500Y-104724845D01*
X162623500Y-104724845D01*
X162623500Y-105918000D01*
X163817314Y-105918000D01*
X163937981Y-105688109D01*
X163860129Y-105468639D01*
X165516591Y-105468639D01*
X165561511Y-105807439D01*
X165671664Y-106130966D01*
X165777662Y-106329274D01*
X166052288Y-106437107D01*
X167079395Y-105410000D01*
X167438605Y-105410000D01*
X168465712Y-106437107D01*
X168740338Y-106329274D01*
X168891216Y-106022616D01*
X168979369Y-105692415D01*
X169001409Y-105351361D01*
X168956489Y-105012561D01*
X168846336Y-104689034D01*
X168740338Y-104490726D01*
X168465712Y-104382893D01*
X167438605Y-105410000D01*
X167079395Y-105410000D01*
X166052288Y-104382893D01*
X165777662Y-104490726D01*
X165626784Y-104797384D01*
X165538631Y-105127585D01*
X165516591Y-105468639D01*
X163860129Y-105468639D01*
X163840657Y-105413748D01*
X163691678Y-105163645D01*
X163496769Y-104947412D01*
X163263420Y-104773359D01*
X163000599Y-104648175D01*
X162853390Y-104603524D01*
X162623500Y-104724845D01*
X162369500Y-104724845D01*
X162139610Y-104603524D01*
X161992401Y-104648175D01*
X161729580Y-104773359D01*
X161496231Y-104947412D01*
X161301322Y-105163645D01*
X161231701Y-105280523D01*
X161197206Y-105215986D01*
X161011634Y-104989866D01*
X160909000Y-104905636D01*
X160909000Y-104203288D01*
X166231893Y-104203288D01*
X167259000Y-105230395D01*
X168286107Y-104203288D01*
X168178274Y-103928662D01*
X167871616Y-103777784D01*
X167541415Y-103689631D01*
X167200361Y-103667591D01*
X166861561Y-103712511D01*
X166538034Y-103822664D01*
X166339726Y-103928662D01*
X166231893Y-104203288D01*
X160909000Y-104203288D01*
X160909000Y-96597038D01*
X164283141Y-93222898D01*
X164313816Y-93229000D01*
X164616184Y-93229000D01*
X164912743Y-93170011D01*
X165192095Y-93054299D01*
X165443505Y-92886312D01*
X165657312Y-92672505D01*
X165825299Y-92421095D01*
X165941011Y-92141743D01*
X166000000Y-91845184D01*
X166000000Y-91542816D01*
X165941011Y-91246257D01*
X165825299Y-90966905D01*
X165657312Y-90715495D01*
X165443505Y-90501688D01*
X165417500Y-90484312D01*
X165417500Y-82088785D01*
X165422108Y-82042000D01*
X165403717Y-81855278D01*
X165381781Y-81782963D01*
X165349252Y-81675731D01*
X165260806Y-81510259D01*
X165141778Y-81365222D01*
X165105431Y-81335393D01*
X161245171Y-77475133D01*
X161258185Y-77343000D01*
X161229513Y-77051889D01*
X161144599Y-76771966D01*
X161006706Y-76513986D01*
X160821134Y-76287866D01*
X160718500Y-76203636D01*
X160718500Y-75815364D01*
X160821134Y-75731134D01*
X161006706Y-75505014D01*
X161144599Y-75247034D01*
X161229513Y-74967111D01*
X161258185Y-74676000D01*
X161229513Y-74384889D01*
X161144599Y-74104966D01*
X161006706Y-73846986D01*
X160821134Y-73620866D01*
X160595014Y-73435294D01*
X160337034Y-73297401D01*
X160057111Y-73212487D01*
X159838950Y-73191000D01*
X159693050Y-73191000D01*
X159474889Y-73212487D01*
X159194966Y-73297401D01*
X158936986Y-73435294D01*
X158710866Y-73620866D01*
X158525294Y-73846986D01*
X158496000Y-73901791D01*
X158466706Y-73846986D01*
X158281134Y-73620866D01*
X158055014Y-73435294D01*
X157797034Y-73297401D01*
X157517111Y-73212487D01*
X157298950Y-73191000D01*
X157153050Y-73191000D01*
X156934889Y-73212487D01*
X156654966Y-73297401D01*
X156396986Y-73435294D01*
X156170866Y-73620866D01*
X155985294Y-73846986D01*
X155956000Y-73901791D01*
X155926706Y-73846986D01*
X155741134Y-73620866D01*
X155515014Y-73435294D01*
X155257034Y-73297401D01*
X154977111Y-73212487D01*
X154758950Y-73191000D01*
X154613050Y-73191000D01*
X154394889Y-73212487D01*
X154114966Y-73297401D01*
X153856986Y-73435294D01*
X153630866Y-73620866D01*
X153445294Y-73846986D01*
X153416000Y-73901791D01*
X153386706Y-73846986D01*
X153201134Y-73620866D01*
X152975014Y-73435294D01*
X152717034Y-73297401D01*
X152437111Y-73212487D01*
X152218950Y-73191000D01*
X152073050Y-73191000D01*
X151854889Y-73212487D01*
X151574966Y-73297401D01*
X151316986Y-73435294D01*
X151090866Y-73620866D01*
X150905294Y-73846986D01*
X150876000Y-73901791D01*
X150846706Y-73846986D01*
X150661134Y-73620866D01*
X150435014Y-73435294D01*
X150177034Y-73297401D01*
X149897111Y-73212487D01*
X149678950Y-73191000D01*
X149533050Y-73191000D01*
X149314889Y-73212487D01*
X149034966Y-73297401D01*
X148776986Y-73435294D01*
X148550866Y-73620866D01*
X148365294Y-73846986D01*
X148330799Y-73911523D01*
X148261178Y-73794645D01*
X148066269Y-73578412D01*
X147832920Y-73404359D01*
X147570099Y-73279175D01*
X147422890Y-73234524D01*
X147193000Y-73355845D01*
X147193000Y-74549000D01*
X147213000Y-74549000D01*
X147213000Y-74803000D01*
X147193000Y-74803000D01*
X147193000Y-75996155D01*
X147218287Y-76009500D01*
X147193000Y-76022845D01*
X147193000Y-77216000D01*
X147213000Y-77216000D01*
X147213000Y-77470000D01*
X147193000Y-77470000D01*
X147193000Y-78663155D01*
X147422890Y-78784476D01*
X147570099Y-78739825D01*
X147832920Y-78614641D01*
X148066269Y-78440588D01*
X148261178Y-78224355D01*
X148330799Y-78107477D01*
X148365294Y-78172014D01*
X148550866Y-78398134D01*
X148776986Y-78583706D01*
X149034966Y-78721599D01*
X149314889Y-78806513D01*
X149533050Y-78828000D01*
X149678950Y-78828000D01*
X149897111Y-78806513D01*
X150177034Y-78721599D01*
X150435014Y-78583706D01*
X150661134Y-78398134D01*
X150846706Y-78172014D01*
X150876000Y-78117209D01*
X150905294Y-78172014D01*
X151090866Y-78398134D01*
X151316986Y-78583706D01*
X151574966Y-78721599D01*
X151854889Y-78806513D01*
X152073050Y-78828000D01*
X152218950Y-78828000D01*
X152437111Y-78806513D01*
X152717034Y-78721599D01*
X152975014Y-78583706D01*
X153201134Y-78398134D01*
X153386706Y-78172014D01*
X153416000Y-78117209D01*
X153445294Y-78172014D01*
X153630866Y-78398134D01*
X153856986Y-78583706D01*
X154114966Y-78721599D01*
X154394889Y-78806513D01*
X154613050Y-78828000D01*
X154758950Y-78828000D01*
X154977111Y-78806513D01*
X155257034Y-78721599D01*
X155515014Y-78583706D01*
X155741134Y-78398134D01*
X155926706Y-78172014D01*
X155956000Y-78117209D01*
X155985294Y-78172014D01*
X156170866Y-78398134D01*
X156396986Y-78583706D01*
X156654966Y-78721599D01*
X156934889Y-78806513D01*
X157153050Y-78828000D01*
X157298950Y-78828000D01*
X157517111Y-78806513D01*
X157797034Y-78721599D01*
X158055014Y-78583706D01*
X158281134Y-78398134D01*
X158466706Y-78172014D01*
X158496000Y-78117209D01*
X158525294Y-78172014D01*
X158710866Y-78398134D01*
X158936986Y-78583706D01*
X159194966Y-78721599D01*
X159474889Y-78806513D01*
X159693050Y-78828000D01*
X159838950Y-78828000D01*
X159898133Y-78822171D01*
X163512501Y-82436539D01*
X163512500Y-90484312D01*
X163486495Y-90501688D01*
X163272688Y-90715495D01*
X163170049Y-90869105D01*
X162989080Y-90809525D01*
X162104605Y-91694000D01*
X162118748Y-91708143D01*
X161939143Y-91887748D01*
X161925000Y-91873605D01*
X161910858Y-91887748D01*
X161731253Y-91708143D01*
X161745395Y-91694000D01*
X161731253Y-91679858D01*
X161910858Y-91500253D01*
X161925000Y-91514395D01*
X162809475Y-90629920D01*
X162725792Y-90375739D01*
X162453225Y-90244842D01*
X162160358Y-90169635D01*
X161858447Y-90153009D01*
X161559093Y-90195603D01*
X161273801Y-90295778D01*
X161124208Y-90375739D01*
X161040526Y-90629918D01*
X160924578Y-90513970D01*
X160877813Y-90560735D01*
X160874502Y-90549820D01*
X160815537Y-90439506D01*
X160736185Y-90342815D01*
X160655000Y-90276188D01*
X160655000Y-84898372D01*
X160661143Y-84835999D01*
X160655000Y-84773626D01*
X160655000Y-84773620D01*
X160636623Y-84587037D01*
X160564003Y-84347641D01*
X160446075Y-84127012D01*
X160287370Y-83933630D01*
X160238914Y-83893863D01*
X157025141Y-80680091D01*
X156985370Y-80631630D01*
X156791988Y-80472925D01*
X156571359Y-80354997D01*
X156331963Y-80282377D01*
X156145380Y-80264000D01*
X156145373Y-80264000D01*
X156083000Y-80257857D01*
X156020627Y-80264000D01*
X151124454Y-80264000D01*
X151062081Y-80257857D01*
X150999708Y-80264000D01*
X133920373Y-80264000D01*
X133858000Y-80257857D01*
X133795627Y-80264000D01*
X120204380Y-80264000D01*
X120142000Y-80257856D01*
X120079620Y-80264000D01*
X119893037Y-80282377D01*
X119653641Y-80354997D01*
X119433012Y-80472925D01*
X119239630Y-80631630D01*
X119199863Y-80680086D01*
X115697000Y-84182950D01*
X115697000Y-83495778D01*
X115728185Y-83470185D01*
X115807537Y-83373494D01*
X115866502Y-83263180D01*
X115902812Y-83143482D01*
X115915072Y-83019000D01*
X115915072Y-81319000D01*
X115902812Y-81194518D01*
X115866502Y-81074820D01*
X115807537Y-80964506D01*
X115728185Y-80867815D01*
X115631494Y-80788463D01*
X115521180Y-80729498D01*
X115401482Y-80693188D01*
X115277000Y-80680928D01*
X113577000Y-80680928D01*
X113452518Y-80693188D01*
X113332820Y-80729498D01*
X113222506Y-80788463D01*
X113125815Y-80867815D01*
X113046463Y-80964506D01*
X112987498Y-81074820D01*
X112951188Y-81194518D01*
X112938928Y-81319000D01*
X112938928Y-83019000D01*
X112951188Y-83143482D01*
X112987498Y-83263180D01*
X113046463Y-83373494D01*
X113125815Y-83470185D01*
X113157000Y-83495778D01*
X113157000Y-83762949D01*
X111888085Y-85031865D01*
X111839630Y-85071631D01*
X111680925Y-85265013D01*
X111574831Y-85463502D01*
X111562997Y-85485642D01*
X111490376Y-85725038D01*
X111465856Y-85974001D01*
X111472000Y-86036383D01*
X111471999Y-87995428D01*
X111465856Y-88057801D01*
X111471999Y-88120174D01*
X111471999Y-88120180D01*
X111479555Y-88196892D01*
X111490376Y-88306764D01*
X111505977Y-88358194D01*
X111562996Y-88546159D01*
X111680924Y-88766788D01*
X111839629Y-88960171D01*
X111888090Y-88999942D01*
X113157001Y-90268854D01*
X113157001Y-91002222D01*
X113125815Y-91027815D01*
X113046463Y-91124506D01*
X112987498Y-91234820D01*
X112951188Y-91354518D01*
X112938928Y-91479000D01*
X112938928Y-93179000D01*
X112951188Y-93303482D01*
X112987498Y-93423180D01*
X113046463Y-93533494D01*
X113125815Y-93630185D01*
X113222506Y-93709537D01*
X113332820Y-93768502D01*
X113452518Y-93804812D01*
X113577000Y-93817072D01*
X115277000Y-93817072D01*
X115401482Y-93804812D01*
X115521180Y-93768502D01*
X115631494Y-93709537D01*
X115728185Y-93630185D01*
X115807537Y-93533494D01*
X115866502Y-93423180D01*
X115902812Y-93303482D01*
X115915072Y-93179000D01*
X115915072Y-91479000D01*
X115902812Y-91354518D01*
X115866502Y-91234820D01*
X115807537Y-91124506D01*
X115728185Y-91027815D01*
X115697000Y-91002222D01*
X115697000Y-89805174D01*
X115703143Y-89742801D01*
X115697000Y-89680428D01*
X115697000Y-89680422D01*
X115678623Y-89493839D01*
X115606003Y-89254443D01*
X115488075Y-89033814D01*
X115329370Y-88840432D01*
X115280914Y-88800665D01*
X115069597Y-88589348D01*
X115256014Y-88489706D01*
X115482134Y-88304134D01*
X115667706Y-88078014D01*
X115805599Y-87820034D01*
X115872475Y-87599576D01*
X120668051Y-82804000D01*
X121072741Y-82804000D01*
X121049815Y-82822815D01*
X120970463Y-82919506D01*
X120911498Y-83029820D01*
X120875188Y-83149518D01*
X120862928Y-83274000D01*
X120862928Y-84874000D01*
X120875188Y-84998482D01*
X120911498Y-85118180D01*
X120970463Y-85228494D01*
X121049815Y-85325185D01*
X121146506Y-85404537D01*
X121256820Y-85463502D01*
X121333664Y-85486812D01*
X121245866Y-85558866D01*
X121060294Y-85784986D01*
X120922401Y-86042966D01*
X120837487Y-86322889D01*
X120808815Y-86614000D01*
X120837487Y-86905111D01*
X120922401Y-87185034D01*
X121060294Y-87443014D01*
X121245866Y-87669134D01*
X121471986Y-87854706D01*
X121526791Y-87884000D01*
X121471986Y-87913294D01*
X121245866Y-88098866D01*
X121060294Y-88324986D01*
X120922401Y-88582966D01*
X120837487Y-88862889D01*
X120808815Y-89154000D01*
X120837487Y-89445111D01*
X120922401Y-89725034D01*
X121060294Y-89983014D01*
X121245866Y-90209134D01*
X121471986Y-90394706D01*
X121526791Y-90424000D01*
X121471986Y-90453294D01*
X121245866Y-90638866D01*
X121060294Y-90864986D01*
X120922401Y-91122966D01*
X120837487Y-91402889D01*
X120808815Y-91694000D01*
X120837487Y-91985111D01*
X120922401Y-92265034D01*
X121060294Y-92523014D01*
X121245866Y-92749134D01*
X121471986Y-92934706D01*
X121526791Y-92964000D01*
X121471986Y-92993294D01*
X121245866Y-93178866D01*
X121060294Y-93404986D01*
X120922401Y-93662966D01*
X120837487Y-93942889D01*
X120808815Y-94234000D01*
X120837487Y-94525111D01*
X120922401Y-94805034D01*
X121060294Y-95063014D01*
X121245866Y-95289134D01*
X121471986Y-95474706D01*
X121526791Y-95504000D01*
X121471986Y-95533294D01*
X121245866Y-95718866D01*
X121060294Y-95944986D01*
X120922401Y-96202966D01*
X120837487Y-96482889D01*
X120808815Y-96774000D01*
X120837487Y-97065111D01*
X120922401Y-97345034D01*
X121060294Y-97603014D01*
X121245866Y-97829134D01*
X121471986Y-98014706D01*
X121526791Y-98044000D01*
X121471986Y-98073294D01*
X121245866Y-98258866D01*
X121060294Y-98484986D01*
X120922401Y-98742966D01*
X120837487Y-99022889D01*
X120808815Y-99314000D01*
X120837487Y-99605111D01*
X120922401Y-99885034D01*
X121060294Y-100143014D01*
X121245866Y-100369134D01*
X121471986Y-100554706D01*
X121526791Y-100584000D01*
X121471986Y-100613294D01*
X121245866Y-100798866D01*
X121060294Y-101024986D01*
X120922401Y-101282966D01*
X120837487Y-101562889D01*
X120808815Y-101854000D01*
X120837487Y-102145111D01*
X120922401Y-102425034D01*
X121060294Y-102683014D01*
X121245866Y-102909134D01*
X121471986Y-103094706D01*
X121729966Y-103232599D01*
X122009889Y-103317513D01*
X122228050Y-103339000D01*
X122373950Y-103339000D01*
X122592111Y-103317513D01*
X122872034Y-103232599D01*
X123130014Y-103094706D01*
X123356134Y-102909134D01*
X123541706Y-102683014D01*
X123679599Y-102425034D01*
X123764513Y-102145111D01*
X123793185Y-101854000D01*
X123764513Y-101562889D01*
X123679599Y-101282966D01*
X123541706Y-101024986D01*
X123356134Y-100798866D01*
X123130014Y-100613294D01*
X123075209Y-100584000D01*
X123130014Y-100554706D01*
X123356134Y-100369134D01*
X123541706Y-100143014D01*
X123679599Y-99885034D01*
X123764513Y-99605111D01*
X123793185Y-99314000D01*
X123764513Y-99022889D01*
X123679599Y-98742966D01*
X123541706Y-98484986D01*
X123356134Y-98258866D01*
X123130014Y-98073294D01*
X123075209Y-98044000D01*
X123130014Y-98014706D01*
X123356134Y-97829134D01*
X123541706Y-97603014D01*
X123679599Y-97345034D01*
X123764513Y-97065111D01*
X123793185Y-96774000D01*
X123764513Y-96482889D01*
X123679599Y-96202966D01*
X123541706Y-95944986D01*
X123356134Y-95718866D01*
X123130014Y-95533294D01*
X123075209Y-95504000D01*
X123130014Y-95474706D01*
X123356134Y-95289134D01*
X123541706Y-95063014D01*
X123679599Y-94805034D01*
X123764513Y-94525111D01*
X123793185Y-94234000D01*
X123764513Y-93942889D01*
X123679599Y-93662966D01*
X123541706Y-93404986D01*
X123356134Y-93178866D01*
X123130014Y-92993294D01*
X123075209Y-92964000D01*
X123130014Y-92934706D01*
X123356134Y-92749134D01*
X123541706Y-92523014D01*
X123679599Y-92265034D01*
X123764513Y-91985111D01*
X123793185Y-91694000D01*
X123764513Y-91402889D01*
X123679599Y-91122966D01*
X123541706Y-90864986D01*
X123356134Y-90638866D01*
X123130014Y-90453294D01*
X123075209Y-90424000D01*
X123130014Y-90394706D01*
X123356134Y-90209134D01*
X123541706Y-89983014D01*
X123679599Y-89725034D01*
X123764513Y-89445111D01*
X123793185Y-89154000D01*
X123764513Y-88862889D01*
X123698114Y-88644000D01*
X133603886Y-88644000D01*
X133537487Y-88862889D01*
X133508815Y-89154000D01*
X133521829Y-89286132D01*
X124200564Y-98607398D01*
X124164223Y-98637222D01*
X124134399Y-98673563D01*
X124045194Y-98782260D01*
X123956749Y-98947731D01*
X123902283Y-99127278D01*
X123883892Y-99314000D01*
X123888501Y-99360795D01*
X123888500Y-104567023D01*
X123866518Y-104569188D01*
X123746820Y-104605498D01*
X123636506Y-104664463D01*
X123539815Y-104743815D01*
X123460463Y-104840506D01*
X123401498Y-104950820D01*
X123365188Y-105070518D01*
X123352928Y-105195000D01*
X123352928Y-106895000D01*
X123365188Y-107019482D01*
X123401498Y-107139180D01*
X123460463Y-107249494D01*
X123493705Y-107290000D01*
X108102000Y-107290000D01*
X108102000Y-106616712D01*
X108954893Y-106616712D01*
X109062726Y-106891338D01*
X109369384Y-107042216D01*
X109699585Y-107130369D01*
X110040639Y-107152409D01*
X110379439Y-107107489D01*
X110702966Y-106997336D01*
X110901274Y-106891338D01*
X111009107Y-106616712D01*
X109982000Y-105589605D01*
X108954893Y-106616712D01*
X108102000Y-106616712D01*
X108102000Y-105468639D01*
X108239591Y-105468639D01*
X108284511Y-105807439D01*
X108394664Y-106130966D01*
X108500662Y-106329274D01*
X108775288Y-106437107D01*
X109802395Y-105410000D01*
X110161605Y-105410000D01*
X111188712Y-106437107D01*
X111463338Y-106329274D01*
X111614216Y-106022616D01*
X111702369Y-105692415D01*
X111724409Y-105351361D01*
X111679489Y-105012561D01*
X111569336Y-104689034D01*
X111463338Y-104490726D01*
X111188712Y-104382893D01*
X110161605Y-105410000D01*
X109802395Y-105410000D01*
X108775288Y-104382893D01*
X108500662Y-104490726D01*
X108349784Y-104797384D01*
X108261631Y-105127585D01*
X108239591Y-105468639D01*
X108102000Y-105468639D01*
X108102000Y-104203288D01*
X108954893Y-104203288D01*
X109982000Y-105230395D01*
X111009107Y-104203288D01*
X110901274Y-103928662D01*
X110594616Y-103777784D01*
X110264415Y-103689631D01*
X109923361Y-103667591D01*
X109584561Y-103712511D01*
X109261034Y-103822664D01*
X109062726Y-103928662D01*
X108954893Y-104203288D01*
X108102000Y-104203288D01*
X108102000Y-97765891D01*
X112985519Y-97765891D01*
X113082843Y-98040252D01*
X113231822Y-98290355D01*
X113426731Y-98506588D01*
X113660080Y-98680641D01*
X113922901Y-98805825D01*
X114070110Y-98850476D01*
X114300000Y-98729155D01*
X114300000Y-97536000D01*
X114554000Y-97536000D01*
X114554000Y-98729155D01*
X114783890Y-98850476D01*
X114931099Y-98805825D01*
X115193920Y-98680641D01*
X115427269Y-98506588D01*
X115622178Y-98290355D01*
X115771157Y-98040252D01*
X115868481Y-97765891D01*
X115747814Y-97536000D01*
X114554000Y-97536000D01*
X114300000Y-97536000D01*
X113106186Y-97536000D01*
X112985519Y-97765891D01*
X108102000Y-97765891D01*
X108102000Y-97052109D01*
X112985519Y-97052109D01*
X113106186Y-97282000D01*
X114300000Y-97282000D01*
X114300000Y-96088845D01*
X114554000Y-96088845D01*
X114554000Y-97282000D01*
X115747814Y-97282000D01*
X115868481Y-97052109D01*
X115771157Y-96777748D01*
X115622178Y-96527645D01*
X115427269Y-96311412D01*
X115193920Y-96137359D01*
X114931099Y-96012175D01*
X114783890Y-95967524D01*
X114554000Y-96088845D01*
X114300000Y-96088845D01*
X114070110Y-95967524D01*
X113922901Y-96012175D01*
X113660080Y-96137359D01*
X113426731Y-96311412D01*
X113231822Y-96527645D01*
X113082843Y-96777748D01*
X112985519Y-97052109D01*
X108102000Y-97052109D01*
X108102000Y-73826000D01*
X112557928Y-73826000D01*
X112557928Y-75526000D01*
X112570188Y-75650482D01*
X112606498Y-75770180D01*
X112665463Y-75880494D01*
X112744815Y-75977185D01*
X112784191Y-76009500D01*
X112744815Y-76041815D01*
X112665463Y-76138506D01*
X112606498Y-76248820D01*
X112570188Y-76368518D01*
X112557928Y-76493000D01*
X112557928Y-78193000D01*
X112570188Y-78317482D01*
X112606498Y-78437180D01*
X112665463Y-78547494D01*
X112744815Y-78644185D01*
X112841506Y-78723537D01*
X112951820Y-78782502D01*
X113071518Y-78818812D01*
X113196000Y-78831072D01*
X114896000Y-78831072D01*
X115020482Y-78818812D01*
X115140180Y-78782502D01*
X115250494Y-78723537D01*
X115347185Y-78644185D01*
X115426537Y-78547494D01*
X115485502Y-78437180D01*
X115506393Y-78368313D01*
X115530866Y-78398134D01*
X115756986Y-78583706D01*
X116014966Y-78721599D01*
X116294889Y-78806513D01*
X116513050Y-78828000D01*
X116658950Y-78828000D01*
X116877111Y-78806513D01*
X117157034Y-78721599D01*
X117415014Y-78583706D01*
X117641134Y-78398134D01*
X117826706Y-78172014D01*
X117856000Y-78117209D01*
X117885294Y-78172014D01*
X118070866Y-78398134D01*
X118296986Y-78583706D01*
X118554966Y-78721599D01*
X118834889Y-78806513D01*
X119053050Y-78828000D01*
X119198950Y-78828000D01*
X119417111Y-78806513D01*
X119697034Y-78721599D01*
X119955014Y-78583706D01*
X120181134Y-78398134D01*
X120366706Y-78172014D01*
X120396000Y-78117209D01*
X120425294Y-78172014D01*
X120610866Y-78398134D01*
X120836986Y-78583706D01*
X121094966Y-78721599D01*
X121374889Y-78806513D01*
X121593050Y-78828000D01*
X121738950Y-78828000D01*
X121957111Y-78806513D01*
X122237034Y-78721599D01*
X122495014Y-78583706D01*
X122721134Y-78398134D01*
X122906706Y-78172014D01*
X122936000Y-78117209D01*
X122965294Y-78172014D01*
X123150866Y-78398134D01*
X123376986Y-78583706D01*
X123634966Y-78721599D01*
X123914889Y-78806513D01*
X124133050Y-78828000D01*
X124278950Y-78828000D01*
X124497111Y-78806513D01*
X124777034Y-78721599D01*
X125035014Y-78583706D01*
X125261134Y-78398134D01*
X125446706Y-78172014D01*
X125476000Y-78117209D01*
X125505294Y-78172014D01*
X125690866Y-78398134D01*
X125916986Y-78583706D01*
X126174966Y-78721599D01*
X126454889Y-78806513D01*
X126673050Y-78828000D01*
X126818950Y-78828000D01*
X127037111Y-78806513D01*
X127317034Y-78721599D01*
X127575014Y-78583706D01*
X127801134Y-78398134D01*
X127986706Y-78172014D01*
X128016000Y-78117209D01*
X128045294Y-78172014D01*
X128230866Y-78398134D01*
X128456986Y-78583706D01*
X128714966Y-78721599D01*
X128994889Y-78806513D01*
X129213050Y-78828000D01*
X129358950Y-78828000D01*
X129577111Y-78806513D01*
X129857034Y-78721599D01*
X130115014Y-78583706D01*
X130341134Y-78398134D01*
X130526706Y-78172014D01*
X130556000Y-78117209D01*
X130585294Y-78172014D01*
X130770866Y-78398134D01*
X130996986Y-78583706D01*
X131254966Y-78721599D01*
X131534889Y-78806513D01*
X131753050Y-78828000D01*
X131898950Y-78828000D01*
X132117111Y-78806513D01*
X132397034Y-78721599D01*
X132655014Y-78583706D01*
X132881134Y-78398134D01*
X133066706Y-78172014D01*
X133096000Y-78117209D01*
X133125294Y-78172014D01*
X133310866Y-78398134D01*
X133536986Y-78583706D01*
X133794966Y-78721599D01*
X134074889Y-78806513D01*
X134293050Y-78828000D01*
X134438950Y-78828000D01*
X134657111Y-78806513D01*
X134937034Y-78721599D01*
X135195014Y-78583706D01*
X135421134Y-78398134D01*
X135606706Y-78172014D01*
X135636000Y-78117209D01*
X135665294Y-78172014D01*
X135850866Y-78398134D01*
X136076986Y-78583706D01*
X136334966Y-78721599D01*
X136614889Y-78806513D01*
X136833050Y-78828000D01*
X136978950Y-78828000D01*
X137197111Y-78806513D01*
X137477034Y-78721599D01*
X137735014Y-78583706D01*
X137961134Y-78398134D01*
X138146706Y-78172014D01*
X138176000Y-78117209D01*
X138205294Y-78172014D01*
X138390866Y-78398134D01*
X138616986Y-78583706D01*
X138874966Y-78721599D01*
X139154889Y-78806513D01*
X139373050Y-78828000D01*
X139518950Y-78828000D01*
X139737111Y-78806513D01*
X140017034Y-78721599D01*
X140275014Y-78583706D01*
X140501134Y-78398134D01*
X140686706Y-78172014D01*
X140716000Y-78117209D01*
X140745294Y-78172014D01*
X140930866Y-78398134D01*
X141156986Y-78583706D01*
X141414966Y-78721599D01*
X141694889Y-78806513D01*
X141913050Y-78828000D01*
X142058950Y-78828000D01*
X142277111Y-78806513D01*
X142557034Y-78721599D01*
X142815014Y-78583706D01*
X143041134Y-78398134D01*
X143226706Y-78172014D01*
X143256000Y-78117209D01*
X143285294Y-78172014D01*
X143470866Y-78398134D01*
X143696986Y-78583706D01*
X143954966Y-78721599D01*
X144234889Y-78806513D01*
X144453050Y-78828000D01*
X144598950Y-78828000D01*
X144817111Y-78806513D01*
X145097034Y-78721599D01*
X145355014Y-78583706D01*
X145581134Y-78398134D01*
X145766706Y-78172014D01*
X145801201Y-78107477D01*
X145870822Y-78224355D01*
X146065731Y-78440588D01*
X146299080Y-78614641D01*
X146561901Y-78739825D01*
X146709110Y-78784476D01*
X146939000Y-78663155D01*
X146939000Y-77470000D01*
X146919000Y-77470000D01*
X146919000Y-77216000D01*
X146939000Y-77216000D01*
X146939000Y-76022845D01*
X146913713Y-76009500D01*
X146939000Y-75996155D01*
X146939000Y-74803000D01*
X146919000Y-74803000D01*
X146919000Y-74549000D01*
X146939000Y-74549000D01*
X146939000Y-73355845D01*
X146709110Y-73234524D01*
X146561901Y-73279175D01*
X146299080Y-73404359D01*
X146065731Y-73578412D01*
X145870822Y-73794645D01*
X145801201Y-73911523D01*
X145766706Y-73846986D01*
X145581134Y-73620866D01*
X145355014Y-73435294D01*
X145300209Y-73406000D01*
X145355014Y-73376706D01*
X145581134Y-73191134D01*
X145766706Y-72965014D01*
X145904599Y-72707034D01*
X145989513Y-72427111D01*
X146018185Y-72136000D01*
X145989513Y-71844889D01*
X145904599Y-71564966D01*
X145766706Y-71306986D01*
X145581134Y-71080866D01*
X145355014Y-70895294D01*
X145300209Y-70866000D01*
X145355014Y-70836706D01*
X145581134Y-70651134D01*
X145766706Y-70425014D01*
X145904599Y-70167034D01*
X145989513Y-69887111D01*
X146018185Y-69596000D01*
X145989513Y-69304889D01*
X145904599Y-69024966D01*
X145766706Y-68766986D01*
X145581134Y-68540866D01*
X145355014Y-68355294D01*
X145300209Y-68326000D01*
X145355014Y-68296706D01*
X145581134Y-68111134D01*
X145766706Y-67885014D01*
X145904599Y-67627034D01*
X145989513Y-67347111D01*
X146018185Y-67056000D01*
X145989513Y-66764889D01*
X145904599Y-66484966D01*
X145766706Y-66226986D01*
X145581134Y-66000866D01*
X145355014Y-65815294D01*
X145300209Y-65786000D01*
X145355014Y-65756706D01*
X145581134Y-65571134D01*
X145766706Y-65345014D01*
X145904599Y-65087034D01*
X145989513Y-64807111D01*
X146018185Y-64516000D01*
X145989513Y-64224889D01*
X145904599Y-63944966D01*
X145766706Y-63686986D01*
X145581134Y-63460866D01*
X145355014Y-63275294D01*
X145300209Y-63246000D01*
X145355014Y-63216706D01*
X145581134Y-63031134D01*
X145766706Y-62805014D01*
X145904599Y-62547034D01*
X145989513Y-62267111D01*
X146018185Y-61976000D01*
X145989513Y-61684889D01*
X145904599Y-61404966D01*
X145766706Y-61146986D01*
X145581134Y-60920866D01*
X145355014Y-60735294D01*
X145300209Y-60706000D01*
X145355014Y-60676706D01*
X145581134Y-60491134D01*
X145766706Y-60265014D01*
X145904599Y-60007034D01*
X145989513Y-59727111D01*
X146018185Y-59436000D01*
X145989513Y-59144889D01*
X145904599Y-58864966D01*
X145766706Y-58606986D01*
X145581134Y-58380866D01*
X145355014Y-58195294D01*
X145297244Y-58164416D01*
X145526269Y-57993588D01*
X145721178Y-57777355D01*
X145870157Y-57527252D01*
X145967481Y-57252891D01*
X145846814Y-57023000D01*
X144653000Y-57023000D01*
X144653000Y-57043000D01*
X144399000Y-57043000D01*
X144399000Y-57023000D01*
X143205186Y-57023000D01*
X143084519Y-57252891D01*
X143181843Y-57527252D01*
X143330822Y-57777355D01*
X143525731Y-57993588D01*
X143754756Y-58164416D01*
X143696986Y-58195294D01*
X143470866Y-58380866D01*
X143285294Y-58606986D01*
X143248405Y-58676000D01*
X119829711Y-58676000D01*
X119785774Y-58632063D01*
X119616256Y-58518795D01*
X119427898Y-58440774D01*
X119227939Y-58401000D01*
X119024061Y-58401000D01*
X118824102Y-58440774D01*
X118635744Y-58518795D01*
X118466226Y-58632063D01*
X118322063Y-58776226D01*
X118208795Y-58945744D01*
X118130774Y-59134102D01*
X118091000Y-59334061D01*
X118091000Y-59537939D01*
X118130774Y-59737898D01*
X118208795Y-59926256D01*
X118322063Y-60095774D01*
X118466226Y-60239937D01*
X118635744Y-60353205D01*
X118824102Y-60431226D01*
X119024061Y-60471000D01*
X119227939Y-60471000D01*
X119427898Y-60431226D01*
X119616256Y-60353205D01*
X119785774Y-60239937D01*
X119829711Y-60196000D01*
X143248405Y-60196000D01*
X143285294Y-60265014D01*
X143470866Y-60491134D01*
X143696986Y-60676706D01*
X143751791Y-60706000D01*
X143696986Y-60735294D01*
X143470866Y-60920866D01*
X143285294Y-61146986D01*
X143248405Y-61216000D01*
X127449711Y-61216000D01*
X127405774Y-61172063D01*
X127236256Y-61058795D01*
X127047898Y-60980774D01*
X126847939Y-60941000D01*
X126644061Y-60941000D01*
X126444102Y-60980774D01*
X126255744Y-61058795D01*
X126086226Y-61172063D01*
X125942063Y-61316226D01*
X125828795Y-61485744D01*
X125750774Y-61674102D01*
X125711000Y-61874061D01*
X125711000Y-62077939D01*
X125750774Y-62277898D01*
X125828795Y-62466256D01*
X125942063Y-62635774D01*
X126086226Y-62779937D01*
X126255744Y-62893205D01*
X126444102Y-62971226D01*
X126644061Y-63011000D01*
X126847939Y-63011000D01*
X127047898Y-62971226D01*
X127236256Y-62893205D01*
X127405774Y-62779937D01*
X127449711Y-62736000D01*
X143248405Y-62736000D01*
X143285294Y-62805014D01*
X143470866Y-63031134D01*
X143696986Y-63216706D01*
X143751791Y-63246000D01*
X143696986Y-63275294D01*
X143470866Y-63460866D01*
X143285294Y-63686986D01*
X143147401Y-63944966D01*
X143062487Y-64224889D01*
X143033815Y-64516000D01*
X143062487Y-64807111D01*
X143147401Y-65087034D01*
X143285294Y-65345014D01*
X143470866Y-65571134D01*
X143696986Y-65756706D01*
X143751791Y-65786000D01*
X143696986Y-65815294D01*
X143470866Y-66000866D01*
X143285294Y-66226986D01*
X143147401Y-66484966D01*
X143062487Y-66764889D01*
X143033815Y-67056000D01*
X143062487Y-67347111D01*
X143147401Y-67627034D01*
X143285294Y-67885014D01*
X143470866Y-68111134D01*
X143696986Y-68296706D01*
X143751791Y-68326000D01*
X143696986Y-68355294D01*
X143470866Y-68540866D01*
X143285294Y-68766986D01*
X143147401Y-69024966D01*
X143062487Y-69304889D01*
X143033815Y-69596000D01*
X143062487Y-69887111D01*
X143147401Y-70167034D01*
X143285294Y-70425014D01*
X143470866Y-70651134D01*
X143696986Y-70836706D01*
X143751791Y-70866000D01*
X143696986Y-70895294D01*
X143470866Y-71080866D01*
X143285294Y-71306986D01*
X143248405Y-71376000D01*
X142562711Y-71376000D01*
X142518774Y-71332063D01*
X142349256Y-71218795D01*
X142160898Y-71140774D01*
X141960939Y-71101000D01*
X141757061Y-71101000D01*
X141557102Y-71140774D01*
X141368744Y-71218795D01*
X141199226Y-71332063D01*
X141055063Y-71476226D01*
X140941795Y-71645744D01*
X140863774Y-71834102D01*
X140824000Y-72034061D01*
X140824000Y-72237939D01*
X140863774Y-72437898D01*
X140941795Y-72626256D01*
X141055063Y-72795774D01*
X141199226Y-72939937D01*
X141368744Y-73053205D01*
X141557102Y-73131226D01*
X141757061Y-73171000D01*
X141960939Y-73171000D01*
X142160898Y-73131226D01*
X142349256Y-73053205D01*
X142518774Y-72939937D01*
X142562711Y-72896000D01*
X143248405Y-72896000D01*
X143285294Y-72965014D01*
X143470866Y-73191134D01*
X143696986Y-73376706D01*
X143751791Y-73406000D01*
X143696986Y-73435294D01*
X143470866Y-73620866D01*
X143285294Y-73846986D01*
X143256000Y-73901791D01*
X143226706Y-73846986D01*
X143041134Y-73620866D01*
X142815014Y-73435294D01*
X142557034Y-73297401D01*
X142277111Y-73212487D01*
X142058950Y-73191000D01*
X141913050Y-73191000D01*
X141694889Y-73212487D01*
X141414966Y-73297401D01*
X141156986Y-73435294D01*
X140930866Y-73620866D01*
X140745294Y-73846986D01*
X140716000Y-73901791D01*
X140686706Y-73846986D01*
X140501134Y-73620866D01*
X140275014Y-73435294D01*
X140017034Y-73297401D01*
X139737111Y-73212487D01*
X139518950Y-73191000D01*
X139373050Y-73191000D01*
X139154889Y-73212487D01*
X138874966Y-73297401D01*
X138616986Y-73435294D01*
X138390866Y-73620866D01*
X138205294Y-73846986D01*
X138176000Y-73901791D01*
X138146706Y-73846986D01*
X137961134Y-73620866D01*
X137735014Y-73435294D01*
X137477034Y-73297401D01*
X137197111Y-73212487D01*
X136978950Y-73191000D01*
X136833050Y-73191000D01*
X136614889Y-73212487D01*
X136334966Y-73297401D01*
X136076986Y-73435294D01*
X135850866Y-73620866D01*
X135665294Y-73846986D01*
X135636000Y-73901791D01*
X135606706Y-73846986D01*
X135421134Y-73620866D01*
X135195014Y-73435294D01*
X134937034Y-73297401D01*
X134657111Y-73212487D01*
X134438950Y-73191000D01*
X134293050Y-73191000D01*
X134074889Y-73212487D01*
X133794966Y-73297401D01*
X133536986Y-73435294D01*
X133310866Y-73620866D01*
X133125294Y-73846986D01*
X133096000Y-73901791D01*
X133066706Y-73846986D01*
X132881134Y-73620866D01*
X132655014Y-73435294D01*
X132397034Y-73297401D01*
X132117111Y-73212487D01*
X131898950Y-73191000D01*
X131753050Y-73191000D01*
X131534889Y-73212487D01*
X131254966Y-73297401D01*
X130996986Y-73435294D01*
X130770866Y-73620866D01*
X130585294Y-73846986D01*
X130556000Y-73901791D01*
X130526706Y-73846986D01*
X130341134Y-73620866D01*
X130115014Y-73435294D01*
X129857034Y-73297401D01*
X129577111Y-73212487D01*
X129358950Y-73191000D01*
X129213050Y-73191000D01*
X128994889Y-73212487D01*
X128714966Y-73297401D01*
X128456986Y-73435294D01*
X128230866Y-73620866D01*
X128045294Y-73846986D01*
X128016000Y-73901791D01*
X127986706Y-73846986D01*
X127801134Y-73620866D01*
X127575014Y-73435294D01*
X127317034Y-73297401D01*
X127037111Y-73212487D01*
X126818950Y-73191000D01*
X126673050Y-73191000D01*
X126454889Y-73212487D01*
X126174966Y-73297401D01*
X125916986Y-73435294D01*
X125690866Y-73620866D01*
X125505294Y-73846986D01*
X125476000Y-73901791D01*
X125446706Y-73846986D01*
X125261134Y-73620866D01*
X125035014Y-73435294D01*
X124777034Y-73297401D01*
X124497111Y-73212487D01*
X124278950Y-73191000D01*
X124133050Y-73191000D01*
X123914889Y-73212487D01*
X123634966Y-73297401D01*
X123376986Y-73435294D01*
X123150866Y-73620866D01*
X122965294Y-73846986D01*
X122936000Y-73901791D01*
X122906706Y-73846986D01*
X122721134Y-73620866D01*
X122495014Y-73435294D01*
X122237034Y-73297401D01*
X121957111Y-73212487D01*
X121738950Y-73191000D01*
X121593050Y-73191000D01*
X121374889Y-73212487D01*
X121094966Y-73297401D01*
X120836986Y-73435294D01*
X120610866Y-73620866D01*
X120425294Y-73846986D01*
X120396000Y-73901791D01*
X120366706Y-73846986D01*
X120181134Y-73620866D01*
X119955014Y-73435294D01*
X119697034Y-73297401D01*
X119417111Y-73212487D01*
X119198950Y-73191000D01*
X119053050Y-73191000D01*
X118834889Y-73212487D01*
X118554966Y-73297401D01*
X118296986Y-73435294D01*
X118070866Y-73620866D01*
X117885294Y-73846986D01*
X117856000Y-73901791D01*
X117826706Y-73846986D01*
X117641134Y-73620866D01*
X117415014Y-73435294D01*
X117157034Y-73297401D01*
X116877111Y-73212487D01*
X116658950Y-73191000D01*
X116513050Y-73191000D01*
X116294889Y-73212487D01*
X116014966Y-73297401D01*
X115756986Y-73435294D01*
X115530866Y-73620866D01*
X115506393Y-73650687D01*
X115485502Y-73581820D01*
X115426537Y-73471506D01*
X115347185Y-73374815D01*
X115250494Y-73295463D01*
X115140180Y-73236498D01*
X115020482Y-73200188D01*
X114896000Y-73187928D01*
X113196000Y-73187928D01*
X113071518Y-73200188D01*
X112951820Y-73236498D01*
X112841506Y-73295463D01*
X112744815Y-73374815D01*
X112665463Y-73471506D01*
X112606498Y-73581820D01*
X112570188Y-73701518D01*
X112557928Y-73826000D01*
X108102000Y-73826000D01*
X108102000Y-52788117D01*
X108247000Y-52788117D01*
X108247000Y-53129883D01*
X108313675Y-53465081D01*
X108444463Y-53780831D01*
X108634337Y-54064998D01*
X108876002Y-54306663D01*
X109160169Y-54496537D01*
X109475919Y-54627325D01*
X109811117Y-54694000D01*
X110152883Y-54694000D01*
X110488081Y-54627325D01*
X110803831Y-54496537D01*
X111087998Y-54306663D01*
X111329663Y-54064998D01*
X111519537Y-53780831D01*
X111650325Y-53465081D01*
X111717000Y-53129883D01*
X111717000Y-52788117D01*
X111650325Y-52452919D01*
X111534334Y-52172891D01*
X112604519Y-52172891D01*
X112701843Y-52447252D01*
X112850822Y-52697355D01*
X113045731Y-52913588D01*
X113279080Y-53087641D01*
X113541901Y-53212825D01*
X113689110Y-53257476D01*
X113919000Y-53136155D01*
X113919000Y-51943000D01*
X112725186Y-51943000D01*
X112604519Y-52172891D01*
X111534334Y-52172891D01*
X111519537Y-52137169D01*
X111329663Y-51853002D01*
X111087998Y-51611337D01*
X110803831Y-51421463D01*
X110488081Y-51290675D01*
X110152883Y-51224000D01*
X109811117Y-51224000D01*
X109475919Y-51290675D01*
X109160169Y-51421463D01*
X108876002Y-51611337D01*
X108634337Y-51853002D01*
X108444463Y-52137169D01*
X108313675Y-52452919D01*
X108247000Y-52788117D01*
X108102000Y-52788117D01*
X108102000Y-51079000D01*
X112764834Y-51079000D01*
X112701843Y-51184748D01*
X112701843Y-51184748D01*
G37*
X112701843Y-51184748D02*
X112604519Y-51459109D01*
X112725186Y-51689000D01*
X113919000Y-51689000D01*
X113919000Y-51669000D01*
X114173000Y-51669000D01*
X114173000Y-51689000D01*
X114193000Y-51689000D01*
X114193000Y-51943000D01*
X114173000Y-51943000D01*
X114173000Y-53136155D01*
X114402890Y-53257476D01*
X114550099Y-53212825D01*
X114812920Y-53087641D01*
X115046269Y-52913588D01*
X115241178Y-52697355D01*
X115310799Y-52580477D01*
X115345294Y-52645014D01*
X115530866Y-52871134D01*
X115756986Y-53056706D01*
X116014966Y-53194599D01*
X116294889Y-53279513D01*
X116513050Y-53301000D01*
X116658950Y-53301000D01*
X116877111Y-53279513D01*
X117157034Y-53194599D01*
X117415014Y-53056706D01*
X117641134Y-52871134D01*
X117826706Y-52645014D01*
X117856000Y-52590209D01*
X117885294Y-52645014D01*
X118070866Y-52871134D01*
X118296986Y-53056706D01*
X118554966Y-53194599D01*
X118834889Y-53279513D01*
X119053050Y-53301000D01*
X119198950Y-53301000D01*
X119417111Y-53279513D01*
X119697034Y-53194599D01*
X119955014Y-53056706D01*
X120181134Y-52871134D01*
X120366706Y-52645014D01*
X120396000Y-52590209D01*
X120425294Y-52645014D01*
X120610866Y-52871134D01*
X120836986Y-53056706D01*
X121094966Y-53194599D01*
X121374889Y-53279513D01*
X121593050Y-53301000D01*
X121738950Y-53301000D01*
X121957111Y-53279513D01*
X122237034Y-53194599D01*
X122495014Y-53056706D01*
X122721134Y-52871134D01*
X122906706Y-52645014D01*
X122936000Y-52590209D01*
X122965294Y-52645014D01*
X123150866Y-52871134D01*
X123376986Y-53056706D01*
X123634966Y-53194599D01*
X123914889Y-53279513D01*
X124133050Y-53301000D01*
X124278950Y-53301000D01*
X124497111Y-53279513D01*
X124777034Y-53194599D01*
X125035014Y-53056706D01*
X125261134Y-52871134D01*
X125446706Y-52645014D01*
X125476000Y-52590209D01*
X125505294Y-52645014D01*
X125690866Y-52871134D01*
X125916986Y-53056706D01*
X126174966Y-53194599D01*
X126454889Y-53279513D01*
X126673050Y-53301000D01*
X126818950Y-53301000D01*
X127037111Y-53279513D01*
X127317034Y-53194599D01*
X127575014Y-53056706D01*
X127801134Y-52871134D01*
X127986706Y-52645014D01*
X128021201Y-52580477D01*
X128090822Y-52697355D01*
X128285731Y-52913588D01*
X128519080Y-53087641D01*
X128781901Y-53212825D01*
X128929110Y-53257476D01*
X129159000Y-53136155D01*
X129159000Y-51943000D01*
X129139000Y-51943000D01*
X129139000Y-51689000D01*
X129159000Y-51689000D01*
X129159000Y-51669000D01*
X129413000Y-51669000D01*
X129413000Y-51689000D01*
X129433000Y-51689000D01*
X129433000Y-51943000D01*
X129413000Y-51943000D01*
X129413000Y-53136155D01*
X129642890Y-53257476D01*
X129790099Y-53212825D01*
X130052920Y-53087641D01*
X130286269Y-52913588D01*
X130481178Y-52697355D01*
X130550799Y-52580477D01*
X130585294Y-52645014D01*
X130770866Y-52871134D01*
X130996986Y-53056706D01*
X131254966Y-53194599D01*
X131534889Y-53279513D01*
X131753050Y-53301000D01*
X131898950Y-53301000D01*
X132117111Y-53279513D01*
X132397034Y-53194599D01*
X132655014Y-53056706D01*
X132881134Y-52871134D01*
X133066706Y-52645014D01*
X133096000Y-52590209D01*
X133125294Y-52645014D01*
X133310866Y-52871134D01*
X133536986Y-53056706D01*
X133794966Y-53194599D01*
X134074889Y-53279513D01*
X134293050Y-53301000D01*
X134438950Y-53301000D01*
X134657111Y-53279513D01*
X134937034Y-53194599D01*
X135195014Y-53056706D01*
X135421134Y-52871134D01*
X135606706Y-52645014D01*
X135636000Y-52590209D01*
X135665294Y-52645014D01*
X135850866Y-52871134D01*
X136076986Y-53056706D01*
X136334966Y-53194599D01*
X136614889Y-53279513D01*
X136833050Y-53301000D01*
X136978950Y-53301000D01*
X137197111Y-53279513D01*
X137477034Y-53194599D01*
X137735014Y-53056706D01*
X137961134Y-52871134D01*
X138146706Y-52645014D01*
X138176000Y-52590209D01*
X138205294Y-52645014D01*
X138390866Y-52871134D01*
X138616986Y-53056706D01*
X138874966Y-53194599D01*
X139154889Y-53279513D01*
X139373050Y-53301000D01*
X139518950Y-53301000D01*
X139737111Y-53279513D01*
X140017034Y-53194599D01*
X140275014Y-53056706D01*
X140501134Y-52871134D01*
X140686706Y-52645014D01*
X140716000Y-52590209D01*
X140745294Y-52645014D01*
X140930866Y-52871134D01*
X141156986Y-53056706D01*
X141414966Y-53194599D01*
X141694889Y-53279513D01*
X141913050Y-53301000D01*
X142058950Y-53301000D01*
X142277111Y-53279513D01*
X142557034Y-53194599D01*
X142815014Y-53056706D01*
X143041134Y-52871134D01*
X143226706Y-52645014D01*
X143256000Y-52590209D01*
X143285294Y-52645014D01*
X143470866Y-52871134D01*
X143500687Y-52895607D01*
X143431820Y-52916498D01*
X143321506Y-52975463D01*
X143224815Y-53054815D01*
X143145463Y-53151506D01*
X143086498Y-53261820D01*
X143050188Y-53381518D01*
X143037928Y-53506000D01*
X143037928Y-53596000D01*
X114876711Y-53596000D01*
X114832774Y-53552063D01*
X114663256Y-53438795D01*
X114474898Y-53360774D01*
X114274939Y-53321000D01*
X114071061Y-53321000D01*
X113871102Y-53360774D01*
X113682744Y-53438795D01*
X113513226Y-53552063D01*
X113369063Y-53696226D01*
X113255795Y-53865744D01*
X113177774Y-54054102D01*
X113138000Y-54254061D01*
X113138000Y-54457939D01*
X113177774Y-54657898D01*
X113255795Y-54846256D01*
X113369063Y-55015774D01*
X113513226Y-55159937D01*
X113682744Y-55273205D01*
X113871102Y-55351226D01*
X114071061Y-55391000D01*
X114274939Y-55391000D01*
X114474898Y-55351226D01*
X114663256Y-55273205D01*
X114832774Y-55159937D01*
X114876711Y-55116000D01*
X143037928Y-55116000D01*
X143037928Y-55206000D01*
X143050188Y-55330482D01*
X143086498Y-55450180D01*
X143145463Y-55560494D01*
X143224815Y-55657185D01*
X143321506Y-55736537D01*
X143431820Y-55795502D01*
X143507626Y-55818498D01*
X143330822Y-56014645D01*
X143181843Y-56264748D01*
X143084519Y-56539109D01*
X143205186Y-56769000D01*
X144399000Y-56769000D01*
X144399000Y-56749000D01*
X144653000Y-56749000D01*
X144653000Y-56769000D01*
X145846814Y-56769000D01*
X145967481Y-56539109D01*
X145870157Y-56264748D01*
X145721178Y-56014645D01*
X145544374Y-55818498D01*
X145620180Y-55795502D01*
X145730494Y-55736537D01*
X145827185Y-55657185D01*
X145906537Y-55560494D01*
X145965502Y-55450180D01*
X146001812Y-55330482D01*
X146014072Y-55206000D01*
X146014072Y-54165712D01*
X166231893Y-54165712D01*
X166339726Y-54440338D01*
X166646384Y-54591216D01*
X166976585Y-54679369D01*
X167317639Y-54701409D01*
X167656439Y-54656489D01*
X167979966Y-54546336D01*
X168178274Y-54440338D01*
X168286107Y-54165712D01*
X167259000Y-53138605D01*
X166231893Y-54165712D01*
X146014072Y-54165712D01*
X146014072Y-53506000D01*
X146001812Y-53381518D01*
X145965502Y-53261820D01*
X145906537Y-53151506D01*
X145827185Y-53054815D01*
X145730494Y-52975463D01*
X145620180Y-52916498D01*
X145551313Y-52895607D01*
X145581134Y-52871134D01*
X145766706Y-52645014D01*
X145796000Y-52590209D01*
X145825294Y-52645014D01*
X146010866Y-52871134D01*
X146236986Y-53056706D01*
X146494966Y-53194599D01*
X146774889Y-53279513D01*
X146993050Y-53301000D01*
X147138950Y-53301000D01*
X147357111Y-53279513D01*
X147637034Y-53194599D01*
X147895014Y-53056706D01*
X148121134Y-52871134D01*
X148306706Y-52645014D01*
X148336000Y-52590209D01*
X148365294Y-52645014D01*
X148550866Y-52871134D01*
X148776986Y-53056706D01*
X149034966Y-53194599D01*
X149314889Y-53279513D01*
X149533050Y-53301000D01*
X149678950Y-53301000D01*
X149897111Y-53279513D01*
X150177034Y-53194599D01*
X150435014Y-53056706D01*
X150661134Y-52871134D01*
X150846706Y-52645014D01*
X150876000Y-52590209D01*
X150905294Y-52645014D01*
X151090866Y-52871134D01*
X151316986Y-53056706D01*
X151574966Y-53194599D01*
X151854889Y-53279513D01*
X152073050Y-53301000D01*
X152218950Y-53301000D01*
X152437111Y-53279513D01*
X152717034Y-53194599D01*
X152975014Y-53056706D01*
X153201134Y-52871134D01*
X153386706Y-52645014D01*
X153416000Y-52590209D01*
X153445294Y-52645014D01*
X153630866Y-52871134D01*
X153856986Y-53056706D01*
X154114966Y-53194599D01*
X154394889Y-53279513D01*
X154613050Y-53301000D01*
X154758950Y-53301000D01*
X154977111Y-53279513D01*
X155257034Y-53194599D01*
X155515014Y-53056706D01*
X155741134Y-52871134D01*
X155926706Y-52645014D01*
X155956000Y-52590209D01*
X155985294Y-52645014D01*
X156170866Y-52871134D01*
X156396986Y-53056706D01*
X156654966Y-53194599D01*
X156934889Y-53279513D01*
X157153050Y-53301000D01*
X157298950Y-53301000D01*
X157517111Y-53279513D01*
X157797034Y-53194599D01*
X158055014Y-53056706D01*
X158281134Y-52871134D01*
X158466706Y-52645014D01*
X158496000Y-52590209D01*
X158525294Y-52645014D01*
X158710866Y-52871134D01*
X158936986Y-53056706D01*
X159194966Y-53194599D01*
X159474889Y-53279513D01*
X159693050Y-53301000D01*
X159838950Y-53301000D01*
X160057111Y-53279513D01*
X160337034Y-53194599D01*
X160595014Y-53056706D01*
X160642617Y-53017639D01*
X165516591Y-53017639D01*
X165561511Y-53356439D01*
X165671664Y-53679966D01*
X165777662Y-53878274D01*
X166052288Y-53986107D01*
X167079395Y-52959000D01*
X167438605Y-52959000D01*
X168465712Y-53986107D01*
X168740338Y-53878274D01*
X168891216Y-53571616D01*
X168979369Y-53241415D01*
X169001409Y-52900361D01*
X168956489Y-52561561D01*
X168846336Y-52238034D01*
X168740338Y-52039726D01*
X168465712Y-51931893D01*
X167438605Y-52959000D01*
X167079395Y-52959000D01*
X166052288Y-51931893D01*
X165777662Y-52039726D01*
X165626784Y-52346384D01*
X165538631Y-52676585D01*
X165516591Y-53017639D01*
X160642617Y-53017639D01*
X160821134Y-52871134D01*
X161006706Y-52645014D01*
X161144599Y-52387034D01*
X161229513Y-52107111D01*
X161258185Y-51816000D01*
X161251910Y-51752288D01*
X166231893Y-51752288D01*
X167259000Y-52779395D01*
X168286107Y-51752288D01*
X168178274Y-51477662D01*
X167871616Y-51326784D01*
X167541415Y-51238631D01*
X167200361Y-51216591D01*
X166861561Y-51261511D01*
X166538034Y-51371664D01*
X166339726Y-51477662D01*
X166231893Y-51752288D01*
X161251910Y-51752288D01*
X161229513Y-51524889D01*
X161144599Y-51244966D01*
X161055888Y-51079000D01*
X169139001Y-51079000D01*
X169139000Y-107290000D01*
X163299137Y-107290000D01*
X163496769Y-107142588D01*
X163691678Y-106926355D01*
X163840657Y-106676252D01*
X163861777Y-106616712D01*
X166231893Y-106616712D01*
X166339726Y-106891338D01*
X166646384Y-107042216D01*
X166976585Y-107130369D01*
X167317639Y-107152409D01*
X167656439Y-107107489D01*
X167979966Y-106997336D01*
X168178274Y-106891338D01*
X168286107Y-106616712D01*
X167259000Y-105589605D01*
X166231893Y-106616712D01*
X163861777Y-106616712D01*
X163937981Y-106401891D01*
X163817314Y-106172000D01*
X162623500Y-106172000D01*
X162623500Y-106192000D01*
X162369500Y-106192000D01*
X162369500Y-106172000D01*
X162349500Y-106172000D01*
X162349500Y-105918000D01*
X162369500Y-105918000D01*
X162369500Y-104724845D01*
X162623500Y-104724845D01*
X162623500Y-105918000D01*
X163817314Y-105918000D01*
X163937981Y-105688109D01*
X163860129Y-105468639D01*
X165516591Y-105468639D01*
X165561511Y-105807439D01*
X165671664Y-106130966D01*
X165777662Y-106329274D01*
X166052288Y-106437107D01*
X167079395Y-105410000D01*
X167438605Y-105410000D01*
X168465712Y-106437107D01*
X168740338Y-106329274D01*
X168891216Y-106022616D01*
X168979369Y-105692415D01*
X169001409Y-105351361D01*
X168956489Y-105012561D01*
X168846336Y-104689034D01*
X168740338Y-104490726D01*
X168465712Y-104382893D01*
X167438605Y-105410000D01*
X167079395Y-105410000D01*
X166052288Y-104382893D01*
X165777662Y-104490726D01*
X165626784Y-104797384D01*
X165538631Y-105127585D01*
X165516591Y-105468639D01*
X163860129Y-105468639D01*
X163840657Y-105413748D01*
X163691678Y-105163645D01*
X163496769Y-104947412D01*
X163263420Y-104773359D01*
X163000599Y-104648175D01*
X162853390Y-104603524D01*
X162623500Y-104724845D01*
X162369500Y-104724845D01*
X162139610Y-104603524D01*
X161992401Y-104648175D01*
X161729580Y-104773359D01*
X161496231Y-104947412D01*
X161301322Y-105163645D01*
X161231701Y-105280523D01*
X161197206Y-105215986D01*
X161011634Y-104989866D01*
X160909000Y-104905636D01*
X160909000Y-104203288D01*
X166231893Y-104203288D01*
X167259000Y-105230395D01*
X168286107Y-104203288D01*
X168178274Y-103928662D01*
X167871616Y-103777784D01*
X167541415Y-103689631D01*
X167200361Y-103667591D01*
X166861561Y-103712511D01*
X166538034Y-103822664D01*
X166339726Y-103928662D01*
X166231893Y-104203288D01*
X160909000Y-104203288D01*
X160909000Y-96597038D01*
X164283141Y-93222898D01*
X164313816Y-93229000D01*
X164616184Y-93229000D01*
X164912743Y-93170011D01*
X165192095Y-93054299D01*
X165443505Y-92886312D01*
X165657312Y-92672505D01*
X165825299Y-92421095D01*
X165941011Y-92141743D01*
X166000000Y-91845184D01*
X166000000Y-91542816D01*
X165941011Y-91246257D01*
X165825299Y-90966905D01*
X165657312Y-90715495D01*
X165443505Y-90501688D01*
X165417500Y-90484312D01*
X165417500Y-82088785D01*
X165422108Y-82042000D01*
X165403717Y-81855278D01*
X165381781Y-81782963D01*
X165349252Y-81675731D01*
X165260806Y-81510259D01*
X165141778Y-81365222D01*
X165105431Y-81335393D01*
X161245171Y-77475133D01*
X161258185Y-77343000D01*
X161229513Y-77051889D01*
X161144599Y-76771966D01*
X161006706Y-76513986D01*
X160821134Y-76287866D01*
X160718500Y-76203636D01*
X160718500Y-75815364D01*
X160821134Y-75731134D01*
X161006706Y-75505014D01*
X161144599Y-75247034D01*
X161229513Y-74967111D01*
X161258185Y-74676000D01*
X161229513Y-74384889D01*
X161144599Y-74104966D01*
X161006706Y-73846986D01*
X160821134Y-73620866D01*
X160595014Y-73435294D01*
X160337034Y-73297401D01*
X160057111Y-73212487D01*
X159838950Y-73191000D01*
X159693050Y-73191000D01*
X159474889Y-73212487D01*
X159194966Y-73297401D01*
X158936986Y-73435294D01*
X158710866Y-73620866D01*
X158525294Y-73846986D01*
X158496000Y-73901791D01*
X158466706Y-73846986D01*
X158281134Y-73620866D01*
X158055014Y-73435294D01*
X157797034Y-73297401D01*
X157517111Y-73212487D01*
X157298950Y-73191000D01*
X157153050Y-73191000D01*
X156934889Y-73212487D01*
X156654966Y-73297401D01*
X156396986Y-73435294D01*
X156170866Y-73620866D01*
X155985294Y-73846986D01*
X155956000Y-73901791D01*
X155926706Y-73846986D01*
X155741134Y-73620866D01*
X155515014Y-73435294D01*
X155257034Y-73297401D01*
X154977111Y-73212487D01*
X154758950Y-73191000D01*
X154613050Y-73191000D01*
X154394889Y-73212487D01*
X154114966Y-73297401D01*
X153856986Y-73435294D01*
X153630866Y-73620866D01*
X153445294Y-73846986D01*
X153416000Y-73901791D01*
X153386706Y-73846986D01*
X153201134Y-73620866D01*
X152975014Y-73435294D01*
X152717034Y-73297401D01*
X152437111Y-73212487D01*
X152218950Y-73191000D01*
X152073050Y-73191000D01*
X151854889Y-73212487D01*
X151574966Y-73297401D01*
X151316986Y-73435294D01*
X151090866Y-73620866D01*
X150905294Y-73846986D01*
X150876000Y-73901791D01*
X150846706Y-73846986D01*
X150661134Y-73620866D01*
X150435014Y-73435294D01*
X150177034Y-73297401D01*
X149897111Y-73212487D01*
X149678950Y-73191000D01*
X149533050Y-73191000D01*
X149314889Y-73212487D01*
X149034966Y-73297401D01*
X148776986Y-73435294D01*
X148550866Y-73620866D01*
X148365294Y-73846986D01*
X148330799Y-73911523D01*
X148261178Y-73794645D01*
X148066269Y-73578412D01*
X147832920Y-73404359D01*
X147570099Y-73279175D01*
X147422890Y-73234524D01*
X147193000Y-73355845D01*
X147193000Y-74549000D01*
X147213000Y-74549000D01*
X147213000Y-74803000D01*
X147193000Y-74803000D01*
X147193000Y-75996155D01*
X147218287Y-76009500D01*
X147193000Y-76022845D01*
X147193000Y-77216000D01*
X147213000Y-77216000D01*
X147213000Y-77470000D01*
X147193000Y-77470000D01*
X147193000Y-78663155D01*
X147422890Y-78784476D01*
X147570099Y-78739825D01*
X147832920Y-78614641D01*
X148066269Y-78440588D01*
X148261178Y-78224355D01*
X148330799Y-78107477D01*
X148365294Y-78172014D01*
X148550866Y-78398134D01*
X148776986Y-78583706D01*
X149034966Y-78721599D01*
X149314889Y-78806513D01*
X149533050Y-78828000D01*
X149678950Y-78828000D01*
X149897111Y-78806513D01*
X150177034Y-78721599D01*
X150435014Y-78583706D01*
X150661134Y-78398134D01*
X150846706Y-78172014D01*
X150876000Y-78117209D01*
X150905294Y-78172014D01*
X151090866Y-78398134D01*
X151316986Y-78583706D01*
X151574966Y-78721599D01*
X151854889Y-78806513D01*
X152073050Y-78828000D01*
X152218950Y-78828000D01*
X152437111Y-78806513D01*
X152717034Y-78721599D01*
X152975014Y-78583706D01*
X153201134Y-78398134D01*
X153386706Y-78172014D01*
X153416000Y-78117209D01*
X153445294Y-78172014D01*
X153630866Y-78398134D01*
X153856986Y-78583706D01*
X154114966Y-78721599D01*
X154394889Y-78806513D01*
X154613050Y-78828000D01*
X154758950Y-78828000D01*
X154977111Y-78806513D01*
X155257034Y-78721599D01*
X155515014Y-78583706D01*
X155741134Y-78398134D01*
X155926706Y-78172014D01*
X155956000Y-78117209D01*
X155985294Y-78172014D01*
X156170866Y-78398134D01*
X156396986Y-78583706D01*
X156654966Y-78721599D01*
X156934889Y-78806513D01*
X157153050Y-78828000D01*
X157298950Y-78828000D01*
X157517111Y-78806513D01*
X157797034Y-78721599D01*
X158055014Y-78583706D01*
X158281134Y-78398134D01*
X158466706Y-78172014D01*
X158496000Y-78117209D01*
X158525294Y-78172014D01*
X158710866Y-78398134D01*
X158936986Y-78583706D01*
X159194966Y-78721599D01*
X159474889Y-78806513D01*
X159693050Y-78828000D01*
X159838950Y-78828000D01*
X159898133Y-78822171D01*
X163512501Y-82436539D01*
X163512500Y-90484312D01*
X163486495Y-90501688D01*
X163272688Y-90715495D01*
X163170049Y-90869105D01*
X162989080Y-90809525D01*
X162104605Y-91694000D01*
X162118748Y-91708143D01*
X161939143Y-91887748D01*
X161925000Y-91873605D01*
X161910858Y-91887748D01*
X161731253Y-91708143D01*
X161745395Y-91694000D01*
X161731253Y-91679858D01*
X161910858Y-91500253D01*
X161925000Y-91514395D01*
X162809475Y-90629920D01*
X162725792Y-90375739D01*
X162453225Y-90244842D01*
X162160358Y-90169635D01*
X161858447Y-90153009D01*
X161559093Y-90195603D01*
X161273801Y-90295778D01*
X161124208Y-90375739D01*
X161040526Y-90629918D01*
X160924578Y-90513970D01*
X160877813Y-90560735D01*
X160874502Y-90549820D01*
X160815537Y-90439506D01*
X160736185Y-90342815D01*
X160655000Y-90276188D01*
X160655000Y-84898372D01*
X160661143Y-84835999D01*
X160655000Y-84773626D01*
X160655000Y-84773620D01*
X160636623Y-84587037D01*
X160564003Y-84347641D01*
X160446075Y-84127012D01*
X160287370Y-83933630D01*
X160238914Y-83893863D01*
X157025141Y-80680091D01*
X156985370Y-80631630D01*
X156791988Y-80472925D01*
X156571359Y-80354997D01*
X156331963Y-80282377D01*
X156145380Y-80264000D01*
X156145373Y-80264000D01*
X156083000Y-80257857D01*
X156020627Y-80264000D01*
X151124454Y-80264000D01*
X151062081Y-80257857D01*
X150999708Y-80264000D01*
X133920373Y-80264000D01*
X133858000Y-80257857D01*
X133795627Y-80264000D01*
X120204380Y-80264000D01*
X120142000Y-80257856D01*
X120079620Y-80264000D01*
X119893037Y-80282377D01*
X119653641Y-80354997D01*
X119433012Y-80472925D01*
X119239630Y-80631630D01*
X119199863Y-80680086D01*
X115697000Y-84182950D01*
X115697000Y-83495778D01*
X115728185Y-83470185D01*
X115807537Y-83373494D01*
X115866502Y-83263180D01*
X115902812Y-83143482D01*
X115915072Y-83019000D01*
X115915072Y-81319000D01*
X115902812Y-81194518D01*
X115866502Y-81074820D01*
X115807537Y-80964506D01*
X115728185Y-80867815D01*
X115631494Y-80788463D01*
X115521180Y-80729498D01*
X115401482Y-80693188D01*
X115277000Y-80680928D01*
X113577000Y-80680928D01*
X113452518Y-80693188D01*
X113332820Y-80729498D01*
X113222506Y-80788463D01*
X113125815Y-80867815D01*
X113046463Y-80964506D01*
X112987498Y-81074820D01*
X112951188Y-81194518D01*
X112938928Y-81319000D01*
X112938928Y-83019000D01*
X112951188Y-83143482D01*
X112987498Y-83263180D01*
X113046463Y-83373494D01*
X113125815Y-83470185D01*
X113157000Y-83495778D01*
X113157000Y-83762949D01*
X111888085Y-85031865D01*
X111839630Y-85071631D01*
X111680925Y-85265013D01*
X111574831Y-85463502D01*
X111562997Y-85485642D01*
X111490376Y-85725038D01*
X111465856Y-85974001D01*
X111472000Y-86036383D01*
X111471999Y-87995428D01*
X111465856Y-88057801D01*
X111471999Y-88120174D01*
X111471999Y-88120180D01*
X111479555Y-88196892D01*
X111490376Y-88306764D01*
X111505977Y-88358194D01*
X111562996Y-88546159D01*
X111680924Y-88766788D01*
X111839629Y-88960171D01*
X111888090Y-88999942D01*
X113157001Y-90268854D01*
X113157001Y-91002222D01*
X113125815Y-91027815D01*
X113046463Y-91124506D01*
X112987498Y-91234820D01*
X112951188Y-91354518D01*
X112938928Y-91479000D01*
X112938928Y-93179000D01*
X112951188Y-93303482D01*
X112987498Y-93423180D01*
X113046463Y-93533494D01*
X113125815Y-93630185D01*
X113222506Y-93709537D01*
X113332820Y-93768502D01*
X113452518Y-93804812D01*
X113577000Y-93817072D01*
X115277000Y-93817072D01*
X115401482Y-93804812D01*
X115521180Y-93768502D01*
X115631494Y-93709537D01*
X115728185Y-93630185D01*
X115807537Y-93533494D01*
X115866502Y-93423180D01*
X115902812Y-93303482D01*
X115915072Y-93179000D01*
X115915072Y-91479000D01*
X115902812Y-91354518D01*
X115866502Y-91234820D01*
X115807537Y-91124506D01*
X115728185Y-91027815D01*
X115697000Y-91002222D01*
X115697000Y-89805174D01*
X115703143Y-89742801D01*
X115697000Y-89680428D01*
X115697000Y-89680422D01*
X115678623Y-89493839D01*
X115606003Y-89254443D01*
X115488075Y-89033814D01*
X115329370Y-88840432D01*
X115280914Y-88800665D01*
X115069597Y-88589348D01*
X115256014Y-88489706D01*
X115482134Y-88304134D01*
X115667706Y-88078014D01*
X115805599Y-87820034D01*
X115872475Y-87599576D01*
X120668051Y-82804000D01*
X121072741Y-82804000D01*
X121049815Y-82822815D01*
X120970463Y-82919506D01*
X120911498Y-83029820D01*
X120875188Y-83149518D01*
X120862928Y-83274000D01*
X120862928Y-84874000D01*
X120875188Y-84998482D01*
X120911498Y-85118180D01*
X120970463Y-85228494D01*
X121049815Y-85325185D01*
X121146506Y-85404537D01*
X121256820Y-85463502D01*
X121333664Y-85486812D01*
X121245866Y-85558866D01*
X121060294Y-85784986D01*
X120922401Y-86042966D01*
X120837487Y-86322889D01*
X120808815Y-86614000D01*
X120837487Y-86905111D01*
X120922401Y-87185034D01*
X121060294Y-87443014D01*
X121245866Y-87669134D01*
X121471986Y-87854706D01*
X121526791Y-87884000D01*
X121471986Y-87913294D01*
X121245866Y-88098866D01*
X121060294Y-88324986D01*
X120922401Y-88582966D01*
X120837487Y-88862889D01*
X120808815Y-89154000D01*
X120837487Y-89445111D01*
X120922401Y-89725034D01*
X121060294Y-89983014D01*
X121245866Y-90209134D01*
X121471986Y-90394706D01*
X121526791Y-90424000D01*
X121471986Y-90453294D01*
X121245866Y-90638866D01*
X121060294Y-90864986D01*
X120922401Y-91122966D01*
X120837487Y-91402889D01*
X120808815Y-91694000D01*
X120837487Y-91985111D01*
X120922401Y-92265034D01*
X121060294Y-92523014D01*
X121245866Y-92749134D01*
X121471986Y-92934706D01*
X121526791Y-92964000D01*
X121471986Y-92993294D01*
X121245866Y-93178866D01*
X121060294Y-93404986D01*
X120922401Y-93662966D01*
X120837487Y-93942889D01*
X120808815Y-94234000D01*
X120837487Y-94525111D01*
X120922401Y-94805034D01*
X121060294Y-95063014D01*
X121245866Y-95289134D01*
X121471986Y-95474706D01*
X121526791Y-95504000D01*
X121471986Y-95533294D01*
X121245866Y-95718866D01*
X121060294Y-95944986D01*
X120922401Y-96202966D01*
X120837487Y-96482889D01*
X120808815Y-96774000D01*
X120837487Y-97065111D01*
X120922401Y-97345034D01*
X121060294Y-97603014D01*
X121245866Y-97829134D01*
X121471986Y-98014706D01*
X121526791Y-98044000D01*
X121471986Y-98073294D01*
X121245866Y-98258866D01*
X121060294Y-98484986D01*
X120922401Y-98742966D01*
X120837487Y-99022889D01*
X120808815Y-99314000D01*
X120837487Y-99605111D01*
X120922401Y-99885034D01*
X121060294Y-100143014D01*
X121245866Y-100369134D01*
X121471986Y-100554706D01*
X121526791Y-100584000D01*
X121471986Y-100613294D01*
X121245866Y-100798866D01*
X121060294Y-101024986D01*
X120922401Y-101282966D01*
X120837487Y-101562889D01*
X120808815Y-101854000D01*
X120837487Y-102145111D01*
X120922401Y-102425034D01*
X121060294Y-102683014D01*
X121245866Y-102909134D01*
X121471986Y-103094706D01*
X121729966Y-103232599D01*
X122009889Y-103317513D01*
X122228050Y-103339000D01*
X122373950Y-103339000D01*
X122592111Y-103317513D01*
X122872034Y-103232599D01*
X123130014Y-103094706D01*
X123356134Y-102909134D01*
X123541706Y-102683014D01*
X123679599Y-102425034D01*
X123764513Y-102145111D01*
X123793185Y-101854000D01*
X123764513Y-101562889D01*
X123679599Y-101282966D01*
X123541706Y-101024986D01*
X123356134Y-100798866D01*
X123130014Y-100613294D01*
X123075209Y-100584000D01*
X123130014Y-100554706D01*
X123356134Y-100369134D01*
X123541706Y-100143014D01*
X123679599Y-99885034D01*
X123764513Y-99605111D01*
X123793185Y-99314000D01*
X123764513Y-99022889D01*
X123679599Y-98742966D01*
X123541706Y-98484986D01*
X123356134Y-98258866D01*
X123130014Y-98073294D01*
X123075209Y-98044000D01*
X123130014Y-98014706D01*
X123356134Y-97829134D01*
X123541706Y-97603014D01*
X123679599Y-97345034D01*
X123764513Y-97065111D01*
X123793185Y-96774000D01*
X123764513Y-96482889D01*
X123679599Y-96202966D01*
X123541706Y-95944986D01*
X123356134Y-95718866D01*
X123130014Y-95533294D01*
X123075209Y-95504000D01*
X123130014Y-95474706D01*
X123356134Y-95289134D01*
X123541706Y-95063014D01*
X123679599Y-94805034D01*
X123764513Y-94525111D01*
X123793185Y-94234000D01*
X123764513Y-93942889D01*
X123679599Y-93662966D01*
X123541706Y-93404986D01*
X123356134Y-93178866D01*
X123130014Y-92993294D01*
X123075209Y-92964000D01*
X123130014Y-92934706D01*
X123356134Y-92749134D01*
X123541706Y-92523014D01*
X123679599Y-92265034D01*
X123764513Y-91985111D01*
X123793185Y-91694000D01*
X123764513Y-91402889D01*
X123679599Y-91122966D01*
X123541706Y-90864986D01*
X123356134Y-90638866D01*
X123130014Y-90453294D01*
X123075209Y-90424000D01*
X123130014Y-90394706D01*
X123356134Y-90209134D01*
X123541706Y-89983014D01*
X123679599Y-89725034D01*
X123764513Y-89445111D01*
X123793185Y-89154000D01*
X123764513Y-88862889D01*
X123698114Y-88644000D01*
X133603886Y-88644000D01*
X133537487Y-88862889D01*
X133508815Y-89154000D01*
X133521829Y-89286132D01*
X124200564Y-98607398D01*
X124164223Y-98637222D01*
X124134399Y-98673563D01*
X124045194Y-98782260D01*
X123956749Y-98947731D01*
X123902283Y-99127278D01*
X123883892Y-99314000D01*
X123888501Y-99360795D01*
X123888500Y-104567023D01*
X123866518Y-104569188D01*
X123746820Y-104605498D01*
X123636506Y-104664463D01*
X123539815Y-104743815D01*
X123460463Y-104840506D01*
X123401498Y-104950820D01*
X123365188Y-105070518D01*
X123352928Y-105195000D01*
X123352928Y-106895000D01*
X123365188Y-107019482D01*
X123401498Y-107139180D01*
X123460463Y-107249494D01*
X123493705Y-107290000D01*
X108102000Y-107290000D01*
X108102000Y-106616712D01*
X108954893Y-106616712D01*
X109062726Y-106891338D01*
X109369384Y-107042216D01*
X109699585Y-107130369D01*
X110040639Y-107152409D01*
X110379439Y-107107489D01*
X110702966Y-106997336D01*
X110901274Y-106891338D01*
X111009107Y-106616712D01*
X109982000Y-105589605D01*
X108954893Y-106616712D01*
X108102000Y-106616712D01*
X108102000Y-105468639D01*
X108239591Y-105468639D01*
X108284511Y-105807439D01*
X108394664Y-106130966D01*
X108500662Y-106329274D01*
X108775288Y-106437107D01*
X109802395Y-105410000D01*
X110161605Y-105410000D01*
X111188712Y-106437107D01*
X111463338Y-106329274D01*
X111614216Y-106022616D01*
X111702369Y-105692415D01*
X111724409Y-105351361D01*
X111679489Y-105012561D01*
X111569336Y-104689034D01*
X111463338Y-104490726D01*
X111188712Y-104382893D01*
X110161605Y-105410000D01*
X109802395Y-105410000D01*
X108775288Y-104382893D01*
X108500662Y-104490726D01*
X108349784Y-104797384D01*
X108261631Y-105127585D01*
X108239591Y-105468639D01*
X108102000Y-105468639D01*
X108102000Y-104203288D01*
X108954893Y-104203288D01*
X109982000Y-105230395D01*
X111009107Y-104203288D01*
X110901274Y-103928662D01*
X110594616Y-103777784D01*
X110264415Y-103689631D01*
X109923361Y-103667591D01*
X109584561Y-103712511D01*
X109261034Y-103822664D01*
X109062726Y-103928662D01*
X108954893Y-104203288D01*
X108102000Y-104203288D01*
X108102000Y-97765891D01*
X112985519Y-97765891D01*
X113082843Y-98040252D01*
X113231822Y-98290355D01*
X113426731Y-98506588D01*
X113660080Y-98680641D01*
X113922901Y-98805825D01*
X114070110Y-98850476D01*
X114300000Y-98729155D01*
X114300000Y-97536000D01*
X114554000Y-97536000D01*
X114554000Y-98729155D01*
X114783890Y-98850476D01*
X114931099Y-98805825D01*
X115193920Y-98680641D01*
X115427269Y-98506588D01*
X115622178Y-98290355D01*
X115771157Y-98040252D01*
X115868481Y-97765891D01*
X115747814Y-97536000D01*
X114554000Y-97536000D01*
X114300000Y-97536000D01*
X113106186Y-97536000D01*
X112985519Y-97765891D01*
X108102000Y-97765891D01*
X108102000Y-97052109D01*
X112985519Y-97052109D01*
X113106186Y-97282000D01*
X114300000Y-97282000D01*
X114300000Y-96088845D01*
X114554000Y-96088845D01*
X114554000Y-97282000D01*
X115747814Y-97282000D01*
X115868481Y-97052109D01*
X115771157Y-96777748D01*
X115622178Y-96527645D01*
X115427269Y-96311412D01*
X115193920Y-96137359D01*
X114931099Y-96012175D01*
X114783890Y-95967524D01*
X114554000Y-96088845D01*
X114300000Y-96088845D01*
X114070110Y-95967524D01*
X113922901Y-96012175D01*
X113660080Y-96137359D01*
X113426731Y-96311412D01*
X113231822Y-96527645D01*
X113082843Y-96777748D01*
X112985519Y-97052109D01*
X108102000Y-97052109D01*
X108102000Y-73826000D01*
X112557928Y-73826000D01*
X112557928Y-75526000D01*
X112570188Y-75650482D01*
X112606498Y-75770180D01*
X112665463Y-75880494D01*
X112744815Y-75977185D01*
X112784191Y-76009500D01*
X112744815Y-76041815D01*
X112665463Y-76138506D01*
X112606498Y-76248820D01*
X112570188Y-76368518D01*
X112557928Y-76493000D01*
X112557928Y-78193000D01*
X112570188Y-78317482D01*
X112606498Y-78437180D01*
X112665463Y-78547494D01*
X112744815Y-78644185D01*
X112841506Y-78723537D01*
X112951820Y-78782502D01*
X113071518Y-78818812D01*
X113196000Y-78831072D01*
X114896000Y-78831072D01*
X115020482Y-78818812D01*
X115140180Y-78782502D01*
X115250494Y-78723537D01*
X115347185Y-78644185D01*
X115426537Y-78547494D01*
X115485502Y-78437180D01*
X115506393Y-78368313D01*
X115530866Y-78398134D01*
X115756986Y-78583706D01*
X116014966Y-78721599D01*
X116294889Y-78806513D01*
X116513050Y-78828000D01*
X116658950Y-78828000D01*
X116877111Y-78806513D01*
X117157034Y-78721599D01*
X117415014Y-78583706D01*
X117641134Y-78398134D01*
X117826706Y-78172014D01*
X117856000Y-78117209D01*
X117885294Y-78172014D01*
X118070866Y-78398134D01*
X118296986Y-78583706D01*
X118554966Y-78721599D01*
X118834889Y-78806513D01*
X119053050Y-78828000D01*
X119198950Y-78828000D01*
X119417111Y-78806513D01*
X119697034Y-78721599D01*
X119955014Y-78583706D01*
X120181134Y-78398134D01*
X120366706Y-78172014D01*
X120396000Y-78117209D01*
X120425294Y-78172014D01*
X120610866Y-78398134D01*
X120836986Y-78583706D01*
X121094966Y-78721599D01*
X121374889Y-78806513D01*
X121593050Y-78828000D01*
X121738950Y-78828000D01*
X121957111Y-78806513D01*
X122237034Y-78721599D01*
X122495014Y-78583706D01*
X122721134Y-78398134D01*
X122906706Y-78172014D01*
X122936000Y-78117209D01*
X122965294Y-78172014D01*
X123150866Y-78398134D01*
X123376986Y-78583706D01*
X123634966Y-78721599D01*
X123914889Y-78806513D01*
X124133050Y-78828000D01*
X124278950Y-78828000D01*
X124497111Y-78806513D01*
X124777034Y-78721599D01*
X125035014Y-78583706D01*
X125261134Y-78398134D01*
X125446706Y-78172014D01*
X125476000Y-78117209D01*
X125505294Y-78172014D01*
X125690866Y-78398134D01*
X125916986Y-78583706D01*
X126174966Y-78721599D01*
X126454889Y-78806513D01*
X126673050Y-78828000D01*
X126818950Y-78828000D01*
X127037111Y-78806513D01*
X127317034Y-78721599D01*
X127575014Y-78583706D01*
X127801134Y-78398134D01*
X127986706Y-78172014D01*
X128016000Y-78117209D01*
X128045294Y-78172014D01*
X128230866Y-78398134D01*
X128456986Y-78583706D01*
X128714966Y-78721599D01*
X128994889Y-78806513D01*
X129213050Y-78828000D01*
X129358950Y-78828000D01*
X129577111Y-78806513D01*
X129857034Y-78721599D01*
X130115014Y-78583706D01*
X130341134Y-78398134D01*
X130526706Y-78172014D01*
X130556000Y-78117209D01*
X130585294Y-78172014D01*
X130770866Y-78398134D01*
X130996986Y-78583706D01*
X131254966Y-78721599D01*
X131534889Y-78806513D01*
X131753050Y-78828000D01*
X131898950Y-78828000D01*
X132117111Y-78806513D01*
X132397034Y-78721599D01*
X132655014Y-78583706D01*
X132881134Y-78398134D01*
X133066706Y-78172014D01*
X133096000Y-78117209D01*
X133125294Y-78172014D01*
X133310866Y-78398134D01*
X133536986Y-78583706D01*
X133794966Y-78721599D01*
X134074889Y-78806513D01*
X134293050Y-78828000D01*
X134438950Y-78828000D01*
X134657111Y-78806513D01*
X134937034Y-78721599D01*
X135195014Y-78583706D01*
X135421134Y-78398134D01*
X135606706Y-78172014D01*
X135636000Y-78117209D01*
X135665294Y-78172014D01*
X135850866Y-78398134D01*
X136076986Y-78583706D01*
X136334966Y-78721599D01*
X136614889Y-78806513D01*
X136833050Y-78828000D01*
X136978950Y-78828000D01*
X137197111Y-78806513D01*
X137477034Y-78721599D01*
X137735014Y-78583706D01*
X137961134Y-78398134D01*
X138146706Y-78172014D01*
X138176000Y-78117209D01*
X138205294Y-78172014D01*
X138390866Y-78398134D01*
X138616986Y-78583706D01*
X138874966Y-78721599D01*
X139154889Y-78806513D01*
X139373050Y-78828000D01*
X139518950Y-78828000D01*
X139737111Y-78806513D01*
X140017034Y-78721599D01*
X140275014Y-78583706D01*
X140501134Y-78398134D01*
X140686706Y-78172014D01*
X140716000Y-78117209D01*
X140745294Y-78172014D01*
X140930866Y-78398134D01*
X141156986Y-78583706D01*
X141414966Y-78721599D01*
X141694889Y-78806513D01*
X141913050Y-78828000D01*
X142058950Y-78828000D01*
X142277111Y-78806513D01*
X142557034Y-78721599D01*
X142815014Y-78583706D01*
X143041134Y-78398134D01*
X143226706Y-78172014D01*
X143256000Y-78117209D01*
X143285294Y-78172014D01*
X143470866Y-78398134D01*
X143696986Y-78583706D01*
X143954966Y-78721599D01*
X144234889Y-78806513D01*
X144453050Y-78828000D01*
X144598950Y-78828000D01*
X144817111Y-78806513D01*
X145097034Y-78721599D01*
X145355014Y-78583706D01*
X145581134Y-78398134D01*
X145766706Y-78172014D01*
X145801201Y-78107477D01*
X145870822Y-78224355D01*
X146065731Y-78440588D01*
X146299080Y-78614641D01*
X146561901Y-78739825D01*
X146709110Y-78784476D01*
X146939000Y-78663155D01*
X146939000Y-77470000D01*
X146919000Y-77470000D01*
X146919000Y-77216000D01*
X146939000Y-77216000D01*
X146939000Y-76022845D01*
X146913713Y-76009500D01*
X146939000Y-75996155D01*
X146939000Y-74803000D01*
X146919000Y-74803000D01*
X146919000Y-74549000D01*
X146939000Y-74549000D01*
X146939000Y-73355845D01*
X146709110Y-73234524D01*
X146561901Y-73279175D01*
X146299080Y-73404359D01*
X146065731Y-73578412D01*
X145870822Y-73794645D01*
X145801201Y-73911523D01*
X145766706Y-73846986D01*
X145581134Y-73620866D01*
X145355014Y-73435294D01*
X145300209Y-73406000D01*
X145355014Y-73376706D01*
X145581134Y-73191134D01*
X145766706Y-72965014D01*
X145904599Y-72707034D01*
X145989513Y-72427111D01*
X146018185Y-72136000D01*
X145989513Y-71844889D01*
X145904599Y-71564966D01*
X145766706Y-71306986D01*
X145581134Y-71080866D01*
X145355014Y-70895294D01*
X145300209Y-70866000D01*
X145355014Y-70836706D01*
X145581134Y-70651134D01*
X145766706Y-70425014D01*
X145904599Y-70167034D01*
X145989513Y-69887111D01*
X146018185Y-69596000D01*
X145989513Y-69304889D01*
X145904599Y-69024966D01*
X145766706Y-68766986D01*
X145581134Y-68540866D01*
X145355014Y-68355294D01*
X145300209Y-68326000D01*
X145355014Y-68296706D01*
X145581134Y-68111134D01*
X145766706Y-67885014D01*
X145904599Y-67627034D01*
X145989513Y-67347111D01*
X146018185Y-67056000D01*
X145989513Y-66764889D01*
X145904599Y-66484966D01*
X145766706Y-66226986D01*
X145581134Y-66000866D01*
X145355014Y-65815294D01*
X145300209Y-65786000D01*
X145355014Y-65756706D01*
X145581134Y-65571134D01*
X145766706Y-65345014D01*
X145904599Y-65087034D01*
X145989513Y-64807111D01*
X146018185Y-64516000D01*
X145989513Y-64224889D01*
X145904599Y-63944966D01*
X145766706Y-63686986D01*
X145581134Y-63460866D01*
X145355014Y-63275294D01*
X145300209Y-63246000D01*
X145355014Y-63216706D01*
X145581134Y-63031134D01*
X145766706Y-62805014D01*
X145904599Y-62547034D01*
X145989513Y-62267111D01*
X146018185Y-61976000D01*
X145989513Y-61684889D01*
X145904599Y-61404966D01*
X145766706Y-61146986D01*
X145581134Y-60920866D01*
X145355014Y-60735294D01*
X145300209Y-60706000D01*
X145355014Y-60676706D01*
X145581134Y-60491134D01*
X145766706Y-60265014D01*
X145904599Y-60007034D01*
X145989513Y-59727111D01*
X146018185Y-59436000D01*
X145989513Y-59144889D01*
X145904599Y-58864966D01*
X145766706Y-58606986D01*
X145581134Y-58380866D01*
X145355014Y-58195294D01*
X145297244Y-58164416D01*
X145526269Y-57993588D01*
X145721178Y-57777355D01*
X145870157Y-57527252D01*
X145967481Y-57252891D01*
X145846814Y-57023000D01*
X144653000Y-57023000D01*
X144653000Y-57043000D01*
X144399000Y-57043000D01*
X144399000Y-57023000D01*
X143205186Y-57023000D01*
X143084519Y-57252891D01*
X143181843Y-57527252D01*
X143330822Y-57777355D01*
X143525731Y-57993588D01*
X143754756Y-58164416D01*
X143696986Y-58195294D01*
X143470866Y-58380866D01*
X143285294Y-58606986D01*
X143248405Y-58676000D01*
X119829711Y-58676000D01*
X119785774Y-58632063D01*
X119616256Y-58518795D01*
X119427898Y-58440774D01*
X119227939Y-58401000D01*
X119024061Y-58401000D01*
X118824102Y-58440774D01*
X118635744Y-58518795D01*
X118466226Y-58632063D01*
X118322063Y-58776226D01*
X118208795Y-58945744D01*
X118130774Y-59134102D01*
X118091000Y-59334061D01*
X118091000Y-59537939D01*
X118130774Y-59737898D01*
X118208795Y-59926256D01*
X118322063Y-60095774D01*
X118466226Y-60239937D01*
X118635744Y-60353205D01*
X118824102Y-60431226D01*
X119024061Y-60471000D01*
X119227939Y-60471000D01*
X119427898Y-60431226D01*
X119616256Y-60353205D01*
X119785774Y-60239937D01*
X119829711Y-60196000D01*
X143248405Y-60196000D01*
X143285294Y-60265014D01*
X143470866Y-60491134D01*
X143696986Y-60676706D01*
X143751791Y-60706000D01*
X143696986Y-60735294D01*
X143470866Y-60920866D01*
X143285294Y-61146986D01*
X143248405Y-61216000D01*
X127449711Y-61216000D01*
X127405774Y-61172063D01*
X127236256Y-61058795D01*
X127047898Y-60980774D01*
X126847939Y-60941000D01*
X126644061Y-60941000D01*
X126444102Y-60980774D01*
X126255744Y-61058795D01*
X126086226Y-61172063D01*
X125942063Y-61316226D01*
X125828795Y-61485744D01*
X125750774Y-61674102D01*
X125711000Y-61874061D01*
X125711000Y-62077939D01*
X125750774Y-62277898D01*
X125828795Y-62466256D01*
X125942063Y-62635774D01*
X126086226Y-62779937D01*
X126255744Y-62893205D01*
X126444102Y-62971226D01*
X126644061Y-63011000D01*
X126847939Y-63011000D01*
X127047898Y-62971226D01*
X127236256Y-62893205D01*
X127405774Y-62779937D01*
X127449711Y-62736000D01*
X143248405Y-62736000D01*
X143285294Y-62805014D01*
X143470866Y-63031134D01*
X143696986Y-63216706D01*
X143751791Y-63246000D01*
X143696986Y-63275294D01*
X143470866Y-63460866D01*
X143285294Y-63686986D01*
X143147401Y-63944966D01*
X143062487Y-64224889D01*
X143033815Y-64516000D01*
X143062487Y-64807111D01*
X143147401Y-65087034D01*
X143285294Y-65345014D01*
X143470866Y-65571134D01*
X143696986Y-65756706D01*
X143751791Y-65786000D01*
X143696986Y-65815294D01*
X143470866Y-66000866D01*
X143285294Y-66226986D01*
X143147401Y-66484966D01*
X143062487Y-66764889D01*
X143033815Y-67056000D01*
X143062487Y-67347111D01*
X143147401Y-67627034D01*
X143285294Y-67885014D01*
X143470866Y-68111134D01*
X143696986Y-68296706D01*
X143751791Y-68326000D01*
X143696986Y-68355294D01*
X143470866Y-68540866D01*
X143285294Y-68766986D01*
X143147401Y-69024966D01*
X143062487Y-69304889D01*
X143033815Y-69596000D01*
X143062487Y-69887111D01*
X143147401Y-70167034D01*
X143285294Y-70425014D01*
X143470866Y-70651134D01*
X143696986Y-70836706D01*
X143751791Y-70866000D01*
X143696986Y-70895294D01*
X143470866Y-71080866D01*
X143285294Y-71306986D01*
X143248405Y-71376000D01*
X142562711Y-71376000D01*
X142518774Y-71332063D01*
X142349256Y-71218795D01*
X142160898Y-71140774D01*
X141960939Y-71101000D01*
X141757061Y-71101000D01*
X141557102Y-71140774D01*
X141368744Y-71218795D01*
X141199226Y-71332063D01*
X141055063Y-71476226D01*
X140941795Y-71645744D01*
X140863774Y-71834102D01*
X140824000Y-72034061D01*
X140824000Y-72237939D01*
X140863774Y-72437898D01*
X140941795Y-72626256D01*
X141055063Y-72795774D01*
X141199226Y-72939937D01*
X141368744Y-73053205D01*
X141557102Y-73131226D01*
X141757061Y-73171000D01*
X141960939Y-73171000D01*
X142160898Y-73131226D01*
X142349256Y-73053205D01*
X142518774Y-72939937D01*
X142562711Y-72896000D01*
X143248405Y-72896000D01*
X143285294Y-72965014D01*
X143470866Y-73191134D01*
X143696986Y-73376706D01*
X143751791Y-73406000D01*
X143696986Y-73435294D01*
X143470866Y-73620866D01*
X143285294Y-73846986D01*
X143256000Y-73901791D01*
X143226706Y-73846986D01*
X143041134Y-73620866D01*
X142815014Y-73435294D01*
X142557034Y-73297401D01*
X142277111Y-73212487D01*
X142058950Y-73191000D01*
X141913050Y-73191000D01*
X141694889Y-73212487D01*
X141414966Y-73297401D01*
X141156986Y-73435294D01*
X140930866Y-73620866D01*
X140745294Y-73846986D01*
X140716000Y-73901791D01*
X140686706Y-73846986D01*
X140501134Y-73620866D01*
X140275014Y-73435294D01*
X140017034Y-73297401D01*
X139737111Y-73212487D01*
X139518950Y-73191000D01*
X139373050Y-73191000D01*
X139154889Y-73212487D01*
X138874966Y-73297401D01*
X138616986Y-73435294D01*
X138390866Y-73620866D01*
X138205294Y-73846986D01*
X138176000Y-73901791D01*
X138146706Y-73846986D01*
X137961134Y-73620866D01*
X137735014Y-73435294D01*
X137477034Y-73297401D01*
X137197111Y-73212487D01*
X136978950Y-73191000D01*
X136833050Y-73191000D01*
X136614889Y-73212487D01*
X136334966Y-73297401D01*
X136076986Y-73435294D01*
X135850866Y-73620866D01*
X135665294Y-73846986D01*
X135636000Y-73901791D01*
X135606706Y-73846986D01*
X135421134Y-73620866D01*
X135195014Y-73435294D01*
X134937034Y-73297401D01*
X134657111Y-73212487D01*
X134438950Y-73191000D01*
X134293050Y-73191000D01*
X134074889Y-73212487D01*
X133794966Y-73297401D01*
X133536986Y-73435294D01*
X133310866Y-73620866D01*
X133125294Y-73846986D01*
X133096000Y-73901791D01*
X133066706Y-73846986D01*
X132881134Y-73620866D01*
X132655014Y-73435294D01*
X132397034Y-73297401D01*
X132117111Y-73212487D01*
X131898950Y-73191000D01*
X131753050Y-73191000D01*
X131534889Y-73212487D01*
X131254966Y-73297401D01*
X130996986Y-73435294D01*
X130770866Y-73620866D01*
X130585294Y-73846986D01*
X130556000Y-73901791D01*
X130526706Y-73846986D01*
X130341134Y-73620866D01*
X130115014Y-73435294D01*
X129857034Y-73297401D01*
X129577111Y-73212487D01*
X129358950Y-73191000D01*
X129213050Y-73191000D01*
X128994889Y-73212487D01*
X128714966Y-73297401D01*
X128456986Y-73435294D01*
X128230866Y-73620866D01*
X128045294Y-73846986D01*
X128016000Y-73901791D01*
X127986706Y-73846986D01*
X127801134Y-73620866D01*
X127575014Y-73435294D01*
X127317034Y-73297401D01*
X127037111Y-73212487D01*
X126818950Y-73191000D01*
X126673050Y-73191000D01*
X126454889Y-73212487D01*
X126174966Y-73297401D01*
X125916986Y-73435294D01*
X125690866Y-73620866D01*
X125505294Y-73846986D01*
X125476000Y-73901791D01*
X125446706Y-73846986D01*
X125261134Y-73620866D01*
X125035014Y-73435294D01*
X124777034Y-73297401D01*
X124497111Y-73212487D01*
X124278950Y-73191000D01*
X124133050Y-73191000D01*
X123914889Y-73212487D01*
X123634966Y-73297401D01*
X123376986Y-73435294D01*
X123150866Y-73620866D01*
X122965294Y-73846986D01*
X122936000Y-73901791D01*
X122906706Y-73846986D01*
X122721134Y-73620866D01*
X122495014Y-73435294D01*
X122237034Y-73297401D01*
X121957111Y-73212487D01*
X121738950Y-73191000D01*
X121593050Y-73191000D01*
X121374889Y-73212487D01*
X121094966Y-73297401D01*
X120836986Y-73435294D01*
X120610866Y-73620866D01*
X120425294Y-73846986D01*
X120396000Y-73901791D01*
X120366706Y-73846986D01*
X120181134Y-73620866D01*
X119955014Y-73435294D01*
X119697034Y-73297401D01*
X119417111Y-73212487D01*
X119198950Y-73191000D01*
X119053050Y-73191000D01*
X118834889Y-73212487D01*
X118554966Y-73297401D01*
X118296986Y-73435294D01*
X118070866Y-73620866D01*
X117885294Y-73846986D01*
X117856000Y-73901791D01*
X117826706Y-73846986D01*
X117641134Y-73620866D01*
X117415014Y-73435294D01*
X117157034Y-73297401D01*
X116877111Y-73212487D01*
X116658950Y-73191000D01*
X116513050Y-73191000D01*
X116294889Y-73212487D01*
X116014966Y-73297401D01*
X115756986Y-73435294D01*
X115530866Y-73620866D01*
X115506393Y-73650687D01*
X115485502Y-73581820D01*
X115426537Y-73471506D01*
X115347185Y-73374815D01*
X115250494Y-73295463D01*
X115140180Y-73236498D01*
X115020482Y-73200188D01*
X114896000Y-73187928D01*
X113196000Y-73187928D01*
X113071518Y-73200188D01*
X112951820Y-73236498D01*
X112841506Y-73295463D01*
X112744815Y-73374815D01*
X112665463Y-73471506D01*
X112606498Y-73581820D01*
X112570188Y-73701518D01*
X112557928Y-73826000D01*
X108102000Y-73826000D01*
X108102000Y-52788117D01*
X108247000Y-52788117D01*
X108247000Y-53129883D01*
X108313675Y-53465081D01*
X108444463Y-53780831D01*
X108634337Y-54064998D01*
X108876002Y-54306663D01*
X109160169Y-54496537D01*
X109475919Y-54627325D01*
X109811117Y-54694000D01*
X110152883Y-54694000D01*
X110488081Y-54627325D01*
X110803831Y-54496537D01*
X111087998Y-54306663D01*
X111329663Y-54064998D01*
X111519537Y-53780831D01*
X111650325Y-53465081D01*
X111717000Y-53129883D01*
X111717000Y-52788117D01*
X111650325Y-52452919D01*
X111534334Y-52172891D01*
X112604519Y-52172891D01*
X112701843Y-52447252D01*
X112850822Y-52697355D01*
X113045731Y-52913588D01*
X113279080Y-53087641D01*
X113541901Y-53212825D01*
X113689110Y-53257476D01*
X113919000Y-53136155D01*
X113919000Y-51943000D01*
X112725186Y-51943000D01*
X112604519Y-52172891D01*
X111534334Y-52172891D01*
X111519537Y-52137169D01*
X111329663Y-51853002D01*
X111087998Y-51611337D01*
X110803831Y-51421463D01*
X110488081Y-51290675D01*
X110152883Y-51224000D01*
X109811117Y-51224000D01*
X109475919Y-51290675D01*
X109160169Y-51421463D01*
X108876002Y-51611337D01*
X108634337Y-51853002D01*
X108444463Y-52137169D01*
X108313675Y-52452919D01*
X108247000Y-52788117D01*
X108102000Y-52788117D01*
X108102000Y-51079000D01*
X112764834Y-51079000D01*
X112701843Y-51184748D01*
G36*
X133604175Y-86109901D02*
G01*
X133559524Y-86257110D01*
X133680845Y-86487000D01*
X134874000Y-86487000D01*
X134874000Y-86467000D01*
X135128000Y-86467000D01*
X135128000Y-86487000D01*
X136321155Y-86487000D01*
X136442476Y-86257110D01*
X136397825Y-86109901D01*
X136395014Y-86104000D01*
X138302886Y-86104000D01*
X138236487Y-86322889D01*
X138207815Y-86614000D01*
X138236487Y-86905111D01*
X138259203Y-86979996D01*
X138115199Y-87124000D01*
X136395014Y-87124000D01*
X136397825Y-87118099D01*
X136442476Y-86970890D01*
X136321155Y-86741000D01*
X135128000Y-86741000D01*
X135128000Y-86761000D01*
X134874000Y-86761000D01*
X134874000Y-86741000D01*
X133680845Y-86741000D01*
X133559524Y-86970890D01*
X133604175Y-87118099D01*
X133606986Y-87124000D01*
X123885802Y-87124000D01*
X123741797Y-86979995D01*
X123764513Y-86905111D01*
X123793185Y-86614000D01*
X123764513Y-86322889D01*
X123698114Y-86104000D01*
X133606986Y-86104000D01*
X133604175Y-86109901D01*
X133604175Y-86109901D01*
G37*
X133604175Y-86109901D02*
X133559524Y-86257110D01*
X133680845Y-86487000D01*
X134874000Y-86487000D01*
X134874000Y-86467000D01*
X135128000Y-86467000D01*
X135128000Y-86487000D01*
X136321155Y-86487000D01*
X136442476Y-86257110D01*
X136397825Y-86109901D01*
X136395014Y-86104000D01*
X138302886Y-86104000D01*
X138236487Y-86322889D01*
X138207815Y-86614000D01*
X138236487Y-86905111D01*
X138259203Y-86979996D01*
X138115199Y-87124000D01*
X136395014Y-87124000D01*
X136397825Y-87118099D01*
X136442476Y-86970890D01*
X136321155Y-86741000D01*
X135128000Y-86741000D01*
X135128000Y-86761000D01*
X134874000Y-86761000D01*
X134874000Y-86741000D01*
X133680845Y-86741000D01*
X133559524Y-86970890D01*
X133604175Y-87118099D01*
X133606986Y-87124000D01*
X123885802Y-87124000D01*
X123741797Y-86979995D01*
X123764513Y-86905111D01*
X123793185Y-86614000D01*
X123764513Y-86322889D01*
X123698114Y-86104000D01*
X133606986Y-86104000D01*
X133604175Y-86109901D01*
G36*
X125449486Y-82837329D02*
G01*
X125377903Y-83081298D01*
X126191000Y-83894395D01*
X127004097Y-83081298D01*
X126932514Y-82837329D01*
X126862077Y-82804000D01*
X130508759Y-82804000D01*
X130276241Y-82959363D01*
X130076363Y-83159241D01*
X129919320Y-83394273D01*
X129811147Y-83655426D01*
X129756000Y-83932665D01*
X129756000Y-84215335D01*
X129811147Y-84492574D01*
X129849017Y-84584000D01*
X127537217Y-84584000D01*
X127548571Y-84560004D01*
X127617300Y-84285816D01*
X127631217Y-84003488D01*
X127589787Y-83723870D01*
X127494603Y-83457708D01*
X127427671Y-83332486D01*
X127183702Y-83260903D01*
X126370605Y-84074000D01*
X126384748Y-84088143D01*
X126205143Y-84267748D01*
X126191000Y-84253605D01*
X126176858Y-84267748D01*
X125997253Y-84088143D01*
X126011395Y-84074000D01*
X125198298Y-83260903D01*
X124954329Y-83332486D01*
X124833429Y-83587996D01*
X124764700Y-83862184D01*
X124750783Y-84144512D01*
X124792213Y-84424130D01*
X124849385Y-84584000D01*
X123885802Y-84584000D01*
X123739072Y-84437270D01*
X123739072Y-83274000D01*
X123726812Y-83149518D01*
X123690502Y-83029820D01*
X123631537Y-82919506D01*
X123552185Y-82822815D01*
X123529259Y-82804000D01*
X125511841Y-82804000D01*
X125449486Y-82837329D01*
X125449486Y-82837329D01*
G37*
X125449486Y-82837329D02*
X125377903Y-83081298D01*
X126191000Y-83894395D01*
X127004097Y-83081298D01*
X126932514Y-82837329D01*
X126862077Y-82804000D01*
X130508759Y-82804000D01*
X130276241Y-82959363D01*
X130076363Y-83159241D01*
X129919320Y-83394273D01*
X129811147Y-83655426D01*
X129756000Y-83932665D01*
X129756000Y-84215335D01*
X129811147Y-84492574D01*
X129849017Y-84584000D01*
X127537217Y-84584000D01*
X127548571Y-84560004D01*
X127617300Y-84285816D01*
X127631217Y-84003488D01*
X127589787Y-83723870D01*
X127494603Y-83457708D01*
X127427671Y-83332486D01*
X127183702Y-83260903D01*
X126370605Y-84074000D01*
X126384748Y-84088143D01*
X126205143Y-84267748D01*
X126191000Y-84253605D01*
X126176858Y-84267748D01*
X125997253Y-84088143D01*
X126011395Y-84074000D01*
X125198298Y-83260903D01*
X124954329Y-83332486D01*
X124833429Y-83587996D01*
X124764700Y-83862184D01*
X124750783Y-84144512D01*
X124792213Y-84424130D01*
X124849385Y-84584000D01*
X123885802Y-84584000D01*
X123739072Y-84437270D01*
X123739072Y-83274000D01*
X123726812Y-83149518D01*
X123690502Y-83029820D01*
X123631537Y-82919506D01*
X123552185Y-82822815D01*
X123529259Y-82804000D01*
X125511841Y-82804000D01*
X125449486Y-82837329D01*
M02*
