G04 #@! TF.GenerationSoftware,KiCad,Pcbnew,(5.1.2-1)-1*
G04 #@! TF.CreationDate,2019-10-28T15:32:04-04:00*
G04 #@! TF.ProjectId,balancebot,62616c61-6e63-4656-926f-742e6b696361,rev?*
G04 #@! TF.SameCoordinates,Original*
G04 #@! TF.FileFunction,Soldermask,Bot*
G04 #@! TF.FilePolarity,Negative*
%FSLAX46Y46*%
G04 Gerber Fmt 4.6, Leading zero omitted, Abs format (unit mm)*
G04 Created by KiCad (PCBNEW (5.1.2-1)-1) date 2019-10-28 15:32:04*
%MOMM*%
%LPD*%
G04 APERTURE LIST*
%ADD10C,0.100000*%
G04 APERTURE END LIST*
D10*
G36*
X19863765Y-30612009D02*
G01*
X20020734Y-30643232D01*
X20230203Y-30729997D01*
X20418720Y-30855960D01*
X20579040Y-31016280D01*
X20705003Y-31204797D01*
X20791768Y-31414266D01*
X20836000Y-31636636D01*
X20836000Y-31863364D01*
X20791768Y-32085734D01*
X20705003Y-32295203D01*
X20579040Y-32483720D01*
X20418720Y-32644040D01*
X20230203Y-32770003D01*
X20020734Y-32856768D01*
X19909549Y-32878884D01*
X19798365Y-32901000D01*
X19571635Y-32901000D01*
X19460451Y-32878884D01*
X19349266Y-32856768D01*
X19139797Y-32770003D01*
X18951280Y-32644040D01*
X18790960Y-32483720D01*
X18664997Y-32295203D01*
X18578232Y-32085734D01*
X18534000Y-31863364D01*
X18534000Y-31636636D01*
X18578232Y-31414266D01*
X18664997Y-31204797D01*
X18790960Y-31016280D01*
X18951280Y-30855960D01*
X19139797Y-30729997D01*
X19349266Y-30643232D01*
X19506235Y-30612009D01*
X19571635Y-30599000D01*
X19798365Y-30599000D01*
X19863765Y-30612009D01*
X19863765Y-30612009D01*
G37*
G36*
X-41731235Y-30612009D02*
G01*
X-41574266Y-30643232D01*
X-41364797Y-30729997D01*
X-41176280Y-30855960D01*
X-41015960Y-31016280D01*
X-40889997Y-31204797D01*
X-40803232Y-31414266D01*
X-40759000Y-31636636D01*
X-40759000Y-31863364D01*
X-40803232Y-32085734D01*
X-40889997Y-32295203D01*
X-41015960Y-32483720D01*
X-41176280Y-32644040D01*
X-41364797Y-32770003D01*
X-41574266Y-32856768D01*
X-41685451Y-32878884D01*
X-41796635Y-32901000D01*
X-42023365Y-32901000D01*
X-42134549Y-32878884D01*
X-42245734Y-32856768D01*
X-42455203Y-32770003D01*
X-42643720Y-32644040D01*
X-42804040Y-32483720D01*
X-42930003Y-32295203D01*
X-43016768Y-32085734D01*
X-43061000Y-31863364D01*
X-43061000Y-31636636D01*
X-43016768Y-31414266D01*
X-42930003Y-31204797D01*
X-42804040Y-31016280D01*
X-42643720Y-30855960D01*
X-42455203Y-30729997D01*
X-42245734Y-30643232D01*
X-42088765Y-30612009D01*
X-42023365Y-30599000D01*
X-41796635Y-30599000D01*
X-41731235Y-30612009D01*
X-41731235Y-30612009D01*
G37*
G36*
X9791000Y-32016000D02*
G01*
X7989000Y-32016000D01*
X7989000Y-30214000D01*
X9791000Y-30214000D01*
X9791000Y-32016000D01*
X9791000Y-32016000D01*
G37*
G36*
X-2429558Y-30220518D02*
G01*
X-2363373Y-30227037D01*
X-2193534Y-30278557D01*
X-2037009Y-30362222D01*
X-2001271Y-30391552D01*
X-1899814Y-30474814D01*
X-1816552Y-30576271D01*
X-1787222Y-30612009D01*
X-1703557Y-30768534D01*
X-1652037Y-30938373D01*
X-1634641Y-31115000D01*
X-1652037Y-31291627D01*
X-1703557Y-31461466D01*
X-1787222Y-31617991D01*
X-1802523Y-31636635D01*
X-1899814Y-31755186D01*
X-2001271Y-31838448D01*
X-2037009Y-31867778D01*
X-2193534Y-31951443D01*
X-2363373Y-32002963D01*
X-2429557Y-32009481D01*
X-2495740Y-32016000D01*
X-2584260Y-32016000D01*
X-2650443Y-32009481D01*
X-2716627Y-32002963D01*
X-2886466Y-31951443D01*
X-3042991Y-31867778D01*
X-3078729Y-31838448D01*
X-3180186Y-31755186D01*
X-3277477Y-31636635D01*
X-3292778Y-31617991D01*
X-3376443Y-31461466D01*
X-3427963Y-31291627D01*
X-3445359Y-31115000D01*
X-3427963Y-30938373D01*
X-3376443Y-30768534D01*
X-3292778Y-30612009D01*
X-3263448Y-30576271D01*
X-3180186Y-30474814D01*
X-3078729Y-30391552D01*
X-3042991Y-30362222D01*
X-2886466Y-30278557D01*
X-2716627Y-30227037D01*
X-2650442Y-30220518D01*
X-2584260Y-30214000D01*
X-2495740Y-30214000D01*
X-2429558Y-30220518D01*
X-2429558Y-30220518D01*
G37*
G36*
X-4969558Y-30220518D02*
G01*
X-4903373Y-30227037D01*
X-4733534Y-30278557D01*
X-4577009Y-30362222D01*
X-4541271Y-30391552D01*
X-4439814Y-30474814D01*
X-4356552Y-30576271D01*
X-4327222Y-30612009D01*
X-4243557Y-30768534D01*
X-4192037Y-30938373D01*
X-4174641Y-31115000D01*
X-4192037Y-31291627D01*
X-4243557Y-31461466D01*
X-4327222Y-31617991D01*
X-4342523Y-31636635D01*
X-4439814Y-31755186D01*
X-4541271Y-31838448D01*
X-4577009Y-31867778D01*
X-4733534Y-31951443D01*
X-4903373Y-32002963D01*
X-4969557Y-32009481D01*
X-5035740Y-32016000D01*
X-5124260Y-32016000D01*
X-5190443Y-32009481D01*
X-5256627Y-32002963D01*
X-5426466Y-31951443D01*
X-5582991Y-31867778D01*
X-5618729Y-31838448D01*
X-5720186Y-31755186D01*
X-5817477Y-31636635D01*
X-5832778Y-31617991D01*
X-5916443Y-31461466D01*
X-5967963Y-31291627D01*
X-5985359Y-31115000D01*
X-5967963Y-30938373D01*
X-5916443Y-30768534D01*
X-5832778Y-30612009D01*
X-5803448Y-30576271D01*
X-5720186Y-30474814D01*
X-5618729Y-30391552D01*
X-5582991Y-30362222D01*
X-5426466Y-30278557D01*
X-5256627Y-30227037D01*
X-5190442Y-30220518D01*
X-5124260Y-30214000D01*
X-5035740Y-30214000D01*
X-4969558Y-30220518D01*
X-4969558Y-30220518D01*
G37*
G36*
X-7509558Y-30220518D02*
G01*
X-7443373Y-30227037D01*
X-7273534Y-30278557D01*
X-7117009Y-30362222D01*
X-7081271Y-30391552D01*
X-6979814Y-30474814D01*
X-6896552Y-30576271D01*
X-6867222Y-30612009D01*
X-6783557Y-30768534D01*
X-6732037Y-30938373D01*
X-6714641Y-31115000D01*
X-6732037Y-31291627D01*
X-6783557Y-31461466D01*
X-6867222Y-31617991D01*
X-6882523Y-31636635D01*
X-6979814Y-31755186D01*
X-7081271Y-31838448D01*
X-7117009Y-31867778D01*
X-7273534Y-31951443D01*
X-7443373Y-32002963D01*
X-7509557Y-32009481D01*
X-7575740Y-32016000D01*
X-7664260Y-32016000D01*
X-7730443Y-32009481D01*
X-7796627Y-32002963D01*
X-7966466Y-31951443D01*
X-8122991Y-31867778D01*
X-8158729Y-31838448D01*
X-8260186Y-31755186D01*
X-8357477Y-31636635D01*
X-8372778Y-31617991D01*
X-8456443Y-31461466D01*
X-8507963Y-31291627D01*
X-8525359Y-31115000D01*
X-8507963Y-30938373D01*
X-8456443Y-30768534D01*
X-8372778Y-30612009D01*
X-8343448Y-30576271D01*
X-8260186Y-30474814D01*
X-8158729Y-30391552D01*
X-8122991Y-30362222D01*
X-7966466Y-30278557D01*
X-7796627Y-30227037D01*
X-7730442Y-30220518D01*
X-7664260Y-30214000D01*
X-7575740Y-30214000D01*
X-7509558Y-30220518D01*
X-7509558Y-30220518D01*
G37*
G36*
X-9259000Y-32016000D02*
G01*
X-11061000Y-32016000D01*
X-11061000Y-30214000D01*
X-9259000Y-30214000D01*
X-9259000Y-32016000D01*
X-9259000Y-32016000D01*
G37*
G36*
X-18304558Y-30220518D02*
G01*
X-18238373Y-30227037D01*
X-18068534Y-30278557D01*
X-17912009Y-30362222D01*
X-17876271Y-30391552D01*
X-17774814Y-30474814D01*
X-17691552Y-30576271D01*
X-17662222Y-30612009D01*
X-17578557Y-30768534D01*
X-17527037Y-30938373D01*
X-17509641Y-31115000D01*
X-17527037Y-31291627D01*
X-17578557Y-31461466D01*
X-17662222Y-31617991D01*
X-17677523Y-31636635D01*
X-17774814Y-31755186D01*
X-17876271Y-31838448D01*
X-17912009Y-31867778D01*
X-18068534Y-31951443D01*
X-18238373Y-32002963D01*
X-18304557Y-32009481D01*
X-18370740Y-32016000D01*
X-18459260Y-32016000D01*
X-18525443Y-32009481D01*
X-18591627Y-32002963D01*
X-18761466Y-31951443D01*
X-18917991Y-31867778D01*
X-18953729Y-31838448D01*
X-19055186Y-31755186D01*
X-19152477Y-31636635D01*
X-19167778Y-31617991D01*
X-19251443Y-31461466D01*
X-19302963Y-31291627D01*
X-19320359Y-31115000D01*
X-19302963Y-30938373D01*
X-19251443Y-30768534D01*
X-19167778Y-30612009D01*
X-19138448Y-30576271D01*
X-19055186Y-30474814D01*
X-18953729Y-30391552D01*
X-18917991Y-30362222D01*
X-18761466Y-30278557D01*
X-18591627Y-30227037D01*
X-18525442Y-30220518D01*
X-18459260Y-30214000D01*
X-18370740Y-30214000D01*
X-18304558Y-30220518D01*
X-18304558Y-30220518D01*
G37*
G36*
X-20844558Y-30220518D02*
G01*
X-20778373Y-30227037D01*
X-20608534Y-30278557D01*
X-20452009Y-30362222D01*
X-20416271Y-30391552D01*
X-20314814Y-30474814D01*
X-20231552Y-30576271D01*
X-20202222Y-30612009D01*
X-20118557Y-30768534D01*
X-20067037Y-30938373D01*
X-20049641Y-31115000D01*
X-20067037Y-31291627D01*
X-20118557Y-31461466D01*
X-20202222Y-31617991D01*
X-20217523Y-31636635D01*
X-20314814Y-31755186D01*
X-20416271Y-31838448D01*
X-20452009Y-31867778D01*
X-20608534Y-31951443D01*
X-20778373Y-32002963D01*
X-20844557Y-32009481D01*
X-20910740Y-32016000D01*
X-20999260Y-32016000D01*
X-21065443Y-32009481D01*
X-21131627Y-32002963D01*
X-21301466Y-31951443D01*
X-21457991Y-31867778D01*
X-21493729Y-31838448D01*
X-21595186Y-31755186D01*
X-21692477Y-31636635D01*
X-21707778Y-31617991D01*
X-21791443Y-31461466D01*
X-21842963Y-31291627D01*
X-21860359Y-31115000D01*
X-21842963Y-30938373D01*
X-21791443Y-30768534D01*
X-21707778Y-30612009D01*
X-21678448Y-30576271D01*
X-21595186Y-30474814D01*
X-21493729Y-30391552D01*
X-21457991Y-30362222D01*
X-21301466Y-30278557D01*
X-21131627Y-30227037D01*
X-21065442Y-30220518D01*
X-20999260Y-30214000D01*
X-20910740Y-30214000D01*
X-20844558Y-30220518D01*
X-20844558Y-30220518D01*
G37*
G36*
X-23384558Y-30220518D02*
G01*
X-23318373Y-30227037D01*
X-23148534Y-30278557D01*
X-22992009Y-30362222D01*
X-22956271Y-30391552D01*
X-22854814Y-30474814D01*
X-22771552Y-30576271D01*
X-22742222Y-30612009D01*
X-22658557Y-30768534D01*
X-22607037Y-30938373D01*
X-22589641Y-31115000D01*
X-22607037Y-31291627D01*
X-22658557Y-31461466D01*
X-22742222Y-31617991D01*
X-22757523Y-31636635D01*
X-22854814Y-31755186D01*
X-22956271Y-31838448D01*
X-22992009Y-31867778D01*
X-23148534Y-31951443D01*
X-23318373Y-32002963D01*
X-23384557Y-32009481D01*
X-23450740Y-32016000D01*
X-23539260Y-32016000D01*
X-23605443Y-32009481D01*
X-23671627Y-32002963D01*
X-23841466Y-31951443D01*
X-23997991Y-31867778D01*
X-24033729Y-31838448D01*
X-24135186Y-31755186D01*
X-24232477Y-31636635D01*
X-24247778Y-31617991D01*
X-24331443Y-31461466D01*
X-24382963Y-31291627D01*
X-24400359Y-31115000D01*
X-24382963Y-30938373D01*
X-24331443Y-30768534D01*
X-24247778Y-30612009D01*
X-24218448Y-30576271D01*
X-24135186Y-30474814D01*
X-24033729Y-30391552D01*
X-23997991Y-30362222D01*
X-23841466Y-30278557D01*
X-23671627Y-30227037D01*
X-23605442Y-30220518D01*
X-23539260Y-30214000D01*
X-23450740Y-30214000D01*
X-23384558Y-30220518D01*
X-23384558Y-30220518D01*
G37*
G36*
X-25134000Y-32016000D02*
G01*
X-26936000Y-32016000D01*
X-26936000Y-30214000D01*
X-25134000Y-30214000D01*
X-25134000Y-32016000D01*
X-25134000Y-32016000D01*
G37*
G36*
X14080442Y-30220518D02*
G01*
X14146627Y-30227037D01*
X14316466Y-30278557D01*
X14472991Y-30362222D01*
X14508729Y-30391552D01*
X14610186Y-30474814D01*
X14693448Y-30576271D01*
X14722778Y-30612009D01*
X14806443Y-30768534D01*
X14857963Y-30938373D01*
X14875359Y-31115000D01*
X14857963Y-31291627D01*
X14806443Y-31461466D01*
X14722778Y-31617991D01*
X14707477Y-31636635D01*
X14610186Y-31755186D01*
X14508729Y-31838448D01*
X14472991Y-31867778D01*
X14316466Y-31951443D01*
X14146627Y-32002963D01*
X14080443Y-32009481D01*
X14014260Y-32016000D01*
X13925740Y-32016000D01*
X13859557Y-32009481D01*
X13793373Y-32002963D01*
X13623534Y-31951443D01*
X13467009Y-31867778D01*
X13431271Y-31838448D01*
X13329814Y-31755186D01*
X13232523Y-31636635D01*
X13217222Y-31617991D01*
X13133557Y-31461466D01*
X13082037Y-31291627D01*
X13064641Y-31115000D01*
X13082037Y-30938373D01*
X13133557Y-30768534D01*
X13217222Y-30612009D01*
X13246552Y-30576271D01*
X13329814Y-30474814D01*
X13431271Y-30391552D01*
X13467009Y-30362222D01*
X13623534Y-30278557D01*
X13793373Y-30227037D01*
X13859558Y-30220518D01*
X13925740Y-30214000D01*
X14014260Y-30214000D01*
X14080442Y-30220518D01*
X14080442Y-30220518D01*
G37*
G36*
X11540442Y-30220518D02*
G01*
X11606627Y-30227037D01*
X11776466Y-30278557D01*
X11932991Y-30362222D01*
X11968729Y-30391552D01*
X12070186Y-30474814D01*
X12153448Y-30576271D01*
X12182778Y-30612009D01*
X12266443Y-30768534D01*
X12317963Y-30938373D01*
X12335359Y-31115000D01*
X12317963Y-31291627D01*
X12266443Y-31461466D01*
X12182778Y-31617991D01*
X12167477Y-31636635D01*
X12070186Y-31755186D01*
X11968729Y-31838448D01*
X11932991Y-31867778D01*
X11776466Y-31951443D01*
X11606627Y-32002963D01*
X11540443Y-32009481D01*
X11474260Y-32016000D01*
X11385740Y-32016000D01*
X11319557Y-32009481D01*
X11253373Y-32002963D01*
X11083534Y-31951443D01*
X10927009Y-31867778D01*
X10891271Y-31838448D01*
X10789814Y-31755186D01*
X10692523Y-31636635D01*
X10677222Y-31617991D01*
X10593557Y-31461466D01*
X10542037Y-31291627D01*
X10524641Y-31115000D01*
X10542037Y-30938373D01*
X10593557Y-30768534D01*
X10677222Y-30612009D01*
X10706552Y-30576271D01*
X10789814Y-30474814D01*
X10891271Y-30391552D01*
X10927009Y-30362222D01*
X11083534Y-30278557D01*
X11253373Y-30227037D01*
X11319558Y-30220518D01*
X11385740Y-30214000D01*
X11474260Y-30214000D01*
X11540442Y-30220518D01*
X11540442Y-30220518D01*
G37*
G36*
X-28464557Y-27045519D02*
G01*
X-28398373Y-27052037D01*
X-28228534Y-27103557D01*
X-28072009Y-27187222D01*
X-28036271Y-27216552D01*
X-27934814Y-27299814D01*
X-27851552Y-27401271D01*
X-27822222Y-27437009D01*
X-27738557Y-27593534D01*
X-27687037Y-27763373D01*
X-27669641Y-27940000D01*
X-27687037Y-28116627D01*
X-27738557Y-28286466D01*
X-27822222Y-28442991D01*
X-27851552Y-28478729D01*
X-27934814Y-28580186D01*
X-28036271Y-28663448D01*
X-28072009Y-28692778D01*
X-28228534Y-28776443D01*
X-28398373Y-28827963D01*
X-28464558Y-28834482D01*
X-28530740Y-28841000D01*
X-28619260Y-28841000D01*
X-28685442Y-28834482D01*
X-28751627Y-28827963D01*
X-28921466Y-28776443D01*
X-29077991Y-28692778D01*
X-29113729Y-28663448D01*
X-29215186Y-28580186D01*
X-29298448Y-28478729D01*
X-29327778Y-28442991D01*
X-29411443Y-28286466D01*
X-29462963Y-28116627D01*
X-29480359Y-27940000D01*
X-29462963Y-27763373D01*
X-29411443Y-27593534D01*
X-29327778Y-27437009D01*
X-29298448Y-27401271D01*
X-29215186Y-27299814D01*
X-29113729Y-27216552D01*
X-29077991Y-27187222D01*
X-28921466Y-27103557D01*
X-28751627Y-27052037D01*
X-28685443Y-27045519D01*
X-28619260Y-27039000D01*
X-28530740Y-27039000D01*
X-28464557Y-27045519D01*
X-28464557Y-27045519D01*
G37*
G36*
X-15764557Y-27045519D02*
G01*
X-15698373Y-27052037D01*
X-15528534Y-27103557D01*
X-15372009Y-27187222D01*
X-15336271Y-27216552D01*
X-15234814Y-27299814D01*
X-15151552Y-27401271D01*
X-15122222Y-27437009D01*
X-15038557Y-27593534D01*
X-14987037Y-27763373D01*
X-14969641Y-27940000D01*
X-14987037Y-28116627D01*
X-15038557Y-28286466D01*
X-15122222Y-28442991D01*
X-15151552Y-28478729D01*
X-15234814Y-28580186D01*
X-15336271Y-28663448D01*
X-15372009Y-28692778D01*
X-15528534Y-28776443D01*
X-15698373Y-28827963D01*
X-15764558Y-28834482D01*
X-15830740Y-28841000D01*
X-15919260Y-28841000D01*
X-15985442Y-28834482D01*
X-16051627Y-28827963D01*
X-16221466Y-28776443D01*
X-16377991Y-28692778D01*
X-16413729Y-28663448D01*
X-16515186Y-28580186D01*
X-16598448Y-28478729D01*
X-16627778Y-28442991D01*
X-16711443Y-28286466D01*
X-16762963Y-28116627D01*
X-16780359Y-27940000D01*
X-16762963Y-27763373D01*
X-16711443Y-27593534D01*
X-16627778Y-27437009D01*
X-16598448Y-27401271D01*
X-16515186Y-27299814D01*
X-16413729Y-27216552D01*
X-16377991Y-27187222D01*
X-16221466Y-27103557D01*
X-16051627Y-27052037D01*
X-15985443Y-27045519D01*
X-15919260Y-27039000D01*
X-15830740Y-27039000D01*
X-15764557Y-27045519D01*
X-15764557Y-27045519D01*
G37*
G36*
X-12589557Y-27045519D02*
G01*
X-12523373Y-27052037D01*
X-12353534Y-27103557D01*
X-12197009Y-27187222D01*
X-12161271Y-27216552D01*
X-12059814Y-27299814D01*
X-11976552Y-27401271D01*
X-11947222Y-27437009D01*
X-11863557Y-27593534D01*
X-11812037Y-27763373D01*
X-11794641Y-27940000D01*
X-11812037Y-28116627D01*
X-11863557Y-28286466D01*
X-11947222Y-28442991D01*
X-11976552Y-28478729D01*
X-12059814Y-28580186D01*
X-12161271Y-28663448D01*
X-12197009Y-28692778D01*
X-12353534Y-28776443D01*
X-12523373Y-28827963D01*
X-12589558Y-28834482D01*
X-12655740Y-28841000D01*
X-12744260Y-28841000D01*
X-12810442Y-28834482D01*
X-12876627Y-28827963D01*
X-13046466Y-28776443D01*
X-13202991Y-28692778D01*
X-13238729Y-28663448D01*
X-13340186Y-28580186D01*
X-13423448Y-28478729D01*
X-13452778Y-28442991D01*
X-13536443Y-28286466D01*
X-13587963Y-28116627D01*
X-13605359Y-27940000D01*
X-13587963Y-27763373D01*
X-13536443Y-27593534D01*
X-13452778Y-27437009D01*
X-13423448Y-27401271D01*
X-13340186Y-27299814D01*
X-13238729Y-27216552D01*
X-13202991Y-27187222D01*
X-13046466Y-27103557D01*
X-12876627Y-27052037D01*
X-12810443Y-27045519D01*
X-12744260Y-27039000D01*
X-12655740Y-27039000D01*
X-12589557Y-27045519D01*
X-12589557Y-27045519D01*
G37*
G36*
X110443Y-27045519D02*
G01*
X176627Y-27052037D01*
X346466Y-27103557D01*
X502991Y-27187222D01*
X538729Y-27216552D01*
X640186Y-27299814D01*
X723448Y-27401271D01*
X752778Y-27437009D01*
X836443Y-27593534D01*
X887963Y-27763373D01*
X905359Y-27940000D01*
X887963Y-28116627D01*
X836443Y-28286466D01*
X752778Y-28442991D01*
X723448Y-28478729D01*
X640186Y-28580186D01*
X538729Y-28663448D01*
X502991Y-28692778D01*
X346466Y-28776443D01*
X176627Y-28827963D01*
X110442Y-28834482D01*
X44260Y-28841000D01*
X-44260Y-28841000D01*
X-110442Y-28834482D01*
X-176627Y-28827963D01*
X-346466Y-28776443D01*
X-502991Y-28692778D01*
X-538729Y-28663448D01*
X-640186Y-28580186D01*
X-723448Y-28478729D01*
X-752778Y-28442991D01*
X-836443Y-28286466D01*
X-887963Y-28116627D01*
X-905359Y-27940000D01*
X-887963Y-27763373D01*
X-836443Y-27593534D01*
X-752778Y-27437009D01*
X-723448Y-27401271D01*
X-640186Y-27299814D01*
X-538729Y-27216552D01*
X-502991Y-27187222D01*
X-346466Y-27103557D01*
X-176627Y-27052037D01*
X-110443Y-27045519D01*
X-44260Y-27039000D01*
X44260Y-27039000D01*
X110443Y-27045519D01*
X110443Y-27045519D01*
G37*
G36*
X-39259557Y-25775519D02*
G01*
X-39193373Y-25782037D01*
X-39023534Y-25833557D01*
X-38867009Y-25917222D01*
X-38831271Y-25946552D01*
X-38729814Y-26029814D01*
X-38646552Y-26131271D01*
X-38617222Y-26167009D01*
X-38533557Y-26323534D01*
X-38482037Y-26493373D01*
X-38464641Y-26670000D01*
X-38482037Y-26846627D01*
X-38533557Y-27016466D01*
X-38617222Y-27172991D01*
X-38646552Y-27208729D01*
X-38729814Y-27310186D01*
X-38831271Y-27393448D01*
X-38867009Y-27422778D01*
X-39023534Y-27506443D01*
X-39193373Y-27557963D01*
X-39259558Y-27564482D01*
X-39325740Y-27571000D01*
X-39414260Y-27571000D01*
X-39480442Y-27564482D01*
X-39546627Y-27557963D01*
X-39716466Y-27506443D01*
X-39872991Y-27422778D01*
X-39908729Y-27393448D01*
X-40010186Y-27310186D01*
X-40093448Y-27208729D01*
X-40122778Y-27172991D01*
X-40206443Y-27016466D01*
X-40257963Y-26846627D01*
X-40275359Y-26670000D01*
X-40257963Y-26493373D01*
X-40206443Y-26323534D01*
X-40122778Y-26167009D01*
X-40093448Y-26131271D01*
X-40010186Y-26029814D01*
X-39908729Y-25946552D01*
X-39872991Y-25917222D01*
X-39716466Y-25833557D01*
X-39546627Y-25782037D01*
X-39480442Y-25775518D01*
X-39414260Y-25769000D01*
X-39325740Y-25769000D01*
X-39259557Y-25775519D01*
X-39259557Y-25775519D01*
G37*
G36*
X-28464557Y-24505519D02*
G01*
X-28398373Y-24512037D01*
X-28228534Y-24563557D01*
X-28072009Y-24647222D01*
X-28036271Y-24676552D01*
X-27934814Y-24759814D01*
X-27875700Y-24831846D01*
X-27822222Y-24897009D01*
X-27738557Y-25053534D01*
X-27687037Y-25223373D01*
X-27669641Y-25400000D01*
X-27687037Y-25576627D01*
X-27738557Y-25746466D01*
X-27822222Y-25902991D01*
X-27851552Y-25938729D01*
X-27934814Y-26040186D01*
X-28036271Y-26123448D01*
X-28072009Y-26152778D01*
X-28228534Y-26236443D01*
X-28398373Y-26287963D01*
X-28464557Y-26294481D01*
X-28530740Y-26301000D01*
X-28619260Y-26301000D01*
X-28685443Y-26294481D01*
X-28751627Y-26287963D01*
X-28921466Y-26236443D01*
X-29077991Y-26152778D01*
X-29113729Y-26123448D01*
X-29215186Y-26040186D01*
X-29298448Y-25938729D01*
X-29327778Y-25902991D01*
X-29411443Y-25746466D01*
X-29462963Y-25576627D01*
X-29480359Y-25400000D01*
X-29462963Y-25223373D01*
X-29411443Y-25053534D01*
X-29327778Y-24897009D01*
X-29274300Y-24831846D01*
X-29215186Y-24759814D01*
X-29113729Y-24676552D01*
X-29077991Y-24647222D01*
X-28921466Y-24563557D01*
X-28751627Y-24512037D01*
X-28685442Y-24505518D01*
X-28619260Y-24499000D01*
X-28530740Y-24499000D01*
X-28464557Y-24505519D01*
X-28464557Y-24505519D01*
G37*
G36*
X-15764558Y-24505518D02*
G01*
X-15698373Y-24512037D01*
X-15528534Y-24563557D01*
X-15372009Y-24647222D01*
X-15336271Y-24676552D01*
X-15234814Y-24759814D01*
X-15175700Y-24831846D01*
X-15122222Y-24897009D01*
X-15038557Y-25053534D01*
X-14987037Y-25223373D01*
X-14969641Y-25400000D01*
X-14987037Y-25576627D01*
X-15038557Y-25746466D01*
X-15122222Y-25902991D01*
X-15151552Y-25938729D01*
X-15234814Y-26040186D01*
X-15336271Y-26123448D01*
X-15372009Y-26152778D01*
X-15528534Y-26236443D01*
X-15698373Y-26287963D01*
X-15764557Y-26294481D01*
X-15830740Y-26301000D01*
X-15919260Y-26301000D01*
X-15985443Y-26294481D01*
X-16051627Y-26287963D01*
X-16221466Y-26236443D01*
X-16377991Y-26152778D01*
X-16413729Y-26123448D01*
X-16515186Y-26040186D01*
X-16598448Y-25938729D01*
X-16627778Y-25902991D01*
X-16711443Y-25746466D01*
X-16762963Y-25576627D01*
X-16780359Y-25400000D01*
X-16762963Y-25223373D01*
X-16711443Y-25053534D01*
X-16627778Y-24897009D01*
X-16574300Y-24831846D01*
X-16515186Y-24759814D01*
X-16413729Y-24676552D01*
X-16377991Y-24647222D01*
X-16221466Y-24563557D01*
X-16051627Y-24512037D01*
X-15985442Y-24505518D01*
X-15919260Y-24499000D01*
X-15830740Y-24499000D01*
X-15764558Y-24505518D01*
X-15764558Y-24505518D01*
G37*
G36*
X-12589558Y-24505518D02*
G01*
X-12523373Y-24512037D01*
X-12353534Y-24563557D01*
X-12197009Y-24647222D01*
X-12161271Y-24676552D01*
X-12059814Y-24759814D01*
X-12000700Y-24831846D01*
X-11947222Y-24897009D01*
X-11863557Y-25053534D01*
X-11812037Y-25223373D01*
X-11794641Y-25400000D01*
X-11812037Y-25576627D01*
X-11863557Y-25746466D01*
X-11947222Y-25902991D01*
X-11976552Y-25938729D01*
X-12059814Y-26040186D01*
X-12161271Y-26123448D01*
X-12197009Y-26152778D01*
X-12353534Y-26236443D01*
X-12523373Y-26287963D01*
X-12589557Y-26294481D01*
X-12655740Y-26301000D01*
X-12744260Y-26301000D01*
X-12810443Y-26294481D01*
X-12876627Y-26287963D01*
X-13046466Y-26236443D01*
X-13202991Y-26152778D01*
X-13238729Y-26123448D01*
X-13340186Y-26040186D01*
X-13423448Y-25938729D01*
X-13452778Y-25902991D01*
X-13536443Y-25746466D01*
X-13587963Y-25576627D01*
X-13605359Y-25400000D01*
X-13587963Y-25223373D01*
X-13536443Y-25053534D01*
X-13452778Y-24897009D01*
X-13399300Y-24831846D01*
X-13340186Y-24759814D01*
X-13238729Y-24676552D01*
X-13202991Y-24647222D01*
X-13046466Y-24563557D01*
X-12876627Y-24512037D01*
X-12810442Y-24505518D01*
X-12744260Y-24499000D01*
X-12655740Y-24499000D01*
X-12589558Y-24505518D01*
X-12589558Y-24505518D01*
G37*
G36*
X110442Y-24505518D02*
G01*
X176627Y-24512037D01*
X346466Y-24563557D01*
X502991Y-24647222D01*
X538729Y-24676552D01*
X640186Y-24759814D01*
X699300Y-24831846D01*
X752778Y-24897009D01*
X836443Y-25053534D01*
X887963Y-25223373D01*
X905359Y-25400000D01*
X887963Y-25576627D01*
X836443Y-25746466D01*
X752778Y-25902991D01*
X723448Y-25938729D01*
X640186Y-26040186D01*
X538729Y-26123448D01*
X502991Y-26152778D01*
X346466Y-26236443D01*
X176627Y-26287963D01*
X110443Y-26294481D01*
X44260Y-26301000D01*
X-44260Y-26301000D01*
X-110443Y-26294481D01*
X-176627Y-26287963D01*
X-346466Y-26236443D01*
X-502991Y-26152778D01*
X-538729Y-26123448D01*
X-640186Y-26040186D01*
X-723448Y-25938729D01*
X-752778Y-25902991D01*
X-836443Y-25746466D01*
X-887963Y-25576627D01*
X-905359Y-25400000D01*
X-887963Y-25223373D01*
X-836443Y-25053534D01*
X-752778Y-24897009D01*
X-699300Y-24831846D01*
X-640186Y-24759814D01*
X-538729Y-24676552D01*
X-502991Y-24647222D01*
X-346466Y-24563557D01*
X-176627Y-24512037D01*
X-110442Y-24505518D01*
X-44260Y-24499000D01*
X44260Y-24499000D01*
X110442Y-24505518D01*
X110442Y-24505518D01*
G37*
G36*
X6460442Y-24505518D02*
G01*
X6526627Y-24512037D01*
X6696466Y-24563557D01*
X6852991Y-24647222D01*
X6888729Y-24676552D01*
X6990186Y-24759814D01*
X7049300Y-24831846D01*
X7102778Y-24897009D01*
X7186443Y-25053534D01*
X7237963Y-25223373D01*
X7255359Y-25400000D01*
X7237963Y-25576627D01*
X7186443Y-25746466D01*
X7102778Y-25902991D01*
X7073448Y-25938729D01*
X6990186Y-26040186D01*
X6888729Y-26123448D01*
X6852991Y-26152778D01*
X6696466Y-26236443D01*
X6526627Y-26287963D01*
X6460443Y-26294481D01*
X6394260Y-26301000D01*
X6305740Y-26301000D01*
X6239557Y-26294481D01*
X6173373Y-26287963D01*
X6003534Y-26236443D01*
X5847009Y-26152778D01*
X5811271Y-26123448D01*
X5709814Y-26040186D01*
X5626552Y-25938729D01*
X5597222Y-25902991D01*
X5513557Y-25746466D01*
X5462037Y-25576627D01*
X5444641Y-25400000D01*
X5462037Y-25223373D01*
X5513557Y-25053534D01*
X5597222Y-24897009D01*
X5650700Y-24831846D01*
X5709814Y-24759814D01*
X5811271Y-24676552D01*
X5847009Y-24647222D01*
X6003534Y-24563557D01*
X6173373Y-24512037D01*
X6239558Y-24505518D01*
X6305740Y-24499000D01*
X6394260Y-24499000D01*
X6460442Y-24505518D01*
X6460442Y-24505518D01*
G37*
G36*
X17994794Y-23050155D02*
G01*
X18101150Y-23071311D01*
X18301520Y-23154307D01*
X18481844Y-23274795D01*
X18635205Y-23428156D01*
X18755693Y-23608480D01*
X18792128Y-23696442D01*
X18838689Y-23808850D01*
X18881000Y-24021561D01*
X18881000Y-24238439D01*
X18838689Y-24451150D01*
X18797191Y-24551334D01*
X18755693Y-24651520D01*
X18635205Y-24831844D01*
X18481844Y-24985205D01*
X18301520Y-25105693D01*
X18201334Y-25147191D01*
X18101150Y-25188689D01*
X17994794Y-25209845D01*
X17888440Y-25231000D01*
X17671560Y-25231000D01*
X17565206Y-25209845D01*
X17458850Y-25188689D01*
X17358666Y-25147191D01*
X17258480Y-25105693D01*
X17078156Y-24985205D01*
X16924795Y-24831844D01*
X16804307Y-24651520D01*
X16762809Y-24551334D01*
X16721311Y-24451150D01*
X16679000Y-24238439D01*
X16679000Y-24021561D01*
X16721311Y-23808850D01*
X16767872Y-23696442D01*
X16804307Y-23608480D01*
X16924795Y-23428156D01*
X17078156Y-23274795D01*
X17258480Y-23154307D01*
X17458850Y-23071311D01*
X17565206Y-23050155D01*
X17671560Y-23029000D01*
X17888440Y-23029000D01*
X17994794Y-23050155D01*
X17994794Y-23050155D01*
G37*
G36*
X6460443Y-21965519D02*
G01*
X6526627Y-21972037D01*
X6696466Y-22023557D01*
X6852991Y-22107222D01*
X6888729Y-22136552D01*
X6990186Y-22219814D01*
X7073448Y-22321271D01*
X7102778Y-22357009D01*
X7186443Y-22513534D01*
X7237963Y-22683373D01*
X7255359Y-22860000D01*
X7237963Y-23036627D01*
X7186443Y-23206466D01*
X7102778Y-23362991D01*
X7073448Y-23398729D01*
X6990186Y-23500186D01*
X6888729Y-23583448D01*
X6852991Y-23612778D01*
X6696466Y-23696443D01*
X6526627Y-23747963D01*
X6460442Y-23754482D01*
X6394260Y-23761000D01*
X6305740Y-23761000D01*
X6239558Y-23754482D01*
X6173373Y-23747963D01*
X6003534Y-23696443D01*
X5847009Y-23612778D01*
X5811271Y-23583448D01*
X5709814Y-23500186D01*
X5626552Y-23398729D01*
X5597222Y-23362991D01*
X5513557Y-23206466D01*
X5462037Y-23036627D01*
X5444641Y-22860000D01*
X5462037Y-22683373D01*
X5513557Y-22513534D01*
X5597222Y-22357009D01*
X5626552Y-22321271D01*
X5709814Y-22219814D01*
X5811271Y-22136552D01*
X5847009Y-22107222D01*
X6003534Y-22023557D01*
X6173373Y-21972037D01*
X6239557Y-21965519D01*
X6305740Y-21959000D01*
X6394260Y-21959000D01*
X6460443Y-21965519D01*
X6460443Y-21965519D01*
G37*
G36*
X110443Y-21965519D02*
G01*
X176627Y-21972037D01*
X346466Y-22023557D01*
X502991Y-22107222D01*
X538729Y-22136552D01*
X640186Y-22219814D01*
X723448Y-22321271D01*
X752778Y-22357009D01*
X836443Y-22513534D01*
X887963Y-22683373D01*
X905359Y-22860000D01*
X887963Y-23036627D01*
X836443Y-23206466D01*
X752778Y-23362991D01*
X723448Y-23398729D01*
X640186Y-23500186D01*
X538729Y-23583448D01*
X502991Y-23612778D01*
X346466Y-23696443D01*
X176627Y-23747963D01*
X110442Y-23754482D01*
X44260Y-23761000D01*
X-44260Y-23761000D01*
X-110442Y-23754482D01*
X-176627Y-23747963D01*
X-346466Y-23696443D01*
X-502991Y-23612778D01*
X-538729Y-23583448D01*
X-640186Y-23500186D01*
X-723448Y-23398729D01*
X-752778Y-23362991D01*
X-836443Y-23206466D01*
X-887963Y-23036627D01*
X-905359Y-22860000D01*
X-887963Y-22683373D01*
X-836443Y-22513534D01*
X-752778Y-22357009D01*
X-723448Y-22321271D01*
X-640186Y-22219814D01*
X-538729Y-22136552D01*
X-502991Y-22107222D01*
X-346466Y-22023557D01*
X-176627Y-21972037D01*
X-110443Y-21965519D01*
X-44260Y-21959000D01*
X44260Y-21959000D01*
X110443Y-21965519D01*
X110443Y-21965519D01*
G37*
G36*
X-12589557Y-21965519D02*
G01*
X-12523373Y-21972037D01*
X-12353534Y-22023557D01*
X-12197009Y-22107222D01*
X-12161271Y-22136552D01*
X-12059814Y-22219814D01*
X-11976552Y-22321271D01*
X-11947222Y-22357009D01*
X-11863557Y-22513534D01*
X-11812037Y-22683373D01*
X-11794641Y-22860000D01*
X-11812037Y-23036627D01*
X-11863557Y-23206466D01*
X-11947222Y-23362991D01*
X-11976552Y-23398729D01*
X-12059814Y-23500186D01*
X-12161271Y-23583448D01*
X-12197009Y-23612778D01*
X-12353534Y-23696443D01*
X-12523373Y-23747963D01*
X-12589558Y-23754482D01*
X-12655740Y-23761000D01*
X-12744260Y-23761000D01*
X-12810442Y-23754482D01*
X-12876627Y-23747963D01*
X-13046466Y-23696443D01*
X-13202991Y-23612778D01*
X-13238729Y-23583448D01*
X-13340186Y-23500186D01*
X-13423448Y-23398729D01*
X-13452778Y-23362991D01*
X-13536443Y-23206466D01*
X-13587963Y-23036627D01*
X-13605359Y-22860000D01*
X-13587963Y-22683373D01*
X-13536443Y-22513534D01*
X-13452778Y-22357009D01*
X-13423448Y-22321271D01*
X-13340186Y-22219814D01*
X-13238729Y-22136552D01*
X-13202991Y-22107222D01*
X-13046466Y-22023557D01*
X-12876627Y-21972037D01*
X-12810443Y-21965519D01*
X-12744260Y-21959000D01*
X-12655740Y-21959000D01*
X-12589557Y-21965519D01*
X-12589557Y-21965519D01*
G37*
G36*
X-15764557Y-21965519D02*
G01*
X-15698373Y-21972037D01*
X-15528534Y-22023557D01*
X-15372009Y-22107222D01*
X-15336271Y-22136552D01*
X-15234814Y-22219814D01*
X-15151552Y-22321271D01*
X-15122222Y-22357009D01*
X-15038557Y-22513534D01*
X-14987037Y-22683373D01*
X-14969641Y-22860000D01*
X-14987037Y-23036627D01*
X-15038557Y-23206466D01*
X-15122222Y-23362991D01*
X-15151552Y-23398729D01*
X-15234814Y-23500186D01*
X-15336271Y-23583448D01*
X-15372009Y-23612778D01*
X-15528534Y-23696443D01*
X-15698373Y-23747963D01*
X-15764558Y-23754482D01*
X-15830740Y-23761000D01*
X-15919260Y-23761000D01*
X-15985442Y-23754482D01*
X-16051627Y-23747963D01*
X-16221466Y-23696443D01*
X-16377991Y-23612778D01*
X-16413729Y-23583448D01*
X-16515186Y-23500186D01*
X-16598448Y-23398729D01*
X-16627778Y-23362991D01*
X-16711443Y-23206466D01*
X-16762963Y-23036627D01*
X-16780359Y-22860000D01*
X-16762963Y-22683373D01*
X-16711443Y-22513534D01*
X-16627778Y-22357009D01*
X-16598448Y-22321271D01*
X-16515186Y-22219814D01*
X-16413729Y-22136552D01*
X-16377991Y-22107222D01*
X-16221466Y-22023557D01*
X-16051627Y-21972037D01*
X-15985443Y-21965519D01*
X-15919260Y-21959000D01*
X-15830740Y-21959000D01*
X-15764557Y-21965519D01*
X-15764557Y-21965519D01*
G37*
G36*
X-28464557Y-21965519D02*
G01*
X-28398373Y-21972037D01*
X-28228534Y-22023557D01*
X-28072009Y-22107222D01*
X-28036271Y-22136552D01*
X-27934814Y-22219814D01*
X-27851552Y-22321271D01*
X-27822222Y-22357009D01*
X-27738557Y-22513534D01*
X-27687037Y-22683373D01*
X-27669641Y-22860000D01*
X-27687037Y-23036627D01*
X-27738557Y-23206466D01*
X-27822222Y-23362991D01*
X-27851552Y-23398729D01*
X-27934814Y-23500186D01*
X-28036271Y-23583448D01*
X-28072009Y-23612778D01*
X-28228534Y-23696443D01*
X-28398373Y-23747963D01*
X-28464558Y-23754482D01*
X-28530740Y-23761000D01*
X-28619260Y-23761000D01*
X-28685442Y-23754482D01*
X-28751627Y-23747963D01*
X-28921466Y-23696443D01*
X-29077991Y-23612778D01*
X-29113729Y-23583448D01*
X-29215186Y-23500186D01*
X-29298448Y-23398729D01*
X-29327778Y-23362991D01*
X-29411443Y-23206466D01*
X-29462963Y-23036627D01*
X-29480359Y-22860000D01*
X-29462963Y-22683373D01*
X-29411443Y-22513534D01*
X-29327778Y-22357009D01*
X-29298448Y-22321271D01*
X-29215186Y-22219814D01*
X-29113729Y-22136552D01*
X-29077991Y-22107222D01*
X-28921466Y-22023557D01*
X-28751627Y-21972037D01*
X-28685443Y-21965519D01*
X-28619260Y-21959000D01*
X-28530740Y-21959000D01*
X-28464557Y-21965519D01*
X-28464557Y-21965519D01*
G37*
G36*
X-38469000Y-22491000D02*
G01*
X-40271000Y-22491000D01*
X-40271000Y-20689000D01*
X-38469000Y-20689000D01*
X-38469000Y-22491000D01*
X-38469000Y-22491000D01*
G37*
G36*
X6460443Y-19425519D02*
G01*
X6526627Y-19432037D01*
X6696466Y-19483557D01*
X6852991Y-19567222D01*
X6888729Y-19596552D01*
X6990186Y-19679814D01*
X7073448Y-19781271D01*
X7102778Y-19817009D01*
X7186443Y-19973534D01*
X7237963Y-20143373D01*
X7255359Y-20320000D01*
X7237963Y-20496627D01*
X7186443Y-20666466D01*
X7102778Y-20822991D01*
X7073448Y-20858729D01*
X6990186Y-20960186D01*
X6888729Y-21043448D01*
X6852991Y-21072778D01*
X6696466Y-21156443D01*
X6526627Y-21207963D01*
X6460442Y-21214482D01*
X6394260Y-21221000D01*
X6305740Y-21221000D01*
X6239558Y-21214482D01*
X6173373Y-21207963D01*
X6003534Y-21156443D01*
X5847009Y-21072778D01*
X5811271Y-21043448D01*
X5709814Y-20960186D01*
X5626552Y-20858729D01*
X5597222Y-20822991D01*
X5513557Y-20666466D01*
X5462037Y-20496627D01*
X5444641Y-20320000D01*
X5462037Y-20143373D01*
X5513557Y-19973534D01*
X5597222Y-19817009D01*
X5626552Y-19781271D01*
X5709814Y-19679814D01*
X5811271Y-19596552D01*
X5847009Y-19567222D01*
X6003534Y-19483557D01*
X6173373Y-19432037D01*
X6239557Y-19425519D01*
X6305740Y-19419000D01*
X6394260Y-19419000D01*
X6460443Y-19425519D01*
X6460443Y-19425519D01*
G37*
G36*
X110443Y-19425519D02*
G01*
X176627Y-19432037D01*
X346466Y-19483557D01*
X502991Y-19567222D01*
X538729Y-19596552D01*
X640186Y-19679814D01*
X723448Y-19781271D01*
X752778Y-19817009D01*
X836443Y-19973534D01*
X887963Y-20143373D01*
X905359Y-20320000D01*
X887963Y-20496627D01*
X836443Y-20666466D01*
X752778Y-20822991D01*
X723448Y-20858729D01*
X640186Y-20960186D01*
X538729Y-21043448D01*
X502991Y-21072778D01*
X346466Y-21156443D01*
X176627Y-21207963D01*
X110442Y-21214482D01*
X44260Y-21221000D01*
X-44260Y-21221000D01*
X-110442Y-21214482D01*
X-176627Y-21207963D01*
X-346466Y-21156443D01*
X-502991Y-21072778D01*
X-538729Y-21043448D01*
X-640186Y-20960186D01*
X-723448Y-20858729D01*
X-752778Y-20822991D01*
X-836443Y-20666466D01*
X-887963Y-20496627D01*
X-905359Y-20320000D01*
X-887963Y-20143373D01*
X-836443Y-19973534D01*
X-752778Y-19817009D01*
X-723448Y-19781271D01*
X-640186Y-19679814D01*
X-538729Y-19596552D01*
X-502991Y-19567222D01*
X-346466Y-19483557D01*
X-176627Y-19432037D01*
X-110443Y-19425519D01*
X-44260Y-19419000D01*
X44260Y-19419000D01*
X110443Y-19425519D01*
X110443Y-19425519D01*
G37*
G36*
X-12589557Y-19425519D02*
G01*
X-12523373Y-19432037D01*
X-12353534Y-19483557D01*
X-12197009Y-19567222D01*
X-12161271Y-19596552D01*
X-12059814Y-19679814D01*
X-11976552Y-19781271D01*
X-11947222Y-19817009D01*
X-11863557Y-19973534D01*
X-11812037Y-20143373D01*
X-11794641Y-20320000D01*
X-11812037Y-20496627D01*
X-11863557Y-20666466D01*
X-11947222Y-20822991D01*
X-11976552Y-20858729D01*
X-12059814Y-20960186D01*
X-12161271Y-21043448D01*
X-12197009Y-21072778D01*
X-12353534Y-21156443D01*
X-12523373Y-21207963D01*
X-12589558Y-21214482D01*
X-12655740Y-21221000D01*
X-12744260Y-21221000D01*
X-12810442Y-21214482D01*
X-12876627Y-21207963D01*
X-13046466Y-21156443D01*
X-13202991Y-21072778D01*
X-13238729Y-21043448D01*
X-13340186Y-20960186D01*
X-13423448Y-20858729D01*
X-13452778Y-20822991D01*
X-13536443Y-20666466D01*
X-13587963Y-20496627D01*
X-13605359Y-20320000D01*
X-13587963Y-20143373D01*
X-13536443Y-19973534D01*
X-13452778Y-19817009D01*
X-13423448Y-19781271D01*
X-13340186Y-19679814D01*
X-13238729Y-19596552D01*
X-13202991Y-19567222D01*
X-13046466Y-19483557D01*
X-12876627Y-19432037D01*
X-12810443Y-19425519D01*
X-12744260Y-19419000D01*
X-12655740Y-19419000D01*
X-12589557Y-19425519D01*
X-12589557Y-19425519D01*
G37*
G36*
X-15764557Y-19425519D02*
G01*
X-15698373Y-19432037D01*
X-15528534Y-19483557D01*
X-15372009Y-19567222D01*
X-15336271Y-19596552D01*
X-15234814Y-19679814D01*
X-15151552Y-19781271D01*
X-15122222Y-19817009D01*
X-15038557Y-19973534D01*
X-14987037Y-20143373D01*
X-14969641Y-20320000D01*
X-14987037Y-20496627D01*
X-15038557Y-20666466D01*
X-15122222Y-20822991D01*
X-15151552Y-20858729D01*
X-15234814Y-20960186D01*
X-15336271Y-21043448D01*
X-15372009Y-21072778D01*
X-15528534Y-21156443D01*
X-15698373Y-21207963D01*
X-15764558Y-21214482D01*
X-15830740Y-21221000D01*
X-15919260Y-21221000D01*
X-15985442Y-21214482D01*
X-16051627Y-21207963D01*
X-16221466Y-21156443D01*
X-16377991Y-21072778D01*
X-16413729Y-21043448D01*
X-16515186Y-20960186D01*
X-16598448Y-20858729D01*
X-16627778Y-20822991D01*
X-16711443Y-20666466D01*
X-16762963Y-20496627D01*
X-16780359Y-20320000D01*
X-16762963Y-20143373D01*
X-16711443Y-19973534D01*
X-16627778Y-19817009D01*
X-16598448Y-19781271D01*
X-16515186Y-19679814D01*
X-16413729Y-19596552D01*
X-16377991Y-19567222D01*
X-16221466Y-19483557D01*
X-16051627Y-19432037D01*
X-15985443Y-19425519D01*
X-15919260Y-19419000D01*
X-15830740Y-19419000D01*
X-15764557Y-19425519D01*
X-15764557Y-19425519D01*
G37*
G36*
X-28464557Y-19425519D02*
G01*
X-28398373Y-19432037D01*
X-28228534Y-19483557D01*
X-28072009Y-19567222D01*
X-28036271Y-19596552D01*
X-27934814Y-19679814D01*
X-27851552Y-19781271D01*
X-27822222Y-19817009D01*
X-27738557Y-19973534D01*
X-27687037Y-20143373D01*
X-27669641Y-20320000D01*
X-27687037Y-20496627D01*
X-27738557Y-20666466D01*
X-27822222Y-20822991D01*
X-27851552Y-20858729D01*
X-27934814Y-20960186D01*
X-28036271Y-21043448D01*
X-28072009Y-21072778D01*
X-28228534Y-21156443D01*
X-28398373Y-21207963D01*
X-28464558Y-21214482D01*
X-28530740Y-21221000D01*
X-28619260Y-21221000D01*
X-28685442Y-21214482D01*
X-28751627Y-21207963D01*
X-28921466Y-21156443D01*
X-29077991Y-21072778D01*
X-29113729Y-21043448D01*
X-29215186Y-20960186D01*
X-29298448Y-20858729D01*
X-29327778Y-20822991D01*
X-29411443Y-20666466D01*
X-29462963Y-20496627D01*
X-29480359Y-20320000D01*
X-29462963Y-20143373D01*
X-29411443Y-19973534D01*
X-29327778Y-19817009D01*
X-29298448Y-19781271D01*
X-29215186Y-19679814D01*
X-29113729Y-19596552D01*
X-29077991Y-19567222D01*
X-28921466Y-19483557D01*
X-28751627Y-19432037D01*
X-28685443Y-19425519D01*
X-28619260Y-19419000D01*
X-28530740Y-19419000D01*
X-28464557Y-19425519D01*
X-28464557Y-19425519D01*
G37*
G36*
X-12589557Y-16885519D02*
G01*
X-12523373Y-16892037D01*
X-12353534Y-16943557D01*
X-12197009Y-17027222D01*
X-12161271Y-17056552D01*
X-12059814Y-17139814D01*
X-11976552Y-17241271D01*
X-11947222Y-17277009D01*
X-11863557Y-17433534D01*
X-11812037Y-17603373D01*
X-11794641Y-17780000D01*
X-11812037Y-17956627D01*
X-11863557Y-18126466D01*
X-11947222Y-18282991D01*
X-11976552Y-18318729D01*
X-12059814Y-18420186D01*
X-12161271Y-18503448D01*
X-12197009Y-18532778D01*
X-12353534Y-18616443D01*
X-12523373Y-18667963D01*
X-12589557Y-18674481D01*
X-12655740Y-18681000D01*
X-12744260Y-18681000D01*
X-12810443Y-18674481D01*
X-12876627Y-18667963D01*
X-13046466Y-18616443D01*
X-13202991Y-18532778D01*
X-13238729Y-18503448D01*
X-13340186Y-18420186D01*
X-13423448Y-18318729D01*
X-13452778Y-18282991D01*
X-13536443Y-18126466D01*
X-13587963Y-17956627D01*
X-13605359Y-17780000D01*
X-13587963Y-17603373D01*
X-13536443Y-17433534D01*
X-13452778Y-17277009D01*
X-13423448Y-17241271D01*
X-13340186Y-17139814D01*
X-13238729Y-17056552D01*
X-13202991Y-17027222D01*
X-13046466Y-16943557D01*
X-12876627Y-16892037D01*
X-12810443Y-16885519D01*
X-12744260Y-16879000D01*
X-12655740Y-16879000D01*
X-12589557Y-16885519D01*
X-12589557Y-16885519D01*
G37*
G36*
X110443Y-16885519D02*
G01*
X176627Y-16892037D01*
X346466Y-16943557D01*
X502991Y-17027222D01*
X538729Y-17056552D01*
X640186Y-17139814D01*
X723448Y-17241271D01*
X752778Y-17277009D01*
X836443Y-17433534D01*
X887963Y-17603373D01*
X905359Y-17780000D01*
X887963Y-17956627D01*
X836443Y-18126466D01*
X752778Y-18282991D01*
X723448Y-18318729D01*
X640186Y-18420186D01*
X538729Y-18503448D01*
X502991Y-18532778D01*
X346466Y-18616443D01*
X176627Y-18667963D01*
X110443Y-18674481D01*
X44260Y-18681000D01*
X-44260Y-18681000D01*
X-110443Y-18674481D01*
X-176627Y-18667963D01*
X-346466Y-18616443D01*
X-502991Y-18532778D01*
X-538729Y-18503448D01*
X-640186Y-18420186D01*
X-723448Y-18318729D01*
X-752778Y-18282991D01*
X-836443Y-18126466D01*
X-887963Y-17956627D01*
X-905359Y-17780000D01*
X-887963Y-17603373D01*
X-836443Y-17433534D01*
X-752778Y-17277009D01*
X-723448Y-17241271D01*
X-640186Y-17139814D01*
X-538729Y-17056552D01*
X-502991Y-17027222D01*
X-346466Y-16943557D01*
X-176627Y-16892037D01*
X-110443Y-16885519D01*
X-44260Y-16879000D01*
X44260Y-16879000D01*
X110443Y-16885519D01*
X110443Y-16885519D01*
G37*
G36*
X-15764557Y-16885519D02*
G01*
X-15698373Y-16892037D01*
X-15528534Y-16943557D01*
X-15372009Y-17027222D01*
X-15336271Y-17056552D01*
X-15234814Y-17139814D01*
X-15151552Y-17241271D01*
X-15122222Y-17277009D01*
X-15038557Y-17433534D01*
X-14987037Y-17603373D01*
X-14969641Y-17780000D01*
X-14987037Y-17956627D01*
X-15038557Y-18126466D01*
X-15122222Y-18282991D01*
X-15151552Y-18318729D01*
X-15234814Y-18420186D01*
X-15336271Y-18503448D01*
X-15372009Y-18532778D01*
X-15528534Y-18616443D01*
X-15698373Y-18667963D01*
X-15764557Y-18674481D01*
X-15830740Y-18681000D01*
X-15919260Y-18681000D01*
X-15985443Y-18674481D01*
X-16051627Y-18667963D01*
X-16221466Y-18616443D01*
X-16377991Y-18532778D01*
X-16413729Y-18503448D01*
X-16515186Y-18420186D01*
X-16598448Y-18318729D01*
X-16627778Y-18282991D01*
X-16711443Y-18126466D01*
X-16762963Y-17956627D01*
X-16780359Y-17780000D01*
X-16762963Y-17603373D01*
X-16711443Y-17433534D01*
X-16627778Y-17277009D01*
X-16598448Y-17241271D01*
X-16515186Y-17139814D01*
X-16413729Y-17056552D01*
X-16377991Y-17027222D01*
X-16221466Y-16943557D01*
X-16051627Y-16892037D01*
X-15985443Y-16885519D01*
X-15919260Y-16879000D01*
X-15830740Y-16879000D01*
X-15764557Y-16885519D01*
X-15764557Y-16885519D01*
G37*
G36*
X-28464557Y-16885519D02*
G01*
X-28398373Y-16892037D01*
X-28228534Y-16943557D01*
X-28072009Y-17027222D01*
X-28036271Y-17056552D01*
X-27934814Y-17139814D01*
X-27851552Y-17241271D01*
X-27822222Y-17277009D01*
X-27738557Y-17433534D01*
X-27687037Y-17603373D01*
X-27669641Y-17780000D01*
X-27687037Y-17956627D01*
X-27738557Y-18126466D01*
X-27822222Y-18282991D01*
X-27851552Y-18318729D01*
X-27934814Y-18420186D01*
X-28036271Y-18503448D01*
X-28072009Y-18532778D01*
X-28228534Y-18616443D01*
X-28398373Y-18667963D01*
X-28464557Y-18674481D01*
X-28530740Y-18681000D01*
X-28619260Y-18681000D01*
X-28685443Y-18674481D01*
X-28751627Y-18667963D01*
X-28921466Y-18616443D01*
X-29077991Y-18532778D01*
X-29113729Y-18503448D01*
X-29215186Y-18420186D01*
X-29298448Y-18318729D01*
X-29327778Y-18282991D01*
X-29411443Y-18126466D01*
X-29462963Y-17956627D01*
X-29480359Y-17780000D01*
X-29462963Y-17603373D01*
X-29411443Y-17433534D01*
X-29327778Y-17277009D01*
X-29298448Y-17241271D01*
X-29215186Y-17139814D01*
X-29113729Y-17056552D01*
X-29077991Y-17027222D01*
X-28921466Y-16943557D01*
X-28751627Y-16892037D01*
X-28685443Y-16885519D01*
X-28619260Y-16879000D01*
X-28530740Y-16879000D01*
X-28464557Y-16885519D01*
X-28464557Y-16885519D01*
G37*
G36*
X6460443Y-16885519D02*
G01*
X6526627Y-16892037D01*
X6696466Y-16943557D01*
X6852991Y-17027222D01*
X6888729Y-17056552D01*
X6990186Y-17139814D01*
X7073448Y-17241271D01*
X7102778Y-17277009D01*
X7186443Y-17433534D01*
X7237963Y-17603373D01*
X7255359Y-17780000D01*
X7237963Y-17956627D01*
X7186443Y-18126466D01*
X7102778Y-18282991D01*
X7073448Y-18318729D01*
X6990186Y-18420186D01*
X6888729Y-18503448D01*
X6852991Y-18532778D01*
X6696466Y-18616443D01*
X6526627Y-18667963D01*
X6460443Y-18674481D01*
X6394260Y-18681000D01*
X6305740Y-18681000D01*
X6239557Y-18674481D01*
X6173373Y-18667963D01*
X6003534Y-18616443D01*
X5847009Y-18532778D01*
X5811271Y-18503448D01*
X5709814Y-18420186D01*
X5626552Y-18318729D01*
X5597222Y-18282991D01*
X5513557Y-18126466D01*
X5462037Y-17956627D01*
X5444641Y-17780000D01*
X5462037Y-17603373D01*
X5513557Y-17433534D01*
X5597222Y-17277009D01*
X5626552Y-17241271D01*
X5709814Y-17139814D01*
X5811271Y-17056552D01*
X5847009Y-17027222D01*
X6003534Y-16943557D01*
X6173373Y-16892037D01*
X6239557Y-16885519D01*
X6305740Y-16879000D01*
X6394260Y-16879000D01*
X6460443Y-16885519D01*
X6460443Y-16885519D01*
G37*
G36*
X-39259558Y-15615518D02*
G01*
X-39193373Y-15622037D01*
X-39023534Y-15673557D01*
X-38867009Y-15757222D01*
X-38831271Y-15786552D01*
X-38729814Y-15869814D01*
X-38646552Y-15971271D01*
X-38617222Y-16007009D01*
X-38533557Y-16163534D01*
X-38482037Y-16333373D01*
X-38464641Y-16510000D01*
X-38482037Y-16686627D01*
X-38533557Y-16856466D01*
X-38617222Y-17012991D01*
X-38646552Y-17048729D01*
X-38729814Y-17150186D01*
X-38831271Y-17233448D01*
X-38867009Y-17262778D01*
X-39023534Y-17346443D01*
X-39193373Y-17397963D01*
X-39259558Y-17404482D01*
X-39325740Y-17411000D01*
X-39414260Y-17411000D01*
X-39480442Y-17404482D01*
X-39546627Y-17397963D01*
X-39716466Y-17346443D01*
X-39872991Y-17262778D01*
X-39908729Y-17233448D01*
X-40010186Y-17150186D01*
X-40093448Y-17048729D01*
X-40122778Y-17012991D01*
X-40206443Y-16856466D01*
X-40257963Y-16686627D01*
X-40275359Y-16510000D01*
X-40257963Y-16333373D01*
X-40206443Y-16163534D01*
X-40122778Y-16007009D01*
X-40093448Y-15971271D01*
X-40010186Y-15869814D01*
X-39908729Y-15786552D01*
X-39872991Y-15757222D01*
X-39716466Y-15673557D01*
X-39546627Y-15622037D01*
X-39480442Y-15615518D01*
X-39414260Y-15609000D01*
X-39325740Y-15609000D01*
X-39259558Y-15615518D01*
X-39259558Y-15615518D01*
G37*
G36*
X6460443Y-14345519D02*
G01*
X6526627Y-14352037D01*
X6696466Y-14403557D01*
X6852991Y-14487222D01*
X6888729Y-14516552D01*
X6990186Y-14599814D01*
X7073448Y-14701271D01*
X7102778Y-14737009D01*
X7186443Y-14893534D01*
X7237963Y-15063373D01*
X7255359Y-15240000D01*
X7237963Y-15416627D01*
X7186443Y-15586466D01*
X7102778Y-15742991D01*
X7073448Y-15778729D01*
X6990186Y-15880186D01*
X6888729Y-15963448D01*
X6852991Y-15992778D01*
X6696466Y-16076443D01*
X6526627Y-16127963D01*
X6460443Y-16134481D01*
X6394260Y-16141000D01*
X6305740Y-16141000D01*
X6239557Y-16134481D01*
X6173373Y-16127963D01*
X6003534Y-16076443D01*
X5847009Y-15992778D01*
X5811271Y-15963448D01*
X5709814Y-15880186D01*
X5626552Y-15778729D01*
X5597222Y-15742991D01*
X5513557Y-15586466D01*
X5462037Y-15416627D01*
X5444641Y-15240000D01*
X5462037Y-15063373D01*
X5513557Y-14893534D01*
X5597222Y-14737009D01*
X5626552Y-14701271D01*
X5709814Y-14599814D01*
X5811271Y-14516552D01*
X5847009Y-14487222D01*
X6003534Y-14403557D01*
X6173373Y-14352037D01*
X6239557Y-14345519D01*
X6305740Y-14339000D01*
X6394260Y-14339000D01*
X6460443Y-14345519D01*
X6460443Y-14345519D01*
G37*
G36*
X110443Y-14345519D02*
G01*
X176627Y-14352037D01*
X346466Y-14403557D01*
X502991Y-14487222D01*
X538729Y-14516552D01*
X640186Y-14599814D01*
X723448Y-14701271D01*
X752778Y-14737009D01*
X836443Y-14893534D01*
X887963Y-15063373D01*
X905359Y-15240000D01*
X887963Y-15416627D01*
X836443Y-15586466D01*
X752778Y-15742991D01*
X723448Y-15778729D01*
X640186Y-15880186D01*
X538729Y-15963448D01*
X502991Y-15992778D01*
X346466Y-16076443D01*
X176627Y-16127963D01*
X110443Y-16134481D01*
X44260Y-16141000D01*
X-44260Y-16141000D01*
X-110443Y-16134481D01*
X-176627Y-16127963D01*
X-346466Y-16076443D01*
X-502991Y-15992778D01*
X-538729Y-15963448D01*
X-640186Y-15880186D01*
X-723448Y-15778729D01*
X-752778Y-15742991D01*
X-836443Y-15586466D01*
X-887963Y-15416627D01*
X-905359Y-15240000D01*
X-887963Y-15063373D01*
X-836443Y-14893534D01*
X-752778Y-14737009D01*
X-723448Y-14701271D01*
X-640186Y-14599814D01*
X-538729Y-14516552D01*
X-502991Y-14487222D01*
X-346466Y-14403557D01*
X-176627Y-14352037D01*
X-110443Y-14345519D01*
X-44260Y-14339000D01*
X44260Y-14339000D01*
X110443Y-14345519D01*
X110443Y-14345519D01*
G37*
G36*
X-12589557Y-14345519D02*
G01*
X-12523373Y-14352037D01*
X-12353534Y-14403557D01*
X-12197009Y-14487222D01*
X-12161271Y-14516552D01*
X-12059814Y-14599814D01*
X-11976552Y-14701271D01*
X-11947222Y-14737009D01*
X-11863557Y-14893534D01*
X-11812037Y-15063373D01*
X-11794641Y-15240000D01*
X-11812037Y-15416627D01*
X-11863557Y-15586466D01*
X-11947222Y-15742991D01*
X-11976552Y-15778729D01*
X-12059814Y-15880186D01*
X-12161271Y-15963448D01*
X-12197009Y-15992778D01*
X-12353534Y-16076443D01*
X-12523373Y-16127963D01*
X-12589557Y-16134481D01*
X-12655740Y-16141000D01*
X-12744260Y-16141000D01*
X-12810443Y-16134481D01*
X-12876627Y-16127963D01*
X-13046466Y-16076443D01*
X-13202991Y-15992778D01*
X-13238729Y-15963448D01*
X-13340186Y-15880186D01*
X-13423448Y-15778729D01*
X-13452778Y-15742991D01*
X-13536443Y-15586466D01*
X-13587963Y-15416627D01*
X-13605359Y-15240000D01*
X-13587963Y-15063373D01*
X-13536443Y-14893534D01*
X-13452778Y-14737009D01*
X-13423448Y-14701271D01*
X-13340186Y-14599814D01*
X-13238729Y-14516552D01*
X-13202991Y-14487222D01*
X-13046466Y-14403557D01*
X-12876627Y-14352037D01*
X-12810443Y-14345519D01*
X-12744260Y-14339000D01*
X-12655740Y-14339000D01*
X-12589557Y-14345519D01*
X-12589557Y-14345519D01*
G37*
G36*
X-15764557Y-14345519D02*
G01*
X-15698373Y-14352037D01*
X-15528534Y-14403557D01*
X-15372009Y-14487222D01*
X-15336271Y-14516552D01*
X-15234814Y-14599814D01*
X-15151552Y-14701271D01*
X-15122222Y-14737009D01*
X-15038557Y-14893534D01*
X-14987037Y-15063373D01*
X-14969641Y-15240000D01*
X-14987037Y-15416627D01*
X-15038557Y-15586466D01*
X-15122222Y-15742991D01*
X-15151552Y-15778729D01*
X-15234814Y-15880186D01*
X-15336271Y-15963448D01*
X-15372009Y-15992778D01*
X-15528534Y-16076443D01*
X-15698373Y-16127963D01*
X-15764557Y-16134481D01*
X-15830740Y-16141000D01*
X-15919260Y-16141000D01*
X-15985443Y-16134481D01*
X-16051627Y-16127963D01*
X-16221466Y-16076443D01*
X-16377991Y-15992778D01*
X-16413729Y-15963448D01*
X-16515186Y-15880186D01*
X-16598448Y-15778729D01*
X-16627778Y-15742991D01*
X-16711443Y-15586466D01*
X-16762963Y-15416627D01*
X-16780359Y-15240000D01*
X-16762963Y-15063373D01*
X-16711443Y-14893534D01*
X-16627778Y-14737009D01*
X-16598448Y-14701271D01*
X-16515186Y-14599814D01*
X-16413729Y-14516552D01*
X-16377991Y-14487222D01*
X-16221466Y-14403557D01*
X-16051627Y-14352037D01*
X-15985443Y-14345519D01*
X-15919260Y-14339000D01*
X-15830740Y-14339000D01*
X-15764557Y-14345519D01*
X-15764557Y-14345519D01*
G37*
G36*
X-28464557Y-14345519D02*
G01*
X-28398373Y-14352037D01*
X-28228534Y-14403557D01*
X-28072009Y-14487222D01*
X-28036271Y-14516552D01*
X-27934814Y-14599814D01*
X-27851552Y-14701271D01*
X-27822222Y-14737009D01*
X-27738557Y-14893534D01*
X-27687037Y-15063373D01*
X-27669641Y-15240000D01*
X-27687037Y-15416627D01*
X-27738557Y-15586466D01*
X-27822222Y-15742991D01*
X-27851552Y-15778729D01*
X-27934814Y-15880186D01*
X-28036271Y-15963448D01*
X-28072009Y-15992778D01*
X-28228534Y-16076443D01*
X-28398373Y-16127963D01*
X-28464557Y-16134481D01*
X-28530740Y-16141000D01*
X-28619260Y-16141000D01*
X-28685443Y-16134481D01*
X-28751627Y-16127963D01*
X-28921466Y-16076443D01*
X-29077991Y-15992778D01*
X-29113729Y-15963448D01*
X-29215186Y-15880186D01*
X-29298448Y-15778729D01*
X-29327778Y-15742991D01*
X-29411443Y-15586466D01*
X-29462963Y-15416627D01*
X-29480359Y-15240000D01*
X-29462963Y-15063373D01*
X-29411443Y-14893534D01*
X-29327778Y-14737009D01*
X-29298448Y-14701271D01*
X-29215186Y-14599814D01*
X-29113729Y-14516552D01*
X-29077991Y-14487222D01*
X-28921466Y-14403557D01*
X-28751627Y-14352037D01*
X-28685443Y-14345519D01*
X-28619260Y-14339000D01*
X-28530740Y-14339000D01*
X-28464557Y-14345519D01*
X-28464557Y-14345519D01*
G37*
G36*
X110443Y-11805519D02*
G01*
X176627Y-11812037D01*
X346466Y-11863557D01*
X502991Y-11947222D01*
X538729Y-11976552D01*
X640186Y-12059814D01*
X723448Y-12161271D01*
X752778Y-12197009D01*
X836443Y-12353534D01*
X887963Y-12523373D01*
X905359Y-12700000D01*
X887963Y-12876627D01*
X836443Y-13046466D01*
X752778Y-13202991D01*
X723448Y-13238729D01*
X640186Y-13340186D01*
X538729Y-13423448D01*
X502991Y-13452778D01*
X346466Y-13536443D01*
X176627Y-13587963D01*
X110443Y-13594481D01*
X44260Y-13601000D01*
X-44260Y-13601000D01*
X-110443Y-13594481D01*
X-176627Y-13587963D01*
X-346466Y-13536443D01*
X-502991Y-13452778D01*
X-538729Y-13423448D01*
X-640186Y-13340186D01*
X-723448Y-13238729D01*
X-752778Y-13202991D01*
X-836443Y-13046466D01*
X-887963Y-12876627D01*
X-905359Y-12700000D01*
X-887963Y-12523373D01*
X-836443Y-12353534D01*
X-752778Y-12197009D01*
X-723448Y-12161271D01*
X-640186Y-12059814D01*
X-538729Y-11976552D01*
X-502991Y-11947222D01*
X-346466Y-11863557D01*
X-176627Y-11812037D01*
X-110443Y-11805519D01*
X-44260Y-11799000D01*
X44260Y-11799000D01*
X110443Y-11805519D01*
X110443Y-11805519D01*
G37*
G36*
X6460443Y-11805519D02*
G01*
X6526627Y-11812037D01*
X6696466Y-11863557D01*
X6852991Y-11947222D01*
X6888729Y-11976552D01*
X6990186Y-12059814D01*
X7073448Y-12161271D01*
X7102778Y-12197009D01*
X7186443Y-12353534D01*
X7237963Y-12523373D01*
X7255359Y-12700000D01*
X7237963Y-12876627D01*
X7186443Y-13046466D01*
X7102778Y-13202991D01*
X7073448Y-13238729D01*
X6990186Y-13340186D01*
X6888729Y-13423448D01*
X6852991Y-13452778D01*
X6696466Y-13536443D01*
X6526627Y-13587963D01*
X6460443Y-13594481D01*
X6394260Y-13601000D01*
X6305740Y-13601000D01*
X6239557Y-13594481D01*
X6173373Y-13587963D01*
X6003534Y-13536443D01*
X5847009Y-13452778D01*
X5811271Y-13423448D01*
X5709814Y-13340186D01*
X5626552Y-13238729D01*
X5597222Y-13202991D01*
X5513557Y-13046466D01*
X5462037Y-12876627D01*
X5444641Y-12700000D01*
X5462037Y-12523373D01*
X5513557Y-12353534D01*
X5597222Y-12197009D01*
X5626552Y-12161271D01*
X5709814Y-12059814D01*
X5811271Y-11976552D01*
X5847009Y-11947222D01*
X6003534Y-11863557D01*
X6173373Y-11812037D01*
X6239557Y-11805519D01*
X6305740Y-11799000D01*
X6394260Y-11799000D01*
X6460443Y-11805519D01*
X6460443Y-11805519D01*
G37*
G36*
X-12589557Y-11805519D02*
G01*
X-12523373Y-11812037D01*
X-12353534Y-11863557D01*
X-12197009Y-11947222D01*
X-12161271Y-11976552D01*
X-12059814Y-12059814D01*
X-11976552Y-12161271D01*
X-11947222Y-12197009D01*
X-11863557Y-12353534D01*
X-11812037Y-12523373D01*
X-11794641Y-12700000D01*
X-11812037Y-12876627D01*
X-11863557Y-13046466D01*
X-11947222Y-13202991D01*
X-11976552Y-13238729D01*
X-12059814Y-13340186D01*
X-12161271Y-13423448D01*
X-12197009Y-13452778D01*
X-12353534Y-13536443D01*
X-12523373Y-13587963D01*
X-12589557Y-13594481D01*
X-12655740Y-13601000D01*
X-12744260Y-13601000D01*
X-12810443Y-13594481D01*
X-12876627Y-13587963D01*
X-13046466Y-13536443D01*
X-13202991Y-13452778D01*
X-13238729Y-13423448D01*
X-13340186Y-13340186D01*
X-13423448Y-13238729D01*
X-13452778Y-13202991D01*
X-13536443Y-13046466D01*
X-13587963Y-12876627D01*
X-13605359Y-12700000D01*
X-13587963Y-12523373D01*
X-13536443Y-12353534D01*
X-13452778Y-12197009D01*
X-13423448Y-12161271D01*
X-13340186Y-12059814D01*
X-13238729Y-11976552D01*
X-13202991Y-11947222D01*
X-13046466Y-11863557D01*
X-12876627Y-11812037D01*
X-12810443Y-11805519D01*
X-12744260Y-11799000D01*
X-12655740Y-11799000D01*
X-12589557Y-11805519D01*
X-12589557Y-11805519D01*
G37*
G36*
X-15764557Y-11805519D02*
G01*
X-15698373Y-11812037D01*
X-15528534Y-11863557D01*
X-15372009Y-11947222D01*
X-15336271Y-11976552D01*
X-15234814Y-12059814D01*
X-15151552Y-12161271D01*
X-15122222Y-12197009D01*
X-15038557Y-12353534D01*
X-14987037Y-12523373D01*
X-14969641Y-12700000D01*
X-14987037Y-12876627D01*
X-15038557Y-13046466D01*
X-15122222Y-13202991D01*
X-15151552Y-13238729D01*
X-15234814Y-13340186D01*
X-15336271Y-13423448D01*
X-15372009Y-13452778D01*
X-15528534Y-13536443D01*
X-15698373Y-13587963D01*
X-15764557Y-13594481D01*
X-15830740Y-13601000D01*
X-15919260Y-13601000D01*
X-15985443Y-13594481D01*
X-16051627Y-13587963D01*
X-16221466Y-13536443D01*
X-16377991Y-13452778D01*
X-16413729Y-13423448D01*
X-16515186Y-13340186D01*
X-16598448Y-13238729D01*
X-16627778Y-13202991D01*
X-16711443Y-13046466D01*
X-16762963Y-12876627D01*
X-16780359Y-12700000D01*
X-16762963Y-12523373D01*
X-16711443Y-12353534D01*
X-16627778Y-12197009D01*
X-16598448Y-12161271D01*
X-16515186Y-12059814D01*
X-16413729Y-11976552D01*
X-16377991Y-11947222D01*
X-16221466Y-11863557D01*
X-16051627Y-11812037D01*
X-15985443Y-11805519D01*
X-15919260Y-11799000D01*
X-15830740Y-11799000D01*
X-15764557Y-11805519D01*
X-15764557Y-11805519D01*
G37*
G36*
X-28464557Y-11805519D02*
G01*
X-28398373Y-11812037D01*
X-28228534Y-11863557D01*
X-28072009Y-11947222D01*
X-28036271Y-11976552D01*
X-27934814Y-12059814D01*
X-27851552Y-12161271D01*
X-27822222Y-12197009D01*
X-27738557Y-12353534D01*
X-27687037Y-12523373D01*
X-27669641Y-12700000D01*
X-27687037Y-12876627D01*
X-27738557Y-13046466D01*
X-27822222Y-13202991D01*
X-27851552Y-13238729D01*
X-27934814Y-13340186D01*
X-28036271Y-13423448D01*
X-28072009Y-13452778D01*
X-28228534Y-13536443D01*
X-28398373Y-13587963D01*
X-28464557Y-13594481D01*
X-28530740Y-13601000D01*
X-28619260Y-13601000D01*
X-28685443Y-13594481D01*
X-28751627Y-13587963D01*
X-28921466Y-13536443D01*
X-29077991Y-13452778D01*
X-29113729Y-13423448D01*
X-29215186Y-13340186D01*
X-29298448Y-13238729D01*
X-29327778Y-13202991D01*
X-29411443Y-13046466D01*
X-29462963Y-12876627D01*
X-29480359Y-12700000D01*
X-29462963Y-12523373D01*
X-29411443Y-12353534D01*
X-29327778Y-12197009D01*
X-29298448Y-12161271D01*
X-29215186Y-12059814D01*
X-29113729Y-11976552D01*
X-29077991Y-11947222D01*
X-28921466Y-11863557D01*
X-28751627Y-11812037D01*
X-28685443Y-11805519D01*
X-28619260Y-11799000D01*
X-28530740Y-11799000D01*
X-28464557Y-11805519D01*
X-28464557Y-11805519D01*
G37*
G36*
X-38469000Y-12331000D02*
G01*
X-40271000Y-12331000D01*
X-40271000Y-10529000D01*
X-38469000Y-10529000D01*
X-38469000Y-12331000D01*
X-38469000Y-12331000D01*
G37*
G36*
X6460442Y-9265518D02*
G01*
X6526627Y-9272037D01*
X6696466Y-9323557D01*
X6852991Y-9407222D01*
X6888729Y-9436552D01*
X6990186Y-9519814D01*
X7049300Y-9591846D01*
X7102778Y-9657009D01*
X7186443Y-9813534D01*
X7237963Y-9983373D01*
X7255359Y-10160000D01*
X7237963Y-10336627D01*
X7186443Y-10506466D01*
X7102778Y-10662991D01*
X7073448Y-10698729D01*
X6990186Y-10800186D01*
X6888729Y-10883448D01*
X6852991Y-10912778D01*
X6696466Y-10996443D01*
X6526627Y-11047963D01*
X6460443Y-11054481D01*
X6394260Y-11061000D01*
X6305740Y-11061000D01*
X6239557Y-11054481D01*
X6173373Y-11047963D01*
X6003534Y-10996443D01*
X5847009Y-10912778D01*
X5811271Y-10883448D01*
X5709814Y-10800186D01*
X5626552Y-10698729D01*
X5597222Y-10662991D01*
X5513557Y-10506466D01*
X5462037Y-10336627D01*
X5444641Y-10160000D01*
X5462037Y-9983373D01*
X5513557Y-9813534D01*
X5597222Y-9657009D01*
X5650700Y-9591846D01*
X5709814Y-9519814D01*
X5811271Y-9436552D01*
X5847009Y-9407222D01*
X6003534Y-9323557D01*
X6173373Y-9272037D01*
X6239558Y-9265518D01*
X6305740Y-9259000D01*
X6394260Y-9259000D01*
X6460442Y-9265518D01*
X6460442Y-9265518D01*
G37*
G36*
X-15764558Y-9265518D02*
G01*
X-15698373Y-9272037D01*
X-15528534Y-9323557D01*
X-15372009Y-9407222D01*
X-15336271Y-9436552D01*
X-15234814Y-9519814D01*
X-15175700Y-9591846D01*
X-15122222Y-9657009D01*
X-15038557Y-9813534D01*
X-14987037Y-9983373D01*
X-14969641Y-10160000D01*
X-14987037Y-10336627D01*
X-15038557Y-10506466D01*
X-15122222Y-10662991D01*
X-15151552Y-10698729D01*
X-15234814Y-10800186D01*
X-15336271Y-10883448D01*
X-15372009Y-10912778D01*
X-15528534Y-10996443D01*
X-15698373Y-11047963D01*
X-15764557Y-11054481D01*
X-15830740Y-11061000D01*
X-15919260Y-11061000D01*
X-15985443Y-11054481D01*
X-16051627Y-11047963D01*
X-16221466Y-10996443D01*
X-16377991Y-10912778D01*
X-16413729Y-10883448D01*
X-16515186Y-10800186D01*
X-16598448Y-10698729D01*
X-16627778Y-10662991D01*
X-16711443Y-10506466D01*
X-16762963Y-10336627D01*
X-16780359Y-10160000D01*
X-16762963Y-9983373D01*
X-16711443Y-9813534D01*
X-16627778Y-9657009D01*
X-16574300Y-9591846D01*
X-16515186Y-9519814D01*
X-16413729Y-9436552D01*
X-16377991Y-9407222D01*
X-16221466Y-9323557D01*
X-16051627Y-9272037D01*
X-15985442Y-9265518D01*
X-15919260Y-9259000D01*
X-15830740Y-9259000D01*
X-15764558Y-9265518D01*
X-15764558Y-9265518D01*
G37*
G36*
X110442Y-9265518D02*
G01*
X176627Y-9272037D01*
X346466Y-9323557D01*
X502991Y-9407222D01*
X538729Y-9436552D01*
X640186Y-9519814D01*
X699300Y-9591846D01*
X752778Y-9657009D01*
X836443Y-9813534D01*
X887963Y-9983373D01*
X905359Y-10160000D01*
X887963Y-10336627D01*
X836443Y-10506466D01*
X752778Y-10662991D01*
X723448Y-10698729D01*
X640186Y-10800186D01*
X538729Y-10883448D01*
X502991Y-10912778D01*
X346466Y-10996443D01*
X176627Y-11047963D01*
X110443Y-11054481D01*
X44260Y-11061000D01*
X-44260Y-11061000D01*
X-110443Y-11054481D01*
X-176627Y-11047963D01*
X-346466Y-10996443D01*
X-502991Y-10912778D01*
X-538729Y-10883448D01*
X-640186Y-10800186D01*
X-723448Y-10698729D01*
X-752778Y-10662991D01*
X-836443Y-10506466D01*
X-887963Y-10336627D01*
X-905359Y-10160000D01*
X-887963Y-9983373D01*
X-836443Y-9813534D01*
X-752778Y-9657009D01*
X-699300Y-9591846D01*
X-640186Y-9519814D01*
X-538729Y-9436552D01*
X-502991Y-9407222D01*
X-346466Y-9323557D01*
X-176627Y-9272037D01*
X-110442Y-9265518D01*
X-44260Y-9259000D01*
X44260Y-9259000D01*
X110442Y-9265518D01*
X110442Y-9265518D01*
G37*
G36*
X-24436772Y-9341703D02*
G01*
X-24281900Y-9405853D01*
X-24142519Y-9498985D01*
X-24023985Y-9617519D01*
X-23930853Y-9756900D01*
X-23866703Y-9911772D01*
X-23834000Y-10076184D01*
X-23834000Y-10243816D01*
X-23866703Y-10408228D01*
X-23930853Y-10563100D01*
X-24023985Y-10702481D01*
X-24142519Y-10821015D01*
X-24281900Y-10914147D01*
X-24436772Y-10978297D01*
X-24601184Y-11011000D01*
X-24768816Y-11011000D01*
X-24933228Y-10978297D01*
X-25088100Y-10914147D01*
X-25227481Y-10821015D01*
X-25346015Y-10702481D01*
X-25439147Y-10563100D01*
X-25503297Y-10408228D01*
X-25536000Y-10243816D01*
X-25536000Y-10076184D01*
X-25503297Y-9911772D01*
X-25439147Y-9756900D01*
X-25346015Y-9617519D01*
X-25227481Y-9498985D01*
X-25088100Y-9405853D01*
X-24933228Y-9341703D01*
X-24768816Y-9309000D01*
X-24601184Y-9309000D01*
X-24436772Y-9341703D01*
X-24436772Y-9341703D01*
G37*
G36*
X-27724000Y-11011000D02*
G01*
X-29426000Y-11011000D01*
X-29426000Y-9309000D01*
X-27724000Y-9309000D01*
X-27724000Y-11011000D01*
X-27724000Y-11011000D01*
G37*
G36*
X-19436772Y-9341703D02*
G01*
X-19281900Y-9405853D01*
X-19142519Y-9498985D01*
X-19023985Y-9617519D01*
X-18930853Y-9756900D01*
X-18866703Y-9911772D01*
X-18834000Y-10076184D01*
X-18834000Y-10243816D01*
X-18866703Y-10408228D01*
X-18930853Y-10563100D01*
X-19023985Y-10702481D01*
X-19142519Y-10821015D01*
X-19281900Y-10914147D01*
X-19436772Y-10978297D01*
X-19601184Y-11011000D01*
X-19768816Y-11011000D01*
X-19933228Y-10978297D01*
X-20088100Y-10914147D01*
X-20227481Y-10821015D01*
X-20346015Y-10702481D01*
X-20439147Y-10563100D01*
X-20503297Y-10408228D01*
X-20536000Y-10243816D01*
X-20536000Y-10076184D01*
X-20503297Y-9911772D01*
X-20439147Y-9756900D01*
X-20346015Y-9617519D01*
X-20227481Y-9498985D01*
X-20088100Y-9405853D01*
X-19933228Y-9341703D01*
X-19768816Y-9309000D01*
X-19601184Y-9309000D01*
X-19436772Y-9341703D01*
X-19436772Y-9341703D01*
G37*
G36*
X-11849000Y-11011000D02*
G01*
X-13551000Y-11011000D01*
X-13551000Y-9309000D01*
X-11849000Y-9309000D01*
X-11849000Y-11011000D01*
X-11849000Y-11011000D01*
G37*
G36*
X-8561772Y-9341703D02*
G01*
X-8406900Y-9405853D01*
X-8267519Y-9498985D01*
X-8148985Y-9617519D01*
X-8055853Y-9756900D01*
X-7991703Y-9911772D01*
X-7959000Y-10076184D01*
X-7959000Y-10243816D01*
X-7991703Y-10408228D01*
X-8055853Y-10563100D01*
X-8148985Y-10702481D01*
X-8267519Y-10821015D01*
X-8406900Y-10914147D01*
X-8561772Y-10978297D01*
X-8726184Y-11011000D01*
X-8893816Y-11011000D01*
X-9058228Y-10978297D01*
X-9213100Y-10914147D01*
X-9352481Y-10821015D01*
X-9471015Y-10702481D01*
X-9564147Y-10563100D01*
X-9628297Y-10408228D01*
X-9661000Y-10243816D01*
X-9661000Y-10076184D01*
X-9628297Y-9911772D01*
X-9564147Y-9756900D01*
X-9471015Y-9617519D01*
X-9352481Y-9498985D01*
X-9213100Y-9405853D01*
X-9058228Y-9341703D01*
X-8893816Y-9309000D01*
X-8726184Y-9309000D01*
X-8561772Y-9341703D01*
X-8561772Y-9341703D01*
G37*
G36*
X-3561772Y-9341703D02*
G01*
X-3406900Y-9405853D01*
X-3267519Y-9498985D01*
X-3148985Y-9617519D01*
X-3055853Y-9756900D01*
X-2991703Y-9911772D01*
X-2959000Y-10076184D01*
X-2959000Y-10243816D01*
X-2991703Y-10408228D01*
X-3055853Y-10563100D01*
X-3148985Y-10702481D01*
X-3267519Y-10821015D01*
X-3406900Y-10914147D01*
X-3561772Y-10978297D01*
X-3726184Y-11011000D01*
X-3893816Y-11011000D01*
X-4058228Y-10978297D01*
X-4213100Y-10914147D01*
X-4352481Y-10821015D01*
X-4471015Y-10702481D01*
X-4564147Y-10563100D01*
X-4628297Y-10408228D01*
X-4661000Y-10243816D01*
X-4661000Y-10076184D01*
X-4628297Y-9911772D01*
X-4564147Y-9756900D01*
X-4471015Y-9617519D01*
X-4352481Y-9498985D01*
X-4213100Y-9405853D01*
X-4058228Y-9341703D01*
X-3893816Y-9309000D01*
X-3726184Y-9309000D01*
X-3561772Y-9341703D01*
X-3561772Y-9341703D01*
G37*
G36*
X17994795Y-7810156D02*
G01*
X18101150Y-7831311D01*
X18301520Y-7914307D01*
X18481844Y-8034795D01*
X18635205Y-8188156D01*
X18755693Y-8368480D01*
X18755693Y-8368481D01*
X18838689Y-8568850D01*
X18881000Y-8781561D01*
X18881000Y-8998439D01*
X18838689Y-9211150D01*
X18798158Y-9309000D01*
X18755693Y-9411520D01*
X18635205Y-9591844D01*
X18481844Y-9745205D01*
X18301520Y-9865693D01*
X18101150Y-9948689D01*
X17994794Y-9969845D01*
X17888440Y-9991000D01*
X17671560Y-9991000D01*
X17565206Y-9969845D01*
X17458850Y-9948689D01*
X17258480Y-9865693D01*
X17078156Y-9745205D01*
X16924795Y-9591844D01*
X16804307Y-9411520D01*
X16761842Y-9309000D01*
X16721311Y-9211150D01*
X16679000Y-8998439D01*
X16679000Y-8781561D01*
X16721311Y-8568850D01*
X16804307Y-8368481D01*
X16804307Y-8368480D01*
X16924795Y-8188156D01*
X17078156Y-8034795D01*
X17258480Y-7914307D01*
X17458850Y-7831311D01*
X17565205Y-7810156D01*
X17671560Y-7789000D01*
X17888440Y-7789000D01*
X17994795Y-7810156D01*
X17994795Y-7810156D01*
G37*
G36*
X7251000Y-8521000D02*
G01*
X5449000Y-8521000D01*
X5449000Y-6719000D01*
X7251000Y-6719000D01*
X7251000Y-8521000D01*
X7251000Y-8521000D01*
G37*
G36*
X-37851772Y-5785703D02*
G01*
X-37696900Y-5849853D01*
X-37557519Y-5942985D01*
X-37438985Y-6061519D01*
X-37345853Y-6200900D01*
X-37281703Y-6355772D01*
X-37249000Y-6520184D01*
X-37249000Y-6687816D01*
X-37281703Y-6852228D01*
X-37345853Y-7007100D01*
X-37438985Y-7146481D01*
X-37557519Y-7265015D01*
X-37696900Y-7358147D01*
X-37851772Y-7422297D01*
X-38016184Y-7455000D01*
X-38183816Y-7455000D01*
X-38348228Y-7422297D01*
X-38503100Y-7358147D01*
X-38642481Y-7265015D01*
X-38761015Y-7146481D01*
X-38854147Y-7007100D01*
X-38918297Y-6852228D01*
X-38951000Y-6687816D01*
X-38951000Y-6520184D01*
X-38918297Y-6355772D01*
X-38854147Y-6200900D01*
X-38761015Y-6061519D01*
X-38642481Y-5942985D01*
X-38503100Y-5849853D01*
X-38348228Y-5785703D01*
X-38183816Y-5753000D01*
X-38016184Y-5753000D01*
X-37851772Y-5785703D01*
X-37851772Y-5785703D01*
G37*
G36*
X-32851772Y-5785703D02*
G01*
X-32696900Y-5849853D01*
X-32557519Y-5942985D01*
X-32438985Y-6061519D01*
X-32345853Y-6200900D01*
X-32281703Y-6355772D01*
X-32249000Y-6520184D01*
X-32249000Y-6687816D01*
X-32281703Y-6852228D01*
X-32345853Y-7007100D01*
X-32438985Y-7146481D01*
X-32557519Y-7265015D01*
X-32696900Y-7358147D01*
X-32851772Y-7422297D01*
X-33016184Y-7455000D01*
X-33183816Y-7455000D01*
X-33348228Y-7422297D01*
X-33503100Y-7358147D01*
X-33642481Y-7265015D01*
X-33761015Y-7146481D01*
X-33854147Y-7007100D01*
X-33918297Y-6852228D01*
X-33951000Y-6687816D01*
X-33951000Y-6520184D01*
X-33918297Y-6355772D01*
X-33854147Y-6200900D01*
X-33761015Y-6061519D01*
X-33642481Y-5942985D01*
X-33503100Y-5849853D01*
X-33348228Y-5785703D01*
X-33183816Y-5753000D01*
X-33016184Y-5753000D01*
X-32851772Y-5785703D01*
X-32851772Y-5785703D01*
G37*
G36*
X-32851772Y-3245703D02*
G01*
X-32696900Y-3309853D01*
X-32557519Y-3402985D01*
X-32438985Y-3521519D01*
X-32345853Y-3660900D01*
X-32281703Y-3815772D01*
X-32249000Y-3980184D01*
X-32249000Y-4147816D01*
X-32281703Y-4312228D01*
X-32345853Y-4467100D01*
X-32438985Y-4606481D01*
X-32557519Y-4725015D01*
X-32696900Y-4818147D01*
X-32851772Y-4882297D01*
X-33016184Y-4915000D01*
X-33183816Y-4915000D01*
X-33348228Y-4882297D01*
X-33503100Y-4818147D01*
X-33642481Y-4725015D01*
X-33761015Y-4606481D01*
X-33854147Y-4467100D01*
X-33918297Y-4312228D01*
X-33951000Y-4147816D01*
X-33951000Y-3980184D01*
X-33918297Y-3815772D01*
X-33854147Y-3660900D01*
X-33761015Y-3521519D01*
X-33642481Y-3402985D01*
X-33503100Y-3309853D01*
X-33348228Y-3245703D01*
X-33183816Y-3213000D01*
X-33016184Y-3213000D01*
X-32851772Y-3245703D01*
X-32851772Y-3245703D01*
G37*
G36*
X-37851772Y-3245703D02*
G01*
X-37696900Y-3309853D01*
X-37557519Y-3402985D01*
X-37438985Y-3521519D01*
X-37345853Y-3660900D01*
X-37281703Y-3815772D01*
X-37249000Y-3980184D01*
X-37249000Y-4147816D01*
X-37281703Y-4312228D01*
X-37345853Y-4467100D01*
X-37438985Y-4606481D01*
X-37557519Y-4725015D01*
X-37696900Y-4818147D01*
X-37851772Y-4882297D01*
X-38016184Y-4915000D01*
X-38183816Y-4915000D01*
X-38348228Y-4882297D01*
X-38503100Y-4818147D01*
X-38642481Y-4725015D01*
X-38761015Y-4606481D01*
X-38854147Y-4467100D01*
X-38918297Y-4312228D01*
X-38951000Y-4147816D01*
X-38951000Y-3980184D01*
X-38918297Y-3815772D01*
X-38854147Y-3660900D01*
X-38761015Y-3521519D01*
X-38642481Y-3402985D01*
X-38503100Y-3309853D01*
X-38348228Y-3245703D01*
X-38183816Y-3213000D01*
X-38016184Y-3213000D01*
X-37851772Y-3245703D01*
X-37851772Y-3245703D01*
G37*
G36*
X10270443Y-1645519D02*
G01*
X10336627Y-1652037D01*
X10506466Y-1703557D01*
X10662991Y-1787222D01*
X10698729Y-1816552D01*
X10800186Y-1899814D01*
X10883448Y-2001271D01*
X10912778Y-2037009D01*
X10996443Y-2193534D01*
X11047963Y-2363373D01*
X11065359Y-2540000D01*
X11047963Y-2716627D01*
X10996443Y-2886466D01*
X10912778Y-3042991D01*
X10883448Y-3078729D01*
X10800186Y-3180186D01*
X10698729Y-3263448D01*
X10662991Y-3292778D01*
X10506466Y-3376443D01*
X10336627Y-3427963D01*
X10270443Y-3434481D01*
X10204260Y-3441000D01*
X10115740Y-3441000D01*
X10049557Y-3434481D01*
X9983373Y-3427963D01*
X9813534Y-3376443D01*
X9657009Y-3292778D01*
X9621271Y-3263448D01*
X9519814Y-3180186D01*
X9436552Y-3078729D01*
X9407222Y-3042991D01*
X9323557Y-2886466D01*
X9272037Y-2716627D01*
X9254641Y-2540000D01*
X9272037Y-2363373D01*
X9323557Y-2193534D01*
X9407222Y-2037009D01*
X9436552Y-2001271D01*
X9519814Y-1899814D01*
X9621271Y-1816552D01*
X9657009Y-1787222D01*
X9813534Y-1703557D01*
X9983373Y-1652037D01*
X10049557Y-1645519D01*
X10115740Y-1639000D01*
X10204260Y-1639000D01*
X10270443Y-1645519D01*
X10270443Y-1645519D01*
G37*
G36*
X7730443Y-1645519D02*
G01*
X7796627Y-1652037D01*
X7966466Y-1703557D01*
X8122991Y-1787222D01*
X8158729Y-1816552D01*
X8260186Y-1899814D01*
X8343448Y-2001271D01*
X8372778Y-2037009D01*
X8456443Y-2193534D01*
X8507963Y-2363373D01*
X8525359Y-2540000D01*
X8507963Y-2716627D01*
X8456443Y-2886466D01*
X8372778Y-3042991D01*
X8343448Y-3078729D01*
X8260186Y-3180186D01*
X8158729Y-3263448D01*
X8122991Y-3292778D01*
X7966466Y-3376443D01*
X7796627Y-3427963D01*
X7730443Y-3434481D01*
X7664260Y-3441000D01*
X7575740Y-3441000D01*
X7509557Y-3434481D01*
X7443373Y-3427963D01*
X7273534Y-3376443D01*
X7117009Y-3292778D01*
X7081271Y-3263448D01*
X6979814Y-3180186D01*
X6896552Y-3078729D01*
X6867222Y-3042991D01*
X6783557Y-2886466D01*
X6732037Y-2716627D01*
X6714641Y-2540000D01*
X6732037Y-2363373D01*
X6783557Y-2193534D01*
X6867222Y-2037009D01*
X6896552Y-2001271D01*
X6979814Y-1899814D01*
X7081271Y-1816552D01*
X7117009Y-1787222D01*
X7273534Y-1703557D01*
X7443373Y-1652037D01*
X7509557Y-1645519D01*
X7575740Y-1639000D01*
X7664260Y-1639000D01*
X7730443Y-1645519D01*
X7730443Y-1645519D01*
G37*
G36*
X5190443Y-1645519D02*
G01*
X5256627Y-1652037D01*
X5426466Y-1703557D01*
X5582991Y-1787222D01*
X5618729Y-1816552D01*
X5720186Y-1899814D01*
X5803448Y-2001271D01*
X5832778Y-2037009D01*
X5916443Y-2193534D01*
X5967963Y-2363373D01*
X5985359Y-2540000D01*
X5967963Y-2716627D01*
X5916443Y-2886466D01*
X5832778Y-3042991D01*
X5803448Y-3078729D01*
X5720186Y-3180186D01*
X5618729Y-3263448D01*
X5582991Y-3292778D01*
X5426466Y-3376443D01*
X5256627Y-3427963D01*
X5190443Y-3434481D01*
X5124260Y-3441000D01*
X5035740Y-3441000D01*
X4969557Y-3434481D01*
X4903373Y-3427963D01*
X4733534Y-3376443D01*
X4577009Y-3292778D01*
X4541271Y-3263448D01*
X4439814Y-3180186D01*
X4356552Y-3078729D01*
X4327222Y-3042991D01*
X4243557Y-2886466D01*
X4192037Y-2716627D01*
X4174641Y-2540000D01*
X4192037Y-2363373D01*
X4243557Y-2193534D01*
X4327222Y-2037009D01*
X4356552Y-2001271D01*
X4439814Y-1899814D01*
X4541271Y-1816552D01*
X4577009Y-1787222D01*
X4733534Y-1703557D01*
X4903373Y-1652037D01*
X4969557Y-1645519D01*
X5035740Y-1639000D01*
X5124260Y-1639000D01*
X5190443Y-1645519D01*
X5190443Y-1645519D01*
G37*
G36*
X2650443Y-1645519D02*
G01*
X2716627Y-1652037D01*
X2886466Y-1703557D01*
X3042991Y-1787222D01*
X3078729Y-1816552D01*
X3180186Y-1899814D01*
X3263448Y-2001271D01*
X3292778Y-2037009D01*
X3376443Y-2193534D01*
X3427963Y-2363373D01*
X3445359Y-2540000D01*
X3427963Y-2716627D01*
X3376443Y-2886466D01*
X3292778Y-3042991D01*
X3263448Y-3078729D01*
X3180186Y-3180186D01*
X3078729Y-3263448D01*
X3042991Y-3292778D01*
X2886466Y-3376443D01*
X2716627Y-3427963D01*
X2650443Y-3434481D01*
X2584260Y-3441000D01*
X2495740Y-3441000D01*
X2429557Y-3434481D01*
X2363373Y-3427963D01*
X2193534Y-3376443D01*
X2037009Y-3292778D01*
X2001271Y-3263448D01*
X1899814Y-3180186D01*
X1816552Y-3078729D01*
X1787222Y-3042991D01*
X1703557Y-2886466D01*
X1652037Y-2716627D01*
X1634641Y-2540000D01*
X1652037Y-2363373D01*
X1703557Y-2193534D01*
X1787222Y-2037009D01*
X1816552Y-2001271D01*
X1899814Y-1899814D01*
X2001271Y-1816552D01*
X2037009Y-1787222D01*
X2193534Y-1703557D01*
X2363373Y-1652037D01*
X2429557Y-1645519D01*
X2495740Y-1639000D01*
X2584260Y-1639000D01*
X2650443Y-1645519D01*
X2650443Y-1645519D01*
G37*
G36*
X110443Y-1645519D02*
G01*
X176627Y-1652037D01*
X346466Y-1703557D01*
X502991Y-1787222D01*
X538729Y-1816552D01*
X640186Y-1899814D01*
X723448Y-2001271D01*
X752778Y-2037009D01*
X836443Y-2193534D01*
X887963Y-2363373D01*
X905359Y-2540000D01*
X887963Y-2716627D01*
X836443Y-2886466D01*
X752778Y-3042991D01*
X723448Y-3078729D01*
X640186Y-3180186D01*
X538729Y-3263448D01*
X502991Y-3292778D01*
X346466Y-3376443D01*
X176627Y-3427963D01*
X110443Y-3434481D01*
X44260Y-3441000D01*
X-44260Y-3441000D01*
X-110443Y-3434481D01*
X-176627Y-3427963D01*
X-346466Y-3376443D01*
X-502991Y-3292778D01*
X-538729Y-3263448D01*
X-640186Y-3180186D01*
X-723448Y-3078729D01*
X-752778Y-3042991D01*
X-836443Y-2886466D01*
X-887963Y-2716627D01*
X-905359Y-2540000D01*
X-887963Y-2363373D01*
X-836443Y-2193534D01*
X-752778Y-2037009D01*
X-723448Y-2001271D01*
X-640186Y-1899814D01*
X-538729Y-1816552D01*
X-502991Y-1787222D01*
X-346466Y-1703557D01*
X-176627Y-1652037D01*
X-110443Y-1645519D01*
X-44260Y-1639000D01*
X44260Y-1639000D01*
X110443Y-1645519D01*
X110443Y-1645519D01*
G37*
G36*
X-2429557Y-1645519D02*
G01*
X-2363373Y-1652037D01*
X-2193534Y-1703557D01*
X-2037009Y-1787222D01*
X-2001271Y-1816552D01*
X-1899814Y-1899814D01*
X-1816552Y-2001271D01*
X-1787222Y-2037009D01*
X-1703557Y-2193534D01*
X-1652037Y-2363373D01*
X-1634641Y-2540000D01*
X-1652037Y-2716627D01*
X-1703557Y-2886466D01*
X-1787222Y-3042991D01*
X-1816552Y-3078729D01*
X-1899814Y-3180186D01*
X-2001271Y-3263448D01*
X-2037009Y-3292778D01*
X-2193534Y-3376443D01*
X-2363373Y-3427963D01*
X-2429557Y-3434481D01*
X-2495740Y-3441000D01*
X-2584260Y-3441000D01*
X-2650443Y-3434481D01*
X-2716627Y-3427963D01*
X-2886466Y-3376443D01*
X-3042991Y-3292778D01*
X-3078729Y-3263448D01*
X-3180186Y-3180186D01*
X-3263448Y-3078729D01*
X-3292778Y-3042991D01*
X-3376443Y-2886466D01*
X-3427963Y-2716627D01*
X-3445359Y-2540000D01*
X-3427963Y-2363373D01*
X-3376443Y-2193534D01*
X-3292778Y-2037009D01*
X-3263448Y-2001271D01*
X-3180186Y-1899814D01*
X-3078729Y-1816552D01*
X-3042991Y-1787222D01*
X-2886466Y-1703557D01*
X-2716627Y-1652037D01*
X-2650443Y-1645519D01*
X-2584260Y-1639000D01*
X-2495740Y-1639000D01*
X-2429557Y-1645519D01*
X-2429557Y-1645519D01*
G37*
G36*
X-4969557Y-1645519D02*
G01*
X-4903373Y-1652037D01*
X-4733534Y-1703557D01*
X-4577009Y-1787222D01*
X-4541271Y-1816552D01*
X-4439814Y-1899814D01*
X-4356552Y-2001271D01*
X-4327222Y-2037009D01*
X-4243557Y-2193534D01*
X-4192037Y-2363373D01*
X-4174641Y-2540000D01*
X-4192037Y-2716627D01*
X-4243557Y-2886466D01*
X-4327222Y-3042991D01*
X-4356552Y-3078729D01*
X-4439814Y-3180186D01*
X-4541271Y-3263448D01*
X-4577009Y-3292778D01*
X-4733534Y-3376443D01*
X-4903373Y-3427963D01*
X-4969557Y-3434481D01*
X-5035740Y-3441000D01*
X-5124260Y-3441000D01*
X-5190443Y-3434481D01*
X-5256627Y-3427963D01*
X-5426466Y-3376443D01*
X-5582991Y-3292778D01*
X-5618729Y-3263448D01*
X-5720186Y-3180186D01*
X-5803448Y-3078729D01*
X-5832778Y-3042991D01*
X-5916443Y-2886466D01*
X-5967963Y-2716627D01*
X-5985359Y-2540000D01*
X-5967963Y-2363373D01*
X-5916443Y-2193534D01*
X-5832778Y-2037009D01*
X-5803448Y-2001271D01*
X-5720186Y-1899814D01*
X-5618729Y-1816552D01*
X-5582991Y-1787222D01*
X-5426466Y-1703557D01*
X-5256627Y-1652037D01*
X-5190443Y-1645519D01*
X-5124260Y-1639000D01*
X-5035740Y-1639000D01*
X-4969557Y-1645519D01*
X-4969557Y-1645519D01*
G37*
G36*
X-7509557Y-1645519D02*
G01*
X-7443373Y-1652037D01*
X-7273534Y-1703557D01*
X-7117009Y-1787222D01*
X-7081271Y-1816552D01*
X-6979814Y-1899814D01*
X-6896552Y-2001271D01*
X-6867222Y-2037009D01*
X-6783557Y-2193534D01*
X-6732037Y-2363373D01*
X-6714641Y-2540000D01*
X-6732037Y-2716627D01*
X-6783557Y-2886466D01*
X-6867222Y-3042991D01*
X-6896552Y-3078729D01*
X-6979814Y-3180186D01*
X-7081271Y-3263448D01*
X-7117009Y-3292778D01*
X-7273534Y-3376443D01*
X-7443373Y-3427963D01*
X-7509557Y-3434481D01*
X-7575740Y-3441000D01*
X-7664260Y-3441000D01*
X-7730443Y-3434481D01*
X-7796627Y-3427963D01*
X-7966466Y-3376443D01*
X-8122991Y-3292778D01*
X-8158729Y-3263448D01*
X-8260186Y-3180186D01*
X-8343448Y-3078729D01*
X-8372778Y-3042991D01*
X-8456443Y-2886466D01*
X-8507963Y-2716627D01*
X-8525359Y-2540000D01*
X-8507963Y-2363373D01*
X-8456443Y-2193534D01*
X-8372778Y-2037009D01*
X-8343448Y-2001271D01*
X-8260186Y-1899814D01*
X-8158729Y-1816552D01*
X-8122991Y-1787222D01*
X-7966466Y-1703557D01*
X-7796627Y-1652037D01*
X-7730443Y-1645519D01*
X-7664260Y-1639000D01*
X-7575740Y-1639000D01*
X-7509557Y-1645519D01*
X-7509557Y-1645519D01*
G37*
G36*
X-10049557Y-1645519D02*
G01*
X-9983373Y-1652037D01*
X-9813534Y-1703557D01*
X-9657009Y-1787222D01*
X-9621271Y-1816552D01*
X-9519814Y-1899814D01*
X-9436552Y-2001271D01*
X-9407222Y-2037009D01*
X-9323557Y-2193534D01*
X-9272037Y-2363373D01*
X-9254641Y-2540000D01*
X-9272037Y-2716627D01*
X-9323557Y-2886466D01*
X-9407222Y-3042991D01*
X-9436552Y-3078729D01*
X-9519814Y-3180186D01*
X-9621271Y-3263448D01*
X-9657009Y-3292778D01*
X-9813534Y-3376443D01*
X-9983373Y-3427963D01*
X-10049557Y-3434481D01*
X-10115740Y-3441000D01*
X-10204260Y-3441000D01*
X-10270443Y-3434481D01*
X-10336627Y-3427963D01*
X-10506466Y-3376443D01*
X-10662991Y-3292778D01*
X-10698729Y-3263448D01*
X-10800186Y-3180186D01*
X-10883448Y-3078729D01*
X-10912778Y-3042991D01*
X-10996443Y-2886466D01*
X-11047963Y-2716627D01*
X-11065359Y-2540000D01*
X-11047963Y-2363373D01*
X-10996443Y-2193534D01*
X-10912778Y-2037009D01*
X-10883448Y-2001271D01*
X-10800186Y-1899814D01*
X-10698729Y-1816552D01*
X-10662991Y-1787222D01*
X-10506466Y-1703557D01*
X-10336627Y-1652037D01*
X-10270443Y-1645519D01*
X-10204260Y-1639000D01*
X-10115740Y-1639000D01*
X-10049557Y-1645519D01*
X-10049557Y-1645519D01*
G37*
G36*
X-12589557Y-1645519D02*
G01*
X-12523373Y-1652037D01*
X-12353534Y-1703557D01*
X-12197009Y-1787222D01*
X-12161271Y-1816552D01*
X-12059814Y-1899814D01*
X-11976552Y-2001271D01*
X-11947222Y-2037009D01*
X-11863557Y-2193534D01*
X-11812037Y-2363373D01*
X-11794641Y-2540000D01*
X-11812037Y-2716627D01*
X-11863557Y-2886466D01*
X-11947222Y-3042991D01*
X-11976552Y-3078729D01*
X-12059814Y-3180186D01*
X-12161271Y-3263448D01*
X-12197009Y-3292778D01*
X-12353534Y-3376443D01*
X-12523373Y-3427963D01*
X-12589557Y-3434481D01*
X-12655740Y-3441000D01*
X-12744260Y-3441000D01*
X-12810443Y-3434481D01*
X-12876627Y-3427963D01*
X-13046466Y-3376443D01*
X-13202991Y-3292778D01*
X-13238729Y-3263448D01*
X-13340186Y-3180186D01*
X-13423448Y-3078729D01*
X-13452778Y-3042991D01*
X-13536443Y-2886466D01*
X-13587963Y-2716627D01*
X-13605359Y-2540000D01*
X-13587963Y-2363373D01*
X-13536443Y-2193534D01*
X-13452778Y-2037009D01*
X-13423448Y-2001271D01*
X-13340186Y-1899814D01*
X-13238729Y-1816552D01*
X-13202991Y-1787222D01*
X-13046466Y-1703557D01*
X-12876627Y-1652037D01*
X-12810443Y-1645519D01*
X-12744260Y-1639000D01*
X-12655740Y-1639000D01*
X-12589557Y-1645519D01*
X-12589557Y-1645519D01*
G37*
G36*
X-15129557Y-1645519D02*
G01*
X-15063373Y-1652037D01*
X-14893534Y-1703557D01*
X-14737009Y-1787222D01*
X-14701271Y-1816552D01*
X-14599814Y-1899814D01*
X-14516552Y-2001271D01*
X-14487222Y-2037009D01*
X-14403557Y-2193534D01*
X-14352037Y-2363373D01*
X-14334641Y-2540000D01*
X-14352037Y-2716627D01*
X-14403557Y-2886466D01*
X-14487222Y-3042991D01*
X-14516552Y-3078729D01*
X-14599814Y-3180186D01*
X-14701271Y-3263448D01*
X-14737009Y-3292778D01*
X-14893534Y-3376443D01*
X-15063373Y-3427963D01*
X-15129557Y-3434481D01*
X-15195740Y-3441000D01*
X-15284260Y-3441000D01*
X-15350443Y-3434481D01*
X-15416627Y-3427963D01*
X-15586466Y-3376443D01*
X-15742991Y-3292778D01*
X-15778729Y-3263448D01*
X-15880186Y-3180186D01*
X-15963448Y-3078729D01*
X-15992778Y-3042991D01*
X-16076443Y-2886466D01*
X-16127963Y-2716627D01*
X-16145359Y-2540000D01*
X-16127963Y-2363373D01*
X-16076443Y-2193534D01*
X-15992778Y-2037009D01*
X-15963448Y-2001271D01*
X-15880186Y-1899814D01*
X-15778729Y-1816552D01*
X-15742991Y-1787222D01*
X-15586466Y-1703557D01*
X-15416627Y-1652037D01*
X-15350443Y-1645519D01*
X-15284260Y-1639000D01*
X-15195740Y-1639000D01*
X-15129557Y-1645519D01*
X-15129557Y-1645519D01*
G37*
G36*
X-17669557Y-1645519D02*
G01*
X-17603373Y-1652037D01*
X-17433534Y-1703557D01*
X-17277009Y-1787222D01*
X-17241271Y-1816552D01*
X-17139814Y-1899814D01*
X-17056552Y-2001271D01*
X-17027222Y-2037009D01*
X-16943557Y-2193534D01*
X-16892037Y-2363373D01*
X-16874641Y-2540000D01*
X-16892037Y-2716627D01*
X-16943557Y-2886466D01*
X-17027222Y-3042991D01*
X-17056552Y-3078729D01*
X-17139814Y-3180186D01*
X-17241271Y-3263448D01*
X-17277009Y-3292778D01*
X-17433534Y-3376443D01*
X-17603373Y-3427963D01*
X-17669557Y-3434481D01*
X-17735740Y-3441000D01*
X-17824260Y-3441000D01*
X-17890443Y-3434481D01*
X-17956627Y-3427963D01*
X-18126466Y-3376443D01*
X-18282991Y-3292778D01*
X-18318729Y-3263448D01*
X-18420186Y-3180186D01*
X-18503448Y-3078729D01*
X-18532778Y-3042991D01*
X-18616443Y-2886466D01*
X-18667963Y-2716627D01*
X-18685359Y-2540000D01*
X-18667963Y-2363373D01*
X-18616443Y-2193534D01*
X-18532778Y-2037009D01*
X-18503448Y-2001271D01*
X-18420186Y-1899814D01*
X-18318729Y-1816552D01*
X-18282991Y-1787222D01*
X-18126466Y-1703557D01*
X-17956627Y-1652037D01*
X-17890443Y-1645519D01*
X-17824260Y-1639000D01*
X-17735740Y-1639000D01*
X-17669557Y-1645519D01*
X-17669557Y-1645519D01*
G37*
G36*
X-20209557Y-1645519D02*
G01*
X-20143373Y-1652037D01*
X-19973534Y-1703557D01*
X-19817009Y-1787222D01*
X-19781271Y-1816552D01*
X-19679814Y-1899814D01*
X-19596552Y-2001271D01*
X-19567222Y-2037009D01*
X-19483557Y-2193534D01*
X-19432037Y-2363373D01*
X-19414641Y-2540000D01*
X-19432037Y-2716627D01*
X-19483557Y-2886466D01*
X-19567222Y-3042991D01*
X-19596552Y-3078729D01*
X-19679814Y-3180186D01*
X-19781271Y-3263448D01*
X-19817009Y-3292778D01*
X-19973534Y-3376443D01*
X-20143373Y-3427963D01*
X-20209557Y-3434481D01*
X-20275740Y-3441000D01*
X-20364260Y-3441000D01*
X-20430443Y-3434481D01*
X-20496627Y-3427963D01*
X-20666466Y-3376443D01*
X-20822991Y-3292778D01*
X-20858729Y-3263448D01*
X-20960186Y-3180186D01*
X-21043448Y-3078729D01*
X-21072778Y-3042991D01*
X-21156443Y-2886466D01*
X-21207963Y-2716627D01*
X-21225359Y-2540000D01*
X-21207963Y-2363373D01*
X-21156443Y-2193534D01*
X-21072778Y-2037009D01*
X-21043448Y-2001271D01*
X-20960186Y-1899814D01*
X-20858729Y-1816552D01*
X-20822991Y-1787222D01*
X-20666466Y-1703557D01*
X-20496627Y-1652037D01*
X-20430443Y-1645519D01*
X-20364260Y-1639000D01*
X-20275740Y-1639000D01*
X-20209557Y-1645519D01*
X-20209557Y-1645519D01*
G37*
G36*
X-22749557Y-1645519D02*
G01*
X-22683373Y-1652037D01*
X-22513534Y-1703557D01*
X-22357009Y-1787222D01*
X-22321271Y-1816552D01*
X-22219814Y-1899814D01*
X-22136552Y-2001271D01*
X-22107222Y-2037009D01*
X-22023557Y-2193534D01*
X-21972037Y-2363373D01*
X-21954641Y-2540000D01*
X-21972037Y-2716627D01*
X-22023557Y-2886466D01*
X-22107222Y-3042991D01*
X-22136552Y-3078729D01*
X-22219814Y-3180186D01*
X-22321271Y-3263448D01*
X-22357009Y-3292778D01*
X-22513534Y-3376443D01*
X-22683373Y-3427963D01*
X-22749557Y-3434481D01*
X-22815740Y-3441000D01*
X-22904260Y-3441000D01*
X-22970443Y-3434481D01*
X-23036627Y-3427963D01*
X-23206466Y-3376443D01*
X-23362991Y-3292778D01*
X-23398729Y-3263448D01*
X-23500186Y-3180186D01*
X-23583448Y-3078729D01*
X-23612778Y-3042991D01*
X-23696443Y-2886466D01*
X-23747963Y-2716627D01*
X-23765359Y-2540000D01*
X-23747963Y-2363373D01*
X-23696443Y-2193534D01*
X-23612778Y-2037009D01*
X-23583448Y-2001271D01*
X-23500186Y-1899814D01*
X-23398729Y-1816552D01*
X-23362991Y-1787222D01*
X-23206466Y-1703557D01*
X-23036627Y-1652037D01*
X-22970443Y-1645519D01*
X-22904260Y-1639000D01*
X-22815740Y-1639000D01*
X-22749557Y-1645519D01*
X-22749557Y-1645519D01*
G37*
G36*
X-25289557Y-1645519D02*
G01*
X-25223373Y-1652037D01*
X-25053534Y-1703557D01*
X-24897009Y-1787222D01*
X-24861271Y-1816552D01*
X-24759814Y-1899814D01*
X-24676552Y-2001271D01*
X-24647222Y-2037009D01*
X-24563557Y-2193534D01*
X-24512037Y-2363373D01*
X-24494641Y-2540000D01*
X-24512037Y-2716627D01*
X-24563557Y-2886466D01*
X-24647222Y-3042991D01*
X-24676552Y-3078729D01*
X-24759814Y-3180186D01*
X-24861271Y-3263448D01*
X-24897009Y-3292778D01*
X-25053534Y-3376443D01*
X-25223373Y-3427963D01*
X-25289557Y-3434481D01*
X-25355740Y-3441000D01*
X-25444260Y-3441000D01*
X-25510443Y-3434481D01*
X-25576627Y-3427963D01*
X-25746466Y-3376443D01*
X-25902991Y-3292778D01*
X-25938729Y-3263448D01*
X-26040186Y-3180186D01*
X-26123448Y-3078729D01*
X-26152778Y-3042991D01*
X-26236443Y-2886466D01*
X-26287963Y-2716627D01*
X-26305359Y-2540000D01*
X-26287963Y-2363373D01*
X-26236443Y-2193534D01*
X-26152778Y-2037009D01*
X-26123448Y-2001271D01*
X-26040186Y-1899814D01*
X-25938729Y-1816552D01*
X-25902991Y-1787222D01*
X-25746466Y-1703557D01*
X-25576627Y-1652037D01*
X-25510443Y-1645519D01*
X-25444260Y-1639000D01*
X-25355740Y-1639000D01*
X-25289557Y-1645519D01*
X-25289557Y-1645519D01*
G37*
G36*
X-27829557Y-1645519D02*
G01*
X-27763373Y-1652037D01*
X-27593534Y-1703557D01*
X-27437009Y-1787222D01*
X-27401271Y-1816552D01*
X-27299814Y-1899814D01*
X-27216552Y-2001271D01*
X-27187222Y-2037009D01*
X-27103557Y-2193534D01*
X-27052037Y-2363373D01*
X-27034641Y-2540000D01*
X-27052037Y-2716627D01*
X-27103557Y-2886466D01*
X-27187222Y-3042991D01*
X-27216552Y-3078729D01*
X-27299814Y-3180186D01*
X-27401271Y-3263448D01*
X-27437009Y-3292778D01*
X-27593534Y-3376443D01*
X-27763373Y-3427963D01*
X-27829557Y-3434481D01*
X-27895740Y-3441000D01*
X-27984260Y-3441000D01*
X-28050443Y-3434481D01*
X-28116627Y-3427963D01*
X-28286466Y-3376443D01*
X-28442991Y-3292778D01*
X-28478729Y-3263448D01*
X-28580186Y-3180186D01*
X-28663448Y-3078729D01*
X-28692778Y-3042991D01*
X-28776443Y-2886466D01*
X-28827963Y-2716627D01*
X-28845359Y-2540000D01*
X-28827963Y-2363373D01*
X-28776443Y-2193534D01*
X-28692778Y-2037009D01*
X-28663448Y-2001271D01*
X-28580186Y-1899814D01*
X-28478729Y-1816552D01*
X-28442991Y-1787222D01*
X-28286466Y-1703557D01*
X-28116627Y-1652037D01*
X-28050443Y-1645519D01*
X-27984260Y-1639000D01*
X-27895740Y-1639000D01*
X-27829557Y-1645519D01*
X-27829557Y-1645519D01*
G37*
G36*
X-29579000Y-3441000D02*
G01*
X-31381000Y-3441000D01*
X-31381000Y-1639000D01*
X-29579000Y-1639000D01*
X-29579000Y-3441000D01*
X-29579000Y-3441000D01*
G37*
G36*
X15350443Y-1645519D02*
G01*
X15416627Y-1652037D01*
X15586466Y-1703557D01*
X15742991Y-1787222D01*
X15778729Y-1816552D01*
X15880186Y-1899814D01*
X15963448Y-2001271D01*
X15992778Y-2037009D01*
X16076443Y-2193534D01*
X16127963Y-2363373D01*
X16145359Y-2540000D01*
X16127963Y-2716627D01*
X16076443Y-2886466D01*
X15992778Y-3042991D01*
X15963448Y-3078729D01*
X15880186Y-3180186D01*
X15778729Y-3263448D01*
X15742991Y-3292778D01*
X15586466Y-3376443D01*
X15416627Y-3427963D01*
X15350443Y-3434481D01*
X15284260Y-3441000D01*
X15195740Y-3441000D01*
X15129557Y-3434481D01*
X15063373Y-3427963D01*
X14893534Y-3376443D01*
X14737009Y-3292778D01*
X14701271Y-3263448D01*
X14599814Y-3180186D01*
X14516552Y-3078729D01*
X14487222Y-3042991D01*
X14403557Y-2886466D01*
X14352037Y-2716627D01*
X14334641Y-2540000D01*
X14352037Y-2363373D01*
X14403557Y-2193534D01*
X14487222Y-2037009D01*
X14516552Y-2001271D01*
X14599814Y-1899814D01*
X14701271Y-1816552D01*
X14737009Y-1787222D01*
X14893534Y-1703557D01*
X15063373Y-1652037D01*
X15129557Y-1645519D01*
X15195740Y-1639000D01*
X15284260Y-1639000D01*
X15350443Y-1645519D01*
X15350443Y-1645519D01*
G37*
G36*
X12810443Y-1645519D02*
G01*
X12876627Y-1652037D01*
X13046466Y-1703557D01*
X13202991Y-1787222D01*
X13238729Y-1816552D01*
X13340186Y-1899814D01*
X13423448Y-2001271D01*
X13452778Y-2037009D01*
X13536443Y-2193534D01*
X13587963Y-2363373D01*
X13605359Y-2540000D01*
X13587963Y-2716627D01*
X13536443Y-2886466D01*
X13452778Y-3042991D01*
X13423448Y-3078729D01*
X13340186Y-3180186D01*
X13238729Y-3263448D01*
X13202991Y-3292778D01*
X13046466Y-3376443D01*
X12876627Y-3427963D01*
X12810443Y-3434481D01*
X12744260Y-3441000D01*
X12655740Y-3441000D01*
X12589557Y-3434481D01*
X12523373Y-3427963D01*
X12353534Y-3376443D01*
X12197009Y-3292778D01*
X12161271Y-3263448D01*
X12059814Y-3180186D01*
X11976552Y-3078729D01*
X11947222Y-3042991D01*
X11863557Y-2886466D01*
X11812037Y-2716627D01*
X11794641Y-2540000D01*
X11812037Y-2363373D01*
X11863557Y-2193534D01*
X11947222Y-2037009D01*
X11976552Y-2001271D01*
X12059814Y-1899814D01*
X12161271Y-1816552D01*
X12197009Y-1787222D01*
X12353534Y-1703557D01*
X12523373Y-1652037D01*
X12589557Y-1645519D01*
X12655740Y-1639000D01*
X12744260Y-1639000D01*
X12810443Y-1645519D01*
X12810443Y-1645519D01*
G37*
G36*
X-37903281Y-233520D02*
G01*
X-37714120Y-290901D01*
X-37714117Y-290902D01*
X-37621667Y-340318D01*
X-37539788Y-384083D01*
X-37386985Y-509485D01*
X-37261583Y-662288D01*
X-37168401Y-836619D01*
X-37111020Y-1025780D01*
X-37096500Y-1173206D01*
X-37096500Y-1366793D01*
X-37111020Y-1514219D01*
X-37168401Y-1703380D01*
X-37168402Y-1703383D01*
X-37168496Y-1703558D01*
X-37261583Y-1877712D01*
X-37386985Y-2030515D01*
X-37539788Y-2155917D01*
X-37714119Y-2249099D01*
X-37903280Y-2306480D01*
X-38100000Y-2325855D01*
X-38296719Y-2306480D01*
X-38485880Y-2249099D01*
X-38660212Y-2155917D01*
X-38813015Y-2030515D01*
X-38938417Y-1877712D01*
X-39031599Y-1703381D01*
X-39088980Y-1514220D01*
X-39103500Y-1366794D01*
X-39103500Y-1173207D01*
X-39088980Y-1025781D01*
X-39031599Y-836620D01*
X-39031598Y-836617D01*
X-38982182Y-744167D01*
X-38938417Y-662288D01*
X-38813015Y-509485D01*
X-38660212Y-384083D01*
X-38485881Y-290901D01*
X-38296720Y-233520D01*
X-38100000Y-214145D01*
X-37903281Y-233520D01*
X-37903281Y-233520D01*
G37*
G36*
X-35363281Y-233520D02*
G01*
X-35174120Y-290901D01*
X-35174117Y-290902D01*
X-35081667Y-340318D01*
X-34999788Y-384083D01*
X-34846985Y-509485D01*
X-34721583Y-662288D01*
X-34628401Y-836619D01*
X-34571020Y-1025780D01*
X-34556500Y-1173206D01*
X-34556500Y-1366793D01*
X-34571020Y-1514219D01*
X-34628401Y-1703380D01*
X-34628402Y-1703383D01*
X-34628496Y-1703558D01*
X-34721583Y-1877712D01*
X-34846985Y-2030515D01*
X-34999788Y-2155917D01*
X-35174119Y-2249099D01*
X-35363280Y-2306480D01*
X-35560000Y-2325855D01*
X-35756719Y-2306480D01*
X-35945880Y-2249099D01*
X-36120212Y-2155917D01*
X-36273015Y-2030515D01*
X-36398417Y-1877712D01*
X-36491599Y-1703381D01*
X-36548980Y-1514220D01*
X-36563500Y-1366794D01*
X-36563500Y-1173207D01*
X-36548980Y-1025781D01*
X-36491599Y-836620D01*
X-36491598Y-836617D01*
X-36442182Y-744167D01*
X-36398417Y-662288D01*
X-36273015Y-509485D01*
X-36120212Y-384083D01*
X-35945881Y-290901D01*
X-35756720Y-233520D01*
X-35560000Y-214145D01*
X-35363281Y-233520D01*
X-35363281Y-233520D01*
G37*
G36*
X-39636500Y-2321000D02*
G01*
X-41643500Y-2321000D01*
X-41643500Y-219000D01*
X-39636500Y-219000D01*
X-39636500Y-2321000D01*
X-39636500Y-2321000D01*
G37*
G36*
X5190442Y894482D02*
G01*
X5256627Y887963D01*
X5426466Y836443D01*
X5582991Y752778D01*
X5618729Y723448D01*
X5720186Y640186D01*
X5803448Y538729D01*
X5832778Y502991D01*
X5916443Y346466D01*
X5967963Y176627D01*
X5985359Y0D01*
X5967963Y-176627D01*
X5916443Y-346466D01*
X5832778Y-502991D01*
X5827448Y-509485D01*
X5720186Y-640186D01*
X5618729Y-723448D01*
X5582991Y-752778D01*
X5426466Y-836443D01*
X5256627Y-887963D01*
X5190442Y-894482D01*
X5124260Y-901000D01*
X5035740Y-901000D01*
X4969558Y-894482D01*
X4903373Y-887963D01*
X4733534Y-836443D01*
X4577009Y-752778D01*
X4541271Y-723448D01*
X4439814Y-640186D01*
X4332552Y-509485D01*
X4327222Y-502991D01*
X4243557Y-346466D01*
X4192037Y-176627D01*
X4174641Y0D01*
X4192037Y176627D01*
X4243557Y346466D01*
X4327222Y502991D01*
X4356552Y538729D01*
X4439814Y640186D01*
X4541271Y723448D01*
X4577009Y752778D01*
X4733534Y836443D01*
X4903373Y887963D01*
X4969558Y894482D01*
X5035740Y901000D01*
X5124260Y901000D01*
X5190442Y894482D01*
X5190442Y894482D01*
G37*
G36*
X15350442Y894482D02*
G01*
X15416627Y887963D01*
X15586466Y836443D01*
X15742991Y752778D01*
X15778729Y723448D01*
X15880186Y640186D01*
X15963448Y538729D01*
X15992778Y502991D01*
X16076443Y346466D01*
X16127963Y176627D01*
X16145359Y0D01*
X16127963Y-176627D01*
X16076443Y-346466D01*
X15992778Y-502991D01*
X15987448Y-509485D01*
X15880186Y-640186D01*
X15778729Y-723448D01*
X15742991Y-752778D01*
X15586466Y-836443D01*
X15416627Y-887963D01*
X15350442Y-894482D01*
X15284260Y-901000D01*
X15195740Y-901000D01*
X15129558Y-894482D01*
X15063373Y-887963D01*
X14893534Y-836443D01*
X14737009Y-752778D01*
X14701271Y-723448D01*
X14599814Y-640186D01*
X14492552Y-509485D01*
X14487222Y-502991D01*
X14403557Y-346466D01*
X14352037Y-176627D01*
X14334641Y0D01*
X14352037Y176627D01*
X14403557Y346466D01*
X14487222Y502991D01*
X14516552Y538729D01*
X14599814Y640186D01*
X14701271Y723448D01*
X14737009Y752778D01*
X14893534Y836443D01*
X15063373Y887963D01*
X15129558Y894482D01*
X15195740Y901000D01*
X15284260Y901000D01*
X15350442Y894482D01*
X15350442Y894482D01*
G37*
G36*
X2650442Y894482D02*
G01*
X2716627Y887963D01*
X2886466Y836443D01*
X3042991Y752778D01*
X3078729Y723448D01*
X3180186Y640186D01*
X3263448Y538729D01*
X3292778Y502991D01*
X3376443Y346466D01*
X3427963Y176627D01*
X3445359Y0D01*
X3427963Y-176627D01*
X3376443Y-346466D01*
X3292778Y-502991D01*
X3287448Y-509485D01*
X3180186Y-640186D01*
X3078729Y-723448D01*
X3042991Y-752778D01*
X2886466Y-836443D01*
X2716627Y-887963D01*
X2650442Y-894482D01*
X2584260Y-901000D01*
X2495740Y-901000D01*
X2429558Y-894482D01*
X2363373Y-887963D01*
X2193534Y-836443D01*
X2037009Y-752778D01*
X2001271Y-723448D01*
X1899814Y-640186D01*
X1792552Y-509485D01*
X1787222Y-502991D01*
X1703557Y-346466D01*
X1652037Y-176627D01*
X1634641Y0D01*
X1652037Y176627D01*
X1703557Y346466D01*
X1787222Y502991D01*
X1816552Y538729D01*
X1899814Y640186D01*
X2001271Y723448D01*
X2037009Y752778D01*
X2193534Y836443D01*
X2363373Y887963D01*
X2429558Y894482D01*
X2495740Y901000D01*
X2584260Y901000D01*
X2650442Y894482D01*
X2650442Y894482D01*
G37*
G36*
X110442Y894482D02*
G01*
X176627Y887963D01*
X346466Y836443D01*
X502991Y752778D01*
X538729Y723448D01*
X640186Y640186D01*
X723448Y538729D01*
X752778Y502991D01*
X836443Y346466D01*
X887963Y176627D01*
X905359Y0D01*
X887963Y-176627D01*
X836443Y-346466D01*
X752778Y-502991D01*
X747448Y-509485D01*
X640186Y-640186D01*
X538729Y-723448D01*
X502991Y-752778D01*
X346466Y-836443D01*
X176627Y-887963D01*
X110442Y-894482D01*
X44260Y-901000D01*
X-44260Y-901000D01*
X-110442Y-894482D01*
X-176627Y-887963D01*
X-346466Y-836443D01*
X-502991Y-752778D01*
X-538729Y-723448D01*
X-640186Y-640186D01*
X-747448Y-509485D01*
X-752778Y-502991D01*
X-836443Y-346466D01*
X-887963Y-176627D01*
X-905359Y0D01*
X-887963Y176627D01*
X-836443Y346466D01*
X-752778Y502991D01*
X-723448Y538729D01*
X-640186Y640186D01*
X-538729Y723448D01*
X-502991Y752778D01*
X-346466Y836443D01*
X-176627Y887963D01*
X-110442Y894482D01*
X-44260Y901000D01*
X44260Y901000D01*
X110442Y894482D01*
X110442Y894482D01*
G37*
G36*
X-2429558Y894482D02*
G01*
X-2363373Y887963D01*
X-2193534Y836443D01*
X-2037009Y752778D01*
X-2001271Y723448D01*
X-1899814Y640186D01*
X-1816552Y538729D01*
X-1787222Y502991D01*
X-1703557Y346466D01*
X-1652037Y176627D01*
X-1634641Y0D01*
X-1652037Y-176627D01*
X-1703557Y-346466D01*
X-1787222Y-502991D01*
X-1792552Y-509485D01*
X-1899814Y-640186D01*
X-2001271Y-723448D01*
X-2037009Y-752778D01*
X-2193534Y-836443D01*
X-2363373Y-887963D01*
X-2429558Y-894482D01*
X-2495740Y-901000D01*
X-2584260Y-901000D01*
X-2650442Y-894482D01*
X-2716627Y-887963D01*
X-2886466Y-836443D01*
X-3042991Y-752778D01*
X-3078729Y-723448D01*
X-3180186Y-640186D01*
X-3287448Y-509485D01*
X-3292778Y-502991D01*
X-3376443Y-346466D01*
X-3427963Y-176627D01*
X-3445359Y0D01*
X-3427963Y176627D01*
X-3376443Y346466D01*
X-3292778Y502991D01*
X-3263448Y538729D01*
X-3180186Y640186D01*
X-3078729Y723448D01*
X-3042991Y752778D01*
X-2886466Y836443D01*
X-2716627Y887963D01*
X-2650442Y894482D01*
X-2584260Y901000D01*
X-2495740Y901000D01*
X-2429558Y894482D01*
X-2429558Y894482D01*
G37*
G36*
X-4969558Y894482D02*
G01*
X-4903373Y887963D01*
X-4733534Y836443D01*
X-4577009Y752778D01*
X-4541271Y723448D01*
X-4439814Y640186D01*
X-4356552Y538729D01*
X-4327222Y502991D01*
X-4243557Y346466D01*
X-4192037Y176627D01*
X-4174641Y0D01*
X-4192037Y-176627D01*
X-4243557Y-346466D01*
X-4327222Y-502991D01*
X-4332552Y-509485D01*
X-4439814Y-640186D01*
X-4541271Y-723448D01*
X-4577009Y-752778D01*
X-4733534Y-836443D01*
X-4903373Y-887963D01*
X-4969558Y-894482D01*
X-5035740Y-901000D01*
X-5124260Y-901000D01*
X-5190442Y-894482D01*
X-5256627Y-887963D01*
X-5426466Y-836443D01*
X-5582991Y-752778D01*
X-5618729Y-723448D01*
X-5720186Y-640186D01*
X-5827448Y-509485D01*
X-5832778Y-502991D01*
X-5916443Y-346466D01*
X-5967963Y-176627D01*
X-5985359Y0D01*
X-5967963Y176627D01*
X-5916443Y346466D01*
X-5832778Y502991D01*
X-5803448Y538729D01*
X-5720186Y640186D01*
X-5618729Y723448D01*
X-5582991Y752778D01*
X-5426466Y836443D01*
X-5256627Y887963D01*
X-5190442Y894482D01*
X-5124260Y901000D01*
X-5035740Y901000D01*
X-4969558Y894482D01*
X-4969558Y894482D01*
G37*
G36*
X-7509558Y894482D02*
G01*
X-7443373Y887963D01*
X-7273534Y836443D01*
X-7117009Y752778D01*
X-7081271Y723448D01*
X-6979814Y640186D01*
X-6896552Y538729D01*
X-6867222Y502991D01*
X-6783557Y346466D01*
X-6732037Y176627D01*
X-6714641Y0D01*
X-6732037Y-176627D01*
X-6783557Y-346466D01*
X-6867222Y-502991D01*
X-6872552Y-509485D01*
X-6979814Y-640186D01*
X-7081271Y-723448D01*
X-7117009Y-752778D01*
X-7273534Y-836443D01*
X-7443373Y-887963D01*
X-7509558Y-894482D01*
X-7575740Y-901000D01*
X-7664260Y-901000D01*
X-7730442Y-894482D01*
X-7796627Y-887963D01*
X-7966466Y-836443D01*
X-8122991Y-752778D01*
X-8158729Y-723448D01*
X-8260186Y-640186D01*
X-8367448Y-509485D01*
X-8372778Y-502991D01*
X-8456443Y-346466D01*
X-8507963Y-176627D01*
X-8525359Y0D01*
X-8507963Y176627D01*
X-8456443Y346466D01*
X-8372778Y502991D01*
X-8343448Y538729D01*
X-8260186Y640186D01*
X-8158729Y723448D01*
X-8122991Y752778D01*
X-7966466Y836443D01*
X-7796627Y887963D01*
X-7730442Y894482D01*
X-7664260Y901000D01*
X-7575740Y901000D01*
X-7509558Y894482D01*
X-7509558Y894482D01*
G37*
G36*
X-10049558Y894482D02*
G01*
X-9983373Y887963D01*
X-9813534Y836443D01*
X-9657009Y752778D01*
X-9621271Y723448D01*
X-9519814Y640186D01*
X-9436552Y538729D01*
X-9407222Y502991D01*
X-9323557Y346466D01*
X-9272037Y176627D01*
X-9254641Y0D01*
X-9272037Y-176627D01*
X-9323557Y-346466D01*
X-9407222Y-502991D01*
X-9412552Y-509485D01*
X-9519814Y-640186D01*
X-9621271Y-723448D01*
X-9657009Y-752778D01*
X-9813534Y-836443D01*
X-9983373Y-887963D01*
X-10049558Y-894482D01*
X-10115740Y-901000D01*
X-10204260Y-901000D01*
X-10270442Y-894482D01*
X-10336627Y-887963D01*
X-10506466Y-836443D01*
X-10662991Y-752778D01*
X-10698729Y-723448D01*
X-10800186Y-640186D01*
X-10907448Y-509485D01*
X-10912778Y-502991D01*
X-10996443Y-346466D01*
X-11047963Y-176627D01*
X-11065359Y0D01*
X-11047963Y176627D01*
X-10996443Y346466D01*
X-10912778Y502991D01*
X-10883448Y538729D01*
X-10800186Y640186D01*
X-10698729Y723448D01*
X-10662991Y752778D01*
X-10506466Y836443D01*
X-10336627Y887963D01*
X-10270442Y894482D01*
X-10204260Y901000D01*
X-10115740Y901000D01*
X-10049558Y894482D01*
X-10049558Y894482D01*
G37*
G36*
X-12589558Y894482D02*
G01*
X-12523373Y887963D01*
X-12353534Y836443D01*
X-12197009Y752778D01*
X-12161271Y723448D01*
X-12059814Y640186D01*
X-11976552Y538729D01*
X-11947222Y502991D01*
X-11863557Y346466D01*
X-11812037Y176627D01*
X-11794641Y0D01*
X-11812037Y-176627D01*
X-11863557Y-346466D01*
X-11947222Y-502991D01*
X-11952552Y-509485D01*
X-12059814Y-640186D01*
X-12161271Y-723448D01*
X-12197009Y-752778D01*
X-12353534Y-836443D01*
X-12523373Y-887963D01*
X-12589558Y-894482D01*
X-12655740Y-901000D01*
X-12744260Y-901000D01*
X-12810442Y-894482D01*
X-12876627Y-887963D01*
X-13046466Y-836443D01*
X-13202991Y-752778D01*
X-13238729Y-723448D01*
X-13340186Y-640186D01*
X-13447448Y-509485D01*
X-13452778Y-502991D01*
X-13536443Y-346466D01*
X-13587963Y-176627D01*
X-13605359Y0D01*
X-13587963Y176627D01*
X-13536443Y346466D01*
X-13452778Y502991D01*
X-13423448Y538729D01*
X-13340186Y640186D01*
X-13238729Y723448D01*
X-13202991Y752778D01*
X-13046466Y836443D01*
X-12876627Y887963D01*
X-12810442Y894482D01*
X-12744260Y901000D01*
X-12655740Y901000D01*
X-12589558Y894482D01*
X-12589558Y894482D01*
G37*
G36*
X-15129558Y894482D02*
G01*
X-15063373Y887963D01*
X-14893534Y836443D01*
X-14737009Y752778D01*
X-14701271Y723448D01*
X-14599814Y640186D01*
X-14516552Y538729D01*
X-14487222Y502991D01*
X-14403557Y346466D01*
X-14352037Y176627D01*
X-14334641Y0D01*
X-14352037Y-176627D01*
X-14403557Y-346466D01*
X-14487222Y-502991D01*
X-14492552Y-509485D01*
X-14599814Y-640186D01*
X-14701271Y-723448D01*
X-14737009Y-752778D01*
X-14893534Y-836443D01*
X-15063373Y-887963D01*
X-15129558Y-894482D01*
X-15195740Y-901000D01*
X-15284260Y-901000D01*
X-15350442Y-894482D01*
X-15416627Y-887963D01*
X-15586466Y-836443D01*
X-15742991Y-752778D01*
X-15778729Y-723448D01*
X-15880186Y-640186D01*
X-15987448Y-509485D01*
X-15992778Y-502991D01*
X-16076443Y-346466D01*
X-16127963Y-176627D01*
X-16145359Y0D01*
X-16127963Y176627D01*
X-16076443Y346466D01*
X-15992778Y502991D01*
X-15963448Y538729D01*
X-15880186Y640186D01*
X-15778729Y723448D01*
X-15742991Y752778D01*
X-15586466Y836443D01*
X-15416627Y887963D01*
X-15350442Y894482D01*
X-15284260Y901000D01*
X-15195740Y901000D01*
X-15129558Y894482D01*
X-15129558Y894482D01*
G37*
G36*
X-17669558Y894482D02*
G01*
X-17603373Y887963D01*
X-17433534Y836443D01*
X-17277009Y752778D01*
X-17241271Y723448D01*
X-17139814Y640186D01*
X-17056552Y538729D01*
X-17027222Y502991D01*
X-16943557Y346466D01*
X-16892037Y176627D01*
X-16874641Y0D01*
X-16892037Y-176627D01*
X-16943557Y-346466D01*
X-17027222Y-502991D01*
X-17032552Y-509485D01*
X-17139814Y-640186D01*
X-17241271Y-723448D01*
X-17277009Y-752778D01*
X-17433534Y-836443D01*
X-17603373Y-887963D01*
X-17669558Y-894482D01*
X-17735740Y-901000D01*
X-17824260Y-901000D01*
X-17890442Y-894482D01*
X-17956627Y-887963D01*
X-18126466Y-836443D01*
X-18282991Y-752778D01*
X-18318729Y-723448D01*
X-18420186Y-640186D01*
X-18527448Y-509485D01*
X-18532778Y-502991D01*
X-18616443Y-346466D01*
X-18667963Y-176627D01*
X-18685359Y0D01*
X-18667963Y176627D01*
X-18616443Y346466D01*
X-18532778Y502991D01*
X-18503448Y538729D01*
X-18420186Y640186D01*
X-18318729Y723448D01*
X-18282991Y752778D01*
X-18126466Y836443D01*
X-17956627Y887963D01*
X-17890442Y894482D01*
X-17824260Y901000D01*
X-17735740Y901000D01*
X-17669558Y894482D01*
X-17669558Y894482D01*
G37*
G36*
X-20209558Y894482D02*
G01*
X-20143373Y887963D01*
X-19973534Y836443D01*
X-19817009Y752778D01*
X-19781271Y723448D01*
X-19679814Y640186D01*
X-19596552Y538729D01*
X-19567222Y502991D01*
X-19483557Y346466D01*
X-19432037Y176627D01*
X-19414641Y0D01*
X-19432037Y-176627D01*
X-19483557Y-346466D01*
X-19567222Y-502991D01*
X-19572552Y-509485D01*
X-19679814Y-640186D01*
X-19781271Y-723448D01*
X-19817009Y-752778D01*
X-19973534Y-836443D01*
X-20143373Y-887963D01*
X-20209558Y-894482D01*
X-20275740Y-901000D01*
X-20364260Y-901000D01*
X-20430442Y-894482D01*
X-20496627Y-887963D01*
X-20666466Y-836443D01*
X-20822991Y-752778D01*
X-20858729Y-723448D01*
X-20960186Y-640186D01*
X-21067448Y-509485D01*
X-21072778Y-502991D01*
X-21156443Y-346466D01*
X-21207963Y-176627D01*
X-21225359Y0D01*
X-21207963Y176627D01*
X-21156443Y346466D01*
X-21072778Y502991D01*
X-21043448Y538729D01*
X-20960186Y640186D01*
X-20858729Y723448D01*
X-20822991Y752778D01*
X-20666466Y836443D01*
X-20496627Y887963D01*
X-20430442Y894482D01*
X-20364260Y901000D01*
X-20275740Y901000D01*
X-20209558Y894482D01*
X-20209558Y894482D01*
G37*
G36*
X-22749558Y894482D02*
G01*
X-22683373Y887963D01*
X-22513534Y836443D01*
X-22357009Y752778D01*
X-22321271Y723448D01*
X-22219814Y640186D01*
X-22136552Y538729D01*
X-22107222Y502991D01*
X-22023557Y346466D01*
X-21972037Y176627D01*
X-21954641Y0D01*
X-21972037Y-176627D01*
X-22023557Y-346466D01*
X-22107222Y-502991D01*
X-22112552Y-509485D01*
X-22219814Y-640186D01*
X-22321271Y-723448D01*
X-22357009Y-752778D01*
X-22513534Y-836443D01*
X-22683373Y-887963D01*
X-22749558Y-894482D01*
X-22815740Y-901000D01*
X-22904260Y-901000D01*
X-22970442Y-894482D01*
X-23036627Y-887963D01*
X-23206466Y-836443D01*
X-23362991Y-752778D01*
X-23398729Y-723448D01*
X-23500186Y-640186D01*
X-23607448Y-509485D01*
X-23612778Y-502991D01*
X-23696443Y-346466D01*
X-23747963Y-176627D01*
X-23765359Y0D01*
X-23747963Y176627D01*
X-23696443Y346466D01*
X-23612778Y502991D01*
X-23583448Y538729D01*
X-23500186Y640186D01*
X-23398729Y723448D01*
X-23362991Y752778D01*
X-23206466Y836443D01*
X-23036627Y887963D01*
X-22970442Y894482D01*
X-22904260Y901000D01*
X-22815740Y901000D01*
X-22749558Y894482D01*
X-22749558Y894482D01*
G37*
G36*
X-25289558Y894482D02*
G01*
X-25223373Y887963D01*
X-25053534Y836443D01*
X-24897009Y752778D01*
X-24861271Y723448D01*
X-24759814Y640186D01*
X-24676552Y538729D01*
X-24647222Y502991D01*
X-24563557Y346466D01*
X-24512037Y176627D01*
X-24494641Y0D01*
X-24512037Y-176627D01*
X-24563557Y-346466D01*
X-24647222Y-502991D01*
X-24652552Y-509485D01*
X-24759814Y-640186D01*
X-24861271Y-723448D01*
X-24897009Y-752778D01*
X-25053534Y-836443D01*
X-25223373Y-887963D01*
X-25289558Y-894482D01*
X-25355740Y-901000D01*
X-25444260Y-901000D01*
X-25510442Y-894482D01*
X-25576627Y-887963D01*
X-25746466Y-836443D01*
X-25902991Y-752778D01*
X-25938729Y-723448D01*
X-26040186Y-640186D01*
X-26147448Y-509485D01*
X-26152778Y-502991D01*
X-26236443Y-346466D01*
X-26287963Y-176627D01*
X-26305359Y0D01*
X-26287963Y176627D01*
X-26236443Y346466D01*
X-26152778Y502991D01*
X-26123448Y538729D01*
X-26040186Y640186D01*
X-25938729Y723448D01*
X-25902991Y752778D01*
X-25746466Y836443D01*
X-25576627Y887963D01*
X-25510442Y894482D01*
X-25444260Y901000D01*
X-25355740Y901000D01*
X-25289558Y894482D01*
X-25289558Y894482D01*
G37*
G36*
X-27829558Y894482D02*
G01*
X-27763373Y887963D01*
X-27593534Y836443D01*
X-27437009Y752778D01*
X-27401271Y723448D01*
X-27299814Y640186D01*
X-27216552Y538729D01*
X-27187222Y502991D01*
X-27103557Y346466D01*
X-27052037Y176627D01*
X-27034641Y0D01*
X-27052037Y-176627D01*
X-27103557Y-346466D01*
X-27187222Y-502991D01*
X-27192552Y-509485D01*
X-27299814Y-640186D01*
X-27401271Y-723448D01*
X-27437009Y-752778D01*
X-27593534Y-836443D01*
X-27763373Y-887963D01*
X-27829558Y-894482D01*
X-27895740Y-901000D01*
X-27984260Y-901000D01*
X-28050442Y-894482D01*
X-28116627Y-887963D01*
X-28286466Y-836443D01*
X-28442991Y-752778D01*
X-28478729Y-723448D01*
X-28580186Y-640186D01*
X-28687448Y-509485D01*
X-28692778Y-502991D01*
X-28776443Y-346466D01*
X-28827963Y-176627D01*
X-28845359Y0D01*
X-28827963Y176627D01*
X-28776443Y346466D01*
X-28692778Y502991D01*
X-28663448Y538729D01*
X-28580186Y640186D01*
X-28478729Y723448D01*
X-28442991Y752778D01*
X-28286466Y836443D01*
X-28116627Y887963D01*
X-28050442Y894482D01*
X-27984260Y901000D01*
X-27895740Y901000D01*
X-27829558Y894482D01*
X-27829558Y894482D01*
G37*
G36*
X-29579000Y-901000D02*
G01*
X-31381000Y-901000D01*
X-31381000Y901000D01*
X-29579000Y901000D01*
X-29579000Y-901000D01*
X-29579000Y-901000D01*
G37*
G36*
X12810442Y894482D02*
G01*
X12876627Y887963D01*
X13046466Y836443D01*
X13202991Y752778D01*
X13238729Y723448D01*
X13340186Y640186D01*
X13423448Y538729D01*
X13452778Y502991D01*
X13536443Y346466D01*
X13587963Y176627D01*
X13605359Y0D01*
X13587963Y-176627D01*
X13536443Y-346466D01*
X13452778Y-502991D01*
X13447448Y-509485D01*
X13340186Y-640186D01*
X13238729Y-723448D01*
X13202991Y-752778D01*
X13046466Y-836443D01*
X12876627Y-887963D01*
X12810442Y-894482D01*
X12744260Y-901000D01*
X12655740Y-901000D01*
X12589558Y-894482D01*
X12523373Y-887963D01*
X12353534Y-836443D01*
X12197009Y-752778D01*
X12161271Y-723448D01*
X12059814Y-640186D01*
X11952552Y-509485D01*
X11947222Y-502991D01*
X11863557Y-346466D01*
X11812037Y-176627D01*
X11794641Y0D01*
X11812037Y176627D01*
X11863557Y346466D01*
X11947222Y502991D01*
X11976552Y538729D01*
X12059814Y640186D01*
X12161271Y723448D01*
X12197009Y752778D01*
X12353534Y836443D01*
X12523373Y887963D01*
X12589558Y894482D01*
X12655740Y901000D01*
X12744260Y901000D01*
X12810442Y894482D01*
X12810442Y894482D01*
G37*
G36*
X10270442Y894482D02*
G01*
X10336627Y887963D01*
X10506466Y836443D01*
X10662991Y752778D01*
X10698729Y723448D01*
X10800186Y640186D01*
X10883448Y538729D01*
X10912778Y502991D01*
X10996443Y346466D01*
X11047963Y176627D01*
X11065359Y0D01*
X11047963Y-176627D01*
X10996443Y-346466D01*
X10912778Y-502991D01*
X10907448Y-509485D01*
X10800186Y-640186D01*
X10698729Y-723448D01*
X10662991Y-752778D01*
X10506466Y-836443D01*
X10336627Y-887963D01*
X10270442Y-894482D01*
X10204260Y-901000D01*
X10115740Y-901000D01*
X10049558Y-894482D01*
X9983373Y-887963D01*
X9813534Y-836443D01*
X9657009Y-752778D01*
X9621271Y-723448D01*
X9519814Y-640186D01*
X9412552Y-509485D01*
X9407222Y-502991D01*
X9323557Y-346466D01*
X9272037Y-176627D01*
X9254641Y0D01*
X9272037Y176627D01*
X9323557Y346466D01*
X9407222Y502991D01*
X9436552Y538729D01*
X9519814Y640186D01*
X9621271Y723448D01*
X9657009Y752778D01*
X9813534Y836443D01*
X9983373Y887963D01*
X10049558Y894482D01*
X10115740Y901000D01*
X10204260Y901000D01*
X10270442Y894482D01*
X10270442Y894482D01*
G37*
G36*
X7730442Y894482D02*
G01*
X7796627Y887963D01*
X7966466Y836443D01*
X8122991Y752778D01*
X8158729Y723448D01*
X8260186Y640186D01*
X8343448Y538729D01*
X8372778Y502991D01*
X8456443Y346466D01*
X8507963Y176627D01*
X8525359Y0D01*
X8507963Y-176627D01*
X8456443Y-346466D01*
X8372778Y-502991D01*
X8367448Y-509485D01*
X8260186Y-640186D01*
X8158729Y-723448D01*
X8122991Y-752778D01*
X7966466Y-836443D01*
X7796627Y-887963D01*
X7730442Y-894482D01*
X7664260Y-901000D01*
X7575740Y-901000D01*
X7509558Y-894482D01*
X7443373Y-887963D01*
X7273534Y-836443D01*
X7117009Y-752778D01*
X7081271Y-723448D01*
X6979814Y-640186D01*
X6872552Y-509485D01*
X6867222Y-502991D01*
X6783557Y-346466D01*
X6732037Y-176627D01*
X6714641Y0D01*
X6732037Y176627D01*
X6783557Y346466D01*
X6867222Y502991D01*
X6896552Y538729D01*
X6979814Y640186D01*
X7081271Y723448D01*
X7117009Y752778D01*
X7273534Y836443D01*
X7443373Y887963D01*
X7509558Y894482D01*
X7575740Y901000D01*
X7664260Y901000D01*
X7730442Y894482D01*
X7730442Y894482D01*
G37*
G36*
X-37923331Y17182314D02*
G01*
X-37746942Y17164941D01*
X-37407452Y17061958D01*
X-37407450Y17061957D01*
X-37094578Y16894723D01*
X-37094576Y16894722D01*
X-37094577Y16894722D01*
X-36820339Y16669661D01*
X-36595278Y16395423D01*
X-36428042Y16082548D01*
X-36325059Y15743058D01*
X-36290286Y15390000D01*
X-36325059Y15036942D01*
X-36428042Y14697452D01*
X-36428043Y14697450D01*
X-36595277Y14384578D01*
X-36820339Y14110339D01*
X-37094578Y13885277D01*
X-37407450Y13718043D01*
X-37407452Y13718042D01*
X-37746942Y13615059D01*
X-37923331Y13597686D01*
X-38011524Y13589000D01*
X-38188476Y13589000D01*
X-38276669Y13597686D01*
X-38453058Y13615059D01*
X-38792548Y13718042D01*
X-38792550Y13718043D01*
X-39105422Y13885277D01*
X-39379661Y14110339D01*
X-39604723Y14384578D01*
X-39771957Y14697450D01*
X-39771958Y14697452D01*
X-39874941Y15036942D01*
X-39909714Y15390000D01*
X-39874941Y15743058D01*
X-39771958Y16082548D01*
X-39604722Y16395423D01*
X-39379661Y16669661D01*
X-39105423Y16894722D01*
X-39105424Y16894722D01*
X-39105422Y16894723D01*
X-38792550Y17061957D01*
X-38792548Y17061958D01*
X-38453058Y17164941D01*
X-38276669Y17182314D01*
X-38188476Y17191000D01*
X-38011524Y17191000D01*
X-37923331Y17182314D01*
X-37923331Y17182314D01*
G37*
G36*
X19909549Y23988884D02*
G01*
X20020734Y23966768D01*
X20230203Y23880003D01*
X20418720Y23754040D01*
X20579040Y23593720D01*
X20705003Y23405203D01*
X20791768Y23195734D01*
X20836000Y22973364D01*
X20836000Y22746636D01*
X20791768Y22524266D01*
X20705003Y22314797D01*
X20579040Y22126280D01*
X20418720Y21965960D01*
X20230203Y21839997D01*
X20020734Y21753232D01*
X19909549Y21731116D01*
X19798365Y21709000D01*
X19571635Y21709000D01*
X19460451Y21731116D01*
X19349266Y21753232D01*
X19139797Y21839997D01*
X18951280Y21965960D01*
X18790960Y22126280D01*
X18664997Y22314797D01*
X18578232Y22524266D01*
X18534000Y22746636D01*
X18534000Y22973364D01*
X18578232Y23195734D01*
X18664997Y23405203D01*
X18790960Y23593720D01*
X18951280Y23754040D01*
X19139797Y23880003D01*
X19349266Y23966768D01*
X19460451Y23988884D01*
X19571635Y24011000D01*
X19798365Y24011000D01*
X19909549Y23988884D01*
X19909549Y23988884D01*
G37*
G36*
X-41685451Y23988884D02*
G01*
X-41574266Y23966768D01*
X-41364797Y23880003D01*
X-41176280Y23754040D01*
X-41015960Y23593720D01*
X-40889997Y23405203D01*
X-40803232Y23195734D01*
X-40759000Y22973364D01*
X-40759000Y22746636D01*
X-40803232Y22524266D01*
X-40889997Y22314797D01*
X-41015960Y22126280D01*
X-41176280Y21965960D01*
X-41364797Y21839997D01*
X-41574266Y21753232D01*
X-41685451Y21731116D01*
X-41796635Y21709000D01*
X-42023365Y21709000D01*
X-42134549Y21731116D01*
X-42245734Y21753232D01*
X-42455203Y21839997D01*
X-42643720Y21965960D01*
X-42804040Y22126280D01*
X-42930003Y22314797D01*
X-43016768Y22524266D01*
X-43061000Y22746636D01*
X-43061000Y22973364D01*
X-43016768Y23195734D01*
X-42930003Y23405203D01*
X-42804040Y23593720D01*
X-42643720Y23754040D01*
X-42455203Y23880003D01*
X-42245734Y23966768D01*
X-42134549Y23988884D01*
X-42023365Y24011000D01*
X-41796635Y24011000D01*
X-41685451Y23988884D01*
X-41685451Y23988884D01*
G37*
G36*
X-22749558Y23754482D02*
G01*
X-22683373Y23747963D01*
X-22513534Y23696443D01*
X-22357009Y23612778D01*
X-22333787Y23593720D01*
X-22219814Y23500186D01*
X-22141865Y23405203D01*
X-22107222Y23362991D01*
X-22023557Y23206466D01*
X-21972037Y23036627D01*
X-21954641Y22860000D01*
X-21972037Y22683373D01*
X-22023557Y22513534D01*
X-22107222Y22357009D01*
X-22136552Y22321271D01*
X-22219814Y22219814D01*
X-22321271Y22136552D01*
X-22357009Y22107222D01*
X-22513534Y22023557D01*
X-22683373Y21972037D01*
X-22745075Y21965960D01*
X-22815740Y21959000D01*
X-22904260Y21959000D01*
X-22974925Y21965960D01*
X-23036627Y21972037D01*
X-23206466Y22023557D01*
X-23362991Y22107222D01*
X-23398729Y22136552D01*
X-23500186Y22219814D01*
X-23583448Y22321271D01*
X-23612778Y22357009D01*
X-23696443Y22513534D01*
X-23747963Y22683373D01*
X-23765359Y22860000D01*
X-23747963Y23036627D01*
X-23696443Y23206466D01*
X-23612778Y23362991D01*
X-23578135Y23405203D01*
X-23500186Y23500186D01*
X-23386213Y23593720D01*
X-23362991Y23612778D01*
X-23206466Y23696443D01*
X-23036627Y23747963D01*
X-22970442Y23754482D01*
X-22904260Y23761000D01*
X-22815740Y23761000D01*
X-22749558Y23754482D01*
X-22749558Y23754482D01*
G37*
G36*
X-25289558Y23754482D02*
G01*
X-25223373Y23747963D01*
X-25053534Y23696443D01*
X-24897009Y23612778D01*
X-24873787Y23593720D01*
X-24759814Y23500186D01*
X-24681865Y23405203D01*
X-24647222Y23362991D01*
X-24563557Y23206466D01*
X-24512037Y23036627D01*
X-24494641Y22860000D01*
X-24512037Y22683373D01*
X-24563557Y22513534D01*
X-24647222Y22357009D01*
X-24676552Y22321271D01*
X-24759814Y22219814D01*
X-24861271Y22136552D01*
X-24897009Y22107222D01*
X-25053534Y22023557D01*
X-25223373Y21972037D01*
X-25285075Y21965960D01*
X-25355740Y21959000D01*
X-25444260Y21959000D01*
X-25514925Y21965960D01*
X-25576627Y21972037D01*
X-25746466Y22023557D01*
X-25902991Y22107222D01*
X-25938729Y22136552D01*
X-26040186Y22219814D01*
X-26123448Y22321271D01*
X-26152778Y22357009D01*
X-26236443Y22513534D01*
X-26287963Y22683373D01*
X-26305359Y22860000D01*
X-26287963Y23036627D01*
X-26236443Y23206466D01*
X-26152778Y23362991D01*
X-26118135Y23405203D01*
X-26040186Y23500186D01*
X-25926213Y23593720D01*
X-25902991Y23612778D01*
X-25746466Y23696443D01*
X-25576627Y23747963D01*
X-25510442Y23754482D01*
X-25444260Y23761000D01*
X-25355740Y23761000D01*
X-25289558Y23754482D01*
X-25289558Y23754482D01*
G37*
G36*
X-27829558Y23754482D02*
G01*
X-27763373Y23747963D01*
X-27593534Y23696443D01*
X-27437009Y23612778D01*
X-27413787Y23593720D01*
X-27299814Y23500186D01*
X-27221865Y23405203D01*
X-27187222Y23362991D01*
X-27103557Y23206466D01*
X-27052037Y23036627D01*
X-27034641Y22860000D01*
X-27052037Y22683373D01*
X-27103557Y22513534D01*
X-27187222Y22357009D01*
X-27216552Y22321271D01*
X-27299814Y22219814D01*
X-27401271Y22136552D01*
X-27437009Y22107222D01*
X-27593534Y22023557D01*
X-27763373Y21972037D01*
X-27825075Y21965960D01*
X-27895740Y21959000D01*
X-27984260Y21959000D01*
X-28054925Y21965960D01*
X-28116627Y21972037D01*
X-28286466Y22023557D01*
X-28442991Y22107222D01*
X-28478729Y22136552D01*
X-28580186Y22219814D01*
X-28663448Y22321271D01*
X-28692778Y22357009D01*
X-28776443Y22513534D01*
X-28827963Y22683373D01*
X-28845359Y22860000D01*
X-28827963Y23036627D01*
X-28776443Y23206466D01*
X-28692778Y23362991D01*
X-28658135Y23405203D01*
X-28580186Y23500186D01*
X-28466213Y23593720D01*
X-28442991Y23612778D01*
X-28286466Y23696443D01*
X-28116627Y23747963D01*
X-28050442Y23754482D01*
X-27984260Y23761000D01*
X-27895740Y23761000D01*
X-27829558Y23754482D01*
X-27829558Y23754482D01*
G37*
G36*
X-30369558Y23754482D02*
G01*
X-30303373Y23747963D01*
X-30133534Y23696443D01*
X-29977009Y23612778D01*
X-29953787Y23593720D01*
X-29839814Y23500186D01*
X-29761865Y23405203D01*
X-29727222Y23362991D01*
X-29643557Y23206466D01*
X-29592037Y23036627D01*
X-29574641Y22860000D01*
X-29592037Y22683373D01*
X-29643557Y22513534D01*
X-29727222Y22357009D01*
X-29756552Y22321271D01*
X-29839814Y22219814D01*
X-29941271Y22136552D01*
X-29977009Y22107222D01*
X-30133534Y22023557D01*
X-30303373Y21972037D01*
X-30365075Y21965960D01*
X-30435740Y21959000D01*
X-30524260Y21959000D01*
X-30594925Y21965960D01*
X-30656627Y21972037D01*
X-30826466Y22023557D01*
X-30982991Y22107222D01*
X-31018729Y22136552D01*
X-31120186Y22219814D01*
X-31203448Y22321271D01*
X-31232778Y22357009D01*
X-31316443Y22513534D01*
X-31367963Y22683373D01*
X-31385359Y22860000D01*
X-31367963Y23036627D01*
X-31316443Y23206466D01*
X-31232778Y23362991D01*
X-31198135Y23405203D01*
X-31120186Y23500186D01*
X-31006213Y23593720D01*
X-30982991Y23612778D01*
X-30826466Y23696443D01*
X-30656627Y23747963D01*
X-30590442Y23754482D01*
X-30524260Y23761000D01*
X-30435740Y23761000D01*
X-30369558Y23754482D01*
X-30369558Y23754482D01*
G37*
G36*
X-20209558Y23754482D02*
G01*
X-20143373Y23747963D01*
X-19973534Y23696443D01*
X-19817009Y23612778D01*
X-19793787Y23593720D01*
X-19679814Y23500186D01*
X-19601865Y23405203D01*
X-19567222Y23362991D01*
X-19483557Y23206466D01*
X-19432037Y23036627D01*
X-19414641Y22860000D01*
X-19432037Y22683373D01*
X-19483557Y22513534D01*
X-19567222Y22357009D01*
X-19596552Y22321271D01*
X-19679814Y22219814D01*
X-19781271Y22136552D01*
X-19817009Y22107222D01*
X-19973534Y22023557D01*
X-20143373Y21972037D01*
X-20205075Y21965960D01*
X-20275740Y21959000D01*
X-20364260Y21959000D01*
X-20434925Y21965960D01*
X-20496627Y21972037D01*
X-20666466Y22023557D01*
X-20822991Y22107222D01*
X-20858729Y22136552D01*
X-20960186Y22219814D01*
X-21043448Y22321271D01*
X-21072778Y22357009D01*
X-21156443Y22513534D01*
X-21207963Y22683373D01*
X-21225359Y22860000D01*
X-21207963Y23036627D01*
X-21156443Y23206466D01*
X-21072778Y23362991D01*
X-21038135Y23405203D01*
X-20960186Y23500186D01*
X-20846213Y23593720D01*
X-20822991Y23612778D01*
X-20666466Y23696443D01*
X-20496627Y23747963D01*
X-20430442Y23754482D01*
X-20364260Y23761000D01*
X-20275740Y23761000D01*
X-20209558Y23754482D01*
X-20209558Y23754482D01*
G37*
G36*
X-17669558Y23754482D02*
G01*
X-17603373Y23747963D01*
X-17433534Y23696443D01*
X-17277009Y23612778D01*
X-17253787Y23593720D01*
X-17139814Y23500186D01*
X-17061865Y23405203D01*
X-17027222Y23362991D01*
X-16943557Y23206466D01*
X-16892037Y23036627D01*
X-16874641Y22860000D01*
X-16892037Y22683373D01*
X-16943557Y22513534D01*
X-17027222Y22357009D01*
X-17056552Y22321271D01*
X-17139814Y22219814D01*
X-17241271Y22136552D01*
X-17277009Y22107222D01*
X-17433534Y22023557D01*
X-17603373Y21972037D01*
X-17665075Y21965960D01*
X-17735740Y21959000D01*
X-17824260Y21959000D01*
X-17894925Y21965960D01*
X-17956627Y21972037D01*
X-18126466Y22023557D01*
X-18282991Y22107222D01*
X-18318729Y22136552D01*
X-18420186Y22219814D01*
X-18503448Y22321271D01*
X-18532778Y22357009D01*
X-18616443Y22513534D01*
X-18667963Y22683373D01*
X-18685359Y22860000D01*
X-18667963Y23036627D01*
X-18616443Y23206466D01*
X-18532778Y23362991D01*
X-18498135Y23405203D01*
X-18420186Y23500186D01*
X-18306213Y23593720D01*
X-18282991Y23612778D01*
X-18126466Y23696443D01*
X-17956627Y23747963D01*
X-17890442Y23754482D01*
X-17824260Y23761000D01*
X-17735740Y23761000D01*
X-17669558Y23754482D01*
X-17669558Y23754482D01*
G37*
G36*
X-15129558Y23754482D02*
G01*
X-15063373Y23747963D01*
X-14893534Y23696443D01*
X-14737009Y23612778D01*
X-14713787Y23593720D01*
X-14599814Y23500186D01*
X-14521865Y23405203D01*
X-14487222Y23362991D01*
X-14403557Y23206466D01*
X-14352037Y23036627D01*
X-14334641Y22860000D01*
X-14352037Y22683373D01*
X-14403557Y22513534D01*
X-14487222Y22357009D01*
X-14516552Y22321271D01*
X-14599814Y22219814D01*
X-14701271Y22136552D01*
X-14737009Y22107222D01*
X-14893534Y22023557D01*
X-15063373Y21972037D01*
X-15125075Y21965960D01*
X-15195740Y21959000D01*
X-15284260Y21959000D01*
X-15354925Y21965960D01*
X-15416627Y21972037D01*
X-15586466Y22023557D01*
X-15742991Y22107222D01*
X-15778729Y22136552D01*
X-15880186Y22219814D01*
X-15963448Y22321271D01*
X-15992778Y22357009D01*
X-16076443Y22513534D01*
X-16127963Y22683373D01*
X-16145359Y22860000D01*
X-16127963Y23036627D01*
X-16076443Y23206466D01*
X-15992778Y23362991D01*
X-15958135Y23405203D01*
X-15880186Y23500186D01*
X-15766213Y23593720D01*
X-15742991Y23612778D01*
X-15586466Y23696443D01*
X-15416627Y23747963D01*
X-15350442Y23754482D01*
X-15284260Y23761000D01*
X-15195740Y23761000D01*
X-15129558Y23754482D01*
X-15129558Y23754482D01*
G37*
G36*
X-12589558Y23754482D02*
G01*
X-12523373Y23747963D01*
X-12353534Y23696443D01*
X-12197009Y23612778D01*
X-12173787Y23593720D01*
X-12059814Y23500186D01*
X-11981865Y23405203D01*
X-11947222Y23362991D01*
X-11863557Y23206466D01*
X-11812037Y23036627D01*
X-11794641Y22860000D01*
X-11812037Y22683373D01*
X-11863557Y22513534D01*
X-11947222Y22357009D01*
X-11976552Y22321271D01*
X-12059814Y22219814D01*
X-12161271Y22136552D01*
X-12197009Y22107222D01*
X-12353534Y22023557D01*
X-12523373Y21972037D01*
X-12585075Y21965960D01*
X-12655740Y21959000D01*
X-12744260Y21959000D01*
X-12814925Y21965960D01*
X-12876627Y21972037D01*
X-13046466Y22023557D01*
X-13202991Y22107222D01*
X-13238729Y22136552D01*
X-13340186Y22219814D01*
X-13423448Y22321271D01*
X-13452778Y22357009D01*
X-13536443Y22513534D01*
X-13587963Y22683373D01*
X-13605359Y22860000D01*
X-13587963Y23036627D01*
X-13536443Y23206466D01*
X-13452778Y23362991D01*
X-13418135Y23405203D01*
X-13340186Y23500186D01*
X-13226213Y23593720D01*
X-13202991Y23612778D01*
X-13046466Y23696443D01*
X-12876627Y23747963D01*
X-12810442Y23754482D01*
X-12744260Y23761000D01*
X-12655740Y23761000D01*
X-12589558Y23754482D01*
X-12589558Y23754482D01*
G37*
G36*
X-10049558Y23754482D02*
G01*
X-9983373Y23747963D01*
X-9813534Y23696443D01*
X-9657009Y23612778D01*
X-9633787Y23593720D01*
X-9519814Y23500186D01*
X-9441865Y23405203D01*
X-9407222Y23362991D01*
X-9323557Y23206466D01*
X-9272037Y23036627D01*
X-9254641Y22860000D01*
X-9272037Y22683373D01*
X-9323557Y22513534D01*
X-9407222Y22357009D01*
X-9436552Y22321271D01*
X-9519814Y22219814D01*
X-9621271Y22136552D01*
X-9657009Y22107222D01*
X-9813534Y22023557D01*
X-9983373Y21972037D01*
X-10045075Y21965960D01*
X-10115740Y21959000D01*
X-10204260Y21959000D01*
X-10274925Y21965960D01*
X-10336627Y21972037D01*
X-10506466Y22023557D01*
X-10662991Y22107222D01*
X-10698729Y22136552D01*
X-10800186Y22219814D01*
X-10883448Y22321271D01*
X-10912778Y22357009D01*
X-10996443Y22513534D01*
X-11047963Y22683373D01*
X-11065359Y22860000D01*
X-11047963Y23036627D01*
X-10996443Y23206466D01*
X-10912778Y23362991D01*
X-10878135Y23405203D01*
X-10800186Y23500186D01*
X-10686213Y23593720D01*
X-10662991Y23612778D01*
X-10506466Y23696443D01*
X-10336627Y23747963D01*
X-10270442Y23754482D01*
X-10204260Y23761000D01*
X-10115740Y23761000D01*
X-10049558Y23754482D01*
X-10049558Y23754482D01*
G37*
G36*
X-7509558Y23754482D02*
G01*
X-7443373Y23747963D01*
X-7273534Y23696443D01*
X-7117009Y23612778D01*
X-7093787Y23593720D01*
X-6979814Y23500186D01*
X-6901865Y23405203D01*
X-6867222Y23362991D01*
X-6783557Y23206466D01*
X-6732037Y23036627D01*
X-6714641Y22860000D01*
X-6732037Y22683373D01*
X-6783557Y22513534D01*
X-6867222Y22357009D01*
X-6896552Y22321271D01*
X-6979814Y22219814D01*
X-7081271Y22136552D01*
X-7117009Y22107222D01*
X-7273534Y22023557D01*
X-7443373Y21972037D01*
X-7505075Y21965960D01*
X-7575740Y21959000D01*
X-7664260Y21959000D01*
X-7734925Y21965960D01*
X-7796627Y21972037D01*
X-7966466Y22023557D01*
X-8122991Y22107222D01*
X-8158729Y22136552D01*
X-8260186Y22219814D01*
X-8343448Y22321271D01*
X-8372778Y22357009D01*
X-8456443Y22513534D01*
X-8507963Y22683373D01*
X-8525359Y22860000D01*
X-8507963Y23036627D01*
X-8456443Y23206466D01*
X-8372778Y23362991D01*
X-8338135Y23405203D01*
X-8260186Y23500186D01*
X-8146213Y23593720D01*
X-8122991Y23612778D01*
X-7966466Y23696443D01*
X-7796627Y23747963D01*
X-7730442Y23754482D01*
X-7664260Y23761000D01*
X-7575740Y23761000D01*
X-7509558Y23754482D01*
X-7509558Y23754482D01*
G37*
G36*
X-4969558Y23754482D02*
G01*
X-4903373Y23747963D01*
X-4733534Y23696443D01*
X-4577009Y23612778D01*
X-4553787Y23593720D01*
X-4439814Y23500186D01*
X-4361865Y23405203D01*
X-4327222Y23362991D01*
X-4243557Y23206466D01*
X-4192037Y23036627D01*
X-4174641Y22860000D01*
X-4192037Y22683373D01*
X-4243557Y22513534D01*
X-4327222Y22357009D01*
X-4356552Y22321271D01*
X-4439814Y22219814D01*
X-4541271Y22136552D01*
X-4577009Y22107222D01*
X-4733534Y22023557D01*
X-4903373Y21972037D01*
X-4965075Y21965960D01*
X-5035740Y21959000D01*
X-5124260Y21959000D01*
X-5194925Y21965960D01*
X-5256627Y21972037D01*
X-5426466Y22023557D01*
X-5582991Y22107222D01*
X-5618729Y22136552D01*
X-5720186Y22219814D01*
X-5803448Y22321271D01*
X-5832778Y22357009D01*
X-5916443Y22513534D01*
X-5967963Y22683373D01*
X-5985359Y22860000D01*
X-5967963Y23036627D01*
X-5916443Y23206466D01*
X-5832778Y23362991D01*
X-5798135Y23405203D01*
X-5720186Y23500186D01*
X-5606213Y23593720D01*
X-5582991Y23612778D01*
X-5426466Y23696443D01*
X-5256627Y23747963D01*
X-5190442Y23754482D01*
X-5124260Y23761000D01*
X-5035740Y23761000D01*
X-4969558Y23754482D01*
X-4969558Y23754482D01*
G37*
G36*
X-2429558Y23754482D02*
G01*
X-2363373Y23747963D01*
X-2193534Y23696443D01*
X-2037009Y23612778D01*
X-2013787Y23593720D01*
X-1899814Y23500186D01*
X-1821865Y23405203D01*
X-1787222Y23362991D01*
X-1703557Y23206466D01*
X-1652037Y23036627D01*
X-1634641Y22860000D01*
X-1652037Y22683373D01*
X-1703557Y22513534D01*
X-1787222Y22357009D01*
X-1816552Y22321271D01*
X-1899814Y22219814D01*
X-2001271Y22136552D01*
X-2037009Y22107222D01*
X-2193534Y22023557D01*
X-2363373Y21972037D01*
X-2425075Y21965960D01*
X-2495740Y21959000D01*
X-2584260Y21959000D01*
X-2654925Y21965960D01*
X-2716627Y21972037D01*
X-2886466Y22023557D01*
X-3042991Y22107222D01*
X-3078729Y22136552D01*
X-3180186Y22219814D01*
X-3263448Y22321271D01*
X-3292778Y22357009D01*
X-3376443Y22513534D01*
X-3427963Y22683373D01*
X-3445359Y22860000D01*
X-3427963Y23036627D01*
X-3376443Y23206466D01*
X-3292778Y23362991D01*
X-3258135Y23405203D01*
X-3180186Y23500186D01*
X-3066213Y23593720D01*
X-3042991Y23612778D01*
X-2886466Y23696443D01*
X-2716627Y23747963D01*
X-2650442Y23754482D01*
X-2584260Y23761000D01*
X-2495740Y23761000D01*
X-2429558Y23754482D01*
X-2429558Y23754482D01*
G37*
G36*
X110442Y23754482D02*
G01*
X176627Y23747963D01*
X346466Y23696443D01*
X502991Y23612778D01*
X526213Y23593720D01*
X640186Y23500186D01*
X718135Y23405203D01*
X752778Y23362991D01*
X836443Y23206466D01*
X887963Y23036627D01*
X905359Y22860000D01*
X887963Y22683373D01*
X836443Y22513534D01*
X752778Y22357009D01*
X723448Y22321271D01*
X640186Y22219814D01*
X538729Y22136552D01*
X502991Y22107222D01*
X346466Y22023557D01*
X176627Y21972037D01*
X114925Y21965960D01*
X44260Y21959000D01*
X-44260Y21959000D01*
X-114925Y21965960D01*
X-176627Y21972037D01*
X-346466Y22023557D01*
X-502991Y22107222D01*
X-538729Y22136552D01*
X-640186Y22219814D01*
X-723448Y22321271D01*
X-752778Y22357009D01*
X-836443Y22513534D01*
X-887963Y22683373D01*
X-905359Y22860000D01*
X-887963Y23036627D01*
X-836443Y23206466D01*
X-752778Y23362991D01*
X-718135Y23405203D01*
X-640186Y23500186D01*
X-526213Y23593720D01*
X-502991Y23612778D01*
X-346466Y23696443D01*
X-176627Y23747963D01*
X-110442Y23754482D01*
X-44260Y23761000D01*
X44260Y23761000D01*
X110442Y23754482D01*
X110442Y23754482D01*
G37*
G36*
X2650442Y23754482D02*
G01*
X2716627Y23747963D01*
X2886466Y23696443D01*
X3042991Y23612778D01*
X3066213Y23593720D01*
X3180186Y23500186D01*
X3258135Y23405203D01*
X3292778Y23362991D01*
X3376443Y23206466D01*
X3427963Y23036627D01*
X3445359Y22860000D01*
X3427963Y22683373D01*
X3376443Y22513534D01*
X3292778Y22357009D01*
X3263448Y22321271D01*
X3180186Y22219814D01*
X3078729Y22136552D01*
X3042991Y22107222D01*
X2886466Y22023557D01*
X2716627Y21972037D01*
X2654925Y21965960D01*
X2584260Y21959000D01*
X2495740Y21959000D01*
X2425075Y21965960D01*
X2363373Y21972037D01*
X2193534Y22023557D01*
X2037009Y22107222D01*
X2001271Y22136552D01*
X1899814Y22219814D01*
X1816552Y22321271D01*
X1787222Y22357009D01*
X1703557Y22513534D01*
X1652037Y22683373D01*
X1634641Y22860000D01*
X1652037Y23036627D01*
X1703557Y23206466D01*
X1787222Y23362991D01*
X1821865Y23405203D01*
X1899814Y23500186D01*
X2013787Y23593720D01*
X2037009Y23612778D01*
X2193534Y23696443D01*
X2363373Y23747963D01*
X2429558Y23754482D01*
X2495740Y23761000D01*
X2584260Y23761000D01*
X2650442Y23754482D01*
X2650442Y23754482D01*
G37*
G36*
X5190442Y23754482D02*
G01*
X5256627Y23747963D01*
X5426466Y23696443D01*
X5582991Y23612778D01*
X5606213Y23593720D01*
X5720186Y23500186D01*
X5798135Y23405203D01*
X5832778Y23362991D01*
X5916443Y23206466D01*
X5967963Y23036627D01*
X5985359Y22860000D01*
X5967963Y22683373D01*
X5916443Y22513534D01*
X5832778Y22357009D01*
X5803448Y22321271D01*
X5720186Y22219814D01*
X5618729Y22136552D01*
X5582991Y22107222D01*
X5426466Y22023557D01*
X5256627Y21972037D01*
X5194925Y21965960D01*
X5124260Y21959000D01*
X5035740Y21959000D01*
X4965075Y21965960D01*
X4903373Y21972037D01*
X4733534Y22023557D01*
X4577009Y22107222D01*
X4541271Y22136552D01*
X4439814Y22219814D01*
X4356552Y22321271D01*
X4327222Y22357009D01*
X4243557Y22513534D01*
X4192037Y22683373D01*
X4174641Y22860000D01*
X4192037Y23036627D01*
X4243557Y23206466D01*
X4327222Y23362991D01*
X4361865Y23405203D01*
X4439814Y23500186D01*
X4553787Y23593720D01*
X4577009Y23612778D01*
X4733534Y23696443D01*
X4903373Y23747963D01*
X4969558Y23754482D01*
X5035740Y23761000D01*
X5124260Y23761000D01*
X5190442Y23754482D01*
X5190442Y23754482D01*
G37*
G36*
X7730442Y23754482D02*
G01*
X7796627Y23747963D01*
X7966466Y23696443D01*
X8122991Y23612778D01*
X8146213Y23593720D01*
X8260186Y23500186D01*
X8338135Y23405203D01*
X8372778Y23362991D01*
X8456443Y23206466D01*
X8507963Y23036627D01*
X8525359Y22860000D01*
X8507963Y22683373D01*
X8456443Y22513534D01*
X8372778Y22357009D01*
X8343448Y22321271D01*
X8260186Y22219814D01*
X8158729Y22136552D01*
X8122991Y22107222D01*
X7966466Y22023557D01*
X7796627Y21972037D01*
X7734925Y21965960D01*
X7664260Y21959000D01*
X7575740Y21959000D01*
X7505075Y21965960D01*
X7443373Y21972037D01*
X7273534Y22023557D01*
X7117009Y22107222D01*
X7081271Y22136552D01*
X6979814Y22219814D01*
X6896552Y22321271D01*
X6867222Y22357009D01*
X6783557Y22513534D01*
X6732037Y22683373D01*
X6714641Y22860000D01*
X6732037Y23036627D01*
X6783557Y23206466D01*
X6867222Y23362991D01*
X6901865Y23405203D01*
X6979814Y23500186D01*
X7093787Y23593720D01*
X7117009Y23612778D01*
X7273534Y23696443D01*
X7443373Y23747963D01*
X7509558Y23754482D01*
X7575740Y23761000D01*
X7664260Y23761000D01*
X7730442Y23754482D01*
X7730442Y23754482D01*
G37*
G36*
X10270442Y23754482D02*
G01*
X10336627Y23747963D01*
X10506466Y23696443D01*
X10662991Y23612778D01*
X10686213Y23593720D01*
X10800186Y23500186D01*
X10878135Y23405203D01*
X10912778Y23362991D01*
X10996443Y23206466D01*
X11047963Y23036627D01*
X11065359Y22860000D01*
X11047963Y22683373D01*
X10996443Y22513534D01*
X10912778Y22357009D01*
X10883448Y22321271D01*
X10800186Y22219814D01*
X10698729Y22136552D01*
X10662991Y22107222D01*
X10506466Y22023557D01*
X10336627Y21972037D01*
X10274925Y21965960D01*
X10204260Y21959000D01*
X10115740Y21959000D01*
X10045075Y21965960D01*
X9983373Y21972037D01*
X9813534Y22023557D01*
X9657009Y22107222D01*
X9621271Y22136552D01*
X9519814Y22219814D01*
X9436552Y22321271D01*
X9407222Y22357009D01*
X9323557Y22513534D01*
X9272037Y22683373D01*
X9254641Y22860000D01*
X9272037Y23036627D01*
X9323557Y23206466D01*
X9407222Y23362991D01*
X9441865Y23405203D01*
X9519814Y23500186D01*
X9633787Y23593720D01*
X9657009Y23612778D01*
X9813534Y23696443D01*
X9983373Y23747963D01*
X10049558Y23754482D01*
X10115740Y23761000D01*
X10204260Y23761000D01*
X10270442Y23754482D01*
X10270442Y23754482D01*
G37*
G36*
X12810442Y23754482D02*
G01*
X12876627Y23747963D01*
X13046466Y23696443D01*
X13202991Y23612778D01*
X13226213Y23593720D01*
X13340186Y23500186D01*
X13418135Y23405203D01*
X13452778Y23362991D01*
X13536443Y23206466D01*
X13587963Y23036627D01*
X13605359Y22860000D01*
X13587963Y22683373D01*
X13536443Y22513534D01*
X13452778Y22357009D01*
X13423448Y22321271D01*
X13340186Y22219814D01*
X13238729Y22136552D01*
X13202991Y22107222D01*
X13046466Y22023557D01*
X12876627Y21972037D01*
X12814925Y21965960D01*
X12744260Y21959000D01*
X12655740Y21959000D01*
X12585075Y21965960D01*
X12523373Y21972037D01*
X12353534Y22023557D01*
X12197009Y22107222D01*
X12161271Y22136552D01*
X12059814Y22219814D01*
X11976552Y22321271D01*
X11947222Y22357009D01*
X11863557Y22513534D01*
X11812037Y22683373D01*
X11794641Y22860000D01*
X11812037Y23036627D01*
X11863557Y23206466D01*
X11947222Y23362991D01*
X11981865Y23405203D01*
X12059814Y23500186D01*
X12173787Y23593720D01*
X12197009Y23612778D01*
X12353534Y23696443D01*
X12523373Y23747963D01*
X12589558Y23754482D01*
X12655740Y23761000D01*
X12744260Y23761000D01*
X12810442Y23754482D01*
X12810442Y23754482D01*
G37*
G36*
X15350442Y23754482D02*
G01*
X15416627Y23747963D01*
X15586466Y23696443D01*
X15742991Y23612778D01*
X15766213Y23593720D01*
X15880186Y23500186D01*
X15958135Y23405203D01*
X15992778Y23362991D01*
X16076443Y23206466D01*
X16127963Y23036627D01*
X16145359Y22860000D01*
X16127963Y22683373D01*
X16076443Y22513534D01*
X15992778Y22357009D01*
X15963448Y22321271D01*
X15880186Y22219814D01*
X15778729Y22136552D01*
X15742991Y22107222D01*
X15586466Y22023557D01*
X15416627Y21972037D01*
X15354925Y21965960D01*
X15284260Y21959000D01*
X15195740Y21959000D01*
X15125075Y21965960D01*
X15063373Y21972037D01*
X14893534Y22023557D01*
X14737009Y22107222D01*
X14701271Y22136552D01*
X14599814Y22219814D01*
X14516552Y22321271D01*
X14487222Y22357009D01*
X14403557Y22513534D01*
X14352037Y22683373D01*
X14334641Y22860000D01*
X14352037Y23036627D01*
X14403557Y23206466D01*
X14487222Y23362991D01*
X14521865Y23405203D01*
X14599814Y23500186D01*
X14713787Y23593720D01*
X14737009Y23612778D01*
X14893534Y23696443D01*
X15063373Y23747963D01*
X15129558Y23754482D01*
X15195740Y23761000D01*
X15284260Y23761000D01*
X15350442Y23754482D01*
X15350442Y23754482D01*
G37*
M02*
