G04 #@! TF.GenerationSoftware,KiCad,Pcbnew,(5.1.4-0-10_14)*
G04 #@! TF.CreationDate,2020-05-08T13:11:59-04:00*
G04 #@! TF.ProjectId,balancebot,62616c61-6e63-4656-926f-742e6b696361,0.4.5*
G04 #@! TF.SameCoordinates,Original*
G04 #@! TF.FileFunction,Legend,Top*
G04 #@! TF.FilePolarity,Positive*
%FSLAX46Y46*%
G04 Gerber Fmt 4.6, Leading zero omitted, Abs format (unit mm)*
G04 Created by KiCad (PCBNEW (5.1.4-0-10_14)) date 2020-05-08 13:11:59*
%MOMM*%
%LPD*%
G04 APERTURE LIST*
%ADD10C,0.120000*%
%ADD11C,0.150000*%
%ADD12C,0.300000*%
%ADD13C,0.125000*%
%ADD14C,0.127000*%
G04 APERTURE END LIST*
D10*
X156083000Y-102171500D02*
X156083000Y-104711500D01*
X158686500Y-107375000D02*
X157416500Y-107375000D01*
X158686500Y-104715000D02*
X156083000Y-104711500D01*
X156083000Y-104711500D02*
X156086500Y-105981500D01*
D11*
X135183571Y-65642857D02*
X135183571Y-65309523D01*
X135707380Y-65166666D02*
X135707380Y-65642857D01*
X134707380Y-65642857D01*
X134707380Y-65166666D01*
X135659761Y-64785714D02*
X135707380Y-64642857D01*
X135707380Y-64404761D01*
X135659761Y-64309523D01*
X135612142Y-64261904D01*
X135516904Y-64214285D01*
X135421666Y-64214285D01*
X135326428Y-64261904D01*
X135278809Y-64309523D01*
X135231190Y-64404761D01*
X135183571Y-64595238D01*
X135135952Y-64690476D01*
X135088333Y-64738095D01*
X134993095Y-64785714D01*
X134897857Y-64785714D01*
X134802619Y-64738095D01*
X134755000Y-64690476D01*
X134707380Y-64595238D01*
X134707380Y-64357142D01*
X134755000Y-64214285D01*
X135707380Y-63785714D02*
X134707380Y-63785714D01*
X134707380Y-63404761D01*
X134755000Y-63309523D01*
X134802619Y-63261904D01*
X134897857Y-63214285D01*
X135040714Y-63214285D01*
X135135952Y-63261904D01*
X135183571Y-63309523D01*
X135231190Y-63404761D01*
X135231190Y-63785714D01*
X134707380Y-62880952D02*
X134707380Y-62261904D01*
X135088333Y-62595238D01*
X135088333Y-62452380D01*
X135135952Y-62357142D01*
X135183571Y-62309523D01*
X135278809Y-62261904D01*
X135516904Y-62261904D01*
X135612142Y-62309523D01*
X135659761Y-62357142D01*
X135707380Y-62452380D01*
X135707380Y-62738095D01*
X135659761Y-62833333D01*
X135612142Y-62880952D01*
X134802619Y-61880952D02*
X134755000Y-61833333D01*
X134707380Y-61738095D01*
X134707380Y-61500000D01*
X134755000Y-61404761D01*
X134802619Y-61357142D01*
X134897857Y-61309523D01*
X134993095Y-61309523D01*
X135135952Y-61357142D01*
X135707380Y-61928571D01*
X135707380Y-61309523D01*
X146454761Y-96884714D02*
X146502380Y-96741857D01*
X146502380Y-96503761D01*
X146454761Y-96408523D01*
X146407142Y-96360904D01*
X146311904Y-96313285D01*
X146216666Y-96313285D01*
X146121428Y-96360904D01*
X146073809Y-96408523D01*
X146026190Y-96503761D01*
X145978571Y-96694238D01*
X145930952Y-96789476D01*
X145883333Y-96837095D01*
X145788095Y-96884714D01*
X145692857Y-96884714D01*
X145597619Y-96837095D01*
X145550000Y-96789476D01*
X145502380Y-96694238D01*
X145502380Y-96456142D01*
X145550000Y-96313285D01*
X145835714Y-96027571D02*
X145835714Y-95646619D01*
X145502380Y-95884714D02*
X146359523Y-95884714D01*
X146454761Y-95837095D01*
X146502380Y-95741857D01*
X146502380Y-95646619D01*
X146454761Y-94932333D02*
X146502380Y-95027571D01*
X146502380Y-95218047D01*
X146454761Y-95313285D01*
X146359523Y-95360904D01*
X145978571Y-95360904D01*
X145883333Y-95313285D01*
X145835714Y-95218047D01*
X145835714Y-95027571D01*
X145883333Y-94932333D01*
X145978571Y-94884714D01*
X146073809Y-94884714D01*
X146169047Y-95360904D01*
X145835714Y-94456142D02*
X146835714Y-94456142D01*
X145883333Y-94456142D02*
X145835714Y-94360904D01*
X145835714Y-94170428D01*
X145883333Y-94075190D01*
X145930952Y-94027571D01*
X146026190Y-93979952D01*
X146311904Y-93979952D01*
X146407142Y-94027571D01*
X146454761Y-94075190D01*
X146502380Y-94170428D01*
X146502380Y-94360904D01*
X146454761Y-94456142D01*
X146454761Y-93599000D02*
X146502380Y-93456142D01*
X146502380Y-93218047D01*
X146454761Y-93122809D01*
X146407142Y-93075190D01*
X146311904Y-93027571D01*
X146216666Y-93027571D01*
X146121428Y-93075190D01*
X146073809Y-93122809D01*
X146026190Y-93218047D01*
X145978571Y-93408523D01*
X145930952Y-93503761D01*
X145883333Y-93551380D01*
X145788095Y-93599000D01*
X145692857Y-93599000D01*
X145597619Y-93551380D01*
X145550000Y-93503761D01*
X145502380Y-93408523D01*
X145502380Y-93170428D01*
X145550000Y-93027571D01*
X145835714Y-92741857D02*
X145835714Y-92360904D01*
X145502380Y-92599000D02*
X146359523Y-92599000D01*
X146454761Y-92551380D01*
X146502380Y-92456142D01*
X146502380Y-92360904D01*
X146502380Y-92027571D02*
X145835714Y-92027571D01*
X145502380Y-92027571D02*
X145550000Y-92075190D01*
X145597619Y-92027571D01*
X145550000Y-91979952D01*
X145502380Y-92027571D01*
X145597619Y-92027571D01*
X146454761Y-91122809D02*
X146502380Y-91218047D01*
X146502380Y-91408523D01*
X146454761Y-91503761D01*
X146407142Y-91551380D01*
X146311904Y-91599000D01*
X146026190Y-91599000D01*
X145930952Y-91551380D01*
X145883333Y-91503761D01*
X145835714Y-91408523D01*
X145835714Y-91218047D01*
X145883333Y-91122809D01*
X146502380Y-90694238D02*
X145502380Y-90694238D01*
X146121428Y-90599000D02*
X146502380Y-90313285D01*
X145835714Y-90313285D02*
X146216666Y-90694238D01*
X129055761Y-96884714D02*
X129103380Y-96741857D01*
X129103380Y-96503761D01*
X129055761Y-96408523D01*
X129008142Y-96360904D01*
X128912904Y-96313285D01*
X128817666Y-96313285D01*
X128722428Y-96360904D01*
X128674809Y-96408523D01*
X128627190Y-96503761D01*
X128579571Y-96694238D01*
X128531952Y-96789476D01*
X128484333Y-96837095D01*
X128389095Y-96884714D01*
X128293857Y-96884714D01*
X128198619Y-96837095D01*
X128151000Y-96789476D01*
X128103380Y-96694238D01*
X128103380Y-96456142D01*
X128151000Y-96313285D01*
X128436714Y-96027571D02*
X128436714Y-95646619D01*
X128103380Y-95884714D02*
X128960523Y-95884714D01*
X129055761Y-95837095D01*
X129103380Y-95741857D01*
X129103380Y-95646619D01*
X129055761Y-94932333D02*
X129103380Y-95027571D01*
X129103380Y-95218047D01*
X129055761Y-95313285D01*
X128960523Y-95360904D01*
X128579571Y-95360904D01*
X128484333Y-95313285D01*
X128436714Y-95218047D01*
X128436714Y-95027571D01*
X128484333Y-94932333D01*
X128579571Y-94884714D01*
X128674809Y-94884714D01*
X128770047Y-95360904D01*
X128436714Y-94456142D02*
X129436714Y-94456142D01*
X128484333Y-94456142D02*
X128436714Y-94360904D01*
X128436714Y-94170428D01*
X128484333Y-94075190D01*
X128531952Y-94027571D01*
X128627190Y-93979952D01*
X128912904Y-93979952D01*
X129008142Y-94027571D01*
X129055761Y-94075190D01*
X129103380Y-94170428D01*
X129103380Y-94360904D01*
X129055761Y-94456142D01*
X129055761Y-93599000D02*
X129103380Y-93456142D01*
X129103380Y-93218047D01*
X129055761Y-93122809D01*
X129008142Y-93075190D01*
X128912904Y-93027571D01*
X128817666Y-93027571D01*
X128722428Y-93075190D01*
X128674809Y-93122809D01*
X128627190Y-93218047D01*
X128579571Y-93408523D01*
X128531952Y-93503761D01*
X128484333Y-93551380D01*
X128389095Y-93599000D01*
X128293857Y-93599000D01*
X128198619Y-93551380D01*
X128151000Y-93503761D01*
X128103380Y-93408523D01*
X128103380Y-93170428D01*
X128151000Y-93027571D01*
X128436714Y-92741857D02*
X128436714Y-92360904D01*
X128103380Y-92599000D02*
X128960523Y-92599000D01*
X129055761Y-92551380D01*
X129103380Y-92456142D01*
X129103380Y-92360904D01*
X129103380Y-92027571D02*
X128436714Y-92027571D01*
X128103380Y-92027571D02*
X128151000Y-92075190D01*
X128198619Y-92027571D01*
X128151000Y-91979952D01*
X128103380Y-92027571D01*
X128198619Y-92027571D01*
X129055761Y-91122809D02*
X129103380Y-91218047D01*
X129103380Y-91408523D01*
X129055761Y-91503761D01*
X129008142Y-91551380D01*
X128912904Y-91599000D01*
X128627190Y-91599000D01*
X128531952Y-91551380D01*
X128484333Y-91503761D01*
X128436714Y-91408523D01*
X128436714Y-91218047D01*
X128484333Y-91122809D01*
X129103380Y-90694238D02*
X128103380Y-90694238D01*
X128722428Y-90599000D02*
X129103380Y-90313285D01*
X128436714Y-90313285D02*
X128817666Y-90694238D01*
D12*
X163583285Y-74176285D02*
X163640428Y-74004857D01*
X163697571Y-73947714D01*
X163811857Y-73890571D01*
X163983285Y-73890571D01*
X164097571Y-73947714D01*
X164154714Y-74004857D01*
X164211857Y-74119142D01*
X164211857Y-74576285D01*
X163011857Y-74576285D01*
X163011857Y-74176285D01*
X163069000Y-74062000D01*
X163126142Y-74004857D01*
X163240428Y-73947714D01*
X163354714Y-73947714D01*
X163469000Y-74004857D01*
X163526142Y-74062000D01*
X163583285Y-74176285D01*
X163583285Y-74576285D01*
X164211857Y-72862000D02*
X163583285Y-72862000D01*
X163469000Y-72919142D01*
X163411857Y-73033428D01*
X163411857Y-73262000D01*
X163469000Y-73376285D01*
X164154714Y-72862000D02*
X164211857Y-72976285D01*
X164211857Y-73262000D01*
X164154714Y-73376285D01*
X164040428Y-73433428D01*
X163926142Y-73433428D01*
X163811857Y-73376285D01*
X163754714Y-73262000D01*
X163754714Y-72976285D01*
X163697571Y-72862000D01*
X164211857Y-72119142D02*
X164154714Y-72233428D01*
X164040428Y-72290571D01*
X163011857Y-72290571D01*
X164211857Y-71147714D02*
X163583285Y-71147714D01*
X163469000Y-71204857D01*
X163411857Y-71319142D01*
X163411857Y-71547714D01*
X163469000Y-71662000D01*
X164154714Y-71147714D02*
X164211857Y-71262000D01*
X164211857Y-71547714D01*
X164154714Y-71662000D01*
X164040428Y-71719142D01*
X163926142Y-71719142D01*
X163811857Y-71662000D01*
X163754714Y-71547714D01*
X163754714Y-71262000D01*
X163697571Y-71147714D01*
X163411857Y-70576285D02*
X164211857Y-70576285D01*
X163526142Y-70576285D02*
X163469000Y-70519142D01*
X163411857Y-70404857D01*
X163411857Y-70233428D01*
X163469000Y-70119142D01*
X163583285Y-70062000D01*
X164211857Y-70062000D01*
X164154714Y-68976285D02*
X164211857Y-69090571D01*
X164211857Y-69319142D01*
X164154714Y-69433428D01*
X164097571Y-69490571D01*
X163983285Y-69547714D01*
X163640428Y-69547714D01*
X163526142Y-69490571D01*
X163469000Y-69433428D01*
X163411857Y-69319142D01*
X163411857Y-69090571D01*
X163469000Y-68976285D01*
X164154714Y-68004857D02*
X164211857Y-68119142D01*
X164211857Y-68347714D01*
X164154714Y-68462000D01*
X164040428Y-68519142D01*
X163583285Y-68519142D01*
X163469000Y-68462000D01*
X163411857Y-68347714D01*
X163411857Y-68119142D01*
X163469000Y-68004857D01*
X163583285Y-67947714D01*
X163697571Y-67947714D01*
X163811857Y-68519142D01*
X163583285Y-67033428D02*
X163640428Y-66862000D01*
X163697571Y-66804857D01*
X163811857Y-66747714D01*
X163983285Y-66747714D01*
X164097571Y-66804857D01*
X164154714Y-66862000D01*
X164211857Y-66976285D01*
X164211857Y-67433428D01*
X163011857Y-67433428D01*
X163011857Y-67033428D01*
X163069000Y-66919142D01*
X163126142Y-66862000D01*
X163240428Y-66804857D01*
X163354714Y-66804857D01*
X163469000Y-66862000D01*
X163526142Y-66919142D01*
X163583285Y-67033428D01*
X163583285Y-67433428D01*
X164211857Y-66062000D02*
X164154714Y-66176285D01*
X164097571Y-66233428D01*
X163983285Y-66290571D01*
X163640428Y-66290571D01*
X163526142Y-66233428D01*
X163469000Y-66176285D01*
X163411857Y-66062000D01*
X163411857Y-65890571D01*
X163469000Y-65776285D01*
X163526142Y-65719142D01*
X163640428Y-65662000D01*
X163983285Y-65662000D01*
X164097571Y-65719142D01*
X164154714Y-65776285D01*
X164211857Y-65890571D01*
X164211857Y-66062000D01*
X163411857Y-65319142D02*
X163411857Y-64862000D01*
X163011857Y-65147714D02*
X164040428Y-65147714D01*
X164154714Y-65090571D01*
X164211857Y-64976285D01*
X164211857Y-64862000D01*
X164211857Y-63547714D02*
X163011857Y-63547714D01*
X163469000Y-63547714D02*
X163411857Y-63433428D01*
X163411857Y-63204857D01*
X163469000Y-63090571D01*
X163526142Y-63033428D01*
X163640428Y-62976285D01*
X163983285Y-62976285D01*
X164097571Y-63033428D01*
X164154714Y-63090571D01*
X164211857Y-63204857D01*
X164211857Y-63433428D01*
X164154714Y-63547714D01*
X163411857Y-62576285D02*
X164211857Y-62290571D01*
X163411857Y-62004857D02*
X164211857Y-62290571D01*
X164497571Y-62404857D01*
X164554714Y-62462000D01*
X164611857Y-62576285D01*
X163583285Y-60233428D02*
X163583285Y-60633428D01*
X164211857Y-60633428D02*
X163011857Y-60633428D01*
X163011857Y-60062000D01*
X164211857Y-59604857D02*
X163411857Y-59604857D01*
X163640428Y-59604857D02*
X163526142Y-59547714D01*
X163469000Y-59490571D01*
X163411857Y-59376285D01*
X163411857Y-59262000D01*
X164211857Y-58690571D02*
X164154714Y-58804857D01*
X164097571Y-58862000D01*
X163983285Y-58919142D01*
X163640428Y-58919142D01*
X163526142Y-58862000D01*
X163469000Y-58804857D01*
X163411857Y-58690571D01*
X163411857Y-58519142D01*
X163469000Y-58404857D01*
X163526142Y-58347714D01*
X163640428Y-58290571D01*
X163983285Y-58290571D01*
X164097571Y-58347714D01*
X164154714Y-58404857D01*
X164211857Y-58519142D01*
X164211857Y-58690571D01*
X164154714Y-57833428D02*
X164211857Y-57719142D01*
X164211857Y-57490571D01*
X164154714Y-57376285D01*
X164040428Y-57319142D01*
X163983285Y-57319142D01*
X163869000Y-57376285D01*
X163811857Y-57490571D01*
X163811857Y-57662000D01*
X163754714Y-57776285D01*
X163640428Y-57833428D01*
X163583285Y-57833428D01*
X163469000Y-57776285D01*
X163411857Y-57662000D01*
X163411857Y-57490571D01*
X163469000Y-57376285D01*
X163411857Y-56976285D02*
X163411857Y-56519142D01*
X163011857Y-56804857D02*
X164040428Y-56804857D01*
X164154714Y-56747714D01*
X164211857Y-56633428D01*
X164211857Y-56519142D01*
X164211857Y-56119142D02*
X163411857Y-56119142D01*
X163011857Y-56119142D02*
X163069000Y-56176285D01*
X163126142Y-56119142D01*
X163069000Y-56062000D01*
X163011857Y-56119142D01*
X163126142Y-56119142D01*
X164154714Y-55090571D02*
X164211857Y-55204857D01*
X164211857Y-55433428D01*
X164154714Y-55547714D01*
X164040428Y-55604857D01*
X163583285Y-55604857D01*
X163469000Y-55547714D01*
X163411857Y-55433428D01*
X163411857Y-55204857D01*
X163469000Y-55090571D01*
X163583285Y-55033428D01*
X163697571Y-55033428D01*
X163811857Y-55604857D01*
X163583285Y-54119142D02*
X163640428Y-53947714D01*
X163697571Y-53890571D01*
X163811857Y-53833428D01*
X163983285Y-53833428D01*
X164097571Y-53890571D01*
X164154714Y-53947714D01*
X164211857Y-54062000D01*
X164211857Y-54519142D01*
X163011857Y-54519142D01*
X163011857Y-54119142D01*
X163069000Y-54004857D01*
X163126142Y-53947714D01*
X163240428Y-53890571D01*
X163354714Y-53890571D01*
X163469000Y-53947714D01*
X163526142Y-54004857D01*
X163583285Y-54119142D01*
X163583285Y-54519142D01*
X164211857Y-53147714D02*
X164154714Y-53262000D01*
X164097571Y-53319142D01*
X163983285Y-53376285D01*
X163640428Y-53376285D01*
X163526142Y-53319142D01*
X163469000Y-53262000D01*
X163411857Y-53147714D01*
X163411857Y-52976285D01*
X163469000Y-52862000D01*
X163526142Y-52804857D01*
X163640428Y-52747714D01*
X163983285Y-52747714D01*
X164097571Y-52804857D01*
X164154714Y-52862000D01*
X164211857Y-52976285D01*
X164211857Y-53147714D01*
X163411857Y-52404857D02*
X163411857Y-51947714D01*
X163011857Y-52233428D02*
X164040428Y-52233428D01*
X164154714Y-52176285D01*
X164211857Y-52062000D01*
X164211857Y-51947714D01*
X165511857Y-74690571D02*
X166311857Y-74404857D01*
X165511857Y-74119142D01*
X165111857Y-73433428D02*
X165111857Y-73319142D01*
X165169000Y-73204857D01*
X165226142Y-73147714D01*
X165340428Y-73090571D01*
X165569000Y-73033428D01*
X165854714Y-73033428D01*
X166083285Y-73090571D01*
X166197571Y-73147714D01*
X166254714Y-73204857D01*
X166311857Y-73319142D01*
X166311857Y-73433428D01*
X166254714Y-73547714D01*
X166197571Y-73604857D01*
X166083285Y-73662000D01*
X165854714Y-73719142D01*
X165569000Y-73719142D01*
X165340428Y-73662000D01*
X165226142Y-73604857D01*
X165169000Y-73547714D01*
X165111857Y-73433428D01*
X166197571Y-72519142D02*
X166254714Y-72462000D01*
X166311857Y-72519142D01*
X166254714Y-72576285D01*
X166197571Y-72519142D01*
X166311857Y-72519142D01*
X165511857Y-71433428D02*
X166311857Y-71433428D01*
X165054714Y-71719142D02*
X165911857Y-72004857D01*
X165911857Y-71262000D01*
X166197571Y-70804857D02*
X166254714Y-70747714D01*
X166311857Y-70804857D01*
X166254714Y-70862000D01*
X166197571Y-70804857D01*
X166311857Y-70804857D01*
X165111857Y-69662000D02*
X165111857Y-70233428D01*
X165683285Y-70290571D01*
X165626142Y-70233428D01*
X165569000Y-70119142D01*
X165569000Y-69833428D01*
X165626142Y-69719142D01*
X165683285Y-69662000D01*
X165797571Y-69604857D01*
X166083285Y-69604857D01*
X166197571Y-69662000D01*
X166254714Y-69719142D01*
X166311857Y-69833428D01*
X166311857Y-70119142D01*
X166254714Y-70233428D01*
X166197571Y-70290571D01*
D10*
X161226500Y-102171500D02*
X161226500Y-104711500D01*
X158686500Y-102171500D02*
X161226500Y-102171500D01*
X158686500Y-104711500D02*
X158686500Y-102171500D01*
X163766500Y-102171500D02*
X156146500Y-102171500D01*
X163826500Y-104651500D02*
X163830000Y-102171500D01*
D13*
X162179047Y-103191500D02*
X162131428Y-103167690D01*
X162060000Y-103167690D01*
X161988571Y-103191500D01*
X161940952Y-103239119D01*
X161917142Y-103286738D01*
X161893333Y-103381976D01*
X161893333Y-103453404D01*
X161917142Y-103548642D01*
X161940952Y-103596261D01*
X161988571Y-103643880D01*
X162060000Y-103667690D01*
X162107619Y-103667690D01*
X162179047Y-103643880D01*
X162202857Y-103620071D01*
X162202857Y-103453404D01*
X162107619Y-103453404D01*
X162417142Y-103667690D02*
X162417142Y-103167690D01*
X162702857Y-103667690D01*
X162702857Y-103167690D01*
X162940952Y-103667690D02*
X162940952Y-103167690D01*
X163060000Y-103167690D01*
X163131428Y-103191500D01*
X163179047Y-103239119D01*
X163202857Y-103286738D01*
X163226666Y-103381976D01*
X163226666Y-103453404D01*
X163202857Y-103548642D01*
X163179047Y-103596261D01*
X163131428Y-103643880D01*
X163060000Y-103667690D01*
X162940952Y-103667690D01*
X159861261Y-103167690D02*
X159623166Y-103167690D01*
X159599357Y-103405785D01*
X159623166Y-103381976D01*
X159670785Y-103358166D01*
X159789833Y-103358166D01*
X159837452Y-103381976D01*
X159861261Y-103405785D01*
X159885071Y-103453404D01*
X159885071Y-103572452D01*
X159861261Y-103620071D01*
X159837452Y-103643880D01*
X159789833Y-103667690D01*
X159670785Y-103667690D01*
X159623166Y-103643880D01*
X159599357Y-103620071D01*
X160027928Y-103167690D02*
X160194595Y-103667690D01*
X160361261Y-103167690D01*
X156714119Y-103604190D02*
X156714119Y-103104190D01*
X156904595Y-103104190D01*
X156952214Y-103128000D01*
X156976023Y-103151809D01*
X156999833Y-103199428D01*
X156999833Y-103270857D01*
X156976023Y-103318476D01*
X156952214Y-103342285D01*
X156904595Y-103366095D01*
X156714119Y-103366095D01*
X157166500Y-103104190D02*
X157285547Y-103604190D01*
X157380785Y-103247047D01*
X157476023Y-103604190D01*
X157595071Y-103104190D01*
X157785547Y-103604190D02*
X157785547Y-103104190D01*
X157952214Y-103461333D01*
X158118880Y-103104190D01*
X158118880Y-103604190D01*
D11*
X148209047Y-86685428D02*
X148970952Y-86685428D01*
X148590000Y-87066380D02*
X148590000Y-86304476D01*
X130810047Y-86685428D02*
X131571952Y-86685428D01*
X131191000Y-87066380D02*
X131191000Y-86304476D01*
D10*
X112712500Y-78673000D02*
X112712500Y-76009500D01*
X112712500Y-78676500D02*
X115316000Y-78676500D01*
X112712500Y-76013000D02*
X161096000Y-76013000D01*
X161096000Y-78673000D02*
X161096000Y-76013000D01*
X115316000Y-78673000D02*
X161096000Y-78673000D01*
X157985000Y-90554000D02*
X156595000Y-90554000D01*
X157985000Y-92794000D02*
X157985000Y-90554000D01*
X165865000Y-92794000D02*
X157985000Y-92794000D01*
X165865000Y-90554000D02*
X165865000Y-92794000D01*
X167265000Y-90554000D02*
X165865000Y-90554000D01*
X167265000Y-90544000D02*
X167265000Y-88774000D01*
X167265000Y-88774000D02*
X156595000Y-88774000D01*
X156595000Y-88774000D02*
X156595000Y-90554000D01*
D14*
X111327000Y-89789000D02*
X111327000Y-99949000D01*
X111327000Y-89789000D02*
X118527000Y-89789000D01*
X110327000Y-89789000D02*
X111327000Y-89789000D01*
X110327000Y-99949000D02*
X110327000Y-89789000D01*
X111327000Y-99949000D02*
X110327000Y-99949000D01*
X118527000Y-99949000D02*
X111327000Y-99949000D01*
X118527000Y-89789000D02*
X118527000Y-99949000D01*
X111327000Y-79629000D02*
X111327000Y-89789000D01*
X111327000Y-79629000D02*
X118527000Y-79629000D01*
X110327000Y-79629000D02*
X111327000Y-79629000D01*
X110327000Y-89789000D02*
X110327000Y-79629000D01*
X111327000Y-89789000D02*
X110327000Y-89789000D01*
X118527000Y-89789000D02*
X111327000Y-89789000D01*
X118527000Y-79629000D02*
X118527000Y-89789000D01*
D10*
X123511000Y-107375000D02*
X123511000Y-106045000D01*
X124841000Y-107375000D02*
X123511000Y-107375000D01*
X126111000Y-107375000D02*
X126111000Y-104715000D01*
X126111000Y-104715000D02*
X133791000Y-104715000D01*
X126111000Y-107375000D02*
X133791000Y-107375000D01*
X133791000Y-107375000D02*
X133791000Y-104715000D01*
X156086500Y-107375000D02*
X156086500Y-106045000D01*
X157416500Y-107375000D02*
X156086500Y-107375000D01*
X158686500Y-107375000D02*
X158686500Y-104715000D01*
X158686500Y-104715000D02*
X163826500Y-104715000D01*
X158686500Y-107375000D02*
X163826500Y-107375000D01*
X163826500Y-107375000D02*
X163826500Y-104715000D01*
X145796000Y-53086000D02*
X145796000Y-73406000D01*
D11*
X143065500Y-53086000D02*
X158686500Y-53086000D01*
X143065500Y-73406000D02*
X143065500Y-53086000D01*
X158686500Y-73406000D02*
X143065500Y-73406000D01*
X158686500Y-53086000D02*
X158686500Y-73406000D01*
X157226000Y-70866000D02*
G75*
G03X157226000Y-70866000I-1270000J0D01*
G01*
X157226000Y-55626000D02*
G75*
G03X157226000Y-55626000I-1270000J0D01*
G01*
D10*
X153800000Y-82674000D02*
X140970000Y-82674000D01*
X153800000Y-103254000D02*
X153800000Y-82674000D01*
X138300000Y-103254000D02*
X153800000Y-103254000D01*
X138300000Y-85344000D02*
X138300000Y-103254000D01*
X140970000Y-82674000D02*
X140970000Y-85344000D01*
X138300000Y-82674000D02*
X138303000Y-85344000D01*
X140970000Y-82677000D02*
X138300000Y-82674000D01*
X140970000Y-85344000D02*
X140970000Y-103254000D01*
X151130000Y-82674000D02*
X151130000Y-103254000D01*
X142470000Y-85444000D02*
X142470000Y-82704000D01*
X149710000Y-85444000D02*
X149710000Y-82704000D01*
X149710000Y-82704000D02*
X142470000Y-82704000D01*
X149710000Y-85444000D02*
X142470000Y-85444000D01*
X125071000Y-85444000D02*
X125071000Y-82704000D01*
X132311000Y-85444000D02*
X132311000Y-82704000D01*
X132311000Y-82704000D02*
X125071000Y-82704000D01*
X132311000Y-85444000D02*
X125071000Y-85444000D01*
X136401000Y-82674000D02*
X123571000Y-82674000D01*
X136401000Y-103254000D02*
X136401000Y-82674000D01*
X120901000Y-103254000D02*
X136401000Y-103254000D01*
X120901000Y-85344000D02*
X120901000Y-103254000D01*
X123571000Y-82674000D02*
X123571000Y-85344000D01*
X120901000Y-82674000D02*
X120904000Y-85344000D01*
X123571000Y-82677000D02*
X120901000Y-82674000D01*
X123571000Y-85344000D02*
X123571000Y-103254000D01*
X133731000Y-82674000D02*
X133731000Y-103254000D01*
X130556000Y-72136000D02*
X116586000Y-72136000D01*
X130556000Y-54356000D02*
X130556000Y-72136000D01*
X116586000Y-54356000D02*
X130556000Y-54356000D01*
X116586000Y-72136000D02*
X116586000Y-54356000D01*
X112776000Y-75946000D02*
X115316000Y-75946000D01*
X112776000Y-73406000D02*
X112776000Y-75946000D01*
X112776000Y-75946000D02*
X112776000Y-74676000D01*
X115316000Y-73406000D02*
X112776000Y-73406000D01*
X112776000Y-53086000D02*
X161036000Y-53086000D01*
X115316000Y-73406000D02*
X161036000Y-73406000D01*
X161036000Y-75946000D02*
X161036000Y-50546000D01*
X115316000Y-75946000D02*
X161036000Y-75946000D01*
X112776000Y-50546000D02*
X161036000Y-50546000D01*
X112776000Y-73406000D02*
X112776000Y-50546000D01*
X140910000Y-107375000D02*
X140910000Y-106045000D01*
X142240000Y-107375000D02*
X140910000Y-107375000D01*
X143510000Y-107375000D02*
X143510000Y-104715000D01*
X143510000Y-104715000D02*
X151190000Y-104715000D01*
X143510000Y-107375000D02*
X151190000Y-107375000D01*
X151190000Y-107375000D02*
X151190000Y-104715000D01*
D11*
X111172666Y-76795380D02*
X111172666Y-77509666D01*
X111125047Y-77652523D01*
X111029809Y-77747761D01*
X110886952Y-77795380D01*
X110791714Y-77795380D01*
X111553619Y-76795380D02*
X112172666Y-76795380D01*
X111839333Y-77176333D01*
X111982190Y-77176333D01*
X112077428Y-77223952D01*
X112125047Y-77271571D01*
X112172666Y-77366809D01*
X112172666Y-77604904D01*
X112125047Y-77700142D01*
X112077428Y-77747761D01*
X111982190Y-77795380D01*
X111696476Y-77795380D01*
X111601238Y-77747761D01*
X111553619Y-77700142D01*
X155702095Y-91273380D02*
X155702095Y-92082904D01*
X155749714Y-92178142D01*
X155797333Y-92225761D01*
X155892571Y-92273380D01*
X156083047Y-92273380D01*
X156178285Y-92225761D01*
X156225904Y-92178142D01*
X156273523Y-92082904D01*
X156273523Y-91273380D01*
X156702095Y-91368619D02*
X156749714Y-91321000D01*
X156844952Y-91273380D01*
X157083047Y-91273380D01*
X157178285Y-91321000D01*
X157225904Y-91368619D01*
X157273523Y-91463857D01*
X157273523Y-91559095D01*
X157225904Y-91701952D01*
X156654476Y-92273380D01*
X157273523Y-92273380D01*
X109100952Y-97392809D02*
X109053333Y-97488047D01*
X109005714Y-97535666D01*
X108910476Y-97583285D01*
X108862857Y-97583285D01*
X108767619Y-97535666D01*
X108720000Y-97488047D01*
X108672380Y-97392809D01*
X108672380Y-97202333D01*
X108720000Y-97107095D01*
X108767619Y-97059476D01*
X108862857Y-97011857D01*
X108910476Y-97011857D01*
X109005714Y-97059476D01*
X109053333Y-97107095D01*
X109100952Y-97202333D01*
X109100952Y-97392809D01*
X109148571Y-97488047D01*
X109196190Y-97535666D01*
X109291428Y-97583285D01*
X109481904Y-97583285D01*
X109577142Y-97535666D01*
X109624761Y-97488047D01*
X109672380Y-97392809D01*
X109672380Y-97202333D01*
X109624761Y-97107095D01*
X109577142Y-97059476D01*
X109481904Y-97011857D01*
X109291428Y-97011857D01*
X109196190Y-97059476D01*
X109148571Y-97107095D01*
X109100952Y-97202333D01*
X108672380Y-96726142D02*
X109672380Y-96392809D01*
X108672380Y-96059476D01*
X109291428Y-95726142D02*
X109291428Y-94964238D01*
X108672380Y-94583285D02*
X108672380Y-93964238D01*
X109053333Y-94297571D01*
X109053333Y-94154714D01*
X109100952Y-94059476D01*
X109148571Y-94011857D01*
X109243809Y-93964238D01*
X109481904Y-93964238D01*
X109577142Y-94011857D01*
X109624761Y-94059476D01*
X109672380Y-94154714D01*
X109672380Y-94440428D01*
X109624761Y-94535666D01*
X109577142Y-94583285D01*
X108672380Y-93107095D02*
X108672380Y-93297571D01*
X108720000Y-93392809D01*
X108767619Y-93440428D01*
X108910476Y-93535666D01*
X109100952Y-93583285D01*
X109481904Y-93583285D01*
X109577142Y-93535666D01*
X109624761Y-93488047D01*
X109672380Y-93392809D01*
X109672380Y-93202333D01*
X109624761Y-93107095D01*
X109577142Y-93059476D01*
X109481904Y-93011857D01*
X109243809Y-93011857D01*
X109148571Y-93059476D01*
X109100952Y-93107095D01*
X109053333Y-93202333D01*
X109053333Y-93392809D01*
X109100952Y-93488047D01*
X109148571Y-93535666D01*
X109243809Y-93583285D01*
X108672380Y-92726142D02*
X109672380Y-92392809D01*
X108672380Y-92059476D01*
X109624761Y-86923285D02*
X109672380Y-86780428D01*
X109672380Y-86542333D01*
X109624761Y-86447095D01*
X109577142Y-86399476D01*
X109481904Y-86351857D01*
X109386666Y-86351857D01*
X109291428Y-86399476D01*
X109243809Y-86447095D01*
X109196190Y-86542333D01*
X109148571Y-86732809D01*
X109100952Y-86828047D01*
X109053333Y-86875666D01*
X108958095Y-86923285D01*
X108862857Y-86923285D01*
X108767619Y-86875666D01*
X108720000Y-86828047D01*
X108672380Y-86732809D01*
X108672380Y-86494714D01*
X108720000Y-86351857D01*
X109005714Y-86018523D02*
X109672380Y-85828047D01*
X109196190Y-85637571D01*
X109672380Y-85447095D01*
X109005714Y-85256619D01*
X109672380Y-84875666D02*
X109005714Y-84875666D01*
X108672380Y-84875666D02*
X108720000Y-84923285D01*
X108767619Y-84875666D01*
X108720000Y-84828047D01*
X108672380Y-84875666D01*
X108767619Y-84875666D01*
X109005714Y-84542333D02*
X109005714Y-84161380D01*
X108672380Y-84399476D02*
X109529523Y-84399476D01*
X109624761Y-84351857D01*
X109672380Y-84256619D01*
X109672380Y-84161380D01*
X109624761Y-83399476D02*
X109672380Y-83494714D01*
X109672380Y-83685190D01*
X109624761Y-83780428D01*
X109577142Y-83828047D01*
X109481904Y-83875666D01*
X109196190Y-83875666D01*
X109100952Y-83828047D01*
X109053333Y-83780428D01*
X109005714Y-83685190D01*
X109005714Y-83494714D01*
X109053333Y-83399476D01*
X109672380Y-82970904D02*
X108672380Y-82970904D01*
X109672380Y-82542333D02*
X109148571Y-82542333D01*
X109053333Y-82589952D01*
X109005714Y-82685190D01*
X109005714Y-82828047D01*
X109053333Y-82923285D01*
X109100952Y-82970904D01*
X121967666Y-105497380D02*
X121967666Y-106211666D01*
X121920047Y-106354523D01*
X121824809Y-106449761D01*
X121681952Y-106497380D01*
X121586714Y-106497380D01*
X122920047Y-105497380D02*
X122443857Y-105497380D01*
X122396238Y-105973571D01*
X122443857Y-105925952D01*
X122539095Y-105878333D01*
X122777190Y-105878333D01*
X122872428Y-105925952D01*
X122920047Y-105973571D01*
X122967666Y-106068809D01*
X122967666Y-106306904D01*
X122920047Y-106402142D01*
X122872428Y-106449761D01*
X122777190Y-106497380D01*
X122539095Y-106497380D01*
X122443857Y-106449761D01*
X122396238Y-106402142D01*
X154479666Y-105497380D02*
X154479666Y-106211666D01*
X154432047Y-106354523D01*
X154336809Y-106449761D01*
X154193952Y-106497380D01*
X154098714Y-106497380D01*
X155384428Y-105830714D02*
X155384428Y-106497380D01*
X155146333Y-105449761D02*
X154908238Y-106164047D01*
X155527285Y-106164047D01*
X140843095Y-69175380D02*
X140843095Y-69984904D01*
X140890714Y-70080142D01*
X140938333Y-70127761D01*
X141033571Y-70175380D01*
X141224047Y-70175380D01*
X141319285Y-70127761D01*
X141366904Y-70080142D01*
X141414523Y-69984904D01*
X141414523Y-69175380D01*
X141795476Y-69175380D02*
X142414523Y-69175380D01*
X142081190Y-69556333D01*
X142224047Y-69556333D01*
X142319285Y-69603952D01*
X142366904Y-69651571D01*
X142414523Y-69746809D01*
X142414523Y-69984904D01*
X142366904Y-70080142D01*
X142319285Y-70127761D01*
X142224047Y-70175380D01*
X141938333Y-70175380D01*
X141843095Y-70127761D01*
X141795476Y-70080142D01*
X153868380Y-66507904D02*
X152868380Y-66507904D01*
X153582666Y-66174571D01*
X152868380Y-65841238D01*
X153868380Y-65841238D01*
X153868380Y-65365047D02*
X152868380Y-65365047D01*
X152868380Y-64984095D01*
X152916000Y-64888857D01*
X152963619Y-64841238D01*
X153058857Y-64793619D01*
X153201714Y-64793619D01*
X153296952Y-64841238D01*
X153344571Y-64888857D01*
X153392190Y-64984095D01*
X153392190Y-65365047D01*
X152868380Y-64365047D02*
X153677904Y-64365047D01*
X153773142Y-64317428D01*
X153820761Y-64269809D01*
X153868380Y-64174571D01*
X153868380Y-63984095D01*
X153820761Y-63888857D01*
X153773142Y-63841238D01*
X153677904Y-63793619D01*
X152868380Y-63793619D01*
X152868380Y-62888857D02*
X152868380Y-63079333D01*
X152916000Y-63174571D01*
X152963619Y-63222190D01*
X153106476Y-63317428D01*
X153296952Y-63365047D01*
X153677904Y-63365047D01*
X153773142Y-63317428D01*
X153820761Y-63269809D01*
X153868380Y-63174571D01*
X153868380Y-62984095D01*
X153820761Y-62888857D01*
X153773142Y-62841238D01*
X153677904Y-62793619D01*
X153439809Y-62793619D01*
X153344571Y-62841238D01*
X153296952Y-62888857D01*
X153249333Y-62984095D01*
X153249333Y-63174571D01*
X153296952Y-63269809D01*
X153344571Y-63317428D01*
X153439809Y-63365047D01*
X152868380Y-62174571D02*
X152868380Y-62079333D01*
X152916000Y-61984095D01*
X152963619Y-61936476D01*
X153058857Y-61888857D01*
X153249333Y-61841238D01*
X153487428Y-61841238D01*
X153677904Y-61888857D01*
X153773142Y-61936476D01*
X153820761Y-61984095D01*
X153868380Y-62079333D01*
X153868380Y-62174571D01*
X153820761Y-62269809D01*
X153773142Y-62317428D01*
X153677904Y-62365047D01*
X153487428Y-62412666D01*
X153249333Y-62412666D01*
X153058857Y-62365047D01*
X152963619Y-62317428D01*
X152916000Y-62269809D01*
X152868380Y-62174571D01*
X152868380Y-60936476D02*
X152868380Y-61412666D01*
X153344571Y-61460285D01*
X153296952Y-61412666D01*
X153249333Y-61317428D01*
X153249333Y-61079333D01*
X153296952Y-60984095D01*
X153344571Y-60936476D01*
X153439809Y-60888857D01*
X153677904Y-60888857D01*
X153773142Y-60936476D01*
X153820761Y-60984095D01*
X153868380Y-61079333D01*
X153868380Y-61317428D01*
X153820761Y-61412666D01*
X153773142Y-61460285D01*
X152868380Y-60269809D02*
X152868380Y-60174571D01*
X152916000Y-60079333D01*
X152963619Y-60031714D01*
X153058857Y-59984095D01*
X153249333Y-59936476D01*
X153487428Y-59936476D01*
X153677904Y-59984095D01*
X153773142Y-60031714D01*
X153820761Y-60079333D01*
X153868380Y-60174571D01*
X153868380Y-60269809D01*
X153820761Y-60365047D01*
X153773142Y-60412666D01*
X153677904Y-60460285D01*
X153487428Y-60507904D01*
X153249333Y-60507904D01*
X153058857Y-60460285D01*
X152963619Y-60412666D01*
X152916000Y-60365047D01*
X152868380Y-60269809D01*
D13*
X147477130Y-72588380D02*
X147477130Y-71588380D01*
X147953321Y-72588380D02*
X147953321Y-71588380D01*
X148524750Y-72588380D01*
X148524750Y-71588380D01*
X148858083Y-71588380D02*
X149429511Y-71588380D01*
X149143797Y-72588380D02*
X149143797Y-71588380D01*
X146810464Y-69762666D02*
X147286654Y-69762666D01*
X146715226Y-70048380D02*
X147048559Y-69048380D01*
X147381892Y-70048380D01*
X147715226Y-70048380D02*
X147715226Y-69048380D01*
X147953321Y-69048380D01*
X148096178Y-69096000D01*
X148191416Y-69191238D01*
X148239035Y-69286476D01*
X148286654Y-69476952D01*
X148286654Y-69619809D01*
X148239035Y-69810285D01*
X148191416Y-69905523D01*
X148096178Y-70000761D01*
X147953321Y-70048380D01*
X147715226Y-70048380D01*
X148905702Y-69048380D02*
X149096178Y-69048380D01*
X149191416Y-69096000D01*
X149286654Y-69191238D01*
X149334273Y-69381714D01*
X149334273Y-69715047D01*
X149286654Y-69905523D01*
X149191416Y-70000761D01*
X149096178Y-70048380D01*
X148905702Y-70048380D01*
X148810464Y-70000761D01*
X148715226Y-69905523D01*
X148667607Y-69715047D01*
X148667607Y-69381714D01*
X148715226Y-69191238D01*
X148810464Y-69096000D01*
X148905702Y-69048380D01*
X146905702Y-66508380D02*
X147572369Y-67508380D01*
X147572369Y-66508380D02*
X146905702Y-67508380D01*
X148524750Y-67413142D02*
X148477130Y-67460761D01*
X148334273Y-67508380D01*
X148239035Y-67508380D01*
X148096178Y-67460761D01*
X148000940Y-67365523D01*
X147953321Y-67270285D01*
X147905702Y-67079809D01*
X147905702Y-66936952D01*
X147953321Y-66746476D01*
X148000940Y-66651238D01*
X148096178Y-66556000D01*
X148239035Y-66508380D01*
X148334273Y-66508380D01*
X148477130Y-66556000D01*
X148524750Y-66603619D01*
X149429511Y-67508380D02*
X148953321Y-67508380D01*
X148953321Y-66508380D01*
X146858083Y-63968380D02*
X147524750Y-64968380D01*
X147524750Y-63968380D02*
X146858083Y-64968380D01*
X147905702Y-64968380D02*
X147905702Y-63968380D01*
X148143797Y-63968380D01*
X148286654Y-64016000D01*
X148381892Y-64111238D01*
X148429511Y-64206476D01*
X148477130Y-64396952D01*
X148477130Y-64539809D01*
X148429511Y-64730285D01*
X148381892Y-64825523D01*
X148286654Y-64920761D01*
X148143797Y-64968380D01*
X147905702Y-64968380D01*
X148858083Y-64682666D02*
X149334273Y-64682666D01*
X148762845Y-64968380D02*
X149096178Y-63968380D01*
X149429511Y-64968380D01*
X146905702Y-62380761D02*
X147048559Y-62428380D01*
X147286654Y-62428380D01*
X147381892Y-62380761D01*
X147429511Y-62333142D01*
X147477130Y-62237904D01*
X147477130Y-62142666D01*
X147429511Y-62047428D01*
X147381892Y-61999809D01*
X147286654Y-61952190D01*
X147096178Y-61904571D01*
X147000940Y-61856952D01*
X146953321Y-61809333D01*
X146905702Y-61714095D01*
X146905702Y-61618857D01*
X146953321Y-61523619D01*
X147000940Y-61476000D01*
X147096178Y-61428380D01*
X147334273Y-61428380D01*
X147477130Y-61476000D01*
X147905702Y-62428380D02*
X147905702Y-61428380D01*
X148143797Y-61428380D01*
X148286654Y-61476000D01*
X148381892Y-61571238D01*
X148429511Y-61666476D01*
X148477130Y-61856952D01*
X148477130Y-61999809D01*
X148429511Y-62190285D01*
X148381892Y-62285523D01*
X148286654Y-62380761D01*
X148143797Y-62428380D01*
X147905702Y-62428380D01*
X148858083Y-62142666D02*
X149334273Y-62142666D01*
X148762845Y-62428380D02*
X149096178Y-61428380D01*
X149429511Y-62428380D01*
X146953321Y-59840761D02*
X147096178Y-59888380D01*
X147334273Y-59888380D01*
X147429511Y-59840761D01*
X147477130Y-59793142D01*
X147524750Y-59697904D01*
X147524750Y-59602666D01*
X147477130Y-59507428D01*
X147429511Y-59459809D01*
X147334273Y-59412190D01*
X147143797Y-59364571D01*
X147048559Y-59316952D01*
X147000940Y-59269333D01*
X146953321Y-59174095D01*
X146953321Y-59078857D01*
X147000940Y-58983619D01*
X147048559Y-58936000D01*
X147143797Y-58888380D01*
X147381892Y-58888380D01*
X147524750Y-58936000D01*
X148524750Y-59793142D02*
X148477130Y-59840761D01*
X148334273Y-59888380D01*
X148239035Y-59888380D01*
X148096178Y-59840761D01*
X148000940Y-59745523D01*
X147953321Y-59650285D01*
X147905702Y-59459809D01*
X147905702Y-59316952D01*
X147953321Y-59126476D01*
X148000940Y-59031238D01*
X148096178Y-58936000D01*
X148239035Y-58888380D01*
X148334273Y-58888380D01*
X148477130Y-58936000D01*
X148524750Y-58983619D01*
X149429511Y-59888380D02*
X148953321Y-59888380D01*
X148953321Y-58888380D01*
X147239035Y-56396000D02*
X147143797Y-56348380D01*
X147000940Y-56348380D01*
X146858083Y-56396000D01*
X146762845Y-56491238D01*
X146715226Y-56586476D01*
X146667607Y-56776952D01*
X146667607Y-56919809D01*
X146715226Y-57110285D01*
X146762845Y-57205523D01*
X146858083Y-57300761D01*
X147000940Y-57348380D01*
X147096178Y-57348380D01*
X147239035Y-57300761D01*
X147286654Y-57253142D01*
X147286654Y-56919809D01*
X147096178Y-56919809D01*
X147715226Y-57348380D02*
X147715226Y-56348380D01*
X148286654Y-57348380D01*
X148286654Y-56348380D01*
X148762845Y-57348380D02*
X148762845Y-56348380D01*
X149000940Y-56348380D01*
X149143797Y-56396000D01*
X149239035Y-56491238D01*
X149286654Y-56586476D01*
X149334273Y-56776952D01*
X149334273Y-56919809D01*
X149286654Y-57110285D01*
X149239035Y-57205523D01*
X149143797Y-57300761D01*
X149000940Y-57348380D01*
X148762845Y-57348380D01*
X146762845Y-53808380D02*
X147096178Y-54808380D01*
X147429511Y-53808380D01*
X148334273Y-54713142D02*
X148286654Y-54760761D01*
X148143797Y-54808380D01*
X148048559Y-54808380D01*
X147905702Y-54760761D01*
X147810464Y-54665523D01*
X147762845Y-54570285D01*
X147715226Y-54379809D01*
X147715226Y-54236952D01*
X147762845Y-54046476D01*
X147810464Y-53951238D01*
X147905702Y-53856000D01*
X148048559Y-53808380D01*
X148143797Y-53808380D01*
X148286654Y-53856000D01*
X148334273Y-53903619D01*
X149334273Y-54713142D02*
X149286654Y-54760761D01*
X149143797Y-54808380D01*
X149048559Y-54808380D01*
X148905702Y-54760761D01*
X148810464Y-54665523D01*
X148762845Y-54570285D01*
X148715226Y-54379809D01*
X148715226Y-54236952D01*
X148762845Y-54046476D01*
X148810464Y-53951238D01*
X148905702Y-53856000D01*
X149048559Y-53808380D01*
X149143797Y-53808380D01*
X149286654Y-53856000D01*
X149334273Y-53903619D01*
D11*
X139112714Y-81954666D02*
X139588904Y-81954666D01*
X139017476Y-82240380D02*
X139350809Y-81240380D01*
X139684142Y-82240380D01*
X139969857Y-81335619D02*
X140017476Y-81288000D01*
X140112714Y-81240380D01*
X140350809Y-81240380D01*
X140446047Y-81288000D01*
X140493666Y-81335619D01*
X140541285Y-81430857D01*
X140541285Y-81526095D01*
X140493666Y-81668952D01*
X139922238Y-82240380D01*
X140541285Y-82240380D01*
D13*
X150245000Y-102234952D02*
X150221190Y-102282571D01*
X150221190Y-102354000D01*
X150245000Y-102425428D01*
X150292619Y-102473047D01*
X150340238Y-102496857D01*
X150435476Y-102520666D01*
X150506904Y-102520666D01*
X150602142Y-102496857D01*
X150649761Y-102473047D01*
X150697380Y-102425428D01*
X150721190Y-102354000D01*
X150721190Y-102306380D01*
X150697380Y-102234952D01*
X150673571Y-102211142D01*
X150506904Y-102211142D01*
X150506904Y-102306380D01*
X150721190Y-101996857D02*
X150221190Y-101996857D01*
X150721190Y-101711142D01*
X150221190Y-101711142D01*
X150721190Y-101473047D02*
X150221190Y-101473047D01*
X150221190Y-101354000D01*
X150245000Y-101282571D01*
X150292619Y-101234952D01*
X150340238Y-101211142D01*
X150435476Y-101187333D01*
X150506904Y-101187333D01*
X150602142Y-101211142D01*
X150649761Y-101234952D01*
X150697380Y-101282571D01*
X150721190Y-101354000D01*
X150721190Y-101473047D01*
X141831190Y-102354000D02*
X141331190Y-102354000D01*
X141331190Y-102234952D01*
X141355000Y-102163523D01*
X141402619Y-102115904D01*
X141450238Y-102092095D01*
X141545476Y-102068285D01*
X141616904Y-102068285D01*
X141712142Y-102092095D01*
X141759761Y-102115904D01*
X141807380Y-102163523D01*
X141831190Y-102234952D01*
X141831190Y-102354000D01*
X141831190Y-101854000D02*
X141331190Y-101854000D01*
X141831190Y-101330190D02*
X141593095Y-101496857D01*
X141831190Y-101615904D02*
X141331190Y-101615904D01*
X141331190Y-101425428D01*
X141355000Y-101377809D01*
X141378809Y-101354000D01*
X141426428Y-101330190D01*
X141497857Y-101330190D01*
X141545476Y-101354000D01*
X141569285Y-101377809D01*
X141593095Y-101425428D01*
X141593095Y-101615904D01*
X150221190Y-84978761D02*
X150721190Y-84812095D01*
X150221190Y-84645428D01*
X150721190Y-84478761D02*
X150221190Y-84478761D01*
X150578333Y-84312095D01*
X150221190Y-84145428D01*
X150721190Y-84145428D01*
X150221190Y-83812095D02*
X150221190Y-83716857D01*
X150245000Y-83669238D01*
X150292619Y-83621619D01*
X150387857Y-83597809D01*
X150554523Y-83597809D01*
X150649761Y-83621619D01*
X150697380Y-83669238D01*
X150721190Y-83716857D01*
X150721190Y-83812095D01*
X150697380Y-83859714D01*
X150649761Y-83907333D01*
X150554523Y-83931142D01*
X150387857Y-83931142D01*
X150292619Y-83907333D01*
X150245000Y-83859714D01*
X150221190Y-83812095D01*
X150221190Y-83454952D02*
X150221190Y-83169238D01*
X150721190Y-83312095D02*
X150221190Y-83312095D01*
X141569285Y-84443047D02*
X141569285Y-84276380D01*
X141831190Y-84204952D02*
X141831190Y-84443047D01*
X141331190Y-84443047D01*
X141331190Y-84204952D01*
X141831190Y-83990666D02*
X141331190Y-83990666D01*
X141831190Y-83704952D01*
X141331190Y-83704952D01*
D11*
X145923333Y-84481942D02*
X145875714Y-84529561D01*
X145732857Y-84577180D01*
X145637619Y-84577180D01*
X145494761Y-84529561D01*
X145399523Y-84434323D01*
X145351904Y-84339085D01*
X145304285Y-84148609D01*
X145304285Y-84005752D01*
X145351904Y-83815276D01*
X145399523Y-83720038D01*
X145494761Y-83624800D01*
X145637619Y-83577180D01*
X145732857Y-83577180D01*
X145875714Y-83624800D01*
X145923333Y-83672419D01*
X146304285Y-83672419D02*
X146351904Y-83624800D01*
X146447142Y-83577180D01*
X146685238Y-83577180D01*
X146780476Y-83624800D01*
X146828095Y-83672419D01*
X146875714Y-83767657D01*
X146875714Y-83862895D01*
X146828095Y-84005752D01*
X146256666Y-84577180D01*
X146875714Y-84577180D01*
X128484333Y-84431142D02*
X128436714Y-84478761D01*
X128293857Y-84526380D01*
X128198619Y-84526380D01*
X128055761Y-84478761D01*
X127960523Y-84383523D01*
X127912904Y-84288285D01*
X127865285Y-84097809D01*
X127865285Y-83954952D01*
X127912904Y-83764476D01*
X127960523Y-83669238D01*
X128055761Y-83574000D01*
X128198619Y-83526380D01*
X128293857Y-83526380D01*
X128436714Y-83574000D01*
X128484333Y-83621619D01*
X129436714Y-84526380D02*
X128865285Y-84526380D01*
X129151000Y-84526380D02*
X129151000Y-83526380D01*
X129055761Y-83669238D01*
X128960523Y-83764476D01*
X128865285Y-83812095D01*
X121713714Y-81954666D02*
X122189904Y-81954666D01*
X121618476Y-82240380D02*
X121951809Y-81240380D01*
X122285142Y-82240380D01*
X123142285Y-82240380D02*
X122570857Y-82240380D01*
X122856571Y-82240380D02*
X122856571Y-81240380D01*
X122761333Y-81383238D01*
X122666095Y-81478476D01*
X122570857Y-81526095D01*
D13*
X132846000Y-102234952D02*
X132822190Y-102282571D01*
X132822190Y-102354000D01*
X132846000Y-102425428D01*
X132893619Y-102473047D01*
X132941238Y-102496857D01*
X133036476Y-102520666D01*
X133107904Y-102520666D01*
X133203142Y-102496857D01*
X133250761Y-102473047D01*
X133298380Y-102425428D01*
X133322190Y-102354000D01*
X133322190Y-102306380D01*
X133298380Y-102234952D01*
X133274571Y-102211142D01*
X133107904Y-102211142D01*
X133107904Y-102306380D01*
X133322190Y-101996857D02*
X132822190Y-101996857D01*
X133322190Y-101711142D01*
X132822190Y-101711142D01*
X133322190Y-101473047D02*
X132822190Y-101473047D01*
X132822190Y-101354000D01*
X132846000Y-101282571D01*
X132893619Y-101234952D01*
X132941238Y-101211142D01*
X133036476Y-101187333D01*
X133107904Y-101187333D01*
X133203142Y-101211142D01*
X133250761Y-101234952D01*
X133298380Y-101282571D01*
X133322190Y-101354000D01*
X133322190Y-101473047D01*
X124432190Y-102354000D02*
X123932190Y-102354000D01*
X123932190Y-102234952D01*
X123956000Y-102163523D01*
X124003619Y-102115904D01*
X124051238Y-102092095D01*
X124146476Y-102068285D01*
X124217904Y-102068285D01*
X124313142Y-102092095D01*
X124360761Y-102115904D01*
X124408380Y-102163523D01*
X124432190Y-102234952D01*
X124432190Y-102354000D01*
X124432190Y-101854000D02*
X123932190Y-101854000D01*
X124432190Y-101330190D02*
X124194095Y-101496857D01*
X124432190Y-101615904D02*
X123932190Y-101615904D01*
X123932190Y-101425428D01*
X123956000Y-101377809D01*
X123979809Y-101354000D01*
X124027428Y-101330190D01*
X124098857Y-101330190D01*
X124146476Y-101354000D01*
X124170285Y-101377809D01*
X124194095Y-101425428D01*
X124194095Y-101615904D01*
X132822190Y-84978761D02*
X133322190Y-84812095D01*
X132822190Y-84645428D01*
X133322190Y-84478761D02*
X132822190Y-84478761D01*
X133179333Y-84312095D01*
X132822190Y-84145428D01*
X133322190Y-84145428D01*
X132822190Y-83812095D02*
X132822190Y-83716857D01*
X132846000Y-83669238D01*
X132893619Y-83621619D01*
X132988857Y-83597809D01*
X133155523Y-83597809D01*
X133250761Y-83621619D01*
X133298380Y-83669238D01*
X133322190Y-83716857D01*
X133322190Y-83812095D01*
X133298380Y-83859714D01*
X133250761Y-83907333D01*
X133155523Y-83931142D01*
X132988857Y-83931142D01*
X132893619Y-83907333D01*
X132846000Y-83859714D01*
X132822190Y-83812095D01*
X132822190Y-83454952D02*
X132822190Y-83169238D01*
X133322190Y-83312095D02*
X132822190Y-83312095D01*
X124170285Y-84443047D02*
X124170285Y-84276380D01*
X124432190Y-84204952D02*
X124432190Y-84443047D01*
X123932190Y-84443047D01*
X123932190Y-84204952D01*
X124432190Y-83990666D02*
X123932190Y-83990666D01*
X124432190Y-83704952D01*
X123932190Y-83704952D01*
D11*
X110744095Y-74128380D02*
X110744095Y-74937904D01*
X110791714Y-75033142D01*
X110839333Y-75080761D01*
X110934571Y-75128380D01*
X111125047Y-75128380D01*
X111220285Y-75080761D01*
X111267904Y-75033142D01*
X111315523Y-74937904D01*
X111315523Y-74128380D01*
X112315523Y-75128380D02*
X111744095Y-75128380D01*
X112029809Y-75128380D02*
X112029809Y-74128380D01*
X111934571Y-74271238D01*
X111839333Y-74366476D01*
X111744095Y-74414095D01*
X160250142Y-55459238D02*
X160297761Y-55506857D01*
X160345380Y-55649714D01*
X160345380Y-55744952D01*
X160297761Y-55887809D01*
X160202523Y-55983047D01*
X160107285Y-56030666D01*
X159916809Y-56078285D01*
X159773952Y-56078285D01*
X159583476Y-56030666D01*
X159488238Y-55983047D01*
X159393000Y-55887809D01*
X159345380Y-55744952D01*
X159345380Y-55649714D01*
X159393000Y-55506857D01*
X159440619Y-55459238D01*
X160345380Y-54554476D02*
X160345380Y-55030666D01*
X159345380Y-55030666D01*
X160345380Y-54221142D02*
X159345380Y-54221142D01*
X160345380Y-53649714D02*
X159773952Y-54078285D01*
X159345380Y-53649714D02*
X159916809Y-54221142D01*
X159472380Y-72723238D02*
X160472380Y-72389904D01*
X159472380Y-72056571D01*
X160472380Y-71723238D02*
X159472380Y-71723238D01*
X160472380Y-71247047D02*
X159472380Y-71247047D01*
X160472380Y-70675619D01*
X159472380Y-70675619D01*
X113546000Y-55752904D02*
X113498380Y-55848142D01*
X113498380Y-55991000D01*
X113546000Y-56133857D01*
X113641238Y-56229095D01*
X113736476Y-56276714D01*
X113926952Y-56324333D01*
X114069809Y-56324333D01*
X114260285Y-56276714D01*
X114355523Y-56229095D01*
X114450761Y-56133857D01*
X114498380Y-55991000D01*
X114498380Y-55895761D01*
X114450761Y-55752904D01*
X114403142Y-55705285D01*
X114069809Y-55705285D01*
X114069809Y-55895761D01*
X114498380Y-55276714D02*
X113498380Y-55276714D01*
X114498380Y-54705285D01*
X113498380Y-54705285D01*
X114498380Y-54229095D02*
X113498380Y-54229095D01*
X113498380Y-53991000D01*
X113546000Y-53848142D01*
X113641238Y-53752904D01*
X113736476Y-53705285D01*
X113926952Y-53657666D01*
X114069809Y-53657666D01*
X114260285Y-53705285D01*
X114355523Y-53752904D01*
X114450761Y-53848142D01*
X114498380Y-53991000D01*
X114498380Y-54229095D01*
X113498380Y-72866095D02*
X113498380Y-72247047D01*
X113879333Y-72580380D01*
X113879333Y-72437523D01*
X113926952Y-72342285D01*
X113974571Y-72294666D01*
X114069809Y-72247047D01*
X114307904Y-72247047D01*
X114403142Y-72294666D01*
X114450761Y-72342285D01*
X114498380Y-72437523D01*
X114498380Y-72723238D01*
X114450761Y-72818476D01*
X114403142Y-72866095D01*
X113498380Y-71961333D02*
X114498380Y-71628000D01*
X113498380Y-71294666D01*
X113498380Y-71056571D02*
X113498380Y-70437523D01*
X113879333Y-70770857D01*
X113879333Y-70628000D01*
X113926952Y-70532761D01*
X113974571Y-70485142D01*
X114069809Y-70437523D01*
X114307904Y-70437523D01*
X114403142Y-70485142D01*
X114450761Y-70532761D01*
X114498380Y-70628000D01*
X114498380Y-70913714D01*
X114450761Y-71008952D01*
X114403142Y-71056571D01*
X139112666Y-105624380D02*
X139112666Y-106338666D01*
X139065047Y-106481523D01*
X138969809Y-106576761D01*
X138826952Y-106624380D01*
X138731714Y-106624380D01*
X140017428Y-105624380D02*
X139826952Y-105624380D01*
X139731714Y-105672000D01*
X139684095Y-105719619D01*
X139588857Y-105862476D01*
X139541238Y-106052952D01*
X139541238Y-106433904D01*
X139588857Y-106529142D01*
X139636476Y-106576761D01*
X139731714Y-106624380D01*
X139922190Y-106624380D01*
X140017428Y-106576761D01*
X140065047Y-106529142D01*
X140112666Y-106433904D01*
X140112666Y-106195809D01*
X140065047Y-106100571D01*
X140017428Y-106052952D01*
X139922190Y-106005333D01*
X139731714Y-106005333D01*
X139636476Y-106052952D01*
X139588857Y-106100571D01*
X139541238Y-106195809D01*
M02*
