M48
; DRILL file {KiCad (5.1.4-0-10_14)} date Friday, May 08, 2020 at 01:12:17 PM
; FORMAT={-:-/ absolute / inch / decimal}
; #@! TF.CreationDate,2020-05-08T13:12:17-04:00
; #@! TF.GenerationSoftware,Kicad,Pcbnew,(5.1.4-0-10_14)
; #@! TF.FileFunction,Plated,1,2,PTH
FMAT,2
INCH
T1C0.0157
T2C0.0315
T3C0.0394
%
G90
G05
T1
X4.495Y-2.14
X4.69Y-2.34
X4.99Y-2.44
X5.585Y-2.84
T2
X4.9681Y-3.31
X5.165Y-3.31
X5.5Y-3.31
X5.6531Y-3.31
X5.85Y-3.31
X4.815Y-3.31
T3
X6.275Y-3.61
X6.375Y-3.61
X6.475Y-3.61
X5.5Y-3.41
X5.5Y-3.51
X5.5Y-3.61
X5.5Y-3.71
X5.5Y-3.81
X5.5Y-3.91
X6.0Y-3.41
X6.0Y-3.51
X6.0Y-3.61
X6.0Y-3.71
X6.0Y-3.81
X6.0Y-3.91
X6.0Y-4.01
X4.505Y-3.635
X4.505Y-3.835
X4.505Y-3.235
X4.505Y-3.435
X5.5Y-4.01
X6.0Y-3.31
X6.1975Y-4.175
X6.2975Y-4.175
X6.3975Y-4.175
X5.6Y-4.175
X5.7Y-4.175
X5.8Y-4.175
X5.9Y-4.175
X4.815Y-3.41
X4.815Y-3.51
X4.815Y-3.61
X4.815Y-3.71
X4.815Y-3.81
X4.815Y-3.91
X4.815Y-4.01
X5.215Y-4.175
X4.49Y-2.04
X4.49Y-2.94
X4.59Y-2.04
X4.59Y-2.94
X4.69Y-2.04
X4.69Y-2.94
X4.79Y-2.04
X4.79Y-2.94
X4.89Y-2.04
X4.89Y-2.94
X4.99Y-2.04
X4.99Y-2.94
X5.09Y-2.04
X5.09Y-2.94
X5.19Y-2.04
X5.19Y-2.94
X5.29Y-2.04
X5.29Y-2.94
X5.39Y-2.04
X5.39Y-2.94
X5.49Y-2.04
X5.49Y-2.94
X5.59Y-2.04
X5.59Y-2.94
X5.69Y-2.04
X5.69Y-2.94
X5.79Y-2.04
X5.79Y-2.94
X5.89Y-2.04
X5.89Y-2.94
X5.99Y-2.04
X5.99Y-2.94
X6.09Y-2.04
X6.09Y-2.94
X6.19Y-2.04
X6.19Y-2.94
X6.29Y-2.04
X6.29Y-2.94
X4.49Y-3.045
X4.59Y-3.045
X4.69Y-3.045
X4.79Y-3.045
X4.89Y-3.045
X4.99Y-3.045
X5.09Y-3.045
X5.19Y-3.045
X5.29Y-3.045
X5.39Y-3.045
X5.49Y-3.045
X5.59Y-3.045
X5.69Y-3.045
X5.79Y-3.045
X5.315Y-3.41
X5.89Y-3.045
X5.99Y-3.045
X6.09Y-3.045
X6.19Y-3.045
X6.29Y-3.045
X4.915Y-4.175
X5.115Y-4.175
X5.315Y-3.31
X5.315Y-3.51
X5.315Y-3.61
X5.315Y-3.71
X5.315Y-3.81
X5.315Y-3.91
X5.69Y-2.14
X5.69Y-2.24
X5.69Y-2.34
X5.69Y-2.44
X5.69Y-2.54
X5.69Y-2.64
X5.69Y-2.74
X5.69Y-2.84
X5.015Y-4.175
X5.315Y-4.01
T0
M30
