G04 #@! TF.GenerationSoftware,KiCad,Pcbnew,(5.1.2-1)-1*
G04 #@! TF.CreationDate,2019-10-28T15:32:03-04:00*
G04 #@! TF.ProjectId,balancebot,62616c61-6e63-4656-926f-742e6b696361,rev?*
G04 #@! TF.SameCoordinates,Original*
G04 #@! TF.FileFunction,Legend,Top*
G04 #@! TF.FilePolarity,Positive*
%FSLAX46Y46*%
G04 Gerber Fmt 4.6, Leading zero omitted, Abs format (unit mm)*
G04 Created by KiCad (PCBNEW (5.1.2-1)-1) date 2019-10-28 15:32:03*
%MOMM*%
%LPD*%
G04 APERTURE LIST*
%ADD10C,0.150000*%
%ADD11C,0.300000*%
%ADD12C,0.120000*%
%ADD13C,0.125000*%
%ADD14C,0.127000*%
G04 APERTURE END LIST*
D10*
X-8492857Y12136428D02*
X-8159523Y12136428D01*
X-8016666Y11612619D02*
X-8492857Y11612619D01*
X-8492857Y12612619D01*
X-8016666Y12612619D01*
X-7635714Y11660238D02*
X-7492857Y11612619D01*
X-7254761Y11612619D01*
X-7159523Y11660238D01*
X-7111904Y11707857D01*
X-7064285Y11803095D01*
X-7064285Y11898333D01*
X-7111904Y11993571D01*
X-7159523Y12041190D01*
X-7254761Y12088809D01*
X-7445238Y12136428D01*
X-7540476Y12184047D01*
X-7588095Y12231666D01*
X-7635714Y12326904D01*
X-7635714Y12422142D01*
X-7588095Y12517380D01*
X-7540476Y12565000D01*
X-7445238Y12612619D01*
X-7207142Y12612619D01*
X-7064285Y12565000D01*
X-6635714Y11612619D02*
X-6635714Y12612619D01*
X-6254761Y12612619D01*
X-6159523Y12565000D01*
X-6111904Y12517380D01*
X-6064285Y12422142D01*
X-6064285Y12279285D01*
X-6111904Y12184047D01*
X-6159523Y12136428D01*
X-6254761Y12088809D01*
X-6635714Y12088809D01*
X-5730952Y12612619D02*
X-5111904Y12612619D01*
X-5445238Y12231666D01*
X-5302380Y12231666D01*
X-5207142Y12184047D01*
X-5159523Y12136428D01*
X-5111904Y12041190D01*
X-5111904Y11803095D01*
X-5159523Y11707857D01*
X-5207142Y11660238D01*
X-5302380Y11612619D01*
X-5588095Y11612619D01*
X-5683333Y11660238D01*
X-5730952Y11707857D01*
X-4730952Y12517380D02*
X-4683333Y12565000D01*
X-4588095Y12612619D01*
X-4350000Y12612619D01*
X-4254761Y12565000D01*
X-4207142Y12517380D01*
X-4159523Y12422142D01*
X-4159523Y12326904D01*
X-4207142Y12184047D01*
X-4778571Y11612619D01*
X-4159523Y11612619D01*
X-5945238Y-22970714D02*
X-5897619Y-22827857D01*
X-5897619Y-22589761D01*
X-5945238Y-22494523D01*
X-5992857Y-22446904D01*
X-6088095Y-22399285D01*
X-6183333Y-22399285D01*
X-6278571Y-22446904D01*
X-6326190Y-22494523D01*
X-6373809Y-22589761D01*
X-6421428Y-22780238D01*
X-6469047Y-22875476D01*
X-6516666Y-22923095D01*
X-6611904Y-22970714D01*
X-6707142Y-22970714D01*
X-6802380Y-22923095D01*
X-6850000Y-22875476D01*
X-6897619Y-22780238D01*
X-6897619Y-22542142D01*
X-6850000Y-22399285D01*
X-6564285Y-22113571D02*
X-6564285Y-21732619D01*
X-6897619Y-21970714D02*
X-6040476Y-21970714D01*
X-5945238Y-21923095D01*
X-5897619Y-21827857D01*
X-5897619Y-21732619D01*
X-5945238Y-21018333D02*
X-5897619Y-21113571D01*
X-5897619Y-21304047D01*
X-5945238Y-21399285D01*
X-6040476Y-21446904D01*
X-6421428Y-21446904D01*
X-6516666Y-21399285D01*
X-6564285Y-21304047D01*
X-6564285Y-21113571D01*
X-6516666Y-21018333D01*
X-6421428Y-20970714D01*
X-6326190Y-20970714D01*
X-6230952Y-21446904D01*
X-6564285Y-20542142D02*
X-5564285Y-20542142D01*
X-6516666Y-20542142D02*
X-6564285Y-20446904D01*
X-6564285Y-20256428D01*
X-6516666Y-20161190D01*
X-6469047Y-20113571D01*
X-6373809Y-20065952D01*
X-6088095Y-20065952D01*
X-5992857Y-20113571D01*
X-5945238Y-20161190D01*
X-5897619Y-20256428D01*
X-5897619Y-20446904D01*
X-5945238Y-20542142D01*
X-5945238Y-19685000D02*
X-5897619Y-19542142D01*
X-5897619Y-19304047D01*
X-5945238Y-19208809D01*
X-5992857Y-19161190D01*
X-6088095Y-19113571D01*
X-6183333Y-19113571D01*
X-6278571Y-19161190D01*
X-6326190Y-19208809D01*
X-6373809Y-19304047D01*
X-6421428Y-19494523D01*
X-6469047Y-19589761D01*
X-6516666Y-19637380D01*
X-6611904Y-19685000D01*
X-6707142Y-19685000D01*
X-6802380Y-19637380D01*
X-6850000Y-19589761D01*
X-6897619Y-19494523D01*
X-6897619Y-19256428D01*
X-6850000Y-19113571D01*
X-6564285Y-18827857D02*
X-6564285Y-18446904D01*
X-6897619Y-18685000D02*
X-6040476Y-18685000D01*
X-5945238Y-18637380D01*
X-5897619Y-18542142D01*
X-5897619Y-18446904D01*
X-5897619Y-18113571D02*
X-6564285Y-18113571D01*
X-6897619Y-18113571D02*
X-6850000Y-18161190D01*
X-6802380Y-18113571D01*
X-6850000Y-18065952D01*
X-6897619Y-18113571D01*
X-6802380Y-18113571D01*
X-5945238Y-17208809D02*
X-5897619Y-17304047D01*
X-5897619Y-17494523D01*
X-5945238Y-17589761D01*
X-5992857Y-17637380D01*
X-6088095Y-17685000D01*
X-6373809Y-17685000D01*
X-6469047Y-17637380D01*
X-6516666Y-17589761D01*
X-6564285Y-17494523D01*
X-6564285Y-17304047D01*
X-6516666Y-17208809D01*
X-5897619Y-16780238D02*
X-6897619Y-16780238D01*
X-6278571Y-16685000D02*
X-5897619Y-16399285D01*
X-6564285Y-16399285D02*
X-6183333Y-16780238D01*
X-21820238Y-22970714D02*
X-21772619Y-22827857D01*
X-21772619Y-22589761D01*
X-21820238Y-22494523D01*
X-21867857Y-22446904D01*
X-21963095Y-22399285D01*
X-22058333Y-22399285D01*
X-22153571Y-22446904D01*
X-22201190Y-22494523D01*
X-22248809Y-22589761D01*
X-22296428Y-22780238D01*
X-22344047Y-22875476D01*
X-22391666Y-22923095D01*
X-22486904Y-22970714D01*
X-22582142Y-22970714D01*
X-22677380Y-22923095D01*
X-22725000Y-22875476D01*
X-22772619Y-22780238D01*
X-22772619Y-22542142D01*
X-22725000Y-22399285D01*
X-22439285Y-22113571D02*
X-22439285Y-21732619D01*
X-22772619Y-21970714D02*
X-21915476Y-21970714D01*
X-21820238Y-21923095D01*
X-21772619Y-21827857D01*
X-21772619Y-21732619D01*
X-21820238Y-21018333D02*
X-21772619Y-21113571D01*
X-21772619Y-21304047D01*
X-21820238Y-21399285D01*
X-21915476Y-21446904D01*
X-22296428Y-21446904D01*
X-22391666Y-21399285D01*
X-22439285Y-21304047D01*
X-22439285Y-21113571D01*
X-22391666Y-21018333D01*
X-22296428Y-20970714D01*
X-22201190Y-20970714D01*
X-22105952Y-21446904D01*
X-22439285Y-20542142D02*
X-21439285Y-20542142D01*
X-22391666Y-20542142D02*
X-22439285Y-20446904D01*
X-22439285Y-20256428D01*
X-22391666Y-20161190D01*
X-22344047Y-20113571D01*
X-22248809Y-20065952D01*
X-21963095Y-20065952D01*
X-21867857Y-20113571D01*
X-21820238Y-20161190D01*
X-21772619Y-20256428D01*
X-21772619Y-20446904D01*
X-21820238Y-20542142D01*
X-21820238Y-19685000D02*
X-21772619Y-19542142D01*
X-21772619Y-19304047D01*
X-21820238Y-19208809D01*
X-21867857Y-19161190D01*
X-21963095Y-19113571D01*
X-22058333Y-19113571D01*
X-22153571Y-19161190D01*
X-22201190Y-19208809D01*
X-22248809Y-19304047D01*
X-22296428Y-19494523D01*
X-22344047Y-19589761D01*
X-22391666Y-19637380D01*
X-22486904Y-19685000D01*
X-22582142Y-19685000D01*
X-22677380Y-19637380D01*
X-22725000Y-19589761D01*
X-22772619Y-19494523D01*
X-22772619Y-19256428D01*
X-22725000Y-19113571D01*
X-22439285Y-18827857D02*
X-22439285Y-18446904D01*
X-22772619Y-18685000D02*
X-21915476Y-18685000D01*
X-21820238Y-18637380D01*
X-21772619Y-18542142D01*
X-21772619Y-18446904D01*
X-21772619Y-18113571D02*
X-22439285Y-18113571D01*
X-22772619Y-18113571D02*
X-22725000Y-18161190D01*
X-22677380Y-18113571D01*
X-22725000Y-18065952D01*
X-22772619Y-18113571D01*
X-22677380Y-18113571D01*
X-21820238Y-17208809D02*
X-21772619Y-17304047D01*
X-21772619Y-17494523D01*
X-21820238Y-17589761D01*
X-21867857Y-17637380D01*
X-21963095Y-17685000D01*
X-22248809Y-17685000D01*
X-22344047Y-17637380D01*
X-22391666Y-17589761D01*
X-22439285Y-17494523D01*
X-22439285Y-17304047D01*
X-22391666Y-17208809D01*
X-21772619Y-16780238D02*
X-22772619Y-16780238D01*
X-22153571Y-16685000D02*
X-21772619Y-16399285D01*
X-22439285Y-16399285D02*
X-22058333Y-16780238D01*
D11*
X17914285Y-2294285D02*
X17971428Y-2122857D01*
X18028571Y-2065714D01*
X18142857Y-2008571D01*
X18314285Y-2008571D01*
X18428571Y-2065714D01*
X18485714Y-2122857D01*
X18542857Y-2237142D01*
X18542857Y-2694285D01*
X17342857Y-2694285D01*
X17342857Y-2294285D01*
X17400000Y-2180000D01*
X17457142Y-2122857D01*
X17571428Y-2065714D01*
X17685714Y-2065714D01*
X17800000Y-2122857D01*
X17857142Y-2180000D01*
X17914285Y-2294285D01*
X17914285Y-2694285D01*
X18542857Y-980000D02*
X17914285Y-980000D01*
X17800000Y-1037142D01*
X17742857Y-1151428D01*
X17742857Y-1380000D01*
X17800000Y-1494285D01*
X18485714Y-980000D02*
X18542857Y-1094285D01*
X18542857Y-1380000D01*
X18485714Y-1494285D01*
X18371428Y-1551428D01*
X18257142Y-1551428D01*
X18142857Y-1494285D01*
X18085714Y-1380000D01*
X18085714Y-1094285D01*
X18028571Y-980000D01*
X18542857Y-237142D02*
X18485714Y-351428D01*
X18371428Y-408571D01*
X17342857Y-408571D01*
X18542857Y734285D02*
X17914285Y734285D01*
X17800000Y677142D01*
X17742857Y562857D01*
X17742857Y334285D01*
X17800000Y220000D01*
X18485714Y734285D02*
X18542857Y620000D01*
X18542857Y334285D01*
X18485714Y220000D01*
X18371428Y162857D01*
X18257142Y162857D01*
X18142857Y220000D01*
X18085714Y334285D01*
X18085714Y620000D01*
X18028571Y734285D01*
X17742857Y1305714D02*
X18542857Y1305714D01*
X17857142Y1305714D02*
X17800000Y1362857D01*
X17742857Y1477142D01*
X17742857Y1648571D01*
X17800000Y1762857D01*
X17914285Y1820000D01*
X18542857Y1820000D01*
X18485714Y2905714D02*
X18542857Y2791428D01*
X18542857Y2562857D01*
X18485714Y2448571D01*
X18428571Y2391428D01*
X18314285Y2334285D01*
X17971428Y2334285D01*
X17857142Y2391428D01*
X17800000Y2448571D01*
X17742857Y2562857D01*
X17742857Y2791428D01*
X17800000Y2905714D01*
X18485714Y3877142D02*
X18542857Y3762857D01*
X18542857Y3534285D01*
X18485714Y3420000D01*
X18371428Y3362857D01*
X17914285Y3362857D01*
X17800000Y3420000D01*
X17742857Y3534285D01*
X17742857Y3762857D01*
X17800000Y3877142D01*
X17914285Y3934285D01*
X18028571Y3934285D01*
X18142857Y3362857D01*
X17914285Y4848571D02*
X17971428Y5020000D01*
X18028571Y5077142D01*
X18142857Y5134285D01*
X18314285Y5134285D01*
X18428571Y5077142D01*
X18485714Y5020000D01*
X18542857Y4905714D01*
X18542857Y4448571D01*
X17342857Y4448571D01*
X17342857Y4848571D01*
X17400000Y4962857D01*
X17457142Y5020000D01*
X17571428Y5077142D01*
X17685714Y5077142D01*
X17800000Y5020000D01*
X17857142Y4962857D01*
X17914285Y4848571D01*
X17914285Y4448571D01*
X18542857Y5820000D02*
X18485714Y5705714D01*
X18428571Y5648571D01*
X18314285Y5591428D01*
X17971428Y5591428D01*
X17857142Y5648571D01*
X17800000Y5705714D01*
X17742857Y5820000D01*
X17742857Y5991428D01*
X17800000Y6105714D01*
X17857142Y6162857D01*
X17971428Y6220000D01*
X18314285Y6220000D01*
X18428571Y6162857D01*
X18485714Y6105714D01*
X18542857Y5991428D01*
X18542857Y5820000D01*
X17742857Y6562857D02*
X17742857Y7020000D01*
X17342857Y6734285D02*
X18371428Y6734285D01*
X18485714Y6791428D01*
X18542857Y6905714D01*
X18542857Y7020000D01*
X18542857Y8334285D02*
X17342857Y8334285D01*
X17800000Y8334285D02*
X17742857Y8448571D01*
X17742857Y8677142D01*
X17800000Y8791428D01*
X17857142Y8848571D01*
X17971428Y8905714D01*
X18314285Y8905714D01*
X18428571Y8848571D01*
X18485714Y8791428D01*
X18542857Y8677142D01*
X18542857Y8448571D01*
X18485714Y8334285D01*
X17742857Y9305714D02*
X18542857Y9591428D01*
X17742857Y9877142D02*
X18542857Y9591428D01*
X18828571Y9477142D01*
X18885714Y9420000D01*
X18942857Y9305714D01*
X17914285Y11648571D02*
X17914285Y11248571D01*
X18542857Y11248571D02*
X17342857Y11248571D01*
X17342857Y11820000D01*
X18542857Y12277142D02*
X17742857Y12277142D01*
X17971428Y12277142D02*
X17857142Y12334285D01*
X17800000Y12391428D01*
X17742857Y12505714D01*
X17742857Y12620000D01*
X18542857Y13191428D02*
X18485714Y13077142D01*
X18428571Y13020000D01*
X18314285Y12962857D01*
X17971428Y12962857D01*
X17857142Y13020000D01*
X17800000Y13077142D01*
X17742857Y13191428D01*
X17742857Y13362857D01*
X17800000Y13477142D01*
X17857142Y13534285D01*
X17971428Y13591428D01*
X18314285Y13591428D01*
X18428571Y13534285D01*
X18485714Y13477142D01*
X18542857Y13362857D01*
X18542857Y13191428D01*
X18485714Y14048571D02*
X18542857Y14162857D01*
X18542857Y14391428D01*
X18485714Y14505714D01*
X18371428Y14562857D01*
X18314285Y14562857D01*
X18200000Y14505714D01*
X18142857Y14391428D01*
X18142857Y14220000D01*
X18085714Y14105714D01*
X17971428Y14048571D01*
X17914285Y14048571D01*
X17800000Y14105714D01*
X17742857Y14220000D01*
X17742857Y14391428D01*
X17800000Y14505714D01*
X17742857Y14905714D02*
X17742857Y15362857D01*
X17342857Y15077142D02*
X18371428Y15077142D01*
X18485714Y15134285D01*
X18542857Y15248571D01*
X18542857Y15362857D01*
X18542857Y15762857D02*
X17742857Y15762857D01*
X17342857Y15762857D02*
X17400000Y15705714D01*
X17457142Y15762857D01*
X17400000Y15820000D01*
X17342857Y15762857D01*
X17457142Y15762857D01*
X18485714Y16791428D02*
X18542857Y16677142D01*
X18542857Y16448571D01*
X18485714Y16334285D01*
X18371428Y16277142D01*
X17914285Y16277142D01*
X17800000Y16334285D01*
X17742857Y16448571D01*
X17742857Y16677142D01*
X17800000Y16791428D01*
X17914285Y16848571D01*
X18028571Y16848571D01*
X18142857Y16277142D01*
X17914285Y17762857D02*
X17971428Y17934285D01*
X18028571Y17991428D01*
X18142857Y18048571D01*
X18314285Y18048571D01*
X18428571Y17991428D01*
X18485714Y17934285D01*
X18542857Y17820000D01*
X18542857Y17362857D01*
X17342857Y17362857D01*
X17342857Y17762857D01*
X17400000Y17877142D01*
X17457142Y17934285D01*
X17571428Y17991428D01*
X17685714Y17991428D01*
X17800000Y17934285D01*
X17857142Y17877142D01*
X17914285Y17762857D01*
X17914285Y17362857D01*
X18542857Y18734285D02*
X18485714Y18620000D01*
X18428571Y18562857D01*
X18314285Y18505714D01*
X17971428Y18505714D01*
X17857142Y18562857D01*
X17800000Y18620000D01*
X17742857Y18734285D01*
X17742857Y18905714D01*
X17800000Y19020000D01*
X17857142Y19077142D01*
X17971428Y19134285D01*
X18314285Y19134285D01*
X18428571Y19077142D01*
X18485714Y19020000D01*
X18542857Y18905714D01*
X18542857Y18734285D01*
X17742857Y19477142D02*
X17742857Y19934285D01*
X17342857Y19648571D02*
X18371428Y19648571D01*
X18485714Y19705714D01*
X18542857Y19820000D01*
X18542857Y19934285D01*
X19842857Y-2808571D02*
X20642857Y-2522857D01*
X19842857Y-2237142D01*
X19442857Y-1551428D02*
X19442857Y-1437142D01*
X19500000Y-1322857D01*
X19557142Y-1265714D01*
X19671428Y-1208571D01*
X19900000Y-1151428D01*
X20185714Y-1151428D01*
X20414285Y-1208571D01*
X20528571Y-1265714D01*
X20585714Y-1322857D01*
X20642857Y-1437142D01*
X20642857Y-1551428D01*
X20585714Y-1665714D01*
X20528571Y-1722857D01*
X20414285Y-1780000D01*
X20185714Y-1837142D01*
X19900000Y-1837142D01*
X19671428Y-1780000D01*
X19557142Y-1722857D01*
X19500000Y-1665714D01*
X19442857Y-1551428D01*
X20528571Y-637142D02*
X20585714Y-580000D01*
X20642857Y-637142D01*
X20585714Y-694285D01*
X20528571Y-637142D01*
X20642857Y-637142D01*
X20642857Y562857D02*
X20642857Y-122857D01*
X20642857Y220000D02*
X19442857Y220000D01*
X19614285Y105714D01*
X19728571Y-8571D01*
X19785714Y-122857D01*
X20528571Y1077142D02*
X20585714Y1134285D01*
X20642857Y1077142D01*
X20585714Y1020000D01*
X20528571Y1077142D01*
X20642857Y1077142D01*
X19842857Y2162857D02*
X20642857Y2162857D01*
X19385714Y1877142D02*
X20242857Y1591428D01*
X20242857Y2334285D01*
D12*
X12700000Y-27305000D02*
X12700000Y-29845000D01*
X10160000Y-27305000D02*
X12700000Y-27305000D01*
X10160000Y-29845000D02*
X10160000Y-27305000D01*
X7620000Y-29845000D02*
X10160000Y-29845000D01*
X7560000Y-31115000D02*
X7620000Y-29845000D01*
X7620000Y-27305000D02*
X7560000Y-31115000D01*
X15240000Y-27305000D02*
X7620000Y-27305000D01*
X15300000Y-29785000D02*
X15240000Y-27305000D01*
D13*
X13720000Y-28955952D02*
X13696190Y-29003571D01*
X13696190Y-29075000D01*
X13720000Y-29146428D01*
X13767619Y-29194047D01*
X13815238Y-29217857D01*
X13910476Y-29241666D01*
X13981904Y-29241666D01*
X14077142Y-29217857D01*
X14124761Y-29194047D01*
X14172380Y-29146428D01*
X14196190Y-29075000D01*
X14196190Y-29027380D01*
X14172380Y-28955952D01*
X14148571Y-28932142D01*
X13981904Y-28932142D01*
X13981904Y-29027380D01*
X14196190Y-28717857D02*
X13696190Y-28717857D01*
X14196190Y-28432142D01*
X13696190Y-28432142D01*
X14196190Y-28194047D02*
X13696190Y-28194047D01*
X13696190Y-28075000D01*
X13720000Y-28003571D01*
X13767619Y-27955952D01*
X13815238Y-27932142D01*
X13910476Y-27908333D01*
X13981904Y-27908333D01*
X14077142Y-27932142D01*
X14124761Y-27955952D01*
X14172380Y-28003571D01*
X14196190Y-28075000D01*
X14196190Y-28194047D01*
X11156190Y-28670238D02*
X11156190Y-28908333D01*
X11394285Y-28932142D01*
X11370476Y-28908333D01*
X11346666Y-28860714D01*
X11346666Y-28741666D01*
X11370476Y-28694047D01*
X11394285Y-28670238D01*
X11441904Y-28646428D01*
X11560952Y-28646428D01*
X11608571Y-28670238D01*
X11632380Y-28694047D01*
X11656190Y-28741666D01*
X11656190Y-28860714D01*
X11632380Y-28908333D01*
X11608571Y-28932142D01*
X11156190Y-28503571D02*
X11656190Y-28336904D01*
X11156190Y-28170238D01*
X9116190Y-29277380D02*
X8616190Y-29277380D01*
X8616190Y-29086904D01*
X8640000Y-29039285D01*
X8663809Y-29015476D01*
X8711428Y-28991666D01*
X8782857Y-28991666D01*
X8830476Y-29015476D01*
X8854285Y-29039285D01*
X8878095Y-29086904D01*
X8878095Y-29277380D01*
X8616190Y-28825000D02*
X9116190Y-28705952D01*
X8759047Y-28610714D01*
X9116190Y-28515476D01*
X8616190Y-28396428D01*
X9116190Y-28205952D02*
X8616190Y-28205952D01*
X8973333Y-28039285D01*
X8616190Y-27872619D01*
X9116190Y-27872619D01*
D12*
X-32385000Y-8890000D02*
X-32385000Y-19050000D01*
X-35270000Y-8890000D02*
X-32385000Y-8890000D01*
D10*
X-4190952Y-12771428D02*
X-3429047Y-12771428D01*
X-3810000Y-13152380D02*
X-3810000Y-12390476D01*
X-20065952Y-12771428D02*
X-19304047Y-12771428D01*
X-19685000Y-13152380D02*
X-19685000Y-12390476D01*
D12*
X-32385000Y-29210000D02*
X-35270000Y-29210000D01*
X-32385000Y-19050000D02*
X-32385000Y-29210000D01*
X-35270000Y-19050000D02*
X-32385000Y-19050000D01*
X-31813500Y-3870000D02*
X-31813500Y-1206500D01*
X-31813500Y-3873500D02*
X-29210000Y-3873500D01*
X-31813500Y-1210000D02*
X16570000Y-1210000D01*
X16570000Y-3870000D02*
X16570000Y-1210000D01*
X-29210000Y-3870000D02*
X16570000Y-3870000D01*
X7620000Y-6350000D02*
X7620000Y-26670000D01*
D10*
X4889500Y-6350000D02*
X20510500Y-6350000D01*
X4889500Y-26670000D02*
X4889500Y-6350000D01*
X20510500Y-26670000D02*
X4889500Y-26670000D01*
X20510500Y-6350000D02*
X20510500Y-26670000D01*
X19050000Y-24130000D02*
G75*
G03X19050000Y-24130000I-1270000J0D01*
G01*
X19050000Y-8890000D02*
G75*
G03X19050000Y-8890000I-1270000J0D01*
G01*
D12*
X1400000Y-8760000D02*
X-11430000Y-8760000D01*
X1400000Y-29340000D02*
X1400000Y-8760000D01*
X-14100000Y-29340000D02*
X1400000Y-29340000D01*
X-14100000Y-11430000D02*
X-14100000Y-29340000D01*
X-11430000Y-8760000D02*
X-11430000Y-11430000D01*
X-14100000Y-8760000D02*
X-14097000Y-11430000D01*
X-11430000Y-8763000D02*
X-14100000Y-8760000D01*
X-11430000Y-11430000D02*
X-11430000Y-29340000D01*
X-1270000Y-8760000D02*
X-1270000Y-29340000D01*
D14*
X-42470000Y-8890000D02*
X-42470000Y-19050000D01*
X-42470000Y-8890000D02*
X-35270000Y-8890000D01*
X-43470000Y-8890000D02*
X-42470000Y-8890000D01*
X-43470000Y-19050000D02*
X-43470000Y-8890000D01*
X-42470000Y-19050000D02*
X-43470000Y-19050000D01*
X-35270000Y-19050000D02*
X-42470000Y-19050000D01*
X-35270000Y-8890000D02*
X-35270000Y-19050000D01*
X-42470000Y-19050000D02*
X-42470000Y-29210000D01*
X-42470000Y-19050000D02*
X-35270000Y-19050000D01*
X-43470000Y-19050000D02*
X-42470000Y-19050000D01*
X-43470000Y-29210000D02*
X-43470000Y-19050000D01*
X-42470000Y-29210000D02*
X-43470000Y-29210000D01*
X-35270000Y-29210000D02*
X-42470000Y-29210000D01*
X-35270000Y-19050000D02*
X-35270000Y-29210000D01*
D12*
X-9930000Y-11530000D02*
X-9930000Y-8790000D01*
X-2690000Y-11530000D02*
X-2690000Y-8790000D01*
X-2690000Y-8790000D02*
X-9930000Y-8790000D01*
X-2690000Y-11530000D02*
X-9930000Y-11530000D01*
X-25805000Y-11530000D02*
X-25805000Y-8790000D01*
X-18565000Y-11530000D02*
X-18565000Y-8790000D01*
X-18565000Y-8790000D02*
X-25805000Y-8790000D01*
X-18565000Y-11530000D02*
X-25805000Y-11530000D01*
X-14475000Y-8760000D02*
X-27305000Y-8760000D01*
X-14475000Y-29340000D02*
X-14475000Y-8760000D01*
X-29975000Y-29340000D02*
X-14475000Y-29340000D01*
X-29975000Y-11430000D02*
X-29975000Y-29340000D01*
X-27305000Y-8760000D02*
X-27305000Y-11430000D01*
X-29975000Y-8760000D02*
X-29972000Y-11430000D01*
X-27305000Y-8763000D02*
X-29975000Y-8760000D01*
X-27305000Y-11430000D02*
X-27305000Y-29340000D01*
X-17145000Y-8760000D02*
X-17145000Y-29340000D01*
X-35560000Y2420000D02*
X-35560000Y-120000D01*
X-38100000Y2420000D02*
X-38100000Y-120000D01*
X-40640000Y2420000D02*
X-40640000Y-120000D01*
X-32980000Y18310000D02*
X-32980000Y2420000D01*
X-43220000Y18310000D02*
X-43220000Y2420000D01*
X-43220000Y18310000D02*
X-32980000Y18310000D01*
X-43220000Y2420000D02*
X-32980000Y2420000D01*
X-13970000Y2540000D02*
X-27940000Y2540000D01*
X-13970000Y20320000D02*
X-13970000Y2540000D01*
X-27940000Y20320000D02*
X-13970000Y20320000D01*
X-27940000Y2540000D02*
X-27940000Y20320000D01*
X-31750000Y-1270000D02*
X-29210000Y-1270000D01*
X-31750000Y1270000D02*
X-31750000Y-1270000D01*
X-31750000Y-1270000D02*
X-31750000Y0D01*
X-29210000Y1270000D02*
X-31750000Y1270000D01*
X-31750000Y21590000D02*
X16510000Y21590000D01*
X-29210000Y1270000D02*
X16510000Y1270000D01*
X16510000Y-1270000D02*
X16510000Y24130000D01*
X-29210000Y-1270000D02*
X16510000Y-1270000D01*
X-31750000Y24130000D02*
X16510000Y24130000D01*
X-31750000Y1270000D02*
X-31750000Y24130000D01*
X-11490000Y-32445000D02*
X-11490000Y-31115000D01*
X-10160000Y-32445000D02*
X-11490000Y-32445000D01*
X-8890000Y-32445000D02*
X-8890000Y-29785000D01*
X-8890000Y-29785000D02*
X-1210000Y-29785000D01*
X-8890000Y-32445000D02*
X-1210000Y-32445000D01*
X-1210000Y-32445000D02*
X-1210000Y-29785000D01*
X-27365000Y-32445000D02*
X-27365000Y-31115000D01*
X-26035000Y-32445000D02*
X-27365000Y-32445000D01*
X-24765000Y-32445000D02*
X-24765000Y-29785000D01*
X-24765000Y-29785000D02*
X-17085000Y-29785000D01*
X-24765000Y-32445000D02*
X-17085000Y-32445000D01*
X-17085000Y-32445000D02*
X-17085000Y-29785000D01*
X7560000Y-32445000D02*
X7560000Y-31115000D01*
X8890000Y-32445000D02*
X7560000Y-32445000D01*
X10160000Y-32445000D02*
X10160000Y-29785000D01*
X10160000Y-29785000D02*
X15300000Y-29785000D01*
X10160000Y-32445000D02*
X15300000Y-32445000D01*
X15300000Y-32445000D02*
X15300000Y-29785000D01*
X-37870000Y-2994000D02*
X-33330000Y-2994000D01*
X-37870000Y-5134000D02*
X-33330000Y-5134000D01*
X-37870000Y-2994000D02*
X-37870000Y-3009000D01*
X-37870000Y-5119000D02*
X-37870000Y-5134000D01*
X-33330000Y-2994000D02*
X-33330000Y-3009000D01*
X-33330000Y-5119000D02*
X-33330000Y-5134000D01*
X-33330000Y-7659000D02*
X-33330000Y-7674000D01*
X-33330000Y-5534000D02*
X-33330000Y-5549000D01*
X-37870000Y-7659000D02*
X-37870000Y-7674000D01*
X-37870000Y-5534000D02*
X-37870000Y-5549000D01*
X-37870000Y-7674000D02*
X-33330000Y-7674000D01*
X-37870000Y-5534000D02*
X-33330000Y-5534000D01*
D10*
X14906666Y-4532380D02*
X14906666Y-5246666D01*
X14859047Y-5389523D01*
X14763809Y-5484761D01*
X14620952Y-5532380D01*
X14525714Y-5532380D01*
X15287619Y-4532380D02*
X15906666Y-4532380D01*
X15573333Y-4913333D01*
X15716190Y-4913333D01*
X15811428Y-4960952D01*
X15859047Y-5008571D01*
X15906666Y-5103809D01*
X15906666Y-5341904D01*
X15859047Y-5437142D01*
X15811428Y-5484761D01*
X15716190Y-5532380D01*
X15430476Y-5532380D01*
X15335238Y-5484761D01*
X15287619Y-5437142D01*
X18923095Y-27392380D02*
X18923095Y-28201904D01*
X18970714Y-28297142D01*
X19018333Y-28344761D01*
X19113571Y-28392380D01*
X19304047Y-28392380D01*
X19399285Y-28344761D01*
X19446904Y-28297142D01*
X19494523Y-28201904D01*
X19494523Y-27392380D01*
X19875476Y-27392380D02*
X20494523Y-27392380D01*
X20161190Y-27773333D01*
X20304047Y-27773333D01*
X20399285Y-27820952D01*
X20446904Y-27868571D01*
X20494523Y-27963809D01*
X20494523Y-28201904D01*
X20446904Y-28297142D01*
X20399285Y-28344761D01*
X20304047Y-28392380D01*
X20018333Y-28392380D01*
X19923095Y-28344761D01*
X19875476Y-28297142D01*
X15692380Y-19771904D02*
X14692380Y-19771904D01*
X15406666Y-19438571D01*
X14692380Y-19105238D01*
X15692380Y-19105238D01*
X15692380Y-18629047D02*
X14692380Y-18629047D01*
X14692380Y-18248095D01*
X14740000Y-18152857D01*
X14787619Y-18105238D01*
X14882857Y-18057619D01*
X15025714Y-18057619D01*
X15120952Y-18105238D01*
X15168571Y-18152857D01*
X15216190Y-18248095D01*
X15216190Y-18629047D01*
X14692380Y-17629047D02*
X15501904Y-17629047D01*
X15597142Y-17581428D01*
X15644761Y-17533809D01*
X15692380Y-17438571D01*
X15692380Y-17248095D01*
X15644761Y-17152857D01*
X15597142Y-17105238D01*
X15501904Y-17057619D01*
X14692380Y-17057619D01*
X14692380Y-16152857D02*
X14692380Y-16343333D01*
X14740000Y-16438571D01*
X14787619Y-16486190D01*
X14930476Y-16581428D01*
X15120952Y-16629047D01*
X15501904Y-16629047D01*
X15597142Y-16581428D01*
X15644761Y-16533809D01*
X15692380Y-16438571D01*
X15692380Y-16248095D01*
X15644761Y-16152857D01*
X15597142Y-16105238D01*
X15501904Y-16057619D01*
X15263809Y-16057619D01*
X15168571Y-16105238D01*
X15120952Y-16152857D01*
X15073333Y-16248095D01*
X15073333Y-16438571D01*
X15120952Y-16533809D01*
X15168571Y-16581428D01*
X15263809Y-16629047D01*
X14692380Y-15438571D02*
X14692380Y-15343333D01*
X14740000Y-15248095D01*
X14787619Y-15200476D01*
X14882857Y-15152857D01*
X15073333Y-15105238D01*
X15311428Y-15105238D01*
X15501904Y-15152857D01*
X15597142Y-15200476D01*
X15644761Y-15248095D01*
X15692380Y-15343333D01*
X15692380Y-15438571D01*
X15644761Y-15533809D01*
X15597142Y-15581428D01*
X15501904Y-15629047D01*
X15311428Y-15676666D01*
X15073333Y-15676666D01*
X14882857Y-15629047D01*
X14787619Y-15581428D01*
X14740000Y-15533809D01*
X14692380Y-15438571D01*
X14692380Y-14200476D02*
X14692380Y-14676666D01*
X15168571Y-14724285D01*
X15120952Y-14676666D01*
X15073333Y-14581428D01*
X15073333Y-14343333D01*
X15120952Y-14248095D01*
X15168571Y-14200476D01*
X15263809Y-14152857D01*
X15501904Y-14152857D01*
X15597142Y-14200476D01*
X15644761Y-14248095D01*
X15692380Y-14343333D01*
X15692380Y-14581428D01*
X15644761Y-14676666D01*
X15597142Y-14724285D01*
X14692380Y-13533809D02*
X14692380Y-13438571D01*
X14740000Y-13343333D01*
X14787619Y-13295714D01*
X14882857Y-13248095D01*
X15073333Y-13200476D01*
X15311428Y-13200476D01*
X15501904Y-13248095D01*
X15597142Y-13295714D01*
X15644761Y-13343333D01*
X15692380Y-13438571D01*
X15692380Y-13533809D01*
X15644761Y-13629047D01*
X15597142Y-13676666D01*
X15501904Y-13724285D01*
X15311428Y-13771904D01*
X15073333Y-13771904D01*
X14882857Y-13724285D01*
X14787619Y-13676666D01*
X14740000Y-13629047D01*
X14692380Y-13533809D01*
D13*
X9301130Y-25852380D02*
X9301130Y-24852380D01*
X9777321Y-25852380D02*
X9777321Y-24852380D01*
X10348750Y-25852380D01*
X10348750Y-24852380D01*
X10682083Y-24852380D02*
X11253511Y-24852380D01*
X10967797Y-25852380D02*
X10967797Y-24852380D01*
X8634464Y-23026666D02*
X9110654Y-23026666D01*
X8539226Y-23312380D02*
X8872559Y-22312380D01*
X9205892Y-23312380D01*
X9539226Y-23312380D02*
X9539226Y-22312380D01*
X9777321Y-22312380D01*
X9920178Y-22360000D01*
X10015416Y-22455238D01*
X10063035Y-22550476D01*
X10110654Y-22740952D01*
X10110654Y-22883809D01*
X10063035Y-23074285D01*
X10015416Y-23169523D01*
X9920178Y-23264761D01*
X9777321Y-23312380D01*
X9539226Y-23312380D01*
X10729702Y-22312380D02*
X10920178Y-22312380D01*
X11015416Y-22360000D01*
X11110654Y-22455238D01*
X11158273Y-22645714D01*
X11158273Y-22979047D01*
X11110654Y-23169523D01*
X11015416Y-23264761D01*
X10920178Y-23312380D01*
X10729702Y-23312380D01*
X10634464Y-23264761D01*
X10539226Y-23169523D01*
X10491607Y-22979047D01*
X10491607Y-22645714D01*
X10539226Y-22455238D01*
X10634464Y-22360000D01*
X10729702Y-22312380D01*
X8729702Y-19772380D02*
X9396369Y-20772380D01*
X9396369Y-19772380D02*
X8729702Y-20772380D01*
X10348750Y-20677142D02*
X10301130Y-20724761D01*
X10158273Y-20772380D01*
X10063035Y-20772380D01*
X9920178Y-20724761D01*
X9824940Y-20629523D01*
X9777321Y-20534285D01*
X9729702Y-20343809D01*
X9729702Y-20200952D01*
X9777321Y-20010476D01*
X9824940Y-19915238D01*
X9920178Y-19820000D01*
X10063035Y-19772380D01*
X10158273Y-19772380D01*
X10301130Y-19820000D01*
X10348750Y-19867619D01*
X11253511Y-20772380D02*
X10777321Y-20772380D01*
X10777321Y-19772380D01*
X8682083Y-17232380D02*
X9348750Y-18232380D01*
X9348750Y-17232380D02*
X8682083Y-18232380D01*
X9729702Y-18232380D02*
X9729702Y-17232380D01*
X9967797Y-17232380D01*
X10110654Y-17280000D01*
X10205892Y-17375238D01*
X10253511Y-17470476D01*
X10301130Y-17660952D01*
X10301130Y-17803809D01*
X10253511Y-17994285D01*
X10205892Y-18089523D01*
X10110654Y-18184761D01*
X9967797Y-18232380D01*
X9729702Y-18232380D01*
X10682083Y-17946666D02*
X11158273Y-17946666D01*
X10586845Y-18232380D02*
X10920178Y-17232380D01*
X11253511Y-18232380D01*
X8729702Y-15644761D02*
X8872559Y-15692380D01*
X9110654Y-15692380D01*
X9205892Y-15644761D01*
X9253511Y-15597142D01*
X9301130Y-15501904D01*
X9301130Y-15406666D01*
X9253511Y-15311428D01*
X9205892Y-15263809D01*
X9110654Y-15216190D01*
X8920178Y-15168571D01*
X8824940Y-15120952D01*
X8777321Y-15073333D01*
X8729702Y-14978095D01*
X8729702Y-14882857D01*
X8777321Y-14787619D01*
X8824940Y-14740000D01*
X8920178Y-14692380D01*
X9158273Y-14692380D01*
X9301130Y-14740000D01*
X9729702Y-15692380D02*
X9729702Y-14692380D01*
X9967797Y-14692380D01*
X10110654Y-14740000D01*
X10205892Y-14835238D01*
X10253511Y-14930476D01*
X10301130Y-15120952D01*
X10301130Y-15263809D01*
X10253511Y-15454285D01*
X10205892Y-15549523D01*
X10110654Y-15644761D01*
X9967797Y-15692380D01*
X9729702Y-15692380D01*
X10682083Y-15406666D02*
X11158273Y-15406666D01*
X10586845Y-15692380D02*
X10920178Y-14692380D01*
X11253511Y-15692380D01*
X8777321Y-13104761D02*
X8920178Y-13152380D01*
X9158273Y-13152380D01*
X9253511Y-13104761D01*
X9301130Y-13057142D01*
X9348750Y-12961904D01*
X9348750Y-12866666D01*
X9301130Y-12771428D01*
X9253511Y-12723809D01*
X9158273Y-12676190D01*
X8967797Y-12628571D01*
X8872559Y-12580952D01*
X8824940Y-12533333D01*
X8777321Y-12438095D01*
X8777321Y-12342857D01*
X8824940Y-12247619D01*
X8872559Y-12200000D01*
X8967797Y-12152380D01*
X9205892Y-12152380D01*
X9348750Y-12200000D01*
X10348750Y-13057142D02*
X10301130Y-13104761D01*
X10158273Y-13152380D01*
X10063035Y-13152380D01*
X9920178Y-13104761D01*
X9824940Y-13009523D01*
X9777321Y-12914285D01*
X9729702Y-12723809D01*
X9729702Y-12580952D01*
X9777321Y-12390476D01*
X9824940Y-12295238D01*
X9920178Y-12200000D01*
X10063035Y-12152380D01*
X10158273Y-12152380D01*
X10301130Y-12200000D01*
X10348750Y-12247619D01*
X11253511Y-13152380D02*
X10777321Y-13152380D01*
X10777321Y-12152380D01*
X9063035Y-9660000D02*
X8967797Y-9612380D01*
X8824940Y-9612380D01*
X8682083Y-9660000D01*
X8586845Y-9755238D01*
X8539226Y-9850476D01*
X8491607Y-10040952D01*
X8491607Y-10183809D01*
X8539226Y-10374285D01*
X8586845Y-10469523D01*
X8682083Y-10564761D01*
X8824940Y-10612380D01*
X8920178Y-10612380D01*
X9063035Y-10564761D01*
X9110654Y-10517142D01*
X9110654Y-10183809D01*
X8920178Y-10183809D01*
X9539226Y-10612380D02*
X9539226Y-9612380D01*
X10110654Y-10612380D01*
X10110654Y-9612380D01*
X10586845Y-10612380D02*
X10586845Y-9612380D01*
X10824940Y-9612380D01*
X10967797Y-9660000D01*
X11063035Y-9755238D01*
X11110654Y-9850476D01*
X11158273Y-10040952D01*
X11158273Y-10183809D01*
X11110654Y-10374285D01*
X11063035Y-10469523D01*
X10967797Y-10564761D01*
X10824940Y-10612380D01*
X10586845Y-10612380D01*
X8586845Y-7072380D02*
X8920178Y-8072380D01*
X9253511Y-7072380D01*
X10158273Y-7977142D02*
X10110654Y-8024761D01*
X9967797Y-8072380D01*
X9872559Y-8072380D01*
X9729702Y-8024761D01*
X9634464Y-7929523D01*
X9586845Y-7834285D01*
X9539226Y-7643809D01*
X9539226Y-7500952D01*
X9586845Y-7310476D01*
X9634464Y-7215238D01*
X9729702Y-7120000D01*
X9872559Y-7072380D01*
X9967797Y-7072380D01*
X10110654Y-7120000D01*
X10158273Y-7167619D01*
X11158273Y-7977142D02*
X11110654Y-8024761D01*
X10967797Y-8072380D01*
X10872559Y-8072380D01*
X10729702Y-8024761D01*
X10634464Y-7929523D01*
X10586845Y-7834285D01*
X10539226Y-7643809D01*
X10539226Y-7500952D01*
X10586845Y-7310476D01*
X10634464Y-7215238D01*
X10729702Y-7120000D01*
X10872559Y-7072380D01*
X10967797Y-7072380D01*
X11110654Y-7120000D01*
X11158273Y-7167619D01*
D10*
X-13414285Y-7786666D02*
X-12938095Y-7786666D01*
X-13509523Y-8072380D02*
X-13176190Y-7072380D01*
X-12842857Y-8072380D01*
X-12557142Y-7167619D02*
X-12509523Y-7120000D01*
X-12414285Y-7072380D01*
X-12176190Y-7072380D01*
X-12080952Y-7120000D01*
X-12033333Y-7167619D01*
X-11985714Y-7262857D01*
X-11985714Y-7358095D01*
X-12033333Y-7500952D01*
X-12604761Y-8072380D01*
X-11985714Y-8072380D01*
D13*
X-2155000Y-28320952D02*
X-2178809Y-28368571D01*
X-2178809Y-28440000D01*
X-2155000Y-28511428D01*
X-2107380Y-28559047D01*
X-2059761Y-28582857D01*
X-1964523Y-28606666D01*
X-1893095Y-28606666D01*
X-1797857Y-28582857D01*
X-1750238Y-28559047D01*
X-1702619Y-28511428D01*
X-1678809Y-28440000D01*
X-1678809Y-28392380D01*
X-1702619Y-28320952D01*
X-1726428Y-28297142D01*
X-1893095Y-28297142D01*
X-1893095Y-28392380D01*
X-1678809Y-28082857D02*
X-2178809Y-28082857D01*
X-1678809Y-27797142D01*
X-2178809Y-27797142D01*
X-1678809Y-27559047D02*
X-2178809Y-27559047D01*
X-2178809Y-27440000D01*
X-2155000Y-27368571D01*
X-2107380Y-27320952D01*
X-2059761Y-27297142D01*
X-1964523Y-27273333D01*
X-1893095Y-27273333D01*
X-1797857Y-27297142D01*
X-1750238Y-27320952D01*
X-1702619Y-27368571D01*
X-1678809Y-27440000D01*
X-1678809Y-27559047D01*
X-10568809Y-28440000D02*
X-11068809Y-28440000D01*
X-11068809Y-28320952D01*
X-11045000Y-28249523D01*
X-10997380Y-28201904D01*
X-10949761Y-28178095D01*
X-10854523Y-28154285D01*
X-10783095Y-28154285D01*
X-10687857Y-28178095D01*
X-10640238Y-28201904D01*
X-10592619Y-28249523D01*
X-10568809Y-28320952D01*
X-10568809Y-28440000D01*
X-10568809Y-27940000D02*
X-11068809Y-27940000D01*
X-10568809Y-27416190D02*
X-10806904Y-27582857D01*
X-10568809Y-27701904D02*
X-11068809Y-27701904D01*
X-11068809Y-27511428D01*
X-11045000Y-27463809D01*
X-11021190Y-27440000D01*
X-10973571Y-27416190D01*
X-10902142Y-27416190D01*
X-10854523Y-27440000D01*
X-10830714Y-27463809D01*
X-10806904Y-27511428D01*
X-10806904Y-27701904D01*
X-2178809Y-11064761D02*
X-1678809Y-10898095D01*
X-2178809Y-10731428D01*
X-1678809Y-10564761D02*
X-2178809Y-10564761D01*
X-1821666Y-10398095D01*
X-2178809Y-10231428D01*
X-1678809Y-10231428D01*
X-2178809Y-9898095D02*
X-2178809Y-9802857D01*
X-2155000Y-9755238D01*
X-2107380Y-9707619D01*
X-2012142Y-9683809D01*
X-1845476Y-9683809D01*
X-1750238Y-9707619D01*
X-1702619Y-9755238D01*
X-1678809Y-9802857D01*
X-1678809Y-9898095D01*
X-1702619Y-9945714D01*
X-1750238Y-9993333D01*
X-1845476Y-10017142D01*
X-2012142Y-10017142D01*
X-2107380Y-9993333D01*
X-2155000Y-9945714D01*
X-2178809Y-9898095D01*
X-2178809Y-9540952D02*
X-2178809Y-9255238D01*
X-1678809Y-9398095D02*
X-2178809Y-9398095D01*
X-10830714Y-10529047D02*
X-10830714Y-10362380D01*
X-10568809Y-10290952D02*
X-10568809Y-10529047D01*
X-11068809Y-10529047D01*
X-11068809Y-10290952D01*
X-10568809Y-10076666D02*
X-11068809Y-10076666D01*
X-10568809Y-9790952D01*
X-11068809Y-9790952D01*
D10*
X-33250238Y-16184285D02*
X-33202619Y-16041428D01*
X-33202619Y-15803333D01*
X-33250238Y-15708095D01*
X-33297857Y-15660476D01*
X-33393095Y-15612857D01*
X-33488333Y-15612857D01*
X-33583571Y-15660476D01*
X-33631190Y-15708095D01*
X-33678809Y-15803333D01*
X-33726428Y-15993809D01*
X-33774047Y-16089047D01*
X-33821666Y-16136666D01*
X-33916904Y-16184285D01*
X-34012142Y-16184285D01*
X-34107380Y-16136666D01*
X-34155000Y-16089047D01*
X-34202619Y-15993809D01*
X-34202619Y-15755714D01*
X-34155000Y-15612857D01*
X-33869285Y-15279523D02*
X-33202619Y-15089047D01*
X-33678809Y-14898571D01*
X-33202619Y-14708095D01*
X-33869285Y-14517619D01*
X-33202619Y-14136666D02*
X-33869285Y-14136666D01*
X-34202619Y-14136666D02*
X-34155000Y-14184285D01*
X-34107380Y-14136666D01*
X-34155000Y-14089047D01*
X-34202619Y-14136666D01*
X-34107380Y-14136666D01*
X-33869285Y-13803333D02*
X-33869285Y-13422380D01*
X-34202619Y-13660476D02*
X-33345476Y-13660476D01*
X-33250238Y-13612857D01*
X-33202619Y-13517619D01*
X-33202619Y-13422380D01*
X-33250238Y-12660476D02*
X-33202619Y-12755714D01*
X-33202619Y-12946190D01*
X-33250238Y-13041428D01*
X-33297857Y-13089047D01*
X-33393095Y-13136666D01*
X-33678809Y-13136666D01*
X-33774047Y-13089047D01*
X-33821666Y-13041428D01*
X-33869285Y-12946190D01*
X-33869285Y-12755714D01*
X-33821666Y-12660476D01*
X-33202619Y-12231904D02*
X-34202619Y-12231904D01*
X-33202619Y-11803333D02*
X-33726428Y-11803333D01*
X-33821666Y-11850952D01*
X-33869285Y-11946190D01*
X-33869285Y-12089047D01*
X-33821666Y-12184285D01*
X-33774047Y-12231904D01*
X-33202619Y-27368095D02*
X-33202619Y-27939523D01*
X-33202619Y-27653809D02*
X-34202619Y-27653809D01*
X-34059761Y-27749047D01*
X-33964523Y-27844285D01*
X-33916904Y-27939523D01*
X-33202619Y-26415714D02*
X-33202619Y-26987142D01*
X-33202619Y-26701428D02*
X-34202619Y-26701428D01*
X-34059761Y-26796666D01*
X-33964523Y-26891904D01*
X-33916904Y-26987142D01*
X-33297857Y-25987142D02*
X-33250238Y-25939523D01*
X-33202619Y-25987142D01*
X-33250238Y-26034761D01*
X-33297857Y-25987142D01*
X-33202619Y-25987142D01*
X-33202619Y-24987142D02*
X-33202619Y-25558571D01*
X-33202619Y-25272857D02*
X-34202619Y-25272857D01*
X-34059761Y-25368095D01*
X-33964523Y-25463333D01*
X-33916904Y-25558571D01*
X-34202619Y-24701428D02*
X-33202619Y-24368095D01*
X-34202619Y-24034761D01*
X-33726428Y-22606190D02*
X-33678809Y-22463333D01*
X-33631190Y-22415714D01*
X-33535952Y-22368095D01*
X-33393095Y-22368095D01*
X-33297857Y-22415714D01*
X-33250238Y-22463333D01*
X-33202619Y-22558571D01*
X-33202619Y-22939523D01*
X-34202619Y-22939523D01*
X-34202619Y-22606190D01*
X-34155000Y-22510952D01*
X-34107380Y-22463333D01*
X-34012142Y-22415714D01*
X-33916904Y-22415714D01*
X-33821666Y-22463333D01*
X-33774047Y-22510952D01*
X-33726428Y-22606190D01*
X-33726428Y-22939523D01*
X-33202619Y-21510952D02*
X-33726428Y-21510952D01*
X-33821666Y-21558571D01*
X-33869285Y-21653809D01*
X-33869285Y-21844285D01*
X-33821666Y-21939523D01*
X-33250238Y-21510952D02*
X-33202619Y-21606190D01*
X-33202619Y-21844285D01*
X-33250238Y-21939523D01*
X-33345476Y-21987142D01*
X-33440714Y-21987142D01*
X-33535952Y-21939523D01*
X-33583571Y-21844285D01*
X-33583571Y-21606190D01*
X-33631190Y-21510952D01*
X-33869285Y-21177619D02*
X-33869285Y-20796666D01*
X-34202619Y-21034761D02*
X-33345476Y-21034761D01*
X-33250238Y-20987142D01*
X-33202619Y-20891904D01*
X-33202619Y-20796666D01*
X-33869285Y-20606190D02*
X-33869285Y-20225238D01*
X-34202619Y-20463333D02*
X-33345476Y-20463333D01*
X-33250238Y-20415714D01*
X-33202619Y-20320476D01*
X-33202619Y-20225238D01*
X-6476666Y-10567942D02*
X-6524285Y-10615561D01*
X-6667142Y-10663180D01*
X-6762380Y-10663180D01*
X-6905238Y-10615561D01*
X-7000476Y-10520323D01*
X-7048095Y-10425085D01*
X-7095714Y-10234609D01*
X-7095714Y-10091752D01*
X-7048095Y-9901276D01*
X-7000476Y-9806038D01*
X-6905238Y-9710800D01*
X-6762380Y-9663180D01*
X-6667142Y-9663180D01*
X-6524285Y-9710800D01*
X-6476666Y-9758419D01*
X-5619523Y-9996514D02*
X-5619523Y-10663180D01*
X-5857619Y-9615561D02*
X-6095714Y-10329847D01*
X-5476666Y-10329847D01*
X-22391666Y-10517142D02*
X-22439285Y-10564761D01*
X-22582142Y-10612380D01*
X-22677380Y-10612380D01*
X-22820238Y-10564761D01*
X-22915476Y-10469523D01*
X-22963095Y-10374285D01*
X-23010714Y-10183809D01*
X-23010714Y-10040952D01*
X-22963095Y-9850476D01*
X-22915476Y-9755238D01*
X-22820238Y-9660000D01*
X-22677380Y-9612380D01*
X-22582142Y-9612380D01*
X-22439285Y-9660000D01*
X-22391666Y-9707619D01*
X-22058333Y-9612380D02*
X-21439285Y-9612380D01*
X-21772619Y-9993333D01*
X-21629761Y-9993333D01*
X-21534523Y-10040952D01*
X-21486904Y-10088571D01*
X-21439285Y-10183809D01*
X-21439285Y-10421904D01*
X-21486904Y-10517142D01*
X-21534523Y-10564761D01*
X-21629761Y-10612380D01*
X-21915476Y-10612380D01*
X-22010714Y-10564761D01*
X-22058333Y-10517142D01*
X-29289285Y-7786666D02*
X-28813095Y-7786666D01*
X-29384523Y-8072380D02*
X-29051190Y-7072380D01*
X-28717857Y-8072380D01*
X-27860714Y-8072380D02*
X-28432142Y-8072380D01*
X-28146428Y-8072380D02*
X-28146428Y-7072380D01*
X-28241666Y-7215238D01*
X-28336904Y-7310476D01*
X-28432142Y-7358095D01*
D13*
X-18030000Y-28320952D02*
X-18053809Y-28368571D01*
X-18053809Y-28440000D01*
X-18030000Y-28511428D01*
X-17982380Y-28559047D01*
X-17934761Y-28582857D01*
X-17839523Y-28606666D01*
X-17768095Y-28606666D01*
X-17672857Y-28582857D01*
X-17625238Y-28559047D01*
X-17577619Y-28511428D01*
X-17553809Y-28440000D01*
X-17553809Y-28392380D01*
X-17577619Y-28320952D01*
X-17601428Y-28297142D01*
X-17768095Y-28297142D01*
X-17768095Y-28392380D01*
X-17553809Y-28082857D02*
X-18053809Y-28082857D01*
X-17553809Y-27797142D01*
X-18053809Y-27797142D01*
X-17553809Y-27559047D02*
X-18053809Y-27559047D01*
X-18053809Y-27440000D01*
X-18030000Y-27368571D01*
X-17982380Y-27320952D01*
X-17934761Y-27297142D01*
X-17839523Y-27273333D01*
X-17768095Y-27273333D01*
X-17672857Y-27297142D01*
X-17625238Y-27320952D01*
X-17577619Y-27368571D01*
X-17553809Y-27440000D01*
X-17553809Y-27559047D01*
X-26443809Y-28440000D02*
X-26943809Y-28440000D01*
X-26943809Y-28320952D01*
X-26920000Y-28249523D01*
X-26872380Y-28201904D01*
X-26824761Y-28178095D01*
X-26729523Y-28154285D01*
X-26658095Y-28154285D01*
X-26562857Y-28178095D01*
X-26515238Y-28201904D01*
X-26467619Y-28249523D01*
X-26443809Y-28320952D01*
X-26443809Y-28440000D01*
X-26443809Y-27940000D02*
X-26943809Y-27940000D01*
X-26443809Y-27416190D02*
X-26681904Y-27582857D01*
X-26443809Y-27701904D02*
X-26943809Y-27701904D01*
X-26943809Y-27511428D01*
X-26920000Y-27463809D01*
X-26896190Y-27440000D01*
X-26848571Y-27416190D01*
X-26777142Y-27416190D01*
X-26729523Y-27440000D01*
X-26705714Y-27463809D01*
X-26681904Y-27511428D01*
X-26681904Y-27701904D01*
X-18053809Y-11064761D02*
X-17553809Y-10898095D01*
X-18053809Y-10731428D01*
X-17553809Y-10564761D02*
X-18053809Y-10564761D01*
X-17696666Y-10398095D01*
X-18053809Y-10231428D01*
X-17553809Y-10231428D01*
X-18053809Y-9898095D02*
X-18053809Y-9802857D01*
X-18030000Y-9755238D01*
X-17982380Y-9707619D01*
X-17887142Y-9683809D01*
X-17720476Y-9683809D01*
X-17625238Y-9707619D01*
X-17577619Y-9755238D01*
X-17553809Y-9802857D01*
X-17553809Y-9898095D01*
X-17577619Y-9945714D01*
X-17625238Y-9993333D01*
X-17720476Y-10017142D01*
X-17887142Y-10017142D01*
X-17982380Y-9993333D01*
X-18030000Y-9945714D01*
X-18053809Y-9898095D01*
X-18053809Y-9540952D02*
X-18053809Y-9255238D01*
X-17553809Y-9398095D02*
X-18053809Y-9398095D01*
X-26705714Y-10529047D02*
X-26705714Y-10362380D01*
X-26443809Y-10290952D02*
X-26443809Y-10529047D01*
X-26943809Y-10529047D01*
X-26943809Y-10290952D01*
X-26443809Y-10076666D02*
X-26943809Y-10076666D01*
X-26443809Y-9790952D01*
X-26943809Y-9790952D01*
D10*
X-43306904Y19597619D02*
X-43306904Y18788095D01*
X-43259285Y18692857D01*
X-43211666Y18645238D01*
X-43116428Y18597619D01*
X-42925952Y18597619D01*
X-42830714Y18645238D01*
X-42783095Y18692857D01*
X-42735476Y18788095D01*
X-42735476Y19597619D01*
X-42306904Y19502380D02*
X-42259285Y19550000D01*
X-42164047Y19597619D01*
X-41925952Y19597619D01*
X-41830714Y19550000D01*
X-41783095Y19502380D01*
X-41735476Y19407142D01*
X-41735476Y19311904D01*
X-41783095Y19169047D01*
X-42354523Y18597619D01*
X-41735476Y18597619D01*
X-33781904Y24042619D02*
X-33781904Y23233095D01*
X-33734285Y23137857D01*
X-33686666Y23090238D01*
X-33591428Y23042619D01*
X-33400952Y23042619D01*
X-33305714Y23090238D01*
X-33258095Y23137857D01*
X-33210476Y23233095D01*
X-33210476Y24042619D01*
X-32210476Y23042619D02*
X-32781904Y23042619D01*
X-32496190Y23042619D02*
X-32496190Y24042619D01*
X-32591428Y23899761D01*
X-32686666Y23804523D01*
X-32781904Y23756904D01*
X14009761Y19962857D02*
X13962142Y19915238D01*
X13819285Y19867619D01*
X13724047Y19867619D01*
X13581190Y19915238D01*
X13485952Y20010476D01*
X13438333Y20105714D01*
X13390714Y20296190D01*
X13390714Y20439047D01*
X13438333Y20629523D01*
X13485952Y20724761D01*
X13581190Y20820000D01*
X13724047Y20867619D01*
X13819285Y20867619D01*
X13962142Y20820000D01*
X14009761Y20772380D01*
X14914523Y19867619D02*
X14438333Y19867619D01*
X14438333Y20867619D01*
X15247857Y19867619D02*
X15247857Y20867619D01*
X15819285Y19867619D02*
X15390714Y20439047D01*
X15819285Y20867619D02*
X15247857Y20296190D01*
X13509761Y3087619D02*
X13843095Y2087619D01*
X14176428Y3087619D01*
X14509761Y2087619D02*
X14509761Y3087619D01*
X14985952Y2087619D02*
X14985952Y3087619D01*
X15557380Y2087619D01*
X15557380Y3087619D01*
X-30606904Y20820000D02*
X-30702142Y20867619D01*
X-30845000Y20867619D01*
X-30987857Y20820000D01*
X-31083095Y20724761D01*
X-31130714Y20629523D01*
X-31178333Y20439047D01*
X-31178333Y20296190D01*
X-31130714Y20105714D01*
X-31083095Y20010476D01*
X-30987857Y19915238D01*
X-30845000Y19867619D01*
X-30749761Y19867619D01*
X-30606904Y19915238D01*
X-30559285Y19962857D01*
X-30559285Y20296190D01*
X-30749761Y20296190D01*
X-30130714Y19867619D02*
X-30130714Y20867619D01*
X-29559285Y19867619D01*
X-29559285Y20867619D01*
X-29083095Y19867619D02*
X-29083095Y20867619D01*
X-28845000Y20867619D01*
X-28702142Y20820000D01*
X-28606904Y20724761D01*
X-28559285Y20629523D01*
X-28511666Y20439047D01*
X-28511666Y20296190D01*
X-28559285Y20105714D01*
X-28606904Y20010476D01*
X-28702142Y19915238D01*
X-28845000Y19867619D01*
X-29083095Y19867619D01*
X-31083095Y3087619D02*
X-30464047Y3087619D01*
X-30797380Y2706666D01*
X-30654523Y2706666D01*
X-30559285Y2659047D01*
X-30511666Y2611428D01*
X-30464047Y2516190D01*
X-30464047Y2278095D01*
X-30511666Y2182857D01*
X-30559285Y2135238D01*
X-30654523Y2087619D01*
X-30940238Y2087619D01*
X-31035476Y2135238D01*
X-31083095Y2182857D01*
X-30178333Y3087619D02*
X-29845000Y2087619D01*
X-29511666Y3087619D01*
X-29273571Y3087619D02*
X-28654523Y3087619D01*
X-28987857Y2706666D01*
X-28845000Y2706666D01*
X-28749761Y2659047D01*
X-28702142Y2611428D01*
X-28654523Y2516190D01*
X-28654523Y2278095D01*
X-28702142Y2182857D01*
X-28749761Y2135238D01*
X-28845000Y2087619D01*
X-29130714Y2087619D01*
X-29225952Y2135238D01*
X-29273571Y2182857D01*
X-13668333Y-30567380D02*
X-13668333Y-31281666D01*
X-13715952Y-31424523D01*
X-13811190Y-31519761D01*
X-13954047Y-31567380D01*
X-14049285Y-31567380D01*
X-12763571Y-30567380D02*
X-12954047Y-30567380D01*
X-13049285Y-30615000D01*
X-13096904Y-30662619D01*
X-13192142Y-30805476D01*
X-13239761Y-30995952D01*
X-13239761Y-31376904D01*
X-13192142Y-31472142D01*
X-13144523Y-31519761D01*
X-13049285Y-31567380D01*
X-12858809Y-31567380D01*
X-12763571Y-31519761D01*
X-12715952Y-31472142D01*
X-12668333Y-31376904D01*
X-12668333Y-31138809D01*
X-12715952Y-31043571D01*
X-12763571Y-30995952D01*
X-12858809Y-30948333D01*
X-13049285Y-30948333D01*
X-13144523Y-30995952D01*
X-13192142Y-31043571D01*
X-13239761Y-31138809D01*
X-29543333Y-30567380D02*
X-29543333Y-31281666D01*
X-29590952Y-31424523D01*
X-29686190Y-31519761D01*
X-29829047Y-31567380D01*
X-29924285Y-31567380D01*
X-28590952Y-30567380D02*
X-29067142Y-30567380D01*
X-29114761Y-31043571D01*
X-29067142Y-30995952D01*
X-28971904Y-30948333D01*
X-28733809Y-30948333D01*
X-28638571Y-30995952D01*
X-28590952Y-31043571D01*
X-28543333Y-31138809D01*
X-28543333Y-31376904D01*
X-28590952Y-31472142D01*
X-28638571Y-31519761D01*
X-28733809Y-31567380D01*
X-28971904Y-31567380D01*
X-29067142Y-31519761D01*
X-29114761Y-31472142D01*
X5381666Y-30567380D02*
X5381666Y-31281666D01*
X5334047Y-31424523D01*
X5238809Y-31519761D01*
X5095952Y-31567380D01*
X5000714Y-31567380D01*
X6286428Y-30900714D02*
X6286428Y-31567380D01*
X6048333Y-30519761D02*
X5810238Y-31234047D01*
X6429285Y-31234047D01*
X-35766666Y-4421142D02*
X-35814285Y-4468761D01*
X-35957142Y-4516380D01*
X-36052380Y-4516380D01*
X-36195238Y-4468761D01*
X-36290476Y-4373523D01*
X-36338095Y-4278285D01*
X-36385714Y-4087809D01*
X-36385714Y-3944952D01*
X-36338095Y-3754476D01*
X-36290476Y-3659238D01*
X-36195238Y-3564000D01*
X-36052380Y-3516380D01*
X-35957142Y-3516380D01*
X-35814285Y-3564000D01*
X-35766666Y-3611619D01*
X-35385714Y-3611619D02*
X-35338095Y-3564000D01*
X-35242857Y-3516380D01*
X-35004761Y-3516380D01*
X-34909523Y-3564000D01*
X-34861904Y-3611619D01*
X-34814285Y-3706857D01*
X-34814285Y-3802095D01*
X-34861904Y-3944952D01*
X-35433333Y-4516380D01*
X-34814285Y-4516380D01*
X-35766666Y-6961142D02*
X-35814285Y-7008761D01*
X-35957142Y-7056380D01*
X-36052380Y-7056380D01*
X-36195238Y-7008761D01*
X-36290476Y-6913523D01*
X-36338095Y-6818285D01*
X-36385714Y-6627809D01*
X-36385714Y-6484952D01*
X-36338095Y-6294476D01*
X-36290476Y-6199238D01*
X-36195238Y-6104000D01*
X-36052380Y-6056380D01*
X-35957142Y-6056380D01*
X-35814285Y-6104000D01*
X-35766666Y-6151619D01*
X-34814285Y-7056380D02*
X-35385714Y-7056380D01*
X-35100000Y-7056380D02*
X-35100000Y-6056380D01*
X-35195238Y-6199238D01*
X-35290476Y-6294476D01*
X-35385714Y-6342095D01*
M02*
