G04 #@! TF.GenerationSoftware,KiCad,Pcbnew,(5.1.2-1)-1*
G04 #@! TF.CreationDate,2019-10-28T15:32:03-04:00*
G04 #@! TF.ProjectId,balancebot,62616c61-6e63-4656-926f-742e6b696361,rev?*
G04 #@! TF.SameCoordinates,Original*
G04 #@! TF.FileFunction,Copper,L2,Bot*
G04 #@! TF.FilePolarity,Positive*
%FSLAX46Y46*%
G04 Gerber Fmt 4.6, Leading zero omitted, Abs format (unit mm)*
G04 Created by KiCad (PCBNEW (5.1.2-1)-1) date 2019-10-28 15:32:03*
%MOMM*%
%LPD*%
G04 APERTURE LIST*
%ADD10O,1.700000X1.700000*%
%ADD11R,1.700000X1.700000*%
%ADD12R,1.600000X1.600000*%
%ADD13C,1.600000*%
%ADD14O,1.905000X2.000000*%
%ADD15R,1.905000X2.000000*%
%ADD16C,0.800000*%
%ADD17C,0.250000*%
%ADD18C,0.635000*%
%ADD19C,1.270000*%
%ADD20C,0.254000*%
G04 APERTURE END LIST*
D10*
X15240000Y-2540000D03*
X12700000Y-2540000D03*
X10160000Y-2540000D03*
X7620000Y-2540000D03*
X5080000Y-2540000D03*
X2540000Y-2540000D03*
X0Y-2540000D03*
X-2540000Y-2540000D03*
X-5080000Y-2540000D03*
X-7620000Y-2540000D03*
X-10160000Y-2540000D03*
X-12700000Y-2540000D03*
X-15240000Y-2540000D03*
X-17780000Y-2540000D03*
X-20320000Y-2540000D03*
X-22860000Y-2540000D03*
X-25400000Y-2540000D03*
X-27940000Y-2540000D03*
D11*
X-30480000Y-2540000D03*
D10*
X6350000Y-25400000D03*
X6350000Y-22860000D03*
X6350000Y-20320000D03*
X6350000Y-17780000D03*
X6350000Y-15240000D03*
X6350000Y-12700000D03*
X6350000Y-10160000D03*
D11*
X6350000Y-7620000D03*
D10*
X0Y-10160000D03*
X-12700000Y-27940000D03*
X0Y-12700000D03*
X-12700000Y-25400000D03*
X0Y-15240000D03*
X-12700000Y-22860000D03*
X0Y-17780000D03*
X-12700000Y-20320000D03*
X0Y-20320000D03*
X-12700000Y-17780000D03*
X0Y-22860000D03*
X-12700000Y-15240000D03*
X0Y-25400000D03*
X-12700000Y-12700000D03*
X0Y-27940000D03*
D12*
X-12700000Y-10160000D03*
D10*
X-39370000Y-16510000D03*
D11*
X-39370000Y-11430000D03*
D10*
X-39370000Y-26670000D03*
D11*
X-39370000Y-21590000D03*
D13*
X-8810000Y-10160000D03*
X-3810000Y-10160000D03*
X-24685000Y-10160000D03*
X-19685000Y-10160000D03*
D10*
X-15875000Y-10160000D03*
X-28575000Y-27940000D03*
X-15875000Y-12700000D03*
X-28575000Y-25400000D03*
X-15875000Y-15240000D03*
X-28575000Y-22860000D03*
X-15875000Y-17780000D03*
X-28575000Y-20320000D03*
X-15875000Y-20320000D03*
X-28575000Y-17780000D03*
X-15875000Y-22860000D03*
X-28575000Y-15240000D03*
X-15875000Y-25400000D03*
X-28575000Y-12700000D03*
X-15875000Y-27940000D03*
D12*
X-28575000Y-10160000D03*
D14*
X-35560000Y-1270000D03*
X-38100000Y-1270000D03*
D15*
X-40640000Y-1270000D03*
D10*
X15240000Y22860000D03*
X12700000Y22860000D03*
X10160000Y22860000D03*
X7620000Y22860000D03*
X5080000Y22860000D03*
X2540000Y22860000D03*
X0Y22860000D03*
X-2540000Y22860000D03*
X-5080000Y22860000D03*
X-7620000Y22860000D03*
X-10160000Y22860000D03*
X-12700000Y22860000D03*
X-15240000Y22860000D03*
X-17780000Y22860000D03*
X-20320000Y22860000D03*
X-22860000Y22860000D03*
X-25400000Y22860000D03*
X-27940000Y22860000D03*
X-30480000Y22860000D03*
X15240000Y0D03*
X12700000Y0D03*
X10160000Y0D03*
X7620000Y0D03*
X5080000Y0D03*
X2540000Y0D03*
X0Y0D03*
X-2540000Y0D03*
X-5080000Y0D03*
X-7620000Y0D03*
X-10160000Y0D03*
X-12700000Y0D03*
X-15240000Y0D03*
X-17780000Y0D03*
X-20320000Y0D03*
X-22860000Y0D03*
X-25400000Y0D03*
X-27940000Y0D03*
D11*
X-30480000Y0D03*
D10*
X-2540000Y-31115000D03*
X-5080000Y-31115000D03*
X-7620000Y-31115000D03*
D11*
X-10160000Y-31115000D03*
D10*
X-18415000Y-31115000D03*
X-20955000Y-31115000D03*
X-23495000Y-31115000D03*
D11*
X-26035000Y-31115000D03*
D10*
X13970000Y-31115000D03*
X11430000Y-31115000D03*
D11*
X8890000Y-31115000D03*
D13*
X-38100000Y-4064000D03*
X-33100000Y-4064000D03*
X-33100000Y-6604000D03*
X-38100000Y-6604000D03*
D16*
X-22860000Y-8255000D03*
X-26670000Y-8255000D03*
X-22860000Y-5715000D03*
X-26670000Y-5715000D03*
X-6985000Y-8254996D03*
X-10795000Y-8255000D03*
X-5080000Y-5715000D03*
X-6985000Y-5715000D03*
X-10795000Y-5715000D03*
D17*
X-28575000Y-27940000D02*
X-22860000Y-22225000D01*
D18*
X-16192500Y-15240000D02*
X-15875000Y-15240000D01*
X-26035000Y-31115000D02*
X-20320000Y-25400000D01*
X-20320000Y-19367500D02*
X-16192500Y-15240000D01*
X-20320000Y-25400000D02*
X-20320000Y-19367500D01*
X-19050000Y-26670000D02*
X-23495000Y-31115000D01*
X-19050000Y-20955000D02*
X-19050000Y-26670000D01*
X-15875000Y-17780000D02*
X-19050000Y-20955000D01*
D17*
X-27940000Y-24765000D02*
X-27305000Y-24130000D01*
X-28575000Y-25400000D02*
X-27940000Y-24765000D01*
X-26670000Y-8820685D02*
X-26670000Y-8255000D01*
X-26670000Y-23495000D02*
X-26670000Y-8820685D01*
X-27940000Y-24765000D02*
X-26670000Y-23495000D01*
D19*
X-34925000Y-12065000D02*
X-39370000Y-16510000D01*
X-15875000Y-9525000D02*
X-15875000Y-10160000D01*
X-18415000Y-6985000D02*
X-15875000Y-9525000D01*
X-19050000Y-6985000D02*
X-18415000Y-6985000D01*
X0Y-9525000D02*
X0Y-10160000D01*
X-2540000Y-6985000D02*
X0Y-9525000D01*
X-29845000Y-6985000D02*
X-2540000Y-6985000D01*
X-34925000Y-12065000D02*
X-29845000Y-6985000D01*
X-40640000Y-1270000D02*
X-40640000Y-6350000D01*
X-38100000Y-6604000D02*
X-40640000Y-6604000D01*
X-40640000Y-6604000D02*
X-40640000Y-6350000D01*
X-40640000Y-8255000D02*
X-40640000Y-6350000D01*
X-38735000Y-8890000D02*
X-40005000Y-8890000D01*
X-35560000Y-12065000D02*
X-38735000Y-8890000D01*
X-40005000Y-8890000D02*
X-40640000Y-8255000D01*
X-34925000Y-12065000D02*
X-35560000Y-12065000D01*
D17*
X-22860000Y-8255000D02*
X-22860000Y-22225000D01*
X-12700000Y-2540000D02*
X-12700000Y-4445000D01*
X-13335000Y-5080000D02*
X-22294315Y-5080000D01*
X-22860000Y-5645685D02*
X-22860000Y-5715000D01*
X-22294315Y-5080000D02*
X-22860000Y-5645685D01*
X-12700000Y-4445000D02*
X-13335000Y-5080000D01*
X-25400000Y-4445000D02*
X-26670000Y-5715000D01*
X-15240000Y-3810000D02*
X-15875000Y-4445000D01*
X-15240000Y-2540000D02*
X-15240000Y-3810000D01*
X-15875000Y-4445000D02*
X-25400000Y-4445000D01*
D18*
X-18214989Y-27104989D02*
X-20955000Y-29845000D01*
X-18214989Y-22659989D02*
X-18214989Y-27104989D01*
X-20955000Y-29845000D02*
X-20955000Y-31115000D01*
X-15875000Y-20320000D02*
X-18214989Y-22659989D01*
X-17379978Y-24364978D02*
X-15875000Y-22860000D01*
X-17379978Y-27539978D02*
X-17379978Y-24364978D01*
X-18415000Y-28575000D02*
X-17379978Y-27539978D01*
X-18415000Y-31115000D02*
X-18415000Y-28575000D01*
D17*
X-6985000Y-22225000D02*
X-6985000Y-8820681D01*
X-12700000Y-27940000D02*
X-6985000Y-22225000D01*
X-6985000Y-8820681D02*
X-6985000Y-8254996D01*
X-12700000Y-25400000D02*
X-10795000Y-23495000D01*
X-10795000Y-8255000D02*
X-10795000Y-23495000D01*
D18*
X0Y-15240000D02*
X0Y-15397037D01*
X-4572000Y-25527000D02*
X-10160000Y-31115000D01*
X-4572000Y-19812000D02*
X-4572000Y-25527000D01*
X0Y-15240000D02*
X-4572000Y-19812000D01*
X-3175000Y-26670000D02*
X-7620000Y-31115000D01*
X-3175000Y-20955000D02*
X-3175000Y-26670000D01*
X0Y-17780000D02*
X-3175000Y-20955000D01*
D17*
X-3175000Y20955000D02*
X-5080000Y22860000D01*
X13335000Y20955000D02*
X-3175000Y20955000D01*
X13970000Y20320000D02*
X13335000Y20955000D01*
X13970000Y-15875000D02*
X13970000Y20320000D01*
X8890000Y-24765000D02*
X13970000Y-19685000D01*
X13970000Y-19685000D02*
X13970000Y-15877822D01*
X8890000Y-31115000D02*
X8890000Y-24765000D01*
X6985000Y-15240000D02*
X6350000Y-15240000D01*
X11430000Y19685000D02*
X10795000Y20320000D01*
X11430000Y-12065000D02*
X11430000Y19685000D01*
X8255000Y-15240000D02*
X11430000Y-12065000D01*
X6350000Y-15240000D02*
X8255000Y-15240000D01*
X-15240000Y20320000D02*
X10795000Y20320000D01*
X-17780000Y22860000D02*
X-15240000Y20320000D01*
X8890000Y-12065000D02*
X8255000Y-12700000D01*
X8890000Y19050000D02*
X8890000Y-12065000D01*
X8255000Y-12700000D02*
X6350000Y-12700000D01*
X8255000Y19685000D02*
X8890000Y19050000D01*
X-22225000Y19685000D02*
X8255000Y19685000D01*
X-25400000Y22860000D02*
X-22225000Y19685000D01*
X-5080000Y-5715000D02*
X-5080000Y-5715000D01*
X-5080000Y-2413000D02*
X-5080000Y-5715000D01*
X-7620000Y-2540000D02*
X-7620000Y-5080000D01*
X-7620000Y-5080000D02*
X-7384999Y-5315001D01*
X-7384999Y-5315001D02*
X-6985000Y-5715000D01*
X-10795000Y-5715000D02*
X-10795000Y-5715000D01*
X-10160000Y-5080000D02*
X-10160000Y-2540000D01*
X-10795000Y-5715000D02*
X-10160000Y-5080000D01*
D18*
X-2339989Y-22659989D02*
X-2339989Y-27172908D01*
X-5080000Y-29912919D02*
X-5080000Y-31115000D01*
X-2339989Y-27172908D02*
X-5080000Y-29912919D01*
X0Y-20320000D02*
X-2339989Y-22659989D01*
X-2540000Y-28575000D02*
X-2540000Y-31115000D01*
X-1367501Y-24227501D02*
X-1367501Y-27402501D01*
X-1367501Y-27402501D02*
X-2540000Y-28575000D01*
X0Y-22860000D02*
X-1367501Y-24227501D01*
D20*
G36*
X21565000Y24097582D02*
G01*
X21565001Y24097572D01*
X21565000Y-33630000D01*
X-43790000Y-33630000D01*
X-43790000Y-32956712D01*
X-42937107Y-32956712D01*
X-42829274Y-33231338D01*
X-42522616Y-33382216D01*
X-42192415Y-33470369D01*
X-41851361Y-33492409D01*
X-41512561Y-33447489D01*
X-41189034Y-33337336D01*
X-40990726Y-33231338D01*
X-40882893Y-32956712D01*
X18657893Y-32956712D01*
X18765726Y-33231338D01*
X19072384Y-33382216D01*
X19402585Y-33470369D01*
X19743639Y-33492409D01*
X20082439Y-33447489D01*
X20405966Y-33337336D01*
X20604274Y-33231338D01*
X20712107Y-32956712D01*
X19685000Y-31929605D01*
X18657893Y-32956712D01*
X-40882893Y-32956712D01*
X-41910000Y-31929605D01*
X-42937107Y-32956712D01*
X-43790000Y-32956712D01*
X-43790000Y-31808639D01*
X-43652409Y-31808639D01*
X-43607489Y-32147439D01*
X-43497336Y-32470966D01*
X-43391338Y-32669274D01*
X-43116712Y-32777107D01*
X-42089605Y-31750000D01*
X-41730395Y-31750000D01*
X-40703288Y-32777107D01*
X-40428662Y-32669274D01*
X-40277784Y-32362616D01*
X-40189631Y-32032415D01*
X-40167591Y-31691361D01*
X-40212511Y-31352561D01*
X-40322664Y-31029034D01*
X-40428662Y-30830726D01*
X-40703288Y-30722893D01*
X-41730395Y-31750000D01*
X-42089605Y-31750000D01*
X-43116712Y-30722893D01*
X-43391338Y-30830726D01*
X-43542216Y-31137384D01*
X-43630369Y-31467585D01*
X-43652409Y-31808639D01*
X-43790000Y-31808639D01*
X-43790000Y-30543288D01*
X-42937107Y-30543288D01*
X-41910000Y-31570395D01*
X-40882893Y-30543288D01*
X-40990726Y-30268662D01*
X-40998168Y-30265000D01*
X-27523072Y-30265000D01*
X-27523072Y-31965000D01*
X-27510812Y-32089482D01*
X-27474502Y-32209180D01*
X-27415537Y-32319494D01*
X-27336185Y-32416185D01*
X-27239494Y-32495537D01*
X-27129180Y-32554502D01*
X-27009482Y-32590812D01*
X-26885000Y-32603072D01*
X-25185000Y-32603072D01*
X-25060518Y-32590812D01*
X-24940820Y-32554502D01*
X-24830506Y-32495537D01*
X-24733815Y-32416185D01*
X-24654463Y-32319494D01*
X-24595498Y-32209180D01*
X-24574607Y-32140313D01*
X-24550134Y-32170134D01*
X-24324014Y-32355706D01*
X-24066034Y-32493599D01*
X-23786111Y-32578513D01*
X-23567950Y-32600000D01*
X-23422050Y-32600000D01*
X-23203889Y-32578513D01*
X-22923966Y-32493599D01*
X-22665986Y-32355706D01*
X-22439866Y-32170134D01*
X-22254294Y-31944014D01*
X-22225000Y-31889209D01*
X-22195706Y-31944014D01*
X-22010134Y-32170134D01*
X-21784014Y-32355706D01*
X-21526034Y-32493599D01*
X-21246111Y-32578513D01*
X-21027950Y-32600000D01*
X-20882050Y-32600000D01*
X-20663889Y-32578513D01*
X-20383966Y-32493599D01*
X-20125986Y-32355706D01*
X-19899866Y-32170134D01*
X-19714294Y-31944014D01*
X-19685000Y-31889209D01*
X-19655706Y-31944014D01*
X-19470134Y-32170134D01*
X-19244014Y-32355706D01*
X-18986034Y-32493599D01*
X-18706111Y-32578513D01*
X-18487950Y-32600000D01*
X-18342050Y-32600000D01*
X-18123889Y-32578513D01*
X-17843966Y-32493599D01*
X-17585986Y-32355706D01*
X-17359866Y-32170134D01*
X-17174294Y-31944014D01*
X-17036401Y-31686034D01*
X-16951487Y-31406111D01*
X-16922815Y-31115000D01*
X-16951487Y-30823889D01*
X-17036401Y-30543966D01*
X-17174294Y-30285986D01*
X-17191516Y-30265000D01*
X-11648072Y-30265000D01*
X-11648072Y-31965000D01*
X-11635812Y-32089482D01*
X-11599502Y-32209180D01*
X-11540537Y-32319494D01*
X-11461185Y-32416185D01*
X-11364494Y-32495537D01*
X-11254180Y-32554502D01*
X-11134482Y-32590812D01*
X-11010000Y-32603072D01*
X-9310000Y-32603072D01*
X-9185518Y-32590812D01*
X-9065820Y-32554502D01*
X-8955506Y-32495537D01*
X-8858815Y-32416185D01*
X-8779463Y-32319494D01*
X-8720498Y-32209180D01*
X-8699607Y-32140313D01*
X-8675134Y-32170134D01*
X-8449014Y-32355706D01*
X-8191034Y-32493599D01*
X-7911111Y-32578513D01*
X-7692950Y-32600000D01*
X-7547050Y-32600000D01*
X-7328889Y-32578513D01*
X-7048966Y-32493599D01*
X-6790986Y-32355706D01*
X-6564866Y-32170134D01*
X-6379294Y-31944014D01*
X-6350000Y-31889209D01*
X-6320706Y-31944014D01*
X-6135134Y-32170134D01*
X-5909014Y-32355706D01*
X-5651034Y-32493599D01*
X-5371111Y-32578513D01*
X-5152950Y-32600000D01*
X-5007050Y-32600000D01*
X-4788889Y-32578513D01*
X-4508966Y-32493599D01*
X-4250986Y-32355706D01*
X-4024866Y-32170134D01*
X-3839294Y-31944014D01*
X-3810000Y-31889209D01*
X-3780706Y-31944014D01*
X-3595134Y-32170134D01*
X-3369014Y-32355706D01*
X-3111034Y-32493599D01*
X-2831111Y-32578513D01*
X-2612950Y-32600000D01*
X-2467050Y-32600000D01*
X-2248889Y-32578513D01*
X-1968966Y-32493599D01*
X-1710986Y-32355706D01*
X-1484866Y-32170134D01*
X-1299294Y-31944014D01*
X-1161401Y-31686034D01*
X-1076487Y-31406111D01*
X-1047815Y-31115000D01*
X-1076487Y-30823889D01*
X-1161401Y-30543966D01*
X-1299294Y-30285986D01*
X-1484866Y-30059866D01*
X-1587500Y-29975636D01*
X-1587500Y-28969538D01*
X-1288818Y-28670857D01*
X-1271641Y-28706920D01*
X-1097588Y-28940269D01*
X-881355Y-29135178D01*
X-631252Y-29284157D01*
X-356891Y-29381481D01*
X-127000Y-29260814D01*
X-127000Y-28067000D01*
X127000Y-28067000D01*
X127000Y-29260814D01*
X356891Y-29381481D01*
X631252Y-29284157D01*
X881355Y-29135178D01*
X1097588Y-28940269D01*
X1271641Y-28706920D01*
X1396825Y-28444099D01*
X1441476Y-28296890D01*
X1320155Y-28067000D01*
X127000Y-28067000D01*
X-127000Y-28067000D01*
X-147000Y-28067000D01*
X-147000Y-27813000D01*
X-127000Y-27813000D01*
X-127000Y-27793000D01*
X127000Y-27793000D01*
X127000Y-27813000D01*
X1320155Y-27813000D01*
X1441476Y-27583110D01*
X1396825Y-27435901D01*
X1271641Y-27173080D01*
X1097588Y-26939731D01*
X881355Y-26744822D01*
X764477Y-26675201D01*
X829014Y-26640706D01*
X1055134Y-26455134D01*
X1240706Y-26229014D01*
X1378599Y-25971034D01*
X1463513Y-25691111D01*
X1492185Y-25400000D01*
X1463513Y-25108889D01*
X1378599Y-24828966D01*
X1240706Y-24570986D01*
X1055134Y-24344866D01*
X829014Y-24159294D01*
X774209Y-24130000D01*
X829014Y-24100706D01*
X1055134Y-23915134D01*
X1240706Y-23689014D01*
X1378599Y-23431034D01*
X1463513Y-23151111D01*
X1492185Y-22860000D01*
X1463513Y-22568889D01*
X1378599Y-22288966D01*
X1240706Y-22030986D01*
X1055134Y-21804866D01*
X829014Y-21619294D01*
X774209Y-21590000D01*
X829014Y-21560706D01*
X1055134Y-21375134D01*
X1240706Y-21149014D01*
X1378599Y-20891034D01*
X1463513Y-20611111D01*
X1492185Y-20320000D01*
X1463513Y-20028889D01*
X1378599Y-19748966D01*
X1240706Y-19490986D01*
X1055134Y-19264866D01*
X829014Y-19079294D01*
X774209Y-19050000D01*
X829014Y-19020706D01*
X1055134Y-18835134D01*
X1240706Y-18609014D01*
X1378599Y-18351034D01*
X1463513Y-18071111D01*
X1492185Y-17780000D01*
X1463513Y-17488889D01*
X1378599Y-17208966D01*
X1240706Y-16950986D01*
X1055134Y-16724866D01*
X829014Y-16539294D01*
X774209Y-16510000D01*
X829014Y-16480706D01*
X1055134Y-16295134D01*
X1240706Y-16069014D01*
X1378599Y-15811034D01*
X1463513Y-15531111D01*
X1492185Y-15240000D01*
X1463513Y-14948889D01*
X1378599Y-14668966D01*
X1240706Y-14410986D01*
X1055134Y-14184866D01*
X829014Y-13999294D01*
X764477Y-13964799D01*
X881355Y-13895178D01*
X1097588Y-13700269D01*
X1271641Y-13466920D01*
X1396825Y-13204099D01*
X1441476Y-13056890D01*
X1320155Y-12827000D01*
X127000Y-12827000D01*
X127000Y-12847000D01*
X-127000Y-12847000D01*
X-127000Y-12827000D01*
X-1320155Y-12827000D01*
X-1441476Y-13056890D01*
X-1396825Y-13204099D01*
X-1271641Y-13466920D01*
X-1097588Y-13700269D01*
X-881355Y-13895178D01*
X-764477Y-13964799D01*
X-829014Y-13999294D01*
X-1055134Y-14184866D01*
X-1240706Y-14410986D01*
X-1378599Y-14668966D01*
X-1463513Y-14948889D01*
X-1492185Y-15240000D01*
X-1479171Y-15372133D01*
X-5212431Y-19105393D01*
X-5248778Y-19135222D01*
X-5367806Y-19280259D01*
X-5456252Y-19445732D01*
X-5510717Y-19625277D01*
X-5510717Y-19625278D01*
X-5529108Y-19812000D01*
X-5524500Y-19858785D01*
X-5524499Y-25132461D01*
X-10018966Y-29626928D01*
X-11010000Y-29626928D01*
X-11134482Y-29639188D01*
X-11254180Y-29675498D01*
X-11364494Y-29734463D01*
X-11461185Y-29813815D01*
X-11540537Y-29910506D01*
X-11599502Y-30020820D01*
X-11635812Y-30140518D01*
X-11648072Y-30265000D01*
X-17191516Y-30265000D01*
X-17359866Y-30059866D01*
X-17462500Y-29975636D01*
X-17462500Y-28969538D01*
X-17163818Y-28670857D01*
X-17146641Y-28706920D01*
X-16972588Y-28940269D01*
X-16756355Y-29135178D01*
X-16506252Y-29284157D01*
X-16231891Y-29381481D01*
X-16002000Y-29260814D01*
X-16002000Y-28067000D01*
X-15748000Y-28067000D01*
X-15748000Y-29260814D01*
X-15518109Y-29381481D01*
X-15243748Y-29284157D01*
X-14993645Y-29135178D01*
X-14777412Y-28940269D01*
X-14603359Y-28706920D01*
X-14478175Y-28444099D01*
X-14433524Y-28296890D01*
X-14554845Y-28067000D01*
X-15748000Y-28067000D01*
X-16002000Y-28067000D01*
X-16022000Y-28067000D01*
X-16022000Y-27813000D01*
X-16002000Y-27813000D01*
X-16002000Y-27793000D01*
X-15748000Y-27793000D01*
X-15748000Y-27813000D01*
X-14554845Y-27813000D01*
X-14433524Y-27583110D01*
X-14478175Y-27435901D01*
X-14603359Y-27173080D01*
X-14777412Y-26939731D01*
X-14993645Y-26744822D01*
X-15110523Y-26675201D01*
X-15045986Y-26640706D01*
X-14819866Y-26455134D01*
X-14634294Y-26229014D01*
X-14496401Y-25971034D01*
X-14411487Y-25691111D01*
X-14382815Y-25400000D01*
X-14411487Y-25108889D01*
X-14496401Y-24828966D01*
X-14634294Y-24570986D01*
X-14819866Y-24344866D01*
X-15045986Y-24159294D01*
X-15100791Y-24130000D01*
X-15045986Y-24100706D01*
X-14819866Y-23915134D01*
X-14634294Y-23689014D01*
X-14496401Y-23431034D01*
X-14411487Y-23151111D01*
X-14382815Y-22860000D01*
X-14411487Y-22568889D01*
X-14496401Y-22288966D01*
X-14634294Y-22030986D01*
X-14819866Y-21804866D01*
X-15045986Y-21619294D01*
X-15100791Y-21590000D01*
X-15045986Y-21560706D01*
X-14819866Y-21375134D01*
X-14634294Y-21149014D01*
X-14496401Y-20891034D01*
X-14411487Y-20611111D01*
X-14382815Y-20320000D01*
X-14411487Y-20028889D01*
X-14496401Y-19748966D01*
X-14634294Y-19490986D01*
X-14819866Y-19264866D01*
X-15045986Y-19079294D01*
X-15100791Y-19050000D01*
X-15045986Y-19020706D01*
X-14819866Y-18835134D01*
X-14634294Y-18609014D01*
X-14496401Y-18351034D01*
X-14411487Y-18071111D01*
X-14382815Y-17780000D01*
X-14411487Y-17488889D01*
X-14496401Y-17208966D01*
X-14634294Y-16950986D01*
X-14819866Y-16724866D01*
X-15045986Y-16539294D01*
X-15100791Y-16510000D01*
X-15045986Y-16480706D01*
X-14819866Y-16295134D01*
X-14634294Y-16069014D01*
X-14496401Y-15811034D01*
X-14411487Y-15531111D01*
X-14382815Y-15240000D01*
X-14411487Y-14948889D01*
X-14496401Y-14668966D01*
X-14634294Y-14410986D01*
X-14819866Y-14184866D01*
X-15045986Y-13999294D01*
X-15110523Y-13964799D01*
X-14993645Y-13895178D01*
X-14777412Y-13700269D01*
X-14603359Y-13466920D01*
X-14478175Y-13204099D01*
X-14433524Y-13056890D01*
X-14554845Y-12827000D01*
X-15748000Y-12827000D01*
X-15748000Y-12847000D01*
X-16002000Y-12847000D01*
X-16002000Y-12827000D01*
X-17195155Y-12827000D01*
X-17316476Y-13056890D01*
X-17271825Y-13204099D01*
X-17146641Y-13466920D01*
X-16972588Y-13700269D01*
X-16756355Y-13895178D01*
X-16639477Y-13964799D01*
X-16704014Y-13999294D01*
X-16930134Y-14184866D01*
X-17115706Y-14410986D01*
X-17253599Y-14668966D01*
X-17338513Y-14948889D01*
X-17348355Y-15048817D01*
X-20960435Y-18660897D01*
X-20996777Y-18690722D01*
X-21026601Y-18727063D01*
X-21115806Y-18835760D01*
X-21204251Y-19001231D01*
X-21258717Y-19180778D01*
X-21277108Y-19367500D01*
X-21272499Y-19414295D01*
X-21272500Y-25005462D01*
X-25893966Y-29626928D01*
X-26885000Y-29626928D01*
X-27009482Y-29639188D01*
X-27129180Y-29675498D01*
X-27239494Y-29734463D01*
X-27336185Y-29813815D01*
X-27415537Y-29910506D01*
X-27474502Y-30020820D01*
X-27510812Y-30140518D01*
X-27523072Y-30265000D01*
X-40998168Y-30265000D01*
X-41297384Y-30117784D01*
X-41627585Y-30029631D01*
X-41968639Y-30007591D01*
X-42307439Y-30052511D01*
X-42630966Y-30162664D01*
X-42829274Y-30268662D01*
X-42937107Y-30543288D01*
X-43790000Y-30543288D01*
X-43790000Y-27026891D01*
X-40811481Y-27026891D01*
X-40714157Y-27301252D01*
X-40565178Y-27551355D01*
X-40370269Y-27767588D01*
X-40136920Y-27941641D01*
X-39874099Y-28066825D01*
X-39726890Y-28111476D01*
X-39497000Y-27990155D01*
X-39497000Y-26797000D01*
X-39243000Y-26797000D01*
X-39243000Y-27990155D01*
X-39013110Y-28111476D01*
X-38865901Y-28066825D01*
X-38603080Y-27941641D01*
X-38369731Y-27767588D01*
X-38174822Y-27551355D01*
X-38025843Y-27301252D01*
X-37928519Y-27026891D01*
X-38049186Y-26797000D01*
X-39243000Y-26797000D01*
X-39497000Y-26797000D01*
X-40690814Y-26797000D01*
X-40811481Y-27026891D01*
X-43790000Y-27026891D01*
X-43790000Y-26313109D01*
X-40811481Y-26313109D01*
X-40690814Y-26543000D01*
X-39497000Y-26543000D01*
X-39497000Y-25349845D01*
X-39243000Y-25349845D01*
X-39243000Y-26543000D01*
X-38049186Y-26543000D01*
X-37928519Y-26313109D01*
X-38025843Y-26038748D01*
X-38174822Y-25788645D01*
X-38369731Y-25572412D01*
X-38603080Y-25398359D01*
X-38865901Y-25273175D01*
X-39013110Y-25228524D01*
X-39243000Y-25349845D01*
X-39497000Y-25349845D01*
X-39726890Y-25228524D01*
X-39874099Y-25273175D01*
X-40136920Y-25398359D01*
X-40370269Y-25572412D01*
X-40565178Y-25788645D01*
X-40714157Y-26038748D01*
X-40811481Y-26313109D01*
X-43790000Y-26313109D01*
X-43790000Y-20740000D01*
X-40858072Y-20740000D01*
X-40858072Y-22440000D01*
X-40845812Y-22564482D01*
X-40809502Y-22684180D01*
X-40750537Y-22794494D01*
X-40671185Y-22891185D01*
X-40574494Y-22970537D01*
X-40464180Y-23029502D01*
X-40344482Y-23065812D01*
X-40220000Y-23078072D01*
X-38520000Y-23078072D01*
X-38395518Y-23065812D01*
X-38275820Y-23029502D01*
X-38165506Y-22970537D01*
X-38068815Y-22891185D01*
X-37989463Y-22794494D01*
X-37930498Y-22684180D01*
X-37894188Y-22564482D01*
X-37881928Y-22440000D01*
X-37881928Y-20740000D01*
X-37894188Y-20615518D01*
X-37930498Y-20495820D01*
X-37989463Y-20385506D01*
X-38068815Y-20288815D01*
X-38165506Y-20209463D01*
X-38275820Y-20150498D01*
X-38395518Y-20114188D01*
X-38520000Y-20101928D01*
X-40220000Y-20101928D01*
X-40344482Y-20114188D01*
X-40464180Y-20150498D01*
X-40574494Y-20209463D01*
X-40671185Y-20288815D01*
X-40750537Y-20385506D01*
X-40809502Y-20495820D01*
X-40845812Y-20615518D01*
X-40858072Y-20740000D01*
X-43790000Y-20740000D01*
X-43790000Y-270000D01*
X-42230572Y-270000D01*
X-42230572Y-2270000D01*
X-42218312Y-2394482D01*
X-42182002Y-2514180D01*
X-42123037Y-2624494D01*
X-42043685Y-2721185D01*
X-41946994Y-2800537D01*
X-41910000Y-2820311D01*
X-41909999Y-6287610D01*
X-41910000Y-6287620D01*
X-41910000Y-6541620D01*
X-41916144Y-6604000D01*
X-41909999Y-6666389D01*
X-41910000Y-8192627D01*
X-41916143Y-8255000D01*
X-41910000Y-8317373D01*
X-41910000Y-8317379D01*
X-41902216Y-8396409D01*
X-41891623Y-8503963D01*
X-41884198Y-8528438D01*
X-41819003Y-8743358D01*
X-41701075Y-8963987D01*
X-41542370Y-9157370D01*
X-41493909Y-9197141D01*
X-40947137Y-9743914D01*
X-40907370Y-9792370D01*
X-40713988Y-9951075D01*
X-40552205Y-10037549D01*
X-40574494Y-10049463D01*
X-40671185Y-10128815D01*
X-40750537Y-10225506D01*
X-40809502Y-10335820D01*
X-40845812Y-10455518D01*
X-40858072Y-10580000D01*
X-40858072Y-12280000D01*
X-40845812Y-12404482D01*
X-40809502Y-12524180D01*
X-40750537Y-12634494D01*
X-40671185Y-12731185D01*
X-40574494Y-12810537D01*
X-40464180Y-12869502D01*
X-40344482Y-12905812D01*
X-40220000Y-12918072D01*
X-38520000Y-12918072D01*
X-38395518Y-12905812D01*
X-38275820Y-12869502D01*
X-38165506Y-12810537D01*
X-38068815Y-12731185D01*
X-37989463Y-12634494D01*
X-37930498Y-12524180D01*
X-37894188Y-12404482D01*
X-37881928Y-12280000D01*
X-37881928Y-11539123D01*
X-37038551Y-12382500D01*
X-39720576Y-15064525D01*
X-39941034Y-15131401D01*
X-40199014Y-15269294D01*
X-40425134Y-15454866D01*
X-40610706Y-15680986D01*
X-40748599Y-15938966D01*
X-40833513Y-16218889D01*
X-40862185Y-16510000D01*
X-40833513Y-16801111D01*
X-40748599Y-17081034D01*
X-40610706Y-17339014D01*
X-40425134Y-17565134D01*
X-40199014Y-17750706D01*
X-39941034Y-17888599D01*
X-39661111Y-17973513D01*
X-39442950Y-17995000D01*
X-39297050Y-17995000D01*
X-39078889Y-17973513D01*
X-38798966Y-17888599D01*
X-38540986Y-17750706D01*
X-38314866Y-17565134D01*
X-38129294Y-17339014D01*
X-37991401Y-17081034D01*
X-37924525Y-16860576D01*
X-34071086Y-13007137D01*
X-34022630Y-12967370D01*
X-33982859Y-12918909D01*
X-29318948Y-8255000D01*
X-27705000Y-8255000D01*
X-27705000Y-8356939D01*
X-27665226Y-8556898D01*
X-27587205Y-8745256D01*
X-27580385Y-8755463D01*
X-27650518Y-8734188D01*
X-27775000Y-8721928D01*
X-29375000Y-8721928D01*
X-29499482Y-8734188D01*
X-29619180Y-8770498D01*
X-29729494Y-8829463D01*
X-29826185Y-8908815D01*
X-29905537Y-9005506D01*
X-29964502Y-9115820D01*
X-30000812Y-9235518D01*
X-30013072Y-9360000D01*
X-30013072Y-10960000D01*
X-30000812Y-11084482D01*
X-29964502Y-11204180D01*
X-29905537Y-11314494D01*
X-29826185Y-11411185D01*
X-29729494Y-11490537D01*
X-29619180Y-11549502D01*
X-29542336Y-11572812D01*
X-29630134Y-11644866D01*
X-29815706Y-11870986D01*
X-29953599Y-12128966D01*
X-30038513Y-12408889D01*
X-30067185Y-12700000D01*
X-30038513Y-12991111D01*
X-29953599Y-13271034D01*
X-29815706Y-13529014D01*
X-29630134Y-13755134D01*
X-29404014Y-13940706D01*
X-29349209Y-13970000D01*
X-29404014Y-13999294D01*
X-29630134Y-14184866D01*
X-29815706Y-14410986D01*
X-29953599Y-14668966D01*
X-30038513Y-14948889D01*
X-30067185Y-15240000D01*
X-30038513Y-15531111D01*
X-29953599Y-15811034D01*
X-29815706Y-16069014D01*
X-29630134Y-16295134D01*
X-29404014Y-16480706D01*
X-29349209Y-16510000D01*
X-29404014Y-16539294D01*
X-29630134Y-16724866D01*
X-29815706Y-16950986D01*
X-29953599Y-17208966D01*
X-30038513Y-17488889D01*
X-30067185Y-17780000D01*
X-30038513Y-18071111D01*
X-29953599Y-18351034D01*
X-29815706Y-18609014D01*
X-29630134Y-18835134D01*
X-29404014Y-19020706D01*
X-29349209Y-19050000D01*
X-29404014Y-19079294D01*
X-29630134Y-19264866D01*
X-29815706Y-19490986D01*
X-29953599Y-19748966D01*
X-30038513Y-20028889D01*
X-30067185Y-20320000D01*
X-30038513Y-20611111D01*
X-29953599Y-20891034D01*
X-29815706Y-21149014D01*
X-29630134Y-21375134D01*
X-29404014Y-21560706D01*
X-29349209Y-21590000D01*
X-29404014Y-21619294D01*
X-29630134Y-21804866D01*
X-29815706Y-22030986D01*
X-29953599Y-22288966D01*
X-30038513Y-22568889D01*
X-30067185Y-22860000D01*
X-30038513Y-23151111D01*
X-29953599Y-23431034D01*
X-29815706Y-23689014D01*
X-29630134Y-23915134D01*
X-29404014Y-24100706D01*
X-29349209Y-24130000D01*
X-29404014Y-24159294D01*
X-29630134Y-24344866D01*
X-29815706Y-24570986D01*
X-29953599Y-24828966D01*
X-30038513Y-25108889D01*
X-30067185Y-25400000D01*
X-30038513Y-25691111D01*
X-29953599Y-25971034D01*
X-29815706Y-26229014D01*
X-29630134Y-26455134D01*
X-29404014Y-26640706D01*
X-29349209Y-26670000D01*
X-29404014Y-26699294D01*
X-29630134Y-26884866D01*
X-29815706Y-27110986D01*
X-29953599Y-27368966D01*
X-30038513Y-27648889D01*
X-30067185Y-27940000D01*
X-30038513Y-28231111D01*
X-29953599Y-28511034D01*
X-29815706Y-28769014D01*
X-29630134Y-28995134D01*
X-29404014Y-29180706D01*
X-29146034Y-29318599D01*
X-28866111Y-29403513D01*
X-28647950Y-29425000D01*
X-28502050Y-29425000D01*
X-28283889Y-29403513D01*
X-28003966Y-29318599D01*
X-27745986Y-29180706D01*
X-27519866Y-28995134D01*
X-27334294Y-28769014D01*
X-27196401Y-28511034D01*
X-27111487Y-28231111D01*
X-27082815Y-27940000D01*
X-27111487Y-27648889D01*
X-27134203Y-27574004D01*
X-22348997Y-22788799D01*
X-22319999Y-22765001D01*
X-22225026Y-22649276D01*
X-22154454Y-22517247D01*
X-22110997Y-22373986D01*
X-22100000Y-22262333D01*
X-22100000Y-22262332D01*
X-22096323Y-22225000D01*
X-22100000Y-22187667D01*
X-22100000Y-10018665D01*
X-21120000Y-10018665D01*
X-21120000Y-10301335D01*
X-21064853Y-10578574D01*
X-20956680Y-10839727D01*
X-20799637Y-11074759D01*
X-20599759Y-11274637D01*
X-20364727Y-11431680D01*
X-20103574Y-11539853D01*
X-19826335Y-11595000D01*
X-19543665Y-11595000D01*
X-19266426Y-11539853D01*
X-19005273Y-11431680D01*
X-18770241Y-11274637D01*
X-18570363Y-11074759D01*
X-18413320Y-10839727D01*
X-18305147Y-10578574D01*
X-18250000Y-10301335D01*
X-18250000Y-10018665D01*
X-18305147Y-9741426D01*
X-18413320Y-9480273D01*
X-18570363Y-9245241D01*
X-18770241Y-9045363D01*
X-19005273Y-8888320D01*
X-19266426Y-8780147D01*
X-19543665Y-8725000D01*
X-19826335Y-8725000D01*
X-20103574Y-8780147D01*
X-20364727Y-8888320D01*
X-20599759Y-9045363D01*
X-20799637Y-9245241D01*
X-20956680Y-9480273D01*
X-21064853Y-9741426D01*
X-21120000Y-10018665D01*
X-22100000Y-10018665D01*
X-22100000Y-8958711D01*
X-22056063Y-8914774D01*
X-21942795Y-8745256D01*
X-21864774Y-8556898D01*
X-21825000Y-8356939D01*
X-21825000Y-8255000D01*
X-18941050Y-8255000D01*
X-17335871Y-9860180D01*
X-17338513Y-9868889D01*
X-17367185Y-10160000D01*
X-17338513Y-10451111D01*
X-17253599Y-10731034D01*
X-17115706Y-10989014D01*
X-16930134Y-11215134D01*
X-16704014Y-11400706D01*
X-16639477Y-11435201D01*
X-16756355Y-11504822D01*
X-16972588Y-11699731D01*
X-17146641Y-11933080D01*
X-17271825Y-12195901D01*
X-17316476Y-12343110D01*
X-17195155Y-12573000D01*
X-16002000Y-12573000D01*
X-16002000Y-12553000D01*
X-15748000Y-12553000D01*
X-15748000Y-12573000D01*
X-14554845Y-12573000D01*
X-14433524Y-12343110D01*
X-14478175Y-12195901D01*
X-14603359Y-11933080D01*
X-14777412Y-11699731D01*
X-14993645Y-11504822D01*
X-15110523Y-11435201D01*
X-15045986Y-11400706D01*
X-14819866Y-11215134D01*
X-14634294Y-10989014D01*
X-14496401Y-10731034D01*
X-14411487Y-10451111D01*
X-14382815Y-10160000D01*
X-14411487Y-9868889D01*
X-14496401Y-9588966D01*
X-14614276Y-9368436D01*
X-14623377Y-9276037D01*
X-14631206Y-9250226D01*
X-14664958Y-9138963D01*
X-14695997Y-9036641D01*
X-14813925Y-8816012D01*
X-14972630Y-8622630D01*
X-15021085Y-8582864D01*
X-15348949Y-8255000D01*
X-11830000Y-8255000D01*
X-11830000Y-8356939D01*
X-11790226Y-8556898D01*
X-11712205Y-8745256D01*
X-11705385Y-8755463D01*
X-11775518Y-8734188D01*
X-11900000Y-8721928D01*
X-13500000Y-8721928D01*
X-13624482Y-8734188D01*
X-13744180Y-8770498D01*
X-13854494Y-8829463D01*
X-13951185Y-8908815D01*
X-14030537Y-9005506D01*
X-14089502Y-9115820D01*
X-14125812Y-9235518D01*
X-14138072Y-9360000D01*
X-14138072Y-10960000D01*
X-14125812Y-11084482D01*
X-14089502Y-11204180D01*
X-14030537Y-11314494D01*
X-13951185Y-11411185D01*
X-13854494Y-11490537D01*
X-13744180Y-11549502D01*
X-13667336Y-11572812D01*
X-13755134Y-11644866D01*
X-13940706Y-11870986D01*
X-14078599Y-12128966D01*
X-14163513Y-12408889D01*
X-14192185Y-12700000D01*
X-14163513Y-12991111D01*
X-14078599Y-13271034D01*
X-13940706Y-13529014D01*
X-13755134Y-13755134D01*
X-13529014Y-13940706D01*
X-13474209Y-13970000D01*
X-13529014Y-13999294D01*
X-13755134Y-14184866D01*
X-13940706Y-14410986D01*
X-14078599Y-14668966D01*
X-14163513Y-14948889D01*
X-14192185Y-15240000D01*
X-14163513Y-15531111D01*
X-14078599Y-15811034D01*
X-13940706Y-16069014D01*
X-13755134Y-16295134D01*
X-13529014Y-16480706D01*
X-13474209Y-16510000D01*
X-13529014Y-16539294D01*
X-13755134Y-16724866D01*
X-13940706Y-16950986D01*
X-14078599Y-17208966D01*
X-14163513Y-17488889D01*
X-14192185Y-17780000D01*
X-14163513Y-18071111D01*
X-14078599Y-18351034D01*
X-13940706Y-18609014D01*
X-13755134Y-18835134D01*
X-13529014Y-19020706D01*
X-13474209Y-19050000D01*
X-13529014Y-19079294D01*
X-13755134Y-19264866D01*
X-13940706Y-19490986D01*
X-14078599Y-19748966D01*
X-14163513Y-20028889D01*
X-14192185Y-20320000D01*
X-14163513Y-20611111D01*
X-14078599Y-20891034D01*
X-13940706Y-21149014D01*
X-13755134Y-21375134D01*
X-13529014Y-21560706D01*
X-13474209Y-21590000D01*
X-13529014Y-21619294D01*
X-13755134Y-21804866D01*
X-13940706Y-22030986D01*
X-14078599Y-22288966D01*
X-14163513Y-22568889D01*
X-14192185Y-22860000D01*
X-14163513Y-23151111D01*
X-14078599Y-23431034D01*
X-13940706Y-23689014D01*
X-13755134Y-23915134D01*
X-13529014Y-24100706D01*
X-13474209Y-24130000D01*
X-13529014Y-24159294D01*
X-13755134Y-24344866D01*
X-13940706Y-24570986D01*
X-14078599Y-24828966D01*
X-14163513Y-25108889D01*
X-14192185Y-25400000D01*
X-14163513Y-25691111D01*
X-14078599Y-25971034D01*
X-13940706Y-26229014D01*
X-13755134Y-26455134D01*
X-13529014Y-26640706D01*
X-13474209Y-26670000D01*
X-13529014Y-26699294D01*
X-13755134Y-26884866D01*
X-13940706Y-27110986D01*
X-14078599Y-27368966D01*
X-14163513Y-27648889D01*
X-14192185Y-27940000D01*
X-14163513Y-28231111D01*
X-14078599Y-28511034D01*
X-13940706Y-28769014D01*
X-13755134Y-28995134D01*
X-13529014Y-29180706D01*
X-13271034Y-29318599D01*
X-12991111Y-29403513D01*
X-12772950Y-29425000D01*
X-12627050Y-29425000D01*
X-12408889Y-29403513D01*
X-12128966Y-29318599D01*
X-11870986Y-29180706D01*
X-11644866Y-28995134D01*
X-11459294Y-28769014D01*
X-11321401Y-28511034D01*
X-11236487Y-28231111D01*
X-11207815Y-27940000D01*
X-11236487Y-27648889D01*
X-11259203Y-27574004D01*
X-6473996Y-22788798D01*
X-6444999Y-22765001D01*
X-6350026Y-22649276D01*
X-6279454Y-22517247D01*
X-6235997Y-22373986D01*
X-6225000Y-22262333D01*
X-6225000Y-22262332D01*
X-6221323Y-22225000D01*
X-6225000Y-22187667D01*
X-6225000Y-10018665D01*
X-5245000Y-10018665D01*
X-5245000Y-10301335D01*
X-5189853Y-10578574D01*
X-5081680Y-10839727D01*
X-4924637Y-11074759D01*
X-4724759Y-11274637D01*
X-4489727Y-11431680D01*
X-4228574Y-11539853D01*
X-3951335Y-11595000D01*
X-3668665Y-11595000D01*
X-3391426Y-11539853D01*
X-3130273Y-11431680D01*
X-2895241Y-11274637D01*
X-2695363Y-11074759D01*
X-2538320Y-10839727D01*
X-2430147Y-10578574D01*
X-2375000Y-10301335D01*
X-2375000Y-10018665D01*
X-2430147Y-9741426D01*
X-2538320Y-9480273D01*
X-2695363Y-9245241D01*
X-2895241Y-9045363D01*
X-3130273Y-8888320D01*
X-3391426Y-8780147D01*
X-3668665Y-8725000D01*
X-3951335Y-8725000D01*
X-4228574Y-8780147D01*
X-4489727Y-8888320D01*
X-4724759Y-9045363D01*
X-4924637Y-9245241D01*
X-5081680Y-9480273D01*
X-5189853Y-9741426D01*
X-5245000Y-10018665D01*
X-6225000Y-10018665D01*
X-6225000Y-8958707D01*
X-6181063Y-8914770D01*
X-6067795Y-8745252D01*
X-5989774Y-8556894D01*
X-5950000Y-8356935D01*
X-5950000Y-8255000D01*
X-3066050Y-8255000D01*
X-1460871Y-9860180D01*
X-1463513Y-9868889D01*
X-1492185Y-10160000D01*
X-1463513Y-10451111D01*
X-1378599Y-10731034D01*
X-1240706Y-10989014D01*
X-1055134Y-11215134D01*
X-829014Y-11400706D01*
X-764477Y-11435201D01*
X-881355Y-11504822D01*
X-1097588Y-11699731D01*
X-1271641Y-11933080D01*
X-1396825Y-12195901D01*
X-1441476Y-12343110D01*
X-1320155Y-12573000D01*
X-127000Y-12573000D01*
X-127000Y-12553000D01*
X127000Y-12553000D01*
X127000Y-12573000D01*
X1320155Y-12573000D01*
X1441476Y-12343110D01*
X1396825Y-12195901D01*
X1271641Y-11933080D01*
X1097588Y-11699731D01*
X881355Y-11504822D01*
X764477Y-11435201D01*
X829014Y-11400706D01*
X1055134Y-11215134D01*
X1240706Y-10989014D01*
X1378599Y-10731034D01*
X1463513Y-10451111D01*
X1492185Y-10160000D01*
X1463513Y-9868889D01*
X1378599Y-9588966D01*
X1260724Y-9368436D01*
X1251623Y-9276037D01*
X1243794Y-9250226D01*
X1210042Y-9138963D01*
X1179003Y-9036641D01*
X1061075Y-8816012D01*
X902370Y-8622630D01*
X853915Y-8582864D01*
X-958949Y-6770000D01*
X4861928Y-6770000D01*
X4861928Y-8470000D01*
X4874188Y-8594482D01*
X4910498Y-8714180D01*
X4969463Y-8824494D01*
X5048815Y-8921185D01*
X5145506Y-9000537D01*
X5255820Y-9059502D01*
X5331626Y-9082498D01*
X5154822Y-9278645D01*
X5005843Y-9528748D01*
X4908519Y-9803109D01*
X5029186Y-10033000D01*
X6223000Y-10033000D01*
X6223000Y-10013000D01*
X6477000Y-10013000D01*
X6477000Y-10033000D01*
X7670814Y-10033000D01*
X7791481Y-9803109D01*
X7694157Y-9528748D01*
X7545178Y-9278645D01*
X7368374Y-9082498D01*
X7444180Y-9059502D01*
X7554494Y-9000537D01*
X7651185Y-8921185D01*
X7730537Y-8824494D01*
X7789502Y-8714180D01*
X7825812Y-8594482D01*
X7838072Y-8470000D01*
X7838072Y-6770000D01*
X7825812Y-6645518D01*
X7789502Y-6525820D01*
X7730537Y-6415506D01*
X7651185Y-6318815D01*
X7554494Y-6239463D01*
X7444180Y-6180498D01*
X7324482Y-6144188D01*
X7200000Y-6131928D01*
X5500000Y-6131928D01*
X5375518Y-6144188D01*
X5255820Y-6180498D01*
X5145506Y-6239463D01*
X5048815Y-6318815D01*
X4969463Y-6415506D01*
X4910498Y-6525820D01*
X4874188Y-6645518D01*
X4861928Y-6770000D01*
X-958949Y-6770000D01*
X-1597859Y-6131091D01*
X-1637630Y-6082630D01*
X-1831012Y-5923925D01*
X-2051641Y-5805997D01*
X-2291037Y-5733377D01*
X-2477620Y-5715000D01*
X-2477627Y-5715000D01*
X-2540000Y-5708857D01*
X-2602373Y-5715000D01*
X-4045000Y-5715000D01*
X-4045000Y-5613061D01*
X-4084774Y-5413102D01*
X-4162795Y-5224744D01*
X-4276063Y-5055226D01*
X-4320000Y-5011289D01*
X-4320000Y-3817595D01*
X-4250986Y-3780706D01*
X-4024866Y-3595134D01*
X-3839294Y-3369014D01*
X-3810000Y-3314209D01*
X-3780706Y-3369014D01*
X-3595134Y-3595134D01*
X-3369014Y-3780706D01*
X-3111034Y-3918599D01*
X-2831111Y-4003513D01*
X-2612950Y-4025000D01*
X-2467050Y-4025000D01*
X-2248889Y-4003513D01*
X-1968966Y-3918599D01*
X-1710986Y-3780706D01*
X-1484866Y-3595134D01*
X-1299294Y-3369014D01*
X-1270000Y-3314209D01*
X-1240706Y-3369014D01*
X-1055134Y-3595134D01*
X-829014Y-3780706D01*
X-571034Y-3918599D01*
X-291111Y-4003513D01*
X-72950Y-4025000D01*
X72950Y-4025000D01*
X291111Y-4003513D01*
X571034Y-3918599D01*
X829014Y-3780706D01*
X1055134Y-3595134D01*
X1240706Y-3369014D01*
X1275201Y-3304477D01*
X1344822Y-3421355D01*
X1539731Y-3637588D01*
X1773080Y-3811641D01*
X2035901Y-3936825D01*
X2183110Y-3981476D01*
X2413000Y-3860155D01*
X2413000Y-2667000D01*
X2393000Y-2667000D01*
X2393000Y-2413000D01*
X2413000Y-2413000D01*
X2413000Y-127000D01*
X2393000Y-127000D01*
X2393000Y127000D01*
X2413000Y127000D01*
X2413000Y1320155D01*
X2183110Y1441476D01*
X2035901Y1396825D01*
X1773080Y1271641D01*
X1539731Y1097588D01*
X1344822Y881355D01*
X1275201Y764477D01*
X1240706Y829014D01*
X1055134Y1055134D01*
X829014Y1240706D01*
X571034Y1378599D01*
X291111Y1463513D01*
X72950Y1485000D01*
X-72950Y1485000D01*
X-291111Y1463513D01*
X-571034Y1378599D01*
X-829014Y1240706D01*
X-1055134Y1055134D01*
X-1240706Y829014D01*
X-1270000Y774209D01*
X-1299294Y829014D01*
X-1484866Y1055134D01*
X-1710986Y1240706D01*
X-1968966Y1378599D01*
X-2248889Y1463513D01*
X-2467050Y1485000D01*
X-2612950Y1485000D01*
X-2831111Y1463513D01*
X-3111034Y1378599D01*
X-3369014Y1240706D01*
X-3595134Y1055134D01*
X-3780706Y829014D01*
X-3810000Y774209D01*
X-3839294Y829014D01*
X-4024866Y1055134D01*
X-4250986Y1240706D01*
X-4508966Y1378599D01*
X-4788889Y1463513D01*
X-5007050Y1485000D01*
X-5152950Y1485000D01*
X-5371111Y1463513D01*
X-5651034Y1378599D01*
X-5909014Y1240706D01*
X-6135134Y1055134D01*
X-6320706Y829014D01*
X-6350000Y774209D01*
X-6379294Y829014D01*
X-6564866Y1055134D01*
X-6790986Y1240706D01*
X-7048966Y1378599D01*
X-7328889Y1463513D01*
X-7547050Y1485000D01*
X-7692950Y1485000D01*
X-7911111Y1463513D01*
X-8191034Y1378599D01*
X-8449014Y1240706D01*
X-8675134Y1055134D01*
X-8860706Y829014D01*
X-8890000Y774209D01*
X-8919294Y829014D01*
X-9104866Y1055134D01*
X-9330986Y1240706D01*
X-9588966Y1378599D01*
X-9868889Y1463513D01*
X-10087050Y1485000D01*
X-10232950Y1485000D01*
X-10451111Y1463513D01*
X-10731034Y1378599D01*
X-10989014Y1240706D01*
X-11215134Y1055134D01*
X-11400706Y829014D01*
X-11430000Y774209D01*
X-11459294Y829014D01*
X-11644866Y1055134D01*
X-11870986Y1240706D01*
X-12128966Y1378599D01*
X-12408889Y1463513D01*
X-12627050Y1485000D01*
X-12772950Y1485000D01*
X-12991111Y1463513D01*
X-13271034Y1378599D01*
X-13529014Y1240706D01*
X-13755134Y1055134D01*
X-13940706Y829014D01*
X-13970000Y774209D01*
X-13999294Y829014D01*
X-14184866Y1055134D01*
X-14410986Y1240706D01*
X-14668966Y1378599D01*
X-14948889Y1463513D01*
X-15167050Y1485000D01*
X-15312950Y1485000D01*
X-15531111Y1463513D01*
X-15811034Y1378599D01*
X-16069014Y1240706D01*
X-16295134Y1055134D01*
X-16480706Y829014D01*
X-16510000Y774209D01*
X-16539294Y829014D01*
X-16724866Y1055134D01*
X-16950986Y1240706D01*
X-17208966Y1378599D01*
X-17488889Y1463513D01*
X-17707050Y1485000D01*
X-17852950Y1485000D01*
X-18071111Y1463513D01*
X-18351034Y1378599D01*
X-18609014Y1240706D01*
X-18835134Y1055134D01*
X-19020706Y829014D01*
X-19050000Y774209D01*
X-19079294Y829014D01*
X-19264866Y1055134D01*
X-19490986Y1240706D01*
X-19748966Y1378599D01*
X-20028889Y1463513D01*
X-20247050Y1485000D01*
X-20392950Y1485000D01*
X-20611111Y1463513D01*
X-20891034Y1378599D01*
X-21149014Y1240706D01*
X-21375134Y1055134D01*
X-21560706Y829014D01*
X-21590000Y774209D01*
X-21619294Y829014D01*
X-21804866Y1055134D01*
X-22030986Y1240706D01*
X-22288966Y1378599D01*
X-22568889Y1463513D01*
X-22787050Y1485000D01*
X-22932950Y1485000D01*
X-23151111Y1463513D01*
X-23431034Y1378599D01*
X-23689014Y1240706D01*
X-23915134Y1055134D01*
X-24100706Y829014D01*
X-24130000Y774209D01*
X-24159294Y829014D01*
X-24344866Y1055134D01*
X-24570986Y1240706D01*
X-24828966Y1378599D01*
X-25108889Y1463513D01*
X-25327050Y1485000D01*
X-25472950Y1485000D01*
X-25691111Y1463513D01*
X-25971034Y1378599D01*
X-26229014Y1240706D01*
X-26455134Y1055134D01*
X-26640706Y829014D01*
X-26670000Y774209D01*
X-26699294Y829014D01*
X-26884866Y1055134D01*
X-27110986Y1240706D01*
X-27368966Y1378599D01*
X-27648889Y1463513D01*
X-27867050Y1485000D01*
X-28012950Y1485000D01*
X-28231111Y1463513D01*
X-28511034Y1378599D01*
X-28769014Y1240706D01*
X-28995134Y1055134D01*
X-29019607Y1025313D01*
X-29040498Y1094180D01*
X-29099463Y1204494D01*
X-29178815Y1301185D01*
X-29275506Y1380537D01*
X-29385820Y1439502D01*
X-29505518Y1475812D01*
X-29630000Y1488072D01*
X-31330000Y1488072D01*
X-31454482Y1475812D01*
X-31574180Y1439502D01*
X-31684494Y1380537D01*
X-31781185Y1301185D01*
X-31860537Y1204494D01*
X-31919502Y1094180D01*
X-31955812Y974482D01*
X-31968072Y850000D01*
X-31968072Y-850000D01*
X-31955812Y-974482D01*
X-31919502Y-1094180D01*
X-31860537Y-1204494D01*
X-31806778Y-1270000D01*
X-31860537Y-1335506D01*
X-31919502Y-1445820D01*
X-31955812Y-1565518D01*
X-31968072Y-1690000D01*
X-31968072Y-3291753D01*
X-32107298Y-3250903D01*
X-32920395Y-4064000D01*
X-32107298Y-4877097D01*
X-31863329Y-4805514D01*
X-31742429Y-4550004D01*
X-31673700Y-4275816D01*
X-31659783Y-3993488D01*
X-31669396Y-3928607D01*
X-31574180Y-3979502D01*
X-31454482Y-4015812D01*
X-31330000Y-4028072D01*
X-29630000Y-4028072D01*
X-29505518Y-4015812D01*
X-29385820Y-3979502D01*
X-29275506Y-3920537D01*
X-29178815Y-3841185D01*
X-29099463Y-3744494D01*
X-29040498Y-3634180D01*
X-29019607Y-3565313D01*
X-28995134Y-3595134D01*
X-28769014Y-3780706D01*
X-28511034Y-3918599D01*
X-28231111Y-4003513D01*
X-28012950Y-4025000D01*
X-27867050Y-4025000D01*
X-27648889Y-4003513D01*
X-27368966Y-3918599D01*
X-27110986Y-3780706D01*
X-26884866Y-3595134D01*
X-26699294Y-3369014D01*
X-26670000Y-3314209D01*
X-26640706Y-3369014D01*
X-26455134Y-3595134D01*
X-26229014Y-3780706D01*
X-25971034Y-3918599D01*
X-25955123Y-3923425D01*
X-25963799Y-3933997D01*
X-26709801Y-4680000D01*
X-26771939Y-4680000D01*
X-26971898Y-4719774D01*
X-27160256Y-4797795D01*
X-27329774Y-4911063D01*
X-27473937Y-5055226D01*
X-27587205Y-5224744D01*
X-27665226Y-5413102D01*
X-27705000Y-5613061D01*
X-27705000Y-5715000D01*
X-29782627Y-5715000D01*
X-29845000Y-5708857D01*
X-29907373Y-5715000D01*
X-29907380Y-5715000D01*
X-30070653Y-5731081D01*
X-30093964Y-5733377D01*
X-30156453Y-5752333D01*
X-30333359Y-5805997D01*
X-30553988Y-5923925D01*
X-30648914Y-6001829D01*
X-30698917Y-6042865D01*
X-30698918Y-6042866D01*
X-30747370Y-6082630D01*
X-30787132Y-6131080D01*
X-31741216Y-7085164D01*
X-31673700Y-6815816D01*
X-31659783Y-6533488D01*
X-31701213Y-6253870D01*
X-31796397Y-5987708D01*
X-31863329Y-5862486D01*
X-32107298Y-5790903D01*
X-32920395Y-6604000D01*
X-32906253Y-6618143D01*
X-33085858Y-6797748D01*
X-33100000Y-6783605D01*
X-33913097Y-7596702D01*
X-33841514Y-7840671D01*
X-33586004Y-7961571D01*
X-33311816Y-8030300D01*
X-33029488Y-8044217D01*
X-32749870Y-8002787D01*
X-32608161Y-7952109D01*
X-35242500Y-10586449D01*
X-37792859Y-8036091D01*
X-37814075Y-8010239D01*
X-37681426Y-7983853D01*
X-37420273Y-7875680D01*
X-37185241Y-7718637D01*
X-36985363Y-7518759D01*
X-36828320Y-7283727D01*
X-36720147Y-7022574D01*
X-36665000Y-6745335D01*
X-36665000Y-6674512D01*
X-34540217Y-6674512D01*
X-34498787Y-6954130D01*
X-34403603Y-7220292D01*
X-34336671Y-7345514D01*
X-34092702Y-7417097D01*
X-33279605Y-6604000D01*
X-34092702Y-5790903D01*
X-34336671Y-5862486D01*
X-34457571Y-6117996D01*
X-34526300Y-6392184D01*
X-34540217Y-6674512D01*
X-36665000Y-6674512D01*
X-36665000Y-6462665D01*
X-36720147Y-6185426D01*
X-36828320Y-5924273D01*
X-36985363Y-5689241D01*
X-37185241Y-5489363D01*
X-37417759Y-5334000D01*
X-37185241Y-5178637D01*
X-37063306Y-5056702D01*
X-33913097Y-5056702D01*
X-33841514Y-5300671D01*
X-33775364Y-5331971D01*
X-33841514Y-5367329D01*
X-33913097Y-5611298D01*
X-33100000Y-6424395D01*
X-32286903Y-5611298D01*
X-32358486Y-5367329D01*
X-32424636Y-5336029D01*
X-32358486Y-5300671D01*
X-32286903Y-5056702D01*
X-33100000Y-4243605D01*
X-33913097Y-5056702D01*
X-37063306Y-5056702D01*
X-36985363Y-4978759D01*
X-36828320Y-4743727D01*
X-36720147Y-4482574D01*
X-36665000Y-4205335D01*
X-36665000Y-4134512D01*
X-34540217Y-4134512D01*
X-34498787Y-4414130D01*
X-34403603Y-4680292D01*
X-34336671Y-4805514D01*
X-34092702Y-4877097D01*
X-33279605Y-4064000D01*
X-34092702Y-3250903D01*
X-34336671Y-3322486D01*
X-34457571Y-3577996D01*
X-34526300Y-3852184D01*
X-34540217Y-4134512D01*
X-36665000Y-4134512D01*
X-36665000Y-3922665D01*
X-36720147Y-3645426D01*
X-36828320Y-3384273D01*
X-36985363Y-3149241D01*
X-37063306Y-3071298D01*
X-33913097Y-3071298D01*
X-33100000Y-3884395D01*
X-32286903Y-3071298D01*
X-32358486Y-2827329D01*
X-32613996Y-2706429D01*
X-32888184Y-2637700D01*
X-33170512Y-2623783D01*
X-33450130Y-2665213D01*
X-33716292Y-2760397D01*
X-33841514Y-2827329D01*
X-33913097Y-3071298D01*
X-37063306Y-3071298D01*
X-37185241Y-2949363D01*
X-37420273Y-2792320D01*
X-37472574Y-2770656D01*
X-37233077Y-2645969D01*
X-36990563Y-2451315D01*
X-36835163Y-2266101D01*
X-36687963Y-2445463D01*
X-36446234Y-2643845D01*
X-36170448Y-2791255D01*
X-35871203Y-2882030D01*
X-35560000Y-2912681D01*
X-35248796Y-2882030D01*
X-34949551Y-2791255D01*
X-34673765Y-2643845D01*
X-34432037Y-2445463D01*
X-34233655Y-2203734D01*
X-34086245Y-1927948D01*
X-33995470Y-1628703D01*
X-33972500Y-1395485D01*
X-33972500Y-1144514D01*
X-33995470Y-911296D01*
X-34086245Y-612051D01*
X-34233655Y-336265D01*
X-34432037Y-94537D01*
X-34673766Y103845D01*
X-34949552Y251255D01*
X-35248797Y342030D01*
X-35560000Y372681D01*
X-35871204Y342030D01*
X-36170449Y251255D01*
X-36446235Y103845D01*
X-36687963Y-94537D01*
X-36835162Y-273900D01*
X-36990563Y-88685D01*
X-37233077Y105969D01*
X-37508906Y249571D01*
X-37727020Y320563D01*
X-37973000Y200594D01*
X-37973000Y-1143000D01*
X-37953000Y-1143000D01*
X-37953000Y-1397000D01*
X-37973000Y-1397000D01*
X-37973000Y-1417000D01*
X-38227000Y-1417000D01*
X-38227000Y-1397000D01*
X-38247000Y-1397000D01*
X-38247000Y-1143000D01*
X-38227000Y-1143000D01*
X-38227000Y200594D01*
X-38472980Y320563D01*
X-38691094Y249571D01*
X-38966923Y105969D01*
X-39107941Y-7219D01*
X-39156963Y84494D01*
X-39236315Y181185D01*
X-39333006Y260537D01*
X-39443320Y319502D01*
X-39563018Y355812D01*
X-39687500Y368072D01*
X-41592500Y368072D01*
X-41716982Y355812D01*
X-41836680Y319502D01*
X-41946994Y260537D01*
X-42043685Y181185D01*
X-42123037Y84494D01*
X-42182002Y-25820D01*
X-42218312Y-145518D01*
X-42230572Y-270000D01*
X-43790000Y-270000D01*
X-43790000Y15390000D01*
X-40496539Y15390000D01*
X-40450490Y14922458D01*
X-40314113Y14472884D01*
X-40092649Y14058554D01*
X-39794609Y13695391D01*
X-39431446Y13397351D01*
X-39017116Y13175887D01*
X-38567542Y13039510D01*
X-38217157Y13005000D01*
X-37982843Y13005000D01*
X-37632458Y13039510D01*
X-37182884Y13175887D01*
X-36768554Y13397351D01*
X-36405391Y13695391D01*
X-36107351Y14058554D01*
X-35885887Y14472884D01*
X-35749510Y14922458D01*
X-35703461Y15390000D01*
X-35749510Y15857542D01*
X-35885887Y16307116D01*
X-36107351Y16721446D01*
X-36405391Y17084609D01*
X-36768554Y17382649D01*
X-37182884Y17604113D01*
X-37632458Y17740490D01*
X-37982843Y17775000D01*
X-38217157Y17775000D01*
X-38567542Y17740490D01*
X-39017116Y17604113D01*
X-39431446Y17382649D01*
X-39794609Y17084609D01*
X-40092649Y16721446D01*
X-40314113Y16307116D01*
X-40450490Y15857542D01*
X-40496539Y15390000D01*
X-43790000Y15390000D01*
X-43790000Y21653288D01*
X-42937107Y21653288D01*
X-42829274Y21378662D01*
X-42522616Y21227784D01*
X-42192415Y21139631D01*
X-41851361Y21117591D01*
X-41512561Y21162511D01*
X-41189034Y21272664D01*
X-40990726Y21378662D01*
X-40882893Y21653288D01*
X-41910000Y22680395D01*
X-42937107Y21653288D01*
X-43790000Y21653288D01*
X-43790000Y22801361D01*
X-43652409Y22801361D01*
X-43607489Y22462561D01*
X-43497336Y22139034D01*
X-43391338Y21940726D01*
X-43116712Y21832893D01*
X-42089605Y22860000D01*
X-41730395Y22860000D01*
X-40703288Y21832893D01*
X-40428662Y21940726D01*
X-40277784Y22247384D01*
X-40209514Y22503109D01*
X-31921481Y22503109D01*
X-31824157Y22228748D01*
X-31675178Y21978645D01*
X-31480269Y21762412D01*
X-31246920Y21588359D01*
X-30984099Y21463175D01*
X-30836890Y21418524D01*
X-30607000Y21539845D01*
X-30607000Y22733000D01*
X-31800814Y22733000D01*
X-31921481Y22503109D01*
X-40209514Y22503109D01*
X-40189631Y22577585D01*
X-40167591Y22918639D01*
X-40207134Y23216891D01*
X-31921481Y23216891D01*
X-31800814Y22987000D01*
X-30607000Y22987000D01*
X-30607000Y24180155D01*
X-30353000Y24180155D01*
X-30353000Y22987000D01*
X-30333000Y22987000D01*
X-30333000Y22733000D01*
X-30353000Y22733000D01*
X-30353000Y21539845D01*
X-30123110Y21418524D01*
X-29975901Y21463175D01*
X-29713080Y21588359D01*
X-29479731Y21762412D01*
X-29284822Y21978645D01*
X-29215201Y22095523D01*
X-29180706Y22030986D01*
X-28995134Y21804866D01*
X-28769014Y21619294D01*
X-28511034Y21481401D01*
X-28231111Y21396487D01*
X-28012950Y21375000D01*
X-27867050Y21375000D01*
X-27648889Y21396487D01*
X-27368966Y21481401D01*
X-27110986Y21619294D01*
X-26884866Y21804866D01*
X-26699294Y22030986D01*
X-26670000Y22085791D01*
X-26640706Y22030986D01*
X-26455134Y21804866D01*
X-26229014Y21619294D01*
X-25971034Y21481401D01*
X-25691111Y21396487D01*
X-25472950Y21375000D01*
X-25327050Y21375000D01*
X-25108889Y21396487D01*
X-25034004Y21419203D01*
X-22788800Y19173998D01*
X-22765001Y19144999D01*
X-22736003Y19121201D01*
X-22649277Y19050026D01*
X-22517247Y18979454D01*
X-22373986Y18935997D01*
X-22262333Y18925000D01*
X-22262324Y18925000D01*
X-22225001Y18921324D01*
X-22187678Y18925000D01*
X7940199Y18925000D01*
X8130000Y18735198D01*
X8130001Y1397113D01*
X7911111Y1463513D01*
X7692950Y1485000D01*
X7547050Y1485000D01*
X7328889Y1463513D01*
X7048966Y1378599D01*
X6790986Y1240706D01*
X6564866Y1055134D01*
X6379294Y829014D01*
X6350000Y774209D01*
X6320706Y829014D01*
X6135134Y1055134D01*
X5909014Y1240706D01*
X5651034Y1378599D01*
X5371111Y1463513D01*
X5152950Y1485000D01*
X5007050Y1485000D01*
X4788889Y1463513D01*
X4508966Y1378599D01*
X4250986Y1240706D01*
X4024866Y1055134D01*
X3839294Y829014D01*
X3804799Y764477D01*
X3735178Y881355D01*
X3540269Y1097588D01*
X3306920Y1271641D01*
X3044099Y1396825D01*
X2896890Y1441476D01*
X2667000Y1320155D01*
X2667000Y127000D01*
X2687000Y127000D01*
X2687000Y-127000D01*
X2667000Y-127000D01*
X2667000Y-2413000D01*
X2687000Y-2413000D01*
X2687000Y-2667000D01*
X2667000Y-2667000D01*
X2667000Y-3860155D01*
X2896890Y-3981476D01*
X3044099Y-3936825D01*
X3306920Y-3811641D01*
X3540269Y-3637588D01*
X3735178Y-3421355D01*
X3804799Y-3304477D01*
X3839294Y-3369014D01*
X4024866Y-3595134D01*
X4250986Y-3780706D01*
X4508966Y-3918599D01*
X4788889Y-4003513D01*
X5007050Y-4025000D01*
X5152950Y-4025000D01*
X5371111Y-4003513D01*
X5651034Y-3918599D01*
X5909014Y-3780706D01*
X6135134Y-3595134D01*
X6320706Y-3369014D01*
X6350000Y-3314209D01*
X6379294Y-3369014D01*
X6564866Y-3595134D01*
X6790986Y-3780706D01*
X7048966Y-3918599D01*
X7328889Y-4003513D01*
X7547050Y-4025000D01*
X7692950Y-4025000D01*
X7911111Y-4003513D01*
X8130001Y-3937113D01*
X8130001Y-11750197D01*
X7940199Y-11940000D01*
X7627595Y-11940000D01*
X7590706Y-11870986D01*
X7405134Y-11644866D01*
X7179014Y-11459294D01*
X7121244Y-11428416D01*
X7350269Y-11257588D01*
X7545178Y-11041355D01*
X7694157Y-10791252D01*
X7791481Y-10516891D01*
X7670814Y-10287000D01*
X6477000Y-10287000D01*
X6477000Y-10307000D01*
X6223000Y-10307000D01*
X6223000Y-10287000D01*
X5029186Y-10287000D01*
X4908519Y-10516891D01*
X5005843Y-10791252D01*
X5154822Y-11041355D01*
X5349731Y-11257588D01*
X5578756Y-11428416D01*
X5520986Y-11459294D01*
X5294866Y-11644866D01*
X5109294Y-11870986D01*
X4971401Y-12128966D01*
X4886487Y-12408889D01*
X4857815Y-12700000D01*
X4886487Y-12991111D01*
X4971401Y-13271034D01*
X5109294Y-13529014D01*
X5294866Y-13755134D01*
X5520986Y-13940706D01*
X5575791Y-13970000D01*
X5520986Y-13999294D01*
X5294866Y-14184866D01*
X5109294Y-14410986D01*
X4971401Y-14668966D01*
X4886487Y-14948889D01*
X4857815Y-15240000D01*
X4886487Y-15531111D01*
X4971401Y-15811034D01*
X5109294Y-16069014D01*
X5294866Y-16295134D01*
X5520986Y-16480706D01*
X5575791Y-16510000D01*
X5520986Y-16539294D01*
X5294866Y-16724866D01*
X5109294Y-16950986D01*
X4971401Y-17208966D01*
X4886487Y-17488889D01*
X4857815Y-17780000D01*
X4886487Y-18071111D01*
X4971401Y-18351034D01*
X5109294Y-18609014D01*
X5294866Y-18835134D01*
X5520986Y-19020706D01*
X5575791Y-19050000D01*
X5520986Y-19079294D01*
X5294866Y-19264866D01*
X5109294Y-19490986D01*
X4971401Y-19748966D01*
X4886487Y-20028889D01*
X4857815Y-20320000D01*
X4886487Y-20611111D01*
X4971401Y-20891034D01*
X5109294Y-21149014D01*
X5294866Y-21375134D01*
X5520986Y-21560706D01*
X5575791Y-21590000D01*
X5520986Y-21619294D01*
X5294866Y-21804866D01*
X5109294Y-22030986D01*
X4971401Y-22288966D01*
X4886487Y-22568889D01*
X4857815Y-22860000D01*
X4886487Y-23151111D01*
X4971401Y-23431034D01*
X5109294Y-23689014D01*
X5294866Y-23915134D01*
X5520986Y-24100706D01*
X5575791Y-24130000D01*
X5520986Y-24159294D01*
X5294866Y-24344866D01*
X5109294Y-24570986D01*
X4971401Y-24828966D01*
X4886487Y-25108889D01*
X4857815Y-25400000D01*
X4886487Y-25691111D01*
X4971401Y-25971034D01*
X5109294Y-26229014D01*
X5294866Y-26455134D01*
X5520986Y-26640706D01*
X5778966Y-26778599D01*
X6058889Y-26863513D01*
X6277050Y-26885000D01*
X6422950Y-26885000D01*
X6641111Y-26863513D01*
X6921034Y-26778599D01*
X7179014Y-26640706D01*
X7405134Y-26455134D01*
X7590706Y-26229014D01*
X7728599Y-25971034D01*
X7813513Y-25691111D01*
X7842185Y-25400000D01*
X7813513Y-25108889D01*
X7728599Y-24828966D01*
X7590706Y-24570986D01*
X7405134Y-24344866D01*
X7179014Y-24159294D01*
X7124209Y-24130000D01*
X7179014Y-24100706D01*
X7405134Y-23915134D01*
X7590706Y-23689014D01*
X7728599Y-23431034D01*
X7813513Y-23151111D01*
X7842185Y-22860000D01*
X7813513Y-22568889D01*
X7728599Y-22288966D01*
X7590706Y-22030986D01*
X7405134Y-21804866D01*
X7179014Y-21619294D01*
X7124209Y-21590000D01*
X7179014Y-21560706D01*
X7405134Y-21375134D01*
X7590706Y-21149014D01*
X7728599Y-20891034D01*
X7813513Y-20611111D01*
X7842185Y-20320000D01*
X7813513Y-20028889D01*
X7728599Y-19748966D01*
X7590706Y-19490986D01*
X7405134Y-19264866D01*
X7179014Y-19079294D01*
X7124209Y-19050000D01*
X7179014Y-19020706D01*
X7405134Y-18835134D01*
X7590706Y-18609014D01*
X7728599Y-18351034D01*
X7813513Y-18071111D01*
X7842185Y-17780000D01*
X7813513Y-17488889D01*
X7728599Y-17208966D01*
X7590706Y-16950986D01*
X7405134Y-16724866D01*
X7179014Y-16539294D01*
X7124209Y-16510000D01*
X7179014Y-16480706D01*
X7405134Y-16295134D01*
X7590706Y-16069014D01*
X7627595Y-16000000D01*
X8217678Y-16000000D01*
X8255000Y-16003676D01*
X8292322Y-16000000D01*
X8292333Y-16000000D01*
X8403986Y-15989003D01*
X8547247Y-15945546D01*
X8679276Y-15874974D01*
X8795001Y-15780001D01*
X8818804Y-15750997D01*
X11941004Y-12628798D01*
X11970001Y-12605001D01*
X12012382Y-12553360D01*
X12064974Y-12489277D01*
X12135546Y-12357247D01*
X12139834Y-12343110D01*
X12179003Y-12213986D01*
X12190000Y-12102333D01*
X12190000Y-12102324D01*
X12193676Y-12065001D01*
X12190000Y-12027678D01*
X12190000Y-3937114D01*
X12408889Y-4003513D01*
X12627050Y-4025000D01*
X12772950Y-4025000D01*
X12991111Y-4003513D01*
X13210000Y-3937113D01*
X13210000Y-15912332D01*
X13210001Y-15912342D01*
X13210000Y-19370198D01*
X8378998Y-24201201D01*
X8350000Y-24224999D01*
X8326202Y-24253997D01*
X8326201Y-24253998D01*
X8255026Y-24340724D01*
X8184454Y-24472754D01*
X8160507Y-24551700D01*
X8144584Y-24604194D01*
X8140998Y-24616015D01*
X8126324Y-24765000D01*
X8130001Y-24802332D01*
X8130000Y-29626928D01*
X8040000Y-29626928D01*
X7915518Y-29639188D01*
X7795820Y-29675498D01*
X7685506Y-29734463D01*
X7588815Y-29813815D01*
X7509463Y-29910506D01*
X7450498Y-30020820D01*
X7414188Y-30140518D01*
X7401928Y-30265000D01*
X7401928Y-31965000D01*
X7414188Y-32089482D01*
X7450498Y-32209180D01*
X7509463Y-32319494D01*
X7588815Y-32416185D01*
X7685506Y-32495537D01*
X7795820Y-32554502D01*
X7915518Y-32590812D01*
X8040000Y-32603072D01*
X9740000Y-32603072D01*
X9864482Y-32590812D01*
X9984180Y-32554502D01*
X10094494Y-32495537D01*
X10191185Y-32416185D01*
X10270537Y-32319494D01*
X10329502Y-32209180D01*
X10350393Y-32140313D01*
X10374866Y-32170134D01*
X10600986Y-32355706D01*
X10858966Y-32493599D01*
X11138889Y-32578513D01*
X11357050Y-32600000D01*
X11502950Y-32600000D01*
X11721111Y-32578513D01*
X12001034Y-32493599D01*
X12259014Y-32355706D01*
X12485134Y-32170134D01*
X12670706Y-31944014D01*
X12705201Y-31879477D01*
X12774822Y-31996355D01*
X12969731Y-32212588D01*
X13203080Y-32386641D01*
X13465901Y-32511825D01*
X13613110Y-32556476D01*
X13843000Y-32435155D01*
X13843000Y-31242000D01*
X14097000Y-31242000D01*
X14097000Y-32435155D01*
X14326890Y-32556476D01*
X14474099Y-32511825D01*
X14736920Y-32386641D01*
X14970269Y-32212588D01*
X15165178Y-31996355D01*
X15276994Y-31808639D01*
X17942591Y-31808639D01*
X17987511Y-32147439D01*
X18097664Y-32470966D01*
X18203662Y-32669274D01*
X18478288Y-32777107D01*
X19505395Y-31750000D01*
X19864605Y-31750000D01*
X20891712Y-32777107D01*
X21166338Y-32669274D01*
X21317216Y-32362616D01*
X21405369Y-32032415D01*
X21427409Y-31691361D01*
X21382489Y-31352561D01*
X21272336Y-31029034D01*
X21166338Y-30830726D01*
X20891712Y-30722893D01*
X19864605Y-31750000D01*
X19505395Y-31750000D01*
X18478288Y-30722893D01*
X18203662Y-30830726D01*
X18052784Y-31137384D01*
X17964631Y-31467585D01*
X17942591Y-31808639D01*
X15276994Y-31808639D01*
X15314157Y-31746252D01*
X15411481Y-31471891D01*
X15290814Y-31242000D01*
X14097000Y-31242000D01*
X13843000Y-31242000D01*
X13823000Y-31242000D01*
X13823000Y-30988000D01*
X13843000Y-30988000D01*
X13843000Y-29794845D01*
X14097000Y-29794845D01*
X14097000Y-30988000D01*
X15290814Y-30988000D01*
X15411481Y-30758109D01*
X15335278Y-30543288D01*
X18657893Y-30543288D01*
X19685000Y-31570395D01*
X20712107Y-30543288D01*
X20604274Y-30268662D01*
X20297616Y-30117784D01*
X19967415Y-30029631D01*
X19626361Y-30007591D01*
X19287561Y-30052511D01*
X18964034Y-30162664D01*
X18765726Y-30268662D01*
X18657893Y-30543288D01*
X15335278Y-30543288D01*
X15314157Y-30483748D01*
X15165178Y-30233645D01*
X14970269Y-30017412D01*
X14736920Y-29843359D01*
X14474099Y-29718175D01*
X14326890Y-29673524D01*
X14097000Y-29794845D01*
X13843000Y-29794845D01*
X13613110Y-29673524D01*
X13465901Y-29718175D01*
X13203080Y-29843359D01*
X12969731Y-30017412D01*
X12774822Y-30233645D01*
X12705201Y-30350523D01*
X12670706Y-30285986D01*
X12485134Y-30059866D01*
X12259014Y-29874294D01*
X12001034Y-29736401D01*
X11721111Y-29651487D01*
X11502950Y-29630000D01*
X11357050Y-29630000D01*
X11138889Y-29651487D01*
X10858966Y-29736401D01*
X10600986Y-29874294D01*
X10374866Y-30059866D01*
X10350393Y-30089687D01*
X10329502Y-30020820D01*
X10270537Y-29910506D01*
X10191185Y-29813815D01*
X10094494Y-29734463D01*
X9984180Y-29675498D01*
X9864482Y-29639188D01*
X9740000Y-29626928D01*
X9650000Y-29626928D01*
X9650000Y-25079801D01*
X10765759Y-23964042D01*
X16095000Y-23964042D01*
X16095000Y-24295958D01*
X16159754Y-24621496D01*
X16286772Y-24928147D01*
X16471175Y-25204125D01*
X16705875Y-25438825D01*
X16981853Y-25623228D01*
X17288504Y-25750246D01*
X17614042Y-25815000D01*
X17945958Y-25815000D01*
X18271496Y-25750246D01*
X18578147Y-25623228D01*
X18854125Y-25438825D01*
X19088825Y-25204125D01*
X19273228Y-24928147D01*
X19400246Y-24621496D01*
X19465000Y-24295958D01*
X19465000Y-23964042D01*
X19400246Y-23638504D01*
X19273228Y-23331853D01*
X19088825Y-23055875D01*
X18854125Y-22821175D01*
X18578147Y-22636772D01*
X18271496Y-22509754D01*
X17945958Y-22445000D01*
X17614042Y-22445000D01*
X17288504Y-22509754D01*
X16981853Y-22636772D01*
X16705875Y-22821175D01*
X16471175Y-23055875D01*
X16286772Y-23331853D01*
X16159754Y-23638504D01*
X16095000Y-23964042D01*
X10765759Y-23964042D01*
X14481004Y-20248798D01*
X14510001Y-20225001D01*
X14560633Y-20163306D01*
X14604974Y-20109277D01*
X14675546Y-19977247D01*
X14682679Y-19953731D01*
X14719003Y-19833986D01*
X14730000Y-19722333D01*
X14730000Y-19722323D01*
X14733676Y-19685000D01*
X14730000Y-19647677D01*
X14730000Y-8724042D01*
X16095000Y-8724042D01*
X16095000Y-9055958D01*
X16159754Y-9381496D01*
X16286772Y-9688147D01*
X16471175Y-9964125D01*
X16705875Y-10198825D01*
X16981853Y-10383228D01*
X17288504Y-10510246D01*
X17614042Y-10575000D01*
X17945958Y-10575000D01*
X18271496Y-10510246D01*
X18578147Y-10383228D01*
X18854125Y-10198825D01*
X19088825Y-9964125D01*
X19273228Y-9688147D01*
X19400246Y-9381496D01*
X19465000Y-9055958D01*
X19465000Y-8724042D01*
X19400246Y-8398504D01*
X19273228Y-8091853D01*
X19088825Y-7815875D01*
X18854125Y-7581175D01*
X18578147Y-7396772D01*
X18271496Y-7269754D01*
X17945958Y-7205000D01*
X17614042Y-7205000D01*
X17288504Y-7269754D01*
X16981853Y-7396772D01*
X16705875Y-7581175D01*
X16471175Y-7815875D01*
X16286772Y-8091853D01*
X16159754Y-8398504D01*
X16095000Y-8724042D01*
X14730000Y-8724042D01*
X14730000Y-3937114D01*
X14948889Y-4003513D01*
X15167050Y-4025000D01*
X15312950Y-4025000D01*
X15531111Y-4003513D01*
X15811034Y-3918599D01*
X16069014Y-3780706D01*
X16295134Y-3595134D01*
X16480706Y-3369014D01*
X16618599Y-3111034D01*
X16703513Y-2831111D01*
X16732185Y-2540000D01*
X16703513Y-2248889D01*
X16618599Y-1968966D01*
X16480706Y-1710986D01*
X16295134Y-1484866D01*
X16069014Y-1299294D01*
X16014209Y-1270000D01*
X16069014Y-1240706D01*
X16295134Y-1055134D01*
X16480706Y-829014D01*
X16618599Y-571034D01*
X16703513Y-291111D01*
X16732185Y0D01*
X16703513Y291111D01*
X16618599Y571034D01*
X16480706Y829014D01*
X16295134Y1055134D01*
X16069014Y1240706D01*
X15811034Y1378599D01*
X15531111Y1463513D01*
X15312950Y1485000D01*
X15167050Y1485000D01*
X14948889Y1463513D01*
X14730000Y1397114D01*
X14730000Y20282667D01*
X14733677Y20320000D01*
X14719003Y20468986D01*
X14675546Y20612247D01*
X14604974Y20744276D01*
X14533799Y20831003D01*
X14533798Y20831004D01*
X14510001Y20860001D01*
X14481002Y20883800D01*
X13898803Y21465998D01*
X13875001Y21495001D01*
X13759276Y21589974D01*
X13627247Y21660546D01*
X13592225Y21671170D01*
X13755134Y21804866D01*
X13940706Y22030986D01*
X13970000Y22085791D01*
X13999294Y22030986D01*
X14184866Y21804866D01*
X14410986Y21619294D01*
X14668966Y21481401D01*
X14948889Y21396487D01*
X15167050Y21375000D01*
X15312950Y21375000D01*
X15531111Y21396487D01*
X15811034Y21481401D01*
X16069014Y21619294D01*
X16110435Y21653288D01*
X18657893Y21653288D01*
X18765726Y21378662D01*
X19072384Y21227784D01*
X19402585Y21139631D01*
X19743639Y21117591D01*
X20082439Y21162511D01*
X20405966Y21272664D01*
X20604274Y21378662D01*
X20712107Y21653288D01*
X19685000Y22680395D01*
X18657893Y21653288D01*
X16110435Y21653288D01*
X16295134Y21804866D01*
X16480706Y22030986D01*
X16618599Y22288966D01*
X16703513Y22568889D01*
X16726409Y22801361D01*
X17942591Y22801361D01*
X17987511Y22462561D01*
X18097664Y22139034D01*
X18203662Y21940726D01*
X18478288Y21832893D01*
X19505395Y22860000D01*
X19864605Y22860000D01*
X20891712Y21832893D01*
X21166338Y21940726D01*
X21317216Y22247384D01*
X21405369Y22577585D01*
X21427409Y22918639D01*
X21382489Y23257439D01*
X21272336Y23580966D01*
X21166338Y23779274D01*
X20891712Y23887107D01*
X19864605Y22860000D01*
X19505395Y22860000D01*
X18478288Y23887107D01*
X18203662Y23779274D01*
X18052784Y23472616D01*
X17964631Y23142415D01*
X17942591Y22801361D01*
X16726409Y22801361D01*
X16732185Y22860000D01*
X16703513Y23151111D01*
X16618599Y23431034D01*
X16480706Y23689014D01*
X16295134Y23915134D01*
X16110436Y24066712D01*
X18657893Y24066712D01*
X19685000Y23039605D01*
X20712107Y24066712D01*
X20604274Y24341338D01*
X20297616Y24492216D01*
X19967415Y24580369D01*
X19626361Y24602409D01*
X19287561Y24557489D01*
X18964034Y24447336D01*
X18765726Y24341338D01*
X18657893Y24066712D01*
X16110436Y24066712D01*
X16069014Y24100706D01*
X15811034Y24238599D01*
X15531111Y24323513D01*
X15312950Y24345000D01*
X15167050Y24345000D01*
X14948889Y24323513D01*
X14668966Y24238599D01*
X14410986Y24100706D01*
X14184866Y23915134D01*
X13999294Y23689014D01*
X13970000Y23634209D01*
X13940706Y23689014D01*
X13755134Y23915134D01*
X13529014Y24100706D01*
X13271034Y24238599D01*
X12991111Y24323513D01*
X12772950Y24345000D01*
X12627050Y24345000D01*
X12408889Y24323513D01*
X12128966Y24238599D01*
X11870986Y24100706D01*
X11644866Y23915134D01*
X11459294Y23689014D01*
X11430000Y23634209D01*
X11400706Y23689014D01*
X11215134Y23915134D01*
X10989014Y24100706D01*
X10731034Y24238599D01*
X10451111Y24323513D01*
X10232950Y24345000D01*
X10087050Y24345000D01*
X9868889Y24323513D01*
X9588966Y24238599D01*
X9330986Y24100706D01*
X9104866Y23915134D01*
X8919294Y23689014D01*
X8890000Y23634209D01*
X8860706Y23689014D01*
X8675134Y23915134D01*
X8449014Y24100706D01*
X8191034Y24238599D01*
X7911111Y24323513D01*
X7692950Y24345000D01*
X7547050Y24345000D01*
X7328889Y24323513D01*
X7048966Y24238599D01*
X6790986Y24100706D01*
X6564866Y23915134D01*
X6379294Y23689014D01*
X6350000Y23634209D01*
X6320706Y23689014D01*
X6135134Y23915134D01*
X5909014Y24100706D01*
X5651034Y24238599D01*
X5371111Y24323513D01*
X5152950Y24345000D01*
X5007050Y24345000D01*
X4788889Y24323513D01*
X4508966Y24238599D01*
X4250986Y24100706D01*
X4024866Y23915134D01*
X3839294Y23689014D01*
X3810000Y23634209D01*
X3780706Y23689014D01*
X3595134Y23915134D01*
X3369014Y24100706D01*
X3111034Y24238599D01*
X2831111Y24323513D01*
X2612950Y24345000D01*
X2467050Y24345000D01*
X2248889Y24323513D01*
X1968966Y24238599D01*
X1710986Y24100706D01*
X1484866Y23915134D01*
X1299294Y23689014D01*
X1270000Y23634209D01*
X1240706Y23689014D01*
X1055134Y23915134D01*
X829014Y24100706D01*
X571034Y24238599D01*
X291111Y24323513D01*
X72950Y24345000D01*
X-72950Y24345000D01*
X-291111Y24323513D01*
X-571034Y24238599D01*
X-829014Y24100706D01*
X-1055134Y23915134D01*
X-1240706Y23689014D01*
X-1270000Y23634209D01*
X-1299294Y23689014D01*
X-1484866Y23915134D01*
X-1710986Y24100706D01*
X-1968966Y24238599D01*
X-2248889Y24323513D01*
X-2467050Y24345000D01*
X-2612950Y24345000D01*
X-2831111Y24323513D01*
X-3111034Y24238599D01*
X-3369014Y24100706D01*
X-3595134Y23915134D01*
X-3780706Y23689014D01*
X-3810000Y23634209D01*
X-3839294Y23689014D01*
X-4024866Y23915134D01*
X-4250986Y24100706D01*
X-4508966Y24238599D01*
X-4788889Y24323513D01*
X-5007050Y24345000D01*
X-5152950Y24345000D01*
X-5371111Y24323513D01*
X-5651034Y24238599D01*
X-5909014Y24100706D01*
X-6135134Y23915134D01*
X-6320706Y23689014D01*
X-6350000Y23634209D01*
X-6379294Y23689014D01*
X-6564866Y23915134D01*
X-6790986Y24100706D01*
X-7048966Y24238599D01*
X-7328889Y24323513D01*
X-7547050Y24345000D01*
X-7692950Y24345000D01*
X-7911111Y24323513D01*
X-8191034Y24238599D01*
X-8449014Y24100706D01*
X-8675134Y23915134D01*
X-8860706Y23689014D01*
X-8890000Y23634209D01*
X-8919294Y23689014D01*
X-9104866Y23915134D01*
X-9330986Y24100706D01*
X-9588966Y24238599D01*
X-9868889Y24323513D01*
X-10087050Y24345000D01*
X-10232950Y24345000D01*
X-10451111Y24323513D01*
X-10731034Y24238599D01*
X-10989014Y24100706D01*
X-11215134Y23915134D01*
X-11400706Y23689014D01*
X-11430000Y23634209D01*
X-11459294Y23689014D01*
X-11644866Y23915134D01*
X-11870986Y24100706D01*
X-12128966Y24238599D01*
X-12408889Y24323513D01*
X-12627050Y24345000D01*
X-12772950Y24345000D01*
X-12991111Y24323513D01*
X-13271034Y24238599D01*
X-13529014Y24100706D01*
X-13755134Y23915134D01*
X-13940706Y23689014D01*
X-13975201Y23624477D01*
X-14044822Y23741355D01*
X-14239731Y23957588D01*
X-14473080Y24131641D01*
X-14735901Y24256825D01*
X-14883110Y24301476D01*
X-15113000Y24180155D01*
X-15113000Y22987000D01*
X-15093000Y22987000D01*
X-15093000Y22733000D01*
X-15113000Y22733000D01*
X-15113000Y22713000D01*
X-15367000Y22713000D01*
X-15367000Y22733000D01*
X-15387000Y22733000D01*
X-15387000Y22987000D01*
X-15367000Y22987000D01*
X-15367000Y24180155D01*
X-15596890Y24301476D01*
X-15744099Y24256825D01*
X-16006920Y24131641D01*
X-16240269Y23957588D01*
X-16435178Y23741355D01*
X-16504799Y23624477D01*
X-16539294Y23689014D01*
X-16724866Y23915134D01*
X-16950986Y24100706D01*
X-17208966Y24238599D01*
X-17488889Y24323513D01*
X-17707050Y24345000D01*
X-17852950Y24345000D01*
X-18071111Y24323513D01*
X-18351034Y24238599D01*
X-18609014Y24100706D01*
X-18835134Y23915134D01*
X-19020706Y23689014D01*
X-19050000Y23634209D01*
X-19079294Y23689014D01*
X-19264866Y23915134D01*
X-19490986Y24100706D01*
X-19748966Y24238599D01*
X-20028889Y24323513D01*
X-20247050Y24345000D01*
X-20392950Y24345000D01*
X-20611111Y24323513D01*
X-20891034Y24238599D01*
X-21149014Y24100706D01*
X-21375134Y23915134D01*
X-21560706Y23689014D01*
X-21590000Y23634209D01*
X-21619294Y23689014D01*
X-21804866Y23915134D01*
X-22030986Y24100706D01*
X-22288966Y24238599D01*
X-22568889Y24323513D01*
X-22787050Y24345000D01*
X-22932950Y24345000D01*
X-23151111Y24323513D01*
X-23431034Y24238599D01*
X-23689014Y24100706D01*
X-23915134Y23915134D01*
X-24100706Y23689014D01*
X-24130000Y23634209D01*
X-24159294Y23689014D01*
X-24344866Y23915134D01*
X-24570986Y24100706D01*
X-24828966Y24238599D01*
X-25108889Y24323513D01*
X-25327050Y24345000D01*
X-25472950Y24345000D01*
X-25691111Y24323513D01*
X-25971034Y24238599D01*
X-26229014Y24100706D01*
X-26455134Y23915134D01*
X-26640706Y23689014D01*
X-26670000Y23634209D01*
X-26699294Y23689014D01*
X-26884866Y23915134D01*
X-27110986Y24100706D01*
X-27368966Y24238599D01*
X-27648889Y24323513D01*
X-27867050Y24345000D01*
X-28012950Y24345000D01*
X-28231111Y24323513D01*
X-28511034Y24238599D01*
X-28769014Y24100706D01*
X-28995134Y23915134D01*
X-29180706Y23689014D01*
X-29215201Y23624477D01*
X-29284822Y23741355D01*
X-29479731Y23957588D01*
X-29713080Y24131641D01*
X-29975901Y24256825D01*
X-30123110Y24301476D01*
X-30353000Y24180155D01*
X-30607000Y24180155D01*
X-30836890Y24301476D01*
X-30984099Y24256825D01*
X-31246920Y24131641D01*
X-31480269Y23957588D01*
X-31675178Y23741355D01*
X-31824157Y23491252D01*
X-31921481Y23216891D01*
X-40207134Y23216891D01*
X-40212511Y23257439D01*
X-40322664Y23580966D01*
X-40428662Y23779274D01*
X-40703288Y23887107D01*
X-41730395Y22860000D01*
X-42089605Y22860000D01*
X-43116712Y23887107D01*
X-43391338Y23779274D01*
X-43542216Y23472616D01*
X-43630369Y23142415D01*
X-43652409Y22801361D01*
X-43790000Y22801361D01*
X-43790000Y24066712D01*
X-42937107Y24066712D01*
X-41910000Y23039605D01*
X-40882893Y24066712D01*
X-40990726Y24341338D01*
X-41297384Y24492216D01*
X-41627585Y24580369D01*
X-41968639Y24602409D01*
X-42307439Y24557489D01*
X-42630966Y24447336D01*
X-42829274Y24341338D01*
X-42937107Y24066712D01*
X-43790000Y24066712D01*
X-43790000Y24740000D01*
X21565000Y24740000D01*
X21565000Y24097582D01*
X21565000Y24097582D01*
G37*
X21565000Y24097582D02*
X21565001Y24097572D01*
X21565000Y-33630000D01*
X-43790000Y-33630000D01*
X-43790000Y-32956712D01*
X-42937107Y-32956712D01*
X-42829274Y-33231338D01*
X-42522616Y-33382216D01*
X-42192415Y-33470369D01*
X-41851361Y-33492409D01*
X-41512561Y-33447489D01*
X-41189034Y-33337336D01*
X-40990726Y-33231338D01*
X-40882893Y-32956712D01*
X18657893Y-32956712D01*
X18765726Y-33231338D01*
X19072384Y-33382216D01*
X19402585Y-33470369D01*
X19743639Y-33492409D01*
X20082439Y-33447489D01*
X20405966Y-33337336D01*
X20604274Y-33231338D01*
X20712107Y-32956712D01*
X19685000Y-31929605D01*
X18657893Y-32956712D01*
X-40882893Y-32956712D01*
X-41910000Y-31929605D01*
X-42937107Y-32956712D01*
X-43790000Y-32956712D01*
X-43790000Y-31808639D01*
X-43652409Y-31808639D01*
X-43607489Y-32147439D01*
X-43497336Y-32470966D01*
X-43391338Y-32669274D01*
X-43116712Y-32777107D01*
X-42089605Y-31750000D01*
X-41730395Y-31750000D01*
X-40703288Y-32777107D01*
X-40428662Y-32669274D01*
X-40277784Y-32362616D01*
X-40189631Y-32032415D01*
X-40167591Y-31691361D01*
X-40212511Y-31352561D01*
X-40322664Y-31029034D01*
X-40428662Y-30830726D01*
X-40703288Y-30722893D01*
X-41730395Y-31750000D01*
X-42089605Y-31750000D01*
X-43116712Y-30722893D01*
X-43391338Y-30830726D01*
X-43542216Y-31137384D01*
X-43630369Y-31467585D01*
X-43652409Y-31808639D01*
X-43790000Y-31808639D01*
X-43790000Y-30543288D01*
X-42937107Y-30543288D01*
X-41910000Y-31570395D01*
X-40882893Y-30543288D01*
X-40990726Y-30268662D01*
X-40998168Y-30265000D01*
X-27523072Y-30265000D01*
X-27523072Y-31965000D01*
X-27510812Y-32089482D01*
X-27474502Y-32209180D01*
X-27415537Y-32319494D01*
X-27336185Y-32416185D01*
X-27239494Y-32495537D01*
X-27129180Y-32554502D01*
X-27009482Y-32590812D01*
X-26885000Y-32603072D01*
X-25185000Y-32603072D01*
X-25060518Y-32590812D01*
X-24940820Y-32554502D01*
X-24830506Y-32495537D01*
X-24733815Y-32416185D01*
X-24654463Y-32319494D01*
X-24595498Y-32209180D01*
X-24574607Y-32140313D01*
X-24550134Y-32170134D01*
X-24324014Y-32355706D01*
X-24066034Y-32493599D01*
X-23786111Y-32578513D01*
X-23567950Y-32600000D01*
X-23422050Y-32600000D01*
X-23203889Y-32578513D01*
X-22923966Y-32493599D01*
X-22665986Y-32355706D01*
X-22439866Y-32170134D01*
X-22254294Y-31944014D01*
X-22225000Y-31889209D01*
X-22195706Y-31944014D01*
X-22010134Y-32170134D01*
X-21784014Y-32355706D01*
X-21526034Y-32493599D01*
X-21246111Y-32578513D01*
X-21027950Y-32600000D01*
X-20882050Y-32600000D01*
X-20663889Y-32578513D01*
X-20383966Y-32493599D01*
X-20125986Y-32355706D01*
X-19899866Y-32170134D01*
X-19714294Y-31944014D01*
X-19685000Y-31889209D01*
X-19655706Y-31944014D01*
X-19470134Y-32170134D01*
X-19244014Y-32355706D01*
X-18986034Y-32493599D01*
X-18706111Y-32578513D01*
X-18487950Y-32600000D01*
X-18342050Y-32600000D01*
X-18123889Y-32578513D01*
X-17843966Y-32493599D01*
X-17585986Y-32355706D01*
X-17359866Y-32170134D01*
X-17174294Y-31944014D01*
X-17036401Y-31686034D01*
X-16951487Y-31406111D01*
X-16922815Y-31115000D01*
X-16951487Y-30823889D01*
X-17036401Y-30543966D01*
X-17174294Y-30285986D01*
X-17191516Y-30265000D01*
X-11648072Y-30265000D01*
X-11648072Y-31965000D01*
X-11635812Y-32089482D01*
X-11599502Y-32209180D01*
X-11540537Y-32319494D01*
X-11461185Y-32416185D01*
X-11364494Y-32495537D01*
X-11254180Y-32554502D01*
X-11134482Y-32590812D01*
X-11010000Y-32603072D01*
X-9310000Y-32603072D01*
X-9185518Y-32590812D01*
X-9065820Y-32554502D01*
X-8955506Y-32495537D01*
X-8858815Y-32416185D01*
X-8779463Y-32319494D01*
X-8720498Y-32209180D01*
X-8699607Y-32140313D01*
X-8675134Y-32170134D01*
X-8449014Y-32355706D01*
X-8191034Y-32493599D01*
X-7911111Y-32578513D01*
X-7692950Y-32600000D01*
X-7547050Y-32600000D01*
X-7328889Y-32578513D01*
X-7048966Y-32493599D01*
X-6790986Y-32355706D01*
X-6564866Y-32170134D01*
X-6379294Y-31944014D01*
X-6350000Y-31889209D01*
X-6320706Y-31944014D01*
X-6135134Y-32170134D01*
X-5909014Y-32355706D01*
X-5651034Y-32493599D01*
X-5371111Y-32578513D01*
X-5152950Y-32600000D01*
X-5007050Y-32600000D01*
X-4788889Y-32578513D01*
X-4508966Y-32493599D01*
X-4250986Y-32355706D01*
X-4024866Y-32170134D01*
X-3839294Y-31944014D01*
X-3810000Y-31889209D01*
X-3780706Y-31944014D01*
X-3595134Y-32170134D01*
X-3369014Y-32355706D01*
X-3111034Y-32493599D01*
X-2831111Y-32578513D01*
X-2612950Y-32600000D01*
X-2467050Y-32600000D01*
X-2248889Y-32578513D01*
X-1968966Y-32493599D01*
X-1710986Y-32355706D01*
X-1484866Y-32170134D01*
X-1299294Y-31944014D01*
X-1161401Y-31686034D01*
X-1076487Y-31406111D01*
X-1047815Y-31115000D01*
X-1076487Y-30823889D01*
X-1161401Y-30543966D01*
X-1299294Y-30285986D01*
X-1484866Y-30059866D01*
X-1587500Y-29975636D01*
X-1587500Y-28969538D01*
X-1288818Y-28670857D01*
X-1271641Y-28706920D01*
X-1097588Y-28940269D01*
X-881355Y-29135178D01*
X-631252Y-29284157D01*
X-356891Y-29381481D01*
X-127000Y-29260814D01*
X-127000Y-28067000D01*
X127000Y-28067000D01*
X127000Y-29260814D01*
X356891Y-29381481D01*
X631252Y-29284157D01*
X881355Y-29135178D01*
X1097588Y-28940269D01*
X1271641Y-28706920D01*
X1396825Y-28444099D01*
X1441476Y-28296890D01*
X1320155Y-28067000D01*
X127000Y-28067000D01*
X-127000Y-28067000D01*
X-147000Y-28067000D01*
X-147000Y-27813000D01*
X-127000Y-27813000D01*
X-127000Y-27793000D01*
X127000Y-27793000D01*
X127000Y-27813000D01*
X1320155Y-27813000D01*
X1441476Y-27583110D01*
X1396825Y-27435901D01*
X1271641Y-27173080D01*
X1097588Y-26939731D01*
X881355Y-26744822D01*
X764477Y-26675201D01*
X829014Y-26640706D01*
X1055134Y-26455134D01*
X1240706Y-26229014D01*
X1378599Y-25971034D01*
X1463513Y-25691111D01*
X1492185Y-25400000D01*
X1463513Y-25108889D01*
X1378599Y-24828966D01*
X1240706Y-24570986D01*
X1055134Y-24344866D01*
X829014Y-24159294D01*
X774209Y-24130000D01*
X829014Y-24100706D01*
X1055134Y-23915134D01*
X1240706Y-23689014D01*
X1378599Y-23431034D01*
X1463513Y-23151111D01*
X1492185Y-22860000D01*
X1463513Y-22568889D01*
X1378599Y-22288966D01*
X1240706Y-22030986D01*
X1055134Y-21804866D01*
X829014Y-21619294D01*
X774209Y-21590000D01*
X829014Y-21560706D01*
X1055134Y-21375134D01*
X1240706Y-21149014D01*
X1378599Y-20891034D01*
X1463513Y-20611111D01*
X1492185Y-20320000D01*
X1463513Y-20028889D01*
X1378599Y-19748966D01*
X1240706Y-19490986D01*
X1055134Y-19264866D01*
X829014Y-19079294D01*
X774209Y-19050000D01*
X829014Y-19020706D01*
X1055134Y-18835134D01*
X1240706Y-18609014D01*
X1378599Y-18351034D01*
X1463513Y-18071111D01*
X1492185Y-17780000D01*
X1463513Y-17488889D01*
X1378599Y-17208966D01*
X1240706Y-16950986D01*
X1055134Y-16724866D01*
X829014Y-16539294D01*
X774209Y-16510000D01*
X829014Y-16480706D01*
X1055134Y-16295134D01*
X1240706Y-16069014D01*
X1378599Y-15811034D01*
X1463513Y-15531111D01*
X1492185Y-15240000D01*
X1463513Y-14948889D01*
X1378599Y-14668966D01*
X1240706Y-14410986D01*
X1055134Y-14184866D01*
X829014Y-13999294D01*
X764477Y-13964799D01*
X881355Y-13895178D01*
X1097588Y-13700269D01*
X1271641Y-13466920D01*
X1396825Y-13204099D01*
X1441476Y-13056890D01*
X1320155Y-12827000D01*
X127000Y-12827000D01*
X127000Y-12847000D01*
X-127000Y-12847000D01*
X-127000Y-12827000D01*
X-1320155Y-12827000D01*
X-1441476Y-13056890D01*
X-1396825Y-13204099D01*
X-1271641Y-13466920D01*
X-1097588Y-13700269D01*
X-881355Y-13895178D01*
X-764477Y-13964799D01*
X-829014Y-13999294D01*
X-1055134Y-14184866D01*
X-1240706Y-14410986D01*
X-1378599Y-14668966D01*
X-1463513Y-14948889D01*
X-1492185Y-15240000D01*
X-1479171Y-15372133D01*
X-5212431Y-19105393D01*
X-5248778Y-19135222D01*
X-5367806Y-19280259D01*
X-5456252Y-19445732D01*
X-5510717Y-19625277D01*
X-5510717Y-19625278D01*
X-5529108Y-19812000D01*
X-5524500Y-19858785D01*
X-5524499Y-25132461D01*
X-10018966Y-29626928D01*
X-11010000Y-29626928D01*
X-11134482Y-29639188D01*
X-11254180Y-29675498D01*
X-11364494Y-29734463D01*
X-11461185Y-29813815D01*
X-11540537Y-29910506D01*
X-11599502Y-30020820D01*
X-11635812Y-30140518D01*
X-11648072Y-30265000D01*
X-17191516Y-30265000D01*
X-17359866Y-30059866D01*
X-17462500Y-29975636D01*
X-17462500Y-28969538D01*
X-17163818Y-28670857D01*
X-17146641Y-28706920D01*
X-16972588Y-28940269D01*
X-16756355Y-29135178D01*
X-16506252Y-29284157D01*
X-16231891Y-29381481D01*
X-16002000Y-29260814D01*
X-16002000Y-28067000D01*
X-15748000Y-28067000D01*
X-15748000Y-29260814D01*
X-15518109Y-29381481D01*
X-15243748Y-29284157D01*
X-14993645Y-29135178D01*
X-14777412Y-28940269D01*
X-14603359Y-28706920D01*
X-14478175Y-28444099D01*
X-14433524Y-28296890D01*
X-14554845Y-28067000D01*
X-15748000Y-28067000D01*
X-16002000Y-28067000D01*
X-16022000Y-28067000D01*
X-16022000Y-27813000D01*
X-16002000Y-27813000D01*
X-16002000Y-27793000D01*
X-15748000Y-27793000D01*
X-15748000Y-27813000D01*
X-14554845Y-27813000D01*
X-14433524Y-27583110D01*
X-14478175Y-27435901D01*
X-14603359Y-27173080D01*
X-14777412Y-26939731D01*
X-14993645Y-26744822D01*
X-15110523Y-26675201D01*
X-15045986Y-26640706D01*
X-14819866Y-26455134D01*
X-14634294Y-26229014D01*
X-14496401Y-25971034D01*
X-14411487Y-25691111D01*
X-14382815Y-25400000D01*
X-14411487Y-25108889D01*
X-14496401Y-24828966D01*
X-14634294Y-24570986D01*
X-14819866Y-24344866D01*
X-15045986Y-24159294D01*
X-15100791Y-24130000D01*
X-15045986Y-24100706D01*
X-14819866Y-23915134D01*
X-14634294Y-23689014D01*
X-14496401Y-23431034D01*
X-14411487Y-23151111D01*
X-14382815Y-22860000D01*
X-14411487Y-22568889D01*
X-14496401Y-22288966D01*
X-14634294Y-22030986D01*
X-14819866Y-21804866D01*
X-15045986Y-21619294D01*
X-15100791Y-21590000D01*
X-15045986Y-21560706D01*
X-14819866Y-21375134D01*
X-14634294Y-21149014D01*
X-14496401Y-20891034D01*
X-14411487Y-20611111D01*
X-14382815Y-20320000D01*
X-14411487Y-20028889D01*
X-14496401Y-19748966D01*
X-14634294Y-19490986D01*
X-14819866Y-19264866D01*
X-15045986Y-19079294D01*
X-15100791Y-19050000D01*
X-15045986Y-19020706D01*
X-14819866Y-18835134D01*
X-14634294Y-18609014D01*
X-14496401Y-18351034D01*
X-14411487Y-18071111D01*
X-14382815Y-17780000D01*
X-14411487Y-17488889D01*
X-14496401Y-17208966D01*
X-14634294Y-16950986D01*
X-14819866Y-16724866D01*
X-15045986Y-16539294D01*
X-15100791Y-16510000D01*
X-15045986Y-16480706D01*
X-14819866Y-16295134D01*
X-14634294Y-16069014D01*
X-14496401Y-15811034D01*
X-14411487Y-15531111D01*
X-14382815Y-15240000D01*
X-14411487Y-14948889D01*
X-14496401Y-14668966D01*
X-14634294Y-14410986D01*
X-14819866Y-14184866D01*
X-15045986Y-13999294D01*
X-15110523Y-13964799D01*
X-14993645Y-13895178D01*
X-14777412Y-13700269D01*
X-14603359Y-13466920D01*
X-14478175Y-13204099D01*
X-14433524Y-13056890D01*
X-14554845Y-12827000D01*
X-15748000Y-12827000D01*
X-15748000Y-12847000D01*
X-16002000Y-12847000D01*
X-16002000Y-12827000D01*
X-17195155Y-12827000D01*
X-17316476Y-13056890D01*
X-17271825Y-13204099D01*
X-17146641Y-13466920D01*
X-16972588Y-13700269D01*
X-16756355Y-13895178D01*
X-16639477Y-13964799D01*
X-16704014Y-13999294D01*
X-16930134Y-14184866D01*
X-17115706Y-14410986D01*
X-17253599Y-14668966D01*
X-17338513Y-14948889D01*
X-17348355Y-15048817D01*
X-20960435Y-18660897D01*
X-20996777Y-18690722D01*
X-21026601Y-18727063D01*
X-21115806Y-18835760D01*
X-21204251Y-19001231D01*
X-21258717Y-19180778D01*
X-21277108Y-19367500D01*
X-21272499Y-19414295D01*
X-21272500Y-25005462D01*
X-25893966Y-29626928D01*
X-26885000Y-29626928D01*
X-27009482Y-29639188D01*
X-27129180Y-29675498D01*
X-27239494Y-29734463D01*
X-27336185Y-29813815D01*
X-27415537Y-29910506D01*
X-27474502Y-30020820D01*
X-27510812Y-30140518D01*
X-27523072Y-30265000D01*
X-40998168Y-30265000D01*
X-41297384Y-30117784D01*
X-41627585Y-30029631D01*
X-41968639Y-30007591D01*
X-42307439Y-30052511D01*
X-42630966Y-30162664D01*
X-42829274Y-30268662D01*
X-42937107Y-30543288D01*
X-43790000Y-30543288D01*
X-43790000Y-27026891D01*
X-40811481Y-27026891D01*
X-40714157Y-27301252D01*
X-40565178Y-27551355D01*
X-40370269Y-27767588D01*
X-40136920Y-27941641D01*
X-39874099Y-28066825D01*
X-39726890Y-28111476D01*
X-39497000Y-27990155D01*
X-39497000Y-26797000D01*
X-39243000Y-26797000D01*
X-39243000Y-27990155D01*
X-39013110Y-28111476D01*
X-38865901Y-28066825D01*
X-38603080Y-27941641D01*
X-38369731Y-27767588D01*
X-38174822Y-27551355D01*
X-38025843Y-27301252D01*
X-37928519Y-27026891D01*
X-38049186Y-26797000D01*
X-39243000Y-26797000D01*
X-39497000Y-26797000D01*
X-40690814Y-26797000D01*
X-40811481Y-27026891D01*
X-43790000Y-27026891D01*
X-43790000Y-26313109D01*
X-40811481Y-26313109D01*
X-40690814Y-26543000D01*
X-39497000Y-26543000D01*
X-39497000Y-25349845D01*
X-39243000Y-25349845D01*
X-39243000Y-26543000D01*
X-38049186Y-26543000D01*
X-37928519Y-26313109D01*
X-38025843Y-26038748D01*
X-38174822Y-25788645D01*
X-38369731Y-25572412D01*
X-38603080Y-25398359D01*
X-38865901Y-25273175D01*
X-39013110Y-25228524D01*
X-39243000Y-25349845D01*
X-39497000Y-25349845D01*
X-39726890Y-25228524D01*
X-39874099Y-25273175D01*
X-40136920Y-25398359D01*
X-40370269Y-25572412D01*
X-40565178Y-25788645D01*
X-40714157Y-26038748D01*
X-40811481Y-26313109D01*
X-43790000Y-26313109D01*
X-43790000Y-20740000D01*
X-40858072Y-20740000D01*
X-40858072Y-22440000D01*
X-40845812Y-22564482D01*
X-40809502Y-22684180D01*
X-40750537Y-22794494D01*
X-40671185Y-22891185D01*
X-40574494Y-22970537D01*
X-40464180Y-23029502D01*
X-40344482Y-23065812D01*
X-40220000Y-23078072D01*
X-38520000Y-23078072D01*
X-38395518Y-23065812D01*
X-38275820Y-23029502D01*
X-38165506Y-22970537D01*
X-38068815Y-22891185D01*
X-37989463Y-22794494D01*
X-37930498Y-22684180D01*
X-37894188Y-22564482D01*
X-37881928Y-22440000D01*
X-37881928Y-20740000D01*
X-37894188Y-20615518D01*
X-37930498Y-20495820D01*
X-37989463Y-20385506D01*
X-38068815Y-20288815D01*
X-38165506Y-20209463D01*
X-38275820Y-20150498D01*
X-38395518Y-20114188D01*
X-38520000Y-20101928D01*
X-40220000Y-20101928D01*
X-40344482Y-20114188D01*
X-40464180Y-20150498D01*
X-40574494Y-20209463D01*
X-40671185Y-20288815D01*
X-40750537Y-20385506D01*
X-40809502Y-20495820D01*
X-40845812Y-20615518D01*
X-40858072Y-20740000D01*
X-43790000Y-20740000D01*
X-43790000Y-270000D01*
X-42230572Y-270000D01*
X-42230572Y-2270000D01*
X-42218312Y-2394482D01*
X-42182002Y-2514180D01*
X-42123037Y-2624494D01*
X-42043685Y-2721185D01*
X-41946994Y-2800537D01*
X-41910000Y-2820311D01*
X-41909999Y-6287610D01*
X-41910000Y-6287620D01*
X-41910000Y-6541620D01*
X-41916144Y-6604000D01*
X-41909999Y-6666389D01*
X-41910000Y-8192627D01*
X-41916143Y-8255000D01*
X-41910000Y-8317373D01*
X-41910000Y-8317379D01*
X-41902216Y-8396409D01*
X-41891623Y-8503963D01*
X-41884198Y-8528438D01*
X-41819003Y-8743358D01*
X-41701075Y-8963987D01*
X-41542370Y-9157370D01*
X-41493909Y-9197141D01*
X-40947137Y-9743914D01*
X-40907370Y-9792370D01*
X-40713988Y-9951075D01*
X-40552205Y-10037549D01*
X-40574494Y-10049463D01*
X-40671185Y-10128815D01*
X-40750537Y-10225506D01*
X-40809502Y-10335820D01*
X-40845812Y-10455518D01*
X-40858072Y-10580000D01*
X-40858072Y-12280000D01*
X-40845812Y-12404482D01*
X-40809502Y-12524180D01*
X-40750537Y-12634494D01*
X-40671185Y-12731185D01*
X-40574494Y-12810537D01*
X-40464180Y-12869502D01*
X-40344482Y-12905812D01*
X-40220000Y-12918072D01*
X-38520000Y-12918072D01*
X-38395518Y-12905812D01*
X-38275820Y-12869502D01*
X-38165506Y-12810537D01*
X-38068815Y-12731185D01*
X-37989463Y-12634494D01*
X-37930498Y-12524180D01*
X-37894188Y-12404482D01*
X-37881928Y-12280000D01*
X-37881928Y-11539123D01*
X-37038551Y-12382500D01*
X-39720576Y-15064525D01*
X-39941034Y-15131401D01*
X-40199014Y-15269294D01*
X-40425134Y-15454866D01*
X-40610706Y-15680986D01*
X-40748599Y-15938966D01*
X-40833513Y-16218889D01*
X-40862185Y-16510000D01*
X-40833513Y-16801111D01*
X-40748599Y-17081034D01*
X-40610706Y-17339014D01*
X-40425134Y-17565134D01*
X-40199014Y-17750706D01*
X-39941034Y-17888599D01*
X-39661111Y-17973513D01*
X-39442950Y-17995000D01*
X-39297050Y-17995000D01*
X-39078889Y-17973513D01*
X-38798966Y-17888599D01*
X-38540986Y-17750706D01*
X-38314866Y-17565134D01*
X-38129294Y-17339014D01*
X-37991401Y-17081034D01*
X-37924525Y-16860576D01*
X-34071086Y-13007137D01*
X-34022630Y-12967370D01*
X-33982859Y-12918909D01*
X-29318948Y-8255000D01*
X-27705000Y-8255000D01*
X-27705000Y-8356939D01*
X-27665226Y-8556898D01*
X-27587205Y-8745256D01*
X-27580385Y-8755463D01*
X-27650518Y-8734188D01*
X-27775000Y-8721928D01*
X-29375000Y-8721928D01*
X-29499482Y-8734188D01*
X-29619180Y-8770498D01*
X-29729494Y-8829463D01*
X-29826185Y-8908815D01*
X-29905537Y-9005506D01*
X-29964502Y-9115820D01*
X-30000812Y-9235518D01*
X-30013072Y-9360000D01*
X-30013072Y-10960000D01*
X-30000812Y-11084482D01*
X-29964502Y-11204180D01*
X-29905537Y-11314494D01*
X-29826185Y-11411185D01*
X-29729494Y-11490537D01*
X-29619180Y-11549502D01*
X-29542336Y-11572812D01*
X-29630134Y-11644866D01*
X-29815706Y-11870986D01*
X-29953599Y-12128966D01*
X-30038513Y-12408889D01*
X-30067185Y-12700000D01*
X-30038513Y-12991111D01*
X-29953599Y-13271034D01*
X-29815706Y-13529014D01*
X-29630134Y-13755134D01*
X-29404014Y-13940706D01*
X-29349209Y-13970000D01*
X-29404014Y-13999294D01*
X-29630134Y-14184866D01*
X-29815706Y-14410986D01*
X-29953599Y-14668966D01*
X-30038513Y-14948889D01*
X-30067185Y-15240000D01*
X-30038513Y-15531111D01*
X-29953599Y-15811034D01*
X-29815706Y-16069014D01*
X-29630134Y-16295134D01*
X-29404014Y-16480706D01*
X-29349209Y-16510000D01*
X-29404014Y-16539294D01*
X-29630134Y-16724866D01*
X-29815706Y-16950986D01*
X-29953599Y-17208966D01*
X-30038513Y-17488889D01*
X-30067185Y-17780000D01*
X-30038513Y-18071111D01*
X-29953599Y-18351034D01*
X-29815706Y-18609014D01*
X-29630134Y-18835134D01*
X-29404014Y-19020706D01*
X-29349209Y-19050000D01*
X-29404014Y-19079294D01*
X-29630134Y-19264866D01*
X-29815706Y-19490986D01*
X-29953599Y-19748966D01*
X-30038513Y-20028889D01*
X-30067185Y-20320000D01*
X-30038513Y-20611111D01*
X-29953599Y-20891034D01*
X-29815706Y-21149014D01*
X-29630134Y-21375134D01*
X-29404014Y-21560706D01*
X-29349209Y-21590000D01*
X-29404014Y-21619294D01*
X-29630134Y-21804866D01*
X-29815706Y-22030986D01*
X-29953599Y-22288966D01*
X-30038513Y-22568889D01*
X-30067185Y-22860000D01*
X-30038513Y-23151111D01*
X-29953599Y-23431034D01*
X-29815706Y-23689014D01*
X-29630134Y-23915134D01*
X-29404014Y-24100706D01*
X-29349209Y-24130000D01*
X-29404014Y-24159294D01*
X-29630134Y-24344866D01*
X-29815706Y-24570986D01*
X-29953599Y-24828966D01*
X-30038513Y-25108889D01*
X-30067185Y-25400000D01*
X-30038513Y-25691111D01*
X-29953599Y-25971034D01*
X-29815706Y-26229014D01*
X-29630134Y-26455134D01*
X-29404014Y-26640706D01*
X-29349209Y-26670000D01*
X-29404014Y-26699294D01*
X-29630134Y-26884866D01*
X-29815706Y-27110986D01*
X-29953599Y-27368966D01*
X-30038513Y-27648889D01*
X-30067185Y-27940000D01*
X-30038513Y-28231111D01*
X-29953599Y-28511034D01*
X-29815706Y-28769014D01*
X-29630134Y-28995134D01*
X-29404014Y-29180706D01*
X-29146034Y-29318599D01*
X-28866111Y-29403513D01*
X-28647950Y-29425000D01*
X-28502050Y-29425000D01*
X-28283889Y-29403513D01*
X-28003966Y-29318599D01*
X-27745986Y-29180706D01*
X-27519866Y-28995134D01*
X-27334294Y-28769014D01*
X-27196401Y-28511034D01*
X-27111487Y-28231111D01*
X-27082815Y-27940000D01*
X-27111487Y-27648889D01*
X-27134203Y-27574004D01*
X-22348997Y-22788799D01*
X-22319999Y-22765001D01*
X-22225026Y-22649276D01*
X-22154454Y-22517247D01*
X-22110997Y-22373986D01*
X-22100000Y-22262333D01*
X-22100000Y-22262332D01*
X-22096323Y-22225000D01*
X-22100000Y-22187667D01*
X-22100000Y-10018665D01*
X-21120000Y-10018665D01*
X-21120000Y-10301335D01*
X-21064853Y-10578574D01*
X-20956680Y-10839727D01*
X-20799637Y-11074759D01*
X-20599759Y-11274637D01*
X-20364727Y-11431680D01*
X-20103574Y-11539853D01*
X-19826335Y-11595000D01*
X-19543665Y-11595000D01*
X-19266426Y-11539853D01*
X-19005273Y-11431680D01*
X-18770241Y-11274637D01*
X-18570363Y-11074759D01*
X-18413320Y-10839727D01*
X-18305147Y-10578574D01*
X-18250000Y-10301335D01*
X-18250000Y-10018665D01*
X-18305147Y-9741426D01*
X-18413320Y-9480273D01*
X-18570363Y-9245241D01*
X-18770241Y-9045363D01*
X-19005273Y-8888320D01*
X-19266426Y-8780147D01*
X-19543665Y-8725000D01*
X-19826335Y-8725000D01*
X-20103574Y-8780147D01*
X-20364727Y-8888320D01*
X-20599759Y-9045363D01*
X-20799637Y-9245241D01*
X-20956680Y-9480273D01*
X-21064853Y-9741426D01*
X-21120000Y-10018665D01*
X-22100000Y-10018665D01*
X-22100000Y-8958711D01*
X-22056063Y-8914774D01*
X-21942795Y-8745256D01*
X-21864774Y-8556898D01*
X-21825000Y-8356939D01*
X-21825000Y-8255000D01*
X-18941050Y-8255000D01*
X-17335871Y-9860180D01*
X-17338513Y-9868889D01*
X-17367185Y-10160000D01*
X-17338513Y-10451111D01*
X-17253599Y-10731034D01*
X-17115706Y-10989014D01*
X-16930134Y-11215134D01*
X-16704014Y-11400706D01*
X-16639477Y-11435201D01*
X-16756355Y-11504822D01*
X-16972588Y-11699731D01*
X-17146641Y-11933080D01*
X-17271825Y-12195901D01*
X-17316476Y-12343110D01*
X-17195155Y-12573000D01*
X-16002000Y-12573000D01*
X-16002000Y-12553000D01*
X-15748000Y-12553000D01*
X-15748000Y-12573000D01*
X-14554845Y-12573000D01*
X-14433524Y-12343110D01*
X-14478175Y-12195901D01*
X-14603359Y-11933080D01*
X-14777412Y-11699731D01*
X-14993645Y-11504822D01*
X-15110523Y-11435201D01*
X-15045986Y-11400706D01*
X-14819866Y-11215134D01*
X-14634294Y-10989014D01*
X-14496401Y-10731034D01*
X-14411487Y-10451111D01*
X-14382815Y-10160000D01*
X-14411487Y-9868889D01*
X-14496401Y-9588966D01*
X-14614276Y-9368436D01*
X-14623377Y-9276037D01*
X-14631206Y-9250226D01*
X-14664958Y-9138963D01*
X-14695997Y-9036641D01*
X-14813925Y-8816012D01*
X-14972630Y-8622630D01*
X-15021085Y-8582864D01*
X-15348949Y-8255000D01*
X-11830000Y-8255000D01*
X-11830000Y-8356939D01*
X-11790226Y-8556898D01*
X-11712205Y-8745256D01*
X-11705385Y-8755463D01*
X-11775518Y-8734188D01*
X-11900000Y-8721928D01*
X-13500000Y-8721928D01*
X-13624482Y-8734188D01*
X-13744180Y-8770498D01*
X-13854494Y-8829463D01*
X-13951185Y-8908815D01*
X-14030537Y-9005506D01*
X-14089502Y-9115820D01*
X-14125812Y-9235518D01*
X-14138072Y-9360000D01*
X-14138072Y-10960000D01*
X-14125812Y-11084482D01*
X-14089502Y-11204180D01*
X-14030537Y-11314494D01*
X-13951185Y-11411185D01*
X-13854494Y-11490537D01*
X-13744180Y-11549502D01*
X-13667336Y-11572812D01*
X-13755134Y-11644866D01*
X-13940706Y-11870986D01*
X-14078599Y-12128966D01*
X-14163513Y-12408889D01*
X-14192185Y-12700000D01*
X-14163513Y-12991111D01*
X-14078599Y-13271034D01*
X-13940706Y-13529014D01*
X-13755134Y-13755134D01*
X-13529014Y-13940706D01*
X-13474209Y-13970000D01*
X-13529014Y-13999294D01*
X-13755134Y-14184866D01*
X-13940706Y-14410986D01*
X-14078599Y-14668966D01*
X-14163513Y-14948889D01*
X-14192185Y-15240000D01*
X-14163513Y-15531111D01*
X-14078599Y-15811034D01*
X-13940706Y-16069014D01*
X-13755134Y-16295134D01*
X-13529014Y-16480706D01*
X-13474209Y-16510000D01*
X-13529014Y-16539294D01*
X-13755134Y-16724866D01*
X-13940706Y-16950986D01*
X-14078599Y-17208966D01*
X-14163513Y-17488889D01*
X-14192185Y-17780000D01*
X-14163513Y-18071111D01*
X-14078599Y-18351034D01*
X-13940706Y-18609014D01*
X-13755134Y-18835134D01*
X-13529014Y-19020706D01*
X-13474209Y-19050000D01*
X-13529014Y-19079294D01*
X-13755134Y-19264866D01*
X-13940706Y-19490986D01*
X-14078599Y-19748966D01*
X-14163513Y-20028889D01*
X-14192185Y-20320000D01*
X-14163513Y-20611111D01*
X-14078599Y-20891034D01*
X-13940706Y-21149014D01*
X-13755134Y-21375134D01*
X-13529014Y-21560706D01*
X-13474209Y-21590000D01*
X-13529014Y-21619294D01*
X-13755134Y-21804866D01*
X-13940706Y-22030986D01*
X-14078599Y-22288966D01*
X-14163513Y-22568889D01*
X-14192185Y-22860000D01*
X-14163513Y-23151111D01*
X-14078599Y-23431034D01*
X-13940706Y-23689014D01*
X-13755134Y-23915134D01*
X-13529014Y-24100706D01*
X-13474209Y-24130000D01*
X-13529014Y-24159294D01*
X-13755134Y-24344866D01*
X-13940706Y-24570986D01*
X-14078599Y-24828966D01*
X-14163513Y-25108889D01*
X-14192185Y-25400000D01*
X-14163513Y-25691111D01*
X-14078599Y-25971034D01*
X-13940706Y-26229014D01*
X-13755134Y-26455134D01*
X-13529014Y-26640706D01*
X-13474209Y-26670000D01*
X-13529014Y-26699294D01*
X-13755134Y-26884866D01*
X-13940706Y-27110986D01*
X-14078599Y-27368966D01*
X-14163513Y-27648889D01*
X-14192185Y-27940000D01*
X-14163513Y-28231111D01*
X-14078599Y-28511034D01*
X-13940706Y-28769014D01*
X-13755134Y-28995134D01*
X-13529014Y-29180706D01*
X-13271034Y-29318599D01*
X-12991111Y-29403513D01*
X-12772950Y-29425000D01*
X-12627050Y-29425000D01*
X-12408889Y-29403513D01*
X-12128966Y-29318599D01*
X-11870986Y-29180706D01*
X-11644866Y-28995134D01*
X-11459294Y-28769014D01*
X-11321401Y-28511034D01*
X-11236487Y-28231111D01*
X-11207815Y-27940000D01*
X-11236487Y-27648889D01*
X-11259203Y-27574004D01*
X-6473996Y-22788798D01*
X-6444999Y-22765001D01*
X-6350026Y-22649276D01*
X-6279454Y-22517247D01*
X-6235997Y-22373986D01*
X-6225000Y-22262333D01*
X-6225000Y-22262332D01*
X-6221323Y-22225000D01*
X-6225000Y-22187667D01*
X-6225000Y-10018665D01*
X-5245000Y-10018665D01*
X-5245000Y-10301335D01*
X-5189853Y-10578574D01*
X-5081680Y-10839727D01*
X-4924637Y-11074759D01*
X-4724759Y-11274637D01*
X-4489727Y-11431680D01*
X-4228574Y-11539853D01*
X-3951335Y-11595000D01*
X-3668665Y-11595000D01*
X-3391426Y-11539853D01*
X-3130273Y-11431680D01*
X-2895241Y-11274637D01*
X-2695363Y-11074759D01*
X-2538320Y-10839727D01*
X-2430147Y-10578574D01*
X-2375000Y-10301335D01*
X-2375000Y-10018665D01*
X-2430147Y-9741426D01*
X-2538320Y-9480273D01*
X-2695363Y-9245241D01*
X-2895241Y-9045363D01*
X-3130273Y-8888320D01*
X-3391426Y-8780147D01*
X-3668665Y-8725000D01*
X-3951335Y-8725000D01*
X-4228574Y-8780147D01*
X-4489727Y-8888320D01*
X-4724759Y-9045363D01*
X-4924637Y-9245241D01*
X-5081680Y-9480273D01*
X-5189853Y-9741426D01*
X-5245000Y-10018665D01*
X-6225000Y-10018665D01*
X-6225000Y-8958707D01*
X-6181063Y-8914770D01*
X-6067795Y-8745252D01*
X-5989774Y-8556894D01*
X-5950000Y-8356935D01*
X-5950000Y-8255000D01*
X-3066050Y-8255000D01*
X-1460871Y-9860180D01*
X-1463513Y-9868889D01*
X-1492185Y-10160000D01*
X-1463513Y-10451111D01*
X-1378599Y-10731034D01*
X-1240706Y-10989014D01*
X-1055134Y-11215134D01*
X-829014Y-11400706D01*
X-764477Y-11435201D01*
X-881355Y-11504822D01*
X-1097588Y-11699731D01*
X-1271641Y-11933080D01*
X-1396825Y-12195901D01*
X-1441476Y-12343110D01*
X-1320155Y-12573000D01*
X-127000Y-12573000D01*
X-127000Y-12553000D01*
X127000Y-12553000D01*
X127000Y-12573000D01*
X1320155Y-12573000D01*
X1441476Y-12343110D01*
X1396825Y-12195901D01*
X1271641Y-11933080D01*
X1097588Y-11699731D01*
X881355Y-11504822D01*
X764477Y-11435201D01*
X829014Y-11400706D01*
X1055134Y-11215134D01*
X1240706Y-10989014D01*
X1378599Y-10731034D01*
X1463513Y-10451111D01*
X1492185Y-10160000D01*
X1463513Y-9868889D01*
X1378599Y-9588966D01*
X1260724Y-9368436D01*
X1251623Y-9276037D01*
X1243794Y-9250226D01*
X1210042Y-9138963D01*
X1179003Y-9036641D01*
X1061075Y-8816012D01*
X902370Y-8622630D01*
X853915Y-8582864D01*
X-958949Y-6770000D01*
X4861928Y-6770000D01*
X4861928Y-8470000D01*
X4874188Y-8594482D01*
X4910498Y-8714180D01*
X4969463Y-8824494D01*
X5048815Y-8921185D01*
X5145506Y-9000537D01*
X5255820Y-9059502D01*
X5331626Y-9082498D01*
X5154822Y-9278645D01*
X5005843Y-9528748D01*
X4908519Y-9803109D01*
X5029186Y-10033000D01*
X6223000Y-10033000D01*
X6223000Y-10013000D01*
X6477000Y-10013000D01*
X6477000Y-10033000D01*
X7670814Y-10033000D01*
X7791481Y-9803109D01*
X7694157Y-9528748D01*
X7545178Y-9278645D01*
X7368374Y-9082498D01*
X7444180Y-9059502D01*
X7554494Y-9000537D01*
X7651185Y-8921185D01*
X7730537Y-8824494D01*
X7789502Y-8714180D01*
X7825812Y-8594482D01*
X7838072Y-8470000D01*
X7838072Y-6770000D01*
X7825812Y-6645518D01*
X7789502Y-6525820D01*
X7730537Y-6415506D01*
X7651185Y-6318815D01*
X7554494Y-6239463D01*
X7444180Y-6180498D01*
X7324482Y-6144188D01*
X7200000Y-6131928D01*
X5500000Y-6131928D01*
X5375518Y-6144188D01*
X5255820Y-6180498D01*
X5145506Y-6239463D01*
X5048815Y-6318815D01*
X4969463Y-6415506D01*
X4910498Y-6525820D01*
X4874188Y-6645518D01*
X4861928Y-6770000D01*
X-958949Y-6770000D01*
X-1597859Y-6131091D01*
X-1637630Y-6082630D01*
X-1831012Y-5923925D01*
X-2051641Y-5805997D01*
X-2291037Y-5733377D01*
X-2477620Y-5715000D01*
X-2477627Y-5715000D01*
X-2540000Y-5708857D01*
X-2602373Y-5715000D01*
X-4045000Y-5715000D01*
X-4045000Y-5613061D01*
X-4084774Y-5413102D01*
X-4162795Y-5224744D01*
X-4276063Y-5055226D01*
X-4320000Y-5011289D01*
X-4320000Y-3817595D01*
X-4250986Y-3780706D01*
X-4024866Y-3595134D01*
X-3839294Y-3369014D01*
X-3810000Y-3314209D01*
X-3780706Y-3369014D01*
X-3595134Y-3595134D01*
X-3369014Y-3780706D01*
X-3111034Y-3918599D01*
X-2831111Y-4003513D01*
X-2612950Y-4025000D01*
X-2467050Y-4025000D01*
X-2248889Y-4003513D01*
X-1968966Y-3918599D01*
X-1710986Y-3780706D01*
X-1484866Y-3595134D01*
X-1299294Y-3369014D01*
X-1270000Y-3314209D01*
X-1240706Y-3369014D01*
X-1055134Y-3595134D01*
X-829014Y-3780706D01*
X-571034Y-3918599D01*
X-291111Y-4003513D01*
X-72950Y-4025000D01*
X72950Y-4025000D01*
X291111Y-4003513D01*
X571034Y-3918599D01*
X829014Y-3780706D01*
X1055134Y-3595134D01*
X1240706Y-3369014D01*
X1275201Y-3304477D01*
X1344822Y-3421355D01*
X1539731Y-3637588D01*
X1773080Y-3811641D01*
X2035901Y-3936825D01*
X2183110Y-3981476D01*
X2413000Y-3860155D01*
X2413000Y-2667000D01*
X2393000Y-2667000D01*
X2393000Y-2413000D01*
X2413000Y-2413000D01*
X2413000Y-127000D01*
X2393000Y-127000D01*
X2393000Y127000D01*
X2413000Y127000D01*
X2413000Y1320155D01*
X2183110Y1441476D01*
X2035901Y1396825D01*
X1773080Y1271641D01*
X1539731Y1097588D01*
X1344822Y881355D01*
X1275201Y764477D01*
X1240706Y829014D01*
X1055134Y1055134D01*
X829014Y1240706D01*
X571034Y1378599D01*
X291111Y1463513D01*
X72950Y1485000D01*
X-72950Y1485000D01*
X-291111Y1463513D01*
X-571034Y1378599D01*
X-829014Y1240706D01*
X-1055134Y1055134D01*
X-1240706Y829014D01*
X-1270000Y774209D01*
X-1299294Y829014D01*
X-1484866Y1055134D01*
X-1710986Y1240706D01*
X-1968966Y1378599D01*
X-2248889Y1463513D01*
X-2467050Y1485000D01*
X-2612950Y1485000D01*
X-2831111Y1463513D01*
X-3111034Y1378599D01*
X-3369014Y1240706D01*
X-3595134Y1055134D01*
X-3780706Y829014D01*
X-3810000Y774209D01*
X-3839294Y829014D01*
X-4024866Y1055134D01*
X-4250986Y1240706D01*
X-4508966Y1378599D01*
X-4788889Y1463513D01*
X-5007050Y1485000D01*
X-5152950Y1485000D01*
X-5371111Y1463513D01*
X-5651034Y1378599D01*
X-5909014Y1240706D01*
X-6135134Y1055134D01*
X-6320706Y829014D01*
X-6350000Y774209D01*
X-6379294Y829014D01*
X-6564866Y1055134D01*
X-6790986Y1240706D01*
X-7048966Y1378599D01*
X-7328889Y1463513D01*
X-7547050Y1485000D01*
X-7692950Y1485000D01*
X-7911111Y1463513D01*
X-8191034Y1378599D01*
X-8449014Y1240706D01*
X-8675134Y1055134D01*
X-8860706Y829014D01*
X-8890000Y774209D01*
X-8919294Y829014D01*
X-9104866Y1055134D01*
X-9330986Y1240706D01*
X-9588966Y1378599D01*
X-9868889Y1463513D01*
X-10087050Y1485000D01*
X-10232950Y1485000D01*
X-10451111Y1463513D01*
X-10731034Y1378599D01*
X-10989014Y1240706D01*
X-11215134Y1055134D01*
X-11400706Y829014D01*
X-11430000Y774209D01*
X-11459294Y829014D01*
X-11644866Y1055134D01*
X-11870986Y1240706D01*
X-12128966Y1378599D01*
X-12408889Y1463513D01*
X-12627050Y1485000D01*
X-12772950Y1485000D01*
X-12991111Y1463513D01*
X-13271034Y1378599D01*
X-13529014Y1240706D01*
X-13755134Y1055134D01*
X-13940706Y829014D01*
X-13970000Y774209D01*
X-13999294Y829014D01*
X-14184866Y1055134D01*
X-14410986Y1240706D01*
X-14668966Y1378599D01*
X-14948889Y1463513D01*
X-15167050Y1485000D01*
X-15312950Y1485000D01*
X-15531111Y1463513D01*
X-15811034Y1378599D01*
X-16069014Y1240706D01*
X-16295134Y1055134D01*
X-16480706Y829014D01*
X-16510000Y774209D01*
X-16539294Y829014D01*
X-16724866Y1055134D01*
X-16950986Y1240706D01*
X-17208966Y1378599D01*
X-17488889Y1463513D01*
X-17707050Y1485000D01*
X-17852950Y1485000D01*
X-18071111Y1463513D01*
X-18351034Y1378599D01*
X-18609014Y1240706D01*
X-18835134Y1055134D01*
X-19020706Y829014D01*
X-19050000Y774209D01*
X-19079294Y829014D01*
X-19264866Y1055134D01*
X-19490986Y1240706D01*
X-19748966Y1378599D01*
X-20028889Y1463513D01*
X-20247050Y1485000D01*
X-20392950Y1485000D01*
X-20611111Y1463513D01*
X-20891034Y1378599D01*
X-21149014Y1240706D01*
X-21375134Y1055134D01*
X-21560706Y829014D01*
X-21590000Y774209D01*
X-21619294Y829014D01*
X-21804866Y1055134D01*
X-22030986Y1240706D01*
X-22288966Y1378599D01*
X-22568889Y1463513D01*
X-22787050Y1485000D01*
X-22932950Y1485000D01*
X-23151111Y1463513D01*
X-23431034Y1378599D01*
X-23689014Y1240706D01*
X-23915134Y1055134D01*
X-24100706Y829014D01*
X-24130000Y774209D01*
X-24159294Y829014D01*
X-24344866Y1055134D01*
X-24570986Y1240706D01*
X-24828966Y1378599D01*
X-25108889Y1463513D01*
X-25327050Y1485000D01*
X-25472950Y1485000D01*
X-25691111Y1463513D01*
X-25971034Y1378599D01*
X-26229014Y1240706D01*
X-26455134Y1055134D01*
X-26640706Y829014D01*
X-26670000Y774209D01*
X-26699294Y829014D01*
X-26884866Y1055134D01*
X-27110986Y1240706D01*
X-27368966Y1378599D01*
X-27648889Y1463513D01*
X-27867050Y1485000D01*
X-28012950Y1485000D01*
X-28231111Y1463513D01*
X-28511034Y1378599D01*
X-28769014Y1240706D01*
X-28995134Y1055134D01*
X-29019607Y1025313D01*
X-29040498Y1094180D01*
X-29099463Y1204494D01*
X-29178815Y1301185D01*
X-29275506Y1380537D01*
X-29385820Y1439502D01*
X-29505518Y1475812D01*
X-29630000Y1488072D01*
X-31330000Y1488072D01*
X-31454482Y1475812D01*
X-31574180Y1439502D01*
X-31684494Y1380537D01*
X-31781185Y1301185D01*
X-31860537Y1204494D01*
X-31919502Y1094180D01*
X-31955812Y974482D01*
X-31968072Y850000D01*
X-31968072Y-850000D01*
X-31955812Y-974482D01*
X-31919502Y-1094180D01*
X-31860537Y-1204494D01*
X-31806778Y-1270000D01*
X-31860537Y-1335506D01*
X-31919502Y-1445820D01*
X-31955812Y-1565518D01*
X-31968072Y-1690000D01*
X-31968072Y-3291753D01*
X-32107298Y-3250903D01*
X-32920395Y-4064000D01*
X-32107298Y-4877097D01*
X-31863329Y-4805514D01*
X-31742429Y-4550004D01*
X-31673700Y-4275816D01*
X-31659783Y-3993488D01*
X-31669396Y-3928607D01*
X-31574180Y-3979502D01*
X-31454482Y-4015812D01*
X-31330000Y-4028072D01*
X-29630000Y-4028072D01*
X-29505518Y-4015812D01*
X-29385820Y-3979502D01*
X-29275506Y-3920537D01*
X-29178815Y-3841185D01*
X-29099463Y-3744494D01*
X-29040498Y-3634180D01*
X-29019607Y-3565313D01*
X-28995134Y-3595134D01*
X-28769014Y-3780706D01*
X-28511034Y-3918599D01*
X-28231111Y-4003513D01*
X-28012950Y-4025000D01*
X-27867050Y-4025000D01*
X-27648889Y-4003513D01*
X-27368966Y-3918599D01*
X-27110986Y-3780706D01*
X-26884866Y-3595134D01*
X-26699294Y-3369014D01*
X-26670000Y-3314209D01*
X-26640706Y-3369014D01*
X-26455134Y-3595134D01*
X-26229014Y-3780706D01*
X-25971034Y-3918599D01*
X-25955123Y-3923425D01*
X-25963799Y-3933997D01*
X-26709801Y-4680000D01*
X-26771939Y-4680000D01*
X-26971898Y-4719774D01*
X-27160256Y-4797795D01*
X-27329774Y-4911063D01*
X-27473937Y-5055226D01*
X-27587205Y-5224744D01*
X-27665226Y-5413102D01*
X-27705000Y-5613061D01*
X-27705000Y-5715000D01*
X-29782627Y-5715000D01*
X-29845000Y-5708857D01*
X-29907373Y-5715000D01*
X-29907380Y-5715000D01*
X-30070653Y-5731081D01*
X-30093964Y-5733377D01*
X-30156453Y-5752333D01*
X-30333359Y-5805997D01*
X-30553988Y-5923925D01*
X-30648914Y-6001829D01*
X-30698917Y-6042865D01*
X-30698918Y-6042866D01*
X-30747370Y-6082630D01*
X-30787132Y-6131080D01*
X-31741216Y-7085164D01*
X-31673700Y-6815816D01*
X-31659783Y-6533488D01*
X-31701213Y-6253870D01*
X-31796397Y-5987708D01*
X-31863329Y-5862486D01*
X-32107298Y-5790903D01*
X-32920395Y-6604000D01*
X-32906253Y-6618143D01*
X-33085858Y-6797748D01*
X-33100000Y-6783605D01*
X-33913097Y-7596702D01*
X-33841514Y-7840671D01*
X-33586004Y-7961571D01*
X-33311816Y-8030300D01*
X-33029488Y-8044217D01*
X-32749870Y-8002787D01*
X-32608161Y-7952109D01*
X-35242500Y-10586449D01*
X-37792859Y-8036091D01*
X-37814075Y-8010239D01*
X-37681426Y-7983853D01*
X-37420273Y-7875680D01*
X-37185241Y-7718637D01*
X-36985363Y-7518759D01*
X-36828320Y-7283727D01*
X-36720147Y-7022574D01*
X-36665000Y-6745335D01*
X-36665000Y-6674512D01*
X-34540217Y-6674512D01*
X-34498787Y-6954130D01*
X-34403603Y-7220292D01*
X-34336671Y-7345514D01*
X-34092702Y-7417097D01*
X-33279605Y-6604000D01*
X-34092702Y-5790903D01*
X-34336671Y-5862486D01*
X-34457571Y-6117996D01*
X-34526300Y-6392184D01*
X-34540217Y-6674512D01*
X-36665000Y-6674512D01*
X-36665000Y-6462665D01*
X-36720147Y-6185426D01*
X-36828320Y-5924273D01*
X-36985363Y-5689241D01*
X-37185241Y-5489363D01*
X-37417759Y-5334000D01*
X-37185241Y-5178637D01*
X-37063306Y-5056702D01*
X-33913097Y-5056702D01*
X-33841514Y-5300671D01*
X-33775364Y-5331971D01*
X-33841514Y-5367329D01*
X-33913097Y-5611298D01*
X-33100000Y-6424395D01*
X-32286903Y-5611298D01*
X-32358486Y-5367329D01*
X-32424636Y-5336029D01*
X-32358486Y-5300671D01*
X-32286903Y-5056702D01*
X-33100000Y-4243605D01*
X-33913097Y-5056702D01*
X-37063306Y-5056702D01*
X-36985363Y-4978759D01*
X-36828320Y-4743727D01*
X-36720147Y-4482574D01*
X-36665000Y-4205335D01*
X-36665000Y-4134512D01*
X-34540217Y-4134512D01*
X-34498787Y-4414130D01*
X-34403603Y-4680292D01*
X-34336671Y-4805514D01*
X-34092702Y-4877097D01*
X-33279605Y-4064000D01*
X-34092702Y-3250903D01*
X-34336671Y-3322486D01*
X-34457571Y-3577996D01*
X-34526300Y-3852184D01*
X-34540217Y-4134512D01*
X-36665000Y-4134512D01*
X-36665000Y-3922665D01*
X-36720147Y-3645426D01*
X-36828320Y-3384273D01*
X-36985363Y-3149241D01*
X-37063306Y-3071298D01*
X-33913097Y-3071298D01*
X-33100000Y-3884395D01*
X-32286903Y-3071298D01*
X-32358486Y-2827329D01*
X-32613996Y-2706429D01*
X-32888184Y-2637700D01*
X-33170512Y-2623783D01*
X-33450130Y-2665213D01*
X-33716292Y-2760397D01*
X-33841514Y-2827329D01*
X-33913097Y-3071298D01*
X-37063306Y-3071298D01*
X-37185241Y-2949363D01*
X-37420273Y-2792320D01*
X-37472574Y-2770656D01*
X-37233077Y-2645969D01*
X-36990563Y-2451315D01*
X-36835163Y-2266101D01*
X-36687963Y-2445463D01*
X-36446234Y-2643845D01*
X-36170448Y-2791255D01*
X-35871203Y-2882030D01*
X-35560000Y-2912681D01*
X-35248796Y-2882030D01*
X-34949551Y-2791255D01*
X-34673765Y-2643845D01*
X-34432037Y-2445463D01*
X-34233655Y-2203734D01*
X-34086245Y-1927948D01*
X-33995470Y-1628703D01*
X-33972500Y-1395485D01*
X-33972500Y-1144514D01*
X-33995470Y-911296D01*
X-34086245Y-612051D01*
X-34233655Y-336265D01*
X-34432037Y-94537D01*
X-34673766Y103845D01*
X-34949552Y251255D01*
X-35248797Y342030D01*
X-35560000Y372681D01*
X-35871204Y342030D01*
X-36170449Y251255D01*
X-36446235Y103845D01*
X-36687963Y-94537D01*
X-36835162Y-273900D01*
X-36990563Y-88685D01*
X-37233077Y105969D01*
X-37508906Y249571D01*
X-37727020Y320563D01*
X-37973000Y200594D01*
X-37973000Y-1143000D01*
X-37953000Y-1143000D01*
X-37953000Y-1397000D01*
X-37973000Y-1397000D01*
X-37973000Y-1417000D01*
X-38227000Y-1417000D01*
X-38227000Y-1397000D01*
X-38247000Y-1397000D01*
X-38247000Y-1143000D01*
X-38227000Y-1143000D01*
X-38227000Y200594D01*
X-38472980Y320563D01*
X-38691094Y249571D01*
X-38966923Y105969D01*
X-39107941Y-7219D01*
X-39156963Y84494D01*
X-39236315Y181185D01*
X-39333006Y260537D01*
X-39443320Y319502D01*
X-39563018Y355812D01*
X-39687500Y368072D01*
X-41592500Y368072D01*
X-41716982Y355812D01*
X-41836680Y319502D01*
X-41946994Y260537D01*
X-42043685Y181185D01*
X-42123037Y84494D01*
X-42182002Y-25820D01*
X-42218312Y-145518D01*
X-42230572Y-270000D01*
X-43790000Y-270000D01*
X-43790000Y15390000D01*
X-40496539Y15390000D01*
X-40450490Y14922458D01*
X-40314113Y14472884D01*
X-40092649Y14058554D01*
X-39794609Y13695391D01*
X-39431446Y13397351D01*
X-39017116Y13175887D01*
X-38567542Y13039510D01*
X-38217157Y13005000D01*
X-37982843Y13005000D01*
X-37632458Y13039510D01*
X-37182884Y13175887D01*
X-36768554Y13397351D01*
X-36405391Y13695391D01*
X-36107351Y14058554D01*
X-35885887Y14472884D01*
X-35749510Y14922458D01*
X-35703461Y15390000D01*
X-35749510Y15857542D01*
X-35885887Y16307116D01*
X-36107351Y16721446D01*
X-36405391Y17084609D01*
X-36768554Y17382649D01*
X-37182884Y17604113D01*
X-37632458Y17740490D01*
X-37982843Y17775000D01*
X-38217157Y17775000D01*
X-38567542Y17740490D01*
X-39017116Y17604113D01*
X-39431446Y17382649D01*
X-39794609Y17084609D01*
X-40092649Y16721446D01*
X-40314113Y16307116D01*
X-40450490Y15857542D01*
X-40496539Y15390000D01*
X-43790000Y15390000D01*
X-43790000Y21653288D01*
X-42937107Y21653288D01*
X-42829274Y21378662D01*
X-42522616Y21227784D01*
X-42192415Y21139631D01*
X-41851361Y21117591D01*
X-41512561Y21162511D01*
X-41189034Y21272664D01*
X-40990726Y21378662D01*
X-40882893Y21653288D01*
X-41910000Y22680395D01*
X-42937107Y21653288D01*
X-43790000Y21653288D01*
X-43790000Y22801361D01*
X-43652409Y22801361D01*
X-43607489Y22462561D01*
X-43497336Y22139034D01*
X-43391338Y21940726D01*
X-43116712Y21832893D01*
X-42089605Y22860000D01*
X-41730395Y22860000D01*
X-40703288Y21832893D01*
X-40428662Y21940726D01*
X-40277784Y22247384D01*
X-40209514Y22503109D01*
X-31921481Y22503109D01*
X-31824157Y22228748D01*
X-31675178Y21978645D01*
X-31480269Y21762412D01*
X-31246920Y21588359D01*
X-30984099Y21463175D01*
X-30836890Y21418524D01*
X-30607000Y21539845D01*
X-30607000Y22733000D01*
X-31800814Y22733000D01*
X-31921481Y22503109D01*
X-40209514Y22503109D01*
X-40189631Y22577585D01*
X-40167591Y22918639D01*
X-40207134Y23216891D01*
X-31921481Y23216891D01*
X-31800814Y22987000D01*
X-30607000Y22987000D01*
X-30607000Y24180155D01*
X-30353000Y24180155D01*
X-30353000Y22987000D01*
X-30333000Y22987000D01*
X-30333000Y22733000D01*
X-30353000Y22733000D01*
X-30353000Y21539845D01*
X-30123110Y21418524D01*
X-29975901Y21463175D01*
X-29713080Y21588359D01*
X-29479731Y21762412D01*
X-29284822Y21978645D01*
X-29215201Y22095523D01*
X-29180706Y22030986D01*
X-28995134Y21804866D01*
X-28769014Y21619294D01*
X-28511034Y21481401D01*
X-28231111Y21396487D01*
X-28012950Y21375000D01*
X-27867050Y21375000D01*
X-27648889Y21396487D01*
X-27368966Y21481401D01*
X-27110986Y21619294D01*
X-26884866Y21804866D01*
X-26699294Y22030986D01*
X-26670000Y22085791D01*
X-26640706Y22030986D01*
X-26455134Y21804866D01*
X-26229014Y21619294D01*
X-25971034Y21481401D01*
X-25691111Y21396487D01*
X-25472950Y21375000D01*
X-25327050Y21375000D01*
X-25108889Y21396487D01*
X-25034004Y21419203D01*
X-22788800Y19173998D01*
X-22765001Y19144999D01*
X-22736003Y19121201D01*
X-22649277Y19050026D01*
X-22517247Y18979454D01*
X-22373986Y18935997D01*
X-22262333Y18925000D01*
X-22262324Y18925000D01*
X-22225001Y18921324D01*
X-22187678Y18925000D01*
X7940199Y18925000D01*
X8130000Y18735198D01*
X8130001Y1397113D01*
X7911111Y1463513D01*
X7692950Y1485000D01*
X7547050Y1485000D01*
X7328889Y1463513D01*
X7048966Y1378599D01*
X6790986Y1240706D01*
X6564866Y1055134D01*
X6379294Y829014D01*
X6350000Y774209D01*
X6320706Y829014D01*
X6135134Y1055134D01*
X5909014Y1240706D01*
X5651034Y1378599D01*
X5371111Y1463513D01*
X5152950Y1485000D01*
X5007050Y1485000D01*
X4788889Y1463513D01*
X4508966Y1378599D01*
X4250986Y1240706D01*
X4024866Y1055134D01*
X3839294Y829014D01*
X3804799Y764477D01*
X3735178Y881355D01*
X3540269Y1097588D01*
X3306920Y1271641D01*
X3044099Y1396825D01*
X2896890Y1441476D01*
X2667000Y1320155D01*
X2667000Y127000D01*
X2687000Y127000D01*
X2687000Y-127000D01*
X2667000Y-127000D01*
X2667000Y-2413000D01*
X2687000Y-2413000D01*
X2687000Y-2667000D01*
X2667000Y-2667000D01*
X2667000Y-3860155D01*
X2896890Y-3981476D01*
X3044099Y-3936825D01*
X3306920Y-3811641D01*
X3540269Y-3637588D01*
X3735178Y-3421355D01*
X3804799Y-3304477D01*
X3839294Y-3369014D01*
X4024866Y-3595134D01*
X4250986Y-3780706D01*
X4508966Y-3918599D01*
X4788889Y-4003513D01*
X5007050Y-4025000D01*
X5152950Y-4025000D01*
X5371111Y-4003513D01*
X5651034Y-3918599D01*
X5909014Y-3780706D01*
X6135134Y-3595134D01*
X6320706Y-3369014D01*
X6350000Y-3314209D01*
X6379294Y-3369014D01*
X6564866Y-3595134D01*
X6790986Y-3780706D01*
X7048966Y-3918599D01*
X7328889Y-4003513D01*
X7547050Y-4025000D01*
X7692950Y-4025000D01*
X7911111Y-4003513D01*
X8130001Y-3937113D01*
X8130001Y-11750197D01*
X7940199Y-11940000D01*
X7627595Y-11940000D01*
X7590706Y-11870986D01*
X7405134Y-11644866D01*
X7179014Y-11459294D01*
X7121244Y-11428416D01*
X7350269Y-11257588D01*
X7545178Y-11041355D01*
X7694157Y-10791252D01*
X7791481Y-10516891D01*
X7670814Y-10287000D01*
X6477000Y-10287000D01*
X6477000Y-10307000D01*
X6223000Y-10307000D01*
X6223000Y-10287000D01*
X5029186Y-10287000D01*
X4908519Y-10516891D01*
X5005843Y-10791252D01*
X5154822Y-11041355D01*
X5349731Y-11257588D01*
X5578756Y-11428416D01*
X5520986Y-11459294D01*
X5294866Y-11644866D01*
X5109294Y-11870986D01*
X4971401Y-12128966D01*
X4886487Y-12408889D01*
X4857815Y-12700000D01*
X4886487Y-12991111D01*
X4971401Y-13271034D01*
X5109294Y-13529014D01*
X5294866Y-13755134D01*
X5520986Y-13940706D01*
X5575791Y-13970000D01*
X5520986Y-13999294D01*
X5294866Y-14184866D01*
X5109294Y-14410986D01*
X4971401Y-14668966D01*
X4886487Y-14948889D01*
X4857815Y-15240000D01*
X4886487Y-15531111D01*
X4971401Y-15811034D01*
X5109294Y-16069014D01*
X5294866Y-16295134D01*
X5520986Y-16480706D01*
X5575791Y-16510000D01*
X5520986Y-16539294D01*
X5294866Y-16724866D01*
X5109294Y-16950986D01*
X4971401Y-17208966D01*
X4886487Y-17488889D01*
X4857815Y-17780000D01*
X4886487Y-18071111D01*
X4971401Y-18351034D01*
X5109294Y-18609014D01*
X5294866Y-18835134D01*
X5520986Y-19020706D01*
X5575791Y-19050000D01*
X5520986Y-19079294D01*
X5294866Y-19264866D01*
X5109294Y-19490986D01*
X4971401Y-19748966D01*
X4886487Y-20028889D01*
X4857815Y-20320000D01*
X4886487Y-20611111D01*
X4971401Y-20891034D01*
X5109294Y-21149014D01*
X5294866Y-21375134D01*
X5520986Y-21560706D01*
X5575791Y-21590000D01*
X5520986Y-21619294D01*
X5294866Y-21804866D01*
X5109294Y-22030986D01*
X4971401Y-22288966D01*
X4886487Y-22568889D01*
X4857815Y-22860000D01*
X4886487Y-23151111D01*
X4971401Y-23431034D01*
X5109294Y-23689014D01*
X5294866Y-23915134D01*
X5520986Y-24100706D01*
X5575791Y-24130000D01*
X5520986Y-24159294D01*
X5294866Y-24344866D01*
X5109294Y-24570986D01*
X4971401Y-24828966D01*
X4886487Y-25108889D01*
X4857815Y-25400000D01*
X4886487Y-25691111D01*
X4971401Y-25971034D01*
X5109294Y-26229014D01*
X5294866Y-26455134D01*
X5520986Y-26640706D01*
X5778966Y-26778599D01*
X6058889Y-26863513D01*
X6277050Y-26885000D01*
X6422950Y-26885000D01*
X6641111Y-26863513D01*
X6921034Y-26778599D01*
X7179014Y-26640706D01*
X7405134Y-26455134D01*
X7590706Y-26229014D01*
X7728599Y-25971034D01*
X7813513Y-25691111D01*
X7842185Y-25400000D01*
X7813513Y-25108889D01*
X7728599Y-24828966D01*
X7590706Y-24570986D01*
X7405134Y-24344866D01*
X7179014Y-24159294D01*
X7124209Y-24130000D01*
X7179014Y-24100706D01*
X7405134Y-23915134D01*
X7590706Y-23689014D01*
X7728599Y-23431034D01*
X7813513Y-23151111D01*
X7842185Y-22860000D01*
X7813513Y-22568889D01*
X7728599Y-22288966D01*
X7590706Y-22030986D01*
X7405134Y-21804866D01*
X7179014Y-21619294D01*
X7124209Y-21590000D01*
X7179014Y-21560706D01*
X7405134Y-21375134D01*
X7590706Y-21149014D01*
X7728599Y-20891034D01*
X7813513Y-20611111D01*
X7842185Y-20320000D01*
X7813513Y-20028889D01*
X7728599Y-19748966D01*
X7590706Y-19490986D01*
X7405134Y-19264866D01*
X7179014Y-19079294D01*
X7124209Y-19050000D01*
X7179014Y-19020706D01*
X7405134Y-18835134D01*
X7590706Y-18609014D01*
X7728599Y-18351034D01*
X7813513Y-18071111D01*
X7842185Y-17780000D01*
X7813513Y-17488889D01*
X7728599Y-17208966D01*
X7590706Y-16950986D01*
X7405134Y-16724866D01*
X7179014Y-16539294D01*
X7124209Y-16510000D01*
X7179014Y-16480706D01*
X7405134Y-16295134D01*
X7590706Y-16069014D01*
X7627595Y-16000000D01*
X8217678Y-16000000D01*
X8255000Y-16003676D01*
X8292322Y-16000000D01*
X8292333Y-16000000D01*
X8403986Y-15989003D01*
X8547247Y-15945546D01*
X8679276Y-15874974D01*
X8795001Y-15780001D01*
X8818804Y-15750997D01*
X11941004Y-12628798D01*
X11970001Y-12605001D01*
X12012382Y-12553360D01*
X12064974Y-12489277D01*
X12135546Y-12357247D01*
X12139834Y-12343110D01*
X12179003Y-12213986D01*
X12190000Y-12102333D01*
X12190000Y-12102324D01*
X12193676Y-12065001D01*
X12190000Y-12027678D01*
X12190000Y-3937114D01*
X12408889Y-4003513D01*
X12627050Y-4025000D01*
X12772950Y-4025000D01*
X12991111Y-4003513D01*
X13210000Y-3937113D01*
X13210000Y-15912332D01*
X13210001Y-15912342D01*
X13210000Y-19370198D01*
X8378998Y-24201201D01*
X8350000Y-24224999D01*
X8326202Y-24253997D01*
X8326201Y-24253998D01*
X8255026Y-24340724D01*
X8184454Y-24472754D01*
X8160507Y-24551700D01*
X8144584Y-24604194D01*
X8140998Y-24616015D01*
X8126324Y-24765000D01*
X8130001Y-24802332D01*
X8130000Y-29626928D01*
X8040000Y-29626928D01*
X7915518Y-29639188D01*
X7795820Y-29675498D01*
X7685506Y-29734463D01*
X7588815Y-29813815D01*
X7509463Y-29910506D01*
X7450498Y-30020820D01*
X7414188Y-30140518D01*
X7401928Y-30265000D01*
X7401928Y-31965000D01*
X7414188Y-32089482D01*
X7450498Y-32209180D01*
X7509463Y-32319494D01*
X7588815Y-32416185D01*
X7685506Y-32495537D01*
X7795820Y-32554502D01*
X7915518Y-32590812D01*
X8040000Y-32603072D01*
X9740000Y-32603072D01*
X9864482Y-32590812D01*
X9984180Y-32554502D01*
X10094494Y-32495537D01*
X10191185Y-32416185D01*
X10270537Y-32319494D01*
X10329502Y-32209180D01*
X10350393Y-32140313D01*
X10374866Y-32170134D01*
X10600986Y-32355706D01*
X10858966Y-32493599D01*
X11138889Y-32578513D01*
X11357050Y-32600000D01*
X11502950Y-32600000D01*
X11721111Y-32578513D01*
X12001034Y-32493599D01*
X12259014Y-32355706D01*
X12485134Y-32170134D01*
X12670706Y-31944014D01*
X12705201Y-31879477D01*
X12774822Y-31996355D01*
X12969731Y-32212588D01*
X13203080Y-32386641D01*
X13465901Y-32511825D01*
X13613110Y-32556476D01*
X13843000Y-32435155D01*
X13843000Y-31242000D01*
X14097000Y-31242000D01*
X14097000Y-32435155D01*
X14326890Y-32556476D01*
X14474099Y-32511825D01*
X14736920Y-32386641D01*
X14970269Y-32212588D01*
X15165178Y-31996355D01*
X15276994Y-31808639D01*
X17942591Y-31808639D01*
X17987511Y-32147439D01*
X18097664Y-32470966D01*
X18203662Y-32669274D01*
X18478288Y-32777107D01*
X19505395Y-31750000D01*
X19864605Y-31750000D01*
X20891712Y-32777107D01*
X21166338Y-32669274D01*
X21317216Y-32362616D01*
X21405369Y-32032415D01*
X21427409Y-31691361D01*
X21382489Y-31352561D01*
X21272336Y-31029034D01*
X21166338Y-30830726D01*
X20891712Y-30722893D01*
X19864605Y-31750000D01*
X19505395Y-31750000D01*
X18478288Y-30722893D01*
X18203662Y-30830726D01*
X18052784Y-31137384D01*
X17964631Y-31467585D01*
X17942591Y-31808639D01*
X15276994Y-31808639D01*
X15314157Y-31746252D01*
X15411481Y-31471891D01*
X15290814Y-31242000D01*
X14097000Y-31242000D01*
X13843000Y-31242000D01*
X13823000Y-31242000D01*
X13823000Y-30988000D01*
X13843000Y-30988000D01*
X13843000Y-29794845D01*
X14097000Y-29794845D01*
X14097000Y-30988000D01*
X15290814Y-30988000D01*
X15411481Y-30758109D01*
X15335278Y-30543288D01*
X18657893Y-30543288D01*
X19685000Y-31570395D01*
X20712107Y-30543288D01*
X20604274Y-30268662D01*
X20297616Y-30117784D01*
X19967415Y-30029631D01*
X19626361Y-30007591D01*
X19287561Y-30052511D01*
X18964034Y-30162664D01*
X18765726Y-30268662D01*
X18657893Y-30543288D01*
X15335278Y-30543288D01*
X15314157Y-30483748D01*
X15165178Y-30233645D01*
X14970269Y-30017412D01*
X14736920Y-29843359D01*
X14474099Y-29718175D01*
X14326890Y-29673524D01*
X14097000Y-29794845D01*
X13843000Y-29794845D01*
X13613110Y-29673524D01*
X13465901Y-29718175D01*
X13203080Y-29843359D01*
X12969731Y-30017412D01*
X12774822Y-30233645D01*
X12705201Y-30350523D01*
X12670706Y-30285986D01*
X12485134Y-30059866D01*
X12259014Y-29874294D01*
X12001034Y-29736401D01*
X11721111Y-29651487D01*
X11502950Y-29630000D01*
X11357050Y-29630000D01*
X11138889Y-29651487D01*
X10858966Y-29736401D01*
X10600986Y-29874294D01*
X10374866Y-30059866D01*
X10350393Y-30089687D01*
X10329502Y-30020820D01*
X10270537Y-29910506D01*
X10191185Y-29813815D01*
X10094494Y-29734463D01*
X9984180Y-29675498D01*
X9864482Y-29639188D01*
X9740000Y-29626928D01*
X9650000Y-29626928D01*
X9650000Y-25079801D01*
X10765759Y-23964042D01*
X16095000Y-23964042D01*
X16095000Y-24295958D01*
X16159754Y-24621496D01*
X16286772Y-24928147D01*
X16471175Y-25204125D01*
X16705875Y-25438825D01*
X16981853Y-25623228D01*
X17288504Y-25750246D01*
X17614042Y-25815000D01*
X17945958Y-25815000D01*
X18271496Y-25750246D01*
X18578147Y-25623228D01*
X18854125Y-25438825D01*
X19088825Y-25204125D01*
X19273228Y-24928147D01*
X19400246Y-24621496D01*
X19465000Y-24295958D01*
X19465000Y-23964042D01*
X19400246Y-23638504D01*
X19273228Y-23331853D01*
X19088825Y-23055875D01*
X18854125Y-22821175D01*
X18578147Y-22636772D01*
X18271496Y-22509754D01*
X17945958Y-22445000D01*
X17614042Y-22445000D01*
X17288504Y-22509754D01*
X16981853Y-22636772D01*
X16705875Y-22821175D01*
X16471175Y-23055875D01*
X16286772Y-23331853D01*
X16159754Y-23638504D01*
X16095000Y-23964042D01*
X10765759Y-23964042D01*
X14481004Y-20248798D01*
X14510001Y-20225001D01*
X14560633Y-20163306D01*
X14604974Y-20109277D01*
X14675546Y-19977247D01*
X14682679Y-19953731D01*
X14719003Y-19833986D01*
X14730000Y-19722333D01*
X14730000Y-19722323D01*
X14733676Y-19685000D01*
X14730000Y-19647677D01*
X14730000Y-8724042D01*
X16095000Y-8724042D01*
X16095000Y-9055958D01*
X16159754Y-9381496D01*
X16286772Y-9688147D01*
X16471175Y-9964125D01*
X16705875Y-10198825D01*
X16981853Y-10383228D01*
X17288504Y-10510246D01*
X17614042Y-10575000D01*
X17945958Y-10575000D01*
X18271496Y-10510246D01*
X18578147Y-10383228D01*
X18854125Y-10198825D01*
X19088825Y-9964125D01*
X19273228Y-9688147D01*
X19400246Y-9381496D01*
X19465000Y-9055958D01*
X19465000Y-8724042D01*
X19400246Y-8398504D01*
X19273228Y-8091853D01*
X19088825Y-7815875D01*
X18854125Y-7581175D01*
X18578147Y-7396772D01*
X18271496Y-7269754D01*
X17945958Y-7205000D01*
X17614042Y-7205000D01*
X17288504Y-7269754D01*
X16981853Y-7396772D01*
X16705875Y-7581175D01*
X16471175Y-7815875D01*
X16286772Y-8091853D01*
X16159754Y-8398504D01*
X16095000Y-8724042D01*
X14730000Y-8724042D01*
X14730000Y-3937114D01*
X14948889Y-4003513D01*
X15167050Y-4025000D01*
X15312950Y-4025000D01*
X15531111Y-4003513D01*
X15811034Y-3918599D01*
X16069014Y-3780706D01*
X16295134Y-3595134D01*
X16480706Y-3369014D01*
X16618599Y-3111034D01*
X16703513Y-2831111D01*
X16732185Y-2540000D01*
X16703513Y-2248889D01*
X16618599Y-1968966D01*
X16480706Y-1710986D01*
X16295134Y-1484866D01*
X16069014Y-1299294D01*
X16014209Y-1270000D01*
X16069014Y-1240706D01*
X16295134Y-1055134D01*
X16480706Y-829014D01*
X16618599Y-571034D01*
X16703513Y-291111D01*
X16732185Y0D01*
X16703513Y291111D01*
X16618599Y571034D01*
X16480706Y829014D01*
X16295134Y1055134D01*
X16069014Y1240706D01*
X15811034Y1378599D01*
X15531111Y1463513D01*
X15312950Y1485000D01*
X15167050Y1485000D01*
X14948889Y1463513D01*
X14730000Y1397114D01*
X14730000Y20282667D01*
X14733677Y20320000D01*
X14719003Y20468986D01*
X14675546Y20612247D01*
X14604974Y20744276D01*
X14533799Y20831003D01*
X14533798Y20831004D01*
X14510001Y20860001D01*
X14481002Y20883800D01*
X13898803Y21465998D01*
X13875001Y21495001D01*
X13759276Y21589974D01*
X13627247Y21660546D01*
X13592225Y21671170D01*
X13755134Y21804866D01*
X13940706Y22030986D01*
X13970000Y22085791D01*
X13999294Y22030986D01*
X14184866Y21804866D01*
X14410986Y21619294D01*
X14668966Y21481401D01*
X14948889Y21396487D01*
X15167050Y21375000D01*
X15312950Y21375000D01*
X15531111Y21396487D01*
X15811034Y21481401D01*
X16069014Y21619294D01*
X16110435Y21653288D01*
X18657893Y21653288D01*
X18765726Y21378662D01*
X19072384Y21227784D01*
X19402585Y21139631D01*
X19743639Y21117591D01*
X20082439Y21162511D01*
X20405966Y21272664D01*
X20604274Y21378662D01*
X20712107Y21653288D01*
X19685000Y22680395D01*
X18657893Y21653288D01*
X16110435Y21653288D01*
X16295134Y21804866D01*
X16480706Y22030986D01*
X16618599Y22288966D01*
X16703513Y22568889D01*
X16726409Y22801361D01*
X17942591Y22801361D01*
X17987511Y22462561D01*
X18097664Y22139034D01*
X18203662Y21940726D01*
X18478288Y21832893D01*
X19505395Y22860000D01*
X19864605Y22860000D01*
X20891712Y21832893D01*
X21166338Y21940726D01*
X21317216Y22247384D01*
X21405369Y22577585D01*
X21427409Y22918639D01*
X21382489Y23257439D01*
X21272336Y23580966D01*
X21166338Y23779274D01*
X20891712Y23887107D01*
X19864605Y22860000D01*
X19505395Y22860000D01*
X18478288Y23887107D01*
X18203662Y23779274D01*
X18052784Y23472616D01*
X17964631Y23142415D01*
X17942591Y22801361D01*
X16726409Y22801361D01*
X16732185Y22860000D01*
X16703513Y23151111D01*
X16618599Y23431034D01*
X16480706Y23689014D01*
X16295134Y23915134D01*
X16110436Y24066712D01*
X18657893Y24066712D01*
X19685000Y23039605D01*
X20712107Y24066712D01*
X20604274Y24341338D01*
X20297616Y24492216D01*
X19967415Y24580369D01*
X19626361Y24602409D01*
X19287561Y24557489D01*
X18964034Y24447336D01*
X18765726Y24341338D01*
X18657893Y24066712D01*
X16110436Y24066712D01*
X16069014Y24100706D01*
X15811034Y24238599D01*
X15531111Y24323513D01*
X15312950Y24345000D01*
X15167050Y24345000D01*
X14948889Y24323513D01*
X14668966Y24238599D01*
X14410986Y24100706D01*
X14184866Y23915134D01*
X13999294Y23689014D01*
X13970000Y23634209D01*
X13940706Y23689014D01*
X13755134Y23915134D01*
X13529014Y24100706D01*
X13271034Y24238599D01*
X12991111Y24323513D01*
X12772950Y24345000D01*
X12627050Y24345000D01*
X12408889Y24323513D01*
X12128966Y24238599D01*
X11870986Y24100706D01*
X11644866Y23915134D01*
X11459294Y23689014D01*
X11430000Y23634209D01*
X11400706Y23689014D01*
X11215134Y23915134D01*
X10989014Y24100706D01*
X10731034Y24238599D01*
X10451111Y24323513D01*
X10232950Y24345000D01*
X10087050Y24345000D01*
X9868889Y24323513D01*
X9588966Y24238599D01*
X9330986Y24100706D01*
X9104866Y23915134D01*
X8919294Y23689014D01*
X8890000Y23634209D01*
X8860706Y23689014D01*
X8675134Y23915134D01*
X8449014Y24100706D01*
X8191034Y24238599D01*
X7911111Y24323513D01*
X7692950Y24345000D01*
X7547050Y24345000D01*
X7328889Y24323513D01*
X7048966Y24238599D01*
X6790986Y24100706D01*
X6564866Y23915134D01*
X6379294Y23689014D01*
X6350000Y23634209D01*
X6320706Y23689014D01*
X6135134Y23915134D01*
X5909014Y24100706D01*
X5651034Y24238599D01*
X5371111Y24323513D01*
X5152950Y24345000D01*
X5007050Y24345000D01*
X4788889Y24323513D01*
X4508966Y24238599D01*
X4250986Y24100706D01*
X4024866Y23915134D01*
X3839294Y23689014D01*
X3810000Y23634209D01*
X3780706Y23689014D01*
X3595134Y23915134D01*
X3369014Y24100706D01*
X3111034Y24238599D01*
X2831111Y24323513D01*
X2612950Y24345000D01*
X2467050Y24345000D01*
X2248889Y24323513D01*
X1968966Y24238599D01*
X1710986Y24100706D01*
X1484866Y23915134D01*
X1299294Y23689014D01*
X1270000Y23634209D01*
X1240706Y23689014D01*
X1055134Y23915134D01*
X829014Y24100706D01*
X571034Y24238599D01*
X291111Y24323513D01*
X72950Y24345000D01*
X-72950Y24345000D01*
X-291111Y24323513D01*
X-571034Y24238599D01*
X-829014Y24100706D01*
X-1055134Y23915134D01*
X-1240706Y23689014D01*
X-1270000Y23634209D01*
X-1299294Y23689014D01*
X-1484866Y23915134D01*
X-1710986Y24100706D01*
X-1968966Y24238599D01*
X-2248889Y24323513D01*
X-2467050Y24345000D01*
X-2612950Y24345000D01*
X-2831111Y24323513D01*
X-3111034Y24238599D01*
X-3369014Y24100706D01*
X-3595134Y23915134D01*
X-3780706Y23689014D01*
X-3810000Y23634209D01*
X-3839294Y23689014D01*
X-4024866Y23915134D01*
X-4250986Y24100706D01*
X-4508966Y24238599D01*
X-4788889Y24323513D01*
X-5007050Y24345000D01*
X-5152950Y24345000D01*
X-5371111Y24323513D01*
X-5651034Y24238599D01*
X-5909014Y24100706D01*
X-6135134Y23915134D01*
X-6320706Y23689014D01*
X-6350000Y23634209D01*
X-6379294Y23689014D01*
X-6564866Y23915134D01*
X-6790986Y24100706D01*
X-7048966Y24238599D01*
X-7328889Y24323513D01*
X-7547050Y24345000D01*
X-7692950Y24345000D01*
X-7911111Y24323513D01*
X-8191034Y24238599D01*
X-8449014Y24100706D01*
X-8675134Y23915134D01*
X-8860706Y23689014D01*
X-8890000Y23634209D01*
X-8919294Y23689014D01*
X-9104866Y23915134D01*
X-9330986Y24100706D01*
X-9588966Y24238599D01*
X-9868889Y24323513D01*
X-10087050Y24345000D01*
X-10232950Y24345000D01*
X-10451111Y24323513D01*
X-10731034Y24238599D01*
X-10989014Y24100706D01*
X-11215134Y23915134D01*
X-11400706Y23689014D01*
X-11430000Y23634209D01*
X-11459294Y23689014D01*
X-11644866Y23915134D01*
X-11870986Y24100706D01*
X-12128966Y24238599D01*
X-12408889Y24323513D01*
X-12627050Y24345000D01*
X-12772950Y24345000D01*
X-12991111Y24323513D01*
X-13271034Y24238599D01*
X-13529014Y24100706D01*
X-13755134Y23915134D01*
X-13940706Y23689014D01*
X-13975201Y23624477D01*
X-14044822Y23741355D01*
X-14239731Y23957588D01*
X-14473080Y24131641D01*
X-14735901Y24256825D01*
X-14883110Y24301476D01*
X-15113000Y24180155D01*
X-15113000Y22987000D01*
X-15093000Y22987000D01*
X-15093000Y22733000D01*
X-15113000Y22733000D01*
X-15113000Y22713000D01*
X-15367000Y22713000D01*
X-15367000Y22733000D01*
X-15387000Y22733000D01*
X-15387000Y22987000D01*
X-15367000Y22987000D01*
X-15367000Y24180155D01*
X-15596890Y24301476D01*
X-15744099Y24256825D01*
X-16006920Y24131641D01*
X-16240269Y23957588D01*
X-16435178Y23741355D01*
X-16504799Y23624477D01*
X-16539294Y23689014D01*
X-16724866Y23915134D01*
X-16950986Y24100706D01*
X-17208966Y24238599D01*
X-17488889Y24323513D01*
X-17707050Y24345000D01*
X-17852950Y24345000D01*
X-18071111Y24323513D01*
X-18351034Y24238599D01*
X-18609014Y24100706D01*
X-18835134Y23915134D01*
X-19020706Y23689014D01*
X-19050000Y23634209D01*
X-19079294Y23689014D01*
X-19264866Y23915134D01*
X-19490986Y24100706D01*
X-19748966Y24238599D01*
X-20028889Y24323513D01*
X-20247050Y24345000D01*
X-20392950Y24345000D01*
X-20611111Y24323513D01*
X-20891034Y24238599D01*
X-21149014Y24100706D01*
X-21375134Y23915134D01*
X-21560706Y23689014D01*
X-21590000Y23634209D01*
X-21619294Y23689014D01*
X-21804866Y23915134D01*
X-22030986Y24100706D01*
X-22288966Y24238599D01*
X-22568889Y24323513D01*
X-22787050Y24345000D01*
X-22932950Y24345000D01*
X-23151111Y24323513D01*
X-23431034Y24238599D01*
X-23689014Y24100706D01*
X-23915134Y23915134D01*
X-24100706Y23689014D01*
X-24130000Y23634209D01*
X-24159294Y23689014D01*
X-24344866Y23915134D01*
X-24570986Y24100706D01*
X-24828966Y24238599D01*
X-25108889Y24323513D01*
X-25327050Y24345000D01*
X-25472950Y24345000D01*
X-25691111Y24323513D01*
X-25971034Y24238599D01*
X-26229014Y24100706D01*
X-26455134Y23915134D01*
X-26640706Y23689014D01*
X-26670000Y23634209D01*
X-26699294Y23689014D01*
X-26884866Y23915134D01*
X-27110986Y24100706D01*
X-27368966Y24238599D01*
X-27648889Y24323513D01*
X-27867050Y24345000D01*
X-28012950Y24345000D01*
X-28231111Y24323513D01*
X-28511034Y24238599D01*
X-28769014Y24100706D01*
X-28995134Y23915134D01*
X-29180706Y23689014D01*
X-29215201Y23624477D01*
X-29284822Y23741355D01*
X-29479731Y23957588D01*
X-29713080Y24131641D01*
X-29975901Y24256825D01*
X-30123110Y24301476D01*
X-30353000Y24180155D01*
X-30607000Y24180155D01*
X-30836890Y24301476D01*
X-30984099Y24256825D01*
X-31246920Y24131641D01*
X-31480269Y23957588D01*
X-31675178Y23741355D01*
X-31824157Y23491252D01*
X-31921481Y23216891D01*
X-40207134Y23216891D01*
X-40212511Y23257439D01*
X-40322664Y23580966D01*
X-40428662Y23779274D01*
X-40703288Y23887107D01*
X-41730395Y22860000D01*
X-42089605Y22860000D01*
X-43116712Y23887107D01*
X-43391338Y23779274D01*
X-43542216Y23472616D01*
X-43630369Y23142415D01*
X-43652409Y22801361D01*
X-43790000Y22801361D01*
X-43790000Y24066712D01*
X-42937107Y24066712D01*
X-41910000Y23039605D01*
X-40882893Y24066712D01*
X-40990726Y24341338D01*
X-41297384Y24492216D01*
X-41627585Y24580369D01*
X-41968639Y24602409D01*
X-42307439Y24557489D01*
X-42630966Y24447336D01*
X-42829274Y24341338D01*
X-42937107Y24066712D01*
X-43790000Y24066712D01*
X-43790000Y24740000D01*
X21565000Y24740000D01*
X21565000Y24097582D01*
G36*
X-23895000Y-8356939D02*
G01*
X-23855226Y-8556898D01*
X-23777205Y-8745256D01*
X-23663937Y-8914774D01*
X-23620000Y-8958711D01*
X-23620000Y-9368116D01*
X-23692298Y-9346903D01*
X-24505395Y-10160000D01*
X-23692298Y-10973097D01*
X-23620000Y-10951884D01*
X-23619999Y-21910197D01*
X-27085235Y-25375433D01*
X-27111487Y-25108889D01*
X-27134203Y-25034004D01*
X-26741201Y-24641003D01*
X-26741199Y-24641000D01*
X-26158996Y-24058798D01*
X-26129999Y-24035001D01*
X-26035026Y-23919276D01*
X-25964454Y-23787247D01*
X-25920997Y-23643986D01*
X-25910000Y-23532333D01*
X-25910000Y-23532324D01*
X-25906324Y-23495001D01*
X-25910000Y-23457678D01*
X-25910000Y-11152702D01*
X-25498097Y-11152702D01*
X-25426514Y-11396671D01*
X-25171004Y-11517571D01*
X-24896816Y-11586300D01*
X-24614488Y-11600217D01*
X-24334870Y-11558787D01*
X-24068708Y-11463603D01*
X-23943486Y-11396671D01*
X-23871903Y-11152702D01*
X-24685000Y-10339605D01*
X-25498097Y-11152702D01*
X-25910000Y-11152702D01*
X-25910000Y-10904938D01*
X-25677702Y-10973097D01*
X-24864605Y-10160000D01*
X-25677702Y-9346903D01*
X-25910000Y-9415062D01*
X-25910000Y-9167298D01*
X-25498097Y-9167298D01*
X-24685000Y-9980395D01*
X-23871903Y-9167298D01*
X-23943486Y-8923329D01*
X-24198996Y-8802429D01*
X-24473184Y-8733700D01*
X-24755512Y-8719783D01*
X-25035130Y-8761213D01*
X-25301292Y-8856397D01*
X-25426514Y-8923329D01*
X-25498097Y-9167298D01*
X-25910000Y-9167298D01*
X-25910000Y-8958711D01*
X-25866063Y-8914774D01*
X-25752795Y-8745256D01*
X-25674774Y-8556898D01*
X-25635000Y-8356939D01*
X-25635000Y-8255000D01*
X-23895000Y-8255000D01*
X-23895000Y-8356939D01*
X-23895000Y-8356939D01*
G37*
X-23895000Y-8356939D02*
X-23855226Y-8556898D01*
X-23777205Y-8745256D01*
X-23663937Y-8914774D01*
X-23620000Y-8958711D01*
X-23620000Y-9368116D01*
X-23692298Y-9346903D01*
X-24505395Y-10160000D01*
X-23692298Y-10973097D01*
X-23620000Y-10951884D01*
X-23619999Y-21910197D01*
X-27085235Y-25375433D01*
X-27111487Y-25108889D01*
X-27134203Y-25034004D01*
X-26741201Y-24641003D01*
X-26741199Y-24641000D01*
X-26158996Y-24058798D01*
X-26129999Y-24035001D01*
X-26035026Y-23919276D01*
X-25964454Y-23787247D01*
X-25920997Y-23643986D01*
X-25910000Y-23532333D01*
X-25910000Y-23532324D01*
X-25906324Y-23495001D01*
X-25910000Y-23457678D01*
X-25910000Y-11152702D01*
X-25498097Y-11152702D01*
X-25426514Y-11396671D01*
X-25171004Y-11517571D01*
X-24896816Y-11586300D01*
X-24614488Y-11600217D01*
X-24334870Y-11558787D01*
X-24068708Y-11463603D01*
X-23943486Y-11396671D01*
X-23871903Y-11152702D01*
X-24685000Y-10339605D01*
X-25498097Y-11152702D01*
X-25910000Y-11152702D01*
X-25910000Y-10904938D01*
X-25677702Y-10973097D01*
X-24864605Y-10160000D01*
X-25677702Y-9346903D01*
X-25910000Y-9415062D01*
X-25910000Y-9167298D01*
X-25498097Y-9167298D01*
X-24685000Y-9980395D01*
X-23871903Y-9167298D01*
X-23943486Y-8923329D01*
X-24198996Y-8802429D01*
X-24473184Y-8733700D01*
X-24755512Y-8719783D01*
X-25035130Y-8761213D01*
X-25301292Y-8856397D01*
X-25426514Y-8923329D01*
X-25498097Y-9167298D01*
X-25910000Y-9167298D01*
X-25910000Y-8958711D01*
X-25866063Y-8914774D01*
X-25752795Y-8745256D01*
X-25674774Y-8556898D01*
X-25635000Y-8356939D01*
X-25635000Y-8255000D01*
X-23895000Y-8255000D01*
X-23895000Y-8356939D01*
G36*
X-8020000Y-8356935D02*
G01*
X-7980226Y-8556894D01*
X-7902205Y-8745252D01*
X-7788937Y-8914770D01*
X-7744999Y-8958708D01*
X-7744999Y-9368116D01*
X-7817298Y-9346903D01*
X-8630395Y-10160000D01*
X-7817298Y-10973097D01*
X-7744999Y-10951884D01*
X-7745000Y-21910198D01*
X-11210235Y-25375433D01*
X-11236487Y-25108889D01*
X-11259203Y-25034005D01*
X-10283997Y-24058799D01*
X-10254999Y-24035001D01*
X-10160026Y-23919276D01*
X-10089454Y-23787247D01*
X-10045997Y-23643986D01*
X-10035000Y-23532333D01*
X-10035000Y-23532323D01*
X-10031324Y-23495000D01*
X-10035000Y-23457677D01*
X-10035000Y-11152702D01*
X-9623097Y-11152702D01*
X-9551514Y-11396671D01*
X-9296004Y-11517571D01*
X-9021816Y-11586300D01*
X-8739488Y-11600217D01*
X-8459870Y-11558787D01*
X-8193708Y-11463603D01*
X-8068486Y-11396671D01*
X-7996903Y-11152702D01*
X-8810000Y-10339605D01*
X-9623097Y-11152702D01*
X-10035000Y-11152702D01*
X-10035000Y-10904938D01*
X-9802702Y-10973097D01*
X-8989605Y-10160000D01*
X-9802702Y-9346903D01*
X-10035000Y-9415062D01*
X-10035000Y-9167298D01*
X-9623097Y-9167298D01*
X-8810000Y-9980395D01*
X-7996903Y-9167298D01*
X-8068486Y-8923329D01*
X-8323996Y-8802429D01*
X-8598184Y-8733700D01*
X-8880512Y-8719783D01*
X-9160130Y-8761213D01*
X-9426292Y-8856397D01*
X-9551514Y-8923329D01*
X-9623097Y-9167298D01*
X-10035000Y-9167298D01*
X-10035000Y-8958711D01*
X-9991063Y-8914774D01*
X-9877795Y-8745256D01*
X-9799774Y-8556898D01*
X-9760000Y-8356939D01*
X-9760000Y-8255000D01*
X-8020000Y-8255000D01*
X-8020000Y-8356935D01*
X-8020000Y-8356935D01*
G37*
X-8020000Y-8356935D02*
X-7980226Y-8556894D01*
X-7902205Y-8745252D01*
X-7788937Y-8914770D01*
X-7744999Y-8958708D01*
X-7744999Y-9368116D01*
X-7817298Y-9346903D01*
X-8630395Y-10160000D01*
X-7817298Y-10973097D01*
X-7744999Y-10951884D01*
X-7745000Y-21910198D01*
X-11210235Y-25375433D01*
X-11236487Y-25108889D01*
X-11259203Y-25034005D01*
X-10283997Y-24058799D01*
X-10254999Y-24035001D01*
X-10160026Y-23919276D01*
X-10089454Y-23787247D01*
X-10045997Y-23643986D01*
X-10035000Y-23532333D01*
X-10035000Y-23532323D01*
X-10031324Y-23495000D01*
X-10035000Y-23457677D01*
X-10035000Y-11152702D01*
X-9623097Y-11152702D01*
X-9551514Y-11396671D01*
X-9296004Y-11517571D01*
X-9021816Y-11586300D01*
X-8739488Y-11600217D01*
X-8459870Y-11558787D01*
X-8193708Y-11463603D01*
X-8068486Y-11396671D01*
X-7996903Y-11152702D01*
X-8810000Y-10339605D01*
X-9623097Y-11152702D01*
X-10035000Y-11152702D01*
X-10035000Y-10904938D01*
X-9802702Y-10973097D01*
X-8989605Y-10160000D01*
X-9802702Y-9346903D01*
X-10035000Y-9415062D01*
X-10035000Y-9167298D01*
X-9623097Y-9167298D01*
X-8810000Y-9980395D01*
X-7996903Y-9167298D01*
X-8068486Y-8923329D01*
X-8323996Y-8802429D01*
X-8598184Y-8733700D01*
X-8880512Y-8719783D01*
X-9160130Y-8761213D01*
X-9426292Y-8856397D01*
X-9551514Y-8923329D01*
X-9623097Y-9167298D01*
X-10035000Y-9167298D01*
X-10035000Y-8958711D01*
X-9991063Y-8914774D01*
X-9877795Y-8745256D01*
X-9799774Y-8556898D01*
X-9760000Y-8356939D01*
X-9760000Y-8255000D01*
X-8020000Y-8255000D01*
X-8020000Y-8356935D01*
M02*
