G04 #@! TF.GenerationSoftware,KiCad,Pcbnew,(5.1.4-0-10_14)*
G04 #@! TF.CreationDate,2020-05-08T13:11:59-04:00*
G04 #@! TF.ProjectId,balancebot,62616c61-6e63-4656-926f-742e6b696361,0.4.5*
G04 #@! TF.SameCoordinates,Original*
G04 #@! TF.FileFunction,Soldermask,Top*
G04 #@! TF.FilePolarity,Negative*
%FSLAX46Y46*%
G04 Gerber Fmt 4.6, Leading zero omitted, Abs format (unit mm)*
G04 Created by KiCad (PCBNEW (5.1.4-0-10_14)) date 2020-05-08 13:11:59*
%MOMM*%
%LPD*%
G04 APERTURE LIST*
%ADD10C,0.100000*%
G04 APERTURE END LIST*
D10*
G36*
X162606943Y-105150519D02*
G01*
X162673127Y-105157037D01*
X162842966Y-105208557D01*
X162999491Y-105292222D01*
X163004868Y-105296635D01*
X163136686Y-105404814D01*
X163219948Y-105506271D01*
X163249278Y-105542009D01*
X163332943Y-105698534D01*
X163384463Y-105868373D01*
X163401859Y-106045000D01*
X163384463Y-106221627D01*
X163332943Y-106391466D01*
X163249278Y-106547991D01*
X163219948Y-106583729D01*
X163136686Y-106685186D01*
X163035229Y-106768448D01*
X162999491Y-106797778D01*
X162842966Y-106881443D01*
X162673127Y-106932963D01*
X162606942Y-106939482D01*
X162540760Y-106946000D01*
X162452240Y-106946000D01*
X162386058Y-106939482D01*
X162319873Y-106932963D01*
X162150034Y-106881443D01*
X161993509Y-106797778D01*
X161957771Y-106768448D01*
X161856314Y-106685186D01*
X161773052Y-106583729D01*
X161743722Y-106547991D01*
X161660057Y-106391466D01*
X161608537Y-106221627D01*
X161591141Y-106045000D01*
X161608537Y-105868373D01*
X161660057Y-105698534D01*
X161743722Y-105542009D01*
X161773052Y-105506271D01*
X161856314Y-105404814D01*
X161988132Y-105296635D01*
X161993509Y-105292222D01*
X162150034Y-105208557D01*
X162319873Y-105157037D01*
X162386058Y-105150518D01*
X162452240Y-105144000D01*
X162540760Y-105144000D01*
X162606943Y-105150519D01*
X162606943Y-105150519D01*
G37*
G36*
X160066943Y-105150519D02*
G01*
X160133127Y-105157037D01*
X160302966Y-105208557D01*
X160459491Y-105292222D01*
X160464868Y-105296635D01*
X160596686Y-105404814D01*
X160679948Y-105506271D01*
X160709278Y-105542009D01*
X160792943Y-105698534D01*
X160844463Y-105868373D01*
X160861859Y-106045000D01*
X160844463Y-106221627D01*
X160792943Y-106391466D01*
X160709278Y-106547991D01*
X160679948Y-106583729D01*
X160596686Y-106685186D01*
X160495229Y-106768448D01*
X160459491Y-106797778D01*
X160302966Y-106881443D01*
X160133127Y-106932963D01*
X160066942Y-106939482D01*
X160000760Y-106946000D01*
X159912240Y-106946000D01*
X159846058Y-106939482D01*
X159779873Y-106932963D01*
X159610034Y-106881443D01*
X159453509Y-106797778D01*
X159417771Y-106768448D01*
X159316314Y-106685186D01*
X159233052Y-106583729D01*
X159203722Y-106547991D01*
X159120057Y-106391466D01*
X159068537Y-106221627D01*
X159051141Y-106045000D01*
X159068537Y-105868373D01*
X159120057Y-105698534D01*
X159203722Y-105542009D01*
X159233052Y-105506271D01*
X159316314Y-105404814D01*
X159448132Y-105296635D01*
X159453509Y-105292222D01*
X159610034Y-105208557D01*
X159779873Y-105157037D01*
X159846058Y-105150518D01*
X159912240Y-105144000D01*
X160000760Y-105144000D01*
X160066943Y-105150519D01*
X160066943Y-105150519D01*
G37*
G36*
X158317500Y-106946000D02*
G01*
X156515500Y-106946000D01*
X156515500Y-105144000D01*
X158317500Y-105144000D01*
X158317500Y-106946000D01*
X158317500Y-106946000D01*
G37*
G36*
X149970443Y-105150519D02*
G01*
X150036627Y-105157037D01*
X150206466Y-105208557D01*
X150362991Y-105292222D01*
X150368368Y-105296635D01*
X150500186Y-105404814D01*
X150583448Y-105506271D01*
X150612778Y-105542009D01*
X150696443Y-105698534D01*
X150747963Y-105868373D01*
X150765359Y-106045000D01*
X150747963Y-106221627D01*
X150696443Y-106391466D01*
X150612778Y-106547991D01*
X150583448Y-106583729D01*
X150500186Y-106685186D01*
X150398729Y-106768448D01*
X150362991Y-106797778D01*
X150206466Y-106881443D01*
X150036627Y-106932963D01*
X149970442Y-106939482D01*
X149904260Y-106946000D01*
X149815740Y-106946000D01*
X149749558Y-106939482D01*
X149683373Y-106932963D01*
X149513534Y-106881443D01*
X149357009Y-106797778D01*
X149321271Y-106768448D01*
X149219814Y-106685186D01*
X149136552Y-106583729D01*
X149107222Y-106547991D01*
X149023557Y-106391466D01*
X148972037Y-106221627D01*
X148954641Y-106045000D01*
X148972037Y-105868373D01*
X149023557Y-105698534D01*
X149107222Y-105542009D01*
X149136552Y-105506271D01*
X149219814Y-105404814D01*
X149351632Y-105296635D01*
X149357009Y-105292222D01*
X149513534Y-105208557D01*
X149683373Y-105157037D01*
X149749558Y-105150518D01*
X149815740Y-105144000D01*
X149904260Y-105144000D01*
X149970443Y-105150519D01*
X149970443Y-105150519D01*
G37*
G36*
X147430443Y-105150519D02*
G01*
X147496627Y-105157037D01*
X147666466Y-105208557D01*
X147822991Y-105292222D01*
X147828368Y-105296635D01*
X147960186Y-105404814D01*
X148043448Y-105506271D01*
X148072778Y-105542009D01*
X148156443Y-105698534D01*
X148207963Y-105868373D01*
X148225359Y-106045000D01*
X148207963Y-106221627D01*
X148156443Y-106391466D01*
X148072778Y-106547991D01*
X148043448Y-106583729D01*
X147960186Y-106685186D01*
X147858729Y-106768448D01*
X147822991Y-106797778D01*
X147666466Y-106881443D01*
X147496627Y-106932963D01*
X147430442Y-106939482D01*
X147364260Y-106946000D01*
X147275740Y-106946000D01*
X147209558Y-106939482D01*
X147143373Y-106932963D01*
X146973534Y-106881443D01*
X146817009Y-106797778D01*
X146781271Y-106768448D01*
X146679814Y-106685186D01*
X146596552Y-106583729D01*
X146567222Y-106547991D01*
X146483557Y-106391466D01*
X146432037Y-106221627D01*
X146414641Y-106045000D01*
X146432037Y-105868373D01*
X146483557Y-105698534D01*
X146567222Y-105542009D01*
X146596552Y-105506271D01*
X146679814Y-105404814D01*
X146811632Y-105296635D01*
X146817009Y-105292222D01*
X146973534Y-105208557D01*
X147143373Y-105157037D01*
X147209558Y-105150518D01*
X147275740Y-105144000D01*
X147364260Y-105144000D01*
X147430443Y-105150519D01*
X147430443Y-105150519D01*
G37*
G36*
X144890443Y-105150519D02*
G01*
X144956627Y-105157037D01*
X145126466Y-105208557D01*
X145282991Y-105292222D01*
X145288368Y-105296635D01*
X145420186Y-105404814D01*
X145503448Y-105506271D01*
X145532778Y-105542009D01*
X145616443Y-105698534D01*
X145667963Y-105868373D01*
X145685359Y-106045000D01*
X145667963Y-106221627D01*
X145616443Y-106391466D01*
X145532778Y-106547991D01*
X145503448Y-106583729D01*
X145420186Y-106685186D01*
X145318729Y-106768448D01*
X145282991Y-106797778D01*
X145126466Y-106881443D01*
X144956627Y-106932963D01*
X144890442Y-106939482D01*
X144824260Y-106946000D01*
X144735740Y-106946000D01*
X144669558Y-106939482D01*
X144603373Y-106932963D01*
X144433534Y-106881443D01*
X144277009Y-106797778D01*
X144241271Y-106768448D01*
X144139814Y-106685186D01*
X144056552Y-106583729D01*
X144027222Y-106547991D01*
X143943557Y-106391466D01*
X143892037Y-106221627D01*
X143874641Y-106045000D01*
X143892037Y-105868373D01*
X143943557Y-105698534D01*
X144027222Y-105542009D01*
X144056552Y-105506271D01*
X144139814Y-105404814D01*
X144271632Y-105296635D01*
X144277009Y-105292222D01*
X144433534Y-105208557D01*
X144603373Y-105157037D01*
X144669558Y-105150518D01*
X144735740Y-105144000D01*
X144824260Y-105144000D01*
X144890443Y-105150519D01*
X144890443Y-105150519D01*
G37*
G36*
X143141000Y-106946000D02*
G01*
X141339000Y-106946000D01*
X141339000Y-105144000D01*
X143141000Y-105144000D01*
X143141000Y-106946000D01*
X143141000Y-106946000D01*
G37*
G36*
X132571443Y-105150519D02*
G01*
X132637627Y-105157037D01*
X132807466Y-105208557D01*
X132963991Y-105292222D01*
X132969368Y-105296635D01*
X133101186Y-105404814D01*
X133184448Y-105506271D01*
X133213778Y-105542009D01*
X133297443Y-105698534D01*
X133348963Y-105868373D01*
X133366359Y-106045000D01*
X133348963Y-106221627D01*
X133297443Y-106391466D01*
X133213778Y-106547991D01*
X133184448Y-106583729D01*
X133101186Y-106685186D01*
X132999729Y-106768448D01*
X132963991Y-106797778D01*
X132807466Y-106881443D01*
X132637627Y-106932963D01*
X132571442Y-106939482D01*
X132505260Y-106946000D01*
X132416740Y-106946000D01*
X132350558Y-106939482D01*
X132284373Y-106932963D01*
X132114534Y-106881443D01*
X131958009Y-106797778D01*
X131922271Y-106768448D01*
X131820814Y-106685186D01*
X131737552Y-106583729D01*
X131708222Y-106547991D01*
X131624557Y-106391466D01*
X131573037Y-106221627D01*
X131555641Y-106045000D01*
X131573037Y-105868373D01*
X131624557Y-105698534D01*
X131708222Y-105542009D01*
X131737552Y-105506271D01*
X131820814Y-105404814D01*
X131952632Y-105296635D01*
X131958009Y-105292222D01*
X132114534Y-105208557D01*
X132284373Y-105157037D01*
X132350558Y-105150518D01*
X132416740Y-105144000D01*
X132505260Y-105144000D01*
X132571443Y-105150519D01*
X132571443Y-105150519D01*
G37*
G36*
X130031443Y-105150519D02*
G01*
X130097627Y-105157037D01*
X130267466Y-105208557D01*
X130423991Y-105292222D01*
X130429368Y-105296635D01*
X130561186Y-105404814D01*
X130644448Y-105506271D01*
X130673778Y-105542009D01*
X130757443Y-105698534D01*
X130808963Y-105868373D01*
X130826359Y-106045000D01*
X130808963Y-106221627D01*
X130757443Y-106391466D01*
X130673778Y-106547991D01*
X130644448Y-106583729D01*
X130561186Y-106685186D01*
X130459729Y-106768448D01*
X130423991Y-106797778D01*
X130267466Y-106881443D01*
X130097627Y-106932963D01*
X130031442Y-106939482D01*
X129965260Y-106946000D01*
X129876740Y-106946000D01*
X129810558Y-106939482D01*
X129744373Y-106932963D01*
X129574534Y-106881443D01*
X129418009Y-106797778D01*
X129382271Y-106768448D01*
X129280814Y-106685186D01*
X129197552Y-106583729D01*
X129168222Y-106547991D01*
X129084557Y-106391466D01*
X129033037Y-106221627D01*
X129015641Y-106045000D01*
X129033037Y-105868373D01*
X129084557Y-105698534D01*
X129168222Y-105542009D01*
X129197552Y-105506271D01*
X129280814Y-105404814D01*
X129412632Y-105296635D01*
X129418009Y-105292222D01*
X129574534Y-105208557D01*
X129744373Y-105157037D01*
X129810558Y-105150518D01*
X129876740Y-105144000D01*
X129965260Y-105144000D01*
X130031443Y-105150519D01*
X130031443Y-105150519D01*
G37*
G36*
X127491443Y-105150519D02*
G01*
X127557627Y-105157037D01*
X127727466Y-105208557D01*
X127883991Y-105292222D01*
X127889368Y-105296635D01*
X128021186Y-105404814D01*
X128104448Y-105506271D01*
X128133778Y-105542009D01*
X128217443Y-105698534D01*
X128268963Y-105868373D01*
X128286359Y-106045000D01*
X128268963Y-106221627D01*
X128217443Y-106391466D01*
X128133778Y-106547991D01*
X128104448Y-106583729D01*
X128021186Y-106685186D01*
X127919729Y-106768448D01*
X127883991Y-106797778D01*
X127727466Y-106881443D01*
X127557627Y-106932963D01*
X127491442Y-106939482D01*
X127425260Y-106946000D01*
X127336740Y-106946000D01*
X127270558Y-106939482D01*
X127204373Y-106932963D01*
X127034534Y-106881443D01*
X126878009Y-106797778D01*
X126842271Y-106768448D01*
X126740814Y-106685186D01*
X126657552Y-106583729D01*
X126628222Y-106547991D01*
X126544557Y-106391466D01*
X126493037Y-106221627D01*
X126475641Y-106045000D01*
X126493037Y-105868373D01*
X126544557Y-105698534D01*
X126628222Y-105542009D01*
X126657552Y-105506271D01*
X126740814Y-105404814D01*
X126872632Y-105296635D01*
X126878009Y-105292222D01*
X127034534Y-105208557D01*
X127204373Y-105157037D01*
X127270558Y-105150518D01*
X127336740Y-105144000D01*
X127425260Y-105144000D01*
X127491443Y-105150519D01*
X127491443Y-105150519D01*
G37*
G36*
X125742000Y-106946000D02*
G01*
X123940000Y-106946000D01*
X123940000Y-105144000D01*
X125742000Y-105144000D01*
X125742000Y-106946000D01*
X125742000Y-106946000D01*
G37*
G36*
X167483549Y-104281116D02*
G01*
X167594734Y-104303232D01*
X167804203Y-104389997D01*
X167992720Y-104515960D01*
X168153040Y-104676280D01*
X168279003Y-104864797D01*
X168365768Y-105074266D01*
X168410000Y-105296636D01*
X168410000Y-105523364D01*
X168365768Y-105745734D01*
X168279003Y-105955203D01*
X168153040Y-106143720D01*
X167992720Y-106304040D01*
X167804203Y-106430003D01*
X167594734Y-106516768D01*
X167483549Y-106538884D01*
X167372365Y-106561000D01*
X167145635Y-106561000D01*
X167034451Y-106538884D01*
X166923266Y-106516768D01*
X166713797Y-106430003D01*
X166525280Y-106304040D01*
X166364960Y-106143720D01*
X166238997Y-105955203D01*
X166152232Y-105745734D01*
X166108000Y-105523364D01*
X166108000Y-105296636D01*
X166152232Y-105074266D01*
X166238997Y-104864797D01*
X166364960Y-104676280D01*
X166525280Y-104515960D01*
X166713797Y-104389997D01*
X166923266Y-104303232D01*
X167034451Y-104281116D01*
X167145635Y-104259000D01*
X167372365Y-104259000D01*
X167483549Y-104281116D01*
X167483549Y-104281116D01*
G37*
G36*
X110206549Y-104281116D02*
G01*
X110317734Y-104303232D01*
X110527203Y-104389997D01*
X110715720Y-104515960D01*
X110876040Y-104676280D01*
X111002003Y-104864797D01*
X111088768Y-105074266D01*
X111133000Y-105296636D01*
X111133000Y-105523364D01*
X111088768Y-105745734D01*
X111002003Y-105955203D01*
X110876040Y-106143720D01*
X110715720Y-106304040D01*
X110527203Y-106430003D01*
X110317734Y-106516768D01*
X110206549Y-106538884D01*
X110095365Y-106561000D01*
X109868635Y-106561000D01*
X109757451Y-106538884D01*
X109646266Y-106516768D01*
X109436797Y-106430003D01*
X109248280Y-106304040D01*
X109087960Y-106143720D01*
X108961997Y-105955203D01*
X108875232Y-105745734D01*
X108831000Y-105523364D01*
X108831000Y-105296636D01*
X108875232Y-105074266D01*
X108961997Y-104864797D01*
X109087960Y-104676280D01*
X109248280Y-104515960D01*
X109436797Y-104389997D01*
X109646266Y-104303232D01*
X109757451Y-104281116D01*
X109868635Y-104259000D01*
X110095365Y-104259000D01*
X110206549Y-104281116D01*
X110206549Y-104281116D01*
G37*
G36*
X122411443Y-100959519D02*
G01*
X122477627Y-100966037D01*
X122647466Y-101017557D01*
X122803991Y-101101222D01*
X122839729Y-101130552D01*
X122941186Y-101213814D01*
X123024448Y-101315271D01*
X123053778Y-101351009D01*
X123137443Y-101507534D01*
X123188963Y-101677373D01*
X123206359Y-101854000D01*
X123188963Y-102030627D01*
X123137443Y-102200466D01*
X123053778Y-102356991D01*
X123024448Y-102392729D01*
X122941186Y-102494186D01*
X122839729Y-102577448D01*
X122803991Y-102606778D01*
X122647466Y-102690443D01*
X122477627Y-102741963D01*
X122411442Y-102748482D01*
X122345260Y-102755000D01*
X122256740Y-102755000D01*
X122190557Y-102748481D01*
X122124373Y-102741963D01*
X121954534Y-102690443D01*
X121798009Y-102606778D01*
X121762271Y-102577448D01*
X121660814Y-102494186D01*
X121577552Y-102392729D01*
X121548222Y-102356991D01*
X121464557Y-102200466D01*
X121413037Y-102030627D01*
X121395641Y-101854000D01*
X121413037Y-101677373D01*
X121464557Y-101507534D01*
X121548222Y-101351009D01*
X121577552Y-101315271D01*
X121660814Y-101213814D01*
X121762271Y-101130552D01*
X121798009Y-101101222D01*
X121954534Y-101017557D01*
X122124373Y-100966037D01*
X122190558Y-100959518D01*
X122256740Y-100953000D01*
X122345260Y-100953000D01*
X122411443Y-100959519D01*
X122411443Y-100959519D01*
G37*
G36*
X135111443Y-100959519D02*
G01*
X135177627Y-100966037D01*
X135347466Y-101017557D01*
X135503991Y-101101222D01*
X135539729Y-101130552D01*
X135641186Y-101213814D01*
X135724448Y-101315271D01*
X135753778Y-101351009D01*
X135837443Y-101507534D01*
X135888963Y-101677373D01*
X135906359Y-101854000D01*
X135888963Y-102030627D01*
X135837443Y-102200466D01*
X135753778Y-102356991D01*
X135724448Y-102392729D01*
X135641186Y-102494186D01*
X135539729Y-102577448D01*
X135503991Y-102606778D01*
X135347466Y-102690443D01*
X135177627Y-102741963D01*
X135111442Y-102748482D01*
X135045260Y-102755000D01*
X134956740Y-102755000D01*
X134890557Y-102748481D01*
X134824373Y-102741963D01*
X134654534Y-102690443D01*
X134498009Y-102606778D01*
X134462271Y-102577448D01*
X134360814Y-102494186D01*
X134277552Y-102392729D01*
X134248222Y-102356991D01*
X134164557Y-102200466D01*
X134113037Y-102030627D01*
X134095641Y-101854000D01*
X134113037Y-101677373D01*
X134164557Y-101507534D01*
X134248222Y-101351009D01*
X134277552Y-101315271D01*
X134360814Y-101213814D01*
X134462271Y-101130552D01*
X134498009Y-101101222D01*
X134654534Y-101017557D01*
X134824373Y-100966037D01*
X134890558Y-100959518D01*
X134956740Y-100953000D01*
X135045260Y-100953000D01*
X135111443Y-100959519D01*
X135111443Y-100959519D01*
G37*
G36*
X139810443Y-100959519D02*
G01*
X139876627Y-100966037D01*
X140046466Y-101017557D01*
X140202991Y-101101222D01*
X140238729Y-101130552D01*
X140340186Y-101213814D01*
X140423448Y-101315271D01*
X140452778Y-101351009D01*
X140536443Y-101507534D01*
X140587963Y-101677373D01*
X140605359Y-101854000D01*
X140587963Y-102030627D01*
X140536443Y-102200466D01*
X140452778Y-102356991D01*
X140423448Y-102392729D01*
X140340186Y-102494186D01*
X140238729Y-102577448D01*
X140202991Y-102606778D01*
X140046466Y-102690443D01*
X139876627Y-102741963D01*
X139810442Y-102748482D01*
X139744260Y-102755000D01*
X139655740Y-102755000D01*
X139589557Y-102748481D01*
X139523373Y-102741963D01*
X139353534Y-102690443D01*
X139197009Y-102606778D01*
X139161271Y-102577448D01*
X139059814Y-102494186D01*
X138976552Y-102392729D01*
X138947222Y-102356991D01*
X138863557Y-102200466D01*
X138812037Y-102030627D01*
X138794641Y-101854000D01*
X138812037Y-101677373D01*
X138863557Y-101507534D01*
X138947222Y-101351009D01*
X138976552Y-101315271D01*
X139059814Y-101213814D01*
X139161271Y-101130552D01*
X139197009Y-101101222D01*
X139353534Y-101017557D01*
X139523373Y-100966037D01*
X139589558Y-100959518D01*
X139655740Y-100953000D01*
X139744260Y-100953000D01*
X139810443Y-100959519D01*
X139810443Y-100959519D01*
G37*
G36*
X152510443Y-100959519D02*
G01*
X152576627Y-100966037D01*
X152746466Y-101017557D01*
X152902991Y-101101222D01*
X152938729Y-101130552D01*
X153040186Y-101213814D01*
X153123448Y-101315271D01*
X153152778Y-101351009D01*
X153236443Y-101507534D01*
X153287963Y-101677373D01*
X153305359Y-101854000D01*
X153287963Y-102030627D01*
X153236443Y-102200466D01*
X153152778Y-102356991D01*
X153123448Y-102392729D01*
X153040186Y-102494186D01*
X152938729Y-102577448D01*
X152902991Y-102606778D01*
X152746466Y-102690443D01*
X152576627Y-102741963D01*
X152510442Y-102748482D01*
X152444260Y-102755000D01*
X152355740Y-102755000D01*
X152289557Y-102748481D01*
X152223373Y-102741963D01*
X152053534Y-102690443D01*
X151897009Y-102606778D01*
X151861271Y-102577448D01*
X151759814Y-102494186D01*
X151676552Y-102392729D01*
X151647222Y-102356991D01*
X151563557Y-102200466D01*
X151512037Y-102030627D01*
X151494641Y-101854000D01*
X151512037Y-101677373D01*
X151563557Y-101507534D01*
X151647222Y-101351009D01*
X151676552Y-101315271D01*
X151759814Y-101213814D01*
X151861271Y-101130552D01*
X151897009Y-101101222D01*
X152053534Y-101017557D01*
X152223373Y-100966037D01*
X152289558Y-100959518D01*
X152355740Y-100953000D01*
X152444260Y-100953000D01*
X152510443Y-100959519D01*
X152510443Y-100959519D01*
G37*
G36*
X122411443Y-98419519D02*
G01*
X122477627Y-98426037D01*
X122647466Y-98477557D01*
X122803991Y-98561222D01*
X122839729Y-98590552D01*
X122941186Y-98673814D01*
X123024448Y-98775271D01*
X123053778Y-98811009D01*
X123137443Y-98967534D01*
X123188963Y-99137373D01*
X123206359Y-99314000D01*
X123188963Y-99490627D01*
X123137443Y-99660466D01*
X123053778Y-99816991D01*
X123024448Y-99852729D01*
X122941186Y-99954186D01*
X122839729Y-100037448D01*
X122803991Y-100066778D01*
X122647466Y-100150443D01*
X122477627Y-100201963D01*
X122411442Y-100208482D01*
X122345260Y-100215000D01*
X122256740Y-100215000D01*
X122190558Y-100208482D01*
X122124373Y-100201963D01*
X121954534Y-100150443D01*
X121798009Y-100066778D01*
X121762271Y-100037448D01*
X121660814Y-99954186D01*
X121577552Y-99852729D01*
X121548222Y-99816991D01*
X121464557Y-99660466D01*
X121413037Y-99490627D01*
X121395641Y-99314000D01*
X121413037Y-99137373D01*
X121464557Y-98967534D01*
X121548222Y-98811009D01*
X121577552Y-98775271D01*
X121660814Y-98673814D01*
X121762271Y-98590552D01*
X121798009Y-98561222D01*
X121954534Y-98477557D01*
X122124373Y-98426037D01*
X122190557Y-98419519D01*
X122256740Y-98413000D01*
X122345260Y-98413000D01*
X122411443Y-98419519D01*
X122411443Y-98419519D01*
G37*
G36*
X135111443Y-98419519D02*
G01*
X135177627Y-98426037D01*
X135347466Y-98477557D01*
X135503991Y-98561222D01*
X135539729Y-98590552D01*
X135641186Y-98673814D01*
X135724448Y-98775271D01*
X135753778Y-98811009D01*
X135837443Y-98967534D01*
X135888963Y-99137373D01*
X135906359Y-99314000D01*
X135888963Y-99490627D01*
X135837443Y-99660466D01*
X135753778Y-99816991D01*
X135724448Y-99852729D01*
X135641186Y-99954186D01*
X135539729Y-100037448D01*
X135503991Y-100066778D01*
X135347466Y-100150443D01*
X135177627Y-100201963D01*
X135111442Y-100208482D01*
X135045260Y-100215000D01*
X134956740Y-100215000D01*
X134890558Y-100208482D01*
X134824373Y-100201963D01*
X134654534Y-100150443D01*
X134498009Y-100066778D01*
X134462271Y-100037448D01*
X134360814Y-99954186D01*
X134277552Y-99852729D01*
X134248222Y-99816991D01*
X134164557Y-99660466D01*
X134113037Y-99490627D01*
X134095641Y-99314000D01*
X134113037Y-99137373D01*
X134164557Y-98967534D01*
X134248222Y-98811009D01*
X134277552Y-98775271D01*
X134360814Y-98673814D01*
X134462271Y-98590552D01*
X134498009Y-98561222D01*
X134654534Y-98477557D01*
X134824373Y-98426037D01*
X134890557Y-98419519D01*
X134956740Y-98413000D01*
X135045260Y-98413000D01*
X135111443Y-98419519D01*
X135111443Y-98419519D01*
G37*
G36*
X139810443Y-98419519D02*
G01*
X139876627Y-98426037D01*
X140046466Y-98477557D01*
X140202991Y-98561222D01*
X140238729Y-98590552D01*
X140340186Y-98673814D01*
X140423448Y-98775271D01*
X140452778Y-98811009D01*
X140536443Y-98967534D01*
X140587963Y-99137373D01*
X140605359Y-99314000D01*
X140587963Y-99490627D01*
X140536443Y-99660466D01*
X140452778Y-99816991D01*
X140423448Y-99852729D01*
X140340186Y-99954186D01*
X140238729Y-100037448D01*
X140202991Y-100066778D01*
X140046466Y-100150443D01*
X139876627Y-100201963D01*
X139810442Y-100208482D01*
X139744260Y-100215000D01*
X139655740Y-100215000D01*
X139589558Y-100208482D01*
X139523373Y-100201963D01*
X139353534Y-100150443D01*
X139197009Y-100066778D01*
X139161271Y-100037448D01*
X139059814Y-99954186D01*
X138976552Y-99852729D01*
X138947222Y-99816991D01*
X138863557Y-99660466D01*
X138812037Y-99490627D01*
X138794641Y-99314000D01*
X138812037Y-99137373D01*
X138863557Y-98967534D01*
X138947222Y-98811009D01*
X138976552Y-98775271D01*
X139059814Y-98673814D01*
X139161271Y-98590552D01*
X139197009Y-98561222D01*
X139353534Y-98477557D01*
X139523373Y-98426037D01*
X139589557Y-98419519D01*
X139655740Y-98413000D01*
X139744260Y-98413000D01*
X139810443Y-98419519D01*
X139810443Y-98419519D01*
G37*
G36*
X152510443Y-98419519D02*
G01*
X152576627Y-98426037D01*
X152746466Y-98477557D01*
X152902991Y-98561222D01*
X152938729Y-98590552D01*
X153040186Y-98673814D01*
X153123448Y-98775271D01*
X153152778Y-98811009D01*
X153236443Y-98967534D01*
X153287963Y-99137373D01*
X153305359Y-99314000D01*
X153287963Y-99490627D01*
X153236443Y-99660466D01*
X153152778Y-99816991D01*
X153123448Y-99852729D01*
X153040186Y-99954186D01*
X152938729Y-100037448D01*
X152902991Y-100066778D01*
X152746466Y-100150443D01*
X152576627Y-100201963D01*
X152510442Y-100208482D01*
X152444260Y-100215000D01*
X152355740Y-100215000D01*
X152289558Y-100208482D01*
X152223373Y-100201963D01*
X152053534Y-100150443D01*
X151897009Y-100066778D01*
X151861271Y-100037448D01*
X151759814Y-99954186D01*
X151676552Y-99852729D01*
X151647222Y-99816991D01*
X151563557Y-99660466D01*
X151512037Y-99490627D01*
X151494641Y-99314000D01*
X151512037Y-99137373D01*
X151563557Y-98967534D01*
X151647222Y-98811009D01*
X151676552Y-98775271D01*
X151759814Y-98673814D01*
X151861271Y-98590552D01*
X151897009Y-98561222D01*
X152053534Y-98477557D01*
X152223373Y-98426037D01*
X152289557Y-98419519D01*
X152355740Y-98413000D01*
X152444260Y-98413000D01*
X152510443Y-98419519D01*
X152510443Y-98419519D01*
G37*
G36*
X114537443Y-96514519D02*
G01*
X114603627Y-96521037D01*
X114773466Y-96572557D01*
X114929991Y-96656222D01*
X114965729Y-96685552D01*
X115067186Y-96768814D01*
X115150448Y-96870271D01*
X115179778Y-96906009D01*
X115263443Y-97062534D01*
X115314963Y-97232373D01*
X115332359Y-97409000D01*
X115314963Y-97585627D01*
X115263443Y-97755466D01*
X115179778Y-97911991D01*
X115150448Y-97947729D01*
X115067186Y-98049186D01*
X114965729Y-98132448D01*
X114929991Y-98161778D01*
X114773466Y-98245443D01*
X114603627Y-98296963D01*
X114537443Y-98303481D01*
X114471260Y-98310000D01*
X114382740Y-98310000D01*
X114316557Y-98303481D01*
X114250373Y-98296963D01*
X114080534Y-98245443D01*
X113924009Y-98161778D01*
X113888271Y-98132448D01*
X113786814Y-98049186D01*
X113703552Y-97947729D01*
X113674222Y-97911991D01*
X113590557Y-97755466D01*
X113539037Y-97585627D01*
X113521641Y-97409000D01*
X113539037Y-97232373D01*
X113590557Y-97062534D01*
X113674222Y-96906009D01*
X113703552Y-96870271D01*
X113786814Y-96768814D01*
X113888271Y-96685552D01*
X113924009Y-96656222D01*
X114080534Y-96572557D01*
X114250373Y-96521037D01*
X114316557Y-96514519D01*
X114382740Y-96508000D01*
X114471260Y-96508000D01*
X114537443Y-96514519D01*
X114537443Y-96514519D01*
G37*
G36*
X152510442Y-95879518D02*
G01*
X152576627Y-95886037D01*
X152746466Y-95937557D01*
X152902991Y-96021222D01*
X152938729Y-96050552D01*
X153040186Y-96133814D01*
X153123448Y-96235271D01*
X153152778Y-96271009D01*
X153236443Y-96427534D01*
X153287963Y-96597373D01*
X153305359Y-96774000D01*
X153287963Y-96950627D01*
X153236443Y-97120466D01*
X153152778Y-97276991D01*
X153123448Y-97312729D01*
X153040186Y-97414186D01*
X152938729Y-97497448D01*
X152902991Y-97526778D01*
X152746466Y-97610443D01*
X152576627Y-97661963D01*
X152510443Y-97668481D01*
X152444260Y-97675000D01*
X152355740Y-97675000D01*
X152289557Y-97668481D01*
X152223373Y-97661963D01*
X152053534Y-97610443D01*
X151897009Y-97526778D01*
X151861271Y-97497448D01*
X151759814Y-97414186D01*
X151676552Y-97312729D01*
X151647222Y-97276991D01*
X151563557Y-97120466D01*
X151512037Y-96950627D01*
X151494641Y-96774000D01*
X151512037Y-96597373D01*
X151563557Y-96427534D01*
X151647222Y-96271009D01*
X151676552Y-96235271D01*
X151759814Y-96133814D01*
X151861271Y-96050552D01*
X151897009Y-96021222D01*
X152053534Y-95937557D01*
X152223373Y-95886037D01*
X152289557Y-95879519D01*
X152355740Y-95873000D01*
X152444260Y-95873000D01*
X152510442Y-95879518D01*
X152510442Y-95879518D01*
G37*
G36*
X139810442Y-95879518D02*
G01*
X139876627Y-95886037D01*
X140046466Y-95937557D01*
X140202991Y-96021222D01*
X140238729Y-96050552D01*
X140340186Y-96133814D01*
X140423448Y-96235271D01*
X140452778Y-96271009D01*
X140536443Y-96427534D01*
X140587963Y-96597373D01*
X140605359Y-96774000D01*
X140587963Y-96950627D01*
X140536443Y-97120466D01*
X140452778Y-97276991D01*
X140423448Y-97312729D01*
X140340186Y-97414186D01*
X140238729Y-97497448D01*
X140202991Y-97526778D01*
X140046466Y-97610443D01*
X139876627Y-97661963D01*
X139810443Y-97668481D01*
X139744260Y-97675000D01*
X139655740Y-97675000D01*
X139589557Y-97668481D01*
X139523373Y-97661963D01*
X139353534Y-97610443D01*
X139197009Y-97526778D01*
X139161271Y-97497448D01*
X139059814Y-97414186D01*
X138976552Y-97312729D01*
X138947222Y-97276991D01*
X138863557Y-97120466D01*
X138812037Y-96950627D01*
X138794641Y-96774000D01*
X138812037Y-96597373D01*
X138863557Y-96427534D01*
X138947222Y-96271009D01*
X138976552Y-96235271D01*
X139059814Y-96133814D01*
X139161271Y-96050552D01*
X139197009Y-96021222D01*
X139353534Y-95937557D01*
X139523373Y-95886037D01*
X139589557Y-95879519D01*
X139655740Y-95873000D01*
X139744260Y-95873000D01*
X139810442Y-95879518D01*
X139810442Y-95879518D01*
G37*
G36*
X135111442Y-95879518D02*
G01*
X135177627Y-95886037D01*
X135347466Y-95937557D01*
X135503991Y-96021222D01*
X135539729Y-96050552D01*
X135641186Y-96133814D01*
X135724448Y-96235271D01*
X135753778Y-96271009D01*
X135837443Y-96427534D01*
X135888963Y-96597373D01*
X135906359Y-96774000D01*
X135888963Y-96950627D01*
X135837443Y-97120466D01*
X135753778Y-97276991D01*
X135724448Y-97312729D01*
X135641186Y-97414186D01*
X135539729Y-97497448D01*
X135503991Y-97526778D01*
X135347466Y-97610443D01*
X135177627Y-97661963D01*
X135111443Y-97668481D01*
X135045260Y-97675000D01*
X134956740Y-97675000D01*
X134890557Y-97668481D01*
X134824373Y-97661963D01*
X134654534Y-97610443D01*
X134498009Y-97526778D01*
X134462271Y-97497448D01*
X134360814Y-97414186D01*
X134277552Y-97312729D01*
X134248222Y-97276991D01*
X134164557Y-97120466D01*
X134113037Y-96950627D01*
X134095641Y-96774000D01*
X134113037Y-96597373D01*
X134164557Y-96427534D01*
X134248222Y-96271009D01*
X134277552Y-96235271D01*
X134360814Y-96133814D01*
X134462271Y-96050552D01*
X134498009Y-96021222D01*
X134654534Y-95937557D01*
X134824373Y-95886037D01*
X134890557Y-95879519D01*
X134956740Y-95873000D01*
X135045260Y-95873000D01*
X135111442Y-95879518D01*
X135111442Y-95879518D01*
G37*
G36*
X122411442Y-95879518D02*
G01*
X122477627Y-95886037D01*
X122647466Y-95937557D01*
X122803991Y-96021222D01*
X122839729Y-96050552D01*
X122941186Y-96133814D01*
X123024448Y-96235271D01*
X123053778Y-96271009D01*
X123137443Y-96427534D01*
X123188963Y-96597373D01*
X123206359Y-96774000D01*
X123188963Y-96950627D01*
X123137443Y-97120466D01*
X123053778Y-97276991D01*
X123024448Y-97312729D01*
X122941186Y-97414186D01*
X122839729Y-97497448D01*
X122803991Y-97526778D01*
X122647466Y-97610443D01*
X122477627Y-97661963D01*
X122411443Y-97668481D01*
X122345260Y-97675000D01*
X122256740Y-97675000D01*
X122190557Y-97668481D01*
X122124373Y-97661963D01*
X121954534Y-97610443D01*
X121798009Y-97526778D01*
X121762271Y-97497448D01*
X121660814Y-97414186D01*
X121577552Y-97312729D01*
X121548222Y-97276991D01*
X121464557Y-97120466D01*
X121413037Y-96950627D01*
X121395641Y-96774000D01*
X121413037Y-96597373D01*
X121464557Y-96427534D01*
X121548222Y-96271009D01*
X121577552Y-96235271D01*
X121660814Y-96133814D01*
X121762271Y-96050552D01*
X121798009Y-96021222D01*
X121954534Y-95937557D01*
X122124373Y-95886037D01*
X122190557Y-95879519D01*
X122256740Y-95873000D01*
X122345260Y-95873000D01*
X122411442Y-95879518D01*
X122411442Y-95879518D01*
G37*
G36*
X122411442Y-93339518D02*
G01*
X122477627Y-93346037D01*
X122647466Y-93397557D01*
X122803991Y-93481222D01*
X122839729Y-93510552D01*
X122941186Y-93593814D01*
X123024448Y-93695271D01*
X123053778Y-93731009D01*
X123137443Y-93887534D01*
X123188963Y-94057373D01*
X123206359Y-94234000D01*
X123188963Y-94410627D01*
X123137443Y-94580466D01*
X123053778Y-94736991D01*
X123024448Y-94772729D01*
X122941186Y-94874186D01*
X122839729Y-94957448D01*
X122803991Y-94986778D01*
X122647466Y-95070443D01*
X122477627Y-95121963D01*
X122411442Y-95128482D01*
X122345260Y-95135000D01*
X122256740Y-95135000D01*
X122190558Y-95128482D01*
X122124373Y-95121963D01*
X121954534Y-95070443D01*
X121798009Y-94986778D01*
X121762271Y-94957448D01*
X121660814Y-94874186D01*
X121577552Y-94772729D01*
X121548222Y-94736991D01*
X121464557Y-94580466D01*
X121413037Y-94410627D01*
X121395641Y-94234000D01*
X121413037Y-94057373D01*
X121464557Y-93887534D01*
X121548222Y-93731009D01*
X121577552Y-93695271D01*
X121660814Y-93593814D01*
X121762271Y-93510552D01*
X121798009Y-93481222D01*
X121954534Y-93397557D01*
X122124373Y-93346037D01*
X122190558Y-93339518D01*
X122256740Y-93333000D01*
X122345260Y-93333000D01*
X122411442Y-93339518D01*
X122411442Y-93339518D01*
G37*
G36*
X152510442Y-93339518D02*
G01*
X152576627Y-93346037D01*
X152746466Y-93397557D01*
X152902991Y-93481222D01*
X152938729Y-93510552D01*
X153040186Y-93593814D01*
X153123448Y-93695271D01*
X153152778Y-93731009D01*
X153236443Y-93887534D01*
X153287963Y-94057373D01*
X153305359Y-94234000D01*
X153287963Y-94410627D01*
X153236443Y-94580466D01*
X153152778Y-94736991D01*
X153123448Y-94772729D01*
X153040186Y-94874186D01*
X152938729Y-94957448D01*
X152902991Y-94986778D01*
X152746466Y-95070443D01*
X152576627Y-95121963D01*
X152510442Y-95128482D01*
X152444260Y-95135000D01*
X152355740Y-95135000D01*
X152289558Y-95128482D01*
X152223373Y-95121963D01*
X152053534Y-95070443D01*
X151897009Y-94986778D01*
X151861271Y-94957448D01*
X151759814Y-94874186D01*
X151676552Y-94772729D01*
X151647222Y-94736991D01*
X151563557Y-94580466D01*
X151512037Y-94410627D01*
X151494641Y-94234000D01*
X151512037Y-94057373D01*
X151563557Y-93887534D01*
X151647222Y-93731009D01*
X151676552Y-93695271D01*
X151759814Y-93593814D01*
X151861271Y-93510552D01*
X151897009Y-93481222D01*
X152053534Y-93397557D01*
X152223373Y-93346037D01*
X152289558Y-93339518D01*
X152355740Y-93333000D01*
X152444260Y-93333000D01*
X152510442Y-93339518D01*
X152510442Y-93339518D01*
G37*
G36*
X139810442Y-93339518D02*
G01*
X139876627Y-93346037D01*
X140046466Y-93397557D01*
X140202991Y-93481222D01*
X140238729Y-93510552D01*
X140340186Y-93593814D01*
X140423448Y-93695271D01*
X140452778Y-93731009D01*
X140536443Y-93887534D01*
X140587963Y-94057373D01*
X140605359Y-94234000D01*
X140587963Y-94410627D01*
X140536443Y-94580466D01*
X140452778Y-94736991D01*
X140423448Y-94772729D01*
X140340186Y-94874186D01*
X140238729Y-94957448D01*
X140202991Y-94986778D01*
X140046466Y-95070443D01*
X139876627Y-95121963D01*
X139810442Y-95128482D01*
X139744260Y-95135000D01*
X139655740Y-95135000D01*
X139589558Y-95128482D01*
X139523373Y-95121963D01*
X139353534Y-95070443D01*
X139197009Y-94986778D01*
X139161271Y-94957448D01*
X139059814Y-94874186D01*
X138976552Y-94772729D01*
X138947222Y-94736991D01*
X138863557Y-94580466D01*
X138812037Y-94410627D01*
X138794641Y-94234000D01*
X138812037Y-94057373D01*
X138863557Y-93887534D01*
X138947222Y-93731009D01*
X138976552Y-93695271D01*
X139059814Y-93593814D01*
X139161271Y-93510552D01*
X139197009Y-93481222D01*
X139353534Y-93397557D01*
X139523373Y-93346037D01*
X139589558Y-93339518D01*
X139655740Y-93333000D01*
X139744260Y-93333000D01*
X139810442Y-93339518D01*
X139810442Y-93339518D01*
G37*
G36*
X135111442Y-93339518D02*
G01*
X135177627Y-93346037D01*
X135347466Y-93397557D01*
X135503991Y-93481222D01*
X135539729Y-93510552D01*
X135641186Y-93593814D01*
X135724448Y-93695271D01*
X135753778Y-93731009D01*
X135837443Y-93887534D01*
X135888963Y-94057373D01*
X135906359Y-94234000D01*
X135888963Y-94410627D01*
X135837443Y-94580466D01*
X135753778Y-94736991D01*
X135724448Y-94772729D01*
X135641186Y-94874186D01*
X135539729Y-94957448D01*
X135503991Y-94986778D01*
X135347466Y-95070443D01*
X135177627Y-95121963D01*
X135111442Y-95128482D01*
X135045260Y-95135000D01*
X134956740Y-95135000D01*
X134890558Y-95128482D01*
X134824373Y-95121963D01*
X134654534Y-95070443D01*
X134498009Y-94986778D01*
X134462271Y-94957448D01*
X134360814Y-94874186D01*
X134277552Y-94772729D01*
X134248222Y-94736991D01*
X134164557Y-94580466D01*
X134113037Y-94410627D01*
X134095641Y-94234000D01*
X134113037Y-94057373D01*
X134164557Y-93887534D01*
X134248222Y-93731009D01*
X134277552Y-93695271D01*
X134360814Y-93593814D01*
X134462271Y-93510552D01*
X134498009Y-93481222D01*
X134654534Y-93397557D01*
X134824373Y-93346037D01*
X134890558Y-93339518D01*
X134956740Y-93333000D01*
X135045260Y-93333000D01*
X135111442Y-93339518D01*
X135111442Y-93339518D01*
G37*
G36*
X115328000Y-93230000D02*
G01*
X113526000Y-93230000D01*
X113526000Y-91428000D01*
X115328000Y-91428000D01*
X115328000Y-93230000D01*
X115328000Y-93230000D01*
G37*
G36*
X160336000Y-92645000D02*
G01*
X158434000Y-92645000D01*
X158434000Y-90743000D01*
X160336000Y-90743000D01*
X160336000Y-92645000D01*
X160336000Y-92645000D01*
G37*
G36*
X162202395Y-90779546D02*
G01*
X162375466Y-90851234D01*
X162452818Y-90902919D01*
X162531227Y-90955310D01*
X162663690Y-91087773D01*
X162663691Y-91087775D01*
X162767766Y-91243534D01*
X162839454Y-91416605D01*
X162876000Y-91600333D01*
X162876000Y-91787667D01*
X162839454Y-91971395D01*
X162767766Y-92144466D01*
X162767765Y-92144467D01*
X162663690Y-92300227D01*
X162531227Y-92432690D01*
X162510141Y-92446779D01*
X162375466Y-92536766D01*
X162202395Y-92608454D01*
X162018667Y-92645000D01*
X161831333Y-92645000D01*
X161647605Y-92608454D01*
X161474534Y-92536766D01*
X161339859Y-92446779D01*
X161318773Y-92432690D01*
X161186310Y-92300227D01*
X161082235Y-92144467D01*
X161082234Y-92144466D01*
X161010546Y-91971395D01*
X160974000Y-91787667D01*
X160974000Y-91600333D01*
X161010546Y-91416605D01*
X161082234Y-91243534D01*
X161186309Y-91087775D01*
X161186310Y-91087773D01*
X161318773Y-90955310D01*
X161397182Y-90902919D01*
X161474534Y-90851234D01*
X161647605Y-90779546D01*
X161831333Y-90743000D01*
X162018667Y-90743000D01*
X162202395Y-90779546D01*
X162202395Y-90779546D01*
G37*
G36*
X164742395Y-90779546D02*
G01*
X164915466Y-90851234D01*
X164992818Y-90902919D01*
X165071227Y-90955310D01*
X165203690Y-91087773D01*
X165203691Y-91087775D01*
X165307766Y-91243534D01*
X165379454Y-91416605D01*
X165416000Y-91600333D01*
X165416000Y-91787667D01*
X165379454Y-91971395D01*
X165307766Y-92144466D01*
X165307765Y-92144467D01*
X165203690Y-92300227D01*
X165071227Y-92432690D01*
X165050141Y-92446779D01*
X164915466Y-92536766D01*
X164742395Y-92608454D01*
X164558667Y-92645000D01*
X164371333Y-92645000D01*
X164187605Y-92608454D01*
X164014534Y-92536766D01*
X163879859Y-92446779D01*
X163858773Y-92432690D01*
X163726310Y-92300227D01*
X163622235Y-92144467D01*
X163622234Y-92144466D01*
X163550546Y-91971395D01*
X163514000Y-91787667D01*
X163514000Y-91600333D01*
X163550546Y-91416605D01*
X163622234Y-91243534D01*
X163726309Y-91087775D01*
X163726310Y-91087773D01*
X163858773Y-90955310D01*
X163937182Y-90902919D01*
X164014534Y-90851234D01*
X164187605Y-90779546D01*
X164371333Y-90743000D01*
X164558667Y-90743000D01*
X164742395Y-90779546D01*
X164742395Y-90779546D01*
G37*
G36*
X135111443Y-90799519D02*
G01*
X135177627Y-90806037D01*
X135347466Y-90857557D01*
X135503991Y-90941222D01*
X135521156Y-90955309D01*
X135641186Y-91053814D01*
X135724448Y-91155271D01*
X135753778Y-91191009D01*
X135837443Y-91347534D01*
X135888963Y-91517373D01*
X135906359Y-91694000D01*
X135888963Y-91870627D01*
X135837443Y-92040466D01*
X135753778Y-92196991D01*
X135724448Y-92232729D01*
X135641186Y-92334186D01*
X135539729Y-92417448D01*
X135503991Y-92446778D01*
X135347466Y-92530443D01*
X135177627Y-92581963D01*
X135111443Y-92588481D01*
X135045260Y-92595000D01*
X134956740Y-92595000D01*
X134890557Y-92588481D01*
X134824373Y-92581963D01*
X134654534Y-92530443D01*
X134498009Y-92446778D01*
X134462271Y-92417448D01*
X134360814Y-92334186D01*
X134277552Y-92232729D01*
X134248222Y-92196991D01*
X134164557Y-92040466D01*
X134113037Y-91870627D01*
X134095641Y-91694000D01*
X134113037Y-91517373D01*
X134164557Y-91347534D01*
X134248222Y-91191009D01*
X134277552Y-91155271D01*
X134360814Y-91053814D01*
X134480844Y-90955309D01*
X134498009Y-90941222D01*
X134654534Y-90857557D01*
X134824373Y-90806037D01*
X134890557Y-90799519D01*
X134956740Y-90793000D01*
X135045260Y-90793000D01*
X135111443Y-90799519D01*
X135111443Y-90799519D01*
G37*
G36*
X122411443Y-90799519D02*
G01*
X122477627Y-90806037D01*
X122647466Y-90857557D01*
X122803991Y-90941222D01*
X122821156Y-90955309D01*
X122941186Y-91053814D01*
X123024448Y-91155271D01*
X123053778Y-91191009D01*
X123137443Y-91347534D01*
X123188963Y-91517373D01*
X123206359Y-91694000D01*
X123188963Y-91870627D01*
X123137443Y-92040466D01*
X123053778Y-92196991D01*
X123024448Y-92232729D01*
X122941186Y-92334186D01*
X122839729Y-92417448D01*
X122803991Y-92446778D01*
X122647466Y-92530443D01*
X122477627Y-92581963D01*
X122411443Y-92588481D01*
X122345260Y-92595000D01*
X122256740Y-92595000D01*
X122190557Y-92588481D01*
X122124373Y-92581963D01*
X121954534Y-92530443D01*
X121798009Y-92446778D01*
X121762271Y-92417448D01*
X121660814Y-92334186D01*
X121577552Y-92232729D01*
X121548222Y-92196991D01*
X121464557Y-92040466D01*
X121413037Y-91870627D01*
X121395641Y-91694000D01*
X121413037Y-91517373D01*
X121464557Y-91347534D01*
X121548222Y-91191009D01*
X121577552Y-91155271D01*
X121660814Y-91053814D01*
X121780844Y-90955309D01*
X121798009Y-90941222D01*
X121954534Y-90857557D01*
X122124373Y-90806037D01*
X122190557Y-90799519D01*
X122256740Y-90793000D01*
X122345260Y-90793000D01*
X122411443Y-90799519D01*
X122411443Y-90799519D01*
G37*
G36*
X152510443Y-90799519D02*
G01*
X152576627Y-90806037D01*
X152746466Y-90857557D01*
X152902991Y-90941222D01*
X152920156Y-90955309D01*
X153040186Y-91053814D01*
X153123448Y-91155271D01*
X153152778Y-91191009D01*
X153236443Y-91347534D01*
X153287963Y-91517373D01*
X153305359Y-91694000D01*
X153287963Y-91870627D01*
X153236443Y-92040466D01*
X153152778Y-92196991D01*
X153123448Y-92232729D01*
X153040186Y-92334186D01*
X152938729Y-92417448D01*
X152902991Y-92446778D01*
X152746466Y-92530443D01*
X152576627Y-92581963D01*
X152510443Y-92588481D01*
X152444260Y-92595000D01*
X152355740Y-92595000D01*
X152289557Y-92588481D01*
X152223373Y-92581963D01*
X152053534Y-92530443D01*
X151897009Y-92446778D01*
X151861271Y-92417448D01*
X151759814Y-92334186D01*
X151676552Y-92232729D01*
X151647222Y-92196991D01*
X151563557Y-92040466D01*
X151512037Y-91870627D01*
X151494641Y-91694000D01*
X151512037Y-91517373D01*
X151563557Y-91347534D01*
X151647222Y-91191009D01*
X151676552Y-91155271D01*
X151759814Y-91053814D01*
X151879844Y-90955309D01*
X151897009Y-90941222D01*
X152053534Y-90857557D01*
X152223373Y-90806037D01*
X152289557Y-90799519D01*
X152355740Y-90793000D01*
X152444260Y-90793000D01*
X152510443Y-90799519D01*
X152510443Y-90799519D01*
G37*
G36*
X139810443Y-90799519D02*
G01*
X139876627Y-90806037D01*
X140046466Y-90857557D01*
X140202991Y-90941222D01*
X140220156Y-90955309D01*
X140340186Y-91053814D01*
X140423448Y-91155271D01*
X140452778Y-91191009D01*
X140536443Y-91347534D01*
X140587963Y-91517373D01*
X140605359Y-91694000D01*
X140587963Y-91870627D01*
X140536443Y-92040466D01*
X140452778Y-92196991D01*
X140423448Y-92232729D01*
X140340186Y-92334186D01*
X140238729Y-92417448D01*
X140202991Y-92446778D01*
X140046466Y-92530443D01*
X139876627Y-92581963D01*
X139810443Y-92588481D01*
X139744260Y-92595000D01*
X139655740Y-92595000D01*
X139589557Y-92588481D01*
X139523373Y-92581963D01*
X139353534Y-92530443D01*
X139197009Y-92446778D01*
X139161271Y-92417448D01*
X139059814Y-92334186D01*
X138976552Y-92232729D01*
X138947222Y-92196991D01*
X138863557Y-92040466D01*
X138812037Y-91870627D01*
X138794641Y-91694000D01*
X138812037Y-91517373D01*
X138863557Y-91347534D01*
X138947222Y-91191009D01*
X138976552Y-91155271D01*
X139059814Y-91053814D01*
X139179844Y-90955309D01*
X139197009Y-90941222D01*
X139353534Y-90857557D01*
X139523373Y-90806037D01*
X139589557Y-90799519D01*
X139655740Y-90793000D01*
X139744260Y-90793000D01*
X139810443Y-90799519D01*
X139810443Y-90799519D01*
G37*
G36*
X135111443Y-88259519D02*
G01*
X135177627Y-88266037D01*
X135347466Y-88317557D01*
X135503991Y-88401222D01*
X135539729Y-88430552D01*
X135641186Y-88513814D01*
X135724448Y-88615271D01*
X135753778Y-88651009D01*
X135837443Y-88807534D01*
X135888963Y-88977373D01*
X135906359Y-89154000D01*
X135888963Y-89330627D01*
X135837443Y-89500466D01*
X135753778Y-89656991D01*
X135724448Y-89692729D01*
X135641186Y-89794186D01*
X135539729Y-89877448D01*
X135503991Y-89906778D01*
X135347466Y-89990443D01*
X135177627Y-90041963D01*
X135111443Y-90048481D01*
X135045260Y-90055000D01*
X134956740Y-90055000D01*
X134890557Y-90048481D01*
X134824373Y-90041963D01*
X134654534Y-89990443D01*
X134498009Y-89906778D01*
X134462271Y-89877448D01*
X134360814Y-89794186D01*
X134277552Y-89692729D01*
X134248222Y-89656991D01*
X134164557Y-89500466D01*
X134113037Y-89330627D01*
X134095641Y-89154000D01*
X134113037Y-88977373D01*
X134164557Y-88807534D01*
X134248222Y-88651009D01*
X134277552Y-88615271D01*
X134360814Y-88513814D01*
X134462271Y-88430552D01*
X134498009Y-88401222D01*
X134654534Y-88317557D01*
X134824373Y-88266037D01*
X134890557Y-88259519D01*
X134956740Y-88253000D01*
X135045260Y-88253000D01*
X135111443Y-88259519D01*
X135111443Y-88259519D01*
G37*
G36*
X152510443Y-88259519D02*
G01*
X152576627Y-88266037D01*
X152746466Y-88317557D01*
X152902991Y-88401222D01*
X152938729Y-88430552D01*
X153040186Y-88513814D01*
X153123448Y-88615271D01*
X153152778Y-88651009D01*
X153236443Y-88807534D01*
X153287963Y-88977373D01*
X153305359Y-89154000D01*
X153287963Y-89330627D01*
X153236443Y-89500466D01*
X153152778Y-89656991D01*
X153123448Y-89692729D01*
X153040186Y-89794186D01*
X152938729Y-89877448D01*
X152902991Y-89906778D01*
X152746466Y-89990443D01*
X152576627Y-90041963D01*
X152510443Y-90048481D01*
X152444260Y-90055000D01*
X152355740Y-90055000D01*
X152289557Y-90048481D01*
X152223373Y-90041963D01*
X152053534Y-89990443D01*
X151897009Y-89906778D01*
X151861271Y-89877448D01*
X151759814Y-89794186D01*
X151676552Y-89692729D01*
X151647222Y-89656991D01*
X151563557Y-89500466D01*
X151512037Y-89330627D01*
X151494641Y-89154000D01*
X151512037Y-88977373D01*
X151563557Y-88807534D01*
X151647222Y-88651009D01*
X151676552Y-88615271D01*
X151759814Y-88513814D01*
X151861271Y-88430552D01*
X151897009Y-88401222D01*
X152053534Y-88317557D01*
X152223373Y-88266037D01*
X152289557Y-88259519D01*
X152355740Y-88253000D01*
X152444260Y-88253000D01*
X152510443Y-88259519D01*
X152510443Y-88259519D01*
G37*
G36*
X122411443Y-88259519D02*
G01*
X122477627Y-88266037D01*
X122647466Y-88317557D01*
X122803991Y-88401222D01*
X122839729Y-88430552D01*
X122941186Y-88513814D01*
X123024448Y-88615271D01*
X123053778Y-88651009D01*
X123137443Y-88807534D01*
X123188963Y-88977373D01*
X123206359Y-89154000D01*
X123188963Y-89330627D01*
X123137443Y-89500466D01*
X123053778Y-89656991D01*
X123024448Y-89692729D01*
X122941186Y-89794186D01*
X122839729Y-89877448D01*
X122803991Y-89906778D01*
X122647466Y-89990443D01*
X122477627Y-90041963D01*
X122411443Y-90048481D01*
X122345260Y-90055000D01*
X122256740Y-90055000D01*
X122190557Y-90048481D01*
X122124373Y-90041963D01*
X121954534Y-89990443D01*
X121798009Y-89906778D01*
X121762271Y-89877448D01*
X121660814Y-89794186D01*
X121577552Y-89692729D01*
X121548222Y-89656991D01*
X121464557Y-89500466D01*
X121413037Y-89330627D01*
X121395641Y-89154000D01*
X121413037Y-88977373D01*
X121464557Y-88807534D01*
X121548222Y-88651009D01*
X121577552Y-88615271D01*
X121660814Y-88513814D01*
X121762271Y-88430552D01*
X121798009Y-88401222D01*
X121954534Y-88317557D01*
X122124373Y-88266037D01*
X122190557Y-88259519D01*
X122256740Y-88253000D01*
X122345260Y-88253000D01*
X122411443Y-88259519D01*
X122411443Y-88259519D01*
G37*
G36*
X139810443Y-88259519D02*
G01*
X139876627Y-88266037D01*
X140046466Y-88317557D01*
X140202991Y-88401222D01*
X140238729Y-88430552D01*
X140340186Y-88513814D01*
X140423448Y-88615271D01*
X140452778Y-88651009D01*
X140536443Y-88807534D01*
X140587963Y-88977373D01*
X140605359Y-89154000D01*
X140587963Y-89330627D01*
X140536443Y-89500466D01*
X140452778Y-89656991D01*
X140423448Y-89692729D01*
X140340186Y-89794186D01*
X140238729Y-89877448D01*
X140202991Y-89906778D01*
X140046466Y-89990443D01*
X139876627Y-90041963D01*
X139810443Y-90048481D01*
X139744260Y-90055000D01*
X139655740Y-90055000D01*
X139589557Y-90048481D01*
X139523373Y-90041963D01*
X139353534Y-89990443D01*
X139197009Y-89906778D01*
X139161271Y-89877448D01*
X139059814Y-89794186D01*
X138976552Y-89692729D01*
X138947222Y-89656991D01*
X138863557Y-89500466D01*
X138812037Y-89330627D01*
X138794641Y-89154000D01*
X138812037Y-88977373D01*
X138863557Y-88807534D01*
X138947222Y-88651009D01*
X138976552Y-88615271D01*
X139059814Y-88513814D01*
X139161271Y-88430552D01*
X139197009Y-88401222D01*
X139353534Y-88317557D01*
X139523373Y-88266037D01*
X139589557Y-88259519D01*
X139655740Y-88253000D01*
X139744260Y-88253000D01*
X139810443Y-88259519D01*
X139810443Y-88259519D01*
G37*
G36*
X114537443Y-86354519D02*
G01*
X114603627Y-86361037D01*
X114773466Y-86412557D01*
X114929991Y-86496222D01*
X114965729Y-86525552D01*
X115067186Y-86608814D01*
X115150448Y-86710271D01*
X115179778Y-86746009D01*
X115263443Y-86902534D01*
X115314963Y-87072373D01*
X115332359Y-87249000D01*
X115314963Y-87425627D01*
X115263443Y-87595466D01*
X115179778Y-87751991D01*
X115150448Y-87787729D01*
X115067186Y-87889186D01*
X114965729Y-87972448D01*
X114929991Y-88001778D01*
X114773466Y-88085443D01*
X114603627Y-88136963D01*
X114537442Y-88143482D01*
X114471260Y-88150000D01*
X114382740Y-88150000D01*
X114316558Y-88143482D01*
X114250373Y-88136963D01*
X114080534Y-88085443D01*
X113924009Y-88001778D01*
X113888271Y-87972448D01*
X113786814Y-87889186D01*
X113703552Y-87787729D01*
X113674222Y-87751991D01*
X113590557Y-87595466D01*
X113539037Y-87425627D01*
X113521641Y-87249000D01*
X113539037Y-87072373D01*
X113590557Y-86902534D01*
X113674222Y-86746009D01*
X113703552Y-86710271D01*
X113786814Y-86608814D01*
X113888271Y-86525552D01*
X113924009Y-86496222D01*
X114080534Y-86412557D01*
X114250373Y-86361037D01*
X114316557Y-86354519D01*
X114382740Y-86348000D01*
X114471260Y-86348000D01*
X114537443Y-86354519D01*
X114537443Y-86354519D01*
G37*
G36*
X139810443Y-85719519D02*
G01*
X139876627Y-85726037D01*
X140046466Y-85777557D01*
X140202991Y-85861222D01*
X140238729Y-85890552D01*
X140340186Y-85973814D01*
X140423448Y-86075271D01*
X140452778Y-86111009D01*
X140536443Y-86267534D01*
X140587963Y-86437373D01*
X140605359Y-86614000D01*
X140587963Y-86790627D01*
X140536443Y-86960466D01*
X140452778Y-87116991D01*
X140423448Y-87152729D01*
X140340186Y-87254186D01*
X140238729Y-87337448D01*
X140202991Y-87366778D01*
X140046466Y-87450443D01*
X139876627Y-87501963D01*
X139810443Y-87508481D01*
X139744260Y-87515000D01*
X139655740Y-87515000D01*
X139589557Y-87508481D01*
X139523373Y-87501963D01*
X139353534Y-87450443D01*
X139197009Y-87366778D01*
X139161271Y-87337448D01*
X139059814Y-87254186D01*
X138976552Y-87152729D01*
X138947222Y-87116991D01*
X138863557Y-86960466D01*
X138812037Y-86790627D01*
X138794641Y-86614000D01*
X138812037Y-86437373D01*
X138863557Y-86267534D01*
X138947222Y-86111009D01*
X138976552Y-86075271D01*
X139059814Y-85973814D01*
X139161271Y-85890552D01*
X139197009Y-85861222D01*
X139353534Y-85777557D01*
X139523373Y-85726037D01*
X139589557Y-85719519D01*
X139655740Y-85713000D01*
X139744260Y-85713000D01*
X139810443Y-85719519D01*
X139810443Y-85719519D01*
G37*
G36*
X135111443Y-85719519D02*
G01*
X135177627Y-85726037D01*
X135347466Y-85777557D01*
X135503991Y-85861222D01*
X135539729Y-85890552D01*
X135641186Y-85973814D01*
X135724448Y-86075271D01*
X135753778Y-86111009D01*
X135837443Y-86267534D01*
X135888963Y-86437373D01*
X135906359Y-86614000D01*
X135888963Y-86790627D01*
X135837443Y-86960466D01*
X135753778Y-87116991D01*
X135724448Y-87152729D01*
X135641186Y-87254186D01*
X135539729Y-87337448D01*
X135503991Y-87366778D01*
X135347466Y-87450443D01*
X135177627Y-87501963D01*
X135111443Y-87508481D01*
X135045260Y-87515000D01*
X134956740Y-87515000D01*
X134890557Y-87508481D01*
X134824373Y-87501963D01*
X134654534Y-87450443D01*
X134498009Y-87366778D01*
X134462271Y-87337448D01*
X134360814Y-87254186D01*
X134277552Y-87152729D01*
X134248222Y-87116991D01*
X134164557Y-86960466D01*
X134113037Y-86790627D01*
X134095641Y-86614000D01*
X134113037Y-86437373D01*
X134164557Y-86267534D01*
X134248222Y-86111009D01*
X134277552Y-86075271D01*
X134360814Y-85973814D01*
X134462271Y-85890552D01*
X134498009Y-85861222D01*
X134654534Y-85777557D01*
X134824373Y-85726037D01*
X134890557Y-85719519D01*
X134956740Y-85713000D01*
X135045260Y-85713000D01*
X135111443Y-85719519D01*
X135111443Y-85719519D01*
G37*
G36*
X152510443Y-85719519D02*
G01*
X152576627Y-85726037D01*
X152746466Y-85777557D01*
X152902991Y-85861222D01*
X152938729Y-85890552D01*
X153040186Y-85973814D01*
X153123448Y-86075271D01*
X153152778Y-86111009D01*
X153236443Y-86267534D01*
X153287963Y-86437373D01*
X153305359Y-86614000D01*
X153287963Y-86790627D01*
X153236443Y-86960466D01*
X153152778Y-87116991D01*
X153123448Y-87152729D01*
X153040186Y-87254186D01*
X152938729Y-87337448D01*
X152902991Y-87366778D01*
X152746466Y-87450443D01*
X152576627Y-87501963D01*
X152510443Y-87508481D01*
X152444260Y-87515000D01*
X152355740Y-87515000D01*
X152289557Y-87508481D01*
X152223373Y-87501963D01*
X152053534Y-87450443D01*
X151897009Y-87366778D01*
X151861271Y-87337448D01*
X151759814Y-87254186D01*
X151676552Y-87152729D01*
X151647222Y-87116991D01*
X151563557Y-86960466D01*
X151512037Y-86790627D01*
X151494641Y-86614000D01*
X151512037Y-86437373D01*
X151563557Y-86267534D01*
X151647222Y-86111009D01*
X151676552Y-86075271D01*
X151759814Y-85973814D01*
X151861271Y-85890552D01*
X151897009Y-85861222D01*
X152053534Y-85777557D01*
X152223373Y-85726037D01*
X152289557Y-85719519D01*
X152355740Y-85713000D01*
X152444260Y-85713000D01*
X152510443Y-85719519D01*
X152510443Y-85719519D01*
G37*
G36*
X122411443Y-85719519D02*
G01*
X122477627Y-85726037D01*
X122647466Y-85777557D01*
X122803991Y-85861222D01*
X122839729Y-85890552D01*
X122941186Y-85973814D01*
X123024448Y-86075271D01*
X123053778Y-86111009D01*
X123137443Y-86267534D01*
X123188963Y-86437373D01*
X123206359Y-86614000D01*
X123188963Y-86790627D01*
X123137443Y-86960466D01*
X123053778Y-87116991D01*
X123024448Y-87152729D01*
X122941186Y-87254186D01*
X122839729Y-87337448D01*
X122803991Y-87366778D01*
X122647466Y-87450443D01*
X122477627Y-87501963D01*
X122411443Y-87508481D01*
X122345260Y-87515000D01*
X122256740Y-87515000D01*
X122190557Y-87508481D01*
X122124373Y-87501963D01*
X121954534Y-87450443D01*
X121798009Y-87366778D01*
X121762271Y-87337448D01*
X121660814Y-87254186D01*
X121577552Y-87152729D01*
X121548222Y-87116991D01*
X121464557Y-86960466D01*
X121413037Y-86790627D01*
X121395641Y-86614000D01*
X121413037Y-86437373D01*
X121464557Y-86267534D01*
X121548222Y-86111009D01*
X121577552Y-86075271D01*
X121660814Y-85973814D01*
X121762271Y-85890552D01*
X121798009Y-85861222D01*
X121954534Y-85777557D01*
X122124373Y-85726037D01*
X122190557Y-85719519D01*
X122256740Y-85713000D01*
X122345260Y-85713000D01*
X122411443Y-85719519D01*
X122411443Y-85719519D01*
G37*
G36*
X135111442Y-83179518D02*
G01*
X135177627Y-83186037D01*
X135347466Y-83237557D01*
X135503991Y-83321222D01*
X135539729Y-83350552D01*
X135641186Y-83433814D01*
X135721369Y-83531519D01*
X135753778Y-83571009D01*
X135837443Y-83727534D01*
X135888963Y-83897373D01*
X135906359Y-84074000D01*
X135888963Y-84250627D01*
X135837443Y-84420466D01*
X135753778Y-84576991D01*
X135724448Y-84612729D01*
X135641186Y-84714186D01*
X135539729Y-84797448D01*
X135503991Y-84826778D01*
X135347466Y-84910443D01*
X135177627Y-84961963D01*
X135111442Y-84968482D01*
X135045260Y-84975000D01*
X134956740Y-84975000D01*
X134890558Y-84968482D01*
X134824373Y-84961963D01*
X134654534Y-84910443D01*
X134498009Y-84826778D01*
X134462271Y-84797448D01*
X134360814Y-84714186D01*
X134277552Y-84612729D01*
X134248222Y-84576991D01*
X134164557Y-84420466D01*
X134113037Y-84250627D01*
X134095641Y-84074000D01*
X134113037Y-83897373D01*
X134164557Y-83727534D01*
X134248222Y-83571009D01*
X134280631Y-83531519D01*
X134360814Y-83433814D01*
X134462271Y-83350552D01*
X134498009Y-83321222D01*
X134654534Y-83237557D01*
X134824373Y-83186037D01*
X134890558Y-83179518D01*
X134956740Y-83173000D01*
X135045260Y-83173000D01*
X135111442Y-83179518D01*
X135111442Y-83179518D01*
G37*
G36*
X152510442Y-83179518D02*
G01*
X152576627Y-83186037D01*
X152746466Y-83237557D01*
X152902991Y-83321222D01*
X152938729Y-83350552D01*
X153040186Y-83433814D01*
X153120369Y-83531519D01*
X153152778Y-83571009D01*
X153236443Y-83727534D01*
X153287963Y-83897373D01*
X153305359Y-84074000D01*
X153287963Y-84250627D01*
X153236443Y-84420466D01*
X153152778Y-84576991D01*
X153123448Y-84612729D01*
X153040186Y-84714186D01*
X152938729Y-84797448D01*
X152902991Y-84826778D01*
X152746466Y-84910443D01*
X152576627Y-84961963D01*
X152510442Y-84968482D01*
X152444260Y-84975000D01*
X152355740Y-84975000D01*
X152289558Y-84968482D01*
X152223373Y-84961963D01*
X152053534Y-84910443D01*
X151897009Y-84826778D01*
X151861271Y-84797448D01*
X151759814Y-84714186D01*
X151676552Y-84612729D01*
X151647222Y-84576991D01*
X151563557Y-84420466D01*
X151512037Y-84250627D01*
X151494641Y-84074000D01*
X151512037Y-83897373D01*
X151563557Y-83727534D01*
X151647222Y-83571009D01*
X151679631Y-83531519D01*
X151759814Y-83433814D01*
X151861271Y-83350552D01*
X151897009Y-83321222D01*
X152053534Y-83237557D01*
X152223373Y-83186037D01*
X152289558Y-83179518D01*
X152355740Y-83173000D01*
X152444260Y-83173000D01*
X152510442Y-83179518D01*
X152510442Y-83179518D01*
G37*
G36*
X140551000Y-84925000D02*
G01*
X138849000Y-84925000D01*
X138849000Y-83223000D01*
X140551000Y-83223000D01*
X140551000Y-84925000D01*
X140551000Y-84925000D01*
G37*
G36*
X148838228Y-83255703D02*
G01*
X148993100Y-83319853D01*
X149132481Y-83412985D01*
X149251015Y-83531519D01*
X149344147Y-83670900D01*
X149408297Y-83825772D01*
X149441000Y-83990184D01*
X149441000Y-84157816D01*
X149408297Y-84322228D01*
X149344147Y-84477100D01*
X149251015Y-84616481D01*
X149132481Y-84735015D01*
X148993100Y-84828147D01*
X148838228Y-84892297D01*
X148673816Y-84925000D01*
X148506184Y-84925000D01*
X148341772Y-84892297D01*
X148186900Y-84828147D01*
X148047519Y-84735015D01*
X147928985Y-84616481D01*
X147835853Y-84477100D01*
X147771703Y-84322228D01*
X147739000Y-84157816D01*
X147739000Y-83990184D01*
X147771703Y-83825772D01*
X147835853Y-83670900D01*
X147928985Y-83531519D01*
X148047519Y-83412985D01*
X148186900Y-83319853D01*
X148341772Y-83255703D01*
X148506184Y-83223000D01*
X148673816Y-83223000D01*
X148838228Y-83255703D01*
X148838228Y-83255703D01*
G37*
G36*
X126439228Y-83255703D02*
G01*
X126594100Y-83319853D01*
X126733481Y-83412985D01*
X126852015Y-83531519D01*
X126945147Y-83670900D01*
X127009297Y-83825772D01*
X127042000Y-83990184D01*
X127042000Y-84157816D01*
X127009297Y-84322228D01*
X126945147Y-84477100D01*
X126852015Y-84616481D01*
X126733481Y-84735015D01*
X126594100Y-84828147D01*
X126439228Y-84892297D01*
X126274816Y-84925000D01*
X126107184Y-84925000D01*
X125942772Y-84892297D01*
X125787900Y-84828147D01*
X125648519Y-84735015D01*
X125529985Y-84616481D01*
X125436853Y-84477100D01*
X125372703Y-84322228D01*
X125340000Y-84157816D01*
X125340000Y-83990184D01*
X125372703Y-83825772D01*
X125436853Y-83670900D01*
X125529985Y-83531519D01*
X125648519Y-83412985D01*
X125787900Y-83319853D01*
X125942772Y-83255703D01*
X126107184Y-83223000D01*
X126274816Y-83223000D01*
X126439228Y-83255703D01*
X126439228Y-83255703D01*
G37*
G36*
X131439228Y-83255703D02*
G01*
X131594100Y-83319853D01*
X131733481Y-83412985D01*
X131852015Y-83531519D01*
X131945147Y-83670900D01*
X132009297Y-83825772D01*
X132042000Y-83990184D01*
X132042000Y-84157816D01*
X132009297Y-84322228D01*
X131945147Y-84477100D01*
X131852015Y-84616481D01*
X131733481Y-84735015D01*
X131594100Y-84828147D01*
X131439228Y-84892297D01*
X131274816Y-84925000D01*
X131107184Y-84925000D01*
X130942772Y-84892297D01*
X130787900Y-84828147D01*
X130648519Y-84735015D01*
X130529985Y-84616481D01*
X130436853Y-84477100D01*
X130372703Y-84322228D01*
X130340000Y-84157816D01*
X130340000Y-83990184D01*
X130372703Y-83825772D01*
X130436853Y-83670900D01*
X130529985Y-83531519D01*
X130648519Y-83412985D01*
X130787900Y-83319853D01*
X130942772Y-83255703D01*
X131107184Y-83223000D01*
X131274816Y-83223000D01*
X131439228Y-83255703D01*
X131439228Y-83255703D01*
G37*
G36*
X123152000Y-84925000D02*
G01*
X121450000Y-84925000D01*
X121450000Y-83223000D01*
X123152000Y-83223000D01*
X123152000Y-84925000D01*
X123152000Y-84925000D01*
G37*
G36*
X143838228Y-83255703D02*
G01*
X143993100Y-83319853D01*
X144132481Y-83412985D01*
X144251015Y-83531519D01*
X144344147Y-83670900D01*
X144408297Y-83825772D01*
X144441000Y-83990184D01*
X144441000Y-84157816D01*
X144408297Y-84322228D01*
X144344147Y-84477100D01*
X144251015Y-84616481D01*
X144132481Y-84735015D01*
X143993100Y-84828147D01*
X143838228Y-84892297D01*
X143673816Y-84925000D01*
X143506184Y-84925000D01*
X143341772Y-84892297D01*
X143186900Y-84828147D01*
X143047519Y-84735015D01*
X142928985Y-84616481D01*
X142835853Y-84477100D01*
X142771703Y-84322228D01*
X142739000Y-84157816D01*
X142739000Y-83990184D01*
X142771703Y-83825772D01*
X142835853Y-83670900D01*
X142928985Y-83531519D01*
X143047519Y-83412985D01*
X143186900Y-83319853D01*
X143341772Y-83255703D01*
X143506184Y-83223000D01*
X143673816Y-83223000D01*
X143838228Y-83255703D01*
X143838228Y-83255703D01*
G37*
G36*
X115328000Y-83070000D02*
G01*
X113526000Y-83070000D01*
X113526000Y-81268000D01*
X115328000Y-81268000D01*
X115328000Y-83070000D01*
X115328000Y-83070000D01*
G37*
G36*
X131936442Y-76448518D02*
G01*
X132002627Y-76455037D01*
X132172466Y-76506557D01*
X132328991Y-76590222D01*
X132364729Y-76619552D01*
X132466186Y-76702814D01*
X132549448Y-76804271D01*
X132578778Y-76840009D01*
X132662443Y-76996534D01*
X132713963Y-77166373D01*
X132731359Y-77343000D01*
X132713963Y-77519627D01*
X132662443Y-77689466D01*
X132578778Y-77845991D01*
X132549448Y-77881729D01*
X132466186Y-77983186D01*
X132364729Y-78066448D01*
X132328991Y-78095778D01*
X132172466Y-78179443D01*
X132002627Y-78230963D01*
X131936442Y-78237482D01*
X131870260Y-78244000D01*
X131781740Y-78244000D01*
X131715558Y-78237482D01*
X131649373Y-78230963D01*
X131479534Y-78179443D01*
X131323009Y-78095778D01*
X131287271Y-78066448D01*
X131185814Y-77983186D01*
X131102552Y-77881729D01*
X131073222Y-77845991D01*
X130989557Y-77689466D01*
X130938037Y-77519627D01*
X130920641Y-77343000D01*
X130938037Y-77166373D01*
X130989557Y-76996534D01*
X131073222Y-76840009D01*
X131102552Y-76804271D01*
X131185814Y-76702814D01*
X131287271Y-76619552D01*
X131323009Y-76590222D01*
X131479534Y-76506557D01*
X131649373Y-76455037D01*
X131715558Y-76448518D01*
X131781740Y-76442000D01*
X131870260Y-76442000D01*
X131936442Y-76448518D01*
X131936442Y-76448518D01*
G37*
G36*
X159876442Y-76448518D02*
G01*
X159942627Y-76455037D01*
X160112466Y-76506557D01*
X160268991Y-76590222D01*
X160304729Y-76619552D01*
X160406186Y-76702814D01*
X160489448Y-76804271D01*
X160518778Y-76840009D01*
X160602443Y-76996534D01*
X160653963Y-77166373D01*
X160671359Y-77343000D01*
X160653963Y-77519627D01*
X160602443Y-77689466D01*
X160518778Y-77845991D01*
X160489448Y-77881729D01*
X160406186Y-77983186D01*
X160304729Y-78066448D01*
X160268991Y-78095778D01*
X160112466Y-78179443D01*
X159942627Y-78230963D01*
X159876442Y-78237482D01*
X159810260Y-78244000D01*
X159721740Y-78244000D01*
X159655558Y-78237482D01*
X159589373Y-78230963D01*
X159419534Y-78179443D01*
X159263009Y-78095778D01*
X159227271Y-78066448D01*
X159125814Y-77983186D01*
X159042552Y-77881729D01*
X159013222Y-77845991D01*
X158929557Y-77689466D01*
X158878037Y-77519627D01*
X158860641Y-77343000D01*
X158878037Y-77166373D01*
X158929557Y-76996534D01*
X159013222Y-76840009D01*
X159042552Y-76804271D01*
X159125814Y-76702814D01*
X159227271Y-76619552D01*
X159263009Y-76590222D01*
X159419534Y-76506557D01*
X159589373Y-76455037D01*
X159655558Y-76448518D01*
X159721740Y-76442000D01*
X159810260Y-76442000D01*
X159876442Y-76448518D01*
X159876442Y-76448518D01*
G37*
G36*
X157336442Y-76448518D02*
G01*
X157402627Y-76455037D01*
X157572466Y-76506557D01*
X157728991Y-76590222D01*
X157764729Y-76619552D01*
X157866186Y-76702814D01*
X157949448Y-76804271D01*
X157978778Y-76840009D01*
X158062443Y-76996534D01*
X158113963Y-77166373D01*
X158131359Y-77343000D01*
X158113963Y-77519627D01*
X158062443Y-77689466D01*
X157978778Y-77845991D01*
X157949448Y-77881729D01*
X157866186Y-77983186D01*
X157764729Y-78066448D01*
X157728991Y-78095778D01*
X157572466Y-78179443D01*
X157402627Y-78230963D01*
X157336442Y-78237482D01*
X157270260Y-78244000D01*
X157181740Y-78244000D01*
X157115558Y-78237482D01*
X157049373Y-78230963D01*
X156879534Y-78179443D01*
X156723009Y-78095778D01*
X156687271Y-78066448D01*
X156585814Y-77983186D01*
X156502552Y-77881729D01*
X156473222Y-77845991D01*
X156389557Y-77689466D01*
X156338037Y-77519627D01*
X156320641Y-77343000D01*
X156338037Y-77166373D01*
X156389557Y-76996534D01*
X156473222Y-76840009D01*
X156502552Y-76804271D01*
X156585814Y-76702814D01*
X156687271Y-76619552D01*
X156723009Y-76590222D01*
X156879534Y-76506557D01*
X157049373Y-76455037D01*
X157115558Y-76448518D01*
X157181740Y-76442000D01*
X157270260Y-76442000D01*
X157336442Y-76448518D01*
X157336442Y-76448518D01*
G37*
G36*
X154796442Y-76448518D02*
G01*
X154862627Y-76455037D01*
X155032466Y-76506557D01*
X155188991Y-76590222D01*
X155224729Y-76619552D01*
X155326186Y-76702814D01*
X155409448Y-76804271D01*
X155438778Y-76840009D01*
X155522443Y-76996534D01*
X155573963Y-77166373D01*
X155591359Y-77343000D01*
X155573963Y-77519627D01*
X155522443Y-77689466D01*
X155438778Y-77845991D01*
X155409448Y-77881729D01*
X155326186Y-77983186D01*
X155224729Y-78066448D01*
X155188991Y-78095778D01*
X155032466Y-78179443D01*
X154862627Y-78230963D01*
X154796442Y-78237482D01*
X154730260Y-78244000D01*
X154641740Y-78244000D01*
X154575558Y-78237482D01*
X154509373Y-78230963D01*
X154339534Y-78179443D01*
X154183009Y-78095778D01*
X154147271Y-78066448D01*
X154045814Y-77983186D01*
X153962552Y-77881729D01*
X153933222Y-77845991D01*
X153849557Y-77689466D01*
X153798037Y-77519627D01*
X153780641Y-77343000D01*
X153798037Y-77166373D01*
X153849557Y-76996534D01*
X153933222Y-76840009D01*
X153962552Y-76804271D01*
X154045814Y-76702814D01*
X154147271Y-76619552D01*
X154183009Y-76590222D01*
X154339534Y-76506557D01*
X154509373Y-76455037D01*
X154575558Y-76448518D01*
X154641740Y-76442000D01*
X154730260Y-76442000D01*
X154796442Y-76448518D01*
X154796442Y-76448518D01*
G37*
G36*
X152256442Y-76448518D02*
G01*
X152322627Y-76455037D01*
X152492466Y-76506557D01*
X152648991Y-76590222D01*
X152684729Y-76619552D01*
X152786186Y-76702814D01*
X152869448Y-76804271D01*
X152898778Y-76840009D01*
X152982443Y-76996534D01*
X153033963Y-77166373D01*
X153051359Y-77343000D01*
X153033963Y-77519627D01*
X152982443Y-77689466D01*
X152898778Y-77845991D01*
X152869448Y-77881729D01*
X152786186Y-77983186D01*
X152684729Y-78066448D01*
X152648991Y-78095778D01*
X152492466Y-78179443D01*
X152322627Y-78230963D01*
X152256442Y-78237482D01*
X152190260Y-78244000D01*
X152101740Y-78244000D01*
X152035558Y-78237482D01*
X151969373Y-78230963D01*
X151799534Y-78179443D01*
X151643009Y-78095778D01*
X151607271Y-78066448D01*
X151505814Y-77983186D01*
X151422552Y-77881729D01*
X151393222Y-77845991D01*
X151309557Y-77689466D01*
X151258037Y-77519627D01*
X151240641Y-77343000D01*
X151258037Y-77166373D01*
X151309557Y-76996534D01*
X151393222Y-76840009D01*
X151422552Y-76804271D01*
X151505814Y-76702814D01*
X151607271Y-76619552D01*
X151643009Y-76590222D01*
X151799534Y-76506557D01*
X151969373Y-76455037D01*
X152035558Y-76448518D01*
X152101740Y-76442000D01*
X152190260Y-76442000D01*
X152256442Y-76448518D01*
X152256442Y-76448518D01*
G37*
G36*
X149716442Y-76448518D02*
G01*
X149782627Y-76455037D01*
X149952466Y-76506557D01*
X150108991Y-76590222D01*
X150144729Y-76619552D01*
X150246186Y-76702814D01*
X150329448Y-76804271D01*
X150358778Y-76840009D01*
X150442443Y-76996534D01*
X150493963Y-77166373D01*
X150511359Y-77343000D01*
X150493963Y-77519627D01*
X150442443Y-77689466D01*
X150358778Y-77845991D01*
X150329448Y-77881729D01*
X150246186Y-77983186D01*
X150144729Y-78066448D01*
X150108991Y-78095778D01*
X149952466Y-78179443D01*
X149782627Y-78230963D01*
X149716442Y-78237482D01*
X149650260Y-78244000D01*
X149561740Y-78244000D01*
X149495558Y-78237482D01*
X149429373Y-78230963D01*
X149259534Y-78179443D01*
X149103009Y-78095778D01*
X149067271Y-78066448D01*
X148965814Y-77983186D01*
X148882552Y-77881729D01*
X148853222Y-77845991D01*
X148769557Y-77689466D01*
X148718037Y-77519627D01*
X148700641Y-77343000D01*
X148718037Y-77166373D01*
X148769557Y-76996534D01*
X148853222Y-76840009D01*
X148882552Y-76804271D01*
X148965814Y-76702814D01*
X149067271Y-76619552D01*
X149103009Y-76590222D01*
X149259534Y-76506557D01*
X149429373Y-76455037D01*
X149495558Y-76448518D01*
X149561740Y-76442000D01*
X149650260Y-76442000D01*
X149716442Y-76448518D01*
X149716442Y-76448518D01*
G37*
G36*
X147176442Y-76448518D02*
G01*
X147242627Y-76455037D01*
X147412466Y-76506557D01*
X147568991Y-76590222D01*
X147604729Y-76619552D01*
X147706186Y-76702814D01*
X147789448Y-76804271D01*
X147818778Y-76840009D01*
X147902443Y-76996534D01*
X147953963Y-77166373D01*
X147971359Y-77343000D01*
X147953963Y-77519627D01*
X147902443Y-77689466D01*
X147818778Y-77845991D01*
X147789448Y-77881729D01*
X147706186Y-77983186D01*
X147604729Y-78066448D01*
X147568991Y-78095778D01*
X147412466Y-78179443D01*
X147242627Y-78230963D01*
X147176442Y-78237482D01*
X147110260Y-78244000D01*
X147021740Y-78244000D01*
X146955558Y-78237482D01*
X146889373Y-78230963D01*
X146719534Y-78179443D01*
X146563009Y-78095778D01*
X146527271Y-78066448D01*
X146425814Y-77983186D01*
X146342552Y-77881729D01*
X146313222Y-77845991D01*
X146229557Y-77689466D01*
X146178037Y-77519627D01*
X146160641Y-77343000D01*
X146178037Y-77166373D01*
X146229557Y-76996534D01*
X146313222Y-76840009D01*
X146342552Y-76804271D01*
X146425814Y-76702814D01*
X146527271Y-76619552D01*
X146563009Y-76590222D01*
X146719534Y-76506557D01*
X146889373Y-76455037D01*
X146955558Y-76448518D01*
X147021740Y-76442000D01*
X147110260Y-76442000D01*
X147176442Y-76448518D01*
X147176442Y-76448518D01*
G37*
G36*
X144636442Y-76448518D02*
G01*
X144702627Y-76455037D01*
X144872466Y-76506557D01*
X145028991Y-76590222D01*
X145064729Y-76619552D01*
X145166186Y-76702814D01*
X145249448Y-76804271D01*
X145278778Y-76840009D01*
X145362443Y-76996534D01*
X145413963Y-77166373D01*
X145431359Y-77343000D01*
X145413963Y-77519627D01*
X145362443Y-77689466D01*
X145278778Y-77845991D01*
X145249448Y-77881729D01*
X145166186Y-77983186D01*
X145064729Y-78066448D01*
X145028991Y-78095778D01*
X144872466Y-78179443D01*
X144702627Y-78230963D01*
X144636442Y-78237482D01*
X144570260Y-78244000D01*
X144481740Y-78244000D01*
X144415558Y-78237482D01*
X144349373Y-78230963D01*
X144179534Y-78179443D01*
X144023009Y-78095778D01*
X143987271Y-78066448D01*
X143885814Y-77983186D01*
X143802552Y-77881729D01*
X143773222Y-77845991D01*
X143689557Y-77689466D01*
X143638037Y-77519627D01*
X143620641Y-77343000D01*
X143638037Y-77166373D01*
X143689557Y-76996534D01*
X143773222Y-76840009D01*
X143802552Y-76804271D01*
X143885814Y-76702814D01*
X143987271Y-76619552D01*
X144023009Y-76590222D01*
X144179534Y-76506557D01*
X144349373Y-76455037D01*
X144415558Y-76448518D01*
X144481740Y-76442000D01*
X144570260Y-76442000D01*
X144636442Y-76448518D01*
X144636442Y-76448518D01*
G37*
G36*
X142096442Y-76448518D02*
G01*
X142162627Y-76455037D01*
X142332466Y-76506557D01*
X142488991Y-76590222D01*
X142524729Y-76619552D01*
X142626186Y-76702814D01*
X142709448Y-76804271D01*
X142738778Y-76840009D01*
X142822443Y-76996534D01*
X142873963Y-77166373D01*
X142891359Y-77343000D01*
X142873963Y-77519627D01*
X142822443Y-77689466D01*
X142738778Y-77845991D01*
X142709448Y-77881729D01*
X142626186Y-77983186D01*
X142524729Y-78066448D01*
X142488991Y-78095778D01*
X142332466Y-78179443D01*
X142162627Y-78230963D01*
X142096442Y-78237482D01*
X142030260Y-78244000D01*
X141941740Y-78244000D01*
X141875558Y-78237482D01*
X141809373Y-78230963D01*
X141639534Y-78179443D01*
X141483009Y-78095778D01*
X141447271Y-78066448D01*
X141345814Y-77983186D01*
X141262552Y-77881729D01*
X141233222Y-77845991D01*
X141149557Y-77689466D01*
X141098037Y-77519627D01*
X141080641Y-77343000D01*
X141098037Y-77166373D01*
X141149557Y-76996534D01*
X141233222Y-76840009D01*
X141262552Y-76804271D01*
X141345814Y-76702814D01*
X141447271Y-76619552D01*
X141483009Y-76590222D01*
X141639534Y-76506557D01*
X141809373Y-76455037D01*
X141875558Y-76448518D01*
X141941740Y-76442000D01*
X142030260Y-76442000D01*
X142096442Y-76448518D01*
X142096442Y-76448518D01*
G37*
G36*
X139556442Y-76448518D02*
G01*
X139622627Y-76455037D01*
X139792466Y-76506557D01*
X139948991Y-76590222D01*
X139984729Y-76619552D01*
X140086186Y-76702814D01*
X140169448Y-76804271D01*
X140198778Y-76840009D01*
X140282443Y-76996534D01*
X140333963Y-77166373D01*
X140351359Y-77343000D01*
X140333963Y-77519627D01*
X140282443Y-77689466D01*
X140198778Y-77845991D01*
X140169448Y-77881729D01*
X140086186Y-77983186D01*
X139984729Y-78066448D01*
X139948991Y-78095778D01*
X139792466Y-78179443D01*
X139622627Y-78230963D01*
X139556442Y-78237482D01*
X139490260Y-78244000D01*
X139401740Y-78244000D01*
X139335558Y-78237482D01*
X139269373Y-78230963D01*
X139099534Y-78179443D01*
X138943009Y-78095778D01*
X138907271Y-78066448D01*
X138805814Y-77983186D01*
X138722552Y-77881729D01*
X138693222Y-77845991D01*
X138609557Y-77689466D01*
X138558037Y-77519627D01*
X138540641Y-77343000D01*
X138558037Y-77166373D01*
X138609557Y-76996534D01*
X138693222Y-76840009D01*
X138722552Y-76804271D01*
X138805814Y-76702814D01*
X138907271Y-76619552D01*
X138943009Y-76590222D01*
X139099534Y-76506557D01*
X139269373Y-76455037D01*
X139335558Y-76448518D01*
X139401740Y-76442000D01*
X139490260Y-76442000D01*
X139556442Y-76448518D01*
X139556442Y-76448518D01*
G37*
G36*
X137016442Y-76448518D02*
G01*
X137082627Y-76455037D01*
X137252466Y-76506557D01*
X137408991Y-76590222D01*
X137444729Y-76619552D01*
X137546186Y-76702814D01*
X137629448Y-76804271D01*
X137658778Y-76840009D01*
X137742443Y-76996534D01*
X137793963Y-77166373D01*
X137811359Y-77343000D01*
X137793963Y-77519627D01*
X137742443Y-77689466D01*
X137658778Y-77845991D01*
X137629448Y-77881729D01*
X137546186Y-77983186D01*
X137444729Y-78066448D01*
X137408991Y-78095778D01*
X137252466Y-78179443D01*
X137082627Y-78230963D01*
X137016442Y-78237482D01*
X136950260Y-78244000D01*
X136861740Y-78244000D01*
X136795558Y-78237482D01*
X136729373Y-78230963D01*
X136559534Y-78179443D01*
X136403009Y-78095778D01*
X136367271Y-78066448D01*
X136265814Y-77983186D01*
X136182552Y-77881729D01*
X136153222Y-77845991D01*
X136069557Y-77689466D01*
X136018037Y-77519627D01*
X136000641Y-77343000D01*
X136018037Y-77166373D01*
X136069557Y-76996534D01*
X136153222Y-76840009D01*
X136182552Y-76804271D01*
X136265814Y-76702814D01*
X136367271Y-76619552D01*
X136403009Y-76590222D01*
X136559534Y-76506557D01*
X136729373Y-76455037D01*
X136795558Y-76448518D01*
X136861740Y-76442000D01*
X136950260Y-76442000D01*
X137016442Y-76448518D01*
X137016442Y-76448518D01*
G37*
G36*
X134476442Y-76448518D02*
G01*
X134542627Y-76455037D01*
X134712466Y-76506557D01*
X134868991Y-76590222D01*
X134904729Y-76619552D01*
X135006186Y-76702814D01*
X135089448Y-76804271D01*
X135118778Y-76840009D01*
X135202443Y-76996534D01*
X135253963Y-77166373D01*
X135271359Y-77343000D01*
X135253963Y-77519627D01*
X135202443Y-77689466D01*
X135118778Y-77845991D01*
X135089448Y-77881729D01*
X135006186Y-77983186D01*
X134904729Y-78066448D01*
X134868991Y-78095778D01*
X134712466Y-78179443D01*
X134542627Y-78230963D01*
X134476442Y-78237482D01*
X134410260Y-78244000D01*
X134321740Y-78244000D01*
X134255558Y-78237482D01*
X134189373Y-78230963D01*
X134019534Y-78179443D01*
X133863009Y-78095778D01*
X133827271Y-78066448D01*
X133725814Y-77983186D01*
X133642552Y-77881729D01*
X133613222Y-77845991D01*
X133529557Y-77689466D01*
X133478037Y-77519627D01*
X133460641Y-77343000D01*
X133478037Y-77166373D01*
X133529557Y-76996534D01*
X133613222Y-76840009D01*
X133642552Y-76804271D01*
X133725814Y-76702814D01*
X133827271Y-76619552D01*
X133863009Y-76590222D01*
X134019534Y-76506557D01*
X134189373Y-76455037D01*
X134255558Y-76448518D01*
X134321740Y-76442000D01*
X134410260Y-76442000D01*
X134476442Y-76448518D01*
X134476442Y-76448518D01*
G37*
G36*
X129396442Y-76448518D02*
G01*
X129462627Y-76455037D01*
X129632466Y-76506557D01*
X129788991Y-76590222D01*
X129824729Y-76619552D01*
X129926186Y-76702814D01*
X130009448Y-76804271D01*
X130038778Y-76840009D01*
X130122443Y-76996534D01*
X130173963Y-77166373D01*
X130191359Y-77343000D01*
X130173963Y-77519627D01*
X130122443Y-77689466D01*
X130038778Y-77845991D01*
X130009448Y-77881729D01*
X129926186Y-77983186D01*
X129824729Y-78066448D01*
X129788991Y-78095778D01*
X129632466Y-78179443D01*
X129462627Y-78230963D01*
X129396442Y-78237482D01*
X129330260Y-78244000D01*
X129241740Y-78244000D01*
X129175558Y-78237482D01*
X129109373Y-78230963D01*
X128939534Y-78179443D01*
X128783009Y-78095778D01*
X128747271Y-78066448D01*
X128645814Y-77983186D01*
X128562552Y-77881729D01*
X128533222Y-77845991D01*
X128449557Y-77689466D01*
X128398037Y-77519627D01*
X128380641Y-77343000D01*
X128398037Y-77166373D01*
X128449557Y-76996534D01*
X128533222Y-76840009D01*
X128562552Y-76804271D01*
X128645814Y-76702814D01*
X128747271Y-76619552D01*
X128783009Y-76590222D01*
X128939534Y-76506557D01*
X129109373Y-76455037D01*
X129175558Y-76448518D01*
X129241740Y-76442000D01*
X129330260Y-76442000D01*
X129396442Y-76448518D01*
X129396442Y-76448518D01*
G37*
G36*
X126856442Y-76448518D02*
G01*
X126922627Y-76455037D01*
X127092466Y-76506557D01*
X127248991Y-76590222D01*
X127284729Y-76619552D01*
X127386186Y-76702814D01*
X127469448Y-76804271D01*
X127498778Y-76840009D01*
X127582443Y-76996534D01*
X127633963Y-77166373D01*
X127651359Y-77343000D01*
X127633963Y-77519627D01*
X127582443Y-77689466D01*
X127498778Y-77845991D01*
X127469448Y-77881729D01*
X127386186Y-77983186D01*
X127284729Y-78066448D01*
X127248991Y-78095778D01*
X127092466Y-78179443D01*
X126922627Y-78230963D01*
X126856442Y-78237482D01*
X126790260Y-78244000D01*
X126701740Y-78244000D01*
X126635558Y-78237482D01*
X126569373Y-78230963D01*
X126399534Y-78179443D01*
X126243009Y-78095778D01*
X126207271Y-78066448D01*
X126105814Y-77983186D01*
X126022552Y-77881729D01*
X125993222Y-77845991D01*
X125909557Y-77689466D01*
X125858037Y-77519627D01*
X125840641Y-77343000D01*
X125858037Y-77166373D01*
X125909557Y-76996534D01*
X125993222Y-76840009D01*
X126022552Y-76804271D01*
X126105814Y-76702814D01*
X126207271Y-76619552D01*
X126243009Y-76590222D01*
X126399534Y-76506557D01*
X126569373Y-76455037D01*
X126635558Y-76448518D01*
X126701740Y-76442000D01*
X126790260Y-76442000D01*
X126856442Y-76448518D01*
X126856442Y-76448518D01*
G37*
G36*
X124316442Y-76448518D02*
G01*
X124382627Y-76455037D01*
X124552466Y-76506557D01*
X124708991Y-76590222D01*
X124744729Y-76619552D01*
X124846186Y-76702814D01*
X124929448Y-76804271D01*
X124958778Y-76840009D01*
X125042443Y-76996534D01*
X125093963Y-77166373D01*
X125111359Y-77343000D01*
X125093963Y-77519627D01*
X125042443Y-77689466D01*
X124958778Y-77845991D01*
X124929448Y-77881729D01*
X124846186Y-77983186D01*
X124744729Y-78066448D01*
X124708991Y-78095778D01*
X124552466Y-78179443D01*
X124382627Y-78230963D01*
X124316442Y-78237482D01*
X124250260Y-78244000D01*
X124161740Y-78244000D01*
X124095558Y-78237482D01*
X124029373Y-78230963D01*
X123859534Y-78179443D01*
X123703009Y-78095778D01*
X123667271Y-78066448D01*
X123565814Y-77983186D01*
X123482552Y-77881729D01*
X123453222Y-77845991D01*
X123369557Y-77689466D01*
X123318037Y-77519627D01*
X123300641Y-77343000D01*
X123318037Y-77166373D01*
X123369557Y-76996534D01*
X123453222Y-76840009D01*
X123482552Y-76804271D01*
X123565814Y-76702814D01*
X123667271Y-76619552D01*
X123703009Y-76590222D01*
X123859534Y-76506557D01*
X124029373Y-76455037D01*
X124095558Y-76448518D01*
X124161740Y-76442000D01*
X124250260Y-76442000D01*
X124316442Y-76448518D01*
X124316442Y-76448518D01*
G37*
G36*
X121776442Y-76448518D02*
G01*
X121842627Y-76455037D01*
X122012466Y-76506557D01*
X122168991Y-76590222D01*
X122204729Y-76619552D01*
X122306186Y-76702814D01*
X122389448Y-76804271D01*
X122418778Y-76840009D01*
X122502443Y-76996534D01*
X122553963Y-77166373D01*
X122571359Y-77343000D01*
X122553963Y-77519627D01*
X122502443Y-77689466D01*
X122418778Y-77845991D01*
X122389448Y-77881729D01*
X122306186Y-77983186D01*
X122204729Y-78066448D01*
X122168991Y-78095778D01*
X122012466Y-78179443D01*
X121842627Y-78230963D01*
X121776442Y-78237482D01*
X121710260Y-78244000D01*
X121621740Y-78244000D01*
X121555558Y-78237482D01*
X121489373Y-78230963D01*
X121319534Y-78179443D01*
X121163009Y-78095778D01*
X121127271Y-78066448D01*
X121025814Y-77983186D01*
X120942552Y-77881729D01*
X120913222Y-77845991D01*
X120829557Y-77689466D01*
X120778037Y-77519627D01*
X120760641Y-77343000D01*
X120778037Y-77166373D01*
X120829557Y-76996534D01*
X120913222Y-76840009D01*
X120942552Y-76804271D01*
X121025814Y-76702814D01*
X121127271Y-76619552D01*
X121163009Y-76590222D01*
X121319534Y-76506557D01*
X121489373Y-76455037D01*
X121555558Y-76448518D01*
X121621740Y-76442000D01*
X121710260Y-76442000D01*
X121776442Y-76448518D01*
X121776442Y-76448518D01*
G37*
G36*
X119236442Y-76448518D02*
G01*
X119302627Y-76455037D01*
X119472466Y-76506557D01*
X119628991Y-76590222D01*
X119664729Y-76619552D01*
X119766186Y-76702814D01*
X119849448Y-76804271D01*
X119878778Y-76840009D01*
X119962443Y-76996534D01*
X120013963Y-77166373D01*
X120031359Y-77343000D01*
X120013963Y-77519627D01*
X119962443Y-77689466D01*
X119878778Y-77845991D01*
X119849448Y-77881729D01*
X119766186Y-77983186D01*
X119664729Y-78066448D01*
X119628991Y-78095778D01*
X119472466Y-78179443D01*
X119302627Y-78230963D01*
X119236442Y-78237482D01*
X119170260Y-78244000D01*
X119081740Y-78244000D01*
X119015558Y-78237482D01*
X118949373Y-78230963D01*
X118779534Y-78179443D01*
X118623009Y-78095778D01*
X118587271Y-78066448D01*
X118485814Y-77983186D01*
X118402552Y-77881729D01*
X118373222Y-77845991D01*
X118289557Y-77689466D01*
X118238037Y-77519627D01*
X118220641Y-77343000D01*
X118238037Y-77166373D01*
X118289557Y-76996534D01*
X118373222Y-76840009D01*
X118402552Y-76804271D01*
X118485814Y-76702814D01*
X118587271Y-76619552D01*
X118623009Y-76590222D01*
X118779534Y-76506557D01*
X118949373Y-76455037D01*
X119015558Y-76448518D01*
X119081740Y-76442000D01*
X119170260Y-76442000D01*
X119236442Y-76448518D01*
X119236442Y-76448518D01*
G37*
G36*
X116696442Y-76448518D02*
G01*
X116762627Y-76455037D01*
X116932466Y-76506557D01*
X117088991Y-76590222D01*
X117124729Y-76619552D01*
X117226186Y-76702814D01*
X117309448Y-76804271D01*
X117338778Y-76840009D01*
X117422443Y-76996534D01*
X117473963Y-77166373D01*
X117491359Y-77343000D01*
X117473963Y-77519627D01*
X117422443Y-77689466D01*
X117338778Y-77845991D01*
X117309448Y-77881729D01*
X117226186Y-77983186D01*
X117124729Y-78066448D01*
X117088991Y-78095778D01*
X116932466Y-78179443D01*
X116762627Y-78230963D01*
X116696442Y-78237482D01*
X116630260Y-78244000D01*
X116541740Y-78244000D01*
X116475558Y-78237482D01*
X116409373Y-78230963D01*
X116239534Y-78179443D01*
X116083009Y-78095778D01*
X116047271Y-78066448D01*
X115945814Y-77983186D01*
X115862552Y-77881729D01*
X115833222Y-77845991D01*
X115749557Y-77689466D01*
X115698037Y-77519627D01*
X115680641Y-77343000D01*
X115698037Y-77166373D01*
X115749557Y-76996534D01*
X115833222Y-76840009D01*
X115862552Y-76804271D01*
X115945814Y-76702814D01*
X116047271Y-76619552D01*
X116083009Y-76590222D01*
X116239534Y-76506557D01*
X116409373Y-76455037D01*
X116475558Y-76448518D01*
X116541740Y-76442000D01*
X116630260Y-76442000D01*
X116696442Y-76448518D01*
X116696442Y-76448518D01*
G37*
G36*
X114947000Y-78244000D02*
G01*
X113145000Y-78244000D01*
X113145000Y-76442000D01*
X114947000Y-76442000D01*
X114947000Y-78244000D01*
X114947000Y-78244000D01*
G37*
G36*
X144636443Y-73781519D02*
G01*
X144702627Y-73788037D01*
X144872466Y-73839557D01*
X145028991Y-73923222D01*
X145064729Y-73952552D01*
X145166186Y-74035814D01*
X145249448Y-74137271D01*
X145278778Y-74173009D01*
X145362443Y-74329534D01*
X145413963Y-74499373D01*
X145431359Y-74676000D01*
X145413963Y-74852627D01*
X145362443Y-75022466D01*
X145278778Y-75178991D01*
X145249448Y-75214729D01*
X145166186Y-75316186D01*
X145064729Y-75399448D01*
X145028991Y-75428778D01*
X144872466Y-75512443D01*
X144702627Y-75563963D01*
X144636443Y-75570481D01*
X144570260Y-75577000D01*
X144481740Y-75577000D01*
X144415557Y-75570481D01*
X144349373Y-75563963D01*
X144179534Y-75512443D01*
X144023009Y-75428778D01*
X143987271Y-75399448D01*
X143885814Y-75316186D01*
X143802552Y-75214729D01*
X143773222Y-75178991D01*
X143689557Y-75022466D01*
X143638037Y-74852627D01*
X143620641Y-74676000D01*
X143638037Y-74499373D01*
X143689557Y-74329534D01*
X143773222Y-74173009D01*
X143802552Y-74137271D01*
X143885814Y-74035814D01*
X143987271Y-73952552D01*
X144023009Y-73923222D01*
X144179534Y-73839557D01*
X144349373Y-73788037D01*
X144415557Y-73781519D01*
X144481740Y-73775000D01*
X144570260Y-73775000D01*
X144636443Y-73781519D01*
X144636443Y-73781519D01*
G37*
G36*
X159876443Y-73781519D02*
G01*
X159942627Y-73788037D01*
X160112466Y-73839557D01*
X160268991Y-73923222D01*
X160304729Y-73952552D01*
X160406186Y-74035814D01*
X160489448Y-74137271D01*
X160518778Y-74173009D01*
X160602443Y-74329534D01*
X160653963Y-74499373D01*
X160671359Y-74676000D01*
X160653963Y-74852627D01*
X160602443Y-75022466D01*
X160518778Y-75178991D01*
X160489448Y-75214729D01*
X160406186Y-75316186D01*
X160304729Y-75399448D01*
X160268991Y-75428778D01*
X160112466Y-75512443D01*
X159942627Y-75563963D01*
X159876443Y-75570481D01*
X159810260Y-75577000D01*
X159721740Y-75577000D01*
X159655557Y-75570481D01*
X159589373Y-75563963D01*
X159419534Y-75512443D01*
X159263009Y-75428778D01*
X159227271Y-75399448D01*
X159125814Y-75316186D01*
X159042552Y-75214729D01*
X159013222Y-75178991D01*
X158929557Y-75022466D01*
X158878037Y-74852627D01*
X158860641Y-74676000D01*
X158878037Y-74499373D01*
X158929557Y-74329534D01*
X159013222Y-74173009D01*
X159042552Y-74137271D01*
X159125814Y-74035814D01*
X159227271Y-73952552D01*
X159263009Y-73923222D01*
X159419534Y-73839557D01*
X159589373Y-73788037D01*
X159655557Y-73781519D01*
X159721740Y-73775000D01*
X159810260Y-73775000D01*
X159876443Y-73781519D01*
X159876443Y-73781519D01*
G37*
G36*
X142096443Y-73781519D02*
G01*
X142162627Y-73788037D01*
X142332466Y-73839557D01*
X142488991Y-73923222D01*
X142524729Y-73952552D01*
X142626186Y-74035814D01*
X142709448Y-74137271D01*
X142738778Y-74173009D01*
X142822443Y-74329534D01*
X142873963Y-74499373D01*
X142891359Y-74676000D01*
X142873963Y-74852627D01*
X142822443Y-75022466D01*
X142738778Y-75178991D01*
X142709448Y-75214729D01*
X142626186Y-75316186D01*
X142524729Y-75399448D01*
X142488991Y-75428778D01*
X142332466Y-75512443D01*
X142162627Y-75563963D01*
X142096443Y-75570481D01*
X142030260Y-75577000D01*
X141941740Y-75577000D01*
X141875557Y-75570481D01*
X141809373Y-75563963D01*
X141639534Y-75512443D01*
X141483009Y-75428778D01*
X141447271Y-75399448D01*
X141345814Y-75316186D01*
X141262552Y-75214729D01*
X141233222Y-75178991D01*
X141149557Y-75022466D01*
X141098037Y-74852627D01*
X141080641Y-74676000D01*
X141098037Y-74499373D01*
X141149557Y-74329534D01*
X141233222Y-74173009D01*
X141262552Y-74137271D01*
X141345814Y-74035814D01*
X141447271Y-73952552D01*
X141483009Y-73923222D01*
X141639534Y-73839557D01*
X141809373Y-73788037D01*
X141875557Y-73781519D01*
X141941740Y-73775000D01*
X142030260Y-73775000D01*
X142096443Y-73781519D01*
X142096443Y-73781519D01*
G37*
G36*
X139556443Y-73781519D02*
G01*
X139622627Y-73788037D01*
X139792466Y-73839557D01*
X139948991Y-73923222D01*
X139984729Y-73952552D01*
X140086186Y-74035814D01*
X140169448Y-74137271D01*
X140198778Y-74173009D01*
X140282443Y-74329534D01*
X140333963Y-74499373D01*
X140351359Y-74676000D01*
X140333963Y-74852627D01*
X140282443Y-75022466D01*
X140198778Y-75178991D01*
X140169448Y-75214729D01*
X140086186Y-75316186D01*
X139984729Y-75399448D01*
X139948991Y-75428778D01*
X139792466Y-75512443D01*
X139622627Y-75563963D01*
X139556443Y-75570481D01*
X139490260Y-75577000D01*
X139401740Y-75577000D01*
X139335557Y-75570481D01*
X139269373Y-75563963D01*
X139099534Y-75512443D01*
X138943009Y-75428778D01*
X138907271Y-75399448D01*
X138805814Y-75316186D01*
X138722552Y-75214729D01*
X138693222Y-75178991D01*
X138609557Y-75022466D01*
X138558037Y-74852627D01*
X138540641Y-74676000D01*
X138558037Y-74499373D01*
X138609557Y-74329534D01*
X138693222Y-74173009D01*
X138722552Y-74137271D01*
X138805814Y-74035814D01*
X138907271Y-73952552D01*
X138943009Y-73923222D01*
X139099534Y-73839557D01*
X139269373Y-73788037D01*
X139335557Y-73781519D01*
X139401740Y-73775000D01*
X139490260Y-73775000D01*
X139556443Y-73781519D01*
X139556443Y-73781519D01*
G37*
G36*
X137016443Y-73781519D02*
G01*
X137082627Y-73788037D01*
X137252466Y-73839557D01*
X137408991Y-73923222D01*
X137444729Y-73952552D01*
X137546186Y-74035814D01*
X137629448Y-74137271D01*
X137658778Y-74173009D01*
X137742443Y-74329534D01*
X137793963Y-74499373D01*
X137811359Y-74676000D01*
X137793963Y-74852627D01*
X137742443Y-75022466D01*
X137658778Y-75178991D01*
X137629448Y-75214729D01*
X137546186Y-75316186D01*
X137444729Y-75399448D01*
X137408991Y-75428778D01*
X137252466Y-75512443D01*
X137082627Y-75563963D01*
X137016443Y-75570481D01*
X136950260Y-75577000D01*
X136861740Y-75577000D01*
X136795557Y-75570481D01*
X136729373Y-75563963D01*
X136559534Y-75512443D01*
X136403009Y-75428778D01*
X136367271Y-75399448D01*
X136265814Y-75316186D01*
X136182552Y-75214729D01*
X136153222Y-75178991D01*
X136069557Y-75022466D01*
X136018037Y-74852627D01*
X136000641Y-74676000D01*
X136018037Y-74499373D01*
X136069557Y-74329534D01*
X136153222Y-74173009D01*
X136182552Y-74137271D01*
X136265814Y-74035814D01*
X136367271Y-73952552D01*
X136403009Y-73923222D01*
X136559534Y-73839557D01*
X136729373Y-73788037D01*
X136795557Y-73781519D01*
X136861740Y-73775000D01*
X136950260Y-73775000D01*
X137016443Y-73781519D01*
X137016443Y-73781519D01*
G37*
G36*
X134476443Y-73781519D02*
G01*
X134542627Y-73788037D01*
X134712466Y-73839557D01*
X134868991Y-73923222D01*
X134904729Y-73952552D01*
X135006186Y-74035814D01*
X135089448Y-74137271D01*
X135118778Y-74173009D01*
X135202443Y-74329534D01*
X135253963Y-74499373D01*
X135271359Y-74676000D01*
X135253963Y-74852627D01*
X135202443Y-75022466D01*
X135118778Y-75178991D01*
X135089448Y-75214729D01*
X135006186Y-75316186D01*
X134904729Y-75399448D01*
X134868991Y-75428778D01*
X134712466Y-75512443D01*
X134542627Y-75563963D01*
X134476443Y-75570481D01*
X134410260Y-75577000D01*
X134321740Y-75577000D01*
X134255557Y-75570481D01*
X134189373Y-75563963D01*
X134019534Y-75512443D01*
X133863009Y-75428778D01*
X133827271Y-75399448D01*
X133725814Y-75316186D01*
X133642552Y-75214729D01*
X133613222Y-75178991D01*
X133529557Y-75022466D01*
X133478037Y-74852627D01*
X133460641Y-74676000D01*
X133478037Y-74499373D01*
X133529557Y-74329534D01*
X133613222Y-74173009D01*
X133642552Y-74137271D01*
X133725814Y-74035814D01*
X133827271Y-73952552D01*
X133863009Y-73923222D01*
X134019534Y-73839557D01*
X134189373Y-73788037D01*
X134255557Y-73781519D01*
X134321740Y-73775000D01*
X134410260Y-73775000D01*
X134476443Y-73781519D01*
X134476443Y-73781519D01*
G37*
G36*
X131936443Y-73781519D02*
G01*
X132002627Y-73788037D01*
X132172466Y-73839557D01*
X132328991Y-73923222D01*
X132364729Y-73952552D01*
X132466186Y-74035814D01*
X132549448Y-74137271D01*
X132578778Y-74173009D01*
X132662443Y-74329534D01*
X132713963Y-74499373D01*
X132731359Y-74676000D01*
X132713963Y-74852627D01*
X132662443Y-75022466D01*
X132578778Y-75178991D01*
X132549448Y-75214729D01*
X132466186Y-75316186D01*
X132364729Y-75399448D01*
X132328991Y-75428778D01*
X132172466Y-75512443D01*
X132002627Y-75563963D01*
X131936443Y-75570481D01*
X131870260Y-75577000D01*
X131781740Y-75577000D01*
X131715557Y-75570481D01*
X131649373Y-75563963D01*
X131479534Y-75512443D01*
X131323009Y-75428778D01*
X131287271Y-75399448D01*
X131185814Y-75316186D01*
X131102552Y-75214729D01*
X131073222Y-75178991D01*
X130989557Y-75022466D01*
X130938037Y-74852627D01*
X130920641Y-74676000D01*
X130938037Y-74499373D01*
X130989557Y-74329534D01*
X131073222Y-74173009D01*
X131102552Y-74137271D01*
X131185814Y-74035814D01*
X131287271Y-73952552D01*
X131323009Y-73923222D01*
X131479534Y-73839557D01*
X131649373Y-73788037D01*
X131715557Y-73781519D01*
X131781740Y-73775000D01*
X131870260Y-73775000D01*
X131936443Y-73781519D01*
X131936443Y-73781519D01*
G37*
G36*
X129396443Y-73781519D02*
G01*
X129462627Y-73788037D01*
X129632466Y-73839557D01*
X129788991Y-73923222D01*
X129824729Y-73952552D01*
X129926186Y-74035814D01*
X130009448Y-74137271D01*
X130038778Y-74173009D01*
X130122443Y-74329534D01*
X130173963Y-74499373D01*
X130191359Y-74676000D01*
X130173963Y-74852627D01*
X130122443Y-75022466D01*
X130038778Y-75178991D01*
X130009448Y-75214729D01*
X129926186Y-75316186D01*
X129824729Y-75399448D01*
X129788991Y-75428778D01*
X129632466Y-75512443D01*
X129462627Y-75563963D01*
X129396443Y-75570481D01*
X129330260Y-75577000D01*
X129241740Y-75577000D01*
X129175557Y-75570481D01*
X129109373Y-75563963D01*
X128939534Y-75512443D01*
X128783009Y-75428778D01*
X128747271Y-75399448D01*
X128645814Y-75316186D01*
X128562552Y-75214729D01*
X128533222Y-75178991D01*
X128449557Y-75022466D01*
X128398037Y-74852627D01*
X128380641Y-74676000D01*
X128398037Y-74499373D01*
X128449557Y-74329534D01*
X128533222Y-74173009D01*
X128562552Y-74137271D01*
X128645814Y-74035814D01*
X128747271Y-73952552D01*
X128783009Y-73923222D01*
X128939534Y-73839557D01*
X129109373Y-73788037D01*
X129175557Y-73781519D01*
X129241740Y-73775000D01*
X129330260Y-73775000D01*
X129396443Y-73781519D01*
X129396443Y-73781519D01*
G37*
G36*
X126856443Y-73781519D02*
G01*
X126922627Y-73788037D01*
X127092466Y-73839557D01*
X127248991Y-73923222D01*
X127284729Y-73952552D01*
X127386186Y-74035814D01*
X127469448Y-74137271D01*
X127498778Y-74173009D01*
X127582443Y-74329534D01*
X127633963Y-74499373D01*
X127651359Y-74676000D01*
X127633963Y-74852627D01*
X127582443Y-75022466D01*
X127498778Y-75178991D01*
X127469448Y-75214729D01*
X127386186Y-75316186D01*
X127284729Y-75399448D01*
X127248991Y-75428778D01*
X127092466Y-75512443D01*
X126922627Y-75563963D01*
X126856443Y-75570481D01*
X126790260Y-75577000D01*
X126701740Y-75577000D01*
X126635557Y-75570481D01*
X126569373Y-75563963D01*
X126399534Y-75512443D01*
X126243009Y-75428778D01*
X126207271Y-75399448D01*
X126105814Y-75316186D01*
X126022552Y-75214729D01*
X125993222Y-75178991D01*
X125909557Y-75022466D01*
X125858037Y-74852627D01*
X125840641Y-74676000D01*
X125858037Y-74499373D01*
X125909557Y-74329534D01*
X125993222Y-74173009D01*
X126022552Y-74137271D01*
X126105814Y-74035814D01*
X126207271Y-73952552D01*
X126243009Y-73923222D01*
X126399534Y-73839557D01*
X126569373Y-73788037D01*
X126635557Y-73781519D01*
X126701740Y-73775000D01*
X126790260Y-73775000D01*
X126856443Y-73781519D01*
X126856443Y-73781519D01*
G37*
G36*
X124316443Y-73781519D02*
G01*
X124382627Y-73788037D01*
X124552466Y-73839557D01*
X124708991Y-73923222D01*
X124744729Y-73952552D01*
X124846186Y-74035814D01*
X124929448Y-74137271D01*
X124958778Y-74173009D01*
X125042443Y-74329534D01*
X125093963Y-74499373D01*
X125111359Y-74676000D01*
X125093963Y-74852627D01*
X125042443Y-75022466D01*
X124958778Y-75178991D01*
X124929448Y-75214729D01*
X124846186Y-75316186D01*
X124744729Y-75399448D01*
X124708991Y-75428778D01*
X124552466Y-75512443D01*
X124382627Y-75563963D01*
X124316443Y-75570481D01*
X124250260Y-75577000D01*
X124161740Y-75577000D01*
X124095557Y-75570481D01*
X124029373Y-75563963D01*
X123859534Y-75512443D01*
X123703009Y-75428778D01*
X123667271Y-75399448D01*
X123565814Y-75316186D01*
X123482552Y-75214729D01*
X123453222Y-75178991D01*
X123369557Y-75022466D01*
X123318037Y-74852627D01*
X123300641Y-74676000D01*
X123318037Y-74499373D01*
X123369557Y-74329534D01*
X123453222Y-74173009D01*
X123482552Y-74137271D01*
X123565814Y-74035814D01*
X123667271Y-73952552D01*
X123703009Y-73923222D01*
X123859534Y-73839557D01*
X124029373Y-73788037D01*
X124095557Y-73781519D01*
X124161740Y-73775000D01*
X124250260Y-73775000D01*
X124316443Y-73781519D01*
X124316443Y-73781519D01*
G37*
G36*
X121776443Y-73781519D02*
G01*
X121842627Y-73788037D01*
X122012466Y-73839557D01*
X122168991Y-73923222D01*
X122204729Y-73952552D01*
X122306186Y-74035814D01*
X122389448Y-74137271D01*
X122418778Y-74173009D01*
X122502443Y-74329534D01*
X122553963Y-74499373D01*
X122571359Y-74676000D01*
X122553963Y-74852627D01*
X122502443Y-75022466D01*
X122418778Y-75178991D01*
X122389448Y-75214729D01*
X122306186Y-75316186D01*
X122204729Y-75399448D01*
X122168991Y-75428778D01*
X122012466Y-75512443D01*
X121842627Y-75563963D01*
X121776443Y-75570481D01*
X121710260Y-75577000D01*
X121621740Y-75577000D01*
X121555557Y-75570481D01*
X121489373Y-75563963D01*
X121319534Y-75512443D01*
X121163009Y-75428778D01*
X121127271Y-75399448D01*
X121025814Y-75316186D01*
X120942552Y-75214729D01*
X120913222Y-75178991D01*
X120829557Y-75022466D01*
X120778037Y-74852627D01*
X120760641Y-74676000D01*
X120778037Y-74499373D01*
X120829557Y-74329534D01*
X120913222Y-74173009D01*
X120942552Y-74137271D01*
X121025814Y-74035814D01*
X121127271Y-73952552D01*
X121163009Y-73923222D01*
X121319534Y-73839557D01*
X121489373Y-73788037D01*
X121555557Y-73781519D01*
X121621740Y-73775000D01*
X121710260Y-73775000D01*
X121776443Y-73781519D01*
X121776443Y-73781519D01*
G37*
G36*
X119236443Y-73781519D02*
G01*
X119302627Y-73788037D01*
X119472466Y-73839557D01*
X119628991Y-73923222D01*
X119664729Y-73952552D01*
X119766186Y-74035814D01*
X119849448Y-74137271D01*
X119878778Y-74173009D01*
X119962443Y-74329534D01*
X120013963Y-74499373D01*
X120031359Y-74676000D01*
X120013963Y-74852627D01*
X119962443Y-75022466D01*
X119878778Y-75178991D01*
X119849448Y-75214729D01*
X119766186Y-75316186D01*
X119664729Y-75399448D01*
X119628991Y-75428778D01*
X119472466Y-75512443D01*
X119302627Y-75563963D01*
X119236443Y-75570481D01*
X119170260Y-75577000D01*
X119081740Y-75577000D01*
X119015557Y-75570481D01*
X118949373Y-75563963D01*
X118779534Y-75512443D01*
X118623009Y-75428778D01*
X118587271Y-75399448D01*
X118485814Y-75316186D01*
X118402552Y-75214729D01*
X118373222Y-75178991D01*
X118289557Y-75022466D01*
X118238037Y-74852627D01*
X118220641Y-74676000D01*
X118238037Y-74499373D01*
X118289557Y-74329534D01*
X118373222Y-74173009D01*
X118402552Y-74137271D01*
X118485814Y-74035814D01*
X118587271Y-73952552D01*
X118623009Y-73923222D01*
X118779534Y-73839557D01*
X118949373Y-73788037D01*
X119015557Y-73781519D01*
X119081740Y-73775000D01*
X119170260Y-73775000D01*
X119236443Y-73781519D01*
X119236443Y-73781519D01*
G37*
G36*
X157336443Y-73781519D02*
G01*
X157402627Y-73788037D01*
X157572466Y-73839557D01*
X157728991Y-73923222D01*
X157764729Y-73952552D01*
X157866186Y-74035814D01*
X157949448Y-74137271D01*
X157978778Y-74173009D01*
X158062443Y-74329534D01*
X158113963Y-74499373D01*
X158131359Y-74676000D01*
X158113963Y-74852627D01*
X158062443Y-75022466D01*
X157978778Y-75178991D01*
X157949448Y-75214729D01*
X157866186Y-75316186D01*
X157764729Y-75399448D01*
X157728991Y-75428778D01*
X157572466Y-75512443D01*
X157402627Y-75563963D01*
X157336443Y-75570481D01*
X157270260Y-75577000D01*
X157181740Y-75577000D01*
X157115557Y-75570481D01*
X157049373Y-75563963D01*
X156879534Y-75512443D01*
X156723009Y-75428778D01*
X156687271Y-75399448D01*
X156585814Y-75316186D01*
X156502552Y-75214729D01*
X156473222Y-75178991D01*
X156389557Y-75022466D01*
X156338037Y-74852627D01*
X156320641Y-74676000D01*
X156338037Y-74499373D01*
X156389557Y-74329534D01*
X156473222Y-74173009D01*
X156502552Y-74137271D01*
X156585814Y-74035814D01*
X156687271Y-73952552D01*
X156723009Y-73923222D01*
X156879534Y-73839557D01*
X157049373Y-73788037D01*
X157115557Y-73781519D01*
X157181740Y-73775000D01*
X157270260Y-73775000D01*
X157336443Y-73781519D01*
X157336443Y-73781519D01*
G37*
G36*
X116696443Y-73781519D02*
G01*
X116762627Y-73788037D01*
X116932466Y-73839557D01*
X117088991Y-73923222D01*
X117124729Y-73952552D01*
X117226186Y-74035814D01*
X117309448Y-74137271D01*
X117338778Y-74173009D01*
X117422443Y-74329534D01*
X117473963Y-74499373D01*
X117491359Y-74676000D01*
X117473963Y-74852627D01*
X117422443Y-75022466D01*
X117338778Y-75178991D01*
X117309448Y-75214729D01*
X117226186Y-75316186D01*
X117124729Y-75399448D01*
X117088991Y-75428778D01*
X116932466Y-75512443D01*
X116762627Y-75563963D01*
X116696443Y-75570481D01*
X116630260Y-75577000D01*
X116541740Y-75577000D01*
X116475557Y-75570481D01*
X116409373Y-75563963D01*
X116239534Y-75512443D01*
X116083009Y-75428778D01*
X116047271Y-75399448D01*
X115945814Y-75316186D01*
X115862552Y-75214729D01*
X115833222Y-75178991D01*
X115749557Y-75022466D01*
X115698037Y-74852627D01*
X115680641Y-74676000D01*
X115698037Y-74499373D01*
X115749557Y-74329534D01*
X115833222Y-74173009D01*
X115862552Y-74137271D01*
X115945814Y-74035814D01*
X116047271Y-73952552D01*
X116083009Y-73923222D01*
X116239534Y-73839557D01*
X116409373Y-73788037D01*
X116475557Y-73781519D01*
X116541740Y-73775000D01*
X116630260Y-73775000D01*
X116696443Y-73781519D01*
X116696443Y-73781519D01*
G37*
G36*
X114947000Y-75577000D02*
G01*
X113145000Y-75577000D01*
X113145000Y-73775000D01*
X114947000Y-73775000D01*
X114947000Y-75577000D01*
X114947000Y-75577000D01*
G37*
G36*
X147176443Y-73781519D02*
G01*
X147242627Y-73788037D01*
X147412466Y-73839557D01*
X147568991Y-73923222D01*
X147604729Y-73952552D01*
X147706186Y-74035814D01*
X147789448Y-74137271D01*
X147818778Y-74173009D01*
X147902443Y-74329534D01*
X147953963Y-74499373D01*
X147971359Y-74676000D01*
X147953963Y-74852627D01*
X147902443Y-75022466D01*
X147818778Y-75178991D01*
X147789448Y-75214729D01*
X147706186Y-75316186D01*
X147604729Y-75399448D01*
X147568991Y-75428778D01*
X147412466Y-75512443D01*
X147242627Y-75563963D01*
X147176443Y-75570481D01*
X147110260Y-75577000D01*
X147021740Y-75577000D01*
X146955557Y-75570481D01*
X146889373Y-75563963D01*
X146719534Y-75512443D01*
X146563009Y-75428778D01*
X146527271Y-75399448D01*
X146425814Y-75316186D01*
X146342552Y-75214729D01*
X146313222Y-75178991D01*
X146229557Y-75022466D01*
X146178037Y-74852627D01*
X146160641Y-74676000D01*
X146178037Y-74499373D01*
X146229557Y-74329534D01*
X146313222Y-74173009D01*
X146342552Y-74137271D01*
X146425814Y-74035814D01*
X146527271Y-73952552D01*
X146563009Y-73923222D01*
X146719534Y-73839557D01*
X146889373Y-73788037D01*
X146955557Y-73781519D01*
X147021740Y-73775000D01*
X147110260Y-73775000D01*
X147176443Y-73781519D01*
X147176443Y-73781519D01*
G37*
G36*
X154796443Y-73781519D02*
G01*
X154862627Y-73788037D01*
X155032466Y-73839557D01*
X155188991Y-73923222D01*
X155224729Y-73952552D01*
X155326186Y-74035814D01*
X155409448Y-74137271D01*
X155438778Y-74173009D01*
X155522443Y-74329534D01*
X155573963Y-74499373D01*
X155591359Y-74676000D01*
X155573963Y-74852627D01*
X155522443Y-75022466D01*
X155438778Y-75178991D01*
X155409448Y-75214729D01*
X155326186Y-75316186D01*
X155224729Y-75399448D01*
X155188991Y-75428778D01*
X155032466Y-75512443D01*
X154862627Y-75563963D01*
X154796443Y-75570481D01*
X154730260Y-75577000D01*
X154641740Y-75577000D01*
X154575557Y-75570481D01*
X154509373Y-75563963D01*
X154339534Y-75512443D01*
X154183009Y-75428778D01*
X154147271Y-75399448D01*
X154045814Y-75316186D01*
X153962552Y-75214729D01*
X153933222Y-75178991D01*
X153849557Y-75022466D01*
X153798037Y-74852627D01*
X153780641Y-74676000D01*
X153798037Y-74499373D01*
X153849557Y-74329534D01*
X153933222Y-74173009D01*
X153962552Y-74137271D01*
X154045814Y-74035814D01*
X154147271Y-73952552D01*
X154183009Y-73923222D01*
X154339534Y-73839557D01*
X154509373Y-73788037D01*
X154575557Y-73781519D01*
X154641740Y-73775000D01*
X154730260Y-73775000D01*
X154796443Y-73781519D01*
X154796443Y-73781519D01*
G37*
G36*
X152256443Y-73781519D02*
G01*
X152322627Y-73788037D01*
X152492466Y-73839557D01*
X152648991Y-73923222D01*
X152684729Y-73952552D01*
X152786186Y-74035814D01*
X152869448Y-74137271D01*
X152898778Y-74173009D01*
X152982443Y-74329534D01*
X153033963Y-74499373D01*
X153051359Y-74676000D01*
X153033963Y-74852627D01*
X152982443Y-75022466D01*
X152898778Y-75178991D01*
X152869448Y-75214729D01*
X152786186Y-75316186D01*
X152684729Y-75399448D01*
X152648991Y-75428778D01*
X152492466Y-75512443D01*
X152322627Y-75563963D01*
X152256443Y-75570481D01*
X152190260Y-75577000D01*
X152101740Y-75577000D01*
X152035557Y-75570481D01*
X151969373Y-75563963D01*
X151799534Y-75512443D01*
X151643009Y-75428778D01*
X151607271Y-75399448D01*
X151505814Y-75316186D01*
X151422552Y-75214729D01*
X151393222Y-75178991D01*
X151309557Y-75022466D01*
X151258037Y-74852627D01*
X151240641Y-74676000D01*
X151258037Y-74499373D01*
X151309557Y-74329534D01*
X151393222Y-74173009D01*
X151422552Y-74137271D01*
X151505814Y-74035814D01*
X151607271Y-73952552D01*
X151643009Y-73923222D01*
X151799534Y-73839557D01*
X151969373Y-73788037D01*
X152035557Y-73781519D01*
X152101740Y-73775000D01*
X152190260Y-73775000D01*
X152256443Y-73781519D01*
X152256443Y-73781519D01*
G37*
G36*
X149716443Y-73781519D02*
G01*
X149782627Y-73788037D01*
X149952466Y-73839557D01*
X150108991Y-73923222D01*
X150144729Y-73952552D01*
X150246186Y-74035814D01*
X150329448Y-74137271D01*
X150358778Y-74173009D01*
X150442443Y-74329534D01*
X150493963Y-74499373D01*
X150511359Y-74676000D01*
X150493963Y-74852627D01*
X150442443Y-75022466D01*
X150358778Y-75178991D01*
X150329448Y-75214729D01*
X150246186Y-75316186D01*
X150144729Y-75399448D01*
X150108991Y-75428778D01*
X149952466Y-75512443D01*
X149782627Y-75563963D01*
X149716443Y-75570481D01*
X149650260Y-75577000D01*
X149561740Y-75577000D01*
X149495557Y-75570481D01*
X149429373Y-75563963D01*
X149259534Y-75512443D01*
X149103009Y-75428778D01*
X149067271Y-75399448D01*
X148965814Y-75316186D01*
X148882552Y-75214729D01*
X148853222Y-75178991D01*
X148769557Y-75022466D01*
X148718037Y-74852627D01*
X148700641Y-74676000D01*
X148718037Y-74499373D01*
X148769557Y-74329534D01*
X148853222Y-74173009D01*
X148882552Y-74137271D01*
X148965814Y-74035814D01*
X149067271Y-73952552D01*
X149103009Y-73923222D01*
X149259534Y-73839557D01*
X149429373Y-73788037D01*
X149495557Y-73781519D01*
X149561740Y-73775000D01*
X149650260Y-73775000D01*
X149716443Y-73781519D01*
X149716443Y-73781519D01*
G37*
G36*
X144636443Y-71241519D02*
G01*
X144702627Y-71248037D01*
X144872466Y-71299557D01*
X145028991Y-71383222D01*
X145064729Y-71412552D01*
X145166186Y-71495814D01*
X145249448Y-71597271D01*
X145278778Y-71633009D01*
X145362443Y-71789534D01*
X145413963Y-71959373D01*
X145431359Y-72136000D01*
X145413963Y-72312627D01*
X145362443Y-72482466D01*
X145278778Y-72638991D01*
X145249448Y-72674729D01*
X145166186Y-72776186D01*
X145064729Y-72859448D01*
X145028991Y-72888778D01*
X144872466Y-72972443D01*
X144702627Y-73023963D01*
X144636443Y-73030481D01*
X144570260Y-73037000D01*
X144481740Y-73037000D01*
X144415557Y-73030481D01*
X144349373Y-73023963D01*
X144179534Y-72972443D01*
X144023009Y-72888778D01*
X143987271Y-72859448D01*
X143885814Y-72776186D01*
X143802552Y-72674729D01*
X143773222Y-72638991D01*
X143689557Y-72482466D01*
X143638037Y-72312627D01*
X143620641Y-72136000D01*
X143638037Y-71959373D01*
X143689557Y-71789534D01*
X143773222Y-71633009D01*
X143802552Y-71597271D01*
X143885814Y-71495814D01*
X143987271Y-71412552D01*
X144023009Y-71383222D01*
X144179534Y-71299557D01*
X144349373Y-71248037D01*
X144415557Y-71241519D01*
X144481740Y-71235000D01*
X144570260Y-71235000D01*
X144636443Y-71241519D01*
X144636443Y-71241519D01*
G37*
G36*
X144636443Y-68701519D02*
G01*
X144702627Y-68708037D01*
X144872466Y-68759557D01*
X145028991Y-68843222D01*
X145064729Y-68872552D01*
X145166186Y-68955814D01*
X145249448Y-69057271D01*
X145278778Y-69093009D01*
X145362443Y-69249534D01*
X145413963Y-69419373D01*
X145431359Y-69596000D01*
X145413963Y-69772627D01*
X145362443Y-69942466D01*
X145278778Y-70098991D01*
X145249448Y-70134729D01*
X145166186Y-70236186D01*
X145064729Y-70319448D01*
X145028991Y-70348778D01*
X144872466Y-70432443D01*
X144702627Y-70483963D01*
X144636443Y-70490481D01*
X144570260Y-70497000D01*
X144481740Y-70497000D01*
X144415557Y-70490481D01*
X144349373Y-70483963D01*
X144179534Y-70432443D01*
X144023009Y-70348778D01*
X143987271Y-70319448D01*
X143885814Y-70236186D01*
X143802552Y-70134729D01*
X143773222Y-70098991D01*
X143689557Y-69942466D01*
X143638037Y-69772627D01*
X143620641Y-69596000D01*
X143638037Y-69419373D01*
X143689557Y-69249534D01*
X143773222Y-69093009D01*
X143802552Y-69057271D01*
X143885814Y-68955814D01*
X143987271Y-68872552D01*
X144023009Y-68843222D01*
X144179534Y-68759557D01*
X144349373Y-68708037D01*
X144415557Y-68701519D01*
X144481740Y-68695000D01*
X144570260Y-68695000D01*
X144636443Y-68701519D01*
X144636443Y-68701519D01*
G37*
G36*
X144636442Y-66161518D02*
G01*
X144702627Y-66168037D01*
X144872466Y-66219557D01*
X145028991Y-66303222D01*
X145064729Y-66332552D01*
X145166186Y-66415814D01*
X145249448Y-66517271D01*
X145278778Y-66553009D01*
X145362443Y-66709534D01*
X145413963Y-66879373D01*
X145431359Y-67056000D01*
X145413963Y-67232627D01*
X145362443Y-67402466D01*
X145278778Y-67558991D01*
X145249448Y-67594729D01*
X145166186Y-67696186D01*
X145064729Y-67779448D01*
X145028991Y-67808778D01*
X144872466Y-67892443D01*
X144702627Y-67943963D01*
X144636442Y-67950482D01*
X144570260Y-67957000D01*
X144481740Y-67957000D01*
X144415558Y-67950482D01*
X144349373Y-67943963D01*
X144179534Y-67892443D01*
X144023009Y-67808778D01*
X143987271Y-67779448D01*
X143885814Y-67696186D01*
X143802552Y-67594729D01*
X143773222Y-67558991D01*
X143689557Y-67402466D01*
X143638037Y-67232627D01*
X143620641Y-67056000D01*
X143638037Y-66879373D01*
X143689557Y-66709534D01*
X143773222Y-66553009D01*
X143802552Y-66517271D01*
X143885814Y-66415814D01*
X143987271Y-66332552D01*
X144023009Y-66303222D01*
X144179534Y-66219557D01*
X144349373Y-66168037D01*
X144415558Y-66161518D01*
X144481740Y-66155000D01*
X144570260Y-66155000D01*
X144636442Y-66161518D01*
X144636442Y-66161518D01*
G37*
G36*
X144636443Y-63621519D02*
G01*
X144702627Y-63628037D01*
X144872466Y-63679557D01*
X145028991Y-63763222D01*
X145064729Y-63792552D01*
X145166186Y-63875814D01*
X145249448Y-63977271D01*
X145278778Y-64013009D01*
X145362443Y-64169534D01*
X145413963Y-64339373D01*
X145431359Y-64516000D01*
X145413963Y-64692627D01*
X145362443Y-64862466D01*
X145278778Y-65018991D01*
X145249448Y-65054729D01*
X145166186Y-65156186D01*
X145064729Y-65239448D01*
X145028991Y-65268778D01*
X144872466Y-65352443D01*
X144702627Y-65403963D01*
X144636443Y-65410481D01*
X144570260Y-65417000D01*
X144481740Y-65417000D01*
X144415557Y-65410481D01*
X144349373Y-65403963D01*
X144179534Y-65352443D01*
X144023009Y-65268778D01*
X143987271Y-65239448D01*
X143885814Y-65156186D01*
X143802552Y-65054729D01*
X143773222Y-65018991D01*
X143689557Y-64862466D01*
X143638037Y-64692627D01*
X143620641Y-64516000D01*
X143638037Y-64339373D01*
X143689557Y-64169534D01*
X143773222Y-64013009D01*
X143802552Y-63977271D01*
X143885814Y-63875814D01*
X143987271Y-63792552D01*
X144023009Y-63763222D01*
X144179534Y-63679557D01*
X144349373Y-63628037D01*
X144415557Y-63621519D01*
X144481740Y-63615000D01*
X144570260Y-63615000D01*
X144636443Y-63621519D01*
X144636443Y-63621519D01*
G37*
G36*
X144636442Y-61081518D02*
G01*
X144702627Y-61088037D01*
X144872466Y-61139557D01*
X145028991Y-61223222D01*
X145064729Y-61252552D01*
X145166186Y-61335814D01*
X145249448Y-61437271D01*
X145278778Y-61473009D01*
X145362443Y-61629534D01*
X145413963Y-61799373D01*
X145431359Y-61976000D01*
X145413963Y-62152627D01*
X145362443Y-62322466D01*
X145278778Y-62478991D01*
X145249448Y-62514729D01*
X145166186Y-62616186D01*
X145064729Y-62699448D01*
X145028991Y-62728778D01*
X144872466Y-62812443D01*
X144702627Y-62863963D01*
X144636443Y-62870481D01*
X144570260Y-62877000D01*
X144481740Y-62877000D01*
X144415557Y-62870481D01*
X144349373Y-62863963D01*
X144179534Y-62812443D01*
X144023009Y-62728778D01*
X143987271Y-62699448D01*
X143885814Y-62616186D01*
X143802552Y-62514729D01*
X143773222Y-62478991D01*
X143689557Y-62322466D01*
X143638037Y-62152627D01*
X143620641Y-61976000D01*
X143638037Y-61799373D01*
X143689557Y-61629534D01*
X143773222Y-61473009D01*
X143802552Y-61437271D01*
X143885814Y-61335814D01*
X143987271Y-61252552D01*
X144023009Y-61223222D01*
X144179534Y-61139557D01*
X144349373Y-61088037D01*
X144415558Y-61081518D01*
X144481740Y-61075000D01*
X144570260Y-61075000D01*
X144636442Y-61081518D01*
X144636442Y-61081518D01*
G37*
G36*
X144636443Y-58541519D02*
G01*
X144702627Y-58548037D01*
X144872466Y-58599557D01*
X145028991Y-58683222D01*
X145064729Y-58712552D01*
X145166186Y-58795814D01*
X145249448Y-58897271D01*
X145278778Y-58933009D01*
X145362443Y-59089534D01*
X145413963Y-59259373D01*
X145431359Y-59436000D01*
X145413963Y-59612627D01*
X145362443Y-59782466D01*
X145278778Y-59938991D01*
X145249448Y-59974729D01*
X145166186Y-60076186D01*
X145064729Y-60159448D01*
X145028991Y-60188778D01*
X144872466Y-60272443D01*
X144702627Y-60323963D01*
X144636442Y-60330482D01*
X144570260Y-60337000D01*
X144481740Y-60337000D01*
X144415558Y-60330482D01*
X144349373Y-60323963D01*
X144179534Y-60272443D01*
X144023009Y-60188778D01*
X143987271Y-60159448D01*
X143885814Y-60076186D01*
X143802552Y-59974729D01*
X143773222Y-59938991D01*
X143689557Y-59782466D01*
X143638037Y-59612627D01*
X143620641Y-59436000D01*
X143638037Y-59259373D01*
X143689557Y-59089534D01*
X143773222Y-58933009D01*
X143802552Y-58897271D01*
X143885814Y-58795814D01*
X143987271Y-58712552D01*
X144023009Y-58683222D01*
X144179534Y-58599557D01*
X144349373Y-58548037D01*
X144415557Y-58541519D01*
X144481740Y-58535000D01*
X144570260Y-58535000D01*
X144636443Y-58541519D01*
X144636443Y-58541519D01*
G37*
G36*
X144636442Y-56001518D02*
G01*
X144702627Y-56008037D01*
X144872466Y-56059557D01*
X145028991Y-56143222D01*
X145064729Y-56172552D01*
X145166186Y-56255814D01*
X145249448Y-56357271D01*
X145278778Y-56393009D01*
X145362443Y-56549534D01*
X145413963Y-56719373D01*
X145431359Y-56896000D01*
X145413963Y-57072627D01*
X145362443Y-57242466D01*
X145278778Y-57398991D01*
X145249448Y-57434729D01*
X145166186Y-57536186D01*
X145064729Y-57619448D01*
X145028991Y-57648778D01*
X144872466Y-57732443D01*
X144702627Y-57783963D01*
X144636442Y-57790482D01*
X144570260Y-57797000D01*
X144481740Y-57797000D01*
X144415558Y-57790482D01*
X144349373Y-57783963D01*
X144179534Y-57732443D01*
X144023009Y-57648778D01*
X143987271Y-57619448D01*
X143885814Y-57536186D01*
X143802552Y-57434729D01*
X143773222Y-57398991D01*
X143689557Y-57242466D01*
X143638037Y-57072627D01*
X143620641Y-56896000D01*
X143638037Y-56719373D01*
X143689557Y-56549534D01*
X143773222Y-56393009D01*
X143802552Y-56357271D01*
X143885814Y-56255814D01*
X143987271Y-56172552D01*
X144023009Y-56143222D01*
X144179534Y-56059557D01*
X144349373Y-56008037D01*
X144415558Y-56001518D01*
X144481740Y-55995000D01*
X144570260Y-55995000D01*
X144636442Y-56001518D01*
X144636442Y-56001518D01*
G37*
G36*
X145427000Y-55257000D02*
G01*
X143625000Y-55257000D01*
X143625000Y-53455000D01*
X145427000Y-53455000D01*
X145427000Y-55257000D01*
X145427000Y-55257000D01*
G37*
G36*
X110135583Y-51816000D02*
G01*
X110317734Y-51852232D01*
X110527203Y-51938997D01*
X110715720Y-52064960D01*
X110876040Y-52225280D01*
X111002003Y-52413797D01*
X111088768Y-52623266D01*
X111133000Y-52845636D01*
X111133000Y-53072364D01*
X111088768Y-53294734D01*
X111002003Y-53504203D01*
X110876040Y-53692720D01*
X110715720Y-53853040D01*
X110527203Y-53979003D01*
X110317734Y-54065768D01*
X110206549Y-54087884D01*
X110095365Y-54110000D01*
X109868635Y-54110000D01*
X109757451Y-54087884D01*
X109646266Y-54065768D01*
X109436797Y-53979003D01*
X109248280Y-53853040D01*
X109087960Y-53692720D01*
X108961997Y-53504203D01*
X108875232Y-53294734D01*
X108831000Y-53072364D01*
X108831000Y-52845636D01*
X108875232Y-52623266D01*
X108961997Y-52413797D01*
X109087960Y-52225280D01*
X109248280Y-52064960D01*
X109436797Y-51938997D01*
X109646266Y-51852232D01*
X109828417Y-51816000D01*
X109868635Y-51808000D01*
X110095365Y-51808000D01*
X110135583Y-51816000D01*
X110135583Y-51816000D01*
G37*
G36*
X167412583Y-51816000D02*
G01*
X167594734Y-51852232D01*
X167804203Y-51938997D01*
X167992720Y-52064960D01*
X168153040Y-52225280D01*
X168279003Y-52413797D01*
X168365768Y-52623266D01*
X168410000Y-52845636D01*
X168410000Y-53072364D01*
X168365768Y-53294734D01*
X168279003Y-53504203D01*
X168153040Y-53692720D01*
X167992720Y-53853040D01*
X167804203Y-53979003D01*
X167594734Y-54065768D01*
X167483549Y-54087884D01*
X167372365Y-54110000D01*
X167145635Y-54110000D01*
X167034451Y-54087884D01*
X166923266Y-54065768D01*
X166713797Y-53979003D01*
X166525280Y-53853040D01*
X166364960Y-53692720D01*
X166238997Y-53504203D01*
X166152232Y-53294734D01*
X166108000Y-53072364D01*
X166108000Y-52845636D01*
X166152232Y-52623266D01*
X166238997Y-52413797D01*
X166364960Y-52225280D01*
X166525280Y-52064960D01*
X166713797Y-51938997D01*
X166923266Y-51852232D01*
X167105417Y-51816000D01*
X167145635Y-51808000D01*
X167372365Y-51808000D01*
X167412583Y-51816000D01*
X167412583Y-51816000D01*
G37*
G36*
X149716443Y-50921519D02*
G01*
X149782627Y-50928037D01*
X149952466Y-50979557D01*
X150108991Y-51063222D01*
X150144729Y-51092552D01*
X150246186Y-51175814D01*
X150329448Y-51277271D01*
X150358778Y-51313009D01*
X150442443Y-51469534D01*
X150493963Y-51639373D01*
X150511359Y-51816000D01*
X150493963Y-51992627D01*
X150442443Y-52162466D01*
X150358778Y-52318991D01*
X150329448Y-52354729D01*
X150246186Y-52456186D01*
X150144729Y-52539448D01*
X150108991Y-52568778D01*
X149952466Y-52652443D01*
X149782627Y-52703963D01*
X149716443Y-52710481D01*
X149650260Y-52717000D01*
X149561740Y-52717000D01*
X149495558Y-52710482D01*
X149429373Y-52703963D01*
X149259534Y-52652443D01*
X149103009Y-52568778D01*
X149067271Y-52539448D01*
X148965814Y-52456186D01*
X148882552Y-52354729D01*
X148853222Y-52318991D01*
X148769557Y-52162466D01*
X148718037Y-51992627D01*
X148700641Y-51816000D01*
X148718037Y-51639373D01*
X148769557Y-51469534D01*
X148853222Y-51313009D01*
X148882552Y-51277271D01*
X148965814Y-51175814D01*
X149067271Y-51092552D01*
X149103009Y-51063222D01*
X149259534Y-50979557D01*
X149429373Y-50928037D01*
X149495557Y-50921519D01*
X149561740Y-50915000D01*
X149650260Y-50915000D01*
X149716443Y-50921519D01*
X149716443Y-50921519D01*
G37*
G36*
X147176443Y-50921519D02*
G01*
X147242627Y-50928037D01*
X147412466Y-50979557D01*
X147568991Y-51063222D01*
X147604729Y-51092552D01*
X147706186Y-51175814D01*
X147789448Y-51277271D01*
X147818778Y-51313009D01*
X147902443Y-51469534D01*
X147953963Y-51639373D01*
X147971359Y-51816000D01*
X147953963Y-51992627D01*
X147902443Y-52162466D01*
X147818778Y-52318991D01*
X147789448Y-52354729D01*
X147706186Y-52456186D01*
X147604729Y-52539448D01*
X147568991Y-52568778D01*
X147412466Y-52652443D01*
X147242627Y-52703963D01*
X147176443Y-52710481D01*
X147110260Y-52717000D01*
X147021740Y-52717000D01*
X146955558Y-52710482D01*
X146889373Y-52703963D01*
X146719534Y-52652443D01*
X146563009Y-52568778D01*
X146527271Y-52539448D01*
X146425814Y-52456186D01*
X146342552Y-52354729D01*
X146313222Y-52318991D01*
X146229557Y-52162466D01*
X146178037Y-51992627D01*
X146160641Y-51816000D01*
X146178037Y-51639373D01*
X146229557Y-51469534D01*
X146313222Y-51313009D01*
X146342552Y-51277271D01*
X146425814Y-51175814D01*
X146527271Y-51092552D01*
X146563009Y-51063222D01*
X146719534Y-50979557D01*
X146889373Y-50928037D01*
X146955557Y-50921519D01*
X147021740Y-50915000D01*
X147110260Y-50915000D01*
X147176443Y-50921519D01*
X147176443Y-50921519D01*
G37*
G36*
X144636443Y-50921519D02*
G01*
X144702627Y-50928037D01*
X144872466Y-50979557D01*
X145028991Y-51063222D01*
X145064729Y-51092552D01*
X145166186Y-51175814D01*
X145249448Y-51277271D01*
X145278778Y-51313009D01*
X145362443Y-51469534D01*
X145413963Y-51639373D01*
X145431359Y-51816000D01*
X145413963Y-51992627D01*
X145362443Y-52162466D01*
X145278778Y-52318991D01*
X145249448Y-52354729D01*
X145166186Y-52456186D01*
X145064729Y-52539448D01*
X145028991Y-52568778D01*
X144872466Y-52652443D01*
X144702627Y-52703963D01*
X144636443Y-52710481D01*
X144570260Y-52717000D01*
X144481740Y-52717000D01*
X144415558Y-52710482D01*
X144349373Y-52703963D01*
X144179534Y-52652443D01*
X144023009Y-52568778D01*
X143987271Y-52539448D01*
X143885814Y-52456186D01*
X143802552Y-52354729D01*
X143773222Y-52318991D01*
X143689557Y-52162466D01*
X143638037Y-51992627D01*
X143620641Y-51816000D01*
X143638037Y-51639373D01*
X143689557Y-51469534D01*
X143773222Y-51313009D01*
X143802552Y-51277271D01*
X143885814Y-51175814D01*
X143987271Y-51092552D01*
X144023009Y-51063222D01*
X144179534Y-50979557D01*
X144349373Y-50928037D01*
X144415557Y-50921519D01*
X144481740Y-50915000D01*
X144570260Y-50915000D01*
X144636443Y-50921519D01*
X144636443Y-50921519D01*
G37*
G36*
X142096443Y-50921519D02*
G01*
X142162627Y-50928037D01*
X142332466Y-50979557D01*
X142488991Y-51063222D01*
X142524729Y-51092552D01*
X142626186Y-51175814D01*
X142709448Y-51277271D01*
X142738778Y-51313009D01*
X142822443Y-51469534D01*
X142873963Y-51639373D01*
X142891359Y-51816000D01*
X142873963Y-51992627D01*
X142822443Y-52162466D01*
X142738778Y-52318991D01*
X142709448Y-52354729D01*
X142626186Y-52456186D01*
X142524729Y-52539448D01*
X142488991Y-52568778D01*
X142332466Y-52652443D01*
X142162627Y-52703963D01*
X142096443Y-52710481D01*
X142030260Y-52717000D01*
X141941740Y-52717000D01*
X141875558Y-52710482D01*
X141809373Y-52703963D01*
X141639534Y-52652443D01*
X141483009Y-52568778D01*
X141447271Y-52539448D01*
X141345814Y-52456186D01*
X141262552Y-52354729D01*
X141233222Y-52318991D01*
X141149557Y-52162466D01*
X141098037Y-51992627D01*
X141080641Y-51816000D01*
X141098037Y-51639373D01*
X141149557Y-51469534D01*
X141233222Y-51313009D01*
X141262552Y-51277271D01*
X141345814Y-51175814D01*
X141447271Y-51092552D01*
X141483009Y-51063222D01*
X141639534Y-50979557D01*
X141809373Y-50928037D01*
X141875557Y-50921519D01*
X141941740Y-50915000D01*
X142030260Y-50915000D01*
X142096443Y-50921519D01*
X142096443Y-50921519D01*
G37*
G36*
X139556443Y-50921519D02*
G01*
X139622627Y-50928037D01*
X139792466Y-50979557D01*
X139948991Y-51063222D01*
X139984729Y-51092552D01*
X140086186Y-51175814D01*
X140169448Y-51277271D01*
X140198778Y-51313009D01*
X140282443Y-51469534D01*
X140333963Y-51639373D01*
X140351359Y-51816000D01*
X140333963Y-51992627D01*
X140282443Y-52162466D01*
X140198778Y-52318991D01*
X140169448Y-52354729D01*
X140086186Y-52456186D01*
X139984729Y-52539448D01*
X139948991Y-52568778D01*
X139792466Y-52652443D01*
X139622627Y-52703963D01*
X139556443Y-52710481D01*
X139490260Y-52717000D01*
X139401740Y-52717000D01*
X139335558Y-52710482D01*
X139269373Y-52703963D01*
X139099534Y-52652443D01*
X138943009Y-52568778D01*
X138907271Y-52539448D01*
X138805814Y-52456186D01*
X138722552Y-52354729D01*
X138693222Y-52318991D01*
X138609557Y-52162466D01*
X138558037Y-51992627D01*
X138540641Y-51816000D01*
X138558037Y-51639373D01*
X138609557Y-51469534D01*
X138693222Y-51313009D01*
X138722552Y-51277271D01*
X138805814Y-51175814D01*
X138907271Y-51092552D01*
X138943009Y-51063222D01*
X139099534Y-50979557D01*
X139269373Y-50928037D01*
X139335557Y-50921519D01*
X139401740Y-50915000D01*
X139490260Y-50915000D01*
X139556443Y-50921519D01*
X139556443Y-50921519D01*
G37*
G36*
X137016443Y-50921519D02*
G01*
X137082627Y-50928037D01*
X137252466Y-50979557D01*
X137408991Y-51063222D01*
X137444729Y-51092552D01*
X137546186Y-51175814D01*
X137629448Y-51277271D01*
X137658778Y-51313009D01*
X137742443Y-51469534D01*
X137793963Y-51639373D01*
X137811359Y-51816000D01*
X137793963Y-51992627D01*
X137742443Y-52162466D01*
X137658778Y-52318991D01*
X137629448Y-52354729D01*
X137546186Y-52456186D01*
X137444729Y-52539448D01*
X137408991Y-52568778D01*
X137252466Y-52652443D01*
X137082627Y-52703963D01*
X137016443Y-52710481D01*
X136950260Y-52717000D01*
X136861740Y-52717000D01*
X136795558Y-52710482D01*
X136729373Y-52703963D01*
X136559534Y-52652443D01*
X136403009Y-52568778D01*
X136367271Y-52539448D01*
X136265814Y-52456186D01*
X136182552Y-52354729D01*
X136153222Y-52318991D01*
X136069557Y-52162466D01*
X136018037Y-51992627D01*
X136000641Y-51816000D01*
X136018037Y-51639373D01*
X136069557Y-51469534D01*
X136153222Y-51313009D01*
X136182552Y-51277271D01*
X136265814Y-51175814D01*
X136367271Y-51092552D01*
X136403009Y-51063222D01*
X136559534Y-50979557D01*
X136729373Y-50928037D01*
X136795557Y-50921519D01*
X136861740Y-50915000D01*
X136950260Y-50915000D01*
X137016443Y-50921519D01*
X137016443Y-50921519D01*
G37*
G36*
X134476443Y-50921519D02*
G01*
X134542627Y-50928037D01*
X134712466Y-50979557D01*
X134868991Y-51063222D01*
X134904729Y-51092552D01*
X135006186Y-51175814D01*
X135089448Y-51277271D01*
X135118778Y-51313009D01*
X135202443Y-51469534D01*
X135253963Y-51639373D01*
X135271359Y-51816000D01*
X135253963Y-51992627D01*
X135202443Y-52162466D01*
X135118778Y-52318991D01*
X135089448Y-52354729D01*
X135006186Y-52456186D01*
X134904729Y-52539448D01*
X134868991Y-52568778D01*
X134712466Y-52652443D01*
X134542627Y-52703963D01*
X134476443Y-52710481D01*
X134410260Y-52717000D01*
X134321740Y-52717000D01*
X134255558Y-52710482D01*
X134189373Y-52703963D01*
X134019534Y-52652443D01*
X133863009Y-52568778D01*
X133827271Y-52539448D01*
X133725814Y-52456186D01*
X133642552Y-52354729D01*
X133613222Y-52318991D01*
X133529557Y-52162466D01*
X133478037Y-51992627D01*
X133460641Y-51816000D01*
X133478037Y-51639373D01*
X133529557Y-51469534D01*
X133613222Y-51313009D01*
X133642552Y-51277271D01*
X133725814Y-51175814D01*
X133827271Y-51092552D01*
X133863009Y-51063222D01*
X134019534Y-50979557D01*
X134189373Y-50928037D01*
X134255557Y-50921519D01*
X134321740Y-50915000D01*
X134410260Y-50915000D01*
X134476443Y-50921519D01*
X134476443Y-50921519D01*
G37*
G36*
X131936443Y-50921519D02*
G01*
X132002627Y-50928037D01*
X132172466Y-50979557D01*
X132328991Y-51063222D01*
X132364729Y-51092552D01*
X132466186Y-51175814D01*
X132549448Y-51277271D01*
X132578778Y-51313009D01*
X132662443Y-51469534D01*
X132713963Y-51639373D01*
X132731359Y-51816000D01*
X132713963Y-51992627D01*
X132662443Y-52162466D01*
X132578778Y-52318991D01*
X132549448Y-52354729D01*
X132466186Y-52456186D01*
X132364729Y-52539448D01*
X132328991Y-52568778D01*
X132172466Y-52652443D01*
X132002627Y-52703963D01*
X131936443Y-52710481D01*
X131870260Y-52717000D01*
X131781740Y-52717000D01*
X131715558Y-52710482D01*
X131649373Y-52703963D01*
X131479534Y-52652443D01*
X131323009Y-52568778D01*
X131287271Y-52539448D01*
X131185814Y-52456186D01*
X131102552Y-52354729D01*
X131073222Y-52318991D01*
X130989557Y-52162466D01*
X130938037Y-51992627D01*
X130920641Y-51816000D01*
X130938037Y-51639373D01*
X130989557Y-51469534D01*
X131073222Y-51313009D01*
X131102552Y-51277271D01*
X131185814Y-51175814D01*
X131287271Y-51092552D01*
X131323009Y-51063222D01*
X131479534Y-50979557D01*
X131649373Y-50928037D01*
X131715557Y-50921519D01*
X131781740Y-50915000D01*
X131870260Y-50915000D01*
X131936443Y-50921519D01*
X131936443Y-50921519D01*
G37*
G36*
X129396443Y-50921519D02*
G01*
X129462627Y-50928037D01*
X129632466Y-50979557D01*
X129788991Y-51063222D01*
X129824729Y-51092552D01*
X129926186Y-51175814D01*
X130009448Y-51277271D01*
X130038778Y-51313009D01*
X130122443Y-51469534D01*
X130173963Y-51639373D01*
X130191359Y-51816000D01*
X130173963Y-51992627D01*
X130122443Y-52162466D01*
X130038778Y-52318991D01*
X130009448Y-52354729D01*
X129926186Y-52456186D01*
X129824729Y-52539448D01*
X129788991Y-52568778D01*
X129632466Y-52652443D01*
X129462627Y-52703963D01*
X129396443Y-52710481D01*
X129330260Y-52717000D01*
X129241740Y-52717000D01*
X129175558Y-52710482D01*
X129109373Y-52703963D01*
X128939534Y-52652443D01*
X128783009Y-52568778D01*
X128747271Y-52539448D01*
X128645814Y-52456186D01*
X128562552Y-52354729D01*
X128533222Y-52318991D01*
X128449557Y-52162466D01*
X128398037Y-51992627D01*
X128380641Y-51816000D01*
X128398037Y-51639373D01*
X128449557Y-51469534D01*
X128533222Y-51313009D01*
X128562552Y-51277271D01*
X128645814Y-51175814D01*
X128747271Y-51092552D01*
X128783009Y-51063222D01*
X128939534Y-50979557D01*
X129109373Y-50928037D01*
X129175557Y-50921519D01*
X129241740Y-50915000D01*
X129330260Y-50915000D01*
X129396443Y-50921519D01*
X129396443Y-50921519D01*
G37*
G36*
X126856443Y-50921519D02*
G01*
X126922627Y-50928037D01*
X127092466Y-50979557D01*
X127248991Y-51063222D01*
X127284729Y-51092552D01*
X127386186Y-51175814D01*
X127469448Y-51277271D01*
X127498778Y-51313009D01*
X127582443Y-51469534D01*
X127633963Y-51639373D01*
X127651359Y-51816000D01*
X127633963Y-51992627D01*
X127582443Y-52162466D01*
X127498778Y-52318991D01*
X127469448Y-52354729D01*
X127386186Y-52456186D01*
X127284729Y-52539448D01*
X127248991Y-52568778D01*
X127092466Y-52652443D01*
X126922627Y-52703963D01*
X126856443Y-52710481D01*
X126790260Y-52717000D01*
X126701740Y-52717000D01*
X126635558Y-52710482D01*
X126569373Y-52703963D01*
X126399534Y-52652443D01*
X126243009Y-52568778D01*
X126207271Y-52539448D01*
X126105814Y-52456186D01*
X126022552Y-52354729D01*
X125993222Y-52318991D01*
X125909557Y-52162466D01*
X125858037Y-51992627D01*
X125840641Y-51816000D01*
X125858037Y-51639373D01*
X125909557Y-51469534D01*
X125993222Y-51313009D01*
X126022552Y-51277271D01*
X126105814Y-51175814D01*
X126207271Y-51092552D01*
X126243009Y-51063222D01*
X126399534Y-50979557D01*
X126569373Y-50928037D01*
X126635557Y-50921519D01*
X126701740Y-50915000D01*
X126790260Y-50915000D01*
X126856443Y-50921519D01*
X126856443Y-50921519D01*
G37*
G36*
X124316443Y-50921519D02*
G01*
X124382627Y-50928037D01*
X124552466Y-50979557D01*
X124708991Y-51063222D01*
X124744729Y-51092552D01*
X124846186Y-51175814D01*
X124929448Y-51277271D01*
X124958778Y-51313009D01*
X125042443Y-51469534D01*
X125093963Y-51639373D01*
X125111359Y-51816000D01*
X125093963Y-51992627D01*
X125042443Y-52162466D01*
X124958778Y-52318991D01*
X124929448Y-52354729D01*
X124846186Y-52456186D01*
X124744729Y-52539448D01*
X124708991Y-52568778D01*
X124552466Y-52652443D01*
X124382627Y-52703963D01*
X124316443Y-52710481D01*
X124250260Y-52717000D01*
X124161740Y-52717000D01*
X124095558Y-52710482D01*
X124029373Y-52703963D01*
X123859534Y-52652443D01*
X123703009Y-52568778D01*
X123667271Y-52539448D01*
X123565814Y-52456186D01*
X123482552Y-52354729D01*
X123453222Y-52318991D01*
X123369557Y-52162466D01*
X123318037Y-51992627D01*
X123300641Y-51816000D01*
X123318037Y-51639373D01*
X123369557Y-51469534D01*
X123453222Y-51313009D01*
X123482552Y-51277271D01*
X123565814Y-51175814D01*
X123667271Y-51092552D01*
X123703009Y-51063222D01*
X123859534Y-50979557D01*
X124029373Y-50928037D01*
X124095557Y-50921519D01*
X124161740Y-50915000D01*
X124250260Y-50915000D01*
X124316443Y-50921519D01*
X124316443Y-50921519D01*
G37*
G36*
X121776443Y-50921519D02*
G01*
X121842627Y-50928037D01*
X122012466Y-50979557D01*
X122168991Y-51063222D01*
X122204729Y-51092552D01*
X122306186Y-51175814D01*
X122389448Y-51277271D01*
X122418778Y-51313009D01*
X122502443Y-51469534D01*
X122553963Y-51639373D01*
X122571359Y-51816000D01*
X122553963Y-51992627D01*
X122502443Y-52162466D01*
X122418778Y-52318991D01*
X122389448Y-52354729D01*
X122306186Y-52456186D01*
X122204729Y-52539448D01*
X122168991Y-52568778D01*
X122012466Y-52652443D01*
X121842627Y-52703963D01*
X121776443Y-52710481D01*
X121710260Y-52717000D01*
X121621740Y-52717000D01*
X121555558Y-52710482D01*
X121489373Y-52703963D01*
X121319534Y-52652443D01*
X121163009Y-52568778D01*
X121127271Y-52539448D01*
X121025814Y-52456186D01*
X120942552Y-52354729D01*
X120913222Y-52318991D01*
X120829557Y-52162466D01*
X120778037Y-51992627D01*
X120760641Y-51816000D01*
X120778037Y-51639373D01*
X120829557Y-51469534D01*
X120913222Y-51313009D01*
X120942552Y-51277271D01*
X121025814Y-51175814D01*
X121127271Y-51092552D01*
X121163009Y-51063222D01*
X121319534Y-50979557D01*
X121489373Y-50928037D01*
X121555557Y-50921519D01*
X121621740Y-50915000D01*
X121710260Y-50915000D01*
X121776443Y-50921519D01*
X121776443Y-50921519D01*
G37*
G36*
X119236443Y-50921519D02*
G01*
X119302627Y-50928037D01*
X119472466Y-50979557D01*
X119628991Y-51063222D01*
X119664729Y-51092552D01*
X119766186Y-51175814D01*
X119849448Y-51277271D01*
X119878778Y-51313009D01*
X119962443Y-51469534D01*
X120013963Y-51639373D01*
X120031359Y-51816000D01*
X120013963Y-51992627D01*
X119962443Y-52162466D01*
X119878778Y-52318991D01*
X119849448Y-52354729D01*
X119766186Y-52456186D01*
X119664729Y-52539448D01*
X119628991Y-52568778D01*
X119472466Y-52652443D01*
X119302627Y-52703963D01*
X119236443Y-52710481D01*
X119170260Y-52717000D01*
X119081740Y-52717000D01*
X119015558Y-52710482D01*
X118949373Y-52703963D01*
X118779534Y-52652443D01*
X118623009Y-52568778D01*
X118587271Y-52539448D01*
X118485814Y-52456186D01*
X118402552Y-52354729D01*
X118373222Y-52318991D01*
X118289557Y-52162466D01*
X118238037Y-51992627D01*
X118220641Y-51816000D01*
X118238037Y-51639373D01*
X118289557Y-51469534D01*
X118373222Y-51313009D01*
X118402552Y-51277271D01*
X118485814Y-51175814D01*
X118587271Y-51092552D01*
X118623009Y-51063222D01*
X118779534Y-50979557D01*
X118949373Y-50928037D01*
X119015557Y-50921519D01*
X119081740Y-50915000D01*
X119170260Y-50915000D01*
X119236443Y-50921519D01*
X119236443Y-50921519D01*
G37*
G36*
X116696443Y-50921519D02*
G01*
X116762627Y-50928037D01*
X116932466Y-50979557D01*
X117088991Y-51063222D01*
X117124729Y-51092552D01*
X117226186Y-51175814D01*
X117309448Y-51277271D01*
X117338778Y-51313009D01*
X117422443Y-51469534D01*
X117473963Y-51639373D01*
X117491359Y-51816000D01*
X117473963Y-51992627D01*
X117422443Y-52162466D01*
X117338778Y-52318991D01*
X117309448Y-52354729D01*
X117226186Y-52456186D01*
X117124729Y-52539448D01*
X117088991Y-52568778D01*
X116932466Y-52652443D01*
X116762627Y-52703963D01*
X116696443Y-52710481D01*
X116630260Y-52717000D01*
X116541740Y-52717000D01*
X116475558Y-52710482D01*
X116409373Y-52703963D01*
X116239534Y-52652443D01*
X116083009Y-52568778D01*
X116047271Y-52539448D01*
X115945814Y-52456186D01*
X115862552Y-52354729D01*
X115833222Y-52318991D01*
X115749557Y-52162466D01*
X115698037Y-51992627D01*
X115680641Y-51816000D01*
X115698037Y-51639373D01*
X115749557Y-51469534D01*
X115833222Y-51313009D01*
X115862552Y-51277271D01*
X115945814Y-51175814D01*
X116047271Y-51092552D01*
X116083009Y-51063222D01*
X116239534Y-50979557D01*
X116409373Y-50928037D01*
X116475557Y-50921519D01*
X116541740Y-50915000D01*
X116630260Y-50915000D01*
X116696443Y-50921519D01*
X116696443Y-50921519D01*
G37*
G36*
X114156443Y-50921519D02*
G01*
X114222627Y-50928037D01*
X114392466Y-50979557D01*
X114548991Y-51063222D01*
X114584729Y-51092552D01*
X114686186Y-51175814D01*
X114769448Y-51277271D01*
X114798778Y-51313009D01*
X114882443Y-51469534D01*
X114933963Y-51639373D01*
X114951359Y-51816000D01*
X114933963Y-51992627D01*
X114882443Y-52162466D01*
X114798778Y-52318991D01*
X114769448Y-52354729D01*
X114686186Y-52456186D01*
X114584729Y-52539448D01*
X114548991Y-52568778D01*
X114392466Y-52652443D01*
X114222627Y-52703963D01*
X114156443Y-52710481D01*
X114090260Y-52717000D01*
X114001740Y-52717000D01*
X113935558Y-52710482D01*
X113869373Y-52703963D01*
X113699534Y-52652443D01*
X113543009Y-52568778D01*
X113507271Y-52539448D01*
X113405814Y-52456186D01*
X113322552Y-52354729D01*
X113293222Y-52318991D01*
X113209557Y-52162466D01*
X113158037Y-51992627D01*
X113140641Y-51816000D01*
X113158037Y-51639373D01*
X113209557Y-51469534D01*
X113293222Y-51313009D01*
X113322552Y-51277271D01*
X113405814Y-51175814D01*
X113507271Y-51092552D01*
X113543009Y-51063222D01*
X113699534Y-50979557D01*
X113869373Y-50928037D01*
X113935557Y-50921519D01*
X114001740Y-50915000D01*
X114090260Y-50915000D01*
X114156443Y-50921519D01*
X114156443Y-50921519D01*
G37*
G36*
X152256443Y-50921519D02*
G01*
X152322627Y-50928037D01*
X152492466Y-50979557D01*
X152648991Y-51063222D01*
X152684729Y-51092552D01*
X152786186Y-51175814D01*
X152869448Y-51277271D01*
X152898778Y-51313009D01*
X152982443Y-51469534D01*
X153033963Y-51639373D01*
X153051359Y-51816000D01*
X153033963Y-51992627D01*
X152982443Y-52162466D01*
X152898778Y-52318991D01*
X152869448Y-52354729D01*
X152786186Y-52456186D01*
X152684729Y-52539448D01*
X152648991Y-52568778D01*
X152492466Y-52652443D01*
X152322627Y-52703963D01*
X152256443Y-52710481D01*
X152190260Y-52717000D01*
X152101740Y-52717000D01*
X152035558Y-52710482D01*
X151969373Y-52703963D01*
X151799534Y-52652443D01*
X151643009Y-52568778D01*
X151607271Y-52539448D01*
X151505814Y-52456186D01*
X151422552Y-52354729D01*
X151393222Y-52318991D01*
X151309557Y-52162466D01*
X151258037Y-51992627D01*
X151240641Y-51816000D01*
X151258037Y-51639373D01*
X151309557Y-51469534D01*
X151393222Y-51313009D01*
X151422552Y-51277271D01*
X151505814Y-51175814D01*
X151607271Y-51092552D01*
X151643009Y-51063222D01*
X151799534Y-50979557D01*
X151969373Y-50928037D01*
X152035557Y-50921519D01*
X152101740Y-50915000D01*
X152190260Y-50915000D01*
X152256443Y-50921519D01*
X152256443Y-50921519D01*
G37*
G36*
X154796443Y-50921519D02*
G01*
X154862627Y-50928037D01*
X155032466Y-50979557D01*
X155188991Y-51063222D01*
X155224729Y-51092552D01*
X155326186Y-51175814D01*
X155409448Y-51277271D01*
X155438778Y-51313009D01*
X155522443Y-51469534D01*
X155573963Y-51639373D01*
X155591359Y-51816000D01*
X155573963Y-51992627D01*
X155522443Y-52162466D01*
X155438778Y-52318991D01*
X155409448Y-52354729D01*
X155326186Y-52456186D01*
X155224729Y-52539448D01*
X155188991Y-52568778D01*
X155032466Y-52652443D01*
X154862627Y-52703963D01*
X154796443Y-52710481D01*
X154730260Y-52717000D01*
X154641740Y-52717000D01*
X154575558Y-52710482D01*
X154509373Y-52703963D01*
X154339534Y-52652443D01*
X154183009Y-52568778D01*
X154147271Y-52539448D01*
X154045814Y-52456186D01*
X153962552Y-52354729D01*
X153933222Y-52318991D01*
X153849557Y-52162466D01*
X153798037Y-51992627D01*
X153780641Y-51816000D01*
X153798037Y-51639373D01*
X153849557Y-51469534D01*
X153933222Y-51313009D01*
X153962552Y-51277271D01*
X154045814Y-51175814D01*
X154147271Y-51092552D01*
X154183009Y-51063222D01*
X154339534Y-50979557D01*
X154509373Y-50928037D01*
X154575557Y-50921519D01*
X154641740Y-50915000D01*
X154730260Y-50915000D01*
X154796443Y-50921519D01*
X154796443Y-50921519D01*
G37*
G36*
X157336443Y-50921519D02*
G01*
X157402627Y-50928037D01*
X157572466Y-50979557D01*
X157728991Y-51063222D01*
X157764729Y-51092552D01*
X157866186Y-51175814D01*
X157949448Y-51277271D01*
X157978778Y-51313009D01*
X158062443Y-51469534D01*
X158113963Y-51639373D01*
X158131359Y-51816000D01*
X158113963Y-51992627D01*
X158062443Y-52162466D01*
X157978778Y-52318991D01*
X157949448Y-52354729D01*
X157866186Y-52456186D01*
X157764729Y-52539448D01*
X157728991Y-52568778D01*
X157572466Y-52652443D01*
X157402627Y-52703963D01*
X157336443Y-52710481D01*
X157270260Y-52717000D01*
X157181740Y-52717000D01*
X157115558Y-52710482D01*
X157049373Y-52703963D01*
X156879534Y-52652443D01*
X156723009Y-52568778D01*
X156687271Y-52539448D01*
X156585814Y-52456186D01*
X156502552Y-52354729D01*
X156473222Y-52318991D01*
X156389557Y-52162466D01*
X156338037Y-51992627D01*
X156320641Y-51816000D01*
X156338037Y-51639373D01*
X156389557Y-51469534D01*
X156473222Y-51313009D01*
X156502552Y-51277271D01*
X156585814Y-51175814D01*
X156687271Y-51092552D01*
X156723009Y-51063222D01*
X156879534Y-50979557D01*
X157049373Y-50928037D01*
X157115557Y-50921519D01*
X157181740Y-50915000D01*
X157270260Y-50915000D01*
X157336443Y-50921519D01*
X157336443Y-50921519D01*
G37*
G36*
X159876443Y-50921519D02*
G01*
X159942627Y-50928037D01*
X160112466Y-50979557D01*
X160268991Y-51063222D01*
X160304729Y-51092552D01*
X160406186Y-51175814D01*
X160489448Y-51277271D01*
X160518778Y-51313009D01*
X160602443Y-51469534D01*
X160653963Y-51639373D01*
X160671359Y-51816000D01*
X160653963Y-51992627D01*
X160602443Y-52162466D01*
X160518778Y-52318991D01*
X160489448Y-52354729D01*
X160406186Y-52456186D01*
X160304729Y-52539448D01*
X160268991Y-52568778D01*
X160112466Y-52652443D01*
X159942627Y-52703963D01*
X159876443Y-52710481D01*
X159810260Y-52717000D01*
X159721740Y-52717000D01*
X159655558Y-52710482D01*
X159589373Y-52703963D01*
X159419534Y-52652443D01*
X159263009Y-52568778D01*
X159227271Y-52539448D01*
X159125814Y-52456186D01*
X159042552Y-52354729D01*
X159013222Y-52318991D01*
X158929557Y-52162466D01*
X158878037Y-51992627D01*
X158860641Y-51816000D01*
X158878037Y-51639373D01*
X158929557Y-51469534D01*
X159013222Y-51313009D01*
X159042552Y-51277271D01*
X159125814Y-51175814D01*
X159227271Y-51092552D01*
X159263009Y-51063222D01*
X159419534Y-50979557D01*
X159589373Y-50928037D01*
X159655557Y-50921519D01*
X159721740Y-50915000D01*
X159810260Y-50915000D01*
X159876443Y-50921519D01*
X159876443Y-50921519D01*
G37*
M02*
